%TF.GenerationSoftware,KiCad,Pcbnew,(6.0.1)*%
%TF.CreationDate,2022-01-28T13:41:17+01:00*%
%TF.ProjectId,pcb,7063622e-6b69-4636-9164-5f7063625858,rev?*%
%TF.SameCoordinates,Original*%
%TF.FileFunction,Paste,Top*%
%TF.FilePolarity,Positive*%
%FSLAX46Y46*%
G04 Gerber Fmt 4.6, Leading zero omitted, Abs format (unit mm)*
G04 Created by KiCad (PCBNEW (6.0.1)) date 2022-01-28 13:41:17*
%MOMM*%
%LPD*%
G01*
G04 APERTURE LIST*
G04 Aperture macros list*
%AMRotRect*
0 Rectangle, with rotation*
0 The origin of the aperture is its center*
0 $1 length*
0 $2 width*
0 $3 Rotation angle, in degrees counterclockwise*
0 Add horizontal line*
21,1,$1,$2,0,0,$3*%
G04 Aperture macros list end*
%ADD10R,1.600000X1.200000*%
%ADD11RotRect,1.600000X1.200000X168.000000*%
%ADD12RotRect,1.600000X1.200000X155.900000*%
%ADD13RotRect,1.600000X1.200000X245.900000*%
G04 APERTURE END LIST*
D10*
%TO.C,D1*%
X39081250Y-88106250D03*
X41881250Y-88106250D03*
%TD*%
%TO.C,D2*%
X39081250Y-107156250D03*
X41881250Y-107156250D03*
%TD*%
%TO.C,D3*%
X39081250Y-126206250D03*
X41881250Y-126206250D03*
%TD*%
%TO.C,D4*%
X39081250Y-145256250D03*
X41881250Y-145256250D03*
%TD*%
%TO.C,D6*%
X60512500Y-107156250D03*
X63312500Y-107156250D03*
%TD*%
%TO.C,D7*%
X60512500Y-126206250D03*
X63312500Y-126206250D03*
%TD*%
%TO.C,D8*%
X60512500Y-145256250D03*
X63312500Y-145256250D03*
%TD*%
%TO.C,D9*%
X79562500Y-78581250D03*
X82362500Y-78581250D03*
%TD*%
%TO.C,D10*%
X79562500Y-97631250D03*
X82362500Y-97631250D03*
%TD*%
%TO.C,D11*%
X79562500Y-116681250D03*
X82362500Y-116681250D03*
%TD*%
%TO.C,D12*%
X79562500Y-135731250D03*
X82362500Y-135731250D03*
%TD*%
%TO.C,D14*%
X98612500Y-73818750D03*
X101412500Y-73818750D03*
%TD*%
%TO.C,D15*%
X98612500Y-92868750D03*
X101412500Y-92868750D03*
%TD*%
%TO.C,D16*%
X98612500Y-111918750D03*
X101412500Y-111918750D03*
%TD*%
%TO.C,D17*%
X98612500Y-130968750D03*
X101412500Y-130968750D03*
%TD*%
%TO.C,D18*%
X98612500Y-150018750D03*
X101412500Y-150018750D03*
%TD*%
%TO.C,D19*%
X117662500Y-78581250D03*
X120462500Y-78581250D03*
%TD*%
%TO.C,D20*%
X117662500Y-97631250D03*
X120462500Y-97631250D03*
%TD*%
%TO.C,D21*%
X117662500Y-116681250D03*
X120462500Y-116681250D03*
%TD*%
%TO.C,D22*%
X117662500Y-135731250D03*
X120462500Y-135731250D03*
%TD*%
%TO.C,D23*%
X117662500Y-154781250D03*
X120462500Y-154781250D03*
%TD*%
%TO.C,D24*%
X136712500Y-83343750D03*
X139512500Y-83343750D03*
%TD*%
%TO.C,D25*%
X136712500Y-102393750D03*
X139512500Y-102393750D03*
%TD*%
%TO.C,D26*%
X136712500Y-121443750D03*
X139512500Y-121443750D03*
%TD*%
%TO.C,D27*%
X136712500Y-140493750D03*
X139512500Y-140493750D03*
%TD*%
D11*
%TO.C,D28*%
X141280584Y-161923162D03*
X144019398Y-162505314D03*
%TD*%
D10*
%TO.C,D29*%
X155850000Y-81700000D03*
X158650000Y-81700000D03*
%TD*%
%TO.C,D30*%
X155762500Y-107156250D03*
X158562500Y-107156250D03*
%TD*%
%TO.C,D31*%
X60512500Y-164306250D03*
X63312500Y-164306250D03*
%TD*%
%TO.C,D32*%
X155762500Y-140493750D03*
X158562500Y-140493750D03*
%TD*%
D12*
%TO.C,D33*%
X164981198Y-168801339D03*
X167537134Y-169944665D03*
%TD*%
D13*
%TO.C,D34*%
X167478337Y-152177968D03*
X168621663Y-149622032D03*
%TD*%
D10*
%TO.C,D5*%
X60512500Y-88106250D03*
X63312500Y-88106250D03*
%TD*%
%TO.C,D13*%
X79562840Y-154781900D03*
X82362840Y-154781900D03*
%TD*%
%TO.C,D35*%
X39081250Y-164306250D03*
X41881250Y-164306250D03*
%TD*%
M02*
