%TF.GenerationSoftware,KiCad,Pcbnew,(6.0.1)*%
%TF.CreationDate,2022-01-28T13:41:17+01:00*%
%TF.ProjectId,pcb,7063622e-6b69-4636-9164-5f7063625858,rev?*%
%TF.SameCoordinates,Original*%
%TF.FileFunction,Legend,Top*%
%TF.FilePolarity,Positive*%
%FSLAX46Y46*%
G04 Gerber Fmt 4.6, Leading zero omitted, Abs format (unit mm)*
G04 Created by KiCad (PCBNEW (6.0.1)) date 2022-01-28 13:41:17*
%MOMM*%
%LPD*%
G01*
G04 APERTURE LIST*
G04 Aperture macros list*
%AMRotRect*
0 Rectangle, with rotation*
0 The origin of the aperture is its center*
0 $1 length*
0 $2 width*
0 $3 Rotation angle, in degrees counterclockwise*
0 Add horizontal line*
21,1,$1,$2,0,0,$3*%
G04 Aperture macros list end*
%ADD10C,0.150000*%
%ADD11C,0.200000*%
%ADD12C,0.120000*%
%ADD13C,0.381000*%
%ADD14C,0.010000*%
%ADD15R,1.600000X1.600000*%
%ADD16C,1.600000*%
%ADD17RotRect,1.600000X1.600000X168.000000*%
%ADD18RotRect,1.600000X1.600000X155.900000*%
%ADD19RotRect,1.600000X1.600000X245.900000*%
%ADD20C,1.397000*%
%ADD21R,1.752600X1.752600*%
%ADD22C,1.752600*%
%ADD23C,2.000000*%
%ADD24C,1.200000*%
%ADD25O,2.500000X1.700000*%
G04 APERTURE END LIST*
D10*
%TO.C,D1*%
X39916173Y-87068154D02*
X39916173Y-86268154D01*
X40106650Y-86268154D01*
X40220935Y-86306250D01*
X40297126Y-86382440D01*
X40335221Y-86458630D01*
X40373316Y-86611011D01*
X40373316Y-86725297D01*
X40335221Y-86877678D01*
X40297126Y-86953869D01*
X40220935Y-87030059D01*
X40106650Y-87068154D01*
X39916173Y-87068154D01*
X41135221Y-87068154D02*
X40678078Y-87068154D01*
X40906650Y-87068154D02*
X40906650Y-86268154D01*
X40830459Y-86382440D01*
X40754269Y-86458630D01*
X40678078Y-86496726D01*
%TO.C,D2*%
X39916173Y-106118154D02*
X39916173Y-105318154D01*
X40106650Y-105318154D01*
X40220935Y-105356250D01*
X40297126Y-105432440D01*
X40335221Y-105508630D01*
X40373316Y-105661011D01*
X40373316Y-105775297D01*
X40335221Y-105927678D01*
X40297126Y-106003869D01*
X40220935Y-106080059D01*
X40106650Y-106118154D01*
X39916173Y-106118154D01*
X40678078Y-105394345D02*
X40716173Y-105356250D01*
X40792364Y-105318154D01*
X40982840Y-105318154D01*
X41059030Y-105356250D01*
X41097126Y-105394345D01*
X41135221Y-105470535D01*
X41135221Y-105546726D01*
X41097126Y-105661011D01*
X40639983Y-106118154D01*
X41135221Y-106118154D01*
%TO.C,D3*%
X39916173Y-125168154D02*
X39916173Y-124368154D01*
X40106650Y-124368154D01*
X40220935Y-124406250D01*
X40297126Y-124482440D01*
X40335221Y-124558630D01*
X40373316Y-124711011D01*
X40373316Y-124825297D01*
X40335221Y-124977678D01*
X40297126Y-125053869D01*
X40220935Y-125130059D01*
X40106650Y-125168154D01*
X39916173Y-125168154D01*
X40639983Y-124368154D02*
X41135221Y-124368154D01*
X40868554Y-124672916D01*
X40982840Y-124672916D01*
X41059030Y-124711011D01*
X41097126Y-124749107D01*
X41135221Y-124825297D01*
X41135221Y-125015773D01*
X41097126Y-125091964D01*
X41059030Y-125130059D01*
X40982840Y-125168154D01*
X40754269Y-125168154D01*
X40678078Y-125130059D01*
X40639983Y-125091964D01*
%TO.C,D4*%
X39916173Y-144218154D02*
X39916173Y-143418154D01*
X40106650Y-143418154D01*
X40220935Y-143456250D01*
X40297126Y-143532440D01*
X40335221Y-143608630D01*
X40373316Y-143761011D01*
X40373316Y-143875297D01*
X40335221Y-144027678D01*
X40297126Y-144103869D01*
X40220935Y-144180059D01*
X40106650Y-144218154D01*
X39916173Y-144218154D01*
X41059030Y-143684821D02*
X41059030Y-144218154D01*
X40868554Y-143380059D02*
X40678078Y-143951488D01*
X41173316Y-143951488D01*
%TO.C,D6*%
X61347423Y-106118154D02*
X61347423Y-105318154D01*
X61537900Y-105318154D01*
X61652185Y-105356250D01*
X61728376Y-105432440D01*
X61766471Y-105508630D01*
X61804566Y-105661011D01*
X61804566Y-105775297D01*
X61766471Y-105927678D01*
X61728376Y-106003869D01*
X61652185Y-106080059D01*
X61537900Y-106118154D01*
X61347423Y-106118154D01*
X62490280Y-105318154D02*
X62337900Y-105318154D01*
X62261709Y-105356250D01*
X62223614Y-105394345D01*
X62147423Y-105508630D01*
X62109328Y-105661011D01*
X62109328Y-105965773D01*
X62147423Y-106041964D01*
X62185519Y-106080059D01*
X62261709Y-106118154D01*
X62414090Y-106118154D01*
X62490280Y-106080059D01*
X62528376Y-106041964D01*
X62566471Y-105965773D01*
X62566471Y-105775297D01*
X62528376Y-105699107D01*
X62490280Y-105661011D01*
X62414090Y-105622916D01*
X62261709Y-105622916D01*
X62185519Y-105661011D01*
X62147423Y-105699107D01*
X62109328Y-105775297D01*
%TO.C,D7*%
X61347423Y-125168154D02*
X61347423Y-124368154D01*
X61537900Y-124368154D01*
X61652185Y-124406250D01*
X61728376Y-124482440D01*
X61766471Y-124558630D01*
X61804566Y-124711011D01*
X61804566Y-124825297D01*
X61766471Y-124977678D01*
X61728376Y-125053869D01*
X61652185Y-125130059D01*
X61537900Y-125168154D01*
X61347423Y-125168154D01*
X62071233Y-124368154D02*
X62604566Y-124368154D01*
X62261709Y-125168154D01*
%TO.C,D8*%
X61347423Y-144218154D02*
X61347423Y-143418154D01*
X61537900Y-143418154D01*
X61652185Y-143456250D01*
X61728376Y-143532440D01*
X61766471Y-143608630D01*
X61804566Y-143761011D01*
X61804566Y-143875297D01*
X61766471Y-144027678D01*
X61728376Y-144103869D01*
X61652185Y-144180059D01*
X61537900Y-144218154D01*
X61347423Y-144218154D01*
X62261709Y-143761011D02*
X62185519Y-143722916D01*
X62147423Y-143684821D01*
X62109328Y-143608630D01*
X62109328Y-143570535D01*
X62147423Y-143494345D01*
X62185519Y-143456250D01*
X62261709Y-143418154D01*
X62414090Y-143418154D01*
X62490280Y-143456250D01*
X62528376Y-143494345D01*
X62566471Y-143570535D01*
X62566471Y-143608630D01*
X62528376Y-143684821D01*
X62490280Y-143722916D01*
X62414090Y-143761011D01*
X62261709Y-143761011D01*
X62185519Y-143799107D01*
X62147423Y-143837202D01*
X62109328Y-143913392D01*
X62109328Y-144065773D01*
X62147423Y-144141964D01*
X62185519Y-144180059D01*
X62261709Y-144218154D01*
X62414090Y-144218154D01*
X62490280Y-144180059D01*
X62528376Y-144141964D01*
X62566471Y-144065773D01*
X62566471Y-143913392D01*
X62528376Y-143837202D01*
X62490280Y-143799107D01*
X62414090Y-143761011D01*
%TO.C,D9*%
X80397423Y-77543154D02*
X80397423Y-76743154D01*
X80587900Y-76743154D01*
X80702185Y-76781250D01*
X80778376Y-76857440D01*
X80816471Y-76933630D01*
X80854566Y-77086011D01*
X80854566Y-77200297D01*
X80816471Y-77352678D01*
X80778376Y-77428869D01*
X80702185Y-77505059D01*
X80587900Y-77543154D01*
X80397423Y-77543154D01*
X81235519Y-77543154D02*
X81387900Y-77543154D01*
X81464090Y-77505059D01*
X81502185Y-77466964D01*
X81578376Y-77352678D01*
X81616471Y-77200297D01*
X81616471Y-76895535D01*
X81578376Y-76819345D01*
X81540280Y-76781250D01*
X81464090Y-76743154D01*
X81311709Y-76743154D01*
X81235519Y-76781250D01*
X81197423Y-76819345D01*
X81159328Y-76895535D01*
X81159328Y-77086011D01*
X81197423Y-77162202D01*
X81235519Y-77200297D01*
X81311709Y-77238392D01*
X81464090Y-77238392D01*
X81540280Y-77200297D01*
X81578376Y-77162202D01*
X81616471Y-77086011D01*
%TO.C,D10*%
X80016471Y-96593154D02*
X80016471Y-95793154D01*
X80206947Y-95793154D01*
X80321233Y-95831250D01*
X80397423Y-95907440D01*
X80435519Y-95983630D01*
X80473614Y-96136011D01*
X80473614Y-96250297D01*
X80435519Y-96402678D01*
X80397423Y-96478869D01*
X80321233Y-96555059D01*
X80206947Y-96593154D01*
X80016471Y-96593154D01*
X81235519Y-96593154D02*
X80778376Y-96593154D01*
X81006947Y-96593154D02*
X81006947Y-95793154D01*
X80930757Y-95907440D01*
X80854566Y-95983630D01*
X80778376Y-96021726D01*
X81730757Y-95793154D02*
X81806947Y-95793154D01*
X81883138Y-95831250D01*
X81921233Y-95869345D01*
X81959328Y-95945535D01*
X81997423Y-96097916D01*
X81997423Y-96288392D01*
X81959328Y-96440773D01*
X81921233Y-96516964D01*
X81883138Y-96555059D01*
X81806947Y-96593154D01*
X81730757Y-96593154D01*
X81654566Y-96555059D01*
X81616471Y-96516964D01*
X81578376Y-96440773D01*
X81540280Y-96288392D01*
X81540280Y-96097916D01*
X81578376Y-95945535D01*
X81616471Y-95869345D01*
X81654566Y-95831250D01*
X81730757Y-95793154D01*
%TO.C,D11*%
X80016471Y-115643154D02*
X80016471Y-114843154D01*
X80206947Y-114843154D01*
X80321233Y-114881250D01*
X80397423Y-114957440D01*
X80435519Y-115033630D01*
X80473614Y-115186011D01*
X80473614Y-115300297D01*
X80435519Y-115452678D01*
X80397423Y-115528869D01*
X80321233Y-115605059D01*
X80206947Y-115643154D01*
X80016471Y-115643154D01*
X81235519Y-115643154D02*
X80778376Y-115643154D01*
X81006947Y-115643154D02*
X81006947Y-114843154D01*
X80930757Y-114957440D01*
X80854566Y-115033630D01*
X80778376Y-115071726D01*
X81997423Y-115643154D02*
X81540280Y-115643154D01*
X81768852Y-115643154D02*
X81768852Y-114843154D01*
X81692661Y-114957440D01*
X81616471Y-115033630D01*
X81540280Y-115071726D01*
%TO.C,D12*%
X80016471Y-134693154D02*
X80016471Y-133893154D01*
X80206947Y-133893154D01*
X80321233Y-133931250D01*
X80397423Y-134007440D01*
X80435519Y-134083630D01*
X80473614Y-134236011D01*
X80473614Y-134350297D01*
X80435519Y-134502678D01*
X80397423Y-134578869D01*
X80321233Y-134655059D01*
X80206947Y-134693154D01*
X80016471Y-134693154D01*
X81235519Y-134693154D02*
X80778376Y-134693154D01*
X81006947Y-134693154D02*
X81006947Y-133893154D01*
X80930757Y-134007440D01*
X80854566Y-134083630D01*
X80778376Y-134121726D01*
X81540280Y-133969345D02*
X81578376Y-133931250D01*
X81654566Y-133893154D01*
X81845042Y-133893154D01*
X81921233Y-133931250D01*
X81959328Y-133969345D01*
X81997423Y-134045535D01*
X81997423Y-134121726D01*
X81959328Y-134236011D01*
X81502185Y-134693154D01*
X81997423Y-134693154D01*
%TO.C,D14*%
X99066471Y-72780654D02*
X99066471Y-71980654D01*
X99256947Y-71980654D01*
X99371233Y-72018750D01*
X99447423Y-72094940D01*
X99485519Y-72171130D01*
X99523614Y-72323511D01*
X99523614Y-72437797D01*
X99485519Y-72590178D01*
X99447423Y-72666369D01*
X99371233Y-72742559D01*
X99256947Y-72780654D01*
X99066471Y-72780654D01*
X100285519Y-72780654D02*
X99828376Y-72780654D01*
X100056947Y-72780654D02*
X100056947Y-71980654D01*
X99980757Y-72094940D01*
X99904566Y-72171130D01*
X99828376Y-72209226D01*
X100971233Y-72247321D02*
X100971233Y-72780654D01*
X100780757Y-71942559D02*
X100590280Y-72513988D01*
X101085519Y-72513988D01*
%TO.C,D15*%
X99066471Y-91830654D02*
X99066471Y-91030654D01*
X99256947Y-91030654D01*
X99371233Y-91068750D01*
X99447423Y-91144940D01*
X99485519Y-91221130D01*
X99523614Y-91373511D01*
X99523614Y-91487797D01*
X99485519Y-91640178D01*
X99447423Y-91716369D01*
X99371233Y-91792559D01*
X99256947Y-91830654D01*
X99066471Y-91830654D01*
X100285519Y-91830654D02*
X99828376Y-91830654D01*
X100056947Y-91830654D02*
X100056947Y-91030654D01*
X99980757Y-91144940D01*
X99904566Y-91221130D01*
X99828376Y-91259226D01*
X101009328Y-91030654D02*
X100628376Y-91030654D01*
X100590280Y-91411607D01*
X100628376Y-91373511D01*
X100704566Y-91335416D01*
X100895042Y-91335416D01*
X100971233Y-91373511D01*
X101009328Y-91411607D01*
X101047423Y-91487797D01*
X101047423Y-91678273D01*
X101009328Y-91754464D01*
X100971233Y-91792559D01*
X100895042Y-91830654D01*
X100704566Y-91830654D01*
X100628376Y-91792559D01*
X100590280Y-91754464D01*
%TO.C,D16*%
X99066471Y-110880654D02*
X99066471Y-110080654D01*
X99256947Y-110080654D01*
X99371233Y-110118750D01*
X99447423Y-110194940D01*
X99485519Y-110271130D01*
X99523614Y-110423511D01*
X99523614Y-110537797D01*
X99485519Y-110690178D01*
X99447423Y-110766369D01*
X99371233Y-110842559D01*
X99256947Y-110880654D01*
X99066471Y-110880654D01*
X100285519Y-110880654D02*
X99828376Y-110880654D01*
X100056947Y-110880654D02*
X100056947Y-110080654D01*
X99980757Y-110194940D01*
X99904566Y-110271130D01*
X99828376Y-110309226D01*
X100971233Y-110080654D02*
X100818852Y-110080654D01*
X100742661Y-110118750D01*
X100704566Y-110156845D01*
X100628376Y-110271130D01*
X100590280Y-110423511D01*
X100590280Y-110728273D01*
X100628376Y-110804464D01*
X100666471Y-110842559D01*
X100742661Y-110880654D01*
X100895042Y-110880654D01*
X100971233Y-110842559D01*
X101009328Y-110804464D01*
X101047423Y-110728273D01*
X101047423Y-110537797D01*
X101009328Y-110461607D01*
X100971233Y-110423511D01*
X100895042Y-110385416D01*
X100742661Y-110385416D01*
X100666471Y-110423511D01*
X100628376Y-110461607D01*
X100590280Y-110537797D01*
%TO.C,D17*%
X99066471Y-129930654D02*
X99066471Y-129130654D01*
X99256947Y-129130654D01*
X99371233Y-129168750D01*
X99447423Y-129244940D01*
X99485519Y-129321130D01*
X99523614Y-129473511D01*
X99523614Y-129587797D01*
X99485519Y-129740178D01*
X99447423Y-129816369D01*
X99371233Y-129892559D01*
X99256947Y-129930654D01*
X99066471Y-129930654D01*
X100285519Y-129930654D02*
X99828376Y-129930654D01*
X100056947Y-129930654D02*
X100056947Y-129130654D01*
X99980757Y-129244940D01*
X99904566Y-129321130D01*
X99828376Y-129359226D01*
X100552185Y-129130654D02*
X101085519Y-129130654D01*
X100742661Y-129930654D01*
%TO.C,D18*%
X99066471Y-148980654D02*
X99066471Y-148180654D01*
X99256947Y-148180654D01*
X99371233Y-148218750D01*
X99447423Y-148294940D01*
X99485519Y-148371130D01*
X99523614Y-148523511D01*
X99523614Y-148637797D01*
X99485519Y-148790178D01*
X99447423Y-148866369D01*
X99371233Y-148942559D01*
X99256947Y-148980654D01*
X99066471Y-148980654D01*
X100285519Y-148980654D02*
X99828376Y-148980654D01*
X100056947Y-148980654D02*
X100056947Y-148180654D01*
X99980757Y-148294940D01*
X99904566Y-148371130D01*
X99828376Y-148409226D01*
X100742661Y-148523511D02*
X100666471Y-148485416D01*
X100628376Y-148447321D01*
X100590280Y-148371130D01*
X100590280Y-148333035D01*
X100628376Y-148256845D01*
X100666471Y-148218750D01*
X100742661Y-148180654D01*
X100895042Y-148180654D01*
X100971233Y-148218750D01*
X101009328Y-148256845D01*
X101047423Y-148333035D01*
X101047423Y-148371130D01*
X101009328Y-148447321D01*
X100971233Y-148485416D01*
X100895042Y-148523511D01*
X100742661Y-148523511D01*
X100666471Y-148561607D01*
X100628376Y-148599702D01*
X100590280Y-148675892D01*
X100590280Y-148828273D01*
X100628376Y-148904464D01*
X100666471Y-148942559D01*
X100742661Y-148980654D01*
X100895042Y-148980654D01*
X100971233Y-148942559D01*
X101009328Y-148904464D01*
X101047423Y-148828273D01*
X101047423Y-148675892D01*
X101009328Y-148599702D01*
X100971233Y-148561607D01*
X100895042Y-148523511D01*
%TO.C,D19*%
X118116471Y-77543154D02*
X118116471Y-76743154D01*
X118306947Y-76743154D01*
X118421233Y-76781250D01*
X118497423Y-76857440D01*
X118535519Y-76933630D01*
X118573614Y-77086011D01*
X118573614Y-77200297D01*
X118535519Y-77352678D01*
X118497423Y-77428869D01*
X118421233Y-77505059D01*
X118306947Y-77543154D01*
X118116471Y-77543154D01*
X119335519Y-77543154D02*
X118878376Y-77543154D01*
X119106947Y-77543154D02*
X119106947Y-76743154D01*
X119030757Y-76857440D01*
X118954566Y-76933630D01*
X118878376Y-76971726D01*
X119716471Y-77543154D02*
X119868852Y-77543154D01*
X119945042Y-77505059D01*
X119983138Y-77466964D01*
X120059328Y-77352678D01*
X120097423Y-77200297D01*
X120097423Y-76895535D01*
X120059328Y-76819345D01*
X120021233Y-76781250D01*
X119945042Y-76743154D01*
X119792661Y-76743154D01*
X119716471Y-76781250D01*
X119678376Y-76819345D01*
X119640280Y-76895535D01*
X119640280Y-77086011D01*
X119678376Y-77162202D01*
X119716471Y-77200297D01*
X119792661Y-77238392D01*
X119945042Y-77238392D01*
X120021233Y-77200297D01*
X120059328Y-77162202D01*
X120097423Y-77086011D01*
%TO.C,D20*%
X118116471Y-96593154D02*
X118116471Y-95793154D01*
X118306947Y-95793154D01*
X118421233Y-95831250D01*
X118497423Y-95907440D01*
X118535519Y-95983630D01*
X118573614Y-96136011D01*
X118573614Y-96250297D01*
X118535519Y-96402678D01*
X118497423Y-96478869D01*
X118421233Y-96555059D01*
X118306947Y-96593154D01*
X118116471Y-96593154D01*
X118878376Y-95869345D02*
X118916471Y-95831250D01*
X118992661Y-95793154D01*
X119183138Y-95793154D01*
X119259328Y-95831250D01*
X119297423Y-95869345D01*
X119335519Y-95945535D01*
X119335519Y-96021726D01*
X119297423Y-96136011D01*
X118840280Y-96593154D01*
X119335519Y-96593154D01*
X119830757Y-95793154D02*
X119906947Y-95793154D01*
X119983138Y-95831250D01*
X120021233Y-95869345D01*
X120059328Y-95945535D01*
X120097423Y-96097916D01*
X120097423Y-96288392D01*
X120059328Y-96440773D01*
X120021233Y-96516964D01*
X119983138Y-96555059D01*
X119906947Y-96593154D01*
X119830757Y-96593154D01*
X119754566Y-96555059D01*
X119716471Y-96516964D01*
X119678376Y-96440773D01*
X119640280Y-96288392D01*
X119640280Y-96097916D01*
X119678376Y-95945535D01*
X119716471Y-95869345D01*
X119754566Y-95831250D01*
X119830757Y-95793154D01*
%TO.C,D21*%
X118116471Y-115643154D02*
X118116471Y-114843154D01*
X118306947Y-114843154D01*
X118421233Y-114881250D01*
X118497423Y-114957440D01*
X118535519Y-115033630D01*
X118573614Y-115186011D01*
X118573614Y-115300297D01*
X118535519Y-115452678D01*
X118497423Y-115528869D01*
X118421233Y-115605059D01*
X118306947Y-115643154D01*
X118116471Y-115643154D01*
X118878376Y-114919345D02*
X118916471Y-114881250D01*
X118992661Y-114843154D01*
X119183138Y-114843154D01*
X119259328Y-114881250D01*
X119297423Y-114919345D01*
X119335519Y-114995535D01*
X119335519Y-115071726D01*
X119297423Y-115186011D01*
X118840280Y-115643154D01*
X119335519Y-115643154D01*
X120097423Y-115643154D02*
X119640280Y-115643154D01*
X119868852Y-115643154D02*
X119868852Y-114843154D01*
X119792661Y-114957440D01*
X119716471Y-115033630D01*
X119640280Y-115071726D01*
%TO.C,D22*%
X118116471Y-134693154D02*
X118116471Y-133893154D01*
X118306947Y-133893154D01*
X118421233Y-133931250D01*
X118497423Y-134007440D01*
X118535519Y-134083630D01*
X118573614Y-134236011D01*
X118573614Y-134350297D01*
X118535519Y-134502678D01*
X118497423Y-134578869D01*
X118421233Y-134655059D01*
X118306947Y-134693154D01*
X118116471Y-134693154D01*
X118878376Y-133969345D02*
X118916471Y-133931250D01*
X118992661Y-133893154D01*
X119183138Y-133893154D01*
X119259328Y-133931250D01*
X119297423Y-133969345D01*
X119335519Y-134045535D01*
X119335519Y-134121726D01*
X119297423Y-134236011D01*
X118840280Y-134693154D01*
X119335519Y-134693154D01*
X119640280Y-133969345D02*
X119678376Y-133931250D01*
X119754566Y-133893154D01*
X119945042Y-133893154D01*
X120021233Y-133931250D01*
X120059328Y-133969345D01*
X120097423Y-134045535D01*
X120097423Y-134121726D01*
X120059328Y-134236011D01*
X119602185Y-134693154D01*
X120097423Y-134693154D01*
%TO.C,D23*%
X118116471Y-153743154D02*
X118116471Y-152943154D01*
X118306947Y-152943154D01*
X118421233Y-152981250D01*
X118497423Y-153057440D01*
X118535519Y-153133630D01*
X118573614Y-153286011D01*
X118573614Y-153400297D01*
X118535519Y-153552678D01*
X118497423Y-153628869D01*
X118421233Y-153705059D01*
X118306947Y-153743154D01*
X118116471Y-153743154D01*
X118878376Y-153019345D02*
X118916471Y-152981250D01*
X118992661Y-152943154D01*
X119183138Y-152943154D01*
X119259328Y-152981250D01*
X119297423Y-153019345D01*
X119335519Y-153095535D01*
X119335519Y-153171726D01*
X119297423Y-153286011D01*
X118840280Y-153743154D01*
X119335519Y-153743154D01*
X119602185Y-152943154D02*
X120097423Y-152943154D01*
X119830757Y-153247916D01*
X119945042Y-153247916D01*
X120021233Y-153286011D01*
X120059328Y-153324107D01*
X120097423Y-153400297D01*
X120097423Y-153590773D01*
X120059328Y-153666964D01*
X120021233Y-153705059D01*
X119945042Y-153743154D01*
X119716471Y-153743154D01*
X119640280Y-153705059D01*
X119602185Y-153666964D01*
%TO.C,D24*%
X137166471Y-82305654D02*
X137166471Y-81505654D01*
X137356947Y-81505654D01*
X137471233Y-81543750D01*
X137547423Y-81619940D01*
X137585519Y-81696130D01*
X137623614Y-81848511D01*
X137623614Y-81962797D01*
X137585519Y-82115178D01*
X137547423Y-82191369D01*
X137471233Y-82267559D01*
X137356947Y-82305654D01*
X137166471Y-82305654D01*
X137928376Y-81581845D02*
X137966471Y-81543750D01*
X138042661Y-81505654D01*
X138233138Y-81505654D01*
X138309328Y-81543750D01*
X138347423Y-81581845D01*
X138385519Y-81658035D01*
X138385519Y-81734226D01*
X138347423Y-81848511D01*
X137890280Y-82305654D01*
X138385519Y-82305654D01*
X139071233Y-81772321D02*
X139071233Y-82305654D01*
X138880757Y-81467559D02*
X138690280Y-82038988D01*
X139185519Y-82038988D01*
%TO.C,D25*%
X137166471Y-101355654D02*
X137166471Y-100555654D01*
X137356947Y-100555654D01*
X137471233Y-100593750D01*
X137547423Y-100669940D01*
X137585519Y-100746130D01*
X137623614Y-100898511D01*
X137623614Y-101012797D01*
X137585519Y-101165178D01*
X137547423Y-101241369D01*
X137471233Y-101317559D01*
X137356947Y-101355654D01*
X137166471Y-101355654D01*
X137928376Y-100631845D02*
X137966471Y-100593750D01*
X138042661Y-100555654D01*
X138233138Y-100555654D01*
X138309328Y-100593750D01*
X138347423Y-100631845D01*
X138385519Y-100708035D01*
X138385519Y-100784226D01*
X138347423Y-100898511D01*
X137890280Y-101355654D01*
X138385519Y-101355654D01*
X139109328Y-100555654D02*
X138728376Y-100555654D01*
X138690280Y-100936607D01*
X138728376Y-100898511D01*
X138804566Y-100860416D01*
X138995042Y-100860416D01*
X139071233Y-100898511D01*
X139109328Y-100936607D01*
X139147423Y-101012797D01*
X139147423Y-101203273D01*
X139109328Y-101279464D01*
X139071233Y-101317559D01*
X138995042Y-101355654D01*
X138804566Y-101355654D01*
X138728376Y-101317559D01*
X138690280Y-101279464D01*
%TO.C,D26*%
X137166471Y-120405654D02*
X137166471Y-119605654D01*
X137356947Y-119605654D01*
X137471233Y-119643750D01*
X137547423Y-119719940D01*
X137585519Y-119796130D01*
X137623614Y-119948511D01*
X137623614Y-120062797D01*
X137585519Y-120215178D01*
X137547423Y-120291369D01*
X137471233Y-120367559D01*
X137356947Y-120405654D01*
X137166471Y-120405654D01*
X137928376Y-119681845D02*
X137966471Y-119643750D01*
X138042661Y-119605654D01*
X138233138Y-119605654D01*
X138309328Y-119643750D01*
X138347423Y-119681845D01*
X138385519Y-119758035D01*
X138385519Y-119834226D01*
X138347423Y-119948511D01*
X137890280Y-120405654D01*
X138385519Y-120405654D01*
X139071233Y-119605654D02*
X138918852Y-119605654D01*
X138842661Y-119643750D01*
X138804566Y-119681845D01*
X138728376Y-119796130D01*
X138690280Y-119948511D01*
X138690280Y-120253273D01*
X138728376Y-120329464D01*
X138766471Y-120367559D01*
X138842661Y-120405654D01*
X138995042Y-120405654D01*
X139071233Y-120367559D01*
X139109328Y-120329464D01*
X139147423Y-120253273D01*
X139147423Y-120062797D01*
X139109328Y-119986607D01*
X139071233Y-119948511D01*
X138995042Y-119910416D01*
X138842661Y-119910416D01*
X138766471Y-119948511D01*
X138728376Y-119986607D01*
X138690280Y-120062797D01*
%TO.C,D27*%
X137166471Y-139455654D02*
X137166471Y-138655654D01*
X137356947Y-138655654D01*
X137471233Y-138693750D01*
X137547423Y-138769940D01*
X137585519Y-138846130D01*
X137623614Y-138998511D01*
X137623614Y-139112797D01*
X137585519Y-139265178D01*
X137547423Y-139341369D01*
X137471233Y-139417559D01*
X137356947Y-139455654D01*
X137166471Y-139455654D01*
X137928376Y-138731845D02*
X137966471Y-138693750D01*
X138042661Y-138655654D01*
X138233138Y-138655654D01*
X138309328Y-138693750D01*
X138347423Y-138731845D01*
X138385519Y-138808035D01*
X138385519Y-138884226D01*
X138347423Y-138998511D01*
X137890280Y-139455654D01*
X138385519Y-139455654D01*
X138652185Y-138655654D02*
X139185519Y-138655654D01*
X138842661Y-139455654D01*
%TO.C,D28*%
X143991356Y-160698087D02*
X143825027Y-161480605D01*
X143638713Y-161441002D01*
X143534845Y-161379978D01*
X143476161Y-161289612D01*
X143454739Y-161207166D01*
X143449158Y-161050194D01*
X143472919Y-160938406D01*
X143541864Y-160797276D01*
X143594967Y-160730670D01*
X143685334Y-160671986D01*
X143805042Y-160658484D01*
X143991356Y-160698087D01*
X143095612Y-161247670D02*
X143050429Y-161277013D01*
X142967983Y-161298434D01*
X142781669Y-161258832D01*
X142715064Y-161205729D01*
X142685722Y-161160545D01*
X142664300Y-161078099D01*
X142680141Y-161003574D01*
X142741165Y-160899706D01*
X143283364Y-160547598D01*
X142798948Y-160444632D01*
X142256749Y-160796740D02*
X142323354Y-160849844D01*
X142352697Y-160895027D01*
X142374119Y-160977473D01*
X142366198Y-161014736D01*
X142313094Y-161081341D01*
X142267911Y-161110683D01*
X142185465Y-161132105D01*
X142036414Y-161100423D01*
X141969809Y-161047320D01*
X141940467Y-161002136D01*
X141919045Y-160919690D01*
X141926965Y-160882428D01*
X141980069Y-160815823D01*
X142025252Y-160786480D01*
X142107698Y-160765058D01*
X142256749Y-160796740D01*
X142339195Y-160775318D01*
X142384378Y-160745976D01*
X142437482Y-160679371D01*
X142469164Y-160530320D01*
X142447742Y-160447874D01*
X142418400Y-160402691D01*
X142351795Y-160349587D01*
X142202744Y-160317905D01*
X142120298Y-160339327D01*
X142075114Y-160368669D01*
X142022011Y-160435274D01*
X141990329Y-160584326D01*
X142011751Y-160666772D01*
X142041093Y-160711955D01*
X142107698Y-160765058D01*
%TO.C,D29*%
X159178571Y-80561904D02*
X159178571Y-79761904D01*
X159369047Y-79761904D01*
X159483333Y-79800000D01*
X159559523Y-79876190D01*
X159597619Y-79952380D01*
X159635714Y-80104761D01*
X159635714Y-80219047D01*
X159597619Y-80371428D01*
X159559523Y-80447619D01*
X159483333Y-80523809D01*
X159369047Y-80561904D01*
X159178571Y-80561904D01*
X159940476Y-79838095D02*
X159978571Y-79800000D01*
X160054761Y-79761904D01*
X160245238Y-79761904D01*
X160321428Y-79800000D01*
X160359523Y-79838095D01*
X160397619Y-79914285D01*
X160397619Y-79990476D01*
X160359523Y-80104761D01*
X159902380Y-80561904D01*
X160397619Y-80561904D01*
X160778571Y-80561904D02*
X160930952Y-80561904D01*
X161007142Y-80523809D01*
X161045238Y-80485714D01*
X161121428Y-80371428D01*
X161159523Y-80219047D01*
X161159523Y-79914285D01*
X161121428Y-79838095D01*
X161083333Y-79800000D01*
X161007142Y-79761904D01*
X160854761Y-79761904D01*
X160778571Y-79800000D01*
X160740476Y-79838095D01*
X160702380Y-79914285D01*
X160702380Y-80104761D01*
X160740476Y-80180952D01*
X160778571Y-80219047D01*
X160854761Y-80257142D01*
X161007142Y-80257142D01*
X161083333Y-80219047D01*
X161121428Y-80180952D01*
X161159523Y-80104761D01*
%TO.C,D30*%
X156216471Y-106118154D02*
X156216471Y-105318154D01*
X156406947Y-105318154D01*
X156521233Y-105356250D01*
X156597423Y-105432440D01*
X156635519Y-105508630D01*
X156673614Y-105661011D01*
X156673614Y-105775297D01*
X156635519Y-105927678D01*
X156597423Y-106003869D01*
X156521233Y-106080059D01*
X156406947Y-106118154D01*
X156216471Y-106118154D01*
X156940280Y-105318154D02*
X157435519Y-105318154D01*
X157168852Y-105622916D01*
X157283138Y-105622916D01*
X157359328Y-105661011D01*
X157397423Y-105699107D01*
X157435519Y-105775297D01*
X157435519Y-105965773D01*
X157397423Y-106041964D01*
X157359328Y-106080059D01*
X157283138Y-106118154D01*
X157054566Y-106118154D01*
X156978376Y-106080059D01*
X156940280Y-106041964D01*
X157930757Y-105318154D02*
X158006947Y-105318154D01*
X158083138Y-105356250D01*
X158121233Y-105394345D01*
X158159328Y-105470535D01*
X158197423Y-105622916D01*
X158197423Y-105813392D01*
X158159328Y-105965773D01*
X158121233Y-106041964D01*
X158083138Y-106080059D01*
X158006947Y-106118154D01*
X157930757Y-106118154D01*
X157854566Y-106080059D01*
X157816471Y-106041964D01*
X157778376Y-105965773D01*
X157740280Y-105813392D01*
X157740280Y-105622916D01*
X157778376Y-105470535D01*
X157816471Y-105394345D01*
X157854566Y-105356250D01*
X157930757Y-105318154D01*
%TO.C,D31*%
X60966471Y-163268154D02*
X60966471Y-162468154D01*
X61156947Y-162468154D01*
X61271233Y-162506250D01*
X61347423Y-162582440D01*
X61385519Y-162658630D01*
X61423614Y-162811011D01*
X61423614Y-162925297D01*
X61385519Y-163077678D01*
X61347423Y-163153869D01*
X61271233Y-163230059D01*
X61156947Y-163268154D01*
X60966471Y-163268154D01*
X61690280Y-162468154D02*
X62185519Y-162468154D01*
X61918852Y-162772916D01*
X62033138Y-162772916D01*
X62109328Y-162811011D01*
X62147423Y-162849107D01*
X62185519Y-162925297D01*
X62185519Y-163115773D01*
X62147423Y-163191964D01*
X62109328Y-163230059D01*
X62033138Y-163268154D01*
X61804566Y-163268154D01*
X61728376Y-163230059D01*
X61690280Y-163191964D01*
X62947423Y-163268154D02*
X62490280Y-163268154D01*
X62718852Y-163268154D02*
X62718852Y-162468154D01*
X62642661Y-162582440D01*
X62566471Y-162658630D01*
X62490280Y-162696726D01*
%TO.C,D32*%
X156216471Y-139455654D02*
X156216471Y-138655654D01*
X156406947Y-138655654D01*
X156521233Y-138693750D01*
X156597423Y-138769940D01*
X156635519Y-138846130D01*
X156673614Y-138998511D01*
X156673614Y-139112797D01*
X156635519Y-139265178D01*
X156597423Y-139341369D01*
X156521233Y-139417559D01*
X156406947Y-139455654D01*
X156216471Y-139455654D01*
X156940280Y-138655654D02*
X157435519Y-138655654D01*
X157168852Y-138960416D01*
X157283138Y-138960416D01*
X157359328Y-138998511D01*
X157397423Y-139036607D01*
X157435519Y-139112797D01*
X157435519Y-139303273D01*
X157397423Y-139379464D01*
X157359328Y-139417559D01*
X157283138Y-139455654D01*
X157054566Y-139455654D01*
X156978376Y-139417559D01*
X156940280Y-139379464D01*
X157740280Y-138731845D02*
X157778376Y-138693750D01*
X157854566Y-138655654D01*
X158045042Y-138655654D01*
X158121233Y-138693750D01*
X158159328Y-138731845D01*
X158197423Y-138808035D01*
X158197423Y-138884226D01*
X158159328Y-138998511D01*
X157702185Y-139455654D01*
X158197423Y-139455654D01*
%TO.C,D33*%
X167888544Y-168171710D02*
X167561880Y-168901978D01*
X167388007Y-168824200D01*
X167299238Y-168742759D01*
X167260800Y-168642099D01*
X167257136Y-168556995D01*
X167284583Y-168402341D01*
X167331250Y-168298017D01*
X167428246Y-168174474D01*
X167494132Y-168120480D01*
X167594792Y-168082041D01*
X167714671Y-168093933D01*
X167888544Y-168171710D01*
X166901162Y-168606424D02*
X166449092Y-168404203D01*
X166816958Y-168234894D01*
X166712634Y-168188228D01*
X166658640Y-168122343D01*
X166639421Y-168072012D01*
X166635757Y-167986908D01*
X166713534Y-167813035D01*
X166779420Y-167759041D01*
X166829750Y-167739822D01*
X166914855Y-167736158D01*
X167123502Y-167829491D01*
X167177496Y-167895376D01*
X167196715Y-167945706D01*
X166205669Y-168295315D02*
X165753599Y-168093094D01*
X166121465Y-167923786D01*
X166017141Y-167877119D01*
X165963147Y-167811234D01*
X165943928Y-167760904D01*
X165940264Y-167675799D01*
X166018042Y-167501926D01*
X166083927Y-167447932D01*
X166134257Y-167428713D01*
X166219362Y-167425049D01*
X166428010Y-167518382D01*
X166482004Y-167584267D01*
X166501223Y-167634597D01*
%TO.C,D34*%
X169266099Y-152539680D02*
X168535831Y-152213016D01*
X168613609Y-152039143D01*
X168695050Y-151950374D01*
X168795710Y-151911936D01*
X168880814Y-151908272D01*
X169035468Y-151935719D01*
X169139792Y-151982386D01*
X169263335Y-152079382D01*
X169317329Y-152145268D01*
X169355768Y-152245928D01*
X169343876Y-152365807D01*
X169266099Y-152539680D01*
X168831385Y-151552298D02*
X169033606Y-151100228D01*
X169202915Y-151468094D01*
X169249581Y-151363770D01*
X169315466Y-151309776D01*
X169365797Y-151290557D01*
X169450901Y-151286893D01*
X169624774Y-151364670D01*
X169678768Y-151430556D01*
X169697987Y-151480886D01*
X169701651Y-151565991D01*
X169608318Y-151774638D01*
X169542433Y-151828632D01*
X169492103Y-151847851D01*
X169557026Y-150583172D02*
X170043871Y-150800949D01*
X169201052Y-150632602D02*
X169644894Y-151039807D01*
X169847115Y-150587737D01*
%TO.C,J1*%
X144925238Y-72951904D02*
X144925238Y-73599523D01*
X144963333Y-73675714D01*
X145001428Y-73713809D01*
X145077619Y-73751904D01*
X145230000Y-73751904D01*
X145306190Y-73713809D01*
X145344285Y-73675714D01*
X145382380Y-73599523D01*
X145382380Y-72951904D01*
X145725238Y-73713809D02*
X145839523Y-73751904D01*
X146030000Y-73751904D01*
X146106190Y-73713809D01*
X146144285Y-73675714D01*
X146182380Y-73599523D01*
X146182380Y-73523333D01*
X146144285Y-73447142D01*
X146106190Y-73409047D01*
X146030000Y-73370952D01*
X145877619Y-73332857D01*
X145801428Y-73294761D01*
X145763333Y-73256666D01*
X145725238Y-73180476D01*
X145725238Y-73104285D01*
X145763333Y-73028095D01*
X145801428Y-72990000D01*
X145877619Y-72951904D01*
X146068095Y-72951904D01*
X146182380Y-72990000D01*
X146791904Y-73332857D02*
X146906190Y-73370952D01*
X146944285Y-73409047D01*
X146982380Y-73485238D01*
X146982380Y-73599523D01*
X146944285Y-73675714D01*
X146906190Y-73713809D01*
X146830000Y-73751904D01*
X146525238Y-73751904D01*
X146525238Y-72951904D01*
X146791904Y-72951904D01*
X146868095Y-72990000D01*
X146906190Y-73028095D01*
X146944285Y-73104285D01*
X146944285Y-73180476D01*
X146906190Y-73256666D01*
X146868095Y-73294761D01*
X146791904Y-73332857D01*
X146525238Y-73332857D01*
X147325238Y-73447142D02*
X147934761Y-73447142D01*
X148315714Y-73751904D02*
X148315714Y-72951904D01*
X148582380Y-73523333D01*
X148849047Y-72951904D01*
X148849047Y-73751904D01*
X149230000Y-73751904D02*
X149230000Y-73218571D01*
X149230000Y-72951904D02*
X149191904Y-72990000D01*
X149230000Y-73028095D01*
X149268095Y-72990000D01*
X149230000Y-72951904D01*
X149230000Y-73028095D01*
X149610952Y-73218571D02*
X149610952Y-73751904D01*
X149610952Y-73294761D02*
X149649047Y-73256666D01*
X149725238Y-73218571D01*
X149839523Y-73218571D01*
X149915714Y-73256666D01*
X149953809Y-73332857D01*
X149953809Y-73751904D01*
X150334761Y-73751904D02*
X150334761Y-73218571D01*
X150334761Y-72951904D02*
X150296666Y-72990000D01*
X150334761Y-73028095D01*
X150372857Y-72990000D01*
X150334761Y-72951904D01*
X150334761Y-73028095D01*
%TO.C,J2*%
X149297380Y-88558333D02*
X150011666Y-88558333D01*
X150154523Y-88605952D01*
X150249761Y-88701190D01*
X150297380Y-88844047D01*
X150297380Y-88939285D01*
X149392619Y-88129761D02*
X149345000Y-88082142D01*
X149297380Y-87986904D01*
X149297380Y-87748809D01*
X149345000Y-87653571D01*
X149392619Y-87605952D01*
X149487857Y-87558333D01*
X149583095Y-87558333D01*
X149725952Y-87605952D01*
X150297380Y-88177380D01*
X150297380Y-87558333D01*
X141681047Y-90836380D02*
X141681047Y-89836380D01*
X141919142Y-89836380D01*
X142062000Y-89884000D01*
X142157238Y-89979238D01*
X142204857Y-90074476D01*
X142252476Y-90264952D01*
X142252476Y-90407809D01*
X142204857Y-90598285D01*
X142157238Y-90693523D01*
X142062000Y-90788761D01*
X141919142Y-90836380D01*
X141681047Y-90836380D01*
X142681047Y-90455428D02*
X143442952Y-90455428D01*
X143062000Y-90836380D02*
X143062000Y-90074476D01*
X146761047Y-90836380D02*
X146761047Y-89836380D01*
X146999142Y-89836380D01*
X147142000Y-89884000D01*
X147237238Y-89979238D01*
X147284857Y-90074476D01*
X147332476Y-90264952D01*
X147332476Y-90407809D01*
X147284857Y-90598285D01*
X147237238Y-90693523D01*
X147142000Y-90788761D01*
X146999142Y-90836380D01*
X146761047Y-90836380D01*
X147761047Y-90455428D02*
X148522952Y-90455428D01*
X139006095Y-89884000D02*
X138910857Y-89836380D01*
X138768000Y-89836380D01*
X138625142Y-89884000D01*
X138529904Y-89979238D01*
X138482285Y-90074476D01*
X138434666Y-90264952D01*
X138434666Y-90407809D01*
X138482285Y-90598285D01*
X138529904Y-90693523D01*
X138625142Y-90788761D01*
X138768000Y-90836380D01*
X138863238Y-90836380D01*
X139006095Y-90788761D01*
X139053714Y-90741142D01*
X139053714Y-90407809D01*
X138863238Y-90407809D01*
X139482285Y-90836380D02*
X139482285Y-89836380D01*
X140053714Y-90836380D01*
X140053714Y-89836380D01*
X140529904Y-90836380D02*
X140529904Y-89836380D01*
X140768000Y-89836380D01*
X140910857Y-89884000D01*
X141006095Y-89979238D01*
X141053714Y-90074476D01*
X141101333Y-90264952D01*
X141101333Y-90407809D01*
X141053714Y-90598285D01*
X141006095Y-90693523D01*
X140910857Y-90788761D01*
X140768000Y-90836380D01*
X140529904Y-90836380D01*
X136728000Y-90836380D02*
X136728000Y-89836380D01*
X137204190Y-90836380D02*
X137204190Y-89836380D01*
X137442285Y-89836380D01*
X137585142Y-89884000D01*
X137680380Y-89979238D01*
X137728000Y-90074476D01*
X137775619Y-90264952D01*
X137775619Y-90407809D01*
X137728000Y-90598285D01*
X137680380Y-90693523D01*
X137585142Y-90788761D01*
X137442285Y-90836380D01*
X137204190Y-90836380D01*
X144149619Y-89836380D02*
X144482952Y-90836380D01*
X144816285Y-89836380D01*
X145149619Y-90455428D02*
X145911523Y-90455428D01*
X145530571Y-90836380D02*
X145530571Y-90074476D01*
%TO.C,P1*%
X130593695Y-88799923D02*
X129780895Y-88799923D01*
X129780895Y-88490285D01*
X129819600Y-88412876D01*
X129858304Y-88374171D01*
X129935714Y-88335466D01*
X130051828Y-88335466D01*
X130129238Y-88374171D01*
X130167942Y-88412876D01*
X130206647Y-88490285D01*
X130206647Y-88799923D01*
X130593695Y-87561371D02*
X130593695Y-88025828D01*
X130593695Y-87793600D02*
X129780895Y-87793600D01*
X129897009Y-87871009D01*
X129974419Y-87948419D01*
X130013123Y-88025828D01*
%TO.C,P2*%
X130593695Y-91024923D02*
X129780895Y-91024923D01*
X129780895Y-90715285D01*
X129819600Y-90637876D01*
X129858304Y-90599171D01*
X129935714Y-90560466D01*
X130051828Y-90560466D01*
X130129238Y-90599171D01*
X130167942Y-90637876D01*
X130206647Y-90715285D01*
X130206647Y-91024923D01*
X129858304Y-90250828D02*
X129819600Y-90212123D01*
X129780895Y-90134714D01*
X129780895Y-89941190D01*
X129819600Y-89863780D01*
X129858304Y-89825076D01*
X129935714Y-89786371D01*
X130013123Y-89786371D01*
X130129238Y-89825076D01*
X130593695Y-90289533D01*
X130593695Y-89786371D01*
%TO.C,SW1*%
X36666666Y-86693511D02*
X36809523Y-86741130D01*
X37047619Y-86741130D01*
X37142857Y-86693511D01*
X37190476Y-86645892D01*
X37238095Y-86550654D01*
X37238095Y-86455416D01*
X37190476Y-86360178D01*
X37142857Y-86312559D01*
X37047619Y-86264940D01*
X36857142Y-86217321D01*
X36761904Y-86169702D01*
X36714285Y-86122083D01*
X36666666Y-86026845D01*
X36666666Y-85931607D01*
X36714285Y-85836369D01*
X36761904Y-85788750D01*
X36857142Y-85741130D01*
X37095238Y-85741130D01*
X37238095Y-85788750D01*
X37571428Y-85741130D02*
X37809523Y-86741130D01*
X38000000Y-86026845D01*
X38190476Y-86741130D01*
X38428571Y-85741130D01*
X39333333Y-86741130D02*
X38761904Y-86741130D01*
X39047619Y-86741130D02*
X39047619Y-85741130D01*
X38952380Y-85883988D01*
X38857142Y-85979226D01*
X38761904Y-86026845D01*
%TO.C,SW2*%
X36766666Y-105793511D02*
X36909523Y-105841130D01*
X37147619Y-105841130D01*
X37242857Y-105793511D01*
X37290476Y-105745892D01*
X37338095Y-105650654D01*
X37338095Y-105555416D01*
X37290476Y-105460178D01*
X37242857Y-105412559D01*
X37147619Y-105364940D01*
X36957142Y-105317321D01*
X36861904Y-105269702D01*
X36814285Y-105222083D01*
X36766666Y-105126845D01*
X36766666Y-105031607D01*
X36814285Y-104936369D01*
X36861904Y-104888750D01*
X36957142Y-104841130D01*
X37195238Y-104841130D01*
X37338095Y-104888750D01*
X37671428Y-104841130D02*
X37909523Y-105841130D01*
X38100000Y-105126845D01*
X38290476Y-105841130D01*
X38528571Y-104841130D01*
X38861904Y-104936369D02*
X38909523Y-104888750D01*
X39004761Y-104841130D01*
X39242857Y-104841130D01*
X39338095Y-104888750D01*
X39385714Y-104936369D01*
X39433333Y-105031607D01*
X39433333Y-105126845D01*
X39385714Y-105269702D01*
X38814285Y-105841130D01*
X39433333Y-105841130D01*
%TO.C,SW4*%
X36766666Y-143943511D02*
X36909523Y-143991130D01*
X37147619Y-143991130D01*
X37242857Y-143943511D01*
X37290476Y-143895892D01*
X37338095Y-143800654D01*
X37338095Y-143705416D01*
X37290476Y-143610178D01*
X37242857Y-143562559D01*
X37147619Y-143514940D01*
X36957142Y-143467321D01*
X36861904Y-143419702D01*
X36814285Y-143372083D01*
X36766666Y-143276845D01*
X36766666Y-143181607D01*
X36814285Y-143086369D01*
X36861904Y-143038750D01*
X36957142Y-142991130D01*
X37195238Y-142991130D01*
X37338095Y-143038750D01*
X37671428Y-142991130D02*
X37909523Y-143991130D01*
X38100000Y-143276845D01*
X38290476Y-143991130D01*
X38528571Y-142991130D01*
X39338095Y-143324464D02*
X39338095Y-143991130D01*
X39100000Y-142943511D02*
X38861904Y-143657797D01*
X39480952Y-143657797D01*
%TO.C,SW6*%
X41516666Y-105804761D02*
X41659523Y-105852380D01*
X41897619Y-105852380D01*
X41992857Y-105804761D01*
X42040476Y-105757142D01*
X42088095Y-105661904D01*
X42088095Y-105566666D01*
X42040476Y-105471428D01*
X41992857Y-105423809D01*
X41897619Y-105376190D01*
X41707142Y-105328571D01*
X41611904Y-105280952D01*
X41564285Y-105233333D01*
X41516666Y-105138095D01*
X41516666Y-105042857D01*
X41564285Y-104947619D01*
X41611904Y-104900000D01*
X41707142Y-104852380D01*
X41945238Y-104852380D01*
X42088095Y-104900000D01*
X42421428Y-104852380D02*
X42659523Y-105852380D01*
X42850000Y-105138095D01*
X43040476Y-105852380D01*
X43278571Y-104852380D01*
X44088095Y-104852380D02*
X43897619Y-104852380D01*
X43802380Y-104900000D01*
X43754761Y-104947619D01*
X43659523Y-105090476D01*
X43611904Y-105280952D01*
X43611904Y-105661904D01*
X43659523Y-105757142D01*
X43707142Y-105804761D01*
X43802380Y-105852380D01*
X43992857Y-105852380D01*
X44088095Y-105804761D01*
X44135714Y-105757142D01*
X44183333Y-105661904D01*
X44183333Y-105423809D01*
X44135714Y-105328571D01*
X44088095Y-105280952D01*
X43992857Y-105233333D01*
X43802380Y-105233333D01*
X43707142Y-105280952D01*
X43659523Y-105328571D01*
X43611904Y-105423809D01*
%TO.C,SW8*%
X41529166Y-143943511D02*
X41672023Y-143991130D01*
X41910119Y-143991130D01*
X42005357Y-143943511D01*
X42052976Y-143895892D01*
X42100595Y-143800654D01*
X42100595Y-143705416D01*
X42052976Y-143610178D01*
X42005357Y-143562559D01*
X41910119Y-143514940D01*
X41719642Y-143467321D01*
X41624404Y-143419702D01*
X41576785Y-143372083D01*
X41529166Y-143276845D01*
X41529166Y-143181607D01*
X41576785Y-143086369D01*
X41624404Y-143038750D01*
X41719642Y-142991130D01*
X41957738Y-142991130D01*
X42100595Y-143038750D01*
X42433928Y-142991130D02*
X42672023Y-143991130D01*
X42862500Y-143276845D01*
X43052976Y-143991130D01*
X43291071Y-142991130D01*
X43814880Y-143419702D02*
X43719642Y-143372083D01*
X43672023Y-143324464D01*
X43624404Y-143229226D01*
X43624404Y-143181607D01*
X43672023Y-143086369D01*
X43719642Y-143038750D01*
X43814880Y-142991130D01*
X44005357Y-142991130D01*
X44100595Y-143038750D01*
X44148214Y-143086369D01*
X44195833Y-143181607D01*
X44195833Y-143229226D01*
X44148214Y-143324464D01*
X44100595Y-143372083D01*
X44005357Y-143419702D01*
X43814880Y-143419702D01*
X43719642Y-143467321D01*
X43672023Y-143514940D01*
X43624404Y-143610178D01*
X43624404Y-143800654D01*
X43672023Y-143895892D01*
X43719642Y-143943511D01*
X43814880Y-143991130D01*
X44005357Y-143991130D01*
X44100595Y-143943511D01*
X44148214Y-143895892D01*
X44195833Y-143800654D01*
X44195833Y-143610178D01*
X44148214Y-143514940D01*
X44100595Y-143467321D01*
X44005357Y-143419702D01*
%TO.C,SW10*%
X60102976Y-99227051D02*
X60245833Y-99274670D01*
X60483928Y-99274670D01*
X60579166Y-99227051D01*
X60626785Y-99179432D01*
X60674404Y-99084194D01*
X60674404Y-98988956D01*
X60626785Y-98893718D01*
X60579166Y-98846099D01*
X60483928Y-98798480D01*
X60293452Y-98750861D01*
X60198214Y-98703242D01*
X60150595Y-98655623D01*
X60102976Y-98560385D01*
X60102976Y-98465147D01*
X60150595Y-98369909D01*
X60198214Y-98322290D01*
X60293452Y-98274670D01*
X60531547Y-98274670D01*
X60674404Y-98322290D01*
X61007738Y-98274670D02*
X61245833Y-99274670D01*
X61436309Y-98560385D01*
X61626785Y-99274670D01*
X61864880Y-98274670D01*
X62769642Y-99274670D02*
X62198214Y-99274670D01*
X62483928Y-99274670D02*
X62483928Y-98274670D01*
X62388690Y-98417528D01*
X62293452Y-98512766D01*
X62198214Y-98560385D01*
X63388690Y-98274670D02*
X63483928Y-98274670D01*
X63579166Y-98322290D01*
X63626785Y-98369909D01*
X63674404Y-98465147D01*
X63722023Y-98655623D01*
X63722023Y-98893718D01*
X63674404Y-99084194D01*
X63626785Y-99179432D01*
X63579166Y-99227051D01*
X63483928Y-99274670D01*
X63388690Y-99274670D01*
X63293452Y-99227051D01*
X63245833Y-99179432D01*
X63198214Y-99084194D01*
X63150595Y-98893718D01*
X63150595Y-98655623D01*
X63198214Y-98465147D01*
X63245833Y-98369909D01*
X63293452Y-98322290D01*
X63388690Y-98274670D01*
%TO.C,SW11*%
X60103236Y-118277131D02*
X60246093Y-118324750D01*
X60484188Y-118324750D01*
X60579426Y-118277131D01*
X60627045Y-118229512D01*
X60674664Y-118134274D01*
X60674664Y-118039036D01*
X60627045Y-117943798D01*
X60579426Y-117896179D01*
X60484188Y-117848560D01*
X60293712Y-117800941D01*
X60198474Y-117753322D01*
X60150855Y-117705703D01*
X60103236Y-117610465D01*
X60103236Y-117515227D01*
X60150855Y-117419989D01*
X60198474Y-117372370D01*
X60293712Y-117324750D01*
X60531807Y-117324750D01*
X60674664Y-117372370D01*
X61007998Y-117324750D02*
X61246093Y-118324750D01*
X61436569Y-117610465D01*
X61627045Y-118324750D01*
X61865140Y-117324750D01*
X62769902Y-118324750D02*
X62198474Y-118324750D01*
X62484188Y-118324750D02*
X62484188Y-117324750D01*
X62388950Y-117467608D01*
X62293712Y-117562846D01*
X62198474Y-117610465D01*
X63722283Y-118324750D02*
X63150855Y-118324750D01*
X63436569Y-118324750D02*
X63436569Y-117324750D01*
X63341331Y-117467608D01*
X63246093Y-117562846D01*
X63150855Y-117610465D01*
%TO.C,SW12*%
X60102976Y-137327211D02*
X60245833Y-137374830D01*
X60483928Y-137374830D01*
X60579166Y-137327211D01*
X60626785Y-137279592D01*
X60674404Y-137184354D01*
X60674404Y-137089116D01*
X60626785Y-136993878D01*
X60579166Y-136946259D01*
X60483928Y-136898640D01*
X60293452Y-136851021D01*
X60198214Y-136803402D01*
X60150595Y-136755783D01*
X60102976Y-136660545D01*
X60102976Y-136565307D01*
X60150595Y-136470069D01*
X60198214Y-136422450D01*
X60293452Y-136374830D01*
X60531547Y-136374830D01*
X60674404Y-136422450D01*
X61007738Y-136374830D02*
X61245833Y-137374830D01*
X61436309Y-136660545D01*
X61626785Y-137374830D01*
X61864880Y-136374830D01*
X62769642Y-137374830D02*
X62198214Y-137374830D01*
X62483928Y-137374830D02*
X62483928Y-136374830D01*
X62388690Y-136517688D01*
X62293452Y-136612926D01*
X62198214Y-136660545D01*
X63150595Y-136470069D02*
X63198214Y-136422450D01*
X63293452Y-136374830D01*
X63531547Y-136374830D01*
X63626785Y-136422450D01*
X63674404Y-136470069D01*
X63722023Y-136565307D01*
X63722023Y-136660545D01*
X63674404Y-136803402D01*
X63102976Y-137374830D01*
X63722023Y-137374830D01*
%TO.C,SW14*%
X79152976Y-89702011D02*
X79295833Y-89749630D01*
X79533928Y-89749630D01*
X79629166Y-89702011D01*
X79676785Y-89654392D01*
X79724404Y-89559154D01*
X79724404Y-89463916D01*
X79676785Y-89368678D01*
X79629166Y-89321059D01*
X79533928Y-89273440D01*
X79343452Y-89225821D01*
X79248214Y-89178202D01*
X79200595Y-89130583D01*
X79152976Y-89035345D01*
X79152976Y-88940107D01*
X79200595Y-88844869D01*
X79248214Y-88797250D01*
X79343452Y-88749630D01*
X79581547Y-88749630D01*
X79724404Y-88797250D01*
X80057738Y-88749630D02*
X80295833Y-89749630D01*
X80486309Y-89035345D01*
X80676785Y-89749630D01*
X80914880Y-88749630D01*
X81819642Y-89749630D02*
X81248214Y-89749630D01*
X81533928Y-89749630D02*
X81533928Y-88749630D01*
X81438690Y-88892488D01*
X81343452Y-88987726D01*
X81248214Y-89035345D01*
X82676785Y-89082964D02*
X82676785Y-89749630D01*
X82438690Y-88702011D02*
X82200595Y-89416297D01*
X82819642Y-89416297D01*
%TO.C,SW15*%
X79152976Y-108752091D02*
X79295833Y-108799710D01*
X79533928Y-108799710D01*
X79629166Y-108752091D01*
X79676785Y-108704472D01*
X79724404Y-108609234D01*
X79724404Y-108513996D01*
X79676785Y-108418758D01*
X79629166Y-108371139D01*
X79533928Y-108323520D01*
X79343452Y-108275901D01*
X79248214Y-108228282D01*
X79200595Y-108180663D01*
X79152976Y-108085425D01*
X79152976Y-107990187D01*
X79200595Y-107894949D01*
X79248214Y-107847330D01*
X79343452Y-107799710D01*
X79581547Y-107799710D01*
X79724404Y-107847330D01*
X80057738Y-107799710D02*
X80295833Y-108799710D01*
X80486309Y-108085425D01*
X80676785Y-108799710D01*
X80914880Y-107799710D01*
X81819642Y-108799710D02*
X81248214Y-108799710D01*
X81533928Y-108799710D02*
X81533928Y-107799710D01*
X81438690Y-107942568D01*
X81343452Y-108037806D01*
X81248214Y-108085425D01*
X82724404Y-107799710D02*
X82248214Y-107799710D01*
X82200595Y-108275901D01*
X82248214Y-108228282D01*
X82343452Y-108180663D01*
X82581547Y-108180663D01*
X82676785Y-108228282D01*
X82724404Y-108275901D01*
X82772023Y-108371139D01*
X82772023Y-108609234D01*
X82724404Y-108704472D01*
X82676785Y-108752091D01*
X82581547Y-108799710D01*
X82343452Y-108799710D01*
X82248214Y-108752091D01*
X82200595Y-108704472D01*
%TO.C,SW16*%
X79153316Y-127802171D02*
X79296173Y-127849790D01*
X79534268Y-127849790D01*
X79629506Y-127802171D01*
X79677125Y-127754552D01*
X79724744Y-127659314D01*
X79724744Y-127564076D01*
X79677125Y-127468838D01*
X79629506Y-127421219D01*
X79534268Y-127373600D01*
X79343792Y-127325981D01*
X79248554Y-127278362D01*
X79200935Y-127230743D01*
X79153316Y-127135505D01*
X79153316Y-127040267D01*
X79200935Y-126945029D01*
X79248554Y-126897410D01*
X79343792Y-126849790D01*
X79581887Y-126849790D01*
X79724744Y-126897410D01*
X80058078Y-126849790D02*
X80296173Y-127849790D01*
X80486649Y-127135505D01*
X80677125Y-127849790D01*
X80915220Y-126849790D01*
X81819982Y-127849790D02*
X81248554Y-127849790D01*
X81534268Y-127849790D02*
X81534268Y-126849790D01*
X81439030Y-126992648D01*
X81343792Y-127087886D01*
X81248554Y-127135505D01*
X82677125Y-126849790D02*
X82486649Y-126849790D01*
X82391411Y-126897410D01*
X82343792Y-126945029D01*
X82248554Y-127087886D01*
X82200935Y-127278362D01*
X82200935Y-127659314D01*
X82248554Y-127754552D01*
X82296173Y-127802171D01*
X82391411Y-127849790D01*
X82581887Y-127849790D01*
X82677125Y-127802171D01*
X82724744Y-127754552D01*
X82772363Y-127659314D01*
X82772363Y-127421219D01*
X82724744Y-127325981D01*
X82677125Y-127278362D01*
X82581887Y-127230743D01*
X82391411Y-127230743D01*
X82296173Y-127278362D01*
X82248554Y-127325981D01*
X82200935Y-127421219D01*
%TO.C,SW19*%
X98203396Y-84939491D02*
X98346253Y-84987110D01*
X98584348Y-84987110D01*
X98679586Y-84939491D01*
X98727205Y-84891872D01*
X98774824Y-84796634D01*
X98774824Y-84701396D01*
X98727205Y-84606158D01*
X98679586Y-84558539D01*
X98584348Y-84510920D01*
X98393872Y-84463301D01*
X98298634Y-84415682D01*
X98251015Y-84368063D01*
X98203396Y-84272825D01*
X98203396Y-84177587D01*
X98251015Y-84082349D01*
X98298634Y-84034730D01*
X98393872Y-83987110D01*
X98631967Y-83987110D01*
X98774824Y-84034730D01*
X99108158Y-83987110D02*
X99346253Y-84987110D01*
X99536729Y-84272825D01*
X99727205Y-84987110D01*
X99965300Y-83987110D01*
X100870062Y-84987110D02*
X100298634Y-84987110D01*
X100584348Y-84987110D02*
X100584348Y-83987110D01*
X100489110Y-84129968D01*
X100393872Y-84225206D01*
X100298634Y-84272825D01*
X101346253Y-84987110D02*
X101536729Y-84987110D01*
X101631967Y-84939491D01*
X101679586Y-84891872D01*
X101774824Y-84749015D01*
X101822443Y-84558539D01*
X101822443Y-84177587D01*
X101774824Y-84082349D01*
X101727205Y-84034730D01*
X101631967Y-83987110D01*
X101441491Y-83987110D01*
X101346253Y-84034730D01*
X101298634Y-84082349D01*
X101251015Y-84177587D01*
X101251015Y-84415682D01*
X101298634Y-84510920D01*
X101346253Y-84558539D01*
X101441491Y-84606158D01*
X101631967Y-84606158D01*
X101727205Y-84558539D01*
X101774824Y-84510920D01*
X101822443Y-84415682D01*
%TO.C,SW20*%
X98202976Y-103989571D02*
X98345833Y-104037190D01*
X98583928Y-104037190D01*
X98679166Y-103989571D01*
X98726785Y-103941952D01*
X98774404Y-103846714D01*
X98774404Y-103751476D01*
X98726785Y-103656238D01*
X98679166Y-103608619D01*
X98583928Y-103561000D01*
X98393452Y-103513381D01*
X98298214Y-103465762D01*
X98250595Y-103418143D01*
X98202976Y-103322905D01*
X98202976Y-103227667D01*
X98250595Y-103132429D01*
X98298214Y-103084810D01*
X98393452Y-103037190D01*
X98631547Y-103037190D01*
X98774404Y-103084810D01*
X99107738Y-103037190D02*
X99345833Y-104037190D01*
X99536309Y-103322905D01*
X99726785Y-104037190D01*
X99964880Y-103037190D01*
X100298214Y-103132429D02*
X100345833Y-103084810D01*
X100441071Y-103037190D01*
X100679166Y-103037190D01*
X100774404Y-103084810D01*
X100822023Y-103132429D01*
X100869642Y-103227667D01*
X100869642Y-103322905D01*
X100822023Y-103465762D01*
X100250595Y-104037190D01*
X100869642Y-104037190D01*
X101488690Y-103037190D02*
X101583928Y-103037190D01*
X101679166Y-103084810D01*
X101726785Y-103132429D01*
X101774404Y-103227667D01*
X101822023Y-103418143D01*
X101822023Y-103656238D01*
X101774404Y-103846714D01*
X101726785Y-103941952D01*
X101679166Y-103989571D01*
X101583928Y-104037190D01*
X101488690Y-104037190D01*
X101393452Y-103989571D01*
X101345833Y-103941952D01*
X101298214Y-103846714D01*
X101250595Y-103656238D01*
X101250595Y-103418143D01*
X101298214Y-103227667D01*
X101345833Y-103132429D01*
X101393452Y-103084810D01*
X101488690Y-103037190D01*
%TO.C,SW22*%
X98202976Y-142089731D02*
X98345833Y-142137350D01*
X98583928Y-142137350D01*
X98679166Y-142089731D01*
X98726785Y-142042112D01*
X98774404Y-141946874D01*
X98774404Y-141851636D01*
X98726785Y-141756398D01*
X98679166Y-141708779D01*
X98583928Y-141661160D01*
X98393452Y-141613541D01*
X98298214Y-141565922D01*
X98250595Y-141518303D01*
X98202976Y-141423065D01*
X98202976Y-141327827D01*
X98250595Y-141232589D01*
X98298214Y-141184970D01*
X98393452Y-141137350D01*
X98631547Y-141137350D01*
X98774404Y-141184970D01*
X99107738Y-141137350D02*
X99345833Y-142137350D01*
X99536309Y-141423065D01*
X99726785Y-142137350D01*
X99964880Y-141137350D01*
X100298214Y-141232589D02*
X100345833Y-141184970D01*
X100441071Y-141137350D01*
X100679166Y-141137350D01*
X100774404Y-141184970D01*
X100822023Y-141232589D01*
X100869642Y-141327827D01*
X100869642Y-141423065D01*
X100822023Y-141565922D01*
X100250595Y-142137350D01*
X100869642Y-142137350D01*
X101250595Y-141232589D02*
X101298214Y-141184970D01*
X101393452Y-141137350D01*
X101631547Y-141137350D01*
X101726785Y-141184970D01*
X101774404Y-141232589D01*
X101822023Y-141327827D01*
X101822023Y-141423065D01*
X101774404Y-141565922D01*
X101202976Y-142137350D01*
X101822023Y-142137350D01*
%TO.C,SW23*%
X117252976Y-70651931D02*
X117395833Y-70699550D01*
X117633928Y-70699550D01*
X117729166Y-70651931D01*
X117776785Y-70604312D01*
X117824404Y-70509074D01*
X117824404Y-70413836D01*
X117776785Y-70318598D01*
X117729166Y-70270979D01*
X117633928Y-70223360D01*
X117443452Y-70175741D01*
X117348214Y-70128122D01*
X117300595Y-70080503D01*
X117252976Y-69985265D01*
X117252976Y-69890027D01*
X117300595Y-69794789D01*
X117348214Y-69747170D01*
X117443452Y-69699550D01*
X117681547Y-69699550D01*
X117824404Y-69747170D01*
X118157738Y-69699550D02*
X118395833Y-70699550D01*
X118586309Y-69985265D01*
X118776785Y-70699550D01*
X119014880Y-69699550D01*
X119348214Y-69794789D02*
X119395833Y-69747170D01*
X119491071Y-69699550D01*
X119729166Y-69699550D01*
X119824404Y-69747170D01*
X119872023Y-69794789D01*
X119919642Y-69890027D01*
X119919642Y-69985265D01*
X119872023Y-70128122D01*
X119300595Y-70699550D01*
X119919642Y-70699550D01*
X120252976Y-69699550D02*
X120872023Y-69699550D01*
X120538690Y-70080503D01*
X120681547Y-70080503D01*
X120776785Y-70128122D01*
X120824404Y-70175741D01*
X120872023Y-70270979D01*
X120872023Y-70509074D01*
X120824404Y-70604312D01*
X120776785Y-70651931D01*
X120681547Y-70699550D01*
X120395833Y-70699550D01*
X120300595Y-70651931D01*
X120252976Y-70604312D01*
%TO.C,SW24*%
X117252976Y-89702011D02*
X117395833Y-89749630D01*
X117633928Y-89749630D01*
X117729166Y-89702011D01*
X117776785Y-89654392D01*
X117824404Y-89559154D01*
X117824404Y-89463916D01*
X117776785Y-89368678D01*
X117729166Y-89321059D01*
X117633928Y-89273440D01*
X117443452Y-89225821D01*
X117348214Y-89178202D01*
X117300595Y-89130583D01*
X117252976Y-89035345D01*
X117252976Y-88940107D01*
X117300595Y-88844869D01*
X117348214Y-88797250D01*
X117443452Y-88749630D01*
X117681547Y-88749630D01*
X117824404Y-88797250D01*
X118157738Y-88749630D02*
X118395833Y-89749630D01*
X118586309Y-89035345D01*
X118776785Y-89749630D01*
X119014880Y-88749630D01*
X119348214Y-88844869D02*
X119395833Y-88797250D01*
X119491071Y-88749630D01*
X119729166Y-88749630D01*
X119824404Y-88797250D01*
X119872023Y-88844869D01*
X119919642Y-88940107D01*
X119919642Y-89035345D01*
X119872023Y-89178202D01*
X119300595Y-89749630D01*
X119919642Y-89749630D01*
X120776785Y-89082964D02*
X120776785Y-89749630D01*
X120538690Y-88702011D02*
X120300595Y-89416297D01*
X120919642Y-89416297D01*
%TO.C,SW25*%
X117253476Y-108752091D02*
X117396333Y-108799710D01*
X117634428Y-108799710D01*
X117729666Y-108752091D01*
X117777285Y-108704472D01*
X117824904Y-108609234D01*
X117824904Y-108513996D01*
X117777285Y-108418758D01*
X117729666Y-108371139D01*
X117634428Y-108323520D01*
X117443952Y-108275901D01*
X117348714Y-108228282D01*
X117301095Y-108180663D01*
X117253476Y-108085425D01*
X117253476Y-107990187D01*
X117301095Y-107894949D01*
X117348714Y-107847330D01*
X117443952Y-107799710D01*
X117682047Y-107799710D01*
X117824904Y-107847330D01*
X118158238Y-107799710D02*
X118396333Y-108799710D01*
X118586809Y-108085425D01*
X118777285Y-108799710D01*
X119015380Y-107799710D01*
X119348714Y-107894949D02*
X119396333Y-107847330D01*
X119491571Y-107799710D01*
X119729666Y-107799710D01*
X119824904Y-107847330D01*
X119872523Y-107894949D01*
X119920142Y-107990187D01*
X119920142Y-108085425D01*
X119872523Y-108228282D01*
X119301095Y-108799710D01*
X119920142Y-108799710D01*
X120824904Y-107799710D02*
X120348714Y-107799710D01*
X120301095Y-108275901D01*
X120348714Y-108228282D01*
X120443952Y-108180663D01*
X120682047Y-108180663D01*
X120777285Y-108228282D01*
X120824904Y-108275901D01*
X120872523Y-108371139D01*
X120872523Y-108609234D01*
X120824904Y-108704472D01*
X120777285Y-108752091D01*
X120682047Y-108799710D01*
X120443952Y-108799710D01*
X120348714Y-108752091D01*
X120301095Y-108704472D01*
%TO.C,SW26*%
X117252976Y-127802171D02*
X117395833Y-127849790D01*
X117633928Y-127849790D01*
X117729166Y-127802171D01*
X117776785Y-127754552D01*
X117824404Y-127659314D01*
X117824404Y-127564076D01*
X117776785Y-127468838D01*
X117729166Y-127421219D01*
X117633928Y-127373600D01*
X117443452Y-127325981D01*
X117348214Y-127278362D01*
X117300595Y-127230743D01*
X117252976Y-127135505D01*
X117252976Y-127040267D01*
X117300595Y-126945029D01*
X117348214Y-126897410D01*
X117443452Y-126849790D01*
X117681547Y-126849790D01*
X117824404Y-126897410D01*
X118157738Y-126849790D02*
X118395833Y-127849790D01*
X118586309Y-127135505D01*
X118776785Y-127849790D01*
X119014880Y-126849790D01*
X119348214Y-126945029D02*
X119395833Y-126897410D01*
X119491071Y-126849790D01*
X119729166Y-126849790D01*
X119824404Y-126897410D01*
X119872023Y-126945029D01*
X119919642Y-127040267D01*
X119919642Y-127135505D01*
X119872023Y-127278362D01*
X119300595Y-127849790D01*
X119919642Y-127849790D01*
X120776785Y-126849790D02*
X120586309Y-126849790D01*
X120491071Y-126897410D01*
X120443452Y-126945029D01*
X120348214Y-127087886D01*
X120300595Y-127278362D01*
X120300595Y-127659314D01*
X120348214Y-127754552D01*
X120395833Y-127802171D01*
X120491071Y-127849790D01*
X120681547Y-127849790D01*
X120776785Y-127802171D01*
X120824404Y-127754552D01*
X120872023Y-127659314D01*
X120872023Y-127421219D01*
X120824404Y-127325981D01*
X120776785Y-127278362D01*
X120681547Y-127230743D01*
X120491071Y-127230743D01*
X120395833Y-127278362D01*
X120348214Y-127325981D01*
X120300595Y-127421219D01*
%TO.C,SW27*%
X117252976Y-146852251D02*
X117395833Y-146899870D01*
X117633928Y-146899870D01*
X117729166Y-146852251D01*
X117776785Y-146804632D01*
X117824404Y-146709394D01*
X117824404Y-146614156D01*
X117776785Y-146518918D01*
X117729166Y-146471299D01*
X117633928Y-146423680D01*
X117443452Y-146376061D01*
X117348214Y-146328442D01*
X117300595Y-146280823D01*
X117252976Y-146185585D01*
X117252976Y-146090347D01*
X117300595Y-145995109D01*
X117348214Y-145947490D01*
X117443452Y-145899870D01*
X117681547Y-145899870D01*
X117824404Y-145947490D01*
X118157738Y-145899870D02*
X118395833Y-146899870D01*
X118586309Y-146185585D01*
X118776785Y-146899870D01*
X119014880Y-145899870D01*
X119348214Y-145995109D02*
X119395833Y-145947490D01*
X119491071Y-145899870D01*
X119729166Y-145899870D01*
X119824404Y-145947490D01*
X119872023Y-145995109D01*
X119919642Y-146090347D01*
X119919642Y-146185585D01*
X119872023Y-146328442D01*
X119300595Y-146899870D01*
X119919642Y-146899870D01*
X120252976Y-145899870D02*
X120919642Y-145899870D01*
X120491071Y-146899870D01*
%TO.C,SW28*%
X136302976Y-75414451D02*
X136445833Y-75462070D01*
X136683928Y-75462070D01*
X136779166Y-75414451D01*
X136826785Y-75366832D01*
X136874404Y-75271594D01*
X136874404Y-75176356D01*
X136826785Y-75081118D01*
X136779166Y-75033499D01*
X136683928Y-74985880D01*
X136493452Y-74938261D01*
X136398214Y-74890642D01*
X136350595Y-74843023D01*
X136302976Y-74747785D01*
X136302976Y-74652547D01*
X136350595Y-74557309D01*
X136398214Y-74509690D01*
X136493452Y-74462070D01*
X136731547Y-74462070D01*
X136874404Y-74509690D01*
X137207738Y-74462070D02*
X137445833Y-75462070D01*
X137636309Y-74747785D01*
X137826785Y-75462070D01*
X138064880Y-74462070D01*
X138398214Y-74557309D02*
X138445833Y-74509690D01*
X138541071Y-74462070D01*
X138779166Y-74462070D01*
X138874404Y-74509690D01*
X138922023Y-74557309D01*
X138969642Y-74652547D01*
X138969642Y-74747785D01*
X138922023Y-74890642D01*
X138350595Y-75462070D01*
X138969642Y-75462070D01*
X139541071Y-74890642D02*
X139445833Y-74843023D01*
X139398214Y-74795404D01*
X139350595Y-74700166D01*
X139350595Y-74652547D01*
X139398214Y-74557309D01*
X139445833Y-74509690D01*
X139541071Y-74462070D01*
X139731547Y-74462070D01*
X139826785Y-74509690D01*
X139874404Y-74557309D01*
X139922023Y-74652547D01*
X139922023Y-74700166D01*
X139874404Y-74795404D01*
X139826785Y-74843023D01*
X139731547Y-74890642D01*
X139541071Y-74890642D01*
X139445833Y-74938261D01*
X139398214Y-74985880D01*
X139350595Y-75081118D01*
X139350595Y-75271594D01*
X139398214Y-75366832D01*
X139445833Y-75414451D01*
X139541071Y-75462070D01*
X139731547Y-75462070D01*
X139826785Y-75414451D01*
X139874404Y-75366832D01*
X139922023Y-75271594D01*
X139922023Y-75081118D01*
X139874404Y-74985880D01*
X139826785Y-74938261D01*
X139731547Y-74890642D01*
%TO.C,SW29*%
X136303556Y-94464531D02*
X136446413Y-94512150D01*
X136684508Y-94512150D01*
X136779746Y-94464531D01*
X136827365Y-94416912D01*
X136874984Y-94321674D01*
X136874984Y-94226436D01*
X136827365Y-94131198D01*
X136779746Y-94083579D01*
X136684508Y-94035960D01*
X136494032Y-93988341D01*
X136398794Y-93940722D01*
X136351175Y-93893103D01*
X136303556Y-93797865D01*
X136303556Y-93702627D01*
X136351175Y-93607389D01*
X136398794Y-93559770D01*
X136494032Y-93512150D01*
X136732127Y-93512150D01*
X136874984Y-93559770D01*
X137208318Y-93512150D02*
X137446413Y-94512150D01*
X137636889Y-93797865D01*
X137827365Y-94512150D01*
X138065460Y-93512150D01*
X138398794Y-93607389D02*
X138446413Y-93559770D01*
X138541651Y-93512150D01*
X138779746Y-93512150D01*
X138874984Y-93559770D01*
X138922603Y-93607389D01*
X138970222Y-93702627D01*
X138970222Y-93797865D01*
X138922603Y-93940722D01*
X138351175Y-94512150D01*
X138970222Y-94512150D01*
X139446413Y-94512150D02*
X139636889Y-94512150D01*
X139732127Y-94464531D01*
X139779746Y-94416912D01*
X139874984Y-94274055D01*
X139922603Y-94083579D01*
X139922603Y-93702627D01*
X139874984Y-93607389D01*
X139827365Y-93559770D01*
X139732127Y-93512150D01*
X139541651Y-93512150D01*
X139446413Y-93559770D01*
X139398794Y-93607389D01*
X139351175Y-93702627D01*
X139351175Y-93940722D01*
X139398794Y-94035960D01*
X139446413Y-94083579D01*
X139541651Y-94131198D01*
X139732127Y-94131198D01*
X139827365Y-94083579D01*
X139874984Y-94035960D01*
X139922603Y-93940722D01*
%TO.C,SW30*%
X136303556Y-113514611D02*
X136446413Y-113562230D01*
X136684508Y-113562230D01*
X136779746Y-113514611D01*
X136827365Y-113466992D01*
X136874984Y-113371754D01*
X136874984Y-113276516D01*
X136827365Y-113181278D01*
X136779746Y-113133659D01*
X136684508Y-113086040D01*
X136494032Y-113038421D01*
X136398794Y-112990802D01*
X136351175Y-112943183D01*
X136303556Y-112847945D01*
X136303556Y-112752707D01*
X136351175Y-112657469D01*
X136398794Y-112609850D01*
X136494032Y-112562230D01*
X136732127Y-112562230D01*
X136874984Y-112609850D01*
X137208318Y-112562230D02*
X137446413Y-113562230D01*
X137636889Y-112847945D01*
X137827365Y-113562230D01*
X138065460Y-112562230D01*
X138351175Y-112562230D02*
X138970222Y-112562230D01*
X138636889Y-112943183D01*
X138779746Y-112943183D01*
X138874984Y-112990802D01*
X138922603Y-113038421D01*
X138970222Y-113133659D01*
X138970222Y-113371754D01*
X138922603Y-113466992D01*
X138874984Y-113514611D01*
X138779746Y-113562230D01*
X138494032Y-113562230D01*
X138398794Y-113514611D01*
X138351175Y-113466992D01*
X139589270Y-112562230D02*
X139684508Y-112562230D01*
X139779746Y-112609850D01*
X139827365Y-112657469D01*
X139874984Y-112752707D01*
X139922603Y-112943183D01*
X139922603Y-113181278D01*
X139874984Y-113371754D01*
X139827365Y-113466992D01*
X139779746Y-113514611D01*
X139684508Y-113562230D01*
X139589270Y-113562230D01*
X139494032Y-113514611D01*
X139446413Y-113466992D01*
X139398794Y-113371754D01*
X139351175Y-113181278D01*
X139351175Y-112943183D01*
X139398794Y-112752707D01*
X139446413Y-112657469D01*
X139494032Y-112609850D01*
X139589270Y-112562230D01*
%TO.C,SW31*%
X136303556Y-132564691D02*
X136446413Y-132612310D01*
X136684508Y-132612310D01*
X136779746Y-132564691D01*
X136827365Y-132517072D01*
X136874984Y-132421834D01*
X136874984Y-132326596D01*
X136827365Y-132231358D01*
X136779746Y-132183739D01*
X136684508Y-132136120D01*
X136494032Y-132088501D01*
X136398794Y-132040882D01*
X136351175Y-131993263D01*
X136303556Y-131898025D01*
X136303556Y-131802787D01*
X136351175Y-131707549D01*
X136398794Y-131659930D01*
X136494032Y-131612310D01*
X136732127Y-131612310D01*
X136874984Y-131659930D01*
X137208318Y-131612310D02*
X137446413Y-132612310D01*
X137636889Y-131898025D01*
X137827365Y-132612310D01*
X138065460Y-131612310D01*
X138351175Y-131612310D02*
X138970222Y-131612310D01*
X138636889Y-131993263D01*
X138779746Y-131993263D01*
X138874984Y-132040882D01*
X138922603Y-132088501D01*
X138970222Y-132183739D01*
X138970222Y-132421834D01*
X138922603Y-132517072D01*
X138874984Y-132564691D01*
X138779746Y-132612310D01*
X138494032Y-132612310D01*
X138398794Y-132564691D01*
X138351175Y-132517072D01*
X139922603Y-132612310D02*
X139351175Y-132612310D01*
X139636889Y-132612310D02*
X139636889Y-131612310D01*
X139541651Y-131755168D01*
X139446413Y-131850406D01*
X139351175Y-131898025D01*
%TO.C,SW33*%
X155353636Y-75414451D02*
X155496493Y-75462070D01*
X155734588Y-75462070D01*
X155829826Y-75414451D01*
X155877445Y-75366832D01*
X155925064Y-75271594D01*
X155925064Y-75176356D01*
X155877445Y-75081118D01*
X155829826Y-75033499D01*
X155734588Y-74985880D01*
X155544112Y-74938261D01*
X155448874Y-74890642D01*
X155401255Y-74843023D01*
X155353636Y-74747785D01*
X155353636Y-74652547D01*
X155401255Y-74557309D01*
X155448874Y-74509690D01*
X155544112Y-74462070D01*
X155782207Y-74462070D01*
X155925064Y-74509690D01*
X156258398Y-74462070D02*
X156496493Y-75462070D01*
X156686969Y-74747785D01*
X156877445Y-75462070D01*
X157115540Y-74462070D01*
X157401255Y-74462070D02*
X158020302Y-74462070D01*
X157686969Y-74843023D01*
X157829826Y-74843023D01*
X157925064Y-74890642D01*
X157972683Y-74938261D01*
X158020302Y-75033499D01*
X158020302Y-75271594D01*
X157972683Y-75366832D01*
X157925064Y-75414451D01*
X157829826Y-75462070D01*
X157544112Y-75462070D01*
X157448874Y-75414451D01*
X157401255Y-75366832D01*
X158353636Y-74462070D02*
X158972683Y-74462070D01*
X158639350Y-74843023D01*
X158782207Y-74843023D01*
X158877445Y-74890642D01*
X158925064Y-74938261D01*
X158972683Y-75033499D01*
X158972683Y-75271594D01*
X158925064Y-75366832D01*
X158877445Y-75414451D01*
X158782207Y-75462070D01*
X158496493Y-75462070D01*
X158401255Y-75414451D01*
X158353636Y-75366832D01*
%TO.C,SW34*%
X155353636Y-94464531D02*
X155496493Y-94512150D01*
X155734588Y-94512150D01*
X155829826Y-94464531D01*
X155877445Y-94416912D01*
X155925064Y-94321674D01*
X155925064Y-94226436D01*
X155877445Y-94131198D01*
X155829826Y-94083579D01*
X155734588Y-94035960D01*
X155544112Y-93988341D01*
X155448874Y-93940722D01*
X155401255Y-93893103D01*
X155353636Y-93797865D01*
X155353636Y-93702627D01*
X155401255Y-93607389D01*
X155448874Y-93559770D01*
X155544112Y-93512150D01*
X155782207Y-93512150D01*
X155925064Y-93559770D01*
X156258398Y-93512150D02*
X156496493Y-94512150D01*
X156686969Y-93797865D01*
X156877445Y-94512150D01*
X157115540Y-93512150D01*
X157401255Y-93512150D02*
X158020302Y-93512150D01*
X157686969Y-93893103D01*
X157829826Y-93893103D01*
X157925064Y-93940722D01*
X157972683Y-93988341D01*
X158020302Y-94083579D01*
X158020302Y-94321674D01*
X157972683Y-94416912D01*
X157925064Y-94464531D01*
X157829826Y-94512150D01*
X157544112Y-94512150D01*
X157448874Y-94464531D01*
X157401255Y-94416912D01*
X158877445Y-93845484D02*
X158877445Y-94512150D01*
X158639350Y-93464531D02*
X158401255Y-94178817D01*
X159020302Y-94178817D01*
%TO.C,SW35*%
X60103636Y-156377111D02*
X60246493Y-156424730D01*
X60484588Y-156424730D01*
X60579826Y-156377111D01*
X60627445Y-156329492D01*
X60675064Y-156234254D01*
X60675064Y-156139016D01*
X60627445Y-156043778D01*
X60579826Y-155996159D01*
X60484588Y-155948540D01*
X60294112Y-155900921D01*
X60198874Y-155853302D01*
X60151255Y-155805683D01*
X60103636Y-155710445D01*
X60103636Y-155615207D01*
X60151255Y-155519969D01*
X60198874Y-155472350D01*
X60294112Y-155424730D01*
X60532207Y-155424730D01*
X60675064Y-155472350D01*
X61008398Y-155424730D02*
X61246493Y-156424730D01*
X61436969Y-155710445D01*
X61627445Y-156424730D01*
X61865540Y-155424730D01*
X62151255Y-155424730D02*
X62770302Y-155424730D01*
X62436969Y-155805683D01*
X62579826Y-155805683D01*
X62675064Y-155853302D01*
X62722683Y-155900921D01*
X62770302Y-155996159D01*
X62770302Y-156234254D01*
X62722683Y-156329492D01*
X62675064Y-156377111D01*
X62579826Y-156424730D01*
X62294112Y-156424730D01*
X62198874Y-156377111D01*
X62151255Y-156329492D01*
X63675064Y-155424730D02*
X63198874Y-155424730D01*
X63151255Y-155900921D01*
X63198874Y-155853302D01*
X63294112Y-155805683D01*
X63532207Y-155805683D01*
X63627445Y-155853302D01*
X63675064Y-155900921D01*
X63722683Y-155996159D01*
X63722683Y-156234254D01*
X63675064Y-156329492D01*
X63627445Y-156377111D01*
X63532207Y-156424730D01*
X63294112Y-156424730D01*
X63198874Y-156377111D01*
X63151255Y-156329492D01*
%TO.C,SW36*%
X155353636Y-127802171D02*
X155496493Y-127849790D01*
X155734588Y-127849790D01*
X155829826Y-127802171D01*
X155877445Y-127754552D01*
X155925064Y-127659314D01*
X155925064Y-127564076D01*
X155877445Y-127468838D01*
X155829826Y-127421219D01*
X155734588Y-127373600D01*
X155544112Y-127325981D01*
X155448874Y-127278362D01*
X155401255Y-127230743D01*
X155353636Y-127135505D01*
X155353636Y-127040267D01*
X155401255Y-126945029D01*
X155448874Y-126897410D01*
X155544112Y-126849790D01*
X155782207Y-126849790D01*
X155925064Y-126897410D01*
X156258398Y-126849790D02*
X156496493Y-127849790D01*
X156686969Y-127135505D01*
X156877445Y-127849790D01*
X157115540Y-126849790D01*
X157401255Y-126849790D02*
X158020302Y-126849790D01*
X157686969Y-127230743D01*
X157829826Y-127230743D01*
X157925064Y-127278362D01*
X157972683Y-127325981D01*
X158020302Y-127421219D01*
X158020302Y-127659314D01*
X157972683Y-127754552D01*
X157925064Y-127802171D01*
X157829826Y-127849790D01*
X157544112Y-127849790D01*
X157448874Y-127802171D01*
X157401255Y-127754552D01*
X158877445Y-126849790D02*
X158686969Y-126849790D01*
X158591731Y-126897410D01*
X158544112Y-126945029D01*
X158448874Y-127087886D01*
X158401255Y-127278362D01*
X158401255Y-127659314D01*
X158448874Y-127754552D01*
X158496493Y-127802171D01*
X158591731Y-127849790D01*
X158782207Y-127849790D01*
X158877445Y-127802171D01*
X158925064Y-127754552D01*
X158972683Y-127659314D01*
X158972683Y-127421219D01*
X158925064Y-127325981D01*
X158877445Y-127278362D01*
X158782207Y-127230743D01*
X158591731Y-127230743D01*
X158496493Y-127278362D01*
X158448874Y-127325981D01*
X158401255Y-127421219D01*
%TO.C,SW38*%
X179070373Y-145170095D02*
X178959413Y-145068293D01*
X178742071Y-144971072D01*
X178635690Y-144975652D01*
X178572778Y-144999676D01*
X178490421Y-145067168D01*
X178451532Y-145154104D01*
X178456112Y-145260485D01*
X178480136Y-145323398D01*
X178547628Y-145405755D01*
X178702057Y-145527000D01*
X178769549Y-145609357D01*
X178793573Y-145672270D01*
X178798153Y-145778651D01*
X178759264Y-145865587D01*
X178676907Y-145933080D01*
X178613995Y-145957104D01*
X178507614Y-145961683D01*
X178290272Y-145864462D01*
X178179312Y-145762661D01*
X177855590Y-145670019D02*
X178046579Y-144659963D01*
X177581041Y-145234210D01*
X177698832Y-144504409D01*
X177073160Y-145320021D01*
X176812350Y-145203355D02*
X176247263Y-144950579D01*
X176707095Y-144738943D01*
X176576690Y-144680610D01*
X176509198Y-144598253D01*
X176485174Y-144535341D01*
X176480594Y-144428960D01*
X176577816Y-144211618D01*
X176660173Y-144144126D01*
X176723085Y-144120102D01*
X176829466Y-144115522D01*
X177090276Y-144232188D01*
X177157768Y-144314545D01*
X177181792Y-144377458D01*
X175900642Y-144326033D02*
X175968134Y-144408390D01*
X175992158Y-144471303D01*
X175996738Y-144577683D01*
X175977294Y-144621152D01*
X175894937Y-144688644D01*
X175832024Y-144712668D01*
X175725643Y-144717248D01*
X175551770Y-144639470D01*
X175484278Y-144557114D01*
X175460254Y-144494201D01*
X175455674Y-144387820D01*
X175475118Y-144344352D01*
X175557475Y-144276859D01*
X175620388Y-144252835D01*
X175726769Y-144248256D01*
X175900642Y-144326033D01*
X176007023Y-144321453D01*
X176069935Y-144297429D01*
X176152292Y-144229937D01*
X176230070Y-144056064D01*
X176225490Y-143949683D01*
X176201466Y-143886770D01*
X176133974Y-143804413D01*
X175960100Y-143726636D01*
X175853720Y-143731216D01*
X175790807Y-143755240D01*
X175708450Y-143822732D01*
X175630673Y-143996605D01*
X175635252Y-144102986D01*
X175659276Y-144165899D01*
X175726769Y-144248256D01*
%TO.C,SW39*%
X155353636Y-95655161D02*
X155496493Y-95702780D01*
X155734588Y-95702780D01*
X155829826Y-95655161D01*
X155877445Y-95607542D01*
X155925064Y-95512304D01*
X155925064Y-95417066D01*
X155877445Y-95321828D01*
X155829826Y-95274209D01*
X155734588Y-95226590D01*
X155544112Y-95178971D01*
X155448874Y-95131352D01*
X155401255Y-95083733D01*
X155353636Y-94988495D01*
X155353636Y-94893257D01*
X155401255Y-94798019D01*
X155448874Y-94750400D01*
X155544112Y-94702780D01*
X155782207Y-94702780D01*
X155925064Y-94750400D01*
X156258398Y-94702780D02*
X156496493Y-95702780D01*
X156686969Y-94988495D01*
X156877445Y-95702780D01*
X157115540Y-94702780D01*
X157401255Y-94702780D02*
X158020302Y-94702780D01*
X157686969Y-95083733D01*
X157829826Y-95083733D01*
X157925064Y-95131352D01*
X157972683Y-95178971D01*
X158020302Y-95274209D01*
X158020302Y-95512304D01*
X157972683Y-95607542D01*
X157925064Y-95655161D01*
X157829826Y-95702780D01*
X157544112Y-95702780D01*
X157448874Y-95655161D01*
X157401255Y-95607542D01*
X158496493Y-95702780D02*
X158686969Y-95702780D01*
X158782207Y-95655161D01*
X158829826Y-95607542D01*
X158925064Y-95464685D01*
X158972683Y-95274209D01*
X158972683Y-94893257D01*
X158925064Y-94798019D01*
X158877445Y-94750400D01*
X158782207Y-94702780D01*
X158591731Y-94702780D01*
X158496493Y-94750400D01*
X158448874Y-94798019D01*
X158401255Y-94893257D01*
X158401255Y-95131352D01*
X158448874Y-95226590D01*
X158496493Y-95274209D01*
X158591731Y-95321828D01*
X158782207Y-95321828D01*
X158877445Y-95274209D01*
X158925064Y-95226590D01*
X158972683Y-95131352D01*
%TO.C,SW40*%
X155353636Y-128992801D02*
X155496493Y-129040420D01*
X155734588Y-129040420D01*
X155829826Y-128992801D01*
X155877445Y-128945182D01*
X155925064Y-128849944D01*
X155925064Y-128754706D01*
X155877445Y-128659468D01*
X155829826Y-128611849D01*
X155734588Y-128564230D01*
X155544112Y-128516611D01*
X155448874Y-128468992D01*
X155401255Y-128421373D01*
X155353636Y-128326135D01*
X155353636Y-128230897D01*
X155401255Y-128135659D01*
X155448874Y-128088040D01*
X155544112Y-128040420D01*
X155782207Y-128040420D01*
X155925064Y-128088040D01*
X156258398Y-128040420D02*
X156496493Y-129040420D01*
X156686969Y-128326135D01*
X156877445Y-129040420D01*
X157115540Y-128040420D01*
X157925064Y-128373754D02*
X157925064Y-129040420D01*
X157686969Y-127992801D02*
X157448874Y-128707087D01*
X158067921Y-128707087D01*
X158639350Y-128040420D02*
X158734588Y-128040420D01*
X158829826Y-128088040D01*
X158877445Y-128135659D01*
X158925064Y-128230897D01*
X158972683Y-128421373D01*
X158972683Y-128659468D01*
X158925064Y-128849944D01*
X158877445Y-128945182D01*
X158829826Y-128992801D01*
X158734588Y-129040420D01*
X158639350Y-129040420D01*
X158544112Y-128992801D01*
X158496493Y-128945182D01*
X158448874Y-128849944D01*
X158401255Y-128659468D01*
X158401255Y-128421373D01*
X158448874Y-128230897D01*
X158496493Y-128135659D01*
X158544112Y-128088040D01*
X158639350Y-128040420D01*
%TO.C,SW32*%
X146254136Y-154480304D02*
X146124301Y-154404024D01*
X145891409Y-154354521D01*
X145788351Y-154381298D01*
X145731872Y-154417976D01*
X145665492Y-154501232D01*
X145645691Y-154594389D01*
X145672469Y-154697447D01*
X145709147Y-154753926D01*
X145792403Y-154820305D01*
X145968816Y-154906486D01*
X146052073Y-154972866D01*
X146088750Y-155029345D01*
X146115528Y-155132402D01*
X146095727Y-155225559D01*
X146029347Y-155308815D01*
X145972868Y-155345493D01*
X145869811Y-155372271D01*
X145636918Y-155322768D01*
X145507084Y-155246488D01*
X145171134Y-155223762D02*
X145146153Y-154196112D01*
X144811331Y-154855187D01*
X144773526Y-154116907D01*
X144332722Y-155045552D01*
X144053251Y-154986149D02*
X143447731Y-154857442D01*
X143852985Y-154554118D01*
X143713249Y-154524416D01*
X143629993Y-154458037D01*
X143593315Y-154401558D01*
X143566538Y-154298500D01*
X143616040Y-154065608D01*
X143682420Y-153982352D01*
X143738899Y-153945674D01*
X143841956Y-153918896D01*
X144121427Y-153978300D01*
X144204683Y-154044679D01*
X144241361Y-154101158D01*
X143094904Y-154685080D02*
X143038425Y-154721758D01*
X142935368Y-154748536D01*
X142702476Y-154699033D01*
X142619219Y-154632653D01*
X142582541Y-154576174D01*
X142555764Y-154473117D01*
X142575565Y-154379960D01*
X142651845Y-154250125D01*
X143329593Y-153809990D01*
X142724073Y-153681283D01*
%TO.C,SW3*%
X36766666Y-124893511D02*
X36909523Y-124941130D01*
X37147619Y-124941130D01*
X37242857Y-124893511D01*
X37290476Y-124845892D01*
X37338095Y-124750654D01*
X37338095Y-124655416D01*
X37290476Y-124560178D01*
X37242857Y-124512559D01*
X37147619Y-124464940D01*
X36957142Y-124417321D01*
X36861904Y-124369702D01*
X36814285Y-124322083D01*
X36766666Y-124226845D01*
X36766666Y-124131607D01*
X36814285Y-124036369D01*
X36861904Y-123988750D01*
X36957142Y-123941130D01*
X37195238Y-123941130D01*
X37338095Y-123988750D01*
X37671428Y-123941130D02*
X37909523Y-124941130D01*
X38100000Y-124226845D01*
X38290476Y-124941130D01*
X38528571Y-123941130D01*
X38814285Y-123941130D02*
X39433333Y-123941130D01*
X39100000Y-124322083D01*
X39242857Y-124322083D01*
X39338095Y-124369702D01*
X39385714Y-124417321D01*
X39433333Y-124512559D01*
X39433333Y-124750654D01*
X39385714Y-124845892D01*
X39338095Y-124893511D01*
X39242857Y-124941130D01*
X38957142Y-124941130D01*
X38861904Y-124893511D01*
X38814285Y-124845892D01*
%TO.C,SW13*%
X79152976Y-70651931D02*
X79295833Y-70699550D01*
X79533928Y-70699550D01*
X79629166Y-70651931D01*
X79676785Y-70604312D01*
X79724404Y-70509074D01*
X79724404Y-70413836D01*
X79676785Y-70318598D01*
X79629166Y-70270979D01*
X79533928Y-70223360D01*
X79343452Y-70175741D01*
X79248214Y-70128122D01*
X79200595Y-70080503D01*
X79152976Y-69985265D01*
X79152976Y-69890027D01*
X79200595Y-69794789D01*
X79248214Y-69747170D01*
X79343452Y-69699550D01*
X79581547Y-69699550D01*
X79724404Y-69747170D01*
X80057738Y-69699550D02*
X80295833Y-70699550D01*
X80486309Y-69985265D01*
X80676785Y-70699550D01*
X80914880Y-69699550D01*
X81819642Y-70699550D02*
X81248214Y-70699550D01*
X81533928Y-70699550D02*
X81533928Y-69699550D01*
X81438690Y-69842408D01*
X81343452Y-69937646D01*
X81248214Y-69985265D01*
X82152976Y-69699550D02*
X82772023Y-69699550D01*
X82438690Y-70080503D01*
X82581547Y-70080503D01*
X82676785Y-70128122D01*
X82724404Y-70175741D01*
X82772023Y-70270979D01*
X82772023Y-70509074D01*
X82724404Y-70604312D01*
X82676785Y-70651931D01*
X82581547Y-70699550D01*
X82295833Y-70699550D01*
X82200595Y-70651931D01*
X82152976Y-70604312D01*
%TO.C,SW18*%
X98202976Y-65889411D02*
X98345833Y-65937030D01*
X98583928Y-65937030D01*
X98679166Y-65889411D01*
X98726785Y-65841792D01*
X98774404Y-65746554D01*
X98774404Y-65651316D01*
X98726785Y-65556078D01*
X98679166Y-65508459D01*
X98583928Y-65460840D01*
X98393452Y-65413221D01*
X98298214Y-65365602D01*
X98250595Y-65317983D01*
X98202976Y-65222745D01*
X98202976Y-65127507D01*
X98250595Y-65032269D01*
X98298214Y-64984650D01*
X98393452Y-64937030D01*
X98631547Y-64937030D01*
X98774404Y-64984650D01*
X99107738Y-64937030D02*
X99345833Y-65937030D01*
X99536309Y-65222745D01*
X99726785Y-65937030D01*
X99964880Y-64937030D01*
X100869642Y-65937030D02*
X100298214Y-65937030D01*
X100583928Y-65937030D02*
X100583928Y-64937030D01*
X100488690Y-65079888D01*
X100393452Y-65175126D01*
X100298214Y-65222745D01*
X101441071Y-65365602D02*
X101345833Y-65317983D01*
X101298214Y-65270364D01*
X101250595Y-65175126D01*
X101250595Y-65127507D01*
X101298214Y-65032269D01*
X101345833Y-64984650D01*
X101441071Y-64937030D01*
X101631547Y-64937030D01*
X101726785Y-64984650D01*
X101774404Y-65032269D01*
X101822023Y-65127507D01*
X101822023Y-65175126D01*
X101774404Y-65270364D01*
X101726785Y-65317983D01*
X101631547Y-65365602D01*
X101441071Y-65365602D01*
X101345833Y-65413221D01*
X101298214Y-65460840D01*
X101250595Y-65556078D01*
X101250595Y-65746554D01*
X101298214Y-65841792D01*
X101345833Y-65889411D01*
X101441071Y-65937030D01*
X101631547Y-65937030D01*
X101726785Y-65889411D01*
X101774404Y-65841792D01*
X101822023Y-65746554D01*
X101822023Y-65556078D01*
X101774404Y-65460840D01*
X101726785Y-65413221D01*
X101631547Y-65365602D01*
%TO.C,SW7*%
X41529166Y-124893511D02*
X41672023Y-124941130D01*
X41910119Y-124941130D01*
X42005357Y-124893511D01*
X42052976Y-124845892D01*
X42100595Y-124750654D01*
X42100595Y-124655416D01*
X42052976Y-124560178D01*
X42005357Y-124512559D01*
X41910119Y-124464940D01*
X41719642Y-124417321D01*
X41624404Y-124369702D01*
X41576785Y-124322083D01*
X41529166Y-124226845D01*
X41529166Y-124131607D01*
X41576785Y-124036369D01*
X41624404Y-123988750D01*
X41719642Y-123941130D01*
X41957738Y-123941130D01*
X42100595Y-123988750D01*
X42433928Y-123941130D02*
X42672023Y-124941130D01*
X42862500Y-124226845D01*
X43052976Y-124941130D01*
X43291071Y-123941130D01*
X43576785Y-123941130D02*
X44243452Y-123941130D01*
X43814880Y-124941130D01*
%TO.C,D5*%
X61347423Y-87068154D02*
X61347423Y-86268154D01*
X61537900Y-86268154D01*
X61652185Y-86306250D01*
X61728376Y-86382440D01*
X61766471Y-86458630D01*
X61804566Y-86611011D01*
X61804566Y-86725297D01*
X61766471Y-86877678D01*
X61728376Y-86953869D01*
X61652185Y-87030059D01*
X61537900Y-87068154D01*
X61347423Y-87068154D01*
X62528376Y-86268154D02*
X62147423Y-86268154D01*
X62109328Y-86649107D01*
X62147423Y-86611011D01*
X62223614Y-86572916D01*
X62414090Y-86572916D01*
X62490280Y-86611011D01*
X62528376Y-86649107D01*
X62566471Y-86725297D01*
X62566471Y-86915773D01*
X62528376Y-86991964D01*
X62490280Y-87030059D01*
X62414090Y-87068154D01*
X62223614Y-87068154D01*
X62147423Y-87030059D01*
X62109328Y-86991964D01*
%TO.C,U1*%
X143021699Y-109026794D02*
X142755032Y-108645842D01*
X142564556Y-109026794D02*
X142564556Y-108226794D01*
X142869318Y-108226794D01*
X142945508Y-108264890D01*
X142983603Y-108302985D01*
X143021699Y-108379175D01*
X143021699Y-108493461D01*
X142983603Y-108569651D01*
X142945508Y-108607747D01*
X142869318Y-108645842D01*
X142564556Y-108645842D01*
X143326460Y-108798223D02*
X143707413Y-108798223D01*
X143250270Y-109026794D02*
X143516937Y-108226794D01*
X143783603Y-109026794D01*
X143974080Y-108226794D02*
X144164556Y-109026794D01*
X144316937Y-108455366D01*
X144469318Y-109026794D01*
X144659794Y-108226794D01*
X143307413Y-118767747D02*
X143040746Y-118767747D01*
X143040746Y-119186794D02*
X143040746Y-118386794D01*
X143421699Y-118386794D01*
X144069318Y-118653461D02*
X144069318Y-119186794D01*
X143878841Y-118348699D02*
X143688365Y-118920128D01*
X144183603Y-118920128D01*
X143250270Y-134007747D02*
X143364556Y-134045842D01*
X143402651Y-134083937D01*
X143440746Y-134160128D01*
X143440746Y-134274413D01*
X143402651Y-134350604D01*
X143364556Y-134388699D01*
X143288365Y-134426794D01*
X142983603Y-134426794D01*
X142983603Y-133626794D01*
X143250270Y-133626794D01*
X143326460Y-133664890D01*
X143364556Y-133702985D01*
X143402651Y-133779175D01*
X143402651Y-133855366D01*
X143364556Y-133931556D01*
X143326460Y-133969651D01*
X143250270Y-134007747D01*
X142983603Y-134007747D01*
X143745508Y-133702985D02*
X143783603Y-133664890D01*
X143859794Y-133626794D01*
X144050270Y-133626794D01*
X144126460Y-133664890D01*
X144164556Y-133702985D01*
X144202651Y-133779175D01*
X144202651Y-133855366D01*
X144164556Y-133969651D01*
X143707413Y-134426794D01*
X144202651Y-134426794D01*
X143307413Y-126387747D02*
X143040746Y-126387747D01*
X143040746Y-126806794D02*
X143040746Y-126006794D01*
X143421699Y-126006794D01*
X143650270Y-126006794D02*
X144183603Y-126006794D01*
X143840746Y-126806794D01*
X143250270Y-136547747D02*
X143364556Y-136585842D01*
X143402651Y-136623937D01*
X143440746Y-136700128D01*
X143440746Y-136814413D01*
X143402651Y-136890604D01*
X143364556Y-136928699D01*
X143288365Y-136966794D01*
X142983603Y-136966794D01*
X142983603Y-136166794D01*
X143250270Y-136166794D01*
X143326460Y-136204890D01*
X143364556Y-136242985D01*
X143402651Y-136319175D01*
X143402651Y-136395366D01*
X143364556Y-136471556D01*
X143326460Y-136509651D01*
X143250270Y-136547747D01*
X142983603Y-136547747D01*
X144126460Y-136166794D02*
X143974080Y-136166794D01*
X143897889Y-136204890D01*
X143859794Y-136242985D01*
X143783603Y-136357270D01*
X143745508Y-136509651D01*
X143745508Y-136814413D01*
X143783603Y-136890604D01*
X143821699Y-136928699D01*
X143897889Y-136966794D01*
X144050270Y-136966794D01*
X144126460Y-136928699D01*
X144164556Y-136890604D01*
X144202651Y-136814413D01*
X144202651Y-136623937D01*
X144164556Y-136547747D01*
X144126460Y-136509651D01*
X144050270Y-136471556D01*
X143897889Y-136471556D01*
X143821699Y-136509651D01*
X143783603Y-136547747D01*
X143745508Y-136623937D01*
X132061603Y-119186794D02*
X132061603Y-118386794D01*
X132252080Y-118386794D01*
X132366365Y-118424890D01*
X132442556Y-118501080D01*
X132480651Y-118577270D01*
X132518746Y-118729651D01*
X132518746Y-118843937D01*
X132480651Y-118996318D01*
X132442556Y-119072509D01*
X132366365Y-119148699D01*
X132252080Y-119186794D01*
X132061603Y-119186794D01*
X133280651Y-119186794D02*
X132823508Y-119186794D01*
X133052080Y-119186794D02*
X133052080Y-118386794D01*
X132975889Y-118501080D01*
X132899699Y-118577270D01*
X132823508Y-118615366D01*
X142507413Y-115846794D02*
X142774080Y-116646794D01*
X143040746Y-115846794D01*
X143764556Y-116570604D02*
X143726460Y-116608699D01*
X143612175Y-116646794D01*
X143535984Y-116646794D01*
X143421699Y-116608699D01*
X143345508Y-116532509D01*
X143307413Y-116456318D01*
X143269318Y-116303937D01*
X143269318Y-116189651D01*
X143307413Y-116037270D01*
X143345508Y-115961080D01*
X143421699Y-115884890D01*
X143535984Y-115846794D01*
X143612175Y-115846794D01*
X143726460Y-115884890D01*
X143764556Y-115922985D01*
X144564556Y-116570604D02*
X144526460Y-116608699D01*
X144412175Y-116646794D01*
X144335984Y-116646794D01*
X144221699Y-116608699D01*
X144145508Y-116532509D01*
X144107413Y-116456318D01*
X144069318Y-116303937D01*
X144069318Y-116189651D01*
X144107413Y-116037270D01*
X144145508Y-115961080D01*
X144221699Y-115884890D01*
X144335984Y-115846794D01*
X144412175Y-115846794D01*
X144526460Y-115884890D01*
X144564556Y-115922985D01*
X143250270Y-131467747D02*
X143364556Y-131505842D01*
X143402651Y-131543937D01*
X143440746Y-131620128D01*
X143440746Y-131734413D01*
X143402651Y-131810604D01*
X143364556Y-131848699D01*
X143288365Y-131886794D01*
X142983603Y-131886794D01*
X142983603Y-131086794D01*
X143250270Y-131086794D01*
X143326460Y-131124890D01*
X143364556Y-131162985D01*
X143402651Y-131239175D01*
X143402651Y-131315366D01*
X143364556Y-131391556D01*
X143326460Y-131429651D01*
X143250270Y-131467747D01*
X142983603Y-131467747D01*
X143707413Y-131086794D02*
X144202651Y-131086794D01*
X143935984Y-131391556D01*
X144050270Y-131391556D01*
X144126460Y-131429651D01*
X144164556Y-131467747D01*
X144202651Y-131543937D01*
X144202651Y-131734413D01*
X144164556Y-131810604D01*
X144126460Y-131848699D01*
X144050270Y-131886794D01*
X143821699Y-131886794D01*
X143745508Y-131848699D01*
X143707413Y-131810604D01*
X132061603Y-111566794D02*
X132061603Y-110766794D01*
X132252080Y-110766794D01*
X132366365Y-110804890D01*
X132442556Y-110881080D01*
X132480651Y-110957270D01*
X132518746Y-111109651D01*
X132518746Y-111223937D01*
X132480651Y-111376318D01*
X132442556Y-111452509D01*
X132366365Y-111528699D01*
X132252080Y-111566794D01*
X132061603Y-111566794D01*
X132823508Y-110842985D02*
X132861603Y-110804890D01*
X132937794Y-110766794D01*
X133128270Y-110766794D01*
X133204460Y-110804890D01*
X133242556Y-110842985D01*
X133280651Y-110919175D01*
X133280651Y-110995366D01*
X133242556Y-111109651D01*
X132785413Y-111566794D01*
X133280651Y-111566794D01*
X132518746Y-126730604D02*
X132480651Y-126768699D01*
X132366365Y-126806794D01*
X132290175Y-126806794D01*
X132175889Y-126768699D01*
X132099699Y-126692509D01*
X132061603Y-126616318D01*
X132023508Y-126463937D01*
X132023508Y-126349651D01*
X132061603Y-126197270D01*
X132099699Y-126121080D01*
X132175889Y-126044890D01*
X132290175Y-126006794D01*
X132366365Y-126006794D01*
X132480651Y-126044890D01*
X132518746Y-126082985D01*
X133204460Y-126006794D02*
X133052080Y-126006794D01*
X132975889Y-126044890D01*
X132937794Y-126082985D01*
X132861603Y-126197270D01*
X132823508Y-126349651D01*
X132823508Y-126654413D01*
X132861603Y-126730604D01*
X132899699Y-126768699D01*
X132975889Y-126806794D01*
X133128270Y-126806794D01*
X133204460Y-126768699D01*
X133242556Y-126730604D01*
X133280651Y-126654413D01*
X133280651Y-126463937D01*
X133242556Y-126387747D01*
X133204460Y-126349651D01*
X133128270Y-126311556D01*
X132975889Y-126311556D01*
X132899699Y-126349651D01*
X132861603Y-126387747D01*
X132823508Y-126463937D01*
X143250270Y-128927747D02*
X143364556Y-128965842D01*
X143402651Y-129003937D01*
X143440746Y-129080128D01*
X143440746Y-129194413D01*
X143402651Y-129270604D01*
X143364556Y-129308699D01*
X143288365Y-129346794D01*
X142983603Y-129346794D01*
X142983603Y-128546794D01*
X143250270Y-128546794D01*
X143326460Y-128584890D01*
X143364556Y-128622985D01*
X143402651Y-128699175D01*
X143402651Y-128775366D01*
X143364556Y-128851556D01*
X143326460Y-128889651D01*
X143250270Y-128927747D01*
X142983603Y-128927747D01*
X144202651Y-129346794D02*
X143745508Y-129346794D01*
X143974080Y-129346794D02*
X143974080Y-128546794D01*
X143897889Y-128661080D01*
X143821699Y-128737270D01*
X143745508Y-128775366D01*
X132328270Y-136547747D02*
X132442556Y-136585842D01*
X132480651Y-136623937D01*
X132518746Y-136700128D01*
X132518746Y-136814413D01*
X132480651Y-136890604D01*
X132442556Y-136928699D01*
X132366365Y-136966794D01*
X132061603Y-136966794D01*
X132061603Y-136166794D01*
X132328270Y-136166794D01*
X132404460Y-136204890D01*
X132442556Y-136242985D01*
X132480651Y-136319175D01*
X132480651Y-136395366D01*
X132442556Y-136471556D01*
X132404460Y-136509651D01*
X132328270Y-136547747D01*
X132061603Y-136547747D01*
X133242556Y-136166794D02*
X132861603Y-136166794D01*
X132823508Y-136547747D01*
X132861603Y-136509651D01*
X132937794Y-136471556D01*
X133128270Y-136471556D01*
X133204460Y-136509651D01*
X133242556Y-136547747D01*
X133280651Y-136623937D01*
X133280651Y-136814413D01*
X133242556Y-136890604D01*
X133204460Y-136928699D01*
X133128270Y-136966794D01*
X132937794Y-136966794D01*
X132861603Y-136928699D01*
X132823508Y-136890604D01*
X142964556Y-110804890D02*
X142888365Y-110766794D01*
X142774080Y-110766794D01*
X142659794Y-110804890D01*
X142583603Y-110881080D01*
X142545508Y-110957270D01*
X142507413Y-111109651D01*
X142507413Y-111223937D01*
X142545508Y-111376318D01*
X142583603Y-111452509D01*
X142659794Y-111528699D01*
X142774080Y-111566794D01*
X142850270Y-111566794D01*
X142964556Y-111528699D01*
X143002651Y-111490604D01*
X143002651Y-111223937D01*
X142850270Y-111223937D01*
X143345508Y-111566794D02*
X143345508Y-110766794D01*
X143802651Y-111566794D01*
X143802651Y-110766794D01*
X144183603Y-111566794D02*
X144183603Y-110766794D01*
X144374080Y-110766794D01*
X144488365Y-110804890D01*
X144564556Y-110881080D01*
X144602651Y-110957270D01*
X144640746Y-111109651D01*
X144640746Y-111223937D01*
X144602651Y-111376318D01*
X144564556Y-111452509D01*
X144488365Y-111528699D01*
X144374080Y-111566794D01*
X144183603Y-111566794D01*
X132350731Y-108226794D02*
X132807874Y-108226794D01*
X132579303Y-109026794D02*
X132579303Y-108226794D01*
X132998350Y-108226794D02*
X133531684Y-109026794D01*
X133531684Y-108226794D02*
X132998350Y-109026794D01*
X133988827Y-108226794D02*
X134065017Y-108226794D01*
X134141208Y-108264890D01*
X134179303Y-108302985D01*
X134217398Y-108379175D01*
X134255493Y-108531556D01*
X134255493Y-108722032D01*
X134217398Y-108874413D01*
X134179303Y-108950604D01*
X134141208Y-108988699D01*
X134065017Y-109026794D01*
X133988827Y-109026794D01*
X133912636Y-108988699D01*
X133874541Y-108950604D01*
X133836446Y-108874413D01*
X133798350Y-108722032D01*
X133798350Y-108531556D01*
X133836446Y-108379175D01*
X133874541Y-108302985D01*
X133912636Y-108264890D01*
X133988827Y-108226794D01*
X135169779Y-108188699D02*
X134484065Y-109217270D01*
X135436446Y-109026794D02*
X135436446Y-108226794D01*
X135626922Y-108226794D01*
X135741208Y-108264890D01*
X135817398Y-108341080D01*
X135855493Y-108417270D01*
X135893588Y-108569651D01*
X135893588Y-108683937D01*
X135855493Y-108836318D01*
X135817398Y-108912509D01*
X135741208Y-108988699D01*
X135626922Y-109026794D01*
X135436446Y-109026794D01*
X136160255Y-108226794D02*
X136655493Y-108226794D01*
X136388827Y-108531556D01*
X136503112Y-108531556D01*
X136579303Y-108569651D01*
X136617398Y-108607747D01*
X136655493Y-108683937D01*
X136655493Y-108874413D01*
X136617398Y-108950604D01*
X136579303Y-108988699D01*
X136503112Y-109026794D01*
X136274541Y-109026794D01*
X136198350Y-108988699D01*
X136160255Y-108950604D01*
X132099699Y-131467747D02*
X132366365Y-131467747D01*
X132480651Y-131886794D02*
X132099699Y-131886794D01*
X132099699Y-131086794D01*
X132480651Y-131086794D01*
X133166365Y-131086794D02*
X133013984Y-131086794D01*
X132937794Y-131124890D01*
X132899699Y-131162985D01*
X132823508Y-131277270D01*
X132785413Y-131429651D01*
X132785413Y-131734413D01*
X132823508Y-131810604D01*
X132861603Y-131848699D01*
X132937794Y-131886794D01*
X133090175Y-131886794D01*
X133166365Y-131848699D01*
X133204460Y-131810604D01*
X133242556Y-131734413D01*
X133242556Y-131543937D01*
X133204460Y-131467747D01*
X133166365Y-131429651D01*
X133090175Y-131391556D01*
X132937794Y-131391556D01*
X132861603Y-131429651D01*
X132823508Y-131467747D01*
X132785413Y-131543937D01*
X132042556Y-115884890D02*
X131966365Y-115846794D01*
X131852080Y-115846794D01*
X131737794Y-115884890D01*
X131661603Y-115961080D01*
X131623508Y-116037270D01*
X131585413Y-116189651D01*
X131585413Y-116303937D01*
X131623508Y-116456318D01*
X131661603Y-116532509D01*
X131737794Y-116608699D01*
X131852080Y-116646794D01*
X131928270Y-116646794D01*
X132042556Y-116608699D01*
X132080651Y-116570604D01*
X132080651Y-116303937D01*
X131928270Y-116303937D01*
X132423508Y-116646794D02*
X132423508Y-115846794D01*
X132880651Y-116646794D01*
X132880651Y-115846794D01*
X133261603Y-116646794D02*
X133261603Y-115846794D01*
X133452080Y-115846794D01*
X133566365Y-115884890D01*
X133642556Y-115961080D01*
X133680651Y-116037270D01*
X133718746Y-116189651D01*
X133718746Y-116303937D01*
X133680651Y-116456318D01*
X133642556Y-116532509D01*
X133566365Y-116608699D01*
X133452080Y-116646794D01*
X133261603Y-116646794D01*
X132061603Y-121726794D02*
X132061603Y-120926794D01*
X132252080Y-120926794D01*
X132366365Y-120964890D01*
X132442556Y-121041080D01*
X132480651Y-121117270D01*
X132518746Y-121269651D01*
X132518746Y-121383937D01*
X132480651Y-121536318D01*
X132442556Y-121612509D01*
X132366365Y-121688699D01*
X132252080Y-121726794D01*
X132061603Y-121726794D01*
X133013984Y-120926794D02*
X133090175Y-120926794D01*
X133166365Y-120964890D01*
X133204460Y-121002985D01*
X133242556Y-121079175D01*
X133280651Y-121231556D01*
X133280651Y-121422032D01*
X133242556Y-121574413D01*
X133204460Y-121650604D01*
X133166365Y-121688699D01*
X133090175Y-121726794D01*
X133013984Y-121726794D01*
X132937794Y-121688699D01*
X132899699Y-121650604D01*
X132861603Y-121574413D01*
X132823508Y-121422032D01*
X132823508Y-121231556D01*
X132861603Y-121079175D01*
X132899699Y-121002985D01*
X132937794Y-120964890D01*
X133013984Y-120926794D01*
X132061603Y-124266794D02*
X132061603Y-123466794D01*
X132252080Y-123466794D01*
X132366365Y-123504890D01*
X132442556Y-123581080D01*
X132480651Y-123657270D01*
X132518746Y-123809651D01*
X132518746Y-123923937D01*
X132480651Y-124076318D01*
X132442556Y-124152509D01*
X132366365Y-124228699D01*
X132252080Y-124266794D01*
X132061603Y-124266794D01*
X133204460Y-123733461D02*
X133204460Y-124266794D01*
X133013984Y-123428699D02*
X132823508Y-124000128D01*
X133318746Y-124000128D01*
X143312866Y-114038699D02*
X143427152Y-114076794D01*
X143617628Y-114076794D01*
X143693819Y-114038699D01*
X143731914Y-114000604D01*
X143770009Y-113924413D01*
X143770009Y-113848223D01*
X143731914Y-113772032D01*
X143693819Y-113733937D01*
X143617628Y-113695842D01*
X143465247Y-113657747D01*
X143389057Y-113619651D01*
X143350961Y-113581556D01*
X143312866Y-113505366D01*
X143312866Y-113429175D01*
X143350961Y-113352985D01*
X143389057Y-113314890D01*
X143465247Y-113276794D01*
X143655723Y-113276794D01*
X143770009Y-113314890D01*
X143998580Y-113276794D02*
X144455723Y-113276794D01*
X144227152Y-114076794D02*
X144227152Y-113276794D01*
X132042556Y-113344890D02*
X131966365Y-113306794D01*
X131852080Y-113306794D01*
X131737794Y-113344890D01*
X131661603Y-113421080D01*
X131623508Y-113497270D01*
X131585413Y-113649651D01*
X131585413Y-113763937D01*
X131623508Y-113916318D01*
X131661603Y-113992509D01*
X131737794Y-114068699D01*
X131852080Y-114106794D01*
X131928270Y-114106794D01*
X132042556Y-114068699D01*
X132080651Y-114030604D01*
X132080651Y-113763937D01*
X131928270Y-113763937D01*
X132423508Y-114106794D02*
X132423508Y-113306794D01*
X132880651Y-114106794D01*
X132880651Y-113306794D01*
X133261603Y-114106794D02*
X133261603Y-113306794D01*
X133452080Y-113306794D01*
X133566365Y-113344890D01*
X133642556Y-113421080D01*
X133680651Y-113497270D01*
X133718746Y-113649651D01*
X133718746Y-113763937D01*
X133680651Y-113916318D01*
X133642556Y-113992509D01*
X133566365Y-114068699D01*
X133452080Y-114106794D01*
X133261603Y-114106794D01*
X132061603Y-129346794D02*
X132061603Y-128546794D01*
X132252080Y-128546794D01*
X132366365Y-128584890D01*
X132442556Y-128661080D01*
X132480651Y-128737270D01*
X132518746Y-128889651D01*
X132518746Y-129003937D01*
X132480651Y-129156318D01*
X132442556Y-129232509D01*
X132366365Y-129308699D01*
X132252080Y-129346794D01*
X132061603Y-129346794D01*
X132785413Y-128546794D02*
X133318746Y-128546794D01*
X132975889Y-129346794D01*
X143307413Y-123847747D02*
X143040746Y-123847747D01*
X143040746Y-124266794D02*
X143040746Y-123466794D01*
X143421699Y-123466794D01*
X144069318Y-123466794D02*
X143916937Y-123466794D01*
X143840746Y-123504890D01*
X143802651Y-123542985D01*
X143726460Y-123657270D01*
X143688365Y-123809651D01*
X143688365Y-124114413D01*
X143726460Y-124190604D01*
X143764556Y-124228699D01*
X143840746Y-124266794D01*
X143993127Y-124266794D01*
X144069318Y-124228699D01*
X144107413Y-124190604D01*
X144145508Y-124114413D01*
X144145508Y-123923937D01*
X144107413Y-123847747D01*
X144069318Y-123809651D01*
X143993127Y-123771556D01*
X143840746Y-123771556D01*
X143764556Y-123809651D01*
X143726460Y-123847747D01*
X143688365Y-123923937D01*
X143307413Y-121307747D02*
X143040746Y-121307747D01*
X143040746Y-121726794D02*
X143040746Y-120926794D01*
X143421699Y-120926794D01*
X144107413Y-120926794D02*
X143726460Y-120926794D01*
X143688365Y-121307747D01*
X143726460Y-121269651D01*
X143802651Y-121231556D01*
X143993127Y-121231556D01*
X144069318Y-121269651D01*
X144107413Y-121307747D01*
X144145508Y-121383937D01*
X144145508Y-121574413D01*
X144107413Y-121650604D01*
X144069318Y-121688699D01*
X143993127Y-121726794D01*
X143802651Y-121726794D01*
X143726460Y-121688699D01*
X143688365Y-121650604D01*
%TO.C,RSW1*%
X148090500Y-101465300D02*
X147614310Y-101798634D01*
X148090500Y-102036729D02*
X147090500Y-102036729D01*
X147090500Y-101655777D01*
X147138120Y-101560539D01*
X147185739Y-101512920D01*
X147280977Y-101465300D01*
X147423834Y-101465300D01*
X147519072Y-101512920D01*
X147566691Y-101560539D01*
X147614310Y-101655777D01*
X147614310Y-102036729D01*
X147566691Y-101036729D02*
X147566691Y-100703396D01*
X148090500Y-100560539D02*
X148090500Y-101036729D01*
X147090500Y-101036729D01*
X147090500Y-100560539D01*
X148042881Y-100179586D02*
X148090500Y-100036729D01*
X148090500Y-99798634D01*
X148042881Y-99703396D01*
X147995262Y-99655777D01*
X147900024Y-99608158D01*
X147804786Y-99608158D01*
X147709548Y-99655777D01*
X147661929Y-99703396D01*
X147614310Y-99798634D01*
X147566691Y-99989110D01*
X147519072Y-100084348D01*
X147471453Y-100131967D01*
X147376215Y-100179586D01*
X147280977Y-100179586D01*
X147185739Y-100131967D01*
X147138120Y-100084348D01*
X147090500Y-99989110D01*
X147090500Y-99751015D01*
X147138120Y-99608158D01*
X147566691Y-99179586D02*
X147566691Y-98846253D01*
X148090500Y-98703396D02*
X148090500Y-99179586D01*
X147090500Y-99179586D01*
X147090500Y-98703396D01*
X147090500Y-98417681D02*
X147090500Y-97846253D01*
X148090500Y-98131967D02*
X147090500Y-98131967D01*
%TO.C,SW21*%
X98203396Y-123039651D02*
X98346253Y-123087270D01*
X98584348Y-123087270D01*
X98679586Y-123039651D01*
X98727205Y-122992032D01*
X98774824Y-122896794D01*
X98774824Y-122801556D01*
X98727205Y-122706318D01*
X98679586Y-122658699D01*
X98584348Y-122611080D01*
X98393872Y-122563461D01*
X98298634Y-122515842D01*
X98251015Y-122468223D01*
X98203396Y-122372985D01*
X98203396Y-122277747D01*
X98251015Y-122182509D01*
X98298634Y-122134890D01*
X98393872Y-122087270D01*
X98631967Y-122087270D01*
X98774824Y-122134890D01*
X99108158Y-122087270D02*
X99346253Y-123087270D01*
X99536729Y-122372985D01*
X99727205Y-123087270D01*
X99965300Y-122087270D01*
X100298634Y-122182509D02*
X100346253Y-122134890D01*
X100441491Y-122087270D01*
X100679586Y-122087270D01*
X100774824Y-122134890D01*
X100822443Y-122182509D01*
X100870062Y-122277747D01*
X100870062Y-122372985D01*
X100822443Y-122515842D01*
X100251015Y-123087270D01*
X100870062Y-123087270D01*
X101822443Y-123087270D02*
X101251015Y-123087270D01*
X101536729Y-123087270D02*
X101536729Y-122087270D01*
X101441491Y-122230128D01*
X101346253Y-122325366D01*
X101251015Y-122372985D01*
%TO.C,U2*%
X159152380Y-88961904D02*
X159152380Y-88390476D01*
X160152380Y-88676190D02*
X159152380Y-88676190D01*
X160152380Y-87485714D02*
X159676190Y-87819047D01*
X160152380Y-88057142D02*
X159152380Y-88057142D01*
X159152380Y-87676190D01*
X159200000Y-87580952D01*
X159247619Y-87533333D01*
X159342857Y-87485714D01*
X159485714Y-87485714D01*
X159580952Y-87533333D01*
X159628571Y-87580952D01*
X159676190Y-87676190D01*
X159676190Y-88057142D01*
X160152380Y-86485714D02*
X159676190Y-86819047D01*
X160152380Y-87057142D02*
X159152380Y-87057142D01*
X159152380Y-86676190D01*
X159200000Y-86580952D01*
X159247619Y-86533333D01*
X159342857Y-86485714D01*
X159485714Y-86485714D01*
X159580952Y-86533333D01*
X159628571Y-86580952D01*
X159676190Y-86676190D01*
X159676190Y-87057142D01*
X160104761Y-86104761D02*
X160152380Y-85961904D01*
X160152380Y-85723809D01*
X160104761Y-85628571D01*
X160057142Y-85580952D01*
X159961904Y-85533333D01*
X159866666Y-85533333D01*
X159771428Y-85580952D01*
X159723809Y-85628571D01*
X159676190Y-85723809D01*
X159628571Y-85914285D01*
X159580952Y-86009523D01*
X159533333Y-86057142D01*
X159438095Y-86104761D01*
X159342857Y-86104761D01*
X159247619Y-86057142D01*
X159200000Y-86009523D01*
X159152380Y-85914285D01*
X159152380Y-85676190D01*
X159200000Y-85533333D01*
%TO.C,SW41*%
X174566042Y-159446303D02*
X174667844Y-159335343D01*
X174765065Y-159118001D01*
X174760485Y-159011620D01*
X174736461Y-158948708D01*
X174668969Y-158866351D01*
X174582033Y-158827462D01*
X174475652Y-158832042D01*
X174412739Y-158856066D01*
X174330382Y-158923558D01*
X174209137Y-159077987D01*
X174126780Y-159145479D01*
X174063867Y-159169503D01*
X173957486Y-159174083D01*
X173870550Y-159135194D01*
X173803057Y-159052837D01*
X173779033Y-158989925D01*
X173774454Y-158883544D01*
X173871675Y-158666202D01*
X173973476Y-158555242D01*
X174066118Y-158231520D02*
X175076174Y-158422509D01*
X174501927Y-157956971D01*
X175231728Y-158074762D01*
X174416116Y-157449090D01*
X175050947Y-156846239D02*
X175659503Y-157118460D01*
X174605979Y-156908026D02*
X175160782Y-157417033D01*
X175413558Y-156851945D01*
X176087278Y-156162157D02*
X175853946Y-156683777D01*
X175970612Y-156422967D02*
X175057778Y-156014637D01*
X175149294Y-156159906D01*
X175197342Y-156285731D01*
X175201922Y-156392112D01*
%TO.C,SW17*%
X79153316Y-146852251D02*
X79296173Y-146899870D01*
X79534268Y-146899870D01*
X79629506Y-146852251D01*
X79677125Y-146804632D01*
X79724744Y-146709394D01*
X79724744Y-146614156D01*
X79677125Y-146518918D01*
X79629506Y-146471299D01*
X79534268Y-146423680D01*
X79343792Y-146376061D01*
X79248554Y-146328442D01*
X79200935Y-146280823D01*
X79153316Y-146185585D01*
X79153316Y-146090347D01*
X79200935Y-145995109D01*
X79248554Y-145947490D01*
X79343792Y-145899870D01*
X79581887Y-145899870D01*
X79724744Y-145947490D01*
X80058078Y-145899870D02*
X80296173Y-146899870D01*
X80486649Y-146185585D01*
X80677125Y-146899870D01*
X80915220Y-145899870D01*
X81819982Y-146899870D02*
X81248554Y-146899870D01*
X81534268Y-146899870D02*
X81534268Y-145899870D01*
X81439030Y-146042728D01*
X81343792Y-146137966D01*
X81248554Y-146185585D01*
X82153316Y-145899870D02*
X82819982Y-145899870D01*
X82391411Y-146899870D01*
%TO.C,SW42*%
X79153316Y-150424141D02*
X79296173Y-150471760D01*
X79534268Y-150471760D01*
X79629506Y-150424141D01*
X79677125Y-150376522D01*
X79724744Y-150281284D01*
X79724744Y-150186046D01*
X79677125Y-150090808D01*
X79629506Y-150043189D01*
X79534268Y-149995570D01*
X79343792Y-149947951D01*
X79248554Y-149900332D01*
X79200935Y-149852713D01*
X79153316Y-149757475D01*
X79153316Y-149662237D01*
X79200935Y-149566999D01*
X79248554Y-149519380D01*
X79343792Y-149471760D01*
X79581887Y-149471760D01*
X79724744Y-149519380D01*
X80058078Y-149471760D02*
X80296173Y-150471760D01*
X80486649Y-149757475D01*
X80677125Y-150471760D01*
X80915220Y-149471760D01*
X81724744Y-149805094D02*
X81724744Y-150471760D01*
X81486649Y-149424141D02*
X81248554Y-150138427D01*
X81867601Y-150138427D01*
X82200935Y-149566999D02*
X82248554Y-149519380D01*
X82343792Y-149471760D01*
X82581887Y-149471760D01*
X82677125Y-149519380D01*
X82724744Y-149566999D01*
X82772363Y-149662237D01*
X82772363Y-149757475D01*
X82724744Y-149900332D01*
X82153316Y-150471760D01*
X82772363Y-150471760D01*
%TO.C,D13*%
X80016811Y-153953174D02*
X80016811Y-153153174D01*
X80207287Y-153153174D01*
X80321573Y-153191270D01*
X80397763Y-153267460D01*
X80435859Y-153343650D01*
X80473954Y-153496031D01*
X80473954Y-153610317D01*
X80435859Y-153762698D01*
X80397763Y-153838889D01*
X80321573Y-153915079D01*
X80207287Y-153953174D01*
X80016811Y-153953174D01*
X81235859Y-153953174D02*
X80778716Y-153953174D01*
X81007287Y-153953174D02*
X81007287Y-153153174D01*
X80931097Y-153267460D01*
X80854906Y-153343650D01*
X80778716Y-153381746D01*
X81502525Y-153153174D02*
X81997763Y-153153174D01*
X81731097Y-153457936D01*
X81845382Y-153457936D01*
X81921573Y-153496031D01*
X81959668Y-153534127D01*
X81997763Y-153610317D01*
X81997763Y-153800793D01*
X81959668Y-153876984D01*
X81921573Y-153915079D01*
X81845382Y-153953174D01*
X81616811Y-153953174D01*
X81540620Y-153915079D01*
X81502525Y-153876984D01*
%TO.C,SW9*%
X60579166Y-80176971D02*
X60722023Y-80224590D01*
X60960119Y-80224590D01*
X61055357Y-80176971D01*
X61102976Y-80129352D01*
X61150595Y-80034114D01*
X61150595Y-79938876D01*
X61102976Y-79843638D01*
X61055357Y-79796019D01*
X60960119Y-79748400D01*
X60769642Y-79700781D01*
X60674404Y-79653162D01*
X60626785Y-79605543D01*
X60579166Y-79510305D01*
X60579166Y-79415067D01*
X60626785Y-79319829D01*
X60674404Y-79272210D01*
X60769642Y-79224590D01*
X61007738Y-79224590D01*
X61150595Y-79272210D01*
X61483928Y-79224590D02*
X61722023Y-80224590D01*
X61912500Y-79510305D01*
X62102976Y-80224590D01*
X62341071Y-79224590D01*
X62769642Y-80224590D02*
X62960119Y-80224590D01*
X63055357Y-80176971D01*
X63102976Y-80129352D01*
X63198214Y-79986495D01*
X63245833Y-79796019D01*
X63245833Y-79415067D01*
X63198214Y-79319829D01*
X63150595Y-79272210D01*
X63055357Y-79224590D01*
X62864880Y-79224590D01*
X62769642Y-79272210D01*
X62722023Y-79319829D01*
X62674404Y-79415067D01*
X62674404Y-79653162D01*
X62722023Y-79748400D01*
X62769642Y-79796019D01*
X62864880Y-79843638D01*
X63055357Y-79843638D01*
X63150595Y-79796019D01*
X63198214Y-79748400D01*
X63245833Y-79653162D01*
%TO.C,SW5*%
X41429166Y-86693511D02*
X41572023Y-86741130D01*
X41810119Y-86741130D01*
X41905357Y-86693511D01*
X41952976Y-86645892D01*
X42000595Y-86550654D01*
X42000595Y-86455416D01*
X41952976Y-86360178D01*
X41905357Y-86312559D01*
X41810119Y-86264940D01*
X41619642Y-86217321D01*
X41524404Y-86169702D01*
X41476785Y-86122083D01*
X41429166Y-86026845D01*
X41429166Y-85931607D01*
X41476785Y-85836369D01*
X41524404Y-85788750D01*
X41619642Y-85741130D01*
X41857738Y-85741130D01*
X42000595Y-85788750D01*
X42333928Y-85741130D02*
X42572023Y-86741130D01*
X42762500Y-86026845D01*
X42952976Y-86741130D01*
X43191071Y-85741130D01*
X44048214Y-85741130D02*
X43572023Y-85741130D01*
X43524404Y-86217321D01*
X43572023Y-86169702D01*
X43667261Y-86122083D01*
X43905357Y-86122083D01*
X44000595Y-86169702D01*
X44048214Y-86217321D01*
X44095833Y-86312559D01*
X44095833Y-86550654D01*
X44048214Y-86645892D01*
X44000595Y-86693511D01*
X43905357Y-86741130D01*
X43667261Y-86741130D01*
X43572023Y-86693511D01*
X43524404Y-86645892D01*
%TO.C,SW37*%
X171167071Y-162869403D02*
X171056111Y-162767601D01*
X170838769Y-162670380D01*
X170732388Y-162674960D01*
X170669476Y-162698984D01*
X170587119Y-162766476D01*
X170548230Y-162853412D01*
X170552810Y-162959793D01*
X170576834Y-163022706D01*
X170644326Y-163105063D01*
X170798755Y-163226308D01*
X170866247Y-163308665D01*
X170890271Y-163371578D01*
X170894851Y-163477959D01*
X170855962Y-163564895D01*
X170773605Y-163632388D01*
X170710693Y-163656412D01*
X170604312Y-163660991D01*
X170386970Y-163563770D01*
X170276010Y-163461969D01*
X169952288Y-163369327D02*
X170143277Y-162359271D01*
X169677739Y-162933518D01*
X169795530Y-162203717D01*
X169169858Y-163019329D01*
X168909048Y-162902663D02*
X168343961Y-162649887D01*
X168803793Y-162438251D01*
X168673388Y-162379918D01*
X168605896Y-162297561D01*
X168581872Y-162234649D01*
X168577292Y-162128268D01*
X168674514Y-161910926D01*
X168756871Y-161843434D01*
X168819783Y-161819410D01*
X168926164Y-161814830D01*
X169186974Y-161931496D01*
X169254466Y-162013853D01*
X169278490Y-162076766D01*
X168039683Y-162513777D02*
X167431126Y-162241557D01*
X168230672Y-161503721D01*
%TO.C,D35*%
X39535221Y-163268154D02*
X39535221Y-162468154D01*
X39725697Y-162468154D01*
X39839983Y-162506250D01*
X39916173Y-162582440D01*
X39954269Y-162658630D01*
X39992364Y-162811011D01*
X39992364Y-162925297D01*
X39954269Y-163077678D01*
X39916173Y-163153869D01*
X39839983Y-163230059D01*
X39725697Y-163268154D01*
X39535221Y-163268154D01*
X40259030Y-162468154D02*
X40754269Y-162468154D01*
X40487602Y-162772916D01*
X40601888Y-162772916D01*
X40678078Y-162811011D01*
X40716173Y-162849107D01*
X40754269Y-162925297D01*
X40754269Y-163115773D01*
X40716173Y-163191964D01*
X40678078Y-163230059D01*
X40601888Y-163268154D01*
X40373316Y-163268154D01*
X40297126Y-163230059D01*
X40259030Y-163191964D01*
X41478078Y-162468154D02*
X41097126Y-162468154D01*
X41059030Y-162849107D01*
X41097126Y-162811011D01*
X41173316Y-162772916D01*
X41363792Y-162772916D01*
X41439983Y-162811011D01*
X41478078Y-162849107D01*
X41516173Y-162925297D01*
X41516173Y-163115773D01*
X41478078Y-163191964D01*
X41439983Y-163230059D01*
X41363792Y-163268154D01*
X41173316Y-163268154D01*
X41097126Y-163230059D01*
X41059030Y-163191964D01*
%TO.C,SW44*%
X41052976Y-151693511D02*
X41195833Y-151741130D01*
X41433928Y-151741130D01*
X41529166Y-151693511D01*
X41576785Y-151645892D01*
X41624404Y-151550654D01*
X41624404Y-151455416D01*
X41576785Y-151360178D01*
X41529166Y-151312559D01*
X41433928Y-151264940D01*
X41243452Y-151217321D01*
X41148214Y-151169702D01*
X41100595Y-151122083D01*
X41052976Y-151026845D01*
X41052976Y-150931607D01*
X41100595Y-150836369D01*
X41148214Y-150788750D01*
X41243452Y-150741130D01*
X41481547Y-150741130D01*
X41624404Y-150788750D01*
X41957738Y-150741130D02*
X42195833Y-151741130D01*
X42386309Y-151026845D01*
X42576785Y-151741130D01*
X42814880Y-150741130D01*
X43624404Y-151074464D02*
X43624404Y-151741130D01*
X43386309Y-150693511D02*
X43148214Y-151407797D01*
X43767261Y-151407797D01*
X44576785Y-151074464D02*
X44576785Y-151741130D01*
X44338690Y-150693511D02*
X44100595Y-151407797D01*
X44719642Y-151407797D01*
%TO.C,SW43*%
X36290476Y-151693511D02*
X36433333Y-151741130D01*
X36671428Y-151741130D01*
X36766666Y-151693511D01*
X36814285Y-151645892D01*
X36861904Y-151550654D01*
X36861904Y-151455416D01*
X36814285Y-151360178D01*
X36766666Y-151312559D01*
X36671428Y-151264940D01*
X36480952Y-151217321D01*
X36385714Y-151169702D01*
X36338095Y-151122083D01*
X36290476Y-151026845D01*
X36290476Y-150931607D01*
X36338095Y-150836369D01*
X36385714Y-150788750D01*
X36480952Y-150741130D01*
X36719047Y-150741130D01*
X36861904Y-150788750D01*
X37195238Y-150741130D02*
X37433333Y-151741130D01*
X37623809Y-151026845D01*
X37814285Y-151741130D01*
X38052380Y-150741130D01*
X38861904Y-151074464D02*
X38861904Y-151741130D01*
X38623809Y-150693511D02*
X38385714Y-151407797D01*
X39004761Y-151407797D01*
X39290476Y-150741130D02*
X39909523Y-150741130D01*
X39576190Y-151122083D01*
X39719047Y-151122083D01*
X39814285Y-151169702D01*
X39861904Y-151217321D01*
X39909523Y-151312559D01*
X39909523Y-151550654D01*
X39861904Y-151645892D01*
X39814285Y-151693511D01*
X39719047Y-151741130D01*
X39433333Y-151741130D01*
X39338095Y-151693511D01*
X39290476Y-151645892D01*
%TO.C,D1*%
X38576250Y-87344250D02*
X38576250Y-88868250D01*
X38195250Y-88868250D02*
X38195250Y-87344250D01*
X43021250Y-87344250D02*
X42513250Y-87344250D01*
X38703250Y-87344250D02*
X38703250Y-88868250D01*
X37941250Y-87344250D02*
X37941250Y-88868250D01*
X43021250Y-87344250D02*
X37941250Y-87344250D01*
X38449250Y-88868250D02*
X38449250Y-87344250D01*
X37941250Y-88868250D02*
X43021250Y-88868250D01*
X43021250Y-88868250D02*
X43021250Y-87344250D01*
X38068250Y-87344250D02*
X38068250Y-88868250D01*
X38322250Y-87344250D02*
X38322250Y-88868250D01*
%TO.C,D2*%
X38576250Y-106394250D02*
X38576250Y-107918250D01*
X43021250Y-106394250D02*
X37941250Y-106394250D01*
X38195250Y-107918250D02*
X38195250Y-106394250D01*
X43021250Y-106394250D02*
X42513250Y-106394250D01*
X37941250Y-106394250D02*
X37941250Y-107918250D01*
X38068250Y-106394250D02*
X38068250Y-107918250D01*
X38322250Y-106394250D02*
X38322250Y-107918250D01*
X43021250Y-107918250D02*
X43021250Y-106394250D01*
X38703250Y-106394250D02*
X38703250Y-107918250D01*
X38449250Y-107918250D02*
X38449250Y-106394250D01*
X37941250Y-107918250D02*
X43021250Y-107918250D01*
%TO.C,D3*%
X38576250Y-125444250D02*
X38576250Y-126968250D01*
X43021250Y-125444250D02*
X37941250Y-125444250D01*
X38322250Y-125444250D02*
X38322250Y-126968250D01*
X38703250Y-125444250D02*
X38703250Y-126968250D01*
X38068250Y-125444250D02*
X38068250Y-126968250D01*
X38195250Y-126968250D02*
X38195250Y-125444250D01*
X43021250Y-126968250D02*
X43021250Y-125444250D01*
X38449250Y-126968250D02*
X38449250Y-125444250D01*
X37941250Y-126968250D02*
X43021250Y-126968250D01*
X37941250Y-125444250D02*
X37941250Y-126968250D01*
X43021250Y-125444250D02*
X42513250Y-125444250D01*
%TO.C,D4*%
X43021250Y-146018250D02*
X43021250Y-144494250D01*
X43021250Y-144494250D02*
X37941250Y-144494250D01*
X38322250Y-144494250D02*
X38322250Y-146018250D01*
X38703250Y-144494250D02*
X38703250Y-146018250D01*
X37941250Y-144494250D02*
X37941250Y-146018250D01*
X38195250Y-146018250D02*
X38195250Y-144494250D01*
X38449250Y-146018250D02*
X38449250Y-144494250D01*
X38068250Y-144494250D02*
X38068250Y-146018250D01*
X37941250Y-146018250D02*
X43021250Y-146018250D01*
X38576250Y-144494250D02*
X38576250Y-146018250D01*
X43021250Y-144494250D02*
X42513250Y-144494250D01*
%TO.C,D6*%
X60134500Y-106394250D02*
X60134500Y-107918250D01*
X59880500Y-107918250D02*
X59880500Y-106394250D01*
X59499500Y-106394250D02*
X59499500Y-107918250D01*
X64452500Y-106394250D02*
X59372500Y-106394250D01*
X64452500Y-107918250D02*
X64452500Y-106394250D01*
X59626500Y-107918250D02*
X59626500Y-106394250D01*
X59372500Y-107918250D02*
X64452500Y-107918250D01*
X59753500Y-106394250D02*
X59753500Y-107918250D01*
X60007500Y-106394250D02*
X60007500Y-107918250D01*
X59372500Y-106394250D02*
X59372500Y-107918250D01*
X64452500Y-106394250D02*
X63944500Y-106394250D01*
%TO.C,D7*%
X64452500Y-126968250D02*
X64452500Y-125444250D01*
X59499500Y-125444250D02*
X59499500Y-126968250D01*
X59626500Y-126968250D02*
X59626500Y-125444250D01*
X60134500Y-125444250D02*
X60134500Y-126968250D01*
X59880500Y-126968250D02*
X59880500Y-125444250D01*
X59372500Y-126968250D02*
X64452500Y-126968250D01*
X64452500Y-125444250D02*
X59372500Y-125444250D01*
X60007500Y-125444250D02*
X60007500Y-126968250D01*
X59753500Y-125444250D02*
X59753500Y-126968250D01*
X59372500Y-125444250D02*
X59372500Y-126968250D01*
X64452500Y-125444250D02*
X63944500Y-125444250D01*
%TO.C,D8*%
X60007500Y-144494250D02*
X60007500Y-146018250D01*
X59753500Y-144494250D02*
X59753500Y-146018250D01*
X59372500Y-146018250D02*
X64452500Y-146018250D01*
X59499500Y-144494250D02*
X59499500Y-146018250D01*
X59626500Y-146018250D02*
X59626500Y-144494250D01*
X64452500Y-144494250D02*
X63944500Y-144494250D01*
X60134500Y-144494250D02*
X60134500Y-146018250D01*
X64452500Y-144494250D02*
X59372500Y-144494250D01*
X59880500Y-146018250D02*
X59880500Y-144494250D01*
X59372500Y-144494250D02*
X59372500Y-146018250D01*
X64452500Y-146018250D02*
X64452500Y-144494250D01*
%TO.C,D9*%
X78422500Y-79343250D02*
X83502500Y-79343250D01*
X78422500Y-77819250D02*
X78422500Y-79343250D01*
X78676500Y-79343250D02*
X78676500Y-77819250D01*
X83502500Y-77819250D02*
X82994500Y-77819250D01*
X78549500Y-77819250D02*
X78549500Y-79343250D01*
X79184500Y-77819250D02*
X79184500Y-79343250D01*
X79057500Y-77819250D02*
X79057500Y-79343250D01*
X78803500Y-77819250D02*
X78803500Y-79343250D01*
X83502500Y-79343250D02*
X83502500Y-77819250D01*
X78930500Y-79343250D02*
X78930500Y-77819250D01*
X83502500Y-77819250D02*
X78422500Y-77819250D01*
%TO.C,D10*%
X78930500Y-98393250D02*
X78930500Y-96869250D01*
X83502500Y-98393250D02*
X83502500Y-96869250D01*
X78422500Y-98393250D02*
X83502500Y-98393250D01*
X78422500Y-96869250D02*
X78422500Y-98393250D01*
X83502500Y-96869250D02*
X78422500Y-96869250D01*
X78803500Y-96869250D02*
X78803500Y-98393250D01*
X79184500Y-96869250D02*
X79184500Y-98393250D01*
X79057500Y-96869250D02*
X79057500Y-98393250D01*
X78676500Y-98393250D02*
X78676500Y-96869250D01*
X78549500Y-96869250D02*
X78549500Y-98393250D01*
X83502500Y-96869250D02*
X82994500Y-96869250D01*
%TO.C,D11*%
X79057500Y-115919250D02*
X79057500Y-117443250D01*
X78422500Y-115919250D02*
X78422500Y-117443250D01*
X79184500Y-115919250D02*
X79184500Y-117443250D01*
X78676500Y-117443250D02*
X78676500Y-115919250D01*
X83502500Y-115919250D02*
X82994500Y-115919250D01*
X78930500Y-117443250D02*
X78930500Y-115919250D01*
X78549500Y-115919250D02*
X78549500Y-117443250D01*
X78422500Y-117443250D02*
X83502500Y-117443250D01*
X83502500Y-115919250D02*
X78422500Y-115919250D01*
X78803500Y-115919250D02*
X78803500Y-117443250D01*
X83502500Y-117443250D02*
X83502500Y-115919250D01*
%TO.C,D12*%
X79057500Y-134969250D02*
X79057500Y-136493250D01*
X83502500Y-136493250D02*
X83502500Y-134969250D01*
X83502500Y-134969250D02*
X78422500Y-134969250D01*
X78422500Y-134969250D02*
X78422500Y-136493250D01*
X78803500Y-134969250D02*
X78803500Y-136493250D01*
X83502500Y-134969250D02*
X82994500Y-134969250D01*
X78422500Y-136493250D02*
X83502500Y-136493250D01*
X78676500Y-136493250D02*
X78676500Y-134969250D01*
X78549500Y-134969250D02*
X78549500Y-136493250D01*
X78930500Y-136493250D02*
X78930500Y-134969250D01*
X79184500Y-134969250D02*
X79184500Y-136493250D01*
%TO.C,D14*%
X98234500Y-73056750D02*
X98234500Y-74580750D01*
X97472500Y-74580750D02*
X102552500Y-74580750D01*
X97726500Y-74580750D02*
X97726500Y-73056750D01*
X102552500Y-73056750D02*
X97472500Y-73056750D01*
X97980500Y-74580750D02*
X97980500Y-73056750D01*
X97599500Y-73056750D02*
X97599500Y-74580750D01*
X102552500Y-74580750D02*
X102552500Y-73056750D01*
X102552500Y-73056750D02*
X102044500Y-73056750D01*
X97472500Y-73056750D02*
X97472500Y-74580750D01*
X98107500Y-73056750D02*
X98107500Y-74580750D01*
X97853500Y-73056750D02*
X97853500Y-74580750D01*
%TO.C,D15*%
X98107500Y-92106750D02*
X98107500Y-93630750D01*
X102552500Y-92106750D02*
X102044500Y-92106750D01*
X102552500Y-92106750D02*
X97472500Y-92106750D01*
X97472500Y-92106750D02*
X97472500Y-93630750D01*
X97599500Y-92106750D02*
X97599500Y-93630750D01*
X98234500Y-92106750D02*
X98234500Y-93630750D01*
X102552500Y-93630750D02*
X102552500Y-92106750D01*
X97726500Y-93630750D02*
X97726500Y-92106750D01*
X97472500Y-93630750D02*
X102552500Y-93630750D01*
X97853500Y-92106750D02*
X97853500Y-93630750D01*
X97980500Y-93630750D02*
X97980500Y-92106750D01*
%TO.C,D16*%
X102552500Y-111156750D02*
X97472500Y-111156750D01*
X102552500Y-112680750D02*
X102552500Y-111156750D01*
X97980500Y-112680750D02*
X97980500Y-111156750D01*
X98107500Y-111156750D02*
X98107500Y-112680750D01*
X97726500Y-112680750D02*
X97726500Y-111156750D01*
X97853500Y-111156750D02*
X97853500Y-112680750D01*
X97472500Y-111156750D02*
X97472500Y-112680750D01*
X102552500Y-111156750D02*
X102044500Y-111156750D01*
X97599500Y-111156750D02*
X97599500Y-112680750D01*
X97472500Y-112680750D02*
X102552500Y-112680750D01*
X98234500Y-111156750D02*
X98234500Y-112680750D01*
%TO.C,D17*%
X97726500Y-131730750D02*
X97726500Y-130206750D01*
X97472500Y-131730750D02*
X102552500Y-131730750D01*
X97980500Y-131730750D02*
X97980500Y-130206750D01*
X97599500Y-130206750D02*
X97599500Y-131730750D01*
X102552500Y-130206750D02*
X102044500Y-130206750D01*
X97853500Y-130206750D02*
X97853500Y-131730750D01*
X102552500Y-131730750D02*
X102552500Y-130206750D01*
X98234500Y-130206750D02*
X98234500Y-131730750D01*
X98107500Y-130206750D02*
X98107500Y-131730750D01*
X97472500Y-130206750D02*
X97472500Y-131730750D01*
X102552500Y-130206750D02*
X97472500Y-130206750D01*
%TO.C,D18*%
X97853500Y-149256750D02*
X97853500Y-150780750D01*
X97726500Y-150780750D02*
X97726500Y-149256750D01*
X98234500Y-149256750D02*
X98234500Y-150780750D01*
X98107500Y-149256750D02*
X98107500Y-150780750D01*
X102552500Y-149256750D02*
X97472500Y-149256750D01*
X97980500Y-150780750D02*
X97980500Y-149256750D01*
X102552500Y-149256750D02*
X102044500Y-149256750D01*
X97472500Y-149256750D02*
X97472500Y-150780750D01*
X97599500Y-149256750D02*
X97599500Y-150780750D01*
X102552500Y-150780750D02*
X102552500Y-149256750D01*
X97472500Y-150780750D02*
X102552500Y-150780750D01*
%TO.C,D19*%
X117030500Y-79343250D02*
X117030500Y-77819250D01*
X116522500Y-77819250D02*
X116522500Y-79343250D01*
X116776500Y-79343250D02*
X116776500Y-77819250D01*
X117284500Y-77819250D02*
X117284500Y-79343250D01*
X121602500Y-77819250D02*
X116522500Y-77819250D01*
X116649500Y-77819250D02*
X116649500Y-79343250D01*
X116903500Y-77819250D02*
X116903500Y-79343250D01*
X121602500Y-77819250D02*
X121094500Y-77819250D01*
X116522500Y-79343250D02*
X121602500Y-79343250D01*
X117157500Y-77819250D02*
X117157500Y-79343250D01*
X121602500Y-79343250D02*
X121602500Y-77819250D01*
%TO.C,D20*%
X116649500Y-96869250D02*
X116649500Y-98393250D01*
X116776500Y-98393250D02*
X116776500Y-96869250D01*
X121602500Y-98393250D02*
X121602500Y-96869250D01*
X116522500Y-98393250D02*
X121602500Y-98393250D01*
X117157500Y-96869250D02*
X117157500Y-98393250D01*
X116522500Y-96869250D02*
X116522500Y-98393250D01*
X117030500Y-98393250D02*
X117030500Y-96869250D01*
X121602500Y-96869250D02*
X121094500Y-96869250D01*
X121602500Y-96869250D02*
X116522500Y-96869250D01*
X116903500Y-96869250D02*
X116903500Y-98393250D01*
X117284500Y-96869250D02*
X117284500Y-98393250D01*
%TO.C,D21*%
X116522500Y-117443250D02*
X121602500Y-117443250D01*
X121602500Y-117443250D02*
X121602500Y-115919250D01*
X116649500Y-115919250D02*
X116649500Y-117443250D01*
X116903500Y-115919250D02*
X116903500Y-117443250D01*
X121602500Y-115919250D02*
X121094500Y-115919250D01*
X117284500Y-115919250D02*
X117284500Y-117443250D01*
X116522500Y-115919250D02*
X116522500Y-117443250D01*
X121602500Y-115919250D02*
X116522500Y-115919250D01*
X116776500Y-117443250D02*
X116776500Y-115919250D01*
X117157500Y-115919250D02*
X117157500Y-117443250D01*
X117030500Y-117443250D02*
X117030500Y-115919250D01*
%TO.C,D22*%
X121602500Y-134969250D02*
X116522500Y-134969250D01*
X116903500Y-134969250D02*
X116903500Y-136493250D01*
X121602500Y-136493250D02*
X121602500Y-134969250D01*
X116776500Y-136493250D02*
X116776500Y-134969250D01*
X116522500Y-136493250D02*
X121602500Y-136493250D01*
X117030500Y-136493250D02*
X117030500Y-134969250D01*
X116522500Y-134969250D02*
X116522500Y-136493250D01*
X116649500Y-134969250D02*
X116649500Y-136493250D01*
X117157500Y-134969250D02*
X117157500Y-136493250D01*
X121602500Y-134969250D02*
X121094500Y-134969250D01*
X117284500Y-134969250D02*
X117284500Y-136493250D01*
%TO.C,D23*%
X116522500Y-154019250D02*
X116522500Y-155543250D01*
X117157500Y-154019250D02*
X117157500Y-155543250D01*
X116776500Y-155543250D02*
X116776500Y-154019250D01*
X116522500Y-155543250D02*
X121602500Y-155543250D01*
X116903500Y-154019250D02*
X116903500Y-155543250D01*
X116649500Y-154019250D02*
X116649500Y-155543250D01*
X121602500Y-155543250D02*
X121602500Y-154019250D01*
X121602500Y-154019250D02*
X121094500Y-154019250D01*
X117284500Y-154019250D02*
X117284500Y-155543250D01*
X121602500Y-154019250D02*
X116522500Y-154019250D01*
X117030500Y-155543250D02*
X117030500Y-154019250D01*
%TO.C,D24*%
X140652500Y-82581750D02*
X140144500Y-82581750D01*
X140652500Y-82581750D02*
X135572500Y-82581750D01*
X135826500Y-84105750D02*
X135826500Y-82581750D01*
X136207500Y-82581750D02*
X136207500Y-84105750D01*
X140652500Y-84105750D02*
X140652500Y-82581750D01*
X135572500Y-82581750D02*
X135572500Y-84105750D01*
X135699500Y-82581750D02*
X135699500Y-84105750D01*
X136080500Y-84105750D02*
X136080500Y-82581750D01*
X135572500Y-84105750D02*
X140652500Y-84105750D01*
X136334500Y-82581750D02*
X136334500Y-84105750D01*
X135953500Y-82581750D02*
X135953500Y-84105750D01*
%TO.C,D25*%
X140652500Y-101631750D02*
X140144500Y-101631750D01*
X136334500Y-101631750D02*
X136334500Y-103155750D01*
X140652500Y-101631750D02*
X135572500Y-101631750D01*
X135572500Y-103155750D02*
X140652500Y-103155750D01*
X136080500Y-103155750D02*
X136080500Y-101631750D01*
X135953500Y-101631750D02*
X135953500Y-103155750D01*
X136207500Y-101631750D02*
X136207500Y-103155750D01*
X135826500Y-103155750D02*
X135826500Y-101631750D01*
X135572500Y-101631750D02*
X135572500Y-103155750D01*
X135699500Y-101631750D02*
X135699500Y-103155750D01*
X140652500Y-103155750D02*
X140652500Y-101631750D01*
%TO.C,D26*%
X135699500Y-120681750D02*
X135699500Y-122205750D01*
X140652500Y-120681750D02*
X140144500Y-120681750D01*
X140652500Y-122205750D02*
X140652500Y-120681750D01*
X136207500Y-120681750D02*
X136207500Y-122205750D01*
X135953500Y-120681750D02*
X135953500Y-122205750D01*
X135572500Y-122205750D02*
X140652500Y-122205750D01*
X136080500Y-122205750D02*
X136080500Y-120681750D01*
X135572500Y-120681750D02*
X135572500Y-122205750D01*
X140652500Y-120681750D02*
X135572500Y-120681750D01*
X136334500Y-120681750D02*
X136334500Y-122205750D01*
X135826500Y-122205750D02*
X135826500Y-120681750D01*
%TO.C,D27*%
X135572500Y-141255750D02*
X140652500Y-141255750D01*
X140652500Y-141255750D02*
X140652500Y-139731750D01*
X136207500Y-139731750D02*
X136207500Y-141255750D01*
X140652500Y-139731750D02*
X140144500Y-139731750D01*
X135699500Y-139731750D02*
X135699500Y-141255750D01*
X136080500Y-141255750D02*
X136080500Y-139731750D01*
X135953500Y-139731750D02*
X135953500Y-141255750D01*
X135826500Y-141255750D02*
X135826500Y-139731750D01*
X135572500Y-139731750D02*
X135572500Y-141255750D01*
X140652500Y-139731750D02*
X135572500Y-139731750D01*
X136334500Y-139731750D02*
X136334500Y-141255750D01*
%TO.C,D28*%
X140945049Y-161072818D02*
X140628191Y-162563515D01*
X140503966Y-162537110D02*
X140820824Y-161046413D01*
X140448150Y-160967199D02*
X140131292Y-162457896D01*
X144976057Y-163487682D02*
X145292915Y-161996985D01*
X140323925Y-160940794D02*
X140007067Y-162431491D01*
X141069273Y-161099223D02*
X140752416Y-162589919D01*
X140255517Y-162484300D02*
X140572374Y-160993603D01*
X140007067Y-162431491D02*
X144976057Y-163487682D01*
X145292915Y-161996985D02*
X140323925Y-160940794D01*
X145292915Y-161996985D02*
X144796016Y-161891366D01*
X140696599Y-161020008D02*
X140379742Y-162510705D01*
%TO.C,D29*%
X159790000Y-82462000D02*
X159790000Y-80938000D01*
X159790000Y-80938000D02*
X154710000Y-80938000D01*
X159790000Y-80938000D02*
X159282000Y-80938000D01*
X154710000Y-80938000D02*
X154710000Y-82462000D01*
X154837000Y-80938000D02*
X154837000Y-82462000D01*
X155345000Y-80938000D02*
X155345000Y-82462000D01*
X155218000Y-82462000D02*
X155218000Y-80938000D01*
X155091000Y-80938000D02*
X155091000Y-82462000D01*
X154710000Y-82462000D02*
X159790000Y-82462000D01*
X155472000Y-80938000D02*
X155472000Y-82462000D01*
X154964000Y-82462000D02*
X154964000Y-80938000D01*
%TO.C,D30*%
X159702500Y-106394250D02*
X159194500Y-106394250D01*
X154622500Y-107918250D02*
X159702500Y-107918250D01*
X155003500Y-106394250D02*
X155003500Y-107918250D01*
X154622500Y-106394250D02*
X154622500Y-107918250D01*
X159702500Y-107918250D02*
X159702500Y-106394250D01*
X155257500Y-106394250D02*
X155257500Y-107918250D01*
X154749500Y-106394250D02*
X154749500Y-107918250D01*
X154876500Y-107918250D02*
X154876500Y-106394250D01*
X155130500Y-107918250D02*
X155130500Y-106394250D01*
X155384500Y-106394250D02*
X155384500Y-107918250D01*
X159702500Y-106394250D02*
X154622500Y-106394250D01*
%TO.C,D31*%
X59372500Y-163544250D02*
X59372500Y-165068250D01*
X64452500Y-163544250D02*
X63944500Y-163544250D01*
X64452500Y-165068250D02*
X64452500Y-163544250D01*
X59372500Y-165068250D02*
X64452500Y-165068250D01*
X59880500Y-165068250D02*
X59880500Y-163544250D01*
X60007500Y-163544250D02*
X60007500Y-165068250D01*
X59626500Y-165068250D02*
X59626500Y-163544250D01*
X59499500Y-163544250D02*
X59499500Y-165068250D01*
X60134500Y-163544250D02*
X60134500Y-165068250D01*
X64452500Y-163544250D02*
X59372500Y-163544250D01*
X59753500Y-163544250D02*
X59753500Y-165068250D01*
%TO.C,D32*%
X159702500Y-139731750D02*
X159194500Y-139731750D01*
X155003500Y-139731750D02*
X155003500Y-141255750D01*
X154876500Y-141255750D02*
X154876500Y-139731750D01*
X159702500Y-139731750D02*
X154622500Y-139731750D01*
X154622500Y-141255750D02*
X159702500Y-141255750D01*
X155257500Y-139731750D02*
X155257500Y-141255750D01*
X155384500Y-139731750D02*
X155384500Y-141255750D01*
X155130500Y-141255750D02*
X155130500Y-139731750D01*
X154622500Y-139731750D02*
X154622500Y-141255750D01*
X154749500Y-139731750D02*
X154749500Y-141255750D01*
X159702500Y-141255750D02*
X159702500Y-139731750D01*
%TO.C,D33*%
X164599505Y-167795837D02*
X163977209Y-169186996D01*
X163861279Y-169135138D02*
X164483575Y-167743979D01*
X168888913Y-169714582D02*
X168425193Y-169507150D01*
X164093139Y-169238854D02*
X164715435Y-167847695D01*
X164251715Y-167640263D02*
X163629419Y-169031422D01*
X168266617Y-171105741D02*
X168888913Y-169714582D01*
X164947295Y-167951411D02*
X164324999Y-169342570D01*
X164831365Y-167899553D02*
X164209069Y-169290712D01*
X168888913Y-169714582D02*
X164251715Y-167640263D01*
X163629419Y-169031422D02*
X168266617Y-171105741D01*
X164367645Y-167692121D02*
X163745349Y-169083280D01*
%TO.C,D34*%
X166317261Y-152907451D02*
X167708420Y-153529747D01*
X169782739Y-148892549D02*
X168391580Y-148270253D01*
X166472835Y-152559661D02*
X167863994Y-153181957D01*
X168391580Y-148270253D02*
X166317261Y-152907451D01*
X168391580Y-148270253D02*
X168184148Y-148733973D01*
X167708420Y-153529747D02*
X169782739Y-148892549D01*
X166628409Y-152211871D02*
X168019568Y-152834167D01*
X166369119Y-152791521D02*
X167760278Y-153413817D01*
X166576551Y-152327801D02*
X167967710Y-152950097D01*
X167812136Y-153297887D02*
X166420977Y-152675591D01*
X167915852Y-153066027D02*
X166524693Y-152443731D01*
D11*
%TO.C,J1*%
X144000000Y-75850000D02*
X151300000Y-75850000D01*
X151300000Y-66650000D02*
X144000000Y-66650000D01*
X144000000Y-66650000D02*
X144000000Y-75850000D01*
X151300000Y-75850000D02*
X151300000Y-66650000D01*
D12*
%TO.C,J2*%
X146245000Y-86895000D02*
X146245000Y-89555000D01*
X146245000Y-86895000D02*
X136025000Y-86895000D01*
X148845000Y-86895000D02*
X148845000Y-88225000D01*
X136025000Y-86895000D02*
X136025000Y-89555000D01*
X147515000Y-86895000D02*
X148845000Y-86895000D01*
X146245000Y-89555000D02*
X136025000Y-89555000D01*
D10*
%TO.C,P1*%
X127575000Y-87200000D02*
X127575000Y-89200000D01*
X129575000Y-89200000D02*
X129575000Y-87200000D01*
X127575000Y-89200000D02*
X129575000Y-89200000D01*
X129575000Y-87200000D02*
X127575000Y-87200000D01*
%TO.C,P2*%
X127575000Y-91425000D02*
X129575000Y-91425000D01*
X127575000Y-89425000D02*
X127575000Y-91425000D01*
X129575000Y-91425000D02*
X129575000Y-89425000D01*
X129575000Y-89425000D02*
X127575000Y-89425000D01*
%TO.C,SW1*%
X31100000Y-77343750D02*
X31100000Y-76343750D01*
X32100000Y-90343750D02*
X31100000Y-90343750D01*
X31100000Y-76343750D02*
X32100000Y-76343750D01*
X44100000Y-76343750D02*
X45100000Y-76343750D01*
X45100000Y-90343750D02*
X44100000Y-90343750D01*
X31100000Y-90343750D02*
X31100000Y-89343750D01*
X45100000Y-89343750D02*
X45100000Y-90343750D01*
X45100000Y-76343750D02*
X45100000Y-77343750D01*
%TO.C,SW2*%
X32100000Y-109393750D02*
X31100000Y-109393750D01*
X45100000Y-109393750D02*
X44100000Y-109393750D01*
X44100000Y-95393750D02*
X45100000Y-95393750D01*
X31100000Y-96393750D02*
X31100000Y-95393750D01*
X45100000Y-95393750D02*
X45100000Y-96393750D01*
X31100000Y-95393750D02*
X32100000Y-95393750D01*
X45100000Y-108393750D02*
X45100000Y-109393750D01*
X31100000Y-109393750D02*
X31100000Y-108393750D01*
%TO.C,SW4*%
X44100000Y-133493750D02*
X45100000Y-133493750D01*
X31100000Y-133493750D02*
X32100000Y-133493750D01*
X45100000Y-133493750D02*
X45100000Y-134493750D01*
X45100000Y-146493750D02*
X45100000Y-147493750D01*
X45100000Y-147493750D02*
X44100000Y-147493750D01*
X31100000Y-147493750D02*
X31100000Y-146493750D01*
X31100000Y-134493750D02*
X31100000Y-133493750D01*
X32100000Y-147493750D02*
X31100000Y-147493750D01*
%TO.C,SW6*%
X48862500Y-95393750D02*
X49862500Y-95393750D01*
X35862500Y-95393750D02*
X36862500Y-95393750D01*
X35862500Y-109393750D02*
X35862500Y-108393750D01*
X35862500Y-96393750D02*
X35862500Y-95393750D01*
X49862500Y-95393750D02*
X49862500Y-96393750D01*
X36862500Y-109393750D02*
X35862500Y-109393750D01*
X49862500Y-109393750D02*
X48862500Y-109393750D01*
X49862500Y-108393750D02*
X49862500Y-109393750D01*
%TO.C,SW8*%
X49862500Y-146493750D02*
X49862500Y-147493750D01*
X35862500Y-133493750D02*
X36862500Y-133493750D01*
X48862500Y-133493750D02*
X49862500Y-133493750D01*
X49862500Y-147493750D02*
X48862500Y-147493750D01*
X36862500Y-147493750D02*
X35862500Y-147493750D01*
X49862500Y-133493750D02*
X49862500Y-134493750D01*
X35862500Y-147493750D02*
X35862500Y-146493750D01*
X35862500Y-134493750D02*
X35862500Y-133493750D01*
%TO.C,SW10*%
X68912500Y-109393750D02*
X67912500Y-109393750D01*
X68912500Y-108393750D02*
X68912500Y-109393750D01*
X68912500Y-95393750D02*
X68912500Y-96393750D01*
X54912500Y-95393750D02*
X55912500Y-95393750D01*
X67912500Y-95393750D02*
X68912500Y-95393750D01*
X54912500Y-109393750D02*
X54912500Y-108393750D01*
X54912500Y-96393750D02*
X54912500Y-95393750D01*
X55912500Y-109393750D02*
X54912500Y-109393750D01*
%TO.C,SW11*%
X68912500Y-114443750D02*
X68912500Y-115443750D01*
X68912500Y-128443750D02*
X67912500Y-128443750D01*
X55912500Y-128443750D02*
X54912500Y-128443750D01*
X68912500Y-127443750D02*
X68912500Y-128443750D01*
X67912500Y-114443750D02*
X68912500Y-114443750D01*
X54912500Y-128443750D02*
X54912500Y-127443750D01*
X54912500Y-114443750D02*
X55912500Y-114443750D01*
X54912500Y-115443750D02*
X54912500Y-114443750D01*
%TO.C,SW12*%
X68912500Y-146493750D02*
X68912500Y-147493750D01*
X67912500Y-133493750D02*
X68912500Y-133493750D01*
X54912500Y-133493750D02*
X55912500Y-133493750D01*
X54912500Y-147493750D02*
X54912500Y-146493750D01*
X68912500Y-133493750D02*
X68912500Y-134493750D01*
X54912500Y-134493750D02*
X54912500Y-133493750D01*
X68912500Y-147493750D02*
X67912500Y-147493750D01*
X55912500Y-147493750D02*
X54912500Y-147493750D01*
%TO.C,SW14*%
X87962500Y-85868750D02*
X87962500Y-86868750D01*
X87962500Y-99868750D02*
X86962500Y-99868750D01*
X86962500Y-85868750D02*
X87962500Y-85868750D01*
X73962500Y-85868750D02*
X74962500Y-85868750D01*
X73962500Y-86868750D02*
X73962500Y-85868750D01*
X73962500Y-99868750D02*
X73962500Y-98868750D01*
X74962500Y-99868750D02*
X73962500Y-99868750D01*
X87962500Y-98868750D02*
X87962500Y-99868750D01*
%TO.C,SW15*%
X74962500Y-118918750D02*
X73962500Y-118918750D01*
X87962500Y-104918750D02*
X87962500Y-105918750D01*
X73962500Y-118918750D02*
X73962500Y-117918750D01*
X87962500Y-118918750D02*
X86962500Y-118918750D01*
X87962500Y-117918750D02*
X87962500Y-118918750D01*
X73962500Y-105918750D02*
X73962500Y-104918750D01*
X86962500Y-104918750D02*
X87962500Y-104918750D01*
X73962500Y-104918750D02*
X74962500Y-104918750D01*
%TO.C,SW16*%
X73962500Y-124968750D02*
X73962500Y-123968750D01*
X73962500Y-137968750D02*
X73962500Y-136968750D01*
X86962500Y-123968750D02*
X87962500Y-123968750D01*
X73962500Y-123968750D02*
X74962500Y-123968750D01*
X87962500Y-136968750D02*
X87962500Y-137968750D01*
X74962500Y-137968750D02*
X73962500Y-137968750D01*
X87962500Y-123968750D02*
X87962500Y-124968750D01*
X87962500Y-137968750D02*
X86962500Y-137968750D01*
%TO.C,SW19*%
X93012500Y-95106250D02*
X93012500Y-94106250D01*
X107012500Y-81106250D02*
X107012500Y-82106250D01*
X93012500Y-81106250D02*
X94012500Y-81106250D01*
X94012500Y-95106250D02*
X93012500Y-95106250D01*
X106012500Y-81106250D02*
X107012500Y-81106250D01*
X107012500Y-95106250D02*
X106012500Y-95106250D01*
X107012500Y-94106250D02*
X107012500Y-95106250D01*
X93012500Y-82106250D02*
X93012500Y-81106250D01*
%TO.C,SW20*%
X93012500Y-101156250D02*
X93012500Y-100156250D01*
X107012500Y-113156250D02*
X107012500Y-114156250D01*
X107012500Y-114156250D02*
X106012500Y-114156250D01*
X107012500Y-100156250D02*
X107012500Y-101156250D01*
X93012500Y-114156250D02*
X93012500Y-113156250D01*
X106012500Y-100156250D02*
X107012500Y-100156250D01*
X94012500Y-114156250D02*
X93012500Y-114156250D01*
X93012500Y-100156250D02*
X94012500Y-100156250D01*
%TO.C,SW22*%
X93012500Y-139256250D02*
X93012500Y-138256250D01*
X93012500Y-152256250D02*
X93012500Y-151256250D01*
X107012500Y-138256250D02*
X107012500Y-139256250D01*
X94012500Y-152256250D02*
X93012500Y-152256250D01*
X107012500Y-152256250D02*
X106012500Y-152256250D01*
X106012500Y-138256250D02*
X107012500Y-138256250D01*
X93012500Y-138256250D02*
X94012500Y-138256250D01*
X107012500Y-151256250D02*
X107012500Y-152256250D01*
%TO.C,SW23*%
X112062500Y-67818750D02*
X112062500Y-66818750D01*
X125062500Y-66818750D02*
X126062500Y-66818750D01*
X126062500Y-66818750D02*
X126062500Y-67818750D01*
X126062500Y-80818750D02*
X125062500Y-80818750D01*
X113062500Y-80818750D02*
X112062500Y-80818750D01*
X126062500Y-79818750D02*
X126062500Y-80818750D01*
X112062500Y-80818750D02*
X112062500Y-79818750D01*
X112062500Y-66818750D02*
X113062500Y-66818750D01*
%TO.C,SW24*%
X126062500Y-99868750D02*
X125062500Y-99868750D01*
X126062500Y-98868750D02*
X126062500Y-99868750D01*
X126062500Y-85868750D02*
X126062500Y-86868750D01*
X113062500Y-99868750D02*
X112062500Y-99868750D01*
X112062500Y-85868750D02*
X113062500Y-85868750D01*
X112062500Y-99868750D02*
X112062500Y-98868750D01*
X125062500Y-85868750D02*
X126062500Y-85868750D01*
X112062500Y-86868750D02*
X112062500Y-85868750D01*
%TO.C,SW25*%
X126062500Y-118918750D02*
X125062500Y-118918750D01*
X112062500Y-105918750D02*
X112062500Y-104918750D01*
X112062500Y-104918750D02*
X113062500Y-104918750D01*
X112062500Y-118918750D02*
X112062500Y-117918750D01*
X113062500Y-118918750D02*
X112062500Y-118918750D01*
X126062500Y-117918750D02*
X126062500Y-118918750D01*
X126062500Y-104918750D02*
X126062500Y-105918750D01*
X125062500Y-104918750D02*
X126062500Y-104918750D01*
%TO.C,SW26*%
X112062500Y-124968750D02*
X112062500Y-123968750D01*
X126062500Y-136968750D02*
X126062500Y-137968750D01*
X112062500Y-137968750D02*
X112062500Y-136968750D01*
X125062500Y-123968750D02*
X126062500Y-123968750D01*
X113062500Y-137968750D02*
X112062500Y-137968750D01*
X112062500Y-123968750D02*
X113062500Y-123968750D01*
X126062500Y-123968750D02*
X126062500Y-124968750D01*
X126062500Y-137968750D02*
X125062500Y-137968750D01*
%TO.C,SW27*%
X113062500Y-157018750D02*
X112062500Y-157018750D01*
X112062500Y-144018750D02*
X112062500Y-143018750D01*
X126062500Y-157018750D02*
X125062500Y-157018750D01*
X126062500Y-156018750D02*
X126062500Y-157018750D01*
X112062500Y-143018750D02*
X113062500Y-143018750D01*
X125062500Y-143018750D02*
X126062500Y-143018750D01*
X126062500Y-143018750D02*
X126062500Y-144018750D01*
X112062500Y-157018750D02*
X112062500Y-156018750D01*
%TO.C,SW28*%
X145112500Y-71581250D02*
X145112500Y-72581250D01*
X131112500Y-85581250D02*
X131112500Y-84581250D01*
X131112500Y-71581250D02*
X132112500Y-71581250D01*
X145112500Y-84581250D02*
X145112500Y-85581250D01*
X132112500Y-85581250D02*
X131112500Y-85581250D01*
X144112500Y-71581250D02*
X145112500Y-71581250D01*
X145112500Y-85581250D02*
X144112500Y-85581250D01*
X131112500Y-72581250D02*
X131112500Y-71581250D01*
%TO.C,SW29*%
X131112500Y-91631250D02*
X131112500Y-90631250D01*
X131112500Y-90631250D02*
X132112500Y-90631250D01*
X132112500Y-104631250D02*
X131112500Y-104631250D01*
X144112500Y-90631250D02*
X145112500Y-90631250D01*
X145112500Y-103631250D02*
X145112500Y-104631250D01*
X145112500Y-104631250D02*
X144112500Y-104631250D01*
X131112500Y-104631250D02*
X131112500Y-103631250D01*
X145112500Y-90631250D02*
X145112500Y-91631250D01*
%TO.C,SW30*%
X131112500Y-110681250D02*
X131112500Y-109681250D01*
X131112500Y-123681250D02*
X131112500Y-122681250D01*
X145112500Y-123681250D02*
X144112500Y-123681250D01*
X132112500Y-123681250D02*
X131112500Y-123681250D01*
X144112500Y-109681250D02*
X145112500Y-109681250D01*
X145112500Y-109681250D02*
X145112500Y-110681250D01*
X131112500Y-109681250D02*
X132112500Y-109681250D01*
X145112500Y-122681250D02*
X145112500Y-123681250D01*
%TO.C,SW31*%
X132112500Y-142731250D02*
X131112500Y-142731250D01*
X145112500Y-141731250D02*
X145112500Y-142731250D01*
X145112500Y-128731250D02*
X145112500Y-129731250D01*
X144112500Y-128731250D02*
X145112500Y-128731250D01*
X131112500Y-128731250D02*
X132112500Y-128731250D01*
X145112500Y-142731250D02*
X144112500Y-142731250D01*
X131112500Y-129731250D02*
X131112500Y-128731250D01*
X131112500Y-142731250D02*
X131112500Y-141731250D01*
%TO.C,SW33*%
X151162500Y-85581250D02*
X150162500Y-85581250D01*
X164162500Y-84581250D02*
X164162500Y-85581250D01*
X164162500Y-85581250D02*
X163162500Y-85581250D01*
X150162500Y-72581250D02*
X150162500Y-71581250D01*
X164162500Y-71581250D02*
X164162500Y-72581250D01*
X150162500Y-85581250D02*
X150162500Y-84581250D01*
X163162500Y-71581250D02*
X164162500Y-71581250D01*
X150162500Y-71581250D02*
X151162500Y-71581250D01*
%TO.C,SW34*%
X164162500Y-104631250D02*
X163162500Y-104631250D01*
X163162500Y-90631250D02*
X164162500Y-90631250D01*
X150162500Y-90631250D02*
X151162500Y-90631250D01*
X150162500Y-104631250D02*
X150162500Y-103631250D01*
X151162500Y-104631250D02*
X150162500Y-104631250D01*
X164162500Y-103631250D02*
X164162500Y-104631250D01*
X150162500Y-91631250D02*
X150162500Y-90631250D01*
X164162500Y-90631250D02*
X164162500Y-91631250D01*
%TO.C,SW35*%
X68912500Y-166543750D02*
X67912500Y-166543750D01*
X55912500Y-166543750D02*
X54912500Y-166543750D01*
X54912500Y-153543750D02*
X54912500Y-152543750D01*
X68912500Y-152543750D02*
X68912500Y-153543750D01*
X54912500Y-166543750D02*
X54912500Y-165543750D01*
X54912500Y-152543750D02*
X55912500Y-152543750D01*
X68912500Y-165543750D02*
X68912500Y-166543750D01*
X67912500Y-152543750D02*
X68912500Y-152543750D01*
%TO.C,SW36*%
X150162500Y-137968750D02*
X150162500Y-136968750D01*
X164162500Y-136968750D02*
X164162500Y-137968750D01*
X164162500Y-123968750D02*
X164162500Y-124968750D01*
X150162500Y-124968750D02*
X150162500Y-123968750D01*
X151162500Y-137968750D02*
X150162500Y-137968750D01*
X164162500Y-137968750D02*
X163162500Y-137968750D01*
X163162500Y-123968750D02*
X164162500Y-123968750D01*
X150162500Y-123968750D02*
X151162500Y-123968750D01*
%TO.C,SW38*%
X167647217Y-151575994D02*
X166734383Y-151167664D01*
X172451009Y-138387986D02*
X173363843Y-138796316D01*
X172042679Y-139300820D02*
X172451009Y-138387986D01*
X179514061Y-156884290D02*
X178601227Y-156475960D01*
X184317853Y-143696282D02*
X185230687Y-144104612D01*
X166734383Y-151167664D02*
X167142713Y-150254830D01*
X179922391Y-155971456D02*
X179514061Y-156884290D01*
X185230687Y-144104612D02*
X184822357Y-145017446D01*
%TO.C,SW39*%
X150162500Y-109393750D02*
X150162500Y-108393750D01*
X150162500Y-96393750D02*
X150162500Y-95393750D01*
X164162500Y-108393750D02*
X164162500Y-109393750D01*
X151162500Y-109393750D02*
X150162500Y-109393750D01*
X164162500Y-109393750D02*
X163162500Y-109393750D01*
X150162500Y-95393750D02*
X151162500Y-95393750D01*
X164162500Y-95393750D02*
X164162500Y-96393750D01*
X163162500Y-95393750D02*
X164162500Y-95393750D01*
%TO.C,SW40*%
X163162500Y-128731250D02*
X164162500Y-128731250D01*
X150162500Y-128731250D02*
X151162500Y-128731250D01*
X150162500Y-142731250D02*
X150162500Y-141731250D01*
X151162500Y-142731250D02*
X150162500Y-142731250D01*
X164162500Y-142731250D02*
X163162500Y-142731250D01*
X150162500Y-129731250D02*
X150162500Y-128731250D01*
X164162500Y-141731250D02*
X164162500Y-142731250D01*
X164162500Y-128731250D02*
X164162500Y-129731250D01*
%TO.C,SW32*%
X150964438Y-151956247D02*
X151942586Y-152164159D01*
X138040608Y-150231543D02*
X138248520Y-149253395D01*
X136315904Y-163155373D02*
X135337756Y-162947461D01*
X135337756Y-162947461D02*
X135545668Y-161969314D01*
X151942586Y-152164159D02*
X151734674Y-153142306D01*
X138248520Y-149253395D02*
X139226667Y-149461307D01*
X149239734Y-164880077D02*
X149031822Y-165858225D01*
X149031822Y-165858225D02*
X148053675Y-165650313D01*
%TO.C,SW3*%
X31100000Y-115443750D02*
X31100000Y-114443750D01*
X31100000Y-128443750D02*
X31100000Y-127443750D01*
X31100000Y-114443750D02*
X32100000Y-114443750D01*
X32100000Y-128443750D02*
X31100000Y-128443750D01*
X45100000Y-127443750D02*
X45100000Y-128443750D01*
X45100000Y-114443750D02*
X45100000Y-115443750D01*
X45100000Y-128443750D02*
X44100000Y-128443750D01*
X44100000Y-114443750D02*
X45100000Y-114443750D01*
%TO.C,SW13*%
X87962500Y-66818750D02*
X87962500Y-67818750D01*
X73962500Y-80818750D02*
X73962500Y-79818750D01*
X73962500Y-66818750D02*
X74962500Y-66818750D01*
X86962500Y-66818750D02*
X87962500Y-66818750D01*
X73962500Y-67818750D02*
X73962500Y-66818750D01*
X74962500Y-80818750D02*
X73962500Y-80818750D01*
X87962500Y-79818750D02*
X87962500Y-80818750D01*
X87962500Y-80818750D02*
X86962500Y-80818750D01*
%TO.C,SW18*%
X93012500Y-62056250D02*
X94012500Y-62056250D01*
X107012500Y-62056250D02*
X107012500Y-63056250D01*
X93012500Y-76056250D02*
X93012500Y-75056250D01*
X106012500Y-62056250D02*
X107012500Y-62056250D01*
X107012500Y-75056250D02*
X107012500Y-76056250D01*
X93012500Y-63056250D02*
X93012500Y-62056250D01*
X94012500Y-76056250D02*
X93012500Y-76056250D01*
X107012500Y-76056250D02*
X106012500Y-76056250D01*
%TO.C,SW7*%
X49862500Y-127443750D02*
X49862500Y-128443750D01*
X36862500Y-128443750D02*
X35862500Y-128443750D01*
X35862500Y-128443750D02*
X35862500Y-127443750D01*
X49862500Y-114443750D02*
X49862500Y-115443750D01*
X48862500Y-114443750D02*
X49862500Y-114443750D01*
X35862500Y-114443750D02*
X36862500Y-114443750D01*
X49862500Y-128443750D02*
X48862500Y-128443750D01*
X35862500Y-115443750D02*
X35862500Y-114443750D01*
%TO.C,D5*%
X59626500Y-88868250D02*
X59626500Y-87344250D01*
X64452500Y-88868250D02*
X64452500Y-87344250D01*
X64452500Y-87344250D02*
X59372500Y-87344250D01*
X59372500Y-87344250D02*
X59372500Y-88868250D01*
X59880500Y-88868250D02*
X59880500Y-87344250D01*
X59499500Y-87344250D02*
X59499500Y-88868250D01*
X59372500Y-88868250D02*
X64452500Y-88868250D01*
X64452500Y-87344250D02*
X63944500Y-87344250D01*
X60134500Y-87344250D02*
X60134500Y-88868250D01*
X59753500Y-87344250D02*
X59753500Y-88868250D01*
X60007500Y-87344250D02*
X60007500Y-88868250D01*
D13*
%TO.C,U1*%
X129223080Y-104854890D02*
X129223080Y-107394890D01*
X129223080Y-107394890D02*
X129223080Y-137874890D01*
X147003080Y-104854890D02*
X129223080Y-104854890D01*
X131763080Y-109934890D02*
X129223080Y-109934890D01*
X147003080Y-137874890D02*
X147003080Y-107394890D01*
X147003080Y-107394890D02*
X147003080Y-104854890D01*
X131763080Y-107394890D02*
X129223080Y-107394890D01*
X129223080Y-137874890D02*
X147003080Y-137874890D01*
X131763080Y-107394890D02*
X131763080Y-109934890D01*
D10*
X142644648Y-113274250D02*
X142644648Y-114074250D01*
X142644648Y-114074250D02*
X142544648Y-114074250D01*
X142544648Y-114074250D02*
X142544648Y-113274250D01*
X142544648Y-113274250D02*
X142644648Y-113274250D01*
G36*
X142644648Y-114074250D02*
G01*
X142544648Y-114074250D01*
X142544648Y-113274250D01*
X142644648Y-113274250D01*
X142644648Y-114074250D01*
G37*
X142644648Y-114074250D02*
X142544648Y-114074250D01*
X142544648Y-113274250D01*
X142644648Y-113274250D01*
X142644648Y-114074250D01*
X143044648Y-113274250D02*
X143044648Y-113374250D01*
X143044648Y-113374250D02*
X142544648Y-113374250D01*
X142544648Y-113374250D02*
X142544648Y-113274250D01*
X142544648Y-113274250D02*
X143044648Y-113274250D01*
G36*
X143044648Y-113374250D02*
G01*
X142544648Y-113374250D01*
X142544648Y-113274250D01*
X143044648Y-113274250D01*
X143044648Y-113374250D01*
G37*
X143044648Y-113374250D02*
X142544648Y-113374250D01*
X142544648Y-113274250D01*
X143044648Y-113274250D01*
X143044648Y-113374250D01*
X142844648Y-113674250D02*
X142844648Y-113774250D01*
X142844648Y-113774250D02*
X142744648Y-113774250D01*
X142744648Y-113774250D02*
X142744648Y-113674250D01*
X142744648Y-113674250D02*
X142844648Y-113674250D01*
G36*
X142844648Y-113774250D02*
G01*
X142744648Y-113774250D01*
X142744648Y-113674250D01*
X142844648Y-113674250D01*
X142844648Y-113774250D01*
G37*
X142844648Y-113774250D02*
X142744648Y-113774250D01*
X142744648Y-113674250D01*
X142844648Y-113674250D01*
X142844648Y-113774250D01*
X143044648Y-113874250D02*
X143044648Y-114074250D01*
X143044648Y-114074250D02*
X142944648Y-114074250D01*
X142944648Y-114074250D02*
X142944648Y-113874250D01*
X142944648Y-113874250D02*
X143044648Y-113874250D01*
G36*
X143044648Y-114074250D02*
G01*
X142944648Y-114074250D01*
X142944648Y-113874250D01*
X143044648Y-113874250D01*
X143044648Y-114074250D01*
G37*
X143044648Y-114074250D02*
X142944648Y-114074250D01*
X142944648Y-113874250D01*
X143044648Y-113874250D01*
X143044648Y-114074250D01*
X143044648Y-113274250D02*
X143044648Y-113574250D01*
X143044648Y-113574250D02*
X142944648Y-113574250D01*
X142944648Y-113574250D02*
X142944648Y-113274250D01*
X142944648Y-113274250D02*
X143044648Y-113274250D01*
G36*
X143044648Y-113574250D02*
G01*
X142944648Y-113574250D01*
X142944648Y-113274250D01*
X143044648Y-113274250D01*
X143044648Y-113574250D01*
G37*
X143044648Y-113574250D02*
X142944648Y-113574250D01*
X142944648Y-113274250D01*
X143044648Y-113274250D01*
X143044648Y-113574250D01*
%TO.C,RSW1*%
X149388120Y-97012920D02*
X149138120Y-97012920D01*
X145888120Y-97012920D02*
X146138120Y-97012920D01*
X149388120Y-103012920D02*
X149138120Y-103012920D01*
X149388120Y-97012920D02*
X149388120Y-103012920D01*
X145888120Y-103012920D02*
X146138120Y-103012920D01*
X145888120Y-97012920D02*
X145888120Y-103012920D01*
%TO.C,SW21*%
X107012500Y-132206250D02*
X107012500Y-133206250D01*
X93012500Y-120206250D02*
X93012500Y-119206250D01*
X107012500Y-119206250D02*
X107012500Y-120206250D01*
X93012500Y-119206250D02*
X94012500Y-119206250D01*
X93012500Y-133206250D02*
X93012500Y-132206250D01*
X106012500Y-119206250D02*
X107012500Y-119206250D01*
X107012500Y-133206250D02*
X106012500Y-133206250D01*
X94012500Y-133206250D02*
X93012500Y-133206250D01*
%TO.C,U2*%
X154150000Y-84950000D02*
X166150000Y-84950000D01*
X166150000Y-90950000D02*
X154150000Y-90950000D01*
X166150000Y-84950000D02*
X166150000Y-90950000D01*
X154150000Y-90950000D02*
X154150000Y-84950000D01*
D14*
%TO.C,G\u002A\u002A\u002A*%
X152401389Y-142965904D02*
X152789444Y-143010555D01*
X152789444Y-143010555D02*
X152860000Y-145379716D01*
X152860000Y-145379716D02*
X152930555Y-147748877D01*
X152930555Y-147748877D02*
X154059038Y-146261660D01*
X154059038Y-146261660D02*
X154527087Y-145652386D01*
X154527087Y-145652386D02*
X154867891Y-145235684D01*
X154867891Y-145235684D02*
X155119817Y-144975610D01*
X155119817Y-144975610D02*
X155321235Y-144836217D01*
X155321235Y-144836217D02*
X155510516Y-144781559D01*
X155510516Y-144781559D02*
X155646538Y-144774444D01*
X155646538Y-144774444D02*
X155959066Y-144793984D01*
X155959066Y-144793984D02*
X156104265Y-144841572D01*
X156104265Y-144841572D02*
X156105555Y-144847020D01*
X156105555Y-144847020D02*
X156023846Y-144980425D01*
X156023846Y-144980425D02*
X155801841Y-145288285D01*
X155801841Y-145288285D02*
X155474225Y-145723624D01*
X155474225Y-145723624D02*
X155107754Y-146198401D01*
X155107754Y-146198401D02*
X154701818Y-146710540D01*
X154701818Y-146710540D02*
X154427355Y-147081843D01*
X154427355Y-147081843D02*
X154289831Y-147371159D01*
X154289831Y-147371159D02*
X154294709Y-147637339D01*
X154294709Y-147637339D02*
X154447454Y-147939232D01*
X154447454Y-147939232D02*
X154753531Y-148335688D01*
X154753531Y-148335688D02*
X155218403Y-148885556D01*
X155218403Y-148885556D02*
X155374496Y-149071115D01*
X155374496Y-149071115D02*
X156266214Y-150136666D01*
X156266214Y-150136666D02*
X155776514Y-150136666D01*
X155776514Y-150136666D02*
X155505559Y-150109786D01*
X155505559Y-150109786D02*
X155264322Y-149999324D01*
X155264322Y-149999324D02*
X154990097Y-149760543D01*
X154990097Y-149760543D02*
X154620178Y-149348711D01*
X154620178Y-149348711D02*
X154540259Y-149254722D01*
X154540259Y-149254722D02*
X154177835Y-148826741D01*
X154177835Y-148826741D02*
X153879596Y-148474867D01*
X153879596Y-148474867D02*
X153697664Y-148260587D01*
X153697664Y-148260587D02*
X153675472Y-148234564D01*
X153675472Y-148234564D02*
X153508913Y-148202578D01*
X153508913Y-148202578D02*
X153304274Y-148376595D01*
X153304274Y-148376595D02*
X153102043Y-148691549D01*
X153102043Y-148691549D02*
X152942705Y-149082376D01*
X152942705Y-149082376D02*
X152866747Y-149484011D01*
X152866747Y-149484011D02*
X152865074Y-149536944D01*
X152865074Y-149536944D02*
X152847392Y-149913398D01*
X152847392Y-149913398D02*
X152765413Y-150086417D01*
X152765413Y-150086417D02*
X152562941Y-150134674D01*
X152562941Y-150134674D02*
X152436666Y-150136666D01*
X152436666Y-150136666D02*
X152013333Y-150136666D01*
X152013333Y-150136666D02*
X152013333Y-142921254D01*
X152013333Y-142921254D02*
X152401389Y-142965904D01*
X152401389Y-142965904D02*
X152401389Y-142965904D01*
G36*
X152401389Y-142965904D02*
G01*
X152789444Y-143010555D01*
X152860000Y-145379716D01*
X152930555Y-147748877D01*
X154059038Y-146261660D01*
X154527087Y-145652386D01*
X154867891Y-145235684D01*
X155119817Y-144975610D01*
X155321235Y-144836217D01*
X155510516Y-144781559D01*
X155646538Y-144774444D01*
X155959066Y-144793984D01*
X156104265Y-144841572D01*
X156105555Y-144847020D01*
X156023846Y-144980425D01*
X155801841Y-145288285D01*
X155474225Y-145723624D01*
X155107754Y-146198401D01*
X154701818Y-146710540D01*
X154427355Y-147081843D01*
X154289831Y-147371159D01*
X154294709Y-147637339D01*
X154447454Y-147939232D01*
X154753531Y-148335688D01*
X155218403Y-148885556D01*
X155374496Y-149071115D01*
X156266214Y-150136666D01*
X155776514Y-150136666D01*
X155505559Y-150109786D01*
X155264322Y-149999324D01*
X154990097Y-149760543D01*
X154620178Y-149348711D01*
X154540259Y-149254722D01*
X154177835Y-148826741D01*
X153879596Y-148474867D01*
X153697664Y-148260587D01*
X153675472Y-148234564D01*
X153508913Y-148202578D01*
X153304274Y-148376595D01*
X153102043Y-148691549D01*
X152942705Y-149082376D01*
X152866747Y-149484011D01*
X152865074Y-149536944D01*
X152847392Y-149913398D01*
X152765413Y-150086417D01*
X152562941Y-150134674D01*
X152436666Y-150136666D01*
X152013333Y-150136666D01*
X152013333Y-142921254D01*
X152401389Y-142965904D01*
G37*
X152401389Y-142965904D02*
X152789444Y-143010555D01*
X152860000Y-145379716D01*
X152930555Y-147748877D01*
X154059038Y-146261660D01*
X154527087Y-145652386D01*
X154867891Y-145235684D01*
X155119817Y-144975610D01*
X155321235Y-144836217D01*
X155510516Y-144781559D01*
X155646538Y-144774444D01*
X155959066Y-144793984D01*
X156104265Y-144841572D01*
X156105555Y-144847020D01*
X156023846Y-144980425D01*
X155801841Y-145288285D01*
X155474225Y-145723624D01*
X155107754Y-146198401D01*
X154701818Y-146710540D01*
X154427355Y-147081843D01*
X154289831Y-147371159D01*
X154294709Y-147637339D01*
X154447454Y-147939232D01*
X154753531Y-148335688D01*
X155218403Y-148885556D01*
X155374496Y-149071115D01*
X156266214Y-150136666D01*
X155776514Y-150136666D01*
X155505559Y-150109786D01*
X155264322Y-149999324D01*
X154990097Y-149760543D01*
X154620178Y-149348711D01*
X154540259Y-149254722D01*
X154177835Y-148826741D01*
X153879596Y-148474867D01*
X153697664Y-148260587D01*
X153675472Y-148234564D01*
X153508913Y-148202578D01*
X153304274Y-148376595D01*
X153102043Y-148691549D01*
X152942705Y-149082376D01*
X152866747Y-149484011D01*
X152865074Y-149536944D01*
X152847392Y-149913398D01*
X152765413Y-150086417D01*
X152562941Y-150134674D01*
X152436666Y-150136666D01*
X152013333Y-150136666D01*
X152013333Y-142921254D01*
X152401389Y-142965904D01*
X140746008Y-146730792D02*
X140768437Y-147519600D01*
X140768437Y-147519600D02*
X140795763Y-148078407D01*
X140795763Y-148078407D02*
X140836685Y-148459406D01*
X140836685Y-148459406D02*
X140899902Y-148714791D01*
X140899902Y-148714791D02*
X140994115Y-148896757D01*
X140994115Y-148896757D02*
X141128022Y-149057499D01*
X141128022Y-149057499D02*
X141135068Y-149065014D01*
X141135068Y-149065014D02*
X141638663Y-149415695D01*
X141638663Y-149415695D02*
X142218956Y-149536387D01*
X142218956Y-149536387D02*
X142800899Y-149435054D01*
X142800899Y-149435054D02*
X143309443Y-149119662D01*
X143309443Y-149119662D02*
X143562828Y-148807356D01*
X143562828Y-148807356D02*
X143676740Y-148577692D01*
X143676740Y-148577692D02*
X143753437Y-148292578D01*
X143753437Y-148292578D02*
X143799733Y-147894713D01*
X143799733Y-147894713D02*
X143822438Y-147326796D01*
X143822438Y-147326796D02*
X143828361Y-146573611D01*
X143828361Y-146573611D02*
X143828889Y-144774444D01*
X143828889Y-144774444D02*
X144675555Y-144774444D01*
X144675555Y-144774444D02*
X144675555Y-150136666D01*
X144675555Y-150136666D02*
X144252222Y-150136666D01*
X144252222Y-150136666D02*
X143946429Y-150095771D01*
X143946429Y-150095771D02*
X143835019Y-149932777D01*
X143835019Y-149932777D02*
X143826728Y-149819166D01*
X143826728Y-149819166D02*
X143789654Y-149629962D01*
X143789654Y-149629962D02*
X143720894Y-149650957D01*
X143720894Y-149650957D02*
X143316956Y-150004282D01*
X143316956Y-150004282D02*
X142743777Y-150214233D01*
X142743777Y-150214233D02*
X142080861Y-150270771D01*
X142080861Y-150270771D02*
X141407706Y-150163854D01*
X141407706Y-150163854D02*
X140990526Y-149995766D01*
X140990526Y-149995766D02*
X140612403Y-149749108D01*
X140612403Y-149749108D02*
X140334832Y-149437700D01*
X140334832Y-149437700D02*
X140143769Y-149017771D01*
X140143769Y-149017771D02*
X140025173Y-148445552D01*
X140025173Y-148445552D02*
X139964999Y-147677272D01*
X139964999Y-147677272D02*
X139949160Y-146750000D01*
X139949160Y-146750000D02*
X139948333Y-144845000D01*
X139948333Y-144845000D02*
X140322674Y-144801672D01*
X140322674Y-144801672D02*
X140697016Y-144758345D01*
X140697016Y-144758345D02*
X140746008Y-146730792D01*
X140746008Y-146730792D02*
X140746008Y-146730792D01*
G36*
X140746008Y-146730792D02*
G01*
X140768437Y-147519600D01*
X140795763Y-148078407D01*
X140836685Y-148459406D01*
X140899902Y-148714791D01*
X140994115Y-148896757D01*
X141128022Y-149057499D01*
X141135068Y-149065014D01*
X141638663Y-149415695D01*
X142218956Y-149536387D01*
X142800899Y-149435054D01*
X143309443Y-149119662D01*
X143562828Y-148807356D01*
X143676740Y-148577692D01*
X143753437Y-148292578D01*
X143799733Y-147894713D01*
X143822438Y-147326796D01*
X143828361Y-146573611D01*
X143828889Y-144774444D01*
X144675555Y-144774444D01*
X144675555Y-150136666D01*
X144252222Y-150136666D01*
X143946429Y-150095771D01*
X143835019Y-149932777D01*
X143826728Y-149819166D01*
X143789654Y-149629962D01*
X143720894Y-149650957D01*
X143316956Y-150004282D01*
X142743777Y-150214233D01*
X142080861Y-150270771D01*
X141407706Y-150163854D01*
X140990526Y-149995766D01*
X140612403Y-149749108D01*
X140334832Y-149437700D01*
X140143769Y-149017771D01*
X140025173Y-148445552D01*
X139964999Y-147677272D01*
X139949160Y-146750000D01*
X139948333Y-144845000D01*
X140322674Y-144801672D01*
X140697016Y-144758345D01*
X140746008Y-146730792D01*
G37*
X140746008Y-146730792D02*
X140768437Y-147519600D01*
X140795763Y-148078407D01*
X140836685Y-148459406D01*
X140899902Y-148714791D01*
X140994115Y-148896757D01*
X141128022Y-149057499D01*
X141135068Y-149065014D01*
X141638663Y-149415695D01*
X142218956Y-149536387D01*
X142800899Y-149435054D01*
X143309443Y-149119662D01*
X143562828Y-148807356D01*
X143676740Y-148577692D01*
X143753437Y-148292578D01*
X143799733Y-147894713D01*
X143822438Y-147326796D01*
X143828361Y-146573611D01*
X143828889Y-144774444D01*
X144675555Y-144774444D01*
X144675555Y-150136666D01*
X144252222Y-150136666D01*
X143946429Y-150095771D01*
X143835019Y-149932777D01*
X143826728Y-149819166D01*
X143789654Y-149629962D01*
X143720894Y-149650957D01*
X143316956Y-150004282D01*
X142743777Y-150214233D01*
X142080861Y-150270771D01*
X141407706Y-150163854D01*
X140990526Y-149995766D01*
X140612403Y-149749108D01*
X140334832Y-149437700D01*
X140143769Y-149017771D01*
X140025173Y-148445552D01*
X139964999Y-147677272D01*
X139949160Y-146750000D01*
X139948333Y-144845000D01*
X140322674Y-144801672D01*
X140697016Y-144758345D01*
X140746008Y-146730792D01*
X148952881Y-144772635D02*
X149526877Y-144909941D01*
X149526877Y-144909941D02*
X149856018Y-145083740D01*
X149856018Y-145083740D02*
X150241136Y-145377295D01*
X150241136Y-145377295D02*
X150611402Y-145723629D01*
X150611402Y-145723629D02*
X150895987Y-146055768D01*
X150895987Y-146055768D02*
X151024062Y-146306735D01*
X151024062Y-146306735D02*
X151025555Y-146327073D01*
X151025555Y-146327073D02*
X150914292Y-146450383D01*
X150914292Y-146450383D02*
X150645555Y-146467075D01*
X150645555Y-146467075D02*
X150316919Y-146391352D01*
X150316919Y-146391352D02*
X150025963Y-146237419D01*
X150025963Y-146237419D02*
X149954148Y-146171108D01*
X149954148Y-146171108D02*
X149360748Y-145707723D01*
X149360748Y-145707723D02*
X148672885Y-145501043D01*
X148672885Y-145501043D02*
X147930012Y-145559345D01*
X147930012Y-145559345D02*
X147587493Y-145674566D01*
X147587493Y-145674566D02*
X147011314Y-146048589D01*
X147011314Y-146048589D02*
X146630043Y-146569124D01*
X146630043Y-146569124D02*
X146444272Y-147178015D01*
X146444272Y-147178015D02*
X146454592Y-147817104D01*
X146454592Y-147817104D02*
X146661595Y-148428231D01*
X146661595Y-148428231D02*
X147065873Y-148953241D01*
X147065873Y-148953241D02*
X147550812Y-149281518D01*
X147550812Y-149281518D02*
X147981400Y-149458472D01*
X147981400Y-149458472D02*
X148357981Y-149561511D01*
X148357981Y-149561511D02*
X148464084Y-149572222D01*
X148464084Y-149572222D02*
X148972470Y-149475020D01*
X148972470Y-149475020D02*
X149513648Y-149228726D01*
X149513648Y-149228726D02*
X149940036Y-148901307D01*
X149940036Y-148901307D02*
X149953815Y-148886142D01*
X149953815Y-148886142D02*
X150206613Y-148709238D01*
X150206613Y-148709238D02*
X150531910Y-148602084D01*
X150531910Y-148602084D02*
X150832260Y-148580265D01*
X150832260Y-148580265D02*
X151010216Y-148659367D01*
X151010216Y-148659367D02*
X151025555Y-148714728D01*
X151025555Y-148714728D02*
X150941686Y-148895603D01*
X150941686Y-148895603D02*
X150731902Y-149190446D01*
X150731902Y-149190446D02*
X150643338Y-149299253D01*
X150643338Y-149299253D02*
X150024884Y-149826640D01*
X150024884Y-149826640D02*
X149263493Y-150154776D01*
X149263493Y-150154776D02*
X148428350Y-150270563D01*
X148428350Y-150270563D02*
X147588644Y-150160900D01*
X147588644Y-150160900D02*
X147091565Y-149971714D01*
X147091565Y-149971714D02*
X146435192Y-149499192D01*
X146435192Y-149499192D02*
X145947089Y-148849173D01*
X145947089Y-148849173D02*
X145657743Y-148088451D01*
X145657743Y-148088451D02*
X145597639Y-147283815D01*
X145597639Y-147283815D02*
X145670338Y-146857924D01*
X145670338Y-146857924D02*
X146017176Y-146055734D01*
X146017176Y-146055734D02*
X146560950Y-145424844D01*
X146560950Y-145424844D02*
X147259560Y-144986520D01*
X147259560Y-144986520D02*
X148070904Y-144762029D01*
X148070904Y-144762029D02*
X148952881Y-144772635D01*
X148952881Y-144772635D02*
X148952881Y-144772635D01*
G36*
X148952881Y-144772635D02*
G01*
X149526877Y-144909941D01*
X149856018Y-145083740D01*
X150241136Y-145377295D01*
X150611402Y-145723629D01*
X150895987Y-146055768D01*
X151024062Y-146306735D01*
X151025555Y-146327073D01*
X150914292Y-146450383D01*
X150645555Y-146467075D01*
X150316919Y-146391352D01*
X150025963Y-146237419D01*
X149954148Y-146171108D01*
X149360748Y-145707723D01*
X148672885Y-145501043D01*
X147930012Y-145559345D01*
X147587493Y-145674566D01*
X147011314Y-146048589D01*
X146630043Y-146569124D01*
X146444272Y-147178015D01*
X146454592Y-147817104D01*
X146661595Y-148428231D01*
X147065873Y-148953241D01*
X147550812Y-149281518D01*
X147981400Y-149458472D01*
X148357981Y-149561511D01*
X148464084Y-149572222D01*
X148972470Y-149475020D01*
X149513648Y-149228726D01*
X149940036Y-148901307D01*
X149953815Y-148886142D01*
X150206613Y-148709238D01*
X150531910Y-148602084D01*
X150832260Y-148580265D01*
X151010216Y-148659367D01*
X151025555Y-148714728D01*
X150941686Y-148895603D01*
X150731902Y-149190446D01*
X150643338Y-149299253D01*
X150024884Y-149826640D01*
X149263493Y-150154776D01*
X148428350Y-150270563D01*
X147588644Y-150160900D01*
X147091565Y-149971714D01*
X146435192Y-149499192D01*
X145947089Y-148849173D01*
X145657743Y-148088451D01*
X145597639Y-147283815D01*
X145670338Y-146857924D01*
X146017176Y-146055734D01*
X146560950Y-145424844D01*
X147259560Y-144986520D01*
X148070904Y-144762029D01*
X148952881Y-144772635D01*
G37*
X148952881Y-144772635D02*
X149526877Y-144909941D01*
X149856018Y-145083740D01*
X150241136Y-145377295D01*
X150611402Y-145723629D01*
X150895987Y-146055768D01*
X151024062Y-146306735D01*
X151025555Y-146327073D01*
X150914292Y-146450383D01*
X150645555Y-146467075D01*
X150316919Y-146391352D01*
X150025963Y-146237419D01*
X149954148Y-146171108D01*
X149360748Y-145707723D01*
X148672885Y-145501043D01*
X147930012Y-145559345D01*
X147587493Y-145674566D01*
X147011314Y-146048589D01*
X146630043Y-146569124D01*
X146444272Y-147178015D01*
X146454592Y-147817104D01*
X146661595Y-148428231D01*
X147065873Y-148953241D01*
X147550812Y-149281518D01*
X147981400Y-149458472D01*
X148357981Y-149561511D01*
X148464084Y-149572222D01*
X148972470Y-149475020D01*
X149513648Y-149228726D01*
X149940036Y-148901307D01*
X149953815Y-148886142D01*
X150206613Y-148709238D01*
X150531910Y-148602084D01*
X150832260Y-148580265D01*
X151010216Y-148659367D01*
X151025555Y-148714728D01*
X150941686Y-148895603D01*
X150731902Y-149190446D01*
X150643338Y-149299253D01*
X150024884Y-149826640D01*
X149263493Y-150154776D01*
X148428350Y-150270563D01*
X147588644Y-150160900D01*
X147091565Y-149971714D01*
X146435192Y-149499192D01*
X145947089Y-148849173D01*
X145657743Y-148088451D01*
X145597639Y-147283815D01*
X145670338Y-146857924D01*
X146017176Y-146055734D01*
X146560950Y-145424844D01*
X147259560Y-144986520D01*
X148070904Y-144762029D01*
X148952881Y-144772635D01*
X134656666Y-144741543D02*
X135018887Y-144810786D01*
X135018887Y-144810786D02*
X135171619Y-144832867D01*
X135171619Y-144832867D02*
X135302362Y-144809781D01*
X135302362Y-144809781D02*
X135440098Y-144706975D01*
X135440098Y-144706975D02*
X135613809Y-144489894D01*
X135613809Y-144489894D02*
X135852480Y-144123983D01*
X135852480Y-144123983D02*
X136185093Y-143574689D01*
X136185093Y-143574689D02*
X136499260Y-143045833D01*
X136499260Y-143045833D02*
X136753542Y-142635881D01*
X136753542Y-142635881D02*
X136955856Y-142344166D01*
X136955856Y-142344166D02*
X137061553Y-142234444D01*
X137061553Y-142234444D02*
X137226936Y-142308452D01*
X137226936Y-142308452D02*
X137402643Y-142424500D01*
X137402643Y-142424500D02*
X137508473Y-142522836D01*
X137508473Y-142522836D02*
X137540710Y-142649788D01*
X137540710Y-142649788D02*
X137482703Y-142853970D01*
X137482703Y-142853970D02*
X137317798Y-143183996D01*
X137317798Y-143183996D02*
X137029344Y-143688480D01*
X137029344Y-143688480D02*
X136886268Y-143931975D01*
X136886268Y-143931975D02*
X136109976Y-145249393D01*
X136109976Y-145249393D02*
X136527672Y-145841984D01*
X136527672Y-145841984D02*
X136903437Y-146587911D01*
X136903437Y-146587911D02*
X137054978Y-147394753D01*
X137054978Y-147394753D02*
X136983610Y-148194437D01*
X136983610Y-148194437D02*
X136690648Y-148918891D01*
X136690648Y-148918891D02*
X136462233Y-149230774D01*
X136462233Y-149230774D02*
X135815399Y-149791653D01*
X135815399Y-149791653D02*
X135075162Y-150145248D01*
X135075162Y-150145248D02*
X134297194Y-150285137D01*
X134297194Y-150285137D02*
X133537167Y-150204894D01*
X133537167Y-150204894D02*
X132850751Y-149898095D01*
X132850751Y-149898095D02*
X132575278Y-149679335D01*
X132575278Y-149679335D02*
X132257778Y-149381915D01*
X132257778Y-149381915D02*
X132257778Y-151971111D01*
X132257778Y-151971111D02*
X131411111Y-151971111D01*
X131411111Y-151971111D02*
X131411111Y-146828294D01*
X131411111Y-146828294D02*
X134098099Y-146828294D01*
X134098099Y-146828294D02*
X134234869Y-147290545D01*
X134234869Y-147290545D02*
X134533895Y-147644654D01*
X134533895Y-147644654D02*
X134701169Y-147736792D01*
X134701169Y-147736792D02*
X135022710Y-147846623D01*
X135022710Y-147846623D02*
X135265782Y-147837580D01*
X135265782Y-147837580D02*
X135582376Y-147699183D01*
X135582376Y-147699183D02*
X135634352Y-147672441D01*
X135634352Y-147672441D02*
X136039274Y-147327227D01*
X136039274Y-147327227D02*
X136213479Y-146870526D01*
X136213479Y-146870526D02*
X136144112Y-146370251D01*
X136144112Y-146370251D02*
X135944847Y-146031855D01*
X135944847Y-146031855D02*
X135575989Y-145778224D01*
X135575989Y-145778224D02*
X135097177Y-145703325D01*
X135097177Y-145703325D02*
X134620567Y-145811773D01*
X134620567Y-145811773D02*
X134381463Y-145967537D01*
X134381463Y-145967537D02*
X134141118Y-146354944D01*
X134141118Y-146354944D02*
X134098099Y-146828294D01*
X134098099Y-146828294D02*
X131411111Y-146828294D01*
X131411111Y-146828294D02*
X131411111Y-145256574D01*
X131411111Y-145256574D02*
X132268918Y-145256574D01*
X132268918Y-145256574D02*
X132294862Y-145439597D01*
X132294862Y-145439597D02*
X132343032Y-145441782D01*
X132343032Y-145441782D02*
X132376718Y-145252920D01*
X132376718Y-145252920D02*
X132354172Y-145171319D01*
X132354172Y-145171319D02*
X132291515Y-145117869D01*
X132291515Y-145117869D02*
X132268918Y-145256574D01*
X132268918Y-145256574D02*
X131411111Y-145256574D01*
X131411111Y-145256574D02*
X131411111Y-144774444D01*
X131411111Y-144774444D02*
X131775648Y-144774444D01*
X131775648Y-144774444D02*
X132028503Y-144740132D01*
X132028503Y-144740132D02*
X132093148Y-144668611D01*
X132093148Y-144668611D02*
X132005365Y-144503239D01*
X132005365Y-144503239D02*
X131814845Y-144159783D01*
X131814845Y-144159783D02*
X131558826Y-143705220D01*
X131558826Y-143705220D02*
X131493570Y-143590198D01*
X131493570Y-143590198D02*
X131221980Y-143102339D01*
X131221980Y-143102339D02*
X131078369Y-142797648D01*
X131078369Y-142797648D02*
X131047727Y-142615975D01*
X131047727Y-142615975D02*
X131115042Y-142497173D01*
X131115042Y-142497173D02*
X131203041Y-142426031D01*
X131203041Y-142426031D02*
X131443304Y-142274855D01*
X131443304Y-142274855D02*
X131551551Y-142234444D01*
X131551551Y-142234444D02*
X131651816Y-142349568D01*
X131651816Y-142349568D02*
X131857047Y-142661538D01*
X131857047Y-142661538D02*
X132135585Y-143120255D01*
X132135585Y-143120255D02*
X132400981Y-143578687D01*
X132400981Y-143578687D02*
X132807971Y-144259073D01*
X132807971Y-144259073D02*
X133110629Y-144681504D01*
X133110629Y-144681504D02*
X133311423Y-144849258D01*
X133311423Y-144849258D02*
X133357386Y-144848687D01*
X133357386Y-144848687D02*
X133618083Y-144779828D01*
X133618083Y-144779828D02*
X133680430Y-144774444D01*
X133680430Y-144774444D02*
X133732494Y-144642848D01*
X133732494Y-144642848D02*
X133774571Y-144286026D01*
X133774571Y-144286026D02*
X133801906Y-143760924D01*
X133801906Y-143760924D02*
X133810000Y-143222222D01*
X133810000Y-143222222D02*
X133810000Y-141670000D01*
X133810000Y-141670000D02*
X134656666Y-141670000D01*
X134656666Y-141670000D02*
X134656666Y-144741543D01*
X134656666Y-144741543D02*
X134656666Y-144741543D01*
G36*
X131775648Y-144774444D02*
G01*
X132028503Y-144740132D01*
X132093148Y-144668611D01*
X132005365Y-144503239D01*
X131814845Y-144159783D01*
X131558826Y-143705220D01*
X131493570Y-143590198D01*
X131221980Y-143102339D01*
X131078369Y-142797648D01*
X131047727Y-142615975D01*
X131115042Y-142497173D01*
X131203041Y-142426031D01*
X131443304Y-142274855D01*
X131551551Y-142234444D01*
X131651816Y-142349568D01*
X131857047Y-142661538D01*
X132135585Y-143120255D01*
X132400981Y-143578687D01*
X132807971Y-144259073D01*
X133110629Y-144681504D01*
X133311423Y-144849258D01*
X133357386Y-144848687D01*
X133618083Y-144779828D01*
X133680430Y-144774444D01*
X133732494Y-144642848D01*
X133774571Y-144286026D01*
X133801906Y-143760924D01*
X133810000Y-143222222D01*
X133810000Y-141670000D01*
X134656666Y-141670000D01*
X134656666Y-144741543D01*
X135018887Y-144810786D01*
X135171619Y-144832867D01*
X135302362Y-144809781D01*
X135440098Y-144706975D01*
X135613809Y-144489894D01*
X135852480Y-144123983D01*
X136185093Y-143574689D01*
X136499260Y-143045833D01*
X136753542Y-142635881D01*
X136955856Y-142344166D01*
X137061553Y-142234444D01*
X137226936Y-142308452D01*
X137402643Y-142424500D01*
X137508473Y-142522836D01*
X137540710Y-142649788D01*
X137482703Y-142853970D01*
X137317798Y-143183996D01*
X137029344Y-143688480D01*
X136886268Y-143931975D01*
X136109976Y-145249393D01*
X136527672Y-145841984D01*
X136903437Y-146587911D01*
X137054978Y-147394753D01*
X136983610Y-148194437D01*
X136690648Y-148918891D01*
X136462233Y-149230774D01*
X135815399Y-149791653D01*
X135075162Y-150145248D01*
X134297194Y-150285137D01*
X133537167Y-150204894D01*
X132850751Y-149898095D01*
X132575278Y-149679335D01*
X132257778Y-149381915D01*
X132257778Y-151971111D01*
X131411111Y-151971111D01*
X131411111Y-146828294D01*
X134098099Y-146828294D01*
X134234869Y-147290545D01*
X134533895Y-147644654D01*
X134701169Y-147736792D01*
X135022710Y-147846623D01*
X135265782Y-147837580D01*
X135582376Y-147699183D01*
X135634352Y-147672441D01*
X136039274Y-147327227D01*
X136213479Y-146870526D01*
X136144112Y-146370251D01*
X135944847Y-146031855D01*
X135575989Y-145778224D01*
X135097177Y-145703325D01*
X134620567Y-145811773D01*
X134381463Y-145967537D01*
X134141118Y-146354944D01*
X134098099Y-146828294D01*
X131411111Y-146828294D01*
X131411111Y-145256574D01*
X132268918Y-145256574D01*
X132294862Y-145439597D01*
X132343032Y-145441782D01*
X132376718Y-145252920D01*
X132354172Y-145171319D01*
X132291515Y-145117869D01*
X132268918Y-145256574D01*
X131411111Y-145256574D01*
X131411111Y-144774444D01*
X131775648Y-144774444D01*
G37*
X131775648Y-144774444D02*
X132028503Y-144740132D01*
X132093148Y-144668611D01*
X132005365Y-144503239D01*
X131814845Y-144159783D01*
X131558826Y-143705220D01*
X131493570Y-143590198D01*
X131221980Y-143102339D01*
X131078369Y-142797648D01*
X131047727Y-142615975D01*
X131115042Y-142497173D01*
X131203041Y-142426031D01*
X131443304Y-142274855D01*
X131551551Y-142234444D01*
X131651816Y-142349568D01*
X131857047Y-142661538D01*
X132135585Y-143120255D01*
X132400981Y-143578687D01*
X132807971Y-144259073D01*
X133110629Y-144681504D01*
X133311423Y-144849258D01*
X133357386Y-144848687D01*
X133618083Y-144779828D01*
X133680430Y-144774444D01*
X133732494Y-144642848D01*
X133774571Y-144286026D01*
X133801906Y-143760924D01*
X133810000Y-143222222D01*
X133810000Y-141670000D01*
X134656666Y-141670000D01*
X134656666Y-144741543D01*
X135018887Y-144810786D01*
X135171619Y-144832867D01*
X135302362Y-144809781D01*
X135440098Y-144706975D01*
X135613809Y-144489894D01*
X135852480Y-144123983D01*
X136185093Y-143574689D01*
X136499260Y-143045833D01*
X136753542Y-142635881D01*
X136955856Y-142344166D01*
X137061553Y-142234444D01*
X137226936Y-142308452D01*
X137402643Y-142424500D01*
X137508473Y-142522836D01*
X137540710Y-142649788D01*
X137482703Y-142853970D01*
X137317798Y-143183996D01*
X137029344Y-143688480D01*
X136886268Y-143931975D01*
X136109976Y-145249393D01*
X136527672Y-145841984D01*
X136903437Y-146587911D01*
X137054978Y-147394753D01*
X136983610Y-148194437D01*
X136690648Y-148918891D01*
X136462233Y-149230774D01*
X135815399Y-149791653D01*
X135075162Y-150145248D01*
X134297194Y-150285137D01*
X133537167Y-150204894D01*
X132850751Y-149898095D01*
X132575278Y-149679335D01*
X132257778Y-149381915D01*
X132257778Y-151971111D01*
X131411111Y-151971111D01*
X131411111Y-146828294D01*
X134098099Y-146828294D01*
X134234869Y-147290545D01*
X134533895Y-147644654D01*
X134701169Y-147736792D01*
X135022710Y-147846623D01*
X135265782Y-147837580D01*
X135582376Y-147699183D01*
X135634352Y-147672441D01*
X136039274Y-147327227D01*
X136213479Y-146870526D01*
X136144112Y-146370251D01*
X135944847Y-146031855D01*
X135575989Y-145778224D01*
X135097177Y-145703325D01*
X134620567Y-145811773D01*
X134381463Y-145967537D01*
X134141118Y-146354944D01*
X134098099Y-146828294D01*
X131411111Y-146828294D01*
X131411111Y-145256574D01*
X132268918Y-145256574D01*
X132294862Y-145439597D01*
X132343032Y-145441782D01*
X132376718Y-145252920D01*
X132354172Y-145171319D01*
X132291515Y-145117869D01*
X132268918Y-145256574D01*
X131411111Y-145256574D01*
X131411111Y-144774444D01*
X131775648Y-144774444D01*
X167000875Y-144814005D02*
X167112222Y-144903158D01*
X167112222Y-144903158D02*
X167058727Y-145062464D01*
X167058727Y-145062464D02*
X166907977Y-145445486D01*
X166907977Y-145445486D02*
X166674577Y-146016834D01*
X166674577Y-146016834D02*
X166373132Y-146741114D01*
X166373132Y-146741114D02*
X166018244Y-147582936D01*
X166018244Y-147582936D02*
X165641945Y-148466214D01*
X165641945Y-148466214D02*
X165199126Y-149498377D01*
X165199126Y-149498377D02*
X164850620Y-150300363D01*
X164850620Y-150300363D02*
X164580259Y-150901691D01*
X164580259Y-150901691D02*
X164371876Y-151331883D01*
X164371876Y-151331883D02*
X164209305Y-151620461D01*
X164209305Y-151620461D02*
X164076378Y-151796945D01*
X164076378Y-151796945D02*
X163956928Y-151890856D01*
X163956928Y-151890856D02*
X163834789Y-151931716D01*
X163834789Y-151931716D02*
X163736945Y-151944773D01*
X163736945Y-151944773D02*
X163435581Y-151957015D01*
X163435581Y-151957015D02*
X163302550Y-151925981D01*
X163302550Y-151925981D02*
X163302222Y-151923460D01*
X163302222Y-151923460D02*
X163353660Y-151771013D01*
X163353660Y-151771013D02*
X163489334Y-151429668D01*
X163489334Y-151429668D02*
X163681285Y-150969493D01*
X163681285Y-150969493D02*
X163707008Y-150909065D01*
X163707008Y-150909065D02*
X164111794Y-149960202D01*
X164111794Y-149960202D02*
X163142563Y-147550555D01*
X163142563Y-147550555D02*
X162833948Y-146773223D01*
X162833948Y-146773223D02*
X162565916Y-146078876D01*
X162565916Y-146078876D02*
X162355284Y-145512664D01*
X162355284Y-145512664D02*
X162218869Y-145119736D01*
X162218869Y-145119736D02*
X162173333Y-144948303D01*
X162173333Y-144948303D02*
X162293994Y-144808287D01*
X162293994Y-144808287D02*
X162561389Y-144800349D01*
X162561389Y-144800349D02*
X162719741Y-144836382D01*
X162719741Y-144836382D02*
X162858089Y-144930844D01*
X162858089Y-144930844D02*
X162999852Y-145124082D01*
X162999852Y-145124082D02*
X163168449Y-145456447D01*
X163168449Y-145456447D02*
X163387298Y-145968287D01*
X163387298Y-145968287D02*
X163679817Y-146699953D01*
X163679817Y-146699953D02*
X163713438Y-146785277D01*
X163713438Y-146785277D02*
X163987835Y-147466437D01*
X163987835Y-147466437D02*
X164231908Y-148043039D01*
X164231908Y-148043039D02*
X164425258Y-148469097D01*
X164425258Y-148469097D02*
X164547486Y-148698627D01*
X164547486Y-148698627D02*
X164574146Y-148725555D01*
X164574146Y-148725555D02*
X164659066Y-148602315D01*
X164659066Y-148602315D02*
X164829176Y-148262614D01*
X164829176Y-148262614D02*
X165063499Y-147751484D01*
X165063499Y-147751484D02*
X165341057Y-147113958D01*
X165341057Y-147113958D02*
X165494443Y-146750000D01*
X165494443Y-146750000D02*
X165812874Y-145992775D01*
X165812874Y-145992775D02*
X166049094Y-145458395D01*
X166049094Y-145458395D02*
X166226998Y-145108190D01*
X166226998Y-145108190D02*
X166370480Y-144903487D01*
X166370480Y-144903487D02*
X166503435Y-144805617D01*
X166503435Y-144805617D02*
X166649758Y-144775907D01*
X166649758Y-144775907D02*
X166715124Y-144774444D01*
X166715124Y-144774444D02*
X167000875Y-144814005D01*
X167000875Y-144814005D02*
X167000875Y-144814005D01*
G36*
X167000875Y-144814005D02*
G01*
X167112222Y-144903158D01*
X167058727Y-145062464D01*
X166907977Y-145445486D01*
X166674577Y-146016834D01*
X166373132Y-146741114D01*
X166018244Y-147582936D01*
X165641945Y-148466214D01*
X165199126Y-149498377D01*
X164850620Y-150300363D01*
X164580259Y-150901691D01*
X164371876Y-151331883D01*
X164209305Y-151620461D01*
X164076378Y-151796945D01*
X163956928Y-151890856D01*
X163834789Y-151931716D01*
X163736945Y-151944773D01*
X163435581Y-151957015D01*
X163302550Y-151925981D01*
X163302222Y-151923460D01*
X163353660Y-151771013D01*
X163489334Y-151429668D01*
X163681285Y-150969493D01*
X163707008Y-150909065D01*
X164111794Y-149960202D01*
X163142563Y-147550555D01*
X162833948Y-146773223D01*
X162565916Y-146078876D01*
X162355284Y-145512664D01*
X162218869Y-145119736D01*
X162173333Y-144948303D01*
X162293994Y-144808287D01*
X162561389Y-144800349D01*
X162719741Y-144836382D01*
X162858089Y-144930844D01*
X162999852Y-145124082D01*
X163168449Y-145456447D01*
X163387298Y-145968287D01*
X163679817Y-146699953D01*
X163713438Y-146785277D01*
X163987835Y-147466437D01*
X164231908Y-148043039D01*
X164425258Y-148469097D01*
X164547486Y-148698627D01*
X164574146Y-148725555D01*
X164659066Y-148602315D01*
X164829176Y-148262614D01*
X165063499Y-147751484D01*
X165341057Y-147113958D01*
X165494443Y-146750000D01*
X165812874Y-145992775D01*
X166049094Y-145458395D01*
X166226998Y-145108190D01*
X166370480Y-144903487D01*
X166503435Y-144805617D01*
X166649758Y-144775907D01*
X166715124Y-144774444D01*
X167000875Y-144814005D01*
G37*
X167000875Y-144814005D02*
X167112222Y-144903158D01*
X167058727Y-145062464D01*
X166907977Y-145445486D01*
X166674577Y-146016834D01*
X166373132Y-146741114D01*
X166018244Y-147582936D01*
X165641945Y-148466214D01*
X165199126Y-149498377D01*
X164850620Y-150300363D01*
X164580259Y-150901691D01*
X164371876Y-151331883D01*
X164209305Y-151620461D01*
X164076378Y-151796945D01*
X163956928Y-151890856D01*
X163834789Y-151931716D01*
X163736945Y-151944773D01*
X163435581Y-151957015D01*
X163302550Y-151925981D01*
X163302222Y-151923460D01*
X163353660Y-151771013D01*
X163489334Y-151429668D01*
X163681285Y-150969493D01*
X163707008Y-150909065D01*
X164111794Y-149960202D01*
X163142563Y-147550555D01*
X162833948Y-146773223D01*
X162565916Y-146078876D01*
X162355284Y-145512664D01*
X162218869Y-145119736D01*
X162173333Y-144948303D01*
X162293994Y-144808287D01*
X162561389Y-144800349D01*
X162719741Y-144836382D01*
X162858089Y-144930844D01*
X162999852Y-145124082D01*
X163168449Y-145456447D01*
X163387298Y-145968287D01*
X163679817Y-146699953D01*
X163713438Y-146785277D01*
X163987835Y-147466437D01*
X164231908Y-148043039D01*
X164425258Y-148469097D01*
X164547486Y-148698627D01*
X164574146Y-148725555D01*
X164659066Y-148602315D01*
X164829176Y-148262614D01*
X165063499Y-147751484D01*
X165341057Y-147113958D01*
X165494443Y-146750000D01*
X165812874Y-145992775D01*
X166049094Y-145458395D01*
X166226998Y-145108190D01*
X166370480Y-144903487D01*
X166503435Y-144805617D01*
X166649758Y-144775907D01*
X166715124Y-144774444D01*
X167000875Y-144814005D01*
X138748889Y-150136666D02*
X138043333Y-150136666D01*
X138043333Y-150136666D02*
X138043333Y-142940000D01*
X138043333Y-142940000D02*
X138748889Y-142940000D01*
X138748889Y-142940000D02*
X138748889Y-150136666D01*
X138748889Y-150136666D02*
X138748889Y-150136666D01*
G36*
X138748889Y-150136666D02*
G01*
X138043333Y-150136666D01*
X138043333Y-142940000D01*
X138748889Y-142940000D01*
X138748889Y-150136666D01*
G37*
X138748889Y-150136666D02*
X138043333Y-150136666D01*
X138043333Y-142940000D01*
X138748889Y-142940000D01*
X138748889Y-150136666D01*
X160009800Y-144877976D02*
X160750023Y-145239548D01*
X160750023Y-145239548D02*
X161333535Y-145794789D01*
X161333535Y-145794789D02*
X161720929Y-146509364D01*
X161720929Y-146509364D02*
X161855950Y-147100195D01*
X161855950Y-147100195D02*
X161927815Y-147737777D01*
X161927815Y-147737777D02*
X159581129Y-147737777D01*
X159581129Y-147737777D02*
X158672903Y-147739692D01*
X158672903Y-147739692D02*
X158015334Y-147753997D01*
X158015334Y-147753997D02*
X157576856Y-147793534D01*
X157576856Y-147793534D02*
X157325905Y-147871143D01*
X157325905Y-147871143D02*
X157230915Y-147999667D01*
X157230915Y-147999667D02*
X157260322Y-148191947D01*
X157260322Y-148191947D02*
X157382561Y-148460823D01*
X157382561Y-148460823D02*
X157455469Y-148602540D01*
X157455469Y-148602540D02*
X157751842Y-148948911D01*
X157751842Y-148948911D02*
X158215569Y-149267517D01*
X158215569Y-149267517D02*
X158734166Y-149494000D01*
X158734166Y-149494000D02*
X159139444Y-149566024D01*
X159139444Y-149566024D02*
X159566512Y-149483570D01*
X159566512Y-149483570D02*
X160048917Y-149274601D01*
X160048917Y-149274601D02*
X160481857Y-148996704D01*
X160481857Y-148996704D02*
X160760528Y-148707467D01*
X160760528Y-148707467D02*
X160784724Y-148661965D01*
X160784724Y-148661965D02*
X161015950Y-148375198D01*
X161015950Y-148375198D02*
X161349317Y-148302222D01*
X161349317Y-148302222D02*
X161651758Y-148360234D01*
X161651758Y-148360234D02*
X161750000Y-148488489D01*
X161750000Y-148488489D02*
X161647554Y-148745188D01*
X161647554Y-148745188D02*
X161384092Y-149099671D01*
X161384092Y-149099671D02*
X161025422Y-149481796D01*
X161025422Y-149481796D02*
X160637356Y-149821422D01*
X160637356Y-149821422D02*
X160286944Y-150047821D01*
X160286944Y-150047821D02*
X159695916Y-150219801D01*
X159695916Y-150219801D02*
X159009475Y-150261426D01*
X159009475Y-150261426D02*
X158357786Y-150172934D01*
X158357786Y-150172934D02*
X158010555Y-150043696D01*
X158010555Y-150043696D02*
X157237814Y-149511399D01*
X157237814Y-149511399D02*
X156716701Y-148855110D01*
X156716701Y-148855110D02*
X156440009Y-148063323D01*
X156440009Y-148063323D02*
X156387778Y-147453080D01*
X156387778Y-147453080D02*
X156448914Y-147032222D01*
X156448914Y-147032222D02*
X157215426Y-147032222D01*
X157215426Y-147032222D02*
X159129935Y-147032222D01*
X159129935Y-147032222D02*
X159828135Y-147026851D01*
X159828135Y-147026851D02*
X160412334Y-147012126D01*
X160412334Y-147012126D02*
X160831246Y-146990122D01*
X160831246Y-146990122D02*
X161033584Y-146962919D01*
X161033584Y-146962919D02*
X161044444Y-146954659D01*
X161044444Y-146954659D02*
X160946581Y-146657751D01*
X160946581Y-146657751D02*
X160702575Y-146284981D01*
X160702575Y-146284981D02*
X160386803Y-145936615D01*
X160386803Y-145936615D02*
X160155649Y-145756509D01*
X160155649Y-145756509D02*
X159533162Y-145519903D01*
X159533162Y-145519903D02*
X158875403Y-145504891D01*
X158875403Y-145504891D02*
X158250172Y-145688626D01*
X158250172Y-145688626D02*
X157725271Y-146048261D01*
X157725271Y-146048261D02*
X157368497Y-146560947D01*
X157368497Y-146560947D02*
X157312181Y-146714722D01*
X157312181Y-146714722D02*
X157215426Y-147032222D01*
X157215426Y-147032222D02*
X156448914Y-147032222D01*
X156448914Y-147032222D02*
X156514064Y-146583745D01*
X156514064Y-146583745D02*
X156871904Y-145847463D01*
X156871904Y-145847463D02*
X157429769Y-145275128D01*
X157429769Y-145275128D02*
X158156129Y-144897630D01*
X158156129Y-144897630D02*
X159019456Y-144745863D01*
X159019456Y-144745863D02*
X159152275Y-144744412D01*
X159152275Y-144744412D02*
X160009800Y-144877976D01*
X160009800Y-144877976D02*
X160009800Y-144877976D01*
G36*
X156871904Y-145847463D02*
G01*
X157429769Y-145275128D01*
X158156129Y-144897630D01*
X159019456Y-144745863D01*
X159152275Y-144744412D01*
X160009800Y-144877976D01*
X160750023Y-145239548D01*
X161333535Y-145794789D01*
X161720929Y-146509364D01*
X161855950Y-147100195D01*
X161927815Y-147737777D01*
X159581129Y-147737777D01*
X158672903Y-147739692D01*
X158015334Y-147753997D01*
X157576856Y-147793534D01*
X157325905Y-147871143D01*
X157230915Y-147999667D01*
X157260322Y-148191947D01*
X157382561Y-148460823D01*
X157455469Y-148602540D01*
X157751842Y-148948911D01*
X158215569Y-149267517D01*
X158734166Y-149494000D01*
X159139444Y-149566024D01*
X159566512Y-149483570D01*
X160048917Y-149274601D01*
X160481857Y-148996704D01*
X160760528Y-148707467D01*
X160784724Y-148661965D01*
X161015950Y-148375198D01*
X161349317Y-148302222D01*
X161651758Y-148360234D01*
X161750000Y-148488489D01*
X161647554Y-148745188D01*
X161384092Y-149099671D01*
X161025422Y-149481796D01*
X160637356Y-149821422D01*
X160286944Y-150047821D01*
X159695916Y-150219801D01*
X159009475Y-150261426D01*
X158357786Y-150172934D01*
X158010555Y-150043696D01*
X157237814Y-149511399D01*
X156716701Y-148855110D01*
X156440009Y-148063323D01*
X156387778Y-147453080D01*
X156448914Y-147032222D01*
X157215426Y-147032222D01*
X159129935Y-147032222D01*
X159828135Y-147026851D01*
X160412334Y-147012126D01*
X160831246Y-146990122D01*
X161033584Y-146962919D01*
X161044444Y-146954659D01*
X160946581Y-146657751D01*
X160702575Y-146284981D01*
X160386803Y-145936615D01*
X160155649Y-145756509D01*
X159533162Y-145519903D01*
X158875403Y-145504891D01*
X158250172Y-145688626D01*
X157725271Y-146048261D01*
X157368497Y-146560947D01*
X157312181Y-146714722D01*
X157215426Y-147032222D01*
X156448914Y-147032222D01*
X156514064Y-146583745D01*
X156871904Y-145847463D01*
G37*
X156871904Y-145847463D02*
X157429769Y-145275128D01*
X158156129Y-144897630D01*
X159019456Y-144745863D01*
X159152275Y-144744412D01*
X160009800Y-144877976D01*
X160750023Y-145239548D01*
X161333535Y-145794789D01*
X161720929Y-146509364D01*
X161855950Y-147100195D01*
X161927815Y-147737777D01*
X159581129Y-147737777D01*
X158672903Y-147739692D01*
X158015334Y-147753997D01*
X157576856Y-147793534D01*
X157325905Y-147871143D01*
X157230915Y-147999667D01*
X157260322Y-148191947D01*
X157382561Y-148460823D01*
X157455469Y-148602540D01*
X157751842Y-148948911D01*
X158215569Y-149267517D01*
X158734166Y-149494000D01*
X159139444Y-149566024D01*
X159566512Y-149483570D01*
X160048917Y-149274601D01*
X160481857Y-148996704D01*
X160760528Y-148707467D01*
X160784724Y-148661965D01*
X161015950Y-148375198D01*
X161349317Y-148302222D01*
X161651758Y-148360234D01*
X161750000Y-148488489D01*
X161647554Y-148745188D01*
X161384092Y-149099671D01*
X161025422Y-149481796D01*
X160637356Y-149821422D01*
X160286944Y-150047821D01*
X159695916Y-150219801D01*
X159009475Y-150261426D01*
X158357786Y-150172934D01*
X158010555Y-150043696D01*
X157237814Y-149511399D01*
X156716701Y-148855110D01*
X156440009Y-148063323D01*
X156387778Y-147453080D01*
X156448914Y-147032222D01*
X157215426Y-147032222D01*
X159129935Y-147032222D01*
X159828135Y-147026851D01*
X160412334Y-147012126D01*
X160831246Y-146990122D01*
X161033584Y-146962919D01*
X161044444Y-146954659D01*
X160946581Y-146657751D01*
X160702575Y-146284981D01*
X160386803Y-145936615D01*
X160155649Y-145756509D01*
X159533162Y-145519903D01*
X158875403Y-145504891D01*
X158250172Y-145688626D01*
X157725271Y-146048261D01*
X157368497Y-146560947D01*
X157312181Y-146714722D01*
X157215426Y-147032222D01*
X156448914Y-147032222D01*
X156514064Y-146583745D01*
X156871904Y-145847463D01*
D10*
%TO.C,SW41*%
X162851848Y-159831526D02*
X163260178Y-158918692D01*
X176039856Y-164635318D02*
X175631526Y-165548152D01*
X180435318Y-152360144D02*
X181348152Y-152768474D01*
X181348152Y-152768474D02*
X180939822Y-153681308D01*
X168568474Y-147051848D02*
X169481308Y-147460178D01*
X168160144Y-147964682D02*
X168568474Y-147051848D01*
X163764682Y-160239856D02*
X162851848Y-159831526D01*
X175631526Y-165548152D02*
X174718692Y-165139822D01*
%TO.C,SW17*%
X73962500Y-143018750D02*
X74962500Y-143018750D01*
X87962500Y-156018750D02*
X87962500Y-157018750D01*
X74962500Y-157018750D02*
X73962500Y-157018750D01*
X87962500Y-157018750D02*
X86962500Y-157018750D01*
X73962500Y-144018750D02*
X73962500Y-143018750D01*
X87962500Y-143018750D02*
X87962500Y-144018750D01*
X86962500Y-143018750D02*
X87962500Y-143018750D01*
X73962500Y-157018750D02*
X73962500Y-156018750D01*
D12*
%TO.C,SW42*%
X80462500Y-150018750D02*
X81462500Y-150018750D01*
X76862500Y-157218750D02*
X77162500Y-157518750D01*
X80962500Y-150518750D02*
X80962500Y-149518750D01*
X86862500Y-152018750D02*
X86862500Y-156118750D01*
X75062500Y-156118750D02*
X86862500Y-156118750D01*
X75062500Y-152018750D02*
X75062500Y-156118750D01*
X84462500Y-143918750D02*
X86862500Y-143918750D01*
X76862500Y-157818750D02*
X76862500Y-157218750D01*
X79662500Y-143918750D02*
X82262500Y-143918750D01*
X77162500Y-157518750D02*
X76862500Y-157818750D01*
X75062500Y-148018750D02*
X75062500Y-143918750D01*
X86862500Y-143918750D02*
X86862500Y-148018750D01*
X75062500Y-143918750D02*
X77462500Y-143918750D01*
X83962500Y-150018750D02*
G75*
G03*
X83962500Y-150018750I-3000000J0D01*
G01*
D10*
%TO.C,D13*%
X78549840Y-154019900D02*
X78549840Y-155543900D01*
X79184840Y-154019900D02*
X79184840Y-155543900D01*
X79057840Y-154019900D02*
X79057840Y-155543900D01*
X78803840Y-154019900D02*
X78803840Y-155543900D01*
X78422840Y-155543900D02*
X83502840Y-155543900D01*
X83502840Y-155543900D02*
X83502840Y-154019900D01*
X78676840Y-155543900D02*
X78676840Y-154019900D01*
X83502840Y-154019900D02*
X82994840Y-154019900D01*
X83502840Y-154019900D02*
X78422840Y-154019900D01*
X78930840Y-155543900D02*
X78930840Y-154019900D01*
X78422840Y-154019900D02*
X78422840Y-155543900D01*
%TO.C,SW9*%
X54912500Y-90343750D02*
X54912500Y-89343750D01*
X67912500Y-76343750D02*
X68912500Y-76343750D01*
X54912500Y-76343750D02*
X55912500Y-76343750D01*
X68912500Y-89343750D02*
X68912500Y-90343750D01*
X55912500Y-90343750D02*
X54912500Y-90343750D01*
X54912500Y-77343750D02*
X54912500Y-76343750D01*
X68912500Y-90343750D02*
X67912500Y-90343750D01*
X68912500Y-76343750D02*
X68912500Y-77343750D01*
%TO.C,SW5*%
X35862500Y-76343750D02*
X36862500Y-76343750D01*
X36862500Y-90343750D02*
X35862500Y-90343750D01*
X49862500Y-76343750D02*
X49862500Y-77343750D01*
X49862500Y-90343750D02*
X48862500Y-90343750D01*
X48862500Y-76343750D02*
X49862500Y-76343750D01*
X49862500Y-89343750D02*
X49862500Y-90343750D01*
X35862500Y-90343750D02*
X35862500Y-89343750D01*
X35862500Y-77343750D02*
X35862500Y-76343750D01*
%TO.C,SW37*%
X159868522Y-168965485D02*
X158955688Y-168557155D01*
X164263984Y-156690311D02*
X164672314Y-155777477D01*
X177451992Y-161494103D02*
X177043662Y-162406937D01*
X176539158Y-161085773D02*
X177451992Y-161494103D01*
X158955688Y-168557155D02*
X159364018Y-167644321D01*
X172143696Y-173360947D02*
X171735366Y-174273781D01*
X164672314Y-155777477D02*
X165585148Y-156185807D01*
X171735366Y-174273781D02*
X170822532Y-173865451D01*
%TO.C,D35*%
X38576250Y-163544250D02*
X38576250Y-165068250D01*
X38449250Y-165068250D02*
X38449250Y-163544250D01*
X37941250Y-163544250D02*
X37941250Y-165068250D01*
X38703250Y-163544250D02*
X38703250Y-165068250D01*
X38322250Y-163544250D02*
X38322250Y-165068250D01*
X38068250Y-163544250D02*
X38068250Y-165068250D01*
X43021250Y-163544250D02*
X42513250Y-163544250D01*
X37941250Y-165068250D02*
X43021250Y-165068250D01*
X43021250Y-163544250D02*
X37941250Y-163544250D01*
X43021250Y-165068250D02*
X43021250Y-163544250D01*
X38195250Y-165068250D02*
X38195250Y-163544250D01*
%TO.C,SW44*%
X35862500Y-153543750D02*
X35862500Y-152543750D01*
X49862500Y-166543750D02*
X48862500Y-166543750D01*
X35862500Y-166543750D02*
X35862500Y-165543750D01*
X36862500Y-166543750D02*
X35862500Y-166543750D01*
X49862500Y-152543750D02*
X49862500Y-153543750D01*
X48862500Y-152543750D02*
X49862500Y-152543750D01*
X49862500Y-165543750D02*
X49862500Y-166543750D01*
X35862500Y-152543750D02*
X36862500Y-152543750D01*
%TO.C,SW43*%
X31100000Y-166543750D02*
X31100000Y-165543750D01*
X44100000Y-152543750D02*
X45100000Y-152543750D01*
X31100000Y-152543750D02*
X32100000Y-152543750D01*
X32100000Y-166543750D02*
X31100000Y-166543750D01*
X45100000Y-166543750D02*
X44100000Y-166543750D01*
X45100000Y-152543750D02*
X45100000Y-153543750D01*
X45100000Y-165543750D02*
X45100000Y-166543750D01*
X31100000Y-153543750D02*
X31100000Y-152543750D01*
%TD*%
D15*
%TO.C,D1*%
X36581250Y-88106250D03*
D16*
X44381250Y-88106250D03*
%TD*%
D15*
%TO.C,D2*%
X36581250Y-107156250D03*
D16*
X44381250Y-107156250D03*
%TD*%
D15*
%TO.C,D3*%
X36581250Y-126206250D03*
D16*
X44381250Y-126206250D03*
%TD*%
D15*
%TO.C,D4*%
X36581250Y-145256250D03*
D16*
X44381250Y-145256250D03*
%TD*%
D15*
%TO.C,D6*%
X58012500Y-107156250D03*
D16*
X65812500Y-107156250D03*
%TD*%
D15*
%TO.C,D7*%
X58012500Y-126206250D03*
D16*
X65812500Y-126206250D03*
%TD*%
D15*
%TO.C,D8*%
X58012500Y-145256250D03*
D16*
X65812500Y-145256250D03*
%TD*%
D15*
%TO.C,D9*%
X77062500Y-78581250D03*
D16*
X84862500Y-78581250D03*
%TD*%
D15*
%TO.C,D10*%
X77062500Y-97631250D03*
D16*
X84862500Y-97631250D03*
%TD*%
D15*
%TO.C,D11*%
X77062500Y-116681250D03*
D16*
X84862500Y-116681250D03*
%TD*%
D15*
%TO.C,D12*%
X77062500Y-135731250D03*
D16*
X84862500Y-135731250D03*
%TD*%
D15*
%TO.C,D14*%
X96112500Y-73818750D03*
D16*
X103912500Y-73818750D03*
%TD*%
D15*
%TO.C,D15*%
X96112500Y-92868750D03*
D16*
X103912500Y-92868750D03*
%TD*%
D15*
%TO.C,D16*%
X96112500Y-111918750D03*
D16*
X103912500Y-111918750D03*
%TD*%
D15*
%TO.C,D17*%
X96112500Y-130968750D03*
D16*
X103912500Y-130968750D03*
%TD*%
D15*
%TO.C,D18*%
X96112500Y-150018750D03*
D16*
X103912500Y-150018750D03*
%TD*%
D15*
%TO.C,D19*%
X115162500Y-78581250D03*
D16*
X122962500Y-78581250D03*
%TD*%
D15*
%TO.C,D20*%
X115162500Y-97631250D03*
D16*
X122962500Y-97631250D03*
%TD*%
D15*
%TO.C,D21*%
X115162500Y-116681250D03*
D16*
X122962500Y-116681250D03*
%TD*%
D15*
%TO.C,D22*%
X115162500Y-135731250D03*
D16*
X122962500Y-135731250D03*
%TD*%
D15*
%TO.C,D23*%
X115162500Y-154781250D03*
D16*
X122962500Y-154781250D03*
%TD*%
D15*
%TO.C,D24*%
X134212500Y-83343750D03*
D16*
X142012500Y-83343750D03*
%TD*%
D15*
%TO.C,D25*%
X134212500Y-102393750D03*
D16*
X142012500Y-102393750D03*
%TD*%
D15*
%TO.C,D26*%
X134212500Y-121443750D03*
D16*
X142012500Y-121443750D03*
%TD*%
D15*
%TO.C,D27*%
X134212500Y-140493750D03*
D16*
X142012500Y-140493750D03*
%TD*%
D17*
%TO.C,D28*%
X138835215Y-161403382D03*
D16*
X146464767Y-163025094D03*
%TD*%
D15*
%TO.C,D29*%
X153350000Y-81700000D03*
D16*
X161150000Y-81700000D03*
%TD*%
D15*
%TO.C,D30*%
X153262500Y-107156250D03*
D16*
X161062500Y-107156250D03*
%TD*%
D15*
%TO.C,D31*%
X58012500Y-164306250D03*
D16*
X65812500Y-164306250D03*
%TD*%
D15*
%TO.C,D32*%
X153262500Y-140493750D03*
D16*
X161062500Y-140493750D03*
%TD*%
D18*
%TO.C,D33*%
X162699113Y-167780513D03*
D16*
X169819219Y-170965491D03*
%TD*%
D19*
%TO.C,D34*%
X166457511Y-154460053D03*
D16*
X169642489Y-147339947D03*
%TD*%
D20*
%TO.C,P1*%
X128575000Y-88200000D03*
%TD*%
%TO.C,P2*%
X128575000Y-90425000D03*
%TD*%
D15*
%TO.C,D5*%
X58012500Y-88106250D03*
D16*
X65812500Y-88106250D03*
%TD*%
D21*
%TO.C,U1*%
X130493080Y-108664890D03*
D22*
X130493080Y-111204890D03*
X130493080Y-113744890D03*
X130493080Y-116284890D03*
X130493080Y-118824890D03*
X130493080Y-121364890D03*
X130493080Y-123904890D03*
X130493080Y-126444890D03*
X130493080Y-128984890D03*
X130493080Y-131524890D03*
X130493080Y-134064890D03*
X130493080Y-136604890D03*
X145733080Y-136604890D03*
X145733080Y-134064890D03*
X145733080Y-131524890D03*
X145733080Y-128984890D03*
X145733080Y-126444890D03*
X145733080Y-123904890D03*
X145733080Y-121364890D03*
X145733080Y-118824890D03*
X145733080Y-116284890D03*
X145733080Y-113744890D03*
X145733080Y-111204890D03*
X145733080Y-108664890D03*
%TD*%
D23*
%TO.C,RSW1*%
X147638120Y-103262920D03*
X147638120Y-96762920D03*
%TD*%
D24*
%TO.C,U2*%
X157650000Y-87950000D03*
X157650000Y-86200000D03*
X164650000Y-86200000D03*
X164650000Y-87950000D03*
D25*
X154350000Y-85850000D03*
X154350000Y-88300000D03*
X155850000Y-90050000D03*
X155850000Y-84100000D03*
X159850000Y-84100000D03*
X159850000Y-90050000D03*
X162850000Y-84100000D03*
X162850000Y-90050000D03*
%TD*%
D15*
%TO.C,D13*%
X77062840Y-154781900D03*
D16*
X84862840Y-154781900D03*
%TD*%
D15*
%TO.C,D35*%
X36581250Y-164306250D03*
D16*
X44381250Y-164306250D03*
%TD*%
M02*
