M48
; DRILL file {KiCad (6.0.1)} date Fr 28 Jan 2022 13:41:14 CET
; FORMAT={-:-/ absolute / metric / decimal}
; #@! TF.CreationDate,2022-01-28T13:41:14+01:00
; #@! TF.GenerationSoftware,Kicad,Pcbnew,(6.0.1)
; #@! TF.FileFunction,NonPlated,1,2,NPTH
FMAT,2
METRIC
; #@! TA.AperFunction,NonPlated,NPTH,ComponentDrill
T1C1.200
; #@! TA.AperFunction,NonPlated,NPTH,ComponentDrill
T2C1.500
; #@! TA.AperFunction,NonPlated,NPTH,ComponentDrill
T3C1.702
; #@! TA.AperFunction,NonPlated,NPTH,ComponentDrill
T4C2.400
; #@! TA.AperFunction,NonPlated,NPTH,ComponentDrill
T5C3.048
; #@! TA.AperFunction,NonPlated,NPTH,ComponentDrill
T6C3.988
%
G90
G05
T1
X157.65Y-86.2
X157.65Y-87.95
X164.65Y-86.2
X164.65Y-87.95
T3
X33.02Y-83.344
X33.02Y-102.394
X33.02Y-121.444
X33.02Y-140.494
X33.02Y-159.544
X37.782Y-83.344
X37.782Y-102.394
X37.782Y-121.444
X37.782Y-140.494
X37.782Y-159.544
X43.18Y-83.344
X43.18Y-102.394
X43.18Y-121.444
X43.18Y-140.494
X43.18Y-159.544
X47.942Y-83.344
X47.942Y-102.394
X47.942Y-121.444
X47.942Y-140.494
X47.942Y-159.544
X56.832Y-83.344
X56.832Y-102.394
X56.832Y-121.444
X56.832Y-140.494
X56.832Y-159.544
X66.992Y-83.344
X66.992Y-102.394
X66.992Y-121.444
X66.992Y-140.494
X66.992Y-159.544
X75.882Y-73.819
X75.882Y-92.869
X75.882Y-111.919
X75.882Y-130.969
X75.882Y-150.019
X86.042Y-73.819
X86.042Y-92.869
X86.042Y-111.919
X86.042Y-130.969
X86.042Y-150.019
X94.932Y-69.056
X94.932Y-88.106
X94.932Y-107.156
X94.932Y-126.206
X94.932Y-145.256
X105.093Y-69.056
X105.093Y-88.106
X105.093Y-107.156
X105.093Y-126.206
X105.093Y-145.256
X113.983Y-73.819
X113.983Y-92.869
X113.983Y-111.919
X113.983Y-130.969
X113.983Y-150.019
X124.142Y-73.819
X124.142Y-92.869
X124.142Y-111.919
X124.142Y-130.969
X124.142Y-150.019
X133.032Y-78.581
X133.032Y-97.631
X133.032Y-116.681
X133.032Y-135.731
X138.671Y-156.5
X143.192Y-78.581
X143.192Y-97.631
X143.192Y-116.681
X143.192Y-135.731
X148.609Y-158.612
X152.082Y-78.581
X152.082Y-97.631
X152.082Y-102.394
X152.082Y-130.969
X152.082Y-135.731
X162.243Y-78.581
X162.243Y-97.631
X162.243Y-102.394
X162.243Y-130.969
X162.243Y-135.731
X163.567Y-162.951
X170.026Y-160.937
X171.345Y-145.562
X172.841Y-167.1
X174.174Y-151.663
X180.62Y-149.71
T4
X52.387Y-92.869
X52.387Y-130.969
X128.588Y-83.344
X128.588Y-140.494
T5
X173.617Y-170.015
X183.335Y-148.289
T6
X38.1Y-83.344
X38.1Y-102.394
X38.1Y-121.444
X38.1Y-140.494
X38.1Y-159.544
X42.862Y-83.344
X42.862Y-102.394
X42.862Y-121.444
X42.862Y-140.494
X42.862Y-159.544
X61.912Y-83.344
X61.912Y-102.394
X61.912Y-121.444
X61.912Y-140.494
X61.912Y-159.544
X80.962Y-73.819
X80.962Y-92.869
X80.962Y-111.919
X80.962Y-130.969
X80.962Y-150.019
X100.012Y-69.056
X100.012Y-88.106
X100.012Y-107.156
X100.012Y-126.206
X100.012Y-145.256
X119.062Y-73.819
X119.062Y-92.869
X119.062Y-111.919
X119.062Y-130.969
X119.062Y-150.019
X138.112Y-78.581
X138.112Y-97.631
X138.112Y-116.681
X138.112Y-135.731
X143.64Y-157.556
X157.162Y-78.581
X157.162Y-97.631
X157.162Y-102.394
X157.162Y-130.969
X157.162Y-135.731
X159.705Y-163.792
X168.204Y-165.026
X169.424Y-142.067
X172.1Y-156.3
X175.983Y-147.636
T2
X75.362Y-150.669G85X75.362Y-149.369
G05
X86.562Y-150.669G85X86.562Y-149.369
G05
T0
M30
