M48
; DRILL file {KiCad 5.1.9} date Sat May  1 14:24:34 2021
; FORMAT={-:-/ absolute / inch / decimal}
; #@! TF.CreationDate,2021-05-01T14:24:34+02:00
; #@! TF.GenerationSoftware,Kicad,Pcbnew,5.1.9
; #@! TF.FileFunction,NonPlated,1,2,NPTH
FMAT,2
INCH
T1C0.0472
T2C0.0670
T3C0.1570
T4C0.1772
%
G90
G05
T1
X6.2067Y-3.3937
X6.2067Y-3.4626
X6.4823Y-3.3937
X6.4823Y-3.4626
T2
X1.3Y-3.2812
X1.3Y-4.0312
X1.3Y-4.7812
X1.3Y-5.5312
X1.4875Y-3.2812
X1.4875Y-4.0312
X1.4875Y-4.7812
X1.4875Y-5.5312
X1.7Y-3.2812
X1.7Y-4.0312
X1.7Y-4.7812
X1.7Y-5.5312
X1.8875Y-3.2812
X1.8875Y-4.0312
X1.8875Y-4.7812
X1.8875Y-5.5312
X2.2375Y-3.2812
X2.2375Y-4.0312
X2.2375Y-4.7812
X2.2375Y-5.5312
X2.6375Y-3.2812
X2.6375Y-4.0312
X2.6375Y-4.7812
X2.6375Y-5.5312
X2.9875Y-2.9062
X2.9875Y-3.6562
X2.9875Y-4.4062
X2.9875Y-5.1562
X2.9875Y-5.9062
X3.3875Y-2.9062
X3.3875Y-3.6562
X3.3875Y-4.4062
X3.3875Y-5.1562
X3.3875Y-5.9062
X3.7375Y-2.7188
X3.7375Y-3.4688
X3.7375Y-4.2188
X3.7375Y-4.9688
X3.7375Y-5.7188
X4.1375Y-2.7188
X4.1375Y-3.4688
X4.1375Y-4.2188
X4.1375Y-4.9688
X4.1375Y-5.7188
X4.4875Y-2.9062
X4.4875Y-3.6562
X4.4875Y-4.4062
X4.4875Y-5.1562
X4.4875Y-5.9062
X4.8875Y-2.9062
X4.8875Y-3.6562
X4.8875Y-4.4062
X4.8875Y-5.1562
X4.8875Y-5.9062
X5.2375Y-3.0938
X5.2375Y-3.8438
X5.2375Y-4.5938
X5.2375Y-5.3438
X5.4595Y-6.1614
X5.6375Y-3.0938
X5.6375Y-3.8438
X5.6375Y-4.5938
X5.6375Y-5.3438
X5.8508Y-6.2446
X5.9875Y-3.0938
X5.9875Y-3.8438
X5.9875Y-4.0312
X5.9875Y-4.5938
X5.9875Y-5.1562
X5.9875Y-5.3438
X6.3875Y-3.0938
X6.3875Y-3.8438
X6.3875Y-4.0312
X6.3875Y-4.5938
X6.3875Y-5.1562
X6.3875Y-5.3438
X6.4396Y-6.4154
X6.7459Y-5.7308
X6.8048Y-6.5787
X7.111Y-5.8941
T3
X1.5Y-3.2812
X1.5Y-4.0312
X1.5Y-4.7812
X1.5Y-5.5312
X1.6875Y-3.2812
X1.6875Y-4.0312
X1.6875Y-4.7812
X1.6875Y-5.5312
X2.4375Y-3.2812
X2.4375Y-4.0312
X2.4375Y-4.7812
X2.4375Y-5.5312
X3.1875Y-2.9062
X3.1875Y-3.6562
X3.1875Y-4.4062
X3.1875Y-5.1562
X3.1875Y-5.9062
X3.9375Y-2.7188
X3.9375Y-3.4688
X3.9375Y-4.2188
X3.9375Y-4.9688
X3.9375Y-5.7188
X4.6875Y-2.9062
X4.6875Y-3.6562
X4.6875Y-4.4062
X4.6875Y-5.1562
X4.6875Y-5.9062
X5.4375Y-3.0938
X5.4375Y-3.8438
X5.4375Y-4.5938
X5.4375Y-5.3438
X5.6551Y-6.203
X6.1875Y-3.0938
X6.1875Y-3.8438
X6.1875Y-4.0312
X6.1875Y-4.5938
X6.1875Y-5.1562
X6.1875Y-5.3438
X6.6222Y-6.4971
X6.9284Y-5.8124
T4
X2.0625Y-3.6562
X2.0625Y-5.1562
X5.0625Y-3.2812
X5.0625Y-5.5312
T0
M30
