%TF.GenerationSoftware,KiCad,Pcbnew,5.1.9*%
%TF.CreationDate,2021-05-01T14:24:38+02:00*%
%TF.ProjectId,pcb,7063622e-6b69-4636-9164-5f7063625858,rev?*%
%TF.SameCoordinates,Original*%
%TF.FileFunction,Paste,Bot*%
%TF.FilePolarity,Positive*%
%FSLAX46Y46*%
G04 Gerber Fmt 4.6, Leading zero omitted, Abs format (unit mm)*
G04 Created by KiCad (PCBNEW 5.1.9) date 2021-05-01 14:24:38*
%MOMM*%
%LPD*%
G01*
G04 APERTURE LIST*
%ADD10C,0.100000*%
%ADD11R,1.600000X1.200000*%
%ADD12R,1.143000X0.635000*%
%ADD13R,0.381000X0.381000*%
G04 APERTURE END LIST*
D10*
%TO.C,D34*%
G36*
X173735159Y-151190812D02*
G01*
X173245162Y-152286213D01*
X171784627Y-151632884D01*
X172274624Y-150537483D01*
X173735159Y-151190812D01*
G37*
G36*
X176291095Y-152334138D02*
G01*
X175801098Y-153429539D01*
X174340563Y-152776210D01*
X174830560Y-151680809D01*
X176291095Y-152334138D01*
G37*
%TD*%
%TO.C,D33*%
G36*
X165956464Y-168580303D02*
G01*
X165466467Y-169675704D01*
X164005932Y-169022375D01*
X164495929Y-167926974D01*
X165956464Y-168580303D01*
G37*
G36*
X168512400Y-169723629D02*
G01*
X168022403Y-170819030D01*
X166561868Y-170165701D01*
X167051865Y-169070300D01*
X168512400Y-169723629D01*
G37*
%TD*%
D11*
%TO.C,D32*%
X155762500Y-140493750D03*
X158562500Y-140493750D03*
%TD*%
%TO.C,D31*%
X155762500Y-121443750D03*
X158562500Y-121443750D03*
%TD*%
%TO.C,D30*%
X155762500Y-107156250D03*
X158562500Y-107156250D03*
%TD*%
%TO.C,D29*%
X155850000Y-81700000D03*
X158650000Y-81700000D03*
%TD*%
D10*
%TO.C,D28*%
G36*
X142187849Y-161502603D02*
G01*
X141938355Y-162676380D01*
X140373319Y-162343721D01*
X140622813Y-161169944D01*
X142187849Y-161502603D01*
G37*
G36*
X144926663Y-162084755D02*
G01*
X144677169Y-163258532D01*
X143112133Y-162925873D01*
X143361627Y-161752096D01*
X144926663Y-162084755D01*
G37*
%TD*%
D11*
%TO.C,D27*%
X136712500Y-140493750D03*
X139512500Y-140493750D03*
%TD*%
%TO.C,D26*%
X136712500Y-121443750D03*
X139512500Y-121443750D03*
%TD*%
%TO.C,D25*%
X136712500Y-102393750D03*
X139512500Y-102393750D03*
%TD*%
%TO.C,D24*%
X136712500Y-83343750D03*
X139512500Y-83343750D03*
%TD*%
%TO.C,D23*%
X117662500Y-154781250D03*
X120462500Y-154781250D03*
%TD*%
%TO.C,D22*%
X117662500Y-135731250D03*
X120462500Y-135731250D03*
%TD*%
%TO.C,D21*%
X117662500Y-116681250D03*
X120462500Y-116681250D03*
%TD*%
%TO.C,D20*%
X117662500Y-97631250D03*
X120462500Y-97631250D03*
%TD*%
%TO.C,D19*%
X117662500Y-78581250D03*
X120462500Y-78581250D03*
%TD*%
%TO.C,D18*%
X98612500Y-150018750D03*
X101412500Y-150018750D03*
%TD*%
%TO.C,D17*%
X98612500Y-130968750D03*
X101412500Y-130968750D03*
%TD*%
%TO.C,D16*%
X98612500Y-111918750D03*
X101412500Y-111918750D03*
%TD*%
%TO.C,D15*%
X98612500Y-92868750D03*
X101412500Y-92868750D03*
%TD*%
%TO.C,D14*%
X98612500Y-73818750D03*
X101412500Y-73818750D03*
%TD*%
%TO.C,D13*%
X79562500Y-154781250D03*
X82362500Y-154781250D03*
%TD*%
%TO.C,D12*%
X79562500Y-135731250D03*
X82362500Y-135731250D03*
%TD*%
%TO.C,D11*%
X79562500Y-116681250D03*
X82362500Y-116681250D03*
%TD*%
%TO.C,D10*%
X79562500Y-97631250D03*
X82362500Y-97631250D03*
%TD*%
%TO.C,D9*%
X79562500Y-78581250D03*
X82362500Y-78581250D03*
%TD*%
%TO.C,D8*%
X60512500Y-145256250D03*
X63312500Y-145256250D03*
%TD*%
%TO.C,D7*%
X60512500Y-126206250D03*
X63312500Y-126206250D03*
%TD*%
%TO.C,D6*%
X60512500Y-107156250D03*
X63312500Y-107156250D03*
%TD*%
%TO.C,D5*%
X60512500Y-88106250D03*
X63312500Y-88106250D03*
%TD*%
%TO.C,D4*%
X39081250Y-145256250D03*
X41881250Y-145256250D03*
%TD*%
%TO.C,D3*%
X39081250Y-126206250D03*
X41881250Y-126206250D03*
%TD*%
%TO.C,D2*%
X39081250Y-107156250D03*
X41881250Y-107156250D03*
%TD*%
%TO.C,D1*%
X39081250Y-88106250D03*
X41881250Y-88106250D03*
%TD*%
D12*
%TO.C,JP1*%
X128575000Y-93275380D03*
X128575000Y-92274620D03*
D13*
X128575000Y-92775000D03*
%TD*%
M02*
