M48
; DRILL file {KiCad 5.1.10} date Sat May 29 15:15:50 2021
; FORMAT={-:-/ absolute / inch / decimal}
; #@! TF.CreationDate,2021-05-29T15:15:50+02:00
; #@! TF.GenerationSoftware,Kicad,Pcbnew,5.1.10
; #@! TF.FileFunction,NonPlated,1,2,NPTH
FMAT,2
INCH
T1C0.0472
T2C0.0591
T3C0.0670
T4C0.0945
T5C0.1200
T6C0.1570
%
G90
G05
T1
X6.2067Y-3.3937
X6.2067Y-3.4626
X6.4823Y-3.3937
X6.4823Y-3.4626
T3
X1.3Y-3.2812
X1.3Y-4.0312
X1.3Y-4.7812
X1.3Y-5.5312
X1.4875Y-3.2812
X1.4875Y-4.0312
X1.4875Y-4.7812
X1.4875Y-5.5312
X1.7Y-3.2812
X1.7Y-4.0312
X1.7Y-4.7812
X1.7Y-5.5312
X1.8875Y-3.2812
X1.8875Y-4.0312
X1.8875Y-4.7812
X1.8875Y-5.5312
X2.2375Y-3.2812
X2.2375Y-4.0312
X2.2375Y-4.7812
X2.2375Y-5.5312
X2.6375Y-3.2812
X2.6375Y-4.0312
X2.6375Y-4.7812
X2.6375Y-5.5312
X2.9875Y-2.9062
X2.9875Y-3.6562
X2.9875Y-4.4062
X2.9875Y-5.1562
X2.9875Y-5.9062
X3.3875Y-2.9062
X3.3875Y-3.6562
X3.3875Y-4.4062
X3.3875Y-5.1562
X3.3875Y-5.9062
X3.7375Y-2.7188
X3.7375Y-3.4688
X3.7375Y-4.2188
X3.7375Y-4.9688
X3.7375Y-5.7188
X4.1375Y-2.7188
X4.1375Y-3.4688
X4.1375Y-4.2188
X4.1375Y-4.9688
X4.1375Y-5.7188
X4.4875Y-2.9062
X4.4875Y-3.6562
X4.4875Y-4.4062
X4.4875Y-5.1562
X4.4875Y-5.9062
X4.8875Y-2.9062
X4.8875Y-3.6562
X4.8875Y-4.4062
X4.8875Y-5.1562
X4.8875Y-5.9062
X5.2375Y-3.0938
X5.2375Y-3.8438
X5.2375Y-4.5938
X5.2375Y-5.3438
X5.4595Y-6.1614
X5.6375Y-3.0938
X5.6375Y-3.8438
X5.6375Y-4.5938
X5.6375Y-5.3438
X5.8508Y-6.2446
X5.9875Y-3.0938
X5.9875Y-3.8438
X5.9875Y-4.0312
X5.9875Y-4.5938
X5.9875Y-5.1562
X5.9875Y-5.3438
X6.3875Y-3.0938
X6.3875Y-3.8438
X6.3875Y-4.0312
X6.3875Y-4.5938
X6.3875Y-5.1562
X6.3875Y-5.3438
X6.4396Y-6.4154
X6.6939Y-6.3361
X6.7459Y-5.7308
X6.8048Y-6.5787
X6.8573Y-5.971
X7.111Y-5.8941
T4
X2.0625Y-3.6562
X2.0625Y-5.1562
X5.0625Y-3.2812
X5.0625Y-5.5312
T5
X6.8353Y-6.6935
X7.2179Y-5.8382
T6
X1.5Y-3.2812
X1.5Y-4.0312
X1.5Y-4.7812
X1.5Y-5.5312
X1.6875Y-3.2812
X1.6875Y-4.0312
X1.6875Y-4.7812
X1.6875Y-5.5312
X2.4375Y-3.2812
X2.4375Y-4.0312
X2.4375Y-4.7812
X2.4375Y-5.5312
X3.1875Y-2.9062
X3.1875Y-3.6562
X3.1875Y-4.4062
X3.1875Y-5.1562
X3.1875Y-5.9062
X3.9375Y-2.7188
X3.9375Y-3.4688
X3.9375Y-4.2188
X3.9375Y-4.9688
X3.9375Y-5.7188
X4.6875Y-2.9062
X4.6875Y-3.6562
X4.6875Y-4.4062
X4.6875Y-5.1562
X4.6875Y-5.9062
X5.4375Y-3.0938
X5.4375Y-3.8438
X5.4375Y-4.5938
X5.4375Y-5.3438
X5.6551Y-6.203
X6.1875Y-3.0938
X6.1875Y-3.8438
X6.1875Y-4.0312
X6.1875Y-4.5938
X6.1875Y-5.1562
X6.1875Y-5.3438
X6.2876Y-6.4485
X6.6222Y-6.4971
X6.6702Y-5.5932
X6.7756Y-6.1535
X6.9284Y-5.8124
T2
G00X2.967Y-5.9318
M15
G01X2.967Y-5.8807
M16
G05
G00X3.408Y-5.9318
M15
G01X3.408Y-5.8807
M16
G05
T0
M30
