%TF.GenerationSoftware,KiCad,Pcbnew,(6.0.1)*%
%TF.CreationDate,2022-01-28T13:41:17+01:00*%
%TF.ProjectId,pcb,7063622e-6b69-4636-9164-5f7063625858,rev?*%
%TF.SameCoordinates,Original*%
%TF.FileFunction,Soldermask,Bot*%
%TF.FilePolarity,Negative*%
%FSLAX46Y46*%
G04 Gerber Fmt 4.6, Leading zero omitted, Abs format (unit mm)*
G04 Created by KiCad (PCBNEW (6.0.1)) date 2022-01-28 13:41:17*
%MOMM*%
%LPD*%
G01*
G04 APERTURE LIST*
G04 Aperture macros list*
%AMRotRect*
0 Rectangle, with rotation*
0 The origin of the aperture is its center*
0 $1 length*
0 $2 width*
0 $3 Rotation angle, in degrees counterclockwise*
0 Add horizontal line*
21,1,$1,$2,0,0,$3*%
G04 Aperture macros list end*
%ADD10C,3.400000*%
%ADD11R,1.600000X1.200000*%
%ADD12R,1.600000X1.600000*%
%ADD13C,1.600000*%
%ADD14RotRect,1.600000X1.600000X168.000000*%
%ADD15RotRect,1.600000X1.200000X168.000000*%
%ADD16RotRect,1.600000X1.200000X155.900000*%
%ADD17RotRect,1.600000X1.600000X155.900000*%
%ADD18RotRect,1.600000X1.600000X245.900000*%
%ADD19RotRect,1.600000X1.200000X245.900000*%
%ADD20C,1.100000*%
%ADD21O,1.200000X1.900000*%
%ADD22R,1.700000X1.700000*%
%ADD23O,1.700000X1.700000*%
%ADD24C,1.397000*%
%ADD25C,1.701800*%
%ADD26C,3.987800*%
%ADD27C,2.286000*%
%ADD28R,1.752600X1.752600*%
%ADD29C,1.752600*%
%ADD30C,2.000000*%
%ADD31C,1.200000*%
%ADD32O,2.500000X1.700000*%
%ADD33C,3.048000*%
%ADD34O,1.500000X2.800000*%
%ADD35R,2.000000X2.000000*%
%ADD36R,0.381000X0.381000*%
%ADD37R,1.143000X0.635000*%
G04 APERTURE END LIST*
D10*
%TO.C,H4*%
X128587500Y-140493750D03*
%TD*%
D11*
%TO.C,D1*%
X39081250Y-88106250D03*
D12*
X36581250Y-88106250D03*
D11*
X41881250Y-88106250D03*
D13*
X44381250Y-88106250D03*
%TD*%
D12*
%TO.C,D2*%
X36581250Y-107156250D03*
D11*
X39081250Y-107156250D03*
D13*
X44381250Y-107156250D03*
D11*
X41881250Y-107156250D03*
%TD*%
%TO.C,D3*%
X39081250Y-126206250D03*
D12*
X36581250Y-126206250D03*
D13*
X44381250Y-126206250D03*
D11*
X41881250Y-126206250D03*
%TD*%
%TO.C,D4*%
X39081250Y-145256250D03*
D12*
X36581250Y-145256250D03*
D13*
X44381250Y-145256250D03*
D11*
X41881250Y-145256250D03*
%TD*%
D12*
%TO.C,D6*%
X58012500Y-107156250D03*
D11*
X60512500Y-107156250D03*
X63312500Y-107156250D03*
D13*
X65812500Y-107156250D03*
%TD*%
D11*
%TO.C,D7*%
X60512500Y-126206250D03*
D12*
X58012500Y-126206250D03*
D13*
X65812500Y-126206250D03*
D11*
X63312500Y-126206250D03*
%TD*%
%TO.C,D8*%
X60512500Y-145256250D03*
D12*
X58012500Y-145256250D03*
D11*
X63312500Y-145256250D03*
D13*
X65812500Y-145256250D03*
%TD*%
D12*
%TO.C,D9*%
X77062500Y-78581250D03*
D11*
X79562500Y-78581250D03*
X82362500Y-78581250D03*
D13*
X84862500Y-78581250D03*
%TD*%
D12*
%TO.C,D10*%
X77062500Y-97631250D03*
D11*
X79562500Y-97631250D03*
X82362500Y-97631250D03*
D13*
X84862500Y-97631250D03*
%TD*%
D11*
%TO.C,D11*%
X79562500Y-116681250D03*
D12*
X77062500Y-116681250D03*
D13*
X84862500Y-116681250D03*
D11*
X82362500Y-116681250D03*
%TD*%
%TO.C,D12*%
X79562500Y-135731250D03*
D12*
X77062500Y-135731250D03*
D13*
X84862500Y-135731250D03*
D11*
X82362500Y-135731250D03*
%TD*%
D12*
%TO.C,D14*%
X96112500Y-73818750D03*
D11*
X98612500Y-73818750D03*
X101412500Y-73818750D03*
D13*
X103912500Y-73818750D03*
%TD*%
D12*
%TO.C,D15*%
X96112500Y-92868750D03*
D11*
X98612500Y-92868750D03*
D13*
X103912500Y-92868750D03*
D11*
X101412500Y-92868750D03*
%TD*%
%TO.C,D16*%
X98612500Y-111918750D03*
D12*
X96112500Y-111918750D03*
D13*
X103912500Y-111918750D03*
D11*
X101412500Y-111918750D03*
%TD*%
%TO.C,D17*%
X98612500Y-130968750D03*
D12*
X96112500Y-130968750D03*
D11*
X101412500Y-130968750D03*
D13*
X103912500Y-130968750D03*
%TD*%
D12*
%TO.C,D18*%
X96112500Y-150018750D03*
D11*
X98612500Y-150018750D03*
X101412500Y-150018750D03*
D13*
X103912500Y-150018750D03*
%TD*%
D12*
%TO.C,D19*%
X115162500Y-78581250D03*
D11*
X117662500Y-78581250D03*
X120462500Y-78581250D03*
D13*
X122962500Y-78581250D03*
%TD*%
D12*
%TO.C,D20*%
X115162500Y-97631250D03*
D11*
X117662500Y-97631250D03*
X120462500Y-97631250D03*
D13*
X122962500Y-97631250D03*
%TD*%
D12*
%TO.C,D21*%
X115162500Y-116681250D03*
D11*
X117662500Y-116681250D03*
D13*
X122962500Y-116681250D03*
D11*
X120462500Y-116681250D03*
%TD*%
%TO.C,D22*%
X117662500Y-135731250D03*
D12*
X115162500Y-135731250D03*
D13*
X122962500Y-135731250D03*
D11*
X120462500Y-135731250D03*
%TD*%
%TO.C,D23*%
X117662500Y-154781250D03*
D12*
X115162500Y-154781250D03*
D13*
X122962500Y-154781250D03*
D11*
X120462500Y-154781250D03*
%TD*%
D12*
%TO.C,D24*%
X134212500Y-83343750D03*
D11*
X136712500Y-83343750D03*
D13*
X142012500Y-83343750D03*
D11*
X139512500Y-83343750D03*
%TD*%
%TO.C,D25*%
X136712500Y-102393750D03*
D12*
X134212500Y-102393750D03*
D13*
X142012500Y-102393750D03*
D11*
X139512500Y-102393750D03*
%TD*%
%TO.C,D26*%
X136712500Y-121443750D03*
D12*
X134212500Y-121443750D03*
D11*
X139512500Y-121443750D03*
D13*
X142012500Y-121443750D03*
%TD*%
D12*
%TO.C,D27*%
X134212500Y-140493750D03*
D11*
X136712500Y-140493750D03*
X139512500Y-140493750D03*
D13*
X142012500Y-140493750D03*
%TD*%
D14*
%TO.C,D28*%
X138835215Y-161403382D03*
D15*
X141280584Y-161923162D03*
D13*
X146464767Y-163025094D03*
D15*
X144019398Y-162505314D03*
%TD*%
D11*
%TO.C,D29*%
X155850000Y-81700000D03*
D12*
X153350000Y-81700000D03*
D13*
X161150000Y-81700000D03*
D11*
X158650000Y-81700000D03*
%TD*%
D12*
%TO.C,D30*%
X153262500Y-107156250D03*
D11*
X155762500Y-107156250D03*
D13*
X161062500Y-107156250D03*
D11*
X158562500Y-107156250D03*
%TD*%
%TO.C,D31*%
X60512500Y-164306250D03*
D12*
X58012500Y-164306250D03*
D11*
X63312500Y-164306250D03*
D13*
X65812500Y-164306250D03*
%TD*%
D11*
%TO.C,D32*%
X155762500Y-140493750D03*
D12*
X153262500Y-140493750D03*
D13*
X161062500Y-140493750D03*
D11*
X158562500Y-140493750D03*
%TD*%
D16*
%TO.C,D33*%
X164981198Y-168801339D03*
D17*
X162699113Y-167780513D03*
D13*
X169819219Y-170965491D03*
D16*
X167537134Y-169944665D03*
%TD*%
D18*
%TO.C,D34*%
X166457511Y-154460053D03*
D19*
X167478337Y-152177968D03*
D13*
X169642489Y-147339947D03*
D19*
X168621663Y-149622032D03*
%TD*%
D10*
%TO.C,H1*%
X128587500Y-83343750D03*
%TD*%
%TO.C,H2*%
X52387500Y-130968750D03*
%TD*%
%TO.C,H3*%
X52387500Y-92868750D03*
%TD*%
D20*
%TO.C,J1*%
X149250000Y-76450000D03*
X148450000Y-75250000D03*
X147650000Y-76450000D03*
X146850000Y-75250000D03*
X146050000Y-76450000D03*
D21*
X144000000Y-71030000D03*
X151300000Y-71030000D03*
%TD*%
D22*
%TO.C,J2*%
X147515000Y-88225000D03*
D23*
X144975000Y-88225000D03*
X142435000Y-88225000D03*
X139895000Y-88225000D03*
X137355000Y-88225000D03*
%TD*%
D24*
%TO.C,P1*%
X128575000Y-88200000D03*
%TD*%
%TO.C,P2*%
X128575000Y-90425000D03*
%TD*%
D25*
%TO.C,SW1*%
X33020000Y-83343750D03*
D26*
X38100000Y-83343750D03*
D25*
X43180000Y-83343750D03*
D27*
X35560000Y-78263750D03*
X34290000Y-80803750D03*
X41910000Y-80803750D03*
X40640000Y-78263750D03*
%TD*%
D25*
%TO.C,SW2*%
X33020000Y-102393750D03*
X43180000Y-102393750D03*
D26*
X38100000Y-102393750D03*
D27*
X35560000Y-97313750D03*
X34290000Y-99853750D03*
X40640000Y-97313750D03*
X41910000Y-99853750D03*
%TD*%
D25*
%TO.C,SW4*%
X43180000Y-140493750D03*
X33020000Y-140493750D03*
D26*
X38100000Y-140493750D03*
D27*
X35560000Y-135413750D03*
X34290000Y-137953750D03*
X40640000Y-135413750D03*
X41910000Y-137953750D03*
%TD*%
D26*
%TO.C,SW6*%
X42862500Y-102393750D03*
D25*
X37782500Y-102393750D03*
X47942500Y-102393750D03*
D27*
X40322500Y-97313750D03*
X39052500Y-99853750D03*
X45402500Y-97313750D03*
X46672500Y-99853750D03*
%TD*%
D25*
%TO.C,SW8*%
X37782500Y-140493750D03*
D26*
X42862500Y-140493750D03*
D25*
X47942500Y-140493750D03*
D27*
X39052500Y-137953750D03*
X40322500Y-135413750D03*
X46672500Y-137953750D03*
X45402500Y-135413750D03*
%TD*%
D25*
%TO.C,SW10*%
X66992500Y-102393750D03*
D26*
X61912500Y-102393750D03*
D25*
X56832500Y-102393750D03*
D27*
X59372500Y-97313750D03*
X58102500Y-99853750D03*
X64452500Y-97313750D03*
X65722500Y-99853750D03*
%TD*%
D25*
%TO.C,SW11*%
X66992500Y-121443750D03*
X56832500Y-121443750D03*
D26*
X61912500Y-121443750D03*
D27*
X59372500Y-116363750D03*
X58102500Y-118903750D03*
X65722500Y-118903750D03*
X64452500Y-116363750D03*
%TD*%
D26*
%TO.C,SW12*%
X61912500Y-140493750D03*
D25*
X66992500Y-140493750D03*
X56832500Y-140493750D03*
D27*
X58102500Y-137953750D03*
X59372500Y-135413750D03*
X65722500Y-137953750D03*
X64452500Y-135413750D03*
%TD*%
D25*
%TO.C,SW14*%
X86042500Y-92868750D03*
X75882500Y-92868750D03*
D26*
X80962500Y-92868750D03*
D27*
X77152500Y-90328750D03*
X78422500Y-87788750D03*
X84772500Y-90328750D03*
X83502500Y-87788750D03*
%TD*%
D25*
%TO.C,SW15*%
X86042500Y-111918750D03*
X75882500Y-111918750D03*
D26*
X80962500Y-111918750D03*
D27*
X78422500Y-106838750D03*
X77152500Y-109378750D03*
X84772500Y-109378750D03*
X83502500Y-106838750D03*
%TD*%
D26*
%TO.C,SW16*%
X80962500Y-130968750D03*
D25*
X86042500Y-130968750D03*
X75882500Y-130968750D03*
D27*
X78422500Y-125888750D03*
X77152500Y-128428750D03*
X83502500Y-125888750D03*
X84772500Y-128428750D03*
%TD*%
D25*
%TO.C,SW19*%
X94932500Y-88106250D03*
D26*
X100012500Y-88106250D03*
D25*
X105092500Y-88106250D03*
D27*
X97472500Y-83026250D03*
X96202500Y-85566250D03*
X103822500Y-85566250D03*
X102552500Y-83026250D03*
%TD*%
D26*
%TO.C,SW20*%
X100012500Y-107156250D03*
D25*
X94932500Y-107156250D03*
X105092500Y-107156250D03*
D27*
X97472500Y-102076250D03*
X96202500Y-104616250D03*
X102552500Y-102076250D03*
X103822500Y-104616250D03*
%TD*%
D25*
%TO.C,SW22*%
X105092500Y-145256250D03*
X94932500Y-145256250D03*
D26*
X100012500Y-145256250D03*
D27*
X96202500Y-142716250D03*
X97472500Y-140176250D03*
X102552500Y-140176250D03*
X103822500Y-142716250D03*
%TD*%
D26*
%TO.C,SW23*%
X119062500Y-73818750D03*
D25*
X113982500Y-73818750D03*
X124142500Y-73818750D03*
D27*
X115252500Y-71278750D03*
X116522500Y-68738750D03*
X121602500Y-68738750D03*
X122872500Y-71278750D03*
%TD*%
D26*
%TO.C,SW24*%
X119062500Y-92868750D03*
D25*
X113982500Y-92868750D03*
X124142500Y-92868750D03*
D27*
X115252500Y-90328750D03*
X116522500Y-87788750D03*
X122872500Y-90328750D03*
X121602500Y-87788750D03*
%TD*%
D25*
%TO.C,SW25*%
X113982500Y-111918750D03*
X124142500Y-111918750D03*
D26*
X119062500Y-111918750D03*
D27*
X116522500Y-106838750D03*
X115252500Y-109378750D03*
X121602500Y-106838750D03*
X122872500Y-109378750D03*
%TD*%
D25*
%TO.C,SW26*%
X124142500Y-130968750D03*
D26*
X119062500Y-130968750D03*
D25*
X113982500Y-130968750D03*
D27*
X115252500Y-128428750D03*
X116522500Y-125888750D03*
X121602500Y-125888750D03*
X122872500Y-128428750D03*
%TD*%
D25*
%TO.C,SW27*%
X124142500Y-150018750D03*
D26*
X119062500Y-150018750D03*
D25*
X113982500Y-150018750D03*
D27*
X115252500Y-147478750D03*
X116522500Y-144938750D03*
X122872500Y-147478750D03*
X121602500Y-144938750D03*
%TD*%
D25*
%TO.C,SW28*%
X143192500Y-78581250D03*
D26*
X138112500Y-78581250D03*
D25*
X133032500Y-78581250D03*
D27*
X134302500Y-76041250D03*
X135572500Y-73501250D03*
X140652500Y-73501250D03*
X141922500Y-76041250D03*
%TD*%
D25*
%TO.C,SW29*%
X143192500Y-97631250D03*
X133032500Y-97631250D03*
D26*
X138112500Y-97631250D03*
D27*
X134302500Y-95091250D03*
X135572500Y-92551250D03*
X141922500Y-95091250D03*
X140652500Y-92551250D03*
%TD*%
D25*
%TO.C,SW30*%
X133032500Y-116681250D03*
D26*
X138112500Y-116681250D03*
D25*
X143192500Y-116681250D03*
D27*
X135572500Y-111601250D03*
X134302500Y-114141250D03*
X141922500Y-114141250D03*
X140652500Y-111601250D03*
%TD*%
D26*
%TO.C,SW31*%
X138112500Y-135731250D03*
D25*
X133032500Y-135731250D03*
X143192500Y-135731250D03*
D27*
X135572500Y-130651250D03*
X134302500Y-133191250D03*
X140652500Y-130651250D03*
X141922500Y-133191250D03*
%TD*%
D25*
%TO.C,SW33*%
X162242500Y-78581250D03*
D26*
X157162500Y-78581250D03*
D25*
X152082500Y-78581250D03*
D27*
X154622500Y-73501250D03*
X153352500Y-76041250D03*
X159702500Y-73501250D03*
X160972500Y-76041250D03*
%TD*%
D25*
%TO.C,SW34*%
X152082500Y-97631250D03*
X162242500Y-97631250D03*
D26*
X157162500Y-97631250D03*
D27*
X154622500Y-92551250D03*
X153352500Y-95091250D03*
X159702500Y-92551250D03*
X160972500Y-95091250D03*
%TD*%
D25*
%TO.C,SW35*%
X56832500Y-159543750D03*
D26*
X61912500Y-159543750D03*
D25*
X66992500Y-159543750D03*
D27*
X58102500Y-157003750D03*
X59372500Y-154463750D03*
X64452500Y-154463750D03*
X65722500Y-157003750D03*
%TD*%
D26*
%TO.C,SW36*%
X157162500Y-130968750D03*
D25*
X152082500Y-130968750D03*
X162242500Y-130968750D03*
D27*
X154622500Y-125888750D03*
X153352500Y-128428750D03*
X160972500Y-128428750D03*
X159702500Y-125888750D03*
%TD*%
D25*
%TO.C,SW38*%
X171345337Y-145561819D03*
D26*
X175982535Y-147636138D03*
D25*
X180619733Y-149710457D03*
D27*
X173541796Y-143761800D03*
X175738255Y-141961781D03*
X180375453Y-144036100D03*
X180497593Y-146873278D03*
%TD*%
D25*
%TO.C,SW39*%
X162242500Y-102393750D03*
D26*
X157162500Y-102393750D03*
D25*
X152082500Y-102393750D03*
D27*
X153352500Y-99853750D03*
X154622500Y-97313750D03*
X160972500Y-99853750D03*
X159702500Y-97313750D03*
%TD*%
D26*
%TO.C,SW40*%
X157162500Y-135731250D03*
D25*
X162242500Y-135731250D03*
X152082500Y-135731250D03*
D27*
X153352500Y-133191250D03*
X154622500Y-130651250D03*
X160972500Y-133191250D03*
X159702500Y-130651250D03*
%TD*%
D25*
%TO.C,SW32*%
X148609161Y-158612001D03*
D26*
X143640171Y-157555810D03*
D25*
X138671181Y-156499619D03*
D27*
X142211867Y-152058724D03*
X140441524Y-154279172D03*
X147895009Y-155863459D03*
X147180857Y-153114916D03*
%TD*%
D25*
%TO.C,SW3*%
X43180000Y-121443750D03*
D26*
X38100000Y-121443750D03*
D25*
X33020000Y-121443750D03*
D27*
X35560000Y-116363750D03*
X34290000Y-118903750D03*
X40640000Y-116363750D03*
X41910000Y-118903750D03*
%TD*%
D25*
%TO.C,SW13*%
X75882500Y-73818750D03*
D26*
X80962500Y-73818750D03*
D25*
X86042500Y-73818750D03*
D27*
X77152500Y-71278750D03*
X78422500Y-68738750D03*
X83502500Y-68738750D03*
X84772500Y-71278750D03*
%TD*%
D25*
%TO.C,SW18*%
X105092500Y-69056250D03*
D26*
X100012500Y-69056250D03*
D25*
X94932500Y-69056250D03*
D27*
X97472500Y-63976250D03*
X96202500Y-66516250D03*
X102552500Y-63976250D03*
X103822500Y-66516250D03*
%TD*%
D25*
%TO.C,SW7*%
X37782500Y-121443750D03*
D26*
X42862500Y-121443750D03*
D25*
X47942500Y-121443750D03*
D27*
X39052500Y-118903750D03*
X40322500Y-116363750D03*
X45402500Y-116363750D03*
X46672500Y-118903750D03*
%TD*%
D11*
%TO.C,D5*%
X60512500Y-88106250D03*
D12*
X58012500Y-88106250D03*
D13*
X65812500Y-88106250D03*
D11*
X63312500Y-88106250D03*
%TD*%
D28*
%TO.C,U1*%
X130493080Y-108664890D03*
D29*
X130493080Y-111204890D03*
X130493080Y-113744890D03*
X130493080Y-116284890D03*
X130493080Y-118824890D03*
X130493080Y-121364890D03*
X130493080Y-123904890D03*
X130493080Y-126444890D03*
X130493080Y-128984890D03*
X130493080Y-131524890D03*
X130493080Y-134064890D03*
X130493080Y-136604890D03*
X145733080Y-136604890D03*
X145733080Y-134064890D03*
X145733080Y-131524890D03*
X145733080Y-128984890D03*
X145733080Y-126444890D03*
X145733080Y-123904890D03*
X145733080Y-121364890D03*
X145733080Y-118824890D03*
X145733080Y-116284890D03*
X145733080Y-113744890D03*
X145733080Y-111204890D03*
X145733080Y-108664890D03*
%TD*%
D30*
%TO.C,RSW1*%
X147638120Y-103262920D03*
X147638120Y-96762920D03*
%TD*%
D26*
%TO.C,SW21*%
X100012500Y-126206250D03*
D25*
X94932500Y-126206250D03*
X105092500Y-126206250D03*
D27*
X97472500Y-121126250D03*
X96202500Y-123666250D03*
X102552500Y-121126250D03*
X103822500Y-123666250D03*
%TD*%
D31*
%TO.C,U2*%
X157650000Y-87950000D03*
X157650000Y-86200000D03*
X164650000Y-86200000D03*
X164650000Y-87950000D03*
D32*
X154350000Y-85850000D03*
X154350000Y-88300000D03*
X155850000Y-90050000D03*
X155850000Y-84100000D03*
X159850000Y-84100000D03*
X159850000Y-90050000D03*
X162850000Y-84100000D03*
X162850000Y-90050000D03*
%TD*%
D25*
%TO.C,SW41*%
X170025681Y-160937198D03*
D26*
X172100000Y-156300000D03*
D25*
X174174319Y-151662802D03*
D27*
X177774357Y-156055720D03*
X175974338Y-153859261D03*
X175700038Y-160692918D03*
X172862860Y-160815058D03*
%TD*%
D33*
%TO.C,REF\u002A\u002A*%
X183335279Y-148289462D03*
D26*
X159705421Y-163791959D03*
X169423686Y-142066505D03*
D33*
X173617014Y-170014915D03*
%TD*%
D25*
%TO.C,SW17*%
X86042500Y-150018750D03*
X75882500Y-150018750D03*
D26*
X80962500Y-150018750D03*
D27*
X77152500Y-147478750D03*
X78422500Y-144938750D03*
X84772500Y-147478750D03*
X83502500Y-144938750D03*
%TD*%
D34*
%TO.C,SW42*%
X75362500Y-150018750D03*
X86562500Y-150018750D03*
D35*
X78462500Y-157518750D03*
D30*
X83462500Y-157518750D03*
X80962500Y-157518750D03*
X83462500Y-143018750D03*
X78462500Y-143018750D03*
%TD*%
D11*
%TO.C,D13*%
X79562840Y-154781900D03*
D12*
X77062840Y-154781900D03*
D11*
X82362840Y-154781900D03*
D13*
X84862840Y-154781900D03*
%TD*%
D25*
%TO.C,SW9*%
X66992500Y-83343750D03*
D26*
X61912500Y-83343750D03*
D25*
X56832500Y-83343750D03*
D27*
X59372500Y-78263750D03*
X58102500Y-80803750D03*
X65722500Y-80803750D03*
X64452500Y-78263750D03*
%TD*%
D25*
%TO.C,SW5*%
X37782500Y-83343750D03*
X47942500Y-83343750D03*
D26*
X42862500Y-83343750D03*
D27*
X40322500Y-78263750D03*
X39052500Y-80803750D03*
X46672500Y-80803750D03*
X45402500Y-78263750D03*
%TD*%
D26*
%TO.C,SW37*%
X168203840Y-165025629D03*
D25*
X172841038Y-167099948D03*
X163566642Y-162951310D03*
D27*
X165763101Y-161151291D03*
X167959560Y-159351272D03*
X172596758Y-161425591D03*
X172718898Y-164262769D03*
%TD*%
D12*
%TO.C,D35*%
X36581250Y-164306250D03*
D11*
X39081250Y-164306250D03*
X41881250Y-164306250D03*
D13*
X44381250Y-164306250D03*
%TD*%
D25*
%TO.C,SW44*%
X37782500Y-159543750D03*
X47942500Y-159543750D03*
D26*
X42862500Y-159543750D03*
D27*
X40322500Y-154463750D03*
X39052500Y-157003750D03*
X46672500Y-157003750D03*
X45402500Y-154463750D03*
%TD*%
D25*
%TO.C,SW43*%
X43180000Y-159543750D03*
D26*
X38100000Y-159543750D03*
D25*
X33020000Y-159543750D03*
D27*
X35560000Y-154463750D03*
X34290000Y-157003750D03*
X40640000Y-154463750D03*
X41910000Y-157003750D03*
%TD*%
D36*
%TO.C,JP1*%
X128575000Y-92775000D03*
D37*
X128575000Y-93275380D03*
X128575000Y-92274620D03*
%TD*%
M02*
