M48
; DRILL file {KiCad (6.0.1)} date Fr 28 Jan 2022 13:41:14 CET
; FORMAT={-:-/ absolute / metric / decimal}
; #@! TF.CreationDate,2022-01-28T13:41:14+01:00
; #@! TF.GenerationSoftware,Kicad,Pcbnew,(6.0.1)
; #@! TF.FileFunction,Plated,1,2,PTH
FMAT,2
METRIC
; #@! TA.AperFunction,Plated,PTH,ViaDrill
T1C0.400
; #@! TA.AperFunction,Plated,PTH,ComponentDrill
T2C0.700
; #@! TA.AperFunction,Plated,PTH,ComponentDrill
T3C0.800
; #@! TA.AperFunction,Plated,PTH,ComponentDrill
T4C0.813
; #@! TA.AperFunction,Plated,PTH,ComponentDrill
T5C1.000
; #@! TA.AperFunction,Plated,PTH,ComponentDrill
T6C1.092
; #@! TA.AperFunction,Plated,PTH,ComponentDrill
T7C1.300
; #@! TA.AperFunction,Plated,PTH,ComponentDrill
T8C1.499
%
G90
G05
T1
X38.1Y-116.682
X87.35Y-156.4
X140.75Y-163.65
X142.3Y-163.6
X144.7Y-152.55
X150.926Y-142.318
X165.7Y-158.75
X178.0Y-142.9
X178.75Y-153.6
T2
X146.05Y-76.45
X146.85Y-75.25
X147.65Y-76.45
X148.45Y-75.25
X149.25Y-76.45
T4
X128.575Y-88.2
X128.575Y-90.425
T5
X36.581Y-88.106
X36.581Y-107.156
X36.581Y-126.206
X36.581Y-145.256
X36.581Y-164.306
X44.381Y-88.106
X44.381Y-107.156
X44.381Y-126.206
X44.381Y-145.256
X44.381Y-164.306
X58.012Y-88.106
X58.012Y-107.156
X58.012Y-126.206
X58.012Y-145.256
X58.012Y-164.306
X65.812Y-88.106
X65.812Y-107.156
X65.812Y-126.206
X65.812Y-145.256
X65.812Y-164.306
X77.062Y-78.581
X77.062Y-97.631
X77.062Y-116.681
X77.062Y-135.731
X77.063Y-154.782
X78.462Y-143.019
X78.462Y-157.519
X80.962Y-157.519
X83.462Y-143.019
X83.462Y-157.519
X84.862Y-78.581
X84.862Y-97.631
X84.862Y-116.681
X84.862Y-135.731
X84.863Y-154.782
X96.112Y-73.819
X96.112Y-92.869
X96.112Y-111.919
X96.112Y-130.969
X96.112Y-150.019
X103.912Y-73.819
X103.912Y-92.869
X103.912Y-111.919
X103.912Y-130.969
X103.912Y-150.019
X115.162Y-78.581
X115.162Y-97.631
X115.162Y-116.681
X115.162Y-135.731
X115.162Y-154.781
X122.962Y-78.581
X122.962Y-97.631
X122.962Y-116.681
X122.962Y-135.731
X122.962Y-154.781
X134.213Y-83.344
X134.213Y-102.394
X134.213Y-121.444
X134.213Y-140.494
X137.355Y-88.225
X138.835Y-161.403
X139.895Y-88.225
X142.012Y-83.344
X142.012Y-102.394
X142.012Y-121.444
X142.012Y-140.494
X142.435Y-88.225
X144.975Y-88.225
X146.465Y-163.025
X147.515Y-88.225
X153.262Y-107.156
X153.262Y-140.494
X153.35Y-81.7
X161.062Y-107.156
X161.062Y-140.494
X161.15Y-81.7
X162.699Y-167.781
X166.458Y-154.46
X169.642Y-147.34
X169.819Y-170.965
T6
X130.493Y-108.665
X130.493Y-111.205
X130.493Y-113.745
X130.493Y-116.285
X130.493Y-118.825
X130.493Y-121.365
X130.493Y-123.905
X130.493Y-126.445
X130.493Y-128.985
X130.493Y-131.525
X130.493Y-134.065
X130.493Y-136.605
X145.733Y-108.665
X145.733Y-111.205
X145.733Y-113.745
X145.733Y-116.285
X145.733Y-118.825
X145.733Y-121.365
X145.733Y-123.905
X145.733Y-126.445
X145.733Y-128.985
X145.733Y-131.525
X145.733Y-134.065
X145.733Y-136.605
T7
X147.638Y-96.763
X147.638Y-103.263
T8
X34.29Y-80.804
X34.29Y-99.854
X34.29Y-118.904
X34.29Y-137.954
X34.29Y-157.004
X35.56Y-78.264
X35.56Y-97.314
X35.56Y-116.364
X35.56Y-135.414
X35.56Y-154.464
X39.052Y-80.804
X39.052Y-99.854
X39.052Y-118.904
X39.052Y-137.954
X39.052Y-157.004
X40.322Y-78.264
X40.322Y-97.314
X40.322Y-116.364
X40.322Y-135.414
X40.322Y-154.464
X40.64Y-78.264
X40.64Y-97.314
X40.64Y-116.364
X40.64Y-135.414
X40.64Y-154.464
X41.91Y-80.804
X41.91Y-99.854
X41.91Y-118.904
X41.91Y-137.954
X41.91Y-157.004
X45.402Y-78.264
X45.402Y-97.314
X45.402Y-116.364
X45.402Y-135.414
X45.402Y-154.464
X46.672Y-80.804
X46.672Y-99.854
X46.672Y-118.904
X46.672Y-137.954
X46.672Y-157.004
X58.102Y-80.804
X58.102Y-99.854
X58.102Y-118.904
X58.102Y-137.954
X58.102Y-157.004
X59.372Y-78.264
X59.372Y-97.314
X59.372Y-116.364
X59.372Y-135.414
X59.372Y-154.464
X64.453Y-78.264
X64.453Y-97.314
X64.453Y-116.364
X64.453Y-135.414
X64.453Y-154.464
X65.722Y-80.804
X65.722Y-99.854
X65.722Y-118.904
X65.722Y-137.954
X65.722Y-157.004
X77.153Y-71.279
X77.153Y-90.329
X77.153Y-109.379
X77.153Y-128.429
X77.153Y-147.479
X78.422Y-68.739
X78.422Y-87.789
X78.422Y-106.839
X78.422Y-125.889
X78.422Y-144.939
X83.502Y-68.739
X83.502Y-87.789
X83.502Y-106.839
X83.502Y-125.889
X83.502Y-144.939
X84.772Y-71.279
X84.772Y-90.329
X84.772Y-109.379
X84.772Y-128.429
X84.772Y-147.479
X96.203Y-66.516
X96.203Y-85.566
X96.203Y-104.616
X96.203Y-123.666
X96.203Y-142.716
X97.472Y-63.976
X97.472Y-83.026
X97.472Y-102.076
X97.472Y-121.126
X97.472Y-140.176
X102.552Y-63.976
X102.552Y-83.026
X102.552Y-102.076
X102.552Y-121.126
X102.552Y-140.176
X103.822Y-66.516
X103.822Y-85.566
X103.822Y-104.616
X103.822Y-123.666
X103.822Y-142.716
X115.252Y-71.279
X115.252Y-90.329
X115.252Y-109.379
X115.252Y-128.429
X115.252Y-147.479
X116.522Y-68.739
X116.522Y-87.789
X116.522Y-106.839
X116.522Y-125.889
X116.522Y-144.939
X121.602Y-68.739
X121.602Y-87.789
X121.602Y-106.839
X121.602Y-125.889
X121.602Y-144.939
X122.872Y-71.279
X122.872Y-90.329
X122.872Y-109.379
X122.872Y-128.429
X122.872Y-147.479
X134.302Y-76.041
X134.302Y-95.091
X134.302Y-114.141
X134.302Y-133.191
X135.572Y-73.501
X135.572Y-92.551
X135.572Y-111.601
X135.572Y-130.651
X140.442Y-154.279
X140.653Y-73.501
X140.653Y-92.551
X140.653Y-111.601
X140.653Y-130.651
X141.922Y-76.041
X141.922Y-95.091
X141.922Y-114.141
X141.922Y-133.191
X142.212Y-152.059
X147.181Y-153.115
X147.895Y-155.863
X153.352Y-76.041
X153.352Y-95.091
X153.352Y-99.854
X153.352Y-128.429
X153.352Y-133.191
X154.623Y-73.501
X154.623Y-92.551
X154.623Y-97.314
X154.623Y-125.889
X154.623Y-130.651
X159.702Y-73.501
X159.702Y-92.551
X159.702Y-97.314
X159.702Y-125.889
X159.702Y-130.651
X160.972Y-76.041
X160.972Y-95.091
X160.972Y-99.854
X160.972Y-128.429
X160.972Y-133.191
X165.763Y-161.151
X167.96Y-159.351
X172.597Y-161.426
X172.719Y-164.263
X172.863Y-160.815
X173.542Y-143.762
X175.7Y-160.693
X175.738Y-141.962
X175.974Y-153.859
X177.774Y-156.056
X180.375Y-144.036
X180.498Y-146.873
T3
X144.0Y-71.38G85X144.0Y-70.68
G05
X151.3Y-71.38G85X151.3Y-70.68
G05
T5
X154.6Y-85.85G85X154.1Y-85.85
G05
X154.6Y-88.3G85X154.1Y-88.3
G05
X156.1Y-84.1G85X155.6Y-84.1
G05
X156.1Y-90.05G85X155.6Y-90.05
G05
X160.1Y-84.1G85X159.6Y-84.1
G05
X160.1Y-90.05G85X159.6Y-90.05
G05
X163.1Y-84.1G85X162.6Y-84.1
G05
X163.1Y-90.05G85X162.6Y-90.05
G05
T0
M30
