%TF.GenerationSoftware,KiCad,Pcbnew,5.1.9*%
%TF.CreationDate,2021-05-01T14:24:38+02:00*%
%TF.ProjectId,pcb,7063622e-6b69-4636-9164-5f7063625858,rev?*%
%TF.SameCoordinates,Original*%
%TF.FileFunction,Profile,NP*%
%FSLAX46Y46*%
G04 Gerber Fmt 4.6, Leading zero omitted, Abs format (unit mm)*
G04 Created by KiCad (PCBNEW 5.1.9) date 2021-05-01 14:24:38*
%MOMM*%
%LPD*%
G01*
G04 APERTURE LIST*
%TA.AperFunction,Profile*%
%ADD10C,0.200000*%
%TD*%
G04 APERTURE END LIST*
D10*
X129197000Y-159049413D02*
X110030000Y-159049413D01*
X172746000Y-176950513D02*
X172746000Y-176950513D01*
X90980000Y-64799413D02*
X90980000Y-64799413D01*
X90980000Y-60036913D02*
X90980000Y-60036913D01*
X129197000Y-159049413D02*
X129197000Y-159049413D01*
X24305000Y-149524413D02*
X24305000Y-149524413D01*
X109030000Y-64799413D02*
X109030000Y-64799413D01*
X128249000Y-163510513D02*
X128249000Y-163510513D01*
X89980000Y-154286913D02*
X89980000Y-154286913D01*
X71930000Y-159049413D02*
X71930000Y-159049413D01*
X109030000Y-60036913D02*
X109030000Y-60036913D01*
X24305000Y-149524413D02*
X24305000Y-149524413D01*
X89980000Y-159049413D02*
X89980000Y-159049413D01*
X89980000Y-159049413D02*
X89980000Y-159049413D01*
X71930000Y-149524413D02*
X71930000Y-149524413D01*
X110030000Y-159049413D02*
X110030000Y-159049413D01*
X71930000Y-159049413D02*
X71930000Y-159049413D01*
X110030000Y-159049413D02*
X110030000Y-159049413D01*
X109030000Y-60036913D02*
X109030000Y-60036913D01*
X177437000Y-161494313D02*
X177437000Y-161494313D01*
X71930000Y-64799413D02*
X71930000Y-64799413D01*
X89980000Y-154286913D02*
X89980000Y-154286913D01*
X129197000Y-159049413D02*
X129197000Y-159049413D01*
X166180000Y-69561913D02*
X166180000Y-69561913D01*
X109030000Y-64799413D02*
X109030000Y-64799413D01*
X71930000Y-74324413D02*
X71930000Y-74324413D01*
X166180000Y-133377414D02*
X166180000Y-133377414D01*
X110030000Y-154286913D02*
X89980000Y-154286913D01*
X128080000Y-64799413D02*
X128080000Y-64799413D01*
X71930000Y-74324413D02*
X71930000Y-64799413D01*
X187886000Y-143080603D02*
X187886000Y-143080603D01*
X89980000Y-154286913D02*
X89980000Y-159049413D01*
X90980000Y-60036913D02*
X109030000Y-60036913D01*
X166180000Y-133377414D02*
X166180000Y-133377414D01*
X128080000Y-69561913D02*
X128080000Y-69561913D01*
X71930000Y-149524413D02*
X24305000Y-149524413D01*
X172746000Y-176950513D02*
X172746000Y-176950513D01*
X155762000Y-169358613D02*
X155762000Y-169358613D01*
X155762000Y-169358613D02*
X155762000Y-169358613D01*
X166180000Y-69561913D02*
X166180000Y-133377414D01*
X89980000Y-159049413D02*
X71930000Y-159049413D01*
X171723000Y-174275413D02*
X171723000Y-174275413D01*
X179498000Y-156883993D02*
X179498000Y-156883993D01*
X128080000Y-69561913D02*
X166180000Y-69561913D01*
X166180000Y-69561913D02*
X166180000Y-69561913D01*
X24305000Y-74324413D02*
X24305000Y-74324413D01*
X128080000Y-69561913D02*
X128080000Y-69561913D01*
X71930000Y-64799413D02*
X71930000Y-64799413D01*
X90980000Y-60036913D02*
X90980000Y-60036913D01*
X90980000Y-64799413D02*
X90980000Y-60036913D01*
X71930000Y-74324413D02*
X71930000Y-74324413D01*
X128080000Y-64799413D02*
X128080000Y-64799413D01*
X90980000Y-64799413D02*
X90980000Y-64799413D01*
X24305000Y-149524413D02*
X24305000Y-74324413D01*
X166180000Y-133377414D02*
X187886000Y-143080603D01*
X71930000Y-159049413D02*
X71930000Y-149524413D01*
X110030000Y-154286913D02*
X110030000Y-154286913D01*
X187886000Y-143080603D02*
X187886000Y-143080603D01*
X172746000Y-176950513D02*
X155762000Y-169358613D01*
X110030000Y-159049413D02*
X110030000Y-154286913D01*
X109030000Y-64799413D02*
X128080000Y-64799413D01*
X177437000Y-161494313D02*
X177437000Y-161494313D01*
X187886000Y-143080603D02*
X172746000Y-176950513D01*
X24305000Y-74324413D02*
X24305000Y-74324413D01*
X171723000Y-174275413D02*
X171723000Y-174275413D01*
X110030000Y-154286913D02*
X110030000Y-154286913D01*
X109030000Y-60036913D02*
X109030000Y-64799413D01*
X155762000Y-169358613D02*
X128249000Y-163510513D01*
X128249000Y-163510513D02*
X128249000Y-163510513D01*
X71930000Y-149524413D02*
X71930000Y-149524413D01*
X71930000Y-64799413D02*
X90980000Y-64799413D01*
X128080000Y-64799413D02*
X128080000Y-69561913D01*
X179498000Y-156883993D02*
X179498000Y-156883993D01*
X24305000Y-74324413D02*
X71930000Y-74324413D01*
X128249000Y-163510513D02*
X129197000Y-159049413D01*
M02*
