M48
; DRILL file {KiCad 5.1.10} date Sat May 29 15:15:50 2021
; FORMAT={-:-/ absolute / inch / decimal}
; #@! TF.CreationDate,2021-05-29T15:15:50+02:00
; #@! TF.GenerationSoftware,Kicad,Pcbnew,5.1.10
; #@! TF.FileFunction,Plated,1,2,PTH
FMAT,2
INCH
T1C0.0157
T2C0.0276
T3C0.0315
T4C0.0320
T5C0.0394
T6C0.0430
T7C0.0512
T8C0.0590
%
G90
G05
T1
X1.5Y-4.5938
X3.439Y-6.1575
X5.5413Y-6.4429
X5.6024Y-6.4409
X5.6969Y-6.0059
X6.5236Y-6.25
X7.0374Y-6.0472
T2
X5.75Y-3.0098
X5.7815Y-2.9626
X5.813Y-3.0098
X5.8445Y-2.9626
X5.876Y-3.0098
T4
X5.062Y-3.4724
X5.062Y-3.56
T5
X1.4402Y-3.4688
X1.4402Y-4.2188
X1.4402Y-4.9688
X1.4402Y-5.7188
X1.7473Y-3.4688
X1.7473Y-4.2188
X1.7473Y-4.9688
X1.7473Y-5.7188
X2.284Y-3.4688
X2.284Y-4.2188
X2.284Y-4.9688
X2.284Y-5.7188
X2.591Y-3.4688
X2.591Y-4.2188
X2.591Y-4.9688
X2.591Y-5.7188
X3.034Y-3.0938
X3.034Y-3.8438
X3.034Y-4.5938
X3.034Y-5.3438
X3.034Y-6.0938
X3.0891Y-5.6307
X3.0891Y-6.2015
X3.1875Y-6.2015
X3.2859Y-5.6307
X3.2859Y-6.2015
X3.341Y-3.0938
X3.341Y-3.8438
X3.341Y-4.5938
X3.341Y-5.3438
X3.3411Y-6.0938
X3.784Y-2.9062
X3.784Y-3.6562
X3.784Y-4.4062
X3.784Y-5.1562
X3.784Y-5.9062
X4.091Y-2.9062
X4.091Y-3.6562
X4.091Y-4.4062
X4.091Y-5.1562
X4.091Y-5.9062
X4.534Y-3.0938
X4.534Y-3.8438
X4.534Y-4.5938
X4.534Y-5.3438
X4.534Y-6.0938
X4.841Y-3.0938
X4.841Y-3.8438
X4.841Y-4.5938
X4.841Y-5.3438
X4.841Y-6.0938
X5.284Y-3.2812
X5.284Y-4.0312
X5.284Y-4.7812
X5.284Y-5.5312
X5.4077Y-3.4734
X5.466Y-6.3545
X5.5077Y-3.4734
X5.591Y-3.2812
X5.591Y-4.0312
X5.591Y-4.7812
X5.591Y-5.5312
X5.6077Y-3.4734
X5.7077Y-3.4734
X5.7663Y-6.4183
X5.8077Y-3.4734
X6.034Y-4.2188
X6.034Y-4.7812
X6.034Y-5.5312
X6.0374Y-3.2165
X6.341Y-4.2188
X6.341Y-4.7812
X6.341Y-5.5312
X6.3445Y-3.2165
X6.4055Y-6.6055
X6.5534Y-6.0811
X6.6788Y-5.8008
X6.6858Y-6.7309
T6
X5.1375Y-4.2781
X5.1375Y-4.3781
X5.1375Y-4.4781
X5.1375Y-4.5781
X5.1375Y-4.6781
X5.1375Y-4.7781
X5.1375Y-4.8781
X5.1375Y-4.9781
X5.1375Y-5.0781
X5.1375Y-5.1781
X5.1375Y-5.2781
X5.1375Y-5.3781
X5.7375Y-4.2781
X5.7375Y-4.3781
X5.7375Y-4.4781
X5.7375Y-4.5781
X5.7375Y-4.6781
X5.7375Y-4.7781
X5.7375Y-4.8781
X5.7375Y-4.9781
X5.7375Y-5.0781
X5.7375Y-5.1781
X5.7375Y-5.2781
X5.7375Y-5.3781
T7
X5.8125Y-3.8096
X5.8125Y-4.0655
T8
X1.35Y-3.1812
X1.35Y-3.9312
X1.35Y-4.6812
X1.35Y-5.4312
X1.4Y-3.0812
X1.4Y-3.8312
X1.4Y-4.5812
X1.4Y-5.3312
X1.5375Y-3.1812
X1.5375Y-3.9312
X1.5375Y-4.6812
X1.5375Y-5.4312
X1.5875Y-3.0812
X1.5875Y-3.8312
X1.5875Y-4.5812
X1.5875Y-5.3312
X1.6Y-3.0812
X1.6Y-3.8312
X1.6Y-4.5812
X1.6Y-5.3312
X1.65Y-3.1812
X1.65Y-3.9312
X1.65Y-4.6812
X1.65Y-5.4312
X1.7875Y-3.0812
X1.7875Y-3.8312
X1.7875Y-4.5812
X1.7875Y-5.3312
X1.8375Y-3.1812
X1.8375Y-3.9312
X1.8375Y-4.6812
X1.8375Y-5.4312
X2.2875Y-3.1812
X2.2875Y-3.9312
X2.2875Y-4.6812
X2.2875Y-5.4312
X2.3375Y-3.0812
X2.3375Y-3.8312
X2.3375Y-4.5812
X2.3375Y-5.3312
X2.5375Y-3.0812
X2.5375Y-3.8312
X2.5375Y-4.5812
X2.5375Y-5.3312
X2.5875Y-3.1812
X2.5875Y-3.9312
X2.5875Y-4.6812
X2.5875Y-5.4312
X3.0375Y-2.8062
X3.0375Y-3.5562
X3.0375Y-4.3062
X3.0375Y-5.0562
X3.0375Y-5.8062
X3.0875Y-2.7062
X3.0875Y-3.4562
X3.0875Y-4.2062
X3.0875Y-4.9562
X3.0875Y-5.7062
X3.2875Y-2.7062
X3.2875Y-3.4562
X3.2875Y-4.2062
X3.2875Y-4.9562
X3.2875Y-5.7062
X3.3375Y-2.8062
X3.3375Y-3.5562
X3.3375Y-4.3062
X3.3375Y-5.0562
X3.3375Y-5.8062
X3.7875Y-2.6187
X3.7875Y-3.3687
X3.7875Y-4.1187
X3.7875Y-4.8687
X3.7875Y-5.6187
X3.8375Y-2.5187
X3.8375Y-3.2687
X3.8375Y-4.0187
X3.8375Y-4.7687
X3.8375Y-5.5187
X4.0375Y-2.5187
X4.0375Y-3.2687
X4.0375Y-4.0187
X4.0375Y-4.7687
X4.0375Y-5.5187
X4.0875Y-2.6187
X4.0875Y-3.3687
X4.0875Y-4.1187
X4.0875Y-4.8687
X4.0875Y-5.6187
X4.5375Y-2.8062
X4.5375Y-3.5562
X4.5375Y-4.3062
X4.5375Y-5.0562
X4.5375Y-5.8062
X4.5875Y-2.7062
X4.5875Y-3.4562
X4.5875Y-4.2062
X4.5875Y-4.9562
X4.5875Y-5.7062
X4.7875Y-2.7062
X4.7875Y-3.4562
X4.7875Y-4.2062
X4.7875Y-4.9562
X4.7875Y-5.7062
X4.8375Y-2.8062
X4.8375Y-3.5562
X4.8375Y-4.3062
X4.8375Y-5.0562
X4.8375Y-5.8062
X5.2875Y-2.9937
X5.2875Y-3.7437
X5.2875Y-4.4937
X5.2875Y-5.2437
X5.3375Y-2.8937
X5.3375Y-3.6437
X5.3375Y-4.3937
X5.3375Y-5.1437
X5.5292Y-6.074
X5.5375Y-2.8937
X5.5375Y-3.6437
X5.5375Y-4.3937
X5.5375Y-5.1437
X5.5875Y-2.9937
X5.5875Y-3.7437
X5.5875Y-4.4937
X5.5875Y-5.2437
X5.5989Y-5.9866
X5.7945Y-6.0281
X5.8226Y-6.1364
X6.0375Y-2.9937
X6.0375Y-3.7437
X6.0375Y-3.9312
X6.0375Y-4.4937
X6.0375Y-5.0562
X6.0375Y-5.2437
X6.0875Y-2.8937
X6.0875Y-3.6437
X6.0875Y-3.8312
X6.0875Y-4.3937
X6.0875Y-4.9562
X6.0875Y-5.1437
X6.2875Y-2.8937
X6.2875Y-3.6437
X6.2875Y-3.8312
X6.2875Y-4.3937
X6.2875Y-4.9562
X6.2875Y-5.1437
X6.3375Y-2.9937
X6.3375Y-3.7437
X6.3375Y-3.9312
X6.3375Y-4.4937
X6.3375Y-5.0562
X6.3375Y-5.2437
X6.5261Y-6.3445
X6.6126Y-6.2737
X6.7951Y-6.3553
X6.8Y-6.467
X6.8056Y-6.3313
X6.8324Y-5.6599
X6.9173Y-6.3265
X6.9188Y-5.589
X6.9281Y-6.0575
X6.999Y-6.1439
X7.1014Y-5.6707
X7.1062Y-5.7824
T3
G00X5.6693Y-2.8102
M15
G01X5.6693Y-2.7827
M16
G05
G00X5.9567Y-2.8102
M15
G01X5.9567Y-2.7827
M16
G05
T5
G00X6.0866Y-3.3799
M15
G01X6.0669Y-3.3799
M16
G05
G00X6.0866Y-3.4764
M15
G01X6.0669Y-3.4764
M16
G05
G00X6.1457Y-3.311
M15
G01X6.126Y-3.311
M16
G05
G00X6.1457Y-3.5453
M15
G01X6.126Y-3.5453
M16
G05
G00X6.3031Y-3.311
M15
G01X6.2835Y-3.311
M16
G05
G00X6.3031Y-3.5453
M15
G01X6.2835Y-3.5453
M16
G05
G00X6.4213Y-3.311
M15
G01X6.4016Y-3.311
M16
G05
G00X6.4213Y-3.5453
M15
G01X6.4016Y-3.5453
M16
G05
T0
M30
