%TF.GenerationSoftware,KiCad,Pcbnew,5.1.10*%
%TF.CreationDate,2021-05-29T15:16:00+02:00*%
%TF.ProjectId,pcb,7063622e-6b69-4636-9164-5f7063625858,rev?*%
%TF.SameCoordinates,Original*%
%TF.FileFunction,Legend,Bot*%
%TF.FilePolarity,Positive*%
%FSLAX46Y46*%
G04 Gerber Fmt 4.6, Leading zero omitted, Abs format (unit mm)*
G04 Created by KiCad (PCBNEW 5.1.10) date 2021-05-29 15:16:00*
%MOMM*%
%LPD*%
G01*
G04 APERTURE LIST*
%ADD10C,0.120000*%
%ADD11C,0.150000*%
%ADD12C,0.010000*%
%ADD13C,0.381000*%
G04 APERTURE END LIST*
D10*
%TO.C,J2*%
X138625000Y-86895000D02*
X148845000Y-86895000D01*
X136025000Y-86895000D02*
X136025000Y-88225000D01*
X138625000Y-86895000D02*
X138625000Y-89555000D01*
X138625000Y-89555000D02*
X148845000Y-89555000D01*
X137355000Y-86895000D02*
X136025000Y-86895000D01*
X148845000Y-86895000D02*
X148845000Y-89555000D01*
D11*
%TO.C,SW41*%
X181348152Y-152768474D02*
X180939822Y-153681308D01*
X176039856Y-164635318D02*
X175631526Y-165548152D01*
X175631526Y-165548152D02*
X174718692Y-165139822D01*
X162851848Y-159831526D02*
X163260178Y-158918692D01*
X163764682Y-160239856D02*
X162851848Y-159831526D01*
X168160144Y-147964682D02*
X168568474Y-147051848D01*
X168568474Y-147051848D02*
X169481308Y-147460178D01*
X180435318Y-152360144D02*
X181348152Y-152768474D01*
%TO.C,D34*%
X168391580Y-148270253D02*
X169782739Y-148892549D01*
X166524693Y-152443731D02*
X167915852Y-153066027D01*
X169782739Y-148892549D02*
X167708420Y-153529747D01*
X168019568Y-152834167D02*
X166628409Y-152211871D01*
X167863994Y-153181957D02*
X166472835Y-152559661D01*
X166317261Y-152907451D02*
X168391580Y-148270253D01*
X167760278Y-153413817D02*
X166369119Y-152791521D01*
X169782739Y-148892549D02*
X169575307Y-149356269D01*
X167708420Y-153529747D02*
X166317261Y-152907451D01*
X167967710Y-152950097D02*
X166576551Y-152327801D01*
X166420977Y-152675591D02*
X167812136Y-153297887D01*
%TO.C,D33*%
X168888913Y-169714582D02*
X168266617Y-171105741D01*
X164715435Y-167847695D02*
X164093139Y-169238854D01*
X168266617Y-171105741D02*
X163629419Y-169031422D01*
X164324999Y-169342570D02*
X164947295Y-167951411D01*
X163977209Y-169186996D02*
X164599505Y-167795837D01*
X164251715Y-167640263D02*
X168888913Y-169714582D01*
X163745349Y-169083280D02*
X164367645Y-167692121D01*
X168266617Y-171105741D02*
X167802897Y-170898309D01*
X163629419Y-169031422D02*
X164251715Y-167640263D01*
X164209069Y-169290712D02*
X164831365Y-167899553D01*
X164483575Y-167743979D02*
X163861279Y-169135138D01*
%TO.C,D32*%
X159702500Y-139731750D02*
X159702500Y-141255750D01*
X155130500Y-139731750D02*
X155130500Y-141255750D01*
X159702500Y-141255750D02*
X154622500Y-141255750D01*
X155384500Y-141255750D02*
X155384500Y-139731750D01*
X155003500Y-141255750D02*
X155003500Y-139731750D01*
X154622500Y-139731750D02*
X159702500Y-139731750D01*
X154749500Y-141255750D02*
X154749500Y-139731750D01*
X159702500Y-141255750D02*
X159194500Y-141255750D01*
X154622500Y-141255750D02*
X154622500Y-139731750D01*
X155257500Y-141255750D02*
X155257500Y-139731750D01*
X154876500Y-139731750D02*
X154876500Y-141255750D01*
%TO.C,D31*%
X159702500Y-120681750D02*
X159702500Y-122205750D01*
X155130500Y-120681750D02*
X155130500Y-122205750D01*
X159702500Y-122205750D02*
X154622500Y-122205750D01*
X155384500Y-122205750D02*
X155384500Y-120681750D01*
X155003500Y-122205750D02*
X155003500Y-120681750D01*
X154622500Y-120681750D02*
X159702500Y-120681750D01*
X154749500Y-122205750D02*
X154749500Y-120681750D01*
X159702500Y-122205750D02*
X159194500Y-122205750D01*
X154622500Y-122205750D02*
X154622500Y-120681750D01*
X155257500Y-122205750D02*
X155257500Y-120681750D01*
X154876500Y-120681750D02*
X154876500Y-122205750D01*
%TO.C,D30*%
X159702500Y-106394250D02*
X159702500Y-107918250D01*
X155130500Y-106394250D02*
X155130500Y-107918250D01*
X159702500Y-107918250D02*
X154622500Y-107918250D01*
X155384500Y-107918250D02*
X155384500Y-106394250D01*
X155003500Y-107918250D02*
X155003500Y-106394250D01*
X154622500Y-106394250D02*
X159702500Y-106394250D01*
X154749500Y-107918250D02*
X154749500Y-106394250D01*
X159702500Y-107918250D02*
X159194500Y-107918250D01*
X154622500Y-107918250D02*
X154622500Y-106394250D01*
X155257500Y-107918250D02*
X155257500Y-106394250D01*
X154876500Y-106394250D02*
X154876500Y-107918250D01*
%TO.C,D29*%
X159790000Y-80938000D02*
X159790000Y-82462000D01*
X155218000Y-80938000D02*
X155218000Y-82462000D01*
X159790000Y-82462000D02*
X154710000Y-82462000D01*
X155472000Y-82462000D02*
X155472000Y-80938000D01*
X155091000Y-82462000D02*
X155091000Y-80938000D01*
X154710000Y-80938000D02*
X159790000Y-80938000D01*
X154837000Y-82462000D02*
X154837000Y-80938000D01*
X159790000Y-82462000D02*
X159282000Y-82462000D01*
X154710000Y-82462000D02*
X154710000Y-80938000D01*
X155345000Y-82462000D02*
X155345000Y-80938000D01*
X154964000Y-80938000D02*
X154964000Y-82462000D01*
%TO.C,D28*%
X145292915Y-161996985D02*
X144976057Y-163487682D01*
X140820824Y-161046413D02*
X140503966Y-162537110D01*
X144976057Y-163487682D02*
X140007067Y-162431491D01*
X140752416Y-162589919D02*
X141069273Y-161099223D01*
X140379742Y-162510705D02*
X140696599Y-161020008D01*
X140323925Y-160940794D02*
X145292915Y-161996985D01*
X140131292Y-162457896D02*
X140448150Y-160967199D01*
X144976057Y-163487682D02*
X144479158Y-163382063D01*
X140007067Y-162431491D02*
X140323925Y-160940794D01*
X140628191Y-162563515D02*
X140945049Y-161072818D01*
X140572374Y-160993603D02*
X140255517Y-162484300D01*
%TO.C,D27*%
X140652500Y-139731750D02*
X140652500Y-141255750D01*
X136080500Y-139731750D02*
X136080500Y-141255750D01*
X140652500Y-141255750D02*
X135572500Y-141255750D01*
X136334500Y-141255750D02*
X136334500Y-139731750D01*
X135953500Y-141255750D02*
X135953500Y-139731750D01*
X135572500Y-139731750D02*
X140652500Y-139731750D01*
X135699500Y-141255750D02*
X135699500Y-139731750D01*
X140652500Y-141255750D02*
X140144500Y-141255750D01*
X135572500Y-141255750D02*
X135572500Y-139731750D01*
X136207500Y-141255750D02*
X136207500Y-139731750D01*
X135826500Y-139731750D02*
X135826500Y-141255750D01*
%TO.C,D26*%
X140652500Y-120681750D02*
X140652500Y-122205750D01*
X136080500Y-120681750D02*
X136080500Y-122205750D01*
X140652500Y-122205750D02*
X135572500Y-122205750D01*
X136334500Y-122205750D02*
X136334500Y-120681750D01*
X135953500Y-122205750D02*
X135953500Y-120681750D01*
X135572500Y-120681750D02*
X140652500Y-120681750D01*
X135699500Y-122205750D02*
X135699500Y-120681750D01*
X140652500Y-122205750D02*
X140144500Y-122205750D01*
X135572500Y-122205750D02*
X135572500Y-120681750D01*
X136207500Y-122205750D02*
X136207500Y-120681750D01*
X135826500Y-120681750D02*
X135826500Y-122205750D01*
%TO.C,D25*%
X140652500Y-101631750D02*
X140652500Y-103155750D01*
X136080500Y-101631750D02*
X136080500Y-103155750D01*
X140652500Y-103155750D02*
X135572500Y-103155750D01*
X136334500Y-103155750D02*
X136334500Y-101631750D01*
X135953500Y-103155750D02*
X135953500Y-101631750D01*
X135572500Y-101631750D02*
X140652500Y-101631750D01*
X135699500Y-103155750D02*
X135699500Y-101631750D01*
X140652500Y-103155750D02*
X140144500Y-103155750D01*
X135572500Y-103155750D02*
X135572500Y-101631750D01*
X136207500Y-103155750D02*
X136207500Y-101631750D01*
X135826500Y-101631750D02*
X135826500Y-103155750D01*
%TO.C,D24*%
X140652500Y-82581750D02*
X140652500Y-84105750D01*
X136080500Y-82581750D02*
X136080500Y-84105750D01*
X140652500Y-84105750D02*
X135572500Y-84105750D01*
X136334500Y-84105750D02*
X136334500Y-82581750D01*
X135953500Y-84105750D02*
X135953500Y-82581750D01*
X135572500Y-82581750D02*
X140652500Y-82581750D01*
X135699500Y-84105750D02*
X135699500Y-82581750D01*
X140652500Y-84105750D02*
X140144500Y-84105750D01*
X135572500Y-84105750D02*
X135572500Y-82581750D01*
X136207500Y-84105750D02*
X136207500Y-82581750D01*
X135826500Y-82581750D02*
X135826500Y-84105750D01*
%TO.C,D23*%
X121602500Y-154019250D02*
X121602500Y-155543250D01*
X117030500Y-154019250D02*
X117030500Y-155543250D01*
X121602500Y-155543250D02*
X116522500Y-155543250D01*
X117284500Y-155543250D02*
X117284500Y-154019250D01*
X116903500Y-155543250D02*
X116903500Y-154019250D01*
X116522500Y-154019250D02*
X121602500Y-154019250D01*
X116649500Y-155543250D02*
X116649500Y-154019250D01*
X121602500Y-155543250D02*
X121094500Y-155543250D01*
X116522500Y-155543250D02*
X116522500Y-154019250D01*
X117157500Y-155543250D02*
X117157500Y-154019250D01*
X116776500Y-154019250D02*
X116776500Y-155543250D01*
%TO.C,D22*%
X121602500Y-134969250D02*
X121602500Y-136493250D01*
X117030500Y-134969250D02*
X117030500Y-136493250D01*
X121602500Y-136493250D02*
X116522500Y-136493250D01*
X117284500Y-136493250D02*
X117284500Y-134969250D01*
X116903500Y-136493250D02*
X116903500Y-134969250D01*
X116522500Y-134969250D02*
X121602500Y-134969250D01*
X116649500Y-136493250D02*
X116649500Y-134969250D01*
X121602500Y-136493250D02*
X121094500Y-136493250D01*
X116522500Y-136493250D02*
X116522500Y-134969250D01*
X117157500Y-136493250D02*
X117157500Y-134969250D01*
X116776500Y-134969250D02*
X116776500Y-136493250D01*
%TO.C,D21*%
X121602500Y-115919250D02*
X121602500Y-117443250D01*
X117030500Y-115919250D02*
X117030500Y-117443250D01*
X121602500Y-117443250D02*
X116522500Y-117443250D01*
X117284500Y-117443250D02*
X117284500Y-115919250D01*
X116903500Y-117443250D02*
X116903500Y-115919250D01*
X116522500Y-115919250D02*
X121602500Y-115919250D01*
X116649500Y-117443250D02*
X116649500Y-115919250D01*
X121602500Y-117443250D02*
X121094500Y-117443250D01*
X116522500Y-117443250D02*
X116522500Y-115919250D01*
X117157500Y-117443250D02*
X117157500Y-115919250D01*
X116776500Y-115919250D02*
X116776500Y-117443250D01*
%TO.C,D20*%
X121602500Y-96869250D02*
X121602500Y-98393250D01*
X117030500Y-96869250D02*
X117030500Y-98393250D01*
X121602500Y-98393250D02*
X116522500Y-98393250D01*
X117284500Y-98393250D02*
X117284500Y-96869250D01*
X116903500Y-98393250D02*
X116903500Y-96869250D01*
X116522500Y-96869250D02*
X121602500Y-96869250D01*
X116649500Y-98393250D02*
X116649500Y-96869250D01*
X121602500Y-98393250D02*
X121094500Y-98393250D01*
X116522500Y-98393250D02*
X116522500Y-96869250D01*
X117157500Y-98393250D02*
X117157500Y-96869250D01*
X116776500Y-96869250D02*
X116776500Y-98393250D01*
%TO.C,D19*%
X121602500Y-77819250D02*
X121602500Y-79343250D01*
X117030500Y-77819250D02*
X117030500Y-79343250D01*
X121602500Y-79343250D02*
X116522500Y-79343250D01*
X117284500Y-79343250D02*
X117284500Y-77819250D01*
X116903500Y-79343250D02*
X116903500Y-77819250D01*
X116522500Y-77819250D02*
X121602500Y-77819250D01*
X116649500Y-79343250D02*
X116649500Y-77819250D01*
X121602500Y-79343250D02*
X121094500Y-79343250D01*
X116522500Y-79343250D02*
X116522500Y-77819250D01*
X117157500Y-79343250D02*
X117157500Y-77819250D01*
X116776500Y-77819250D02*
X116776500Y-79343250D01*
%TO.C,D18*%
X102552500Y-149256750D02*
X102552500Y-150780750D01*
X97980500Y-149256750D02*
X97980500Y-150780750D01*
X102552500Y-150780750D02*
X97472500Y-150780750D01*
X98234500Y-150780750D02*
X98234500Y-149256750D01*
X97853500Y-150780750D02*
X97853500Y-149256750D01*
X97472500Y-149256750D02*
X102552500Y-149256750D01*
X97599500Y-150780750D02*
X97599500Y-149256750D01*
X102552500Y-150780750D02*
X102044500Y-150780750D01*
X97472500Y-150780750D02*
X97472500Y-149256750D01*
X98107500Y-150780750D02*
X98107500Y-149256750D01*
X97726500Y-149256750D02*
X97726500Y-150780750D01*
%TO.C,D17*%
X102552500Y-130206750D02*
X102552500Y-131730750D01*
X97980500Y-130206750D02*
X97980500Y-131730750D01*
X102552500Y-131730750D02*
X97472500Y-131730750D01*
X98234500Y-131730750D02*
X98234500Y-130206750D01*
X97853500Y-131730750D02*
X97853500Y-130206750D01*
X97472500Y-130206750D02*
X102552500Y-130206750D01*
X97599500Y-131730750D02*
X97599500Y-130206750D01*
X102552500Y-131730750D02*
X102044500Y-131730750D01*
X97472500Y-131730750D02*
X97472500Y-130206750D01*
X98107500Y-131730750D02*
X98107500Y-130206750D01*
X97726500Y-130206750D02*
X97726500Y-131730750D01*
%TO.C,D16*%
X102552500Y-111156750D02*
X102552500Y-112680750D01*
X97980500Y-111156750D02*
X97980500Y-112680750D01*
X102552500Y-112680750D02*
X97472500Y-112680750D01*
X98234500Y-112680750D02*
X98234500Y-111156750D01*
X97853500Y-112680750D02*
X97853500Y-111156750D01*
X97472500Y-111156750D02*
X102552500Y-111156750D01*
X97599500Y-112680750D02*
X97599500Y-111156750D01*
X102552500Y-112680750D02*
X102044500Y-112680750D01*
X97472500Y-112680750D02*
X97472500Y-111156750D01*
X98107500Y-112680750D02*
X98107500Y-111156750D01*
X97726500Y-111156750D02*
X97726500Y-112680750D01*
%TO.C,D15*%
X102552500Y-92106750D02*
X102552500Y-93630750D01*
X97980500Y-92106750D02*
X97980500Y-93630750D01*
X102552500Y-93630750D02*
X97472500Y-93630750D01*
X98234500Y-93630750D02*
X98234500Y-92106750D01*
X97853500Y-93630750D02*
X97853500Y-92106750D01*
X97472500Y-92106750D02*
X102552500Y-92106750D01*
X97599500Y-93630750D02*
X97599500Y-92106750D01*
X102552500Y-93630750D02*
X102044500Y-93630750D01*
X97472500Y-93630750D02*
X97472500Y-92106750D01*
X98107500Y-93630750D02*
X98107500Y-92106750D01*
X97726500Y-92106750D02*
X97726500Y-93630750D01*
%TO.C,D14*%
X102552500Y-73056750D02*
X102552500Y-74580750D01*
X97980500Y-73056750D02*
X97980500Y-74580750D01*
X102552500Y-74580750D02*
X97472500Y-74580750D01*
X98234500Y-74580750D02*
X98234500Y-73056750D01*
X97853500Y-74580750D02*
X97853500Y-73056750D01*
X97472500Y-73056750D02*
X102552500Y-73056750D01*
X97599500Y-74580750D02*
X97599500Y-73056750D01*
X102552500Y-74580750D02*
X102044500Y-74580750D01*
X97472500Y-74580750D02*
X97472500Y-73056750D01*
X98107500Y-74580750D02*
X98107500Y-73056750D01*
X97726500Y-73056750D02*
X97726500Y-74580750D01*
%TO.C,D13*%
X83502840Y-154019900D02*
X83502840Y-155543900D01*
X78930840Y-154019900D02*
X78930840Y-155543900D01*
X83502840Y-155543900D02*
X78422840Y-155543900D01*
X79184840Y-155543900D02*
X79184840Y-154019900D01*
X78803840Y-155543900D02*
X78803840Y-154019900D01*
X78422840Y-154019900D02*
X83502840Y-154019900D01*
X78549840Y-155543900D02*
X78549840Y-154019900D01*
X83502840Y-155543900D02*
X82994840Y-155543900D01*
X78422840Y-155543900D02*
X78422840Y-154019900D01*
X79057840Y-155543900D02*
X79057840Y-154019900D01*
X78676840Y-154019900D02*
X78676840Y-155543900D01*
%TO.C,D12*%
X83502500Y-134969250D02*
X83502500Y-136493250D01*
X78930500Y-134969250D02*
X78930500Y-136493250D01*
X83502500Y-136493250D02*
X78422500Y-136493250D01*
X79184500Y-136493250D02*
X79184500Y-134969250D01*
X78803500Y-136493250D02*
X78803500Y-134969250D01*
X78422500Y-134969250D02*
X83502500Y-134969250D01*
X78549500Y-136493250D02*
X78549500Y-134969250D01*
X83502500Y-136493250D02*
X82994500Y-136493250D01*
X78422500Y-136493250D02*
X78422500Y-134969250D01*
X79057500Y-136493250D02*
X79057500Y-134969250D01*
X78676500Y-134969250D02*
X78676500Y-136493250D01*
%TO.C,D11*%
X83502500Y-115919250D02*
X83502500Y-117443250D01*
X78930500Y-115919250D02*
X78930500Y-117443250D01*
X83502500Y-117443250D02*
X78422500Y-117443250D01*
X79184500Y-117443250D02*
X79184500Y-115919250D01*
X78803500Y-117443250D02*
X78803500Y-115919250D01*
X78422500Y-115919250D02*
X83502500Y-115919250D01*
X78549500Y-117443250D02*
X78549500Y-115919250D01*
X83502500Y-117443250D02*
X82994500Y-117443250D01*
X78422500Y-117443250D02*
X78422500Y-115919250D01*
X79057500Y-117443250D02*
X79057500Y-115919250D01*
X78676500Y-115919250D02*
X78676500Y-117443250D01*
%TO.C,D10*%
X83502500Y-96869250D02*
X83502500Y-98393250D01*
X78930500Y-96869250D02*
X78930500Y-98393250D01*
X83502500Y-98393250D02*
X78422500Y-98393250D01*
X79184500Y-98393250D02*
X79184500Y-96869250D01*
X78803500Y-98393250D02*
X78803500Y-96869250D01*
X78422500Y-96869250D02*
X83502500Y-96869250D01*
X78549500Y-98393250D02*
X78549500Y-96869250D01*
X83502500Y-98393250D02*
X82994500Y-98393250D01*
X78422500Y-98393250D02*
X78422500Y-96869250D01*
X79057500Y-98393250D02*
X79057500Y-96869250D01*
X78676500Y-96869250D02*
X78676500Y-98393250D01*
%TO.C,D9*%
X83502500Y-77819250D02*
X83502500Y-79343250D01*
X78930500Y-77819250D02*
X78930500Y-79343250D01*
X83502500Y-79343250D02*
X78422500Y-79343250D01*
X79184500Y-79343250D02*
X79184500Y-77819250D01*
X78803500Y-79343250D02*
X78803500Y-77819250D01*
X78422500Y-77819250D02*
X83502500Y-77819250D01*
X78549500Y-79343250D02*
X78549500Y-77819250D01*
X83502500Y-79343250D02*
X82994500Y-79343250D01*
X78422500Y-79343250D02*
X78422500Y-77819250D01*
X79057500Y-79343250D02*
X79057500Y-77819250D01*
X78676500Y-77819250D02*
X78676500Y-79343250D01*
%TO.C,D8*%
X64452500Y-144494250D02*
X64452500Y-146018250D01*
X59880500Y-144494250D02*
X59880500Y-146018250D01*
X64452500Y-146018250D02*
X59372500Y-146018250D01*
X60134500Y-146018250D02*
X60134500Y-144494250D01*
X59753500Y-146018250D02*
X59753500Y-144494250D01*
X59372500Y-144494250D02*
X64452500Y-144494250D01*
X59499500Y-146018250D02*
X59499500Y-144494250D01*
X64452500Y-146018250D02*
X63944500Y-146018250D01*
X59372500Y-146018250D02*
X59372500Y-144494250D01*
X60007500Y-146018250D02*
X60007500Y-144494250D01*
X59626500Y-144494250D02*
X59626500Y-146018250D01*
%TO.C,D7*%
X64452500Y-125444250D02*
X64452500Y-126968250D01*
X59880500Y-125444250D02*
X59880500Y-126968250D01*
X64452500Y-126968250D02*
X59372500Y-126968250D01*
X60134500Y-126968250D02*
X60134500Y-125444250D01*
X59753500Y-126968250D02*
X59753500Y-125444250D01*
X59372500Y-125444250D02*
X64452500Y-125444250D01*
X59499500Y-126968250D02*
X59499500Y-125444250D01*
X64452500Y-126968250D02*
X63944500Y-126968250D01*
X59372500Y-126968250D02*
X59372500Y-125444250D01*
X60007500Y-126968250D02*
X60007500Y-125444250D01*
X59626500Y-125444250D02*
X59626500Y-126968250D01*
%TO.C,D6*%
X64452500Y-106394250D02*
X64452500Y-107918250D01*
X59880500Y-106394250D02*
X59880500Y-107918250D01*
X64452500Y-107918250D02*
X59372500Y-107918250D01*
X60134500Y-107918250D02*
X60134500Y-106394250D01*
X59753500Y-107918250D02*
X59753500Y-106394250D01*
X59372500Y-106394250D02*
X64452500Y-106394250D01*
X59499500Y-107918250D02*
X59499500Y-106394250D01*
X64452500Y-107918250D02*
X63944500Y-107918250D01*
X59372500Y-107918250D02*
X59372500Y-106394250D01*
X60007500Y-107918250D02*
X60007500Y-106394250D01*
X59626500Y-106394250D02*
X59626500Y-107918250D01*
%TO.C,D5*%
X64452500Y-87344250D02*
X64452500Y-88868250D01*
X59880500Y-87344250D02*
X59880500Y-88868250D01*
X64452500Y-88868250D02*
X59372500Y-88868250D01*
X60134500Y-88868250D02*
X60134500Y-87344250D01*
X59753500Y-88868250D02*
X59753500Y-87344250D01*
X59372500Y-87344250D02*
X64452500Y-87344250D01*
X59499500Y-88868250D02*
X59499500Y-87344250D01*
X64452500Y-88868250D02*
X63944500Y-88868250D01*
X59372500Y-88868250D02*
X59372500Y-87344250D01*
X60007500Y-88868250D02*
X60007500Y-87344250D01*
X59626500Y-87344250D02*
X59626500Y-88868250D01*
%TO.C,D4*%
X43021250Y-144494250D02*
X43021250Y-146018250D01*
X38449250Y-144494250D02*
X38449250Y-146018250D01*
X43021250Y-146018250D02*
X37941250Y-146018250D01*
X38703250Y-146018250D02*
X38703250Y-144494250D01*
X38322250Y-146018250D02*
X38322250Y-144494250D01*
X37941250Y-144494250D02*
X43021250Y-144494250D01*
X38068250Y-146018250D02*
X38068250Y-144494250D01*
X43021250Y-146018250D02*
X42513250Y-146018250D01*
X37941250Y-146018250D02*
X37941250Y-144494250D01*
X38576250Y-146018250D02*
X38576250Y-144494250D01*
X38195250Y-144494250D02*
X38195250Y-146018250D01*
%TO.C,D3*%
X43021250Y-125444250D02*
X43021250Y-126968250D01*
X38449250Y-125444250D02*
X38449250Y-126968250D01*
X43021250Y-126968250D02*
X37941250Y-126968250D01*
X38703250Y-126968250D02*
X38703250Y-125444250D01*
X38322250Y-126968250D02*
X38322250Y-125444250D01*
X37941250Y-125444250D02*
X43021250Y-125444250D01*
X38068250Y-126968250D02*
X38068250Y-125444250D01*
X43021250Y-126968250D02*
X42513250Y-126968250D01*
X37941250Y-126968250D02*
X37941250Y-125444250D01*
X38576250Y-126968250D02*
X38576250Y-125444250D01*
X38195250Y-125444250D02*
X38195250Y-126968250D01*
%TO.C,D2*%
X43021250Y-106394250D02*
X43021250Y-107918250D01*
X38449250Y-106394250D02*
X38449250Y-107918250D01*
X43021250Y-107918250D02*
X37941250Y-107918250D01*
X38703250Y-107918250D02*
X38703250Y-106394250D01*
X38322250Y-107918250D02*
X38322250Y-106394250D01*
X37941250Y-106394250D02*
X43021250Y-106394250D01*
X38068250Y-107918250D02*
X38068250Y-106394250D01*
X43021250Y-107918250D02*
X42513250Y-107918250D01*
X37941250Y-107918250D02*
X37941250Y-106394250D01*
X38576250Y-107918250D02*
X38576250Y-106394250D01*
X38195250Y-106394250D02*
X38195250Y-107918250D01*
%TO.C,D1*%
X43021250Y-87344250D02*
X43021250Y-88868250D01*
X38449250Y-87344250D02*
X38449250Y-88868250D01*
X43021250Y-88868250D02*
X37941250Y-88868250D01*
X38703250Y-88868250D02*
X38703250Y-87344250D01*
X38322250Y-88868250D02*
X38322250Y-87344250D01*
X37941250Y-87344250D02*
X43021250Y-87344250D01*
X38068250Y-88868250D02*
X38068250Y-87344250D01*
X43021250Y-88868250D02*
X42513250Y-88868250D01*
X37941250Y-88868250D02*
X37941250Y-87344250D01*
X38576250Y-88868250D02*
X38576250Y-87344250D01*
X38195250Y-87344250D02*
X38195250Y-88868250D01*
D12*
%TO.C,G\u002A\u002A\u002A*%
G36*
X161493334Y-144791543D02*
G01*
X161131113Y-144860786D01*
X160978381Y-144882867D01*
X160847638Y-144859781D01*
X160709902Y-144756975D01*
X160536191Y-144539894D01*
X160297520Y-144173983D01*
X159964907Y-143624689D01*
X159650740Y-143095833D01*
X159396458Y-142685881D01*
X159194144Y-142394166D01*
X159088447Y-142284444D01*
X158923064Y-142358452D01*
X158747357Y-142474500D01*
X158641527Y-142572836D01*
X158609290Y-142699788D01*
X158667297Y-142903970D01*
X158832202Y-143233996D01*
X159120656Y-143738480D01*
X159263732Y-143981975D01*
X160040024Y-145299393D01*
X159622328Y-145891984D01*
X159246563Y-146637911D01*
X159095022Y-147444753D01*
X159166390Y-148244437D01*
X159459352Y-148968891D01*
X159687767Y-149280774D01*
X160334601Y-149841653D01*
X161074838Y-150195248D01*
X161852806Y-150335137D01*
X162612833Y-150254894D01*
X163299249Y-149948095D01*
X163574722Y-149729335D01*
X163892222Y-149431915D01*
X163892222Y-152021111D01*
X164738889Y-152021111D01*
X164738889Y-146878294D01*
X162051901Y-146878294D01*
X161915131Y-147340545D01*
X161616105Y-147694654D01*
X161448831Y-147786792D01*
X161127290Y-147896623D01*
X160884218Y-147887580D01*
X160567624Y-147749183D01*
X160515648Y-147722441D01*
X160110726Y-147377227D01*
X159936521Y-146920526D01*
X160005888Y-146420251D01*
X160205153Y-146081855D01*
X160574011Y-145828224D01*
X161052823Y-145753325D01*
X161529433Y-145861773D01*
X161768537Y-146017537D01*
X162008882Y-146404944D01*
X162051901Y-146878294D01*
X164738889Y-146878294D01*
X164738889Y-145306574D01*
X163881082Y-145306574D01*
X163855138Y-145489597D01*
X163806968Y-145491782D01*
X163773282Y-145302920D01*
X163795828Y-145221319D01*
X163858485Y-145167869D01*
X163881082Y-145306574D01*
X164738889Y-145306574D01*
X164738889Y-144824444D01*
X164374352Y-144824444D01*
X164121497Y-144790132D01*
X164056852Y-144718611D01*
X164144635Y-144553239D01*
X164335155Y-144209783D01*
X164591174Y-143755220D01*
X164656430Y-143640198D01*
X164928020Y-143152339D01*
X165071631Y-142847648D01*
X165102273Y-142665975D01*
X165034958Y-142547173D01*
X164946959Y-142476031D01*
X164706696Y-142324855D01*
X164598449Y-142284444D01*
X164498184Y-142399568D01*
X164292953Y-142711538D01*
X164014415Y-143170255D01*
X163749019Y-143628687D01*
X163342029Y-144309073D01*
X163039371Y-144731504D01*
X162838577Y-144899258D01*
X162792614Y-144898687D01*
X162531917Y-144829828D01*
X162469570Y-144824444D01*
X162417506Y-144692848D01*
X162375429Y-144336026D01*
X162348094Y-143810924D01*
X162340000Y-143272222D01*
X162340000Y-141720000D01*
X161493334Y-141720000D01*
X161493334Y-144791543D01*
G37*
X161493334Y-144791543D02*
X161131113Y-144860786D01*
X160978381Y-144882867D01*
X160847638Y-144859781D01*
X160709902Y-144756975D01*
X160536191Y-144539894D01*
X160297520Y-144173983D01*
X159964907Y-143624689D01*
X159650740Y-143095833D01*
X159396458Y-142685881D01*
X159194144Y-142394166D01*
X159088447Y-142284444D01*
X158923064Y-142358452D01*
X158747357Y-142474500D01*
X158641527Y-142572836D01*
X158609290Y-142699788D01*
X158667297Y-142903970D01*
X158832202Y-143233996D01*
X159120656Y-143738480D01*
X159263732Y-143981975D01*
X160040024Y-145299393D01*
X159622328Y-145891984D01*
X159246563Y-146637911D01*
X159095022Y-147444753D01*
X159166390Y-148244437D01*
X159459352Y-148968891D01*
X159687767Y-149280774D01*
X160334601Y-149841653D01*
X161074838Y-150195248D01*
X161852806Y-150335137D01*
X162612833Y-150254894D01*
X163299249Y-149948095D01*
X163574722Y-149729335D01*
X163892222Y-149431915D01*
X163892222Y-152021111D01*
X164738889Y-152021111D01*
X164738889Y-146878294D01*
X162051901Y-146878294D01*
X161915131Y-147340545D01*
X161616105Y-147694654D01*
X161448831Y-147786792D01*
X161127290Y-147896623D01*
X160884218Y-147887580D01*
X160567624Y-147749183D01*
X160515648Y-147722441D01*
X160110726Y-147377227D01*
X159936521Y-146920526D01*
X160005888Y-146420251D01*
X160205153Y-146081855D01*
X160574011Y-145828224D01*
X161052823Y-145753325D01*
X161529433Y-145861773D01*
X161768537Y-146017537D01*
X162008882Y-146404944D01*
X162051901Y-146878294D01*
X164738889Y-146878294D01*
X164738889Y-145306574D01*
X163881082Y-145306574D01*
X163855138Y-145489597D01*
X163806968Y-145491782D01*
X163773282Y-145302920D01*
X163795828Y-145221319D01*
X163858485Y-145167869D01*
X163881082Y-145306574D01*
X164738889Y-145306574D01*
X164738889Y-144824444D01*
X164374352Y-144824444D01*
X164121497Y-144790132D01*
X164056852Y-144718611D01*
X164144635Y-144553239D01*
X164335155Y-144209783D01*
X164591174Y-143755220D01*
X164656430Y-143640198D01*
X164928020Y-143152339D01*
X165071631Y-142847648D01*
X165102273Y-142665975D01*
X165034958Y-142547173D01*
X164946959Y-142476031D01*
X164706696Y-142324855D01*
X164598449Y-142284444D01*
X164498184Y-142399568D01*
X164292953Y-142711538D01*
X164014415Y-143170255D01*
X163749019Y-143628687D01*
X163342029Y-144309073D01*
X163039371Y-144731504D01*
X162838577Y-144899258D01*
X162792614Y-144898687D01*
X162531917Y-144829828D01*
X162469570Y-144824444D01*
X162417506Y-144692848D01*
X162375429Y-144336026D01*
X162348094Y-143810924D01*
X162340000Y-143272222D01*
X162340000Y-141720000D01*
X161493334Y-141720000D01*
X161493334Y-144791543D01*
G36*
X129149125Y-144864005D02*
G01*
X129037778Y-144953158D01*
X129091273Y-145112464D01*
X129242023Y-145495486D01*
X129475423Y-146066834D01*
X129776868Y-146791114D01*
X130131756Y-147632936D01*
X130508055Y-148516214D01*
X130950874Y-149548377D01*
X131299380Y-150350363D01*
X131569741Y-150951691D01*
X131778124Y-151381883D01*
X131940695Y-151670461D01*
X132073622Y-151846945D01*
X132193072Y-151940856D01*
X132315211Y-151981716D01*
X132413055Y-151994773D01*
X132714419Y-152007015D01*
X132847450Y-151975981D01*
X132847778Y-151973460D01*
X132796340Y-151821013D01*
X132660666Y-151479668D01*
X132468715Y-151019493D01*
X132442992Y-150959065D01*
X132038206Y-150010202D01*
X133007437Y-147600555D01*
X133316052Y-146823223D01*
X133584084Y-146128876D01*
X133794716Y-145562664D01*
X133931131Y-145169736D01*
X133976667Y-144998303D01*
X133856006Y-144858287D01*
X133588611Y-144850349D01*
X133430259Y-144886382D01*
X133291911Y-144980844D01*
X133150148Y-145174082D01*
X132981551Y-145506447D01*
X132762702Y-146018287D01*
X132470183Y-146749953D01*
X132436562Y-146835277D01*
X132162165Y-147516437D01*
X131918092Y-148093039D01*
X131724742Y-148519097D01*
X131602514Y-148748627D01*
X131575854Y-148775555D01*
X131490934Y-148652315D01*
X131320824Y-148312614D01*
X131086501Y-147801484D01*
X130808943Y-147163958D01*
X130655557Y-146800000D01*
X130337126Y-146042775D01*
X130100906Y-145508395D01*
X129923002Y-145158190D01*
X129779520Y-144953487D01*
X129646565Y-144855617D01*
X129500242Y-144825907D01*
X129434876Y-144824444D01*
X129149125Y-144864005D01*
G37*
X129149125Y-144864005D02*
X129037778Y-144953158D01*
X129091273Y-145112464D01*
X129242023Y-145495486D01*
X129475423Y-146066834D01*
X129776868Y-146791114D01*
X130131756Y-147632936D01*
X130508055Y-148516214D01*
X130950874Y-149548377D01*
X131299380Y-150350363D01*
X131569741Y-150951691D01*
X131778124Y-151381883D01*
X131940695Y-151670461D01*
X132073622Y-151846945D01*
X132193072Y-151940856D01*
X132315211Y-151981716D01*
X132413055Y-151994773D01*
X132714419Y-152007015D01*
X132847450Y-151975981D01*
X132847778Y-151973460D01*
X132796340Y-151821013D01*
X132660666Y-151479668D01*
X132468715Y-151019493D01*
X132442992Y-150959065D01*
X132038206Y-150010202D01*
X133007437Y-147600555D01*
X133316052Y-146823223D01*
X133584084Y-146128876D01*
X133794716Y-145562664D01*
X133931131Y-145169736D01*
X133976667Y-144998303D01*
X133856006Y-144858287D01*
X133588611Y-144850349D01*
X133430259Y-144886382D01*
X133291911Y-144980844D01*
X133150148Y-145174082D01*
X132981551Y-145506447D01*
X132762702Y-146018287D01*
X132470183Y-146749953D01*
X132436562Y-146835277D01*
X132162165Y-147516437D01*
X131918092Y-148093039D01*
X131724742Y-148519097D01*
X131602514Y-148748627D01*
X131575854Y-148775555D01*
X131490934Y-148652315D01*
X131320824Y-148312614D01*
X131086501Y-147801484D01*
X130808943Y-147163958D01*
X130655557Y-146800000D01*
X130337126Y-146042775D01*
X130100906Y-145508395D01*
X129923002Y-145158190D01*
X129779520Y-144953487D01*
X129646565Y-144855617D01*
X129500242Y-144825907D01*
X129434876Y-144824444D01*
X129149125Y-144864005D01*
G36*
X155403992Y-146780792D02*
G01*
X155381563Y-147569600D01*
X155354237Y-148128407D01*
X155313315Y-148509406D01*
X155250098Y-148764791D01*
X155155885Y-148946757D01*
X155021978Y-149107499D01*
X155014932Y-149115014D01*
X154511337Y-149465695D01*
X153931044Y-149586387D01*
X153349101Y-149485054D01*
X152840557Y-149169662D01*
X152587172Y-148857356D01*
X152473260Y-148627692D01*
X152396563Y-148342578D01*
X152350267Y-147944713D01*
X152327562Y-147376796D01*
X152321639Y-146623611D01*
X152321111Y-144824444D01*
X151474445Y-144824444D01*
X151474445Y-150186666D01*
X151897778Y-150186666D01*
X152203571Y-150145771D01*
X152314981Y-149982777D01*
X152323272Y-149869166D01*
X152360346Y-149679962D01*
X152429106Y-149700957D01*
X152833044Y-150054282D01*
X153406223Y-150264233D01*
X154069139Y-150320771D01*
X154742294Y-150213854D01*
X155159474Y-150045766D01*
X155537597Y-149799108D01*
X155815168Y-149487700D01*
X156006231Y-149067771D01*
X156124827Y-148495552D01*
X156185001Y-147727272D01*
X156200840Y-146800000D01*
X156201667Y-144895000D01*
X155827326Y-144851672D01*
X155452984Y-144808345D01*
X155403992Y-146780792D01*
G37*
X155403992Y-146780792D02*
X155381563Y-147569600D01*
X155354237Y-148128407D01*
X155313315Y-148509406D01*
X155250098Y-148764791D01*
X155155885Y-148946757D01*
X155021978Y-149107499D01*
X155014932Y-149115014D01*
X154511337Y-149465695D01*
X153931044Y-149586387D01*
X153349101Y-149485054D01*
X152840557Y-149169662D01*
X152587172Y-148857356D01*
X152473260Y-148627692D01*
X152396563Y-148342578D01*
X152350267Y-147944713D01*
X152327562Y-147376796D01*
X152321639Y-146623611D01*
X152321111Y-144824444D01*
X151474445Y-144824444D01*
X151474445Y-150186666D01*
X151897778Y-150186666D01*
X152203571Y-150145771D01*
X152314981Y-149982777D01*
X152323272Y-149869166D01*
X152360346Y-149679962D01*
X152429106Y-149700957D01*
X152833044Y-150054282D01*
X153406223Y-150264233D01*
X154069139Y-150320771D01*
X154742294Y-150213854D01*
X155159474Y-150045766D01*
X155537597Y-149799108D01*
X155815168Y-149487700D01*
X156006231Y-149067771D01*
X156124827Y-148495552D01*
X156185001Y-147727272D01*
X156200840Y-146800000D01*
X156201667Y-144895000D01*
X155827326Y-144851672D01*
X155452984Y-144808345D01*
X155403992Y-146780792D01*
G36*
X147197119Y-144822635D02*
G01*
X146623123Y-144959941D01*
X146293982Y-145133740D01*
X145908864Y-145427295D01*
X145538598Y-145773629D01*
X145254013Y-146105768D01*
X145125938Y-146356735D01*
X145124445Y-146377073D01*
X145235708Y-146500383D01*
X145504445Y-146517075D01*
X145833081Y-146441352D01*
X146124037Y-146287419D01*
X146195852Y-146221108D01*
X146789252Y-145757723D01*
X147477115Y-145551043D01*
X148219988Y-145609345D01*
X148562507Y-145724566D01*
X149138686Y-146098589D01*
X149519957Y-146619124D01*
X149705728Y-147228015D01*
X149695408Y-147867104D01*
X149488405Y-148478231D01*
X149084127Y-149003241D01*
X148599188Y-149331518D01*
X148168600Y-149508472D01*
X147792019Y-149611511D01*
X147685916Y-149622222D01*
X147177530Y-149525020D01*
X146636352Y-149278726D01*
X146209964Y-148951307D01*
X146196185Y-148936142D01*
X145943387Y-148759238D01*
X145618090Y-148652084D01*
X145317740Y-148630265D01*
X145139784Y-148709367D01*
X145124445Y-148764728D01*
X145208314Y-148945603D01*
X145418098Y-149240446D01*
X145506662Y-149349253D01*
X146125116Y-149876640D01*
X146886507Y-150204776D01*
X147721650Y-150320563D01*
X148561356Y-150210900D01*
X149058435Y-150021714D01*
X149714808Y-149549192D01*
X150202911Y-148899173D01*
X150492257Y-148138451D01*
X150552361Y-147333815D01*
X150479662Y-146907924D01*
X150132824Y-146105734D01*
X149589050Y-145474844D01*
X148890440Y-145036520D01*
X148079096Y-144812029D01*
X147197119Y-144822635D01*
G37*
X147197119Y-144822635D02*
X146623123Y-144959941D01*
X146293982Y-145133740D01*
X145908864Y-145427295D01*
X145538598Y-145773629D01*
X145254013Y-146105768D01*
X145125938Y-146356735D01*
X145124445Y-146377073D01*
X145235708Y-146500383D01*
X145504445Y-146517075D01*
X145833081Y-146441352D01*
X146124037Y-146287419D01*
X146195852Y-146221108D01*
X146789252Y-145757723D01*
X147477115Y-145551043D01*
X148219988Y-145609345D01*
X148562507Y-145724566D01*
X149138686Y-146098589D01*
X149519957Y-146619124D01*
X149705728Y-147228015D01*
X149695408Y-147867104D01*
X149488405Y-148478231D01*
X149084127Y-149003241D01*
X148599188Y-149331518D01*
X148168600Y-149508472D01*
X147792019Y-149611511D01*
X147685916Y-149622222D01*
X147177530Y-149525020D01*
X146636352Y-149278726D01*
X146209964Y-148951307D01*
X146196185Y-148936142D01*
X145943387Y-148759238D01*
X145618090Y-148652084D01*
X145317740Y-148630265D01*
X145139784Y-148709367D01*
X145124445Y-148764728D01*
X145208314Y-148945603D01*
X145418098Y-149240446D01*
X145506662Y-149349253D01*
X146125116Y-149876640D01*
X146886507Y-150204776D01*
X147721650Y-150320563D01*
X148561356Y-150210900D01*
X149058435Y-150021714D01*
X149714808Y-149549192D01*
X150202911Y-148899173D01*
X150492257Y-148138451D01*
X150552361Y-147333815D01*
X150479662Y-146907924D01*
X150132824Y-146105734D01*
X149589050Y-145474844D01*
X148890440Y-145036520D01*
X148079096Y-144812029D01*
X147197119Y-144822635D01*
G36*
X136140200Y-144927976D02*
G01*
X135399977Y-145289548D01*
X134816465Y-145844789D01*
X134429071Y-146559364D01*
X134294050Y-147150195D01*
X134222185Y-147787777D01*
X136568871Y-147787777D01*
X137477097Y-147789692D01*
X138134666Y-147803997D01*
X138573144Y-147843534D01*
X138824095Y-147921143D01*
X138919085Y-148049667D01*
X138889678Y-148241947D01*
X138767439Y-148510823D01*
X138694531Y-148652540D01*
X138398158Y-148998911D01*
X137934431Y-149317517D01*
X137415834Y-149544000D01*
X137010556Y-149616024D01*
X136583488Y-149533570D01*
X136101083Y-149324601D01*
X135668143Y-149046704D01*
X135389472Y-148757467D01*
X135365276Y-148711965D01*
X135134050Y-148425198D01*
X134800683Y-148352222D01*
X134498242Y-148410234D01*
X134400000Y-148538489D01*
X134502446Y-148795188D01*
X134765908Y-149149671D01*
X135124578Y-149531796D01*
X135512644Y-149871422D01*
X135863056Y-150097821D01*
X136454084Y-150269801D01*
X137140525Y-150311426D01*
X137792214Y-150222934D01*
X138139445Y-150093696D01*
X138912186Y-149561399D01*
X139433299Y-148905110D01*
X139709991Y-148113323D01*
X139762222Y-147503080D01*
X139701086Y-147082222D01*
X138934574Y-147082222D01*
X137020065Y-147082222D01*
X136321865Y-147076851D01*
X135737666Y-147062126D01*
X135318754Y-147040122D01*
X135116416Y-147012919D01*
X135105556Y-147004659D01*
X135203419Y-146707751D01*
X135447425Y-146334981D01*
X135763197Y-145986615D01*
X135994351Y-145806509D01*
X136616838Y-145569903D01*
X137274597Y-145554891D01*
X137899828Y-145738626D01*
X138424729Y-146098261D01*
X138781503Y-146610947D01*
X138837819Y-146764722D01*
X138934574Y-147082222D01*
X139701086Y-147082222D01*
X139635936Y-146633745D01*
X139278096Y-145897463D01*
X138720231Y-145325128D01*
X137993871Y-144947630D01*
X137130544Y-144795863D01*
X136997725Y-144794412D01*
X136140200Y-144927976D01*
G37*
X136140200Y-144927976D02*
X135399977Y-145289548D01*
X134816465Y-145844789D01*
X134429071Y-146559364D01*
X134294050Y-147150195D01*
X134222185Y-147787777D01*
X136568871Y-147787777D01*
X137477097Y-147789692D01*
X138134666Y-147803997D01*
X138573144Y-147843534D01*
X138824095Y-147921143D01*
X138919085Y-148049667D01*
X138889678Y-148241947D01*
X138767439Y-148510823D01*
X138694531Y-148652540D01*
X138398158Y-148998911D01*
X137934431Y-149317517D01*
X137415834Y-149544000D01*
X137010556Y-149616024D01*
X136583488Y-149533570D01*
X136101083Y-149324601D01*
X135668143Y-149046704D01*
X135389472Y-148757467D01*
X135365276Y-148711965D01*
X135134050Y-148425198D01*
X134800683Y-148352222D01*
X134498242Y-148410234D01*
X134400000Y-148538489D01*
X134502446Y-148795188D01*
X134765908Y-149149671D01*
X135124578Y-149531796D01*
X135512644Y-149871422D01*
X135863056Y-150097821D01*
X136454084Y-150269801D01*
X137140525Y-150311426D01*
X137792214Y-150222934D01*
X138139445Y-150093696D01*
X138912186Y-149561399D01*
X139433299Y-148905110D01*
X139709991Y-148113323D01*
X139762222Y-147503080D01*
X139701086Y-147082222D01*
X138934574Y-147082222D01*
X137020065Y-147082222D01*
X136321865Y-147076851D01*
X135737666Y-147062126D01*
X135318754Y-147040122D01*
X135116416Y-147012919D01*
X135105556Y-147004659D01*
X135203419Y-146707751D01*
X135447425Y-146334981D01*
X135763197Y-145986615D01*
X135994351Y-145806509D01*
X136616838Y-145569903D01*
X137274597Y-145554891D01*
X137899828Y-145738626D01*
X138424729Y-146098261D01*
X138781503Y-146610947D01*
X138837819Y-146764722D01*
X138934574Y-147082222D01*
X139701086Y-147082222D01*
X139635936Y-146633745D01*
X139278096Y-145897463D01*
X138720231Y-145325128D01*
X137993871Y-144947630D01*
X137130544Y-144795863D01*
X136997725Y-144794412D01*
X136140200Y-144927976D01*
G36*
X157401111Y-150186666D02*
G01*
X158106667Y-150186666D01*
X158106667Y-142990000D01*
X157401111Y-142990000D01*
X157401111Y-150186666D01*
G37*
X157401111Y-150186666D02*
X158106667Y-150186666D01*
X158106667Y-142990000D01*
X157401111Y-142990000D01*
X157401111Y-150186666D01*
G36*
X143748611Y-143015904D02*
G01*
X143360556Y-143060555D01*
X143290000Y-145429716D01*
X143219445Y-147798877D01*
X142090962Y-146311660D01*
X141622913Y-145702386D01*
X141282109Y-145285684D01*
X141030183Y-145025610D01*
X140828765Y-144886217D01*
X140639484Y-144831559D01*
X140503462Y-144824444D01*
X140190934Y-144843984D01*
X140045735Y-144891572D01*
X140044445Y-144897020D01*
X140126154Y-145030425D01*
X140348159Y-145338285D01*
X140675775Y-145773624D01*
X141042246Y-146248401D01*
X141448182Y-146760540D01*
X141722645Y-147131843D01*
X141860169Y-147421159D01*
X141855291Y-147687339D01*
X141702546Y-147989232D01*
X141396469Y-148385688D01*
X140931597Y-148935556D01*
X140775504Y-149121115D01*
X139883786Y-150186666D01*
X140373486Y-150186666D01*
X140644441Y-150159786D01*
X140885678Y-150049324D01*
X141159903Y-149810543D01*
X141529822Y-149398711D01*
X141609741Y-149304722D01*
X141972165Y-148876741D01*
X142270404Y-148524867D01*
X142452336Y-148310587D01*
X142474528Y-148284564D01*
X142641087Y-148252578D01*
X142845726Y-148426595D01*
X143047957Y-148741549D01*
X143207295Y-149132376D01*
X143283253Y-149534011D01*
X143284926Y-149586944D01*
X143302608Y-149963398D01*
X143384587Y-150136417D01*
X143587059Y-150184674D01*
X143713334Y-150186666D01*
X144136667Y-150186666D01*
X144136667Y-142971254D01*
X143748611Y-143015904D01*
G37*
X143748611Y-143015904D02*
X143360556Y-143060555D01*
X143290000Y-145429716D01*
X143219445Y-147798877D01*
X142090962Y-146311660D01*
X141622913Y-145702386D01*
X141282109Y-145285684D01*
X141030183Y-145025610D01*
X140828765Y-144886217D01*
X140639484Y-144831559D01*
X140503462Y-144824444D01*
X140190934Y-144843984D01*
X140045735Y-144891572D01*
X140044445Y-144897020D01*
X140126154Y-145030425D01*
X140348159Y-145338285D01*
X140675775Y-145773624D01*
X141042246Y-146248401D01*
X141448182Y-146760540D01*
X141722645Y-147131843D01*
X141860169Y-147421159D01*
X141855291Y-147687339D01*
X141702546Y-147989232D01*
X141396469Y-148385688D01*
X140931597Y-148935556D01*
X140775504Y-149121115D01*
X139883786Y-150186666D01*
X140373486Y-150186666D01*
X140644441Y-150159786D01*
X140885678Y-150049324D01*
X141159903Y-149810543D01*
X141529822Y-149398711D01*
X141609741Y-149304722D01*
X141972165Y-148876741D01*
X142270404Y-148524867D01*
X142452336Y-148310587D01*
X142474528Y-148284564D01*
X142641087Y-148252578D01*
X142845726Y-148426595D01*
X143047957Y-148741549D01*
X143207295Y-149132376D01*
X143283253Y-149534011D01*
X143284926Y-149586944D01*
X143302608Y-149963398D01*
X143384587Y-150136417D01*
X143587059Y-150184674D01*
X143713334Y-150186666D01*
X144136667Y-150186666D01*
X144136667Y-142971254D01*
X143748611Y-143015904D01*
D11*
%TO.C,RSW1*%
X146138120Y-103012920D02*
X145888120Y-103012920D01*
X145888120Y-103012920D02*
X145888120Y-97012920D01*
X145888120Y-97012920D02*
X146138120Y-97012920D01*
X149138120Y-97012920D02*
X149388120Y-97012920D01*
X149388120Y-97012920D02*
X149388120Y-103012920D01*
X149388120Y-103012920D02*
X149138120Y-103012920D01*
D13*
%TO.C,U1*%
X131763080Y-107394890D02*
X129223080Y-107394890D01*
X147003080Y-104854890D02*
X129223080Y-104854890D01*
X129223080Y-104854890D02*
X129223080Y-137874890D01*
X129223080Y-137874890D02*
X147003080Y-137874890D01*
X147003080Y-137874890D02*
X147003080Y-104854890D01*
D11*
G36*
X143957715Y-113283920D02*
G01*
X143957715Y-113383920D01*
X144457715Y-113383920D01*
X144457715Y-113283920D01*
X143957715Y-113283920D01*
G37*
X143957715Y-113283920D02*
X143957715Y-113383920D01*
X144457715Y-113383920D01*
X144457715Y-113283920D01*
X143957715Y-113283920D01*
G36*
X143957715Y-113283920D02*
G01*
X143957715Y-113583920D01*
X144057715Y-113583920D01*
X144057715Y-113283920D01*
X143957715Y-113283920D01*
G37*
X143957715Y-113283920D02*
X143957715Y-113583920D01*
X144057715Y-113583920D01*
X144057715Y-113283920D01*
X143957715Y-113283920D01*
G36*
X143957715Y-113883920D02*
G01*
X143957715Y-114083920D01*
X144057715Y-114083920D01*
X144057715Y-113883920D01*
X143957715Y-113883920D01*
G37*
X143957715Y-113883920D02*
X143957715Y-114083920D01*
X144057715Y-114083920D01*
X144057715Y-113883920D01*
X143957715Y-113883920D01*
G36*
X144357715Y-113283920D02*
G01*
X144357715Y-114083920D01*
X144457715Y-114083920D01*
X144457715Y-113283920D01*
X144357715Y-113283920D01*
G37*
X144357715Y-113283920D02*
X144357715Y-114083920D01*
X144457715Y-114083920D01*
X144457715Y-113283920D01*
X144357715Y-113283920D01*
G36*
X144157715Y-113683920D02*
G01*
X144157715Y-113783920D01*
X144257715Y-113783920D01*
X144257715Y-113683920D01*
X144157715Y-113683920D01*
G37*
X144157715Y-113683920D02*
X144157715Y-113783920D01*
X144257715Y-113783920D01*
X144257715Y-113683920D01*
X144157715Y-113683920D01*
D13*
X131763080Y-107394890D02*
X131763080Y-109934890D01*
X131763080Y-109934890D02*
X129223080Y-109934890D01*
D11*
%TO.C,P2*%
X127575000Y-91425000D02*
X127575000Y-89425000D01*
X127575000Y-89425000D02*
X129575000Y-89425000D01*
X129575000Y-89425000D02*
X129575000Y-91425000D01*
X129575000Y-91425000D02*
X127575000Y-91425000D01*
%TO.C,U2*%
X166150000Y-83200000D02*
X166150000Y-89200000D01*
X166150000Y-89200000D02*
X154150000Y-89200000D01*
X154150000Y-89200000D02*
X154150000Y-83200000D01*
X154150000Y-83200000D02*
X166150000Y-83200000D01*
%TO.C,SW40*%
X150162500Y-129731250D02*
X150162500Y-128731250D01*
X150162500Y-142731250D02*
X150162500Y-141731250D01*
X151162500Y-142731250D02*
X150162500Y-142731250D01*
X164162500Y-141731250D02*
X164162500Y-142731250D01*
X164162500Y-142731250D02*
X163162500Y-142731250D01*
X164162500Y-128731250D02*
X164162500Y-129731250D01*
X163162500Y-128731250D02*
X164162500Y-128731250D01*
X150162500Y-128731250D02*
X151162500Y-128731250D01*
%TO.C,SW39*%
X150162500Y-96393750D02*
X150162500Y-95393750D01*
X150162500Y-109393750D02*
X150162500Y-108393750D01*
X151162500Y-109393750D02*
X150162500Y-109393750D01*
X164162500Y-108393750D02*
X164162500Y-109393750D01*
X164162500Y-109393750D02*
X163162500Y-109393750D01*
X164162500Y-95393750D02*
X164162500Y-96393750D01*
X163162500Y-95393750D02*
X164162500Y-95393750D01*
X150162500Y-95393750D02*
X151162500Y-95393750D01*
%TO.C,SW38*%
X172042679Y-139300820D02*
X172451009Y-138387986D01*
X166734383Y-151167664D02*
X167142713Y-150254830D01*
X167647217Y-151575994D02*
X166734383Y-151167664D01*
X179922391Y-155971456D02*
X179514061Y-156884290D01*
X179514061Y-156884290D02*
X178601227Y-156475960D01*
X185230687Y-144104612D02*
X184822357Y-145017446D01*
X184317853Y-143696282D02*
X185230687Y-144104612D01*
X172451009Y-138387986D02*
X173363843Y-138796316D01*
%TO.C,SW37*%
X164263984Y-156690311D02*
X164672314Y-155777477D01*
X158955688Y-168557155D02*
X159364018Y-167644321D01*
X159868522Y-168965485D02*
X158955688Y-168557155D01*
X172143696Y-173360947D02*
X171735366Y-174273781D01*
X171735366Y-174273781D02*
X170822532Y-173865451D01*
X177451992Y-161494103D02*
X177043662Y-162406937D01*
X176539158Y-161085773D02*
X177451992Y-161494103D01*
X164672314Y-155777477D02*
X165585148Y-156185807D01*
%TO.C,SW36*%
X150162500Y-124968750D02*
X150162500Y-123968750D01*
X150162500Y-137968750D02*
X150162500Y-136968750D01*
X151162500Y-137968750D02*
X150162500Y-137968750D01*
X164162500Y-136968750D02*
X164162500Y-137968750D01*
X164162500Y-137968750D02*
X163162500Y-137968750D01*
X164162500Y-123968750D02*
X164162500Y-124968750D01*
X163162500Y-123968750D02*
X164162500Y-123968750D01*
X150162500Y-123968750D02*
X151162500Y-123968750D01*
%TO.C,SW35*%
X150162500Y-110681250D02*
X150162500Y-109681250D01*
X150162500Y-123681250D02*
X150162500Y-122681250D01*
X151162500Y-123681250D02*
X150162500Y-123681250D01*
X164162500Y-122681250D02*
X164162500Y-123681250D01*
X164162500Y-123681250D02*
X163162500Y-123681250D01*
X164162500Y-109681250D02*
X164162500Y-110681250D01*
X163162500Y-109681250D02*
X164162500Y-109681250D01*
X150162500Y-109681250D02*
X151162500Y-109681250D01*
%TO.C,SW34*%
X150162500Y-91631250D02*
X150162500Y-90631250D01*
X150162500Y-104631250D02*
X150162500Y-103631250D01*
X151162500Y-104631250D02*
X150162500Y-104631250D01*
X164162500Y-103631250D02*
X164162500Y-104631250D01*
X164162500Y-104631250D02*
X163162500Y-104631250D01*
X164162500Y-90631250D02*
X164162500Y-91631250D01*
X163162500Y-90631250D02*
X164162500Y-90631250D01*
X150162500Y-90631250D02*
X151162500Y-90631250D01*
%TO.C,SW33*%
X150162500Y-72581250D02*
X150162500Y-71581250D01*
X150162500Y-85581250D02*
X150162500Y-84581250D01*
X151162500Y-85581250D02*
X150162500Y-85581250D01*
X164162500Y-84581250D02*
X164162500Y-85581250D01*
X164162500Y-85581250D02*
X163162500Y-85581250D01*
X164162500Y-71581250D02*
X164162500Y-72581250D01*
X163162500Y-71581250D02*
X164162500Y-71581250D01*
X150162500Y-71581250D02*
X151162500Y-71581250D01*
%TO.C,SW32*%
X138040608Y-150231543D02*
X138248520Y-149253395D01*
X135337756Y-162947461D02*
X135545668Y-161969314D01*
X136315904Y-163155373D02*
X135337756Y-162947461D01*
X149239734Y-164880077D02*
X149031822Y-165858225D01*
X149031822Y-165858225D02*
X148053675Y-165650313D01*
X151942586Y-152164159D02*
X151734674Y-153142306D01*
X150964438Y-151956247D02*
X151942586Y-152164159D01*
X138248520Y-149253395D02*
X139226667Y-149461307D01*
%TO.C,SW31*%
X131112500Y-129731250D02*
X131112500Y-128731250D01*
X131112500Y-142731250D02*
X131112500Y-141731250D01*
X132112500Y-142731250D02*
X131112500Y-142731250D01*
X145112500Y-141731250D02*
X145112500Y-142731250D01*
X145112500Y-142731250D02*
X144112500Y-142731250D01*
X145112500Y-128731250D02*
X145112500Y-129731250D01*
X144112500Y-128731250D02*
X145112500Y-128731250D01*
X131112500Y-128731250D02*
X132112500Y-128731250D01*
%TO.C,SW30*%
X131112500Y-110681250D02*
X131112500Y-109681250D01*
X131112500Y-123681250D02*
X131112500Y-122681250D01*
X132112500Y-123681250D02*
X131112500Y-123681250D01*
X145112500Y-122681250D02*
X145112500Y-123681250D01*
X145112500Y-123681250D02*
X144112500Y-123681250D01*
X145112500Y-109681250D02*
X145112500Y-110681250D01*
X144112500Y-109681250D02*
X145112500Y-109681250D01*
X131112500Y-109681250D02*
X132112500Y-109681250D01*
%TO.C,SW29*%
X131112500Y-91631250D02*
X131112500Y-90631250D01*
X131112500Y-104631250D02*
X131112500Y-103631250D01*
X132112500Y-104631250D02*
X131112500Y-104631250D01*
X145112500Y-103631250D02*
X145112500Y-104631250D01*
X145112500Y-104631250D02*
X144112500Y-104631250D01*
X145112500Y-90631250D02*
X145112500Y-91631250D01*
X144112500Y-90631250D02*
X145112500Y-90631250D01*
X131112500Y-90631250D02*
X132112500Y-90631250D01*
%TO.C,SW28*%
X131112500Y-72581250D02*
X131112500Y-71581250D01*
X131112500Y-85581250D02*
X131112500Y-84581250D01*
X132112500Y-85581250D02*
X131112500Y-85581250D01*
X145112500Y-84581250D02*
X145112500Y-85581250D01*
X145112500Y-85581250D02*
X144112500Y-85581250D01*
X145112500Y-71581250D02*
X145112500Y-72581250D01*
X144112500Y-71581250D02*
X145112500Y-71581250D01*
X131112500Y-71581250D02*
X132112500Y-71581250D01*
%TO.C,SW27*%
X112062500Y-144018750D02*
X112062500Y-143018750D01*
X112062500Y-157018750D02*
X112062500Y-156018750D01*
X113062500Y-157018750D02*
X112062500Y-157018750D01*
X126062500Y-156018750D02*
X126062500Y-157018750D01*
X126062500Y-157018750D02*
X125062500Y-157018750D01*
X126062500Y-143018750D02*
X126062500Y-144018750D01*
X125062500Y-143018750D02*
X126062500Y-143018750D01*
X112062500Y-143018750D02*
X113062500Y-143018750D01*
%TO.C,SW26*%
X112062500Y-124968750D02*
X112062500Y-123968750D01*
X112062500Y-137968750D02*
X112062500Y-136968750D01*
X113062500Y-137968750D02*
X112062500Y-137968750D01*
X126062500Y-136968750D02*
X126062500Y-137968750D01*
X126062500Y-137968750D02*
X125062500Y-137968750D01*
X126062500Y-123968750D02*
X126062500Y-124968750D01*
X125062500Y-123968750D02*
X126062500Y-123968750D01*
X112062500Y-123968750D02*
X113062500Y-123968750D01*
%TO.C,SW25*%
X112062500Y-105918750D02*
X112062500Y-104918750D01*
X112062500Y-118918750D02*
X112062500Y-117918750D01*
X113062500Y-118918750D02*
X112062500Y-118918750D01*
X126062500Y-117918750D02*
X126062500Y-118918750D01*
X126062500Y-118918750D02*
X125062500Y-118918750D01*
X126062500Y-104918750D02*
X126062500Y-105918750D01*
X125062500Y-104918750D02*
X126062500Y-104918750D01*
X112062500Y-104918750D02*
X113062500Y-104918750D01*
%TO.C,SW24*%
X112062500Y-86868750D02*
X112062500Y-85868750D01*
X112062500Y-99868750D02*
X112062500Y-98868750D01*
X113062500Y-99868750D02*
X112062500Y-99868750D01*
X126062500Y-98868750D02*
X126062500Y-99868750D01*
X126062500Y-99868750D02*
X125062500Y-99868750D01*
X126062500Y-85868750D02*
X126062500Y-86868750D01*
X125062500Y-85868750D02*
X126062500Y-85868750D01*
X112062500Y-85868750D02*
X113062500Y-85868750D01*
%TO.C,SW23*%
X112062500Y-67818750D02*
X112062500Y-66818750D01*
X112062500Y-80818750D02*
X112062500Y-79818750D01*
X113062500Y-80818750D02*
X112062500Y-80818750D01*
X126062500Y-79818750D02*
X126062500Y-80818750D01*
X126062500Y-80818750D02*
X125062500Y-80818750D01*
X126062500Y-66818750D02*
X126062500Y-67818750D01*
X125062500Y-66818750D02*
X126062500Y-66818750D01*
X112062500Y-66818750D02*
X113062500Y-66818750D01*
%TO.C,SW22*%
X93012500Y-139256250D02*
X93012500Y-138256250D01*
X93012500Y-152256250D02*
X93012500Y-151256250D01*
X94012500Y-152256250D02*
X93012500Y-152256250D01*
X107012500Y-151256250D02*
X107012500Y-152256250D01*
X107012500Y-152256250D02*
X106012500Y-152256250D01*
X107012500Y-138256250D02*
X107012500Y-139256250D01*
X106012500Y-138256250D02*
X107012500Y-138256250D01*
X93012500Y-138256250D02*
X94012500Y-138256250D01*
%TO.C,SW21*%
X93012500Y-120206250D02*
X93012500Y-119206250D01*
X93012500Y-133206250D02*
X93012500Y-132206250D01*
X94012500Y-133206250D02*
X93012500Y-133206250D01*
X107012500Y-132206250D02*
X107012500Y-133206250D01*
X107012500Y-133206250D02*
X106012500Y-133206250D01*
X107012500Y-119206250D02*
X107012500Y-120206250D01*
X106012500Y-119206250D02*
X107012500Y-119206250D01*
X93012500Y-119206250D02*
X94012500Y-119206250D01*
%TO.C,SW20*%
X93012500Y-101156250D02*
X93012500Y-100156250D01*
X93012500Y-114156250D02*
X93012500Y-113156250D01*
X94012500Y-114156250D02*
X93012500Y-114156250D01*
X107012500Y-113156250D02*
X107012500Y-114156250D01*
X107012500Y-114156250D02*
X106012500Y-114156250D01*
X107012500Y-100156250D02*
X107012500Y-101156250D01*
X106012500Y-100156250D02*
X107012500Y-100156250D01*
X93012500Y-100156250D02*
X94012500Y-100156250D01*
%TO.C,SW19*%
X93012500Y-82106250D02*
X93012500Y-81106250D01*
X93012500Y-95106250D02*
X93012500Y-94106250D01*
X94012500Y-95106250D02*
X93012500Y-95106250D01*
X107012500Y-94106250D02*
X107012500Y-95106250D01*
X107012500Y-95106250D02*
X106012500Y-95106250D01*
X107012500Y-81106250D02*
X107012500Y-82106250D01*
X106012500Y-81106250D02*
X107012500Y-81106250D01*
X93012500Y-81106250D02*
X94012500Y-81106250D01*
%TO.C,SW18*%
X93012500Y-63056250D02*
X93012500Y-62056250D01*
X93012500Y-76056250D02*
X93012500Y-75056250D01*
X94012500Y-76056250D02*
X93012500Y-76056250D01*
X107012500Y-75056250D02*
X107012500Y-76056250D01*
X107012500Y-76056250D02*
X106012500Y-76056250D01*
X107012500Y-62056250D02*
X107012500Y-63056250D01*
X106012500Y-62056250D02*
X107012500Y-62056250D01*
X93012500Y-62056250D02*
X94012500Y-62056250D01*
%TO.C,SW17*%
X73962500Y-144018750D02*
X73962500Y-143018750D01*
X73962500Y-157018750D02*
X73962500Y-156018750D01*
X74962500Y-157018750D02*
X73962500Y-157018750D01*
X87962500Y-156018750D02*
X87962500Y-157018750D01*
X87962500Y-157018750D02*
X86962500Y-157018750D01*
X87962500Y-143018750D02*
X87962500Y-144018750D01*
X86962500Y-143018750D02*
X87962500Y-143018750D01*
X73962500Y-143018750D02*
X74962500Y-143018750D01*
%TO.C,SW16*%
X73962500Y-124968750D02*
X73962500Y-123968750D01*
X73962500Y-137968750D02*
X73962500Y-136968750D01*
X74962500Y-137968750D02*
X73962500Y-137968750D01*
X87962500Y-136968750D02*
X87962500Y-137968750D01*
X87962500Y-137968750D02*
X86962500Y-137968750D01*
X87962500Y-123968750D02*
X87962500Y-124968750D01*
X86962500Y-123968750D02*
X87962500Y-123968750D01*
X73962500Y-123968750D02*
X74962500Y-123968750D01*
%TO.C,SW15*%
X73962500Y-105918750D02*
X73962500Y-104918750D01*
X73962500Y-118918750D02*
X73962500Y-117918750D01*
X74962500Y-118918750D02*
X73962500Y-118918750D01*
X87962500Y-117918750D02*
X87962500Y-118918750D01*
X87962500Y-118918750D02*
X86962500Y-118918750D01*
X87962500Y-104918750D02*
X87962500Y-105918750D01*
X86962500Y-104918750D02*
X87962500Y-104918750D01*
X73962500Y-104918750D02*
X74962500Y-104918750D01*
%TO.C,SW14*%
X73962500Y-86868750D02*
X73962500Y-85868750D01*
X73962500Y-99868750D02*
X73962500Y-98868750D01*
X74962500Y-99868750D02*
X73962500Y-99868750D01*
X87962500Y-98868750D02*
X87962500Y-99868750D01*
X87962500Y-99868750D02*
X86962500Y-99868750D01*
X87962500Y-85868750D02*
X87962500Y-86868750D01*
X86962500Y-85868750D02*
X87962500Y-85868750D01*
X73962500Y-85868750D02*
X74962500Y-85868750D01*
%TO.C,SW13*%
X73962500Y-67818750D02*
X73962500Y-66818750D01*
X73962500Y-80818750D02*
X73962500Y-79818750D01*
X74962500Y-80818750D02*
X73962500Y-80818750D01*
X87962500Y-79818750D02*
X87962500Y-80818750D01*
X87962500Y-80818750D02*
X86962500Y-80818750D01*
X87962500Y-66818750D02*
X87962500Y-67818750D01*
X86962500Y-66818750D02*
X87962500Y-66818750D01*
X73962500Y-66818750D02*
X74962500Y-66818750D01*
%TO.C,SW12*%
X54912500Y-134493750D02*
X54912500Y-133493750D01*
X54912500Y-147493750D02*
X54912500Y-146493750D01*
X55912500Y-147493750D02*
X54912500Y-147493750D01*
X68912500Y-146493750D02*
X68912500Y-147493750D01*
X68912500Y-147493750D02*
X67912500Y-147493750D01*
X68912500Y-133493750D02*
X68912500Y-134493750D01*
X67912500Y-133493750D02*
X68912500Y-133493750D01*
X54912500Y-133493750D02*
X55912500Y-133493750D01*
%TO.C,SW11*%
X54912500Y-115443750D02*
X54912500Y-114443750D01*
X54912500Y-128443750D02*
X54912500Y-127443750D01*
X55912500Y-128443750D02*
X54912500Y-128443750D01*
X68912500Y-127443750D02*
X68912500Y-128443750D01*
X68912500Y-128443750D02*
X67912500Y-128443750D01*
X68912500Y-114443750D02*
X68912500Y-115443750D01*
X67912500Y-114443750D02*
X68912500Y-114443750D01*
X54912500Y-114443750D02*
X55912500Y-114443750D01*
%TO.C,SW10*%
X54912500Y-96393750D02*
X54912500Y-95393750D01*
X54912500Y-109393750D02*
X54912500Y-108393750D01*
X55912500Y-109393750D02*
X54912500Y-109393750D01*
X68912500Y-108393750D02*
X68912500Y-109393750D01*
X68912500Y-109393750D02*
X67912500Y-109393750D01*
X68912500Y-95393750D02*
X68912500Y-96393750D01*
X67912500Y-95393750D02*
X68912500Y-95393750D01*
X54912500Y-95393750D02*
X55912500Y-95393750D01*
%TO.C,SW9*%
X54912500Y-77343750D02*
X54912500Y-76343750D01*
X54912500Y-90343750D02*
X54912500Y-89343750D01*
X55912500Y-90343750D02*
X54912500Y-90343750D01*
X68912500Y-89343750D02*
X68912500Y-90343750D01*
X68912500Y-90343750D02*
X67912500Y-90343750D01*
X68912500Y-76343750D02*
X68912500Y-77343750D01*
X67912500Y-76343750D02*
X68912500Y-76343750D01*
X54912500Y-76343750D02*
X55912500Y-76343750D01*
%TO.C,SW8*%
X35862500Y-134493750D02*
X35862500Y-133493750D01*
X35862500Y-147493750D02*
X35862500Y-146493750D01*
X36862500Y-147493750D02*
X35862500Y-147493750D01*
X49862500Y-146493750D02*
X49862500Y-147493750D01*
X49862500Y-147493750D02*
X48862500Y-147493750D01*
X49862500Y-133493750D02*
X49862500Y-134493750D01*
X48862500Y-133493750D02*
X49862500Y-133493750D01*
X35862500Y-133493750D02*
X36862500Y-133493750D01*
%TO.C,SW7*%
X35862500Y-115443750D02*
X35862500Y-114443750D01*
X35862500Y-128443750D02*
X35862500Y-127443750D01*
X36862500Y-128443750D02*
X35862500Y-128443750D01*
X49862500Y-127443750D02*
X49862500Y-128443750D01*
X49862500Y-128443750D02*
X48862500Y-128443750D01*
X49862500Y-114443750D02*
X49862500Y-115443750D01*
X48862500Y-114443750D02*
X49862500Y-114443750D01*
X35862500Y-114443750D02*
X36862500Y-114443750D01*
%TO.C,SW6*%
X35862500Y-96393750D02*
X35862500Y-95393750D01*
X35862500Y-109393750D02*
X35862500Y-108393750D01*
X36862500Y-109393750D02*
X35862500Y-109393750D01*
X49862500Y-108393750D02*
X49862500Y-109393750D01*
X49862500Y-109393750D02*
X48862500Y-109393750D01*
X49862500Y-95393750D02*
X49862500Y-96393750D01*
X48862500Y-95393750D02*
X49862500Y-95393750D01*
X35862500Y-95393750D02*
X36862500Y-95393750D01*
%TO.C,SW5*%
X35862500Y-77343750D02*
X35862500Y-76343750D01*
X35862500Y-90343750D02*
X35862500Y-89343750D01*
X36862500Y-90343750D02*
X35862500Y-90343750D01*
X49862500Y-89343750D02*
X49862500Y-90343750D01*
X49862500Y-90343750D02*
X48862500Y-90343750D01*
X49862500Y-76343750D02*
X49862500Y-77343750D01*
X48862500Y-76343750D02*
X49862500Y-76343750D01*
X35862500Y-76343750D02*
X36862500Y-76343750D01*
%TO.C,SW4*%
X31100000Y-134493750D02*
X31100000Y-133493750D01*
X31100000Y-147493750D02*
X31100000Y-146493750D01*
X32100000Y-147493750D02*
X31100000Y-147493750D01*
X45100000Y-146493750D02*
X45100000Y-147493750D01*
X45100000Y-147493750D02*
X44100000Y-147493750D01*
X45100000Y-133493750D02*
X45100000Y-134493750D01*
X44100000Y-133493750D02*
X45100000Y-133493750D01*
X31100000Y-133493750D02*
X32100000Y-133493750D01*
%TO.C,SW3*%
X31100000Y-115443750D02*
X31100000Y-114443750D01*
X31100000Y-128443750D02*
X31100000Y-127443750D01*
X32100000Y-128443750D02*
X31100000Y-128443750D01*
X45100000Y-127443750D02*
X45100000Y-128443750D01*
X45100000Y-128443750D02*
X44100000Y-128443750D01*
X45100000Y-114443750D02*
X45100000Y-115443750D01*
X44100000Y-114443750D02*
X45100000Y-114443750D01*
X31100000Y-114443750D02*
X32100000Y-114443750D01*
%TO.C,SW2*%
X31100000Y-96393750D02*
X31100000Y-95393750D01*
X31100000Y-109393750D02*
X31100000Y-108393750D01*
X32100000Y-109393750D02*
X31100000Y-109393750D01*
X45100000Y-108393750D02*
X45100000Y-109393750D01*
X45100000Y-109393750D02*
X44100000Y-109393750D01*
X45100000Y-95393750D02*
X45100000Y-96393750D01*
X44100000Y-95393750D02*
X45100000Y-95393750D01*
X31100000Y-95393750D02*
X32100000Y-95393750D01*
%TO.C,SW1*%
X31100000Y-77343750D02*
X31100000Y-76343750D01*
X31100000Y-90343750D02*
X31100000Y-89343750D01*
X32100000Y-90343750D02*
X31100000Y-90343750D01*
X45100000Y-89343750D02*
X45100000Y-90343750D01*
X45100000Y-90343750D02*
X44100000Y-90343750D01*
X45100000Y-76343750D02*
X45100000Y-77343750D01*
X44100000Y-76343750D02*
X45100000Y-76343750D01*
X31100000Y-76343750D02*
X32100000Y-76343750D01*
%TO.C,P1*%
X127575000Y-89200000D02*
X127575000Y-87200000D01*
X127575000Y-87200000D02*
X129575000Y-87200000D01*
X129575000Y-87200000D02*
X129575000Y-89200000D01*
X129575000Y-89200000D02*
X127575000Y-89200000D01*
%TO.C,JP1*%
X127686000Y-93918000D02*
X129464000Y-93918000D01*
X127686000Y-91632000D02*
X127686000Y-93918000D01*
X129464000Y-91632000D02*
X127686000Y-91632000D01*
X129464000Y-93918000D02*
X129464000Y-91632000D01*
%TO.C,J2*%
X143188952Y-90836380D02*
X143188952Y-89836380D01*
X142950857Y-89836380D01*
X142808000Y-89884000D01*
X142712761Y-89979238D01*
X142665142Y-90074476D01*
X142617523Y-90264952D01*
X142617523Y-90407809D01*
X142665142Y-90598285D01*
X142712761Y-90693523D01*
X142808000Y-90788761D01*
X142950857Y-90836380D01*
X143188952Y-90836380D01*
X142188952Y-90455428D02*
X141427047Y-90455428D01*
X141808000Y-90836380D02*
X141808000Y-90074476D01*
X145863904Y-89884000D02*
X145959142Y-89836380D01*
X146102000Y-89836380D01*
X146244857Y-89884000D01*
X146340095Y-89979238D01*
X146387714Y-90074476D01*
X146435333Y-90264952D01*
X146435333Y-90407809D01*
X146387714Y-90598285D01*
X146340095Y-90693523D01*
X146244857Y-90788761D01*
X146102000Y-90836380D01*
X146006761Y-90836380D01*
X145863904Y-90788761D01*
X145816285Y-90741142D01*
X145816285Y-90407809D01*
X146006761Y-90407809D01*
X145387714Y-90836380D02*
X145387714Y-89836380D01*
X144816285Y-90836380D01*
X144816285Y-89836380D01*
X144340095Y-90836380D02*
X144340095Y-89836380D01*
X144102000Y-89836380D01*
X143959142Y-89884000D01*
X143863904Y-89979238D01*
X143816285Y-90074476D01*
X143768666Y-90264952D01*
X143768666Y-90407809D01*
X143816285Y-90598285D01*
X143863904Y-90693523D01*
X143959142Y-90788761D01*
X144102000Y-90836380D01*
X144340095Y-90836380D01*
X140720380Y-89836380D02*
X140387047Y-90836380D01*
X140053714Y-89836380D01*
X139720380Y-90455428D02*
X138958476Y-90455428D01*
X139339428Y-90836380D02*
X139339428Y-90074476D01*
X148015000Y-90836380D02*
X148015000Y-89836380D01*
X147538809Y-90836380D02*
X147538809Y-89836380D01*
X147300714Y-89836380D01*
X147157857Y-89884000D01*
X147062619Y-89979238D01*
X147015000Y-90074476D01*
X146967380Y-90264952D01*
X146967380Y-90407809D01*
X147015000Y-90598285D01*
X147062619Y-90693523D01*
X147157857Y-90788761D01*
X147300714Y-90836380D01*
X147538809Y-90836380D01*
X137981952Y-90836380D02*
X137981952Y-89836380D01*
X137743857Y-89836380D01*
X137601000Y-89884000D01*
X137505761Y-89979238D01*
X137458142Y-90074476D01*
X137410523Y-90264952D01*
X137410523Y-90407809D01*
X137458142Y-90598285D01*
X137505761Y-90693523D01*
X137601000Y-90788761D01*
X137743857Y-90836380D01*
X137981952Y-90836380D01*
X136981952Y-90455428D02*
X136220047Y-90455428D01*
%TO.C,SW41*%
X176043810Y-156142713D02*
X176028945Y-156292562D01*
X175931724Y-156509904D01*
X175849367Y-156577396D01*
X175786454Y-156601420D01*
X175680073Y-156606000D01*
X175593137Y-156567111D01*
X175525644Y-156484754D01*
X175501620Y-156421841D01*
X175497041Y-156315461D01*
X175531350Y-156122143D01*
X175526770Y-156015762D01*
X175502746Y-155952850D01*
X175435254Y-155870493D01*
X175348317Y-155831604D01*
X175241936Y-155836184D01*
X175179023Y-155860208D01*
X175096667Y-155927700D01*
X174999445Y-156145041D01*
X174984580Y-156294891D01*
X174805002Y-156579724D02*
X175620615Y-157205396D01*
X174890813Y-157087605D01*
X175465060Y-157553143D01*
X174455004Y-157362154D01*
X174428729Y-158237225D02*
X175037285Y-158509445D01*
X174178204Y-157864329D02*
X174927450Y-157938652D01*
X174674674Y-158503740D01*
X174609511Y-159465748D02*
X174842842Y-158944128D01*
X174726176Y-159204938D02*
X173813342Y-158796607D01*
X173982636Y-158768004D01*
X174108461Y-158719956D01*
X174190818Y-158652463D01*
%TO.C,D34*%
X170051793Y-150790585D02*
X169321526Y-150463921D01*
X169243749Y-150637794D01*
X169231857Y-150757673D01*
X169270296Y-150858333D01*
X169324289Y-150924219D01*
X169447832Y-151021215D01*
X169552156Y-151067882D01*
X169706810Y-151095329D01*
X169791915Y-151091665D01*
X169892575Y-151053227D01*
X169974016Y-150964458D01*
X170051793Y-150790585D01*
X169025973Y-151124639D02*
X168823752Y-151576709D01*
X169210837Y-151457730D01*
X169164171Y-151562054D01*
X169167834Y-151647159D01*
X169187054Y-151697489D01*
X169241047Y-151763374D01*
X169414921Y-151841152D01*
X169500025Y-151837488D01*
X169550355Y-151818269D01*
X169616241Y-151764275D01*
X169709574Y-151555627D01*
X169705910Y-151470522D01*
X169686691Y-151420192D01*
X168787176Y-152311541D02*
X169274021Y-152529317D01*
X168586756Y-152013224D02*
X169186153Y-152072682D01*
X168983932Y-152524753D01*
%TO.C,D33*%
X167568580Y-168824795D02*
X167895244Y-168094528D01*
X167721371Y-168016751D01*
X167601492Y-168004859D01*
X167500832Y-168043298D01*
X167434946Y-168097291D01*
X167337950Y-168220834D01*
X167291283Y-168325158D01*
X167263836Y-168479812D01*
X167267500Y-168564917D01*
X167305938Y-168665577D01*
X167394707Y-168747018D01*
X167568580Y-168824795D01*
X167234526Y-167798975D02*
X166782456Y-167596754D01*
X166901435Y-167983839D01*
X166797111Y-167937173D01*
X166712006Y-167940836D01*
X166661676Y-167960056D01*
X166595791Y-168014049D01*
X166518013Y-168187923D01*
X166521677Y-168273027D01*
X166540896Y-168323357D01*
X166594890Y-168389243D01*
X166803538Y-168482576D01*
X166888643Y-168478912D01*
X166938973Y-168459693D01*
X166539034Y-167487866D02*
X166086963Y-167285645D01*
X166205942Y-167672730D01*
X166101618Y-167626064D01*
X166016514Y-167629727D01*
X165966183Y-167648947D01*
X165900298Y-167702940D01*
X165822521Y-167876814D01*
X165826184Y-167961918D01*
X165845404Y-168012248D01*
X165899397Y-168078134D01*
X166108045Y-168171467D01*
X166193150Y-168167803D01*
X166243480Y-168148584D01*
%TO.C,D32*%
X158133928Y-139458654D02*
X158133928Y-138658654D01*
X157943452Y-138658654D01*
X157829166Y-138696750D01*
X157752976Y-138772940D01*
X157714880Y-138849130D01*
X157676785Y-139001511D01*
X157676785Y-139115797D01*
X157714880Y-139268178D01*
X157752976Y-139344369D01*
X157829166Y-139420559D01*
X157943452Y-139458654D01*
X158133928Y-139458654D01*
X157410119Y-138658654D02*
X156914880Y-138658654D01*
X157181547Y-138963416D01*
X157067261Y-138963416D01*
X156991071Y-139001511D01*
X156952976Y-139039607D01*
X156914880Y-139115797D01*
X156914880Y-139306273D01*
X156952976Y-139382464D01*
X156991071Y-139420559D01*
X157067261Y-139458654D01*
X157295833Y-139458654D01*
X157372023Y-139420559D01*
X157410119Y-139382464D01*
X156610119Y-138734845D02*
X156572023Y-138696750D01*
X156495833Y-138658654D01*
X156305357Y-138658654D01*
X156229166Y-138696750D01*
X156191071Y-138734845D01*
X156152976Y-138811035D01*
X156152976Y-138887226D01*
X156191071Y-139001511D01*
X156648214Y-139458654D01*
X156152976Y-139458654D01*
%TO.C,D31*%
X158133928Y-120408654D02*
X158133928Y-119608654D01*
X157943452Y-119608654D01*
X157829166Y-119646750D01*
X157752976Y-119722940D01*
X157714880Y-119799130D01*
X157676785Y-119951511D01*
X157676785Y-120065797D01*
X157714880Y-120218178D01*
X157752976Y-120294369D01*
X157829166Y-120370559D01*
X157943452Y-120408654D01*
X158133928Y-120408654D01*
X157410119Y-119608654D02*
X156914880Y-119608654D01*
X157181547Y-119913416D01*
X157067261Y-119913416D01*
X156991071Y-119951511D01*
X156952976Y-119989607D01*
X156914880Y-120065797D01*
X156914880Y-120256273D01*
X156952976Y-120332464D01*
X156991071Y-120370559D01*
X157067261Y-120408654D01*
X157295833Y-120408654D01*
X157372023Y-120370559D01*
X157410119Y-120332464D01*
X156152976Y-120408654D02*
X156610119Y-120408654D01*
X156381547Y-120408654D02*
X156381547Y-119608654D01*
X156457738Y-119722940D01*
X156533928Y-119799130D01*
X156610119Y-119837226D01*
%TO.C,D30*%
X158133928Y-106121154D02*
X158133928Y-105321154D01*
X157943452Y-105321154D01*
X157829166Y-105359250D01*
X157752976Y-105435440D01*
X157714880Y-105511630D01*
X157676785Y-105664011D01*
X157676785Y-105778297D01*
X157714880Y-105930678D01*
X157752976Y-106006869D01*
X157829166Y-106083059D01*
X157943452Y-106121154D01*
X158133928Y-106121154D01*
X157410119Y-105321154D02*
X156914880Y-105321154D01*
X157181547Y-105625916D01*
X157067261Y-105625916D01*
X156991071Y-105664011D01*
X156952976Y-105702107D01*
X156914880Y-105778297D01*
X156914880Y-105968773D01*
X156952976Y-106044964D01*
X156991071Y-106083059D01*
X157067261Y-106121154D01*
X157295833Y-106121154D01*
X157372023Y-106083059D01*
X157410119Y-106044964D01*
X156419642Y-105321154D02*
X156343452Y-105321154D01*
X156267261Y-105359250D01*
X156229166Y-105397345D01*
X156191071Y-105473535D01*
X156152976Y-105625916D01*
X156152976Y-105816392D01*
X156191071Y-105968773D01*
X156229166Y-106044964D01*
X156267261Y-106083059D01*
X156343452Y-106121154D01*
X156419642Y-106121154D01*
X156495833Y-106083059D01*
X156533928Y-106044964D01*
X156572023Y-105968773D01*
X156610119Y-105816392D01*
X156610119Y-105625916D01*
X156572023Y-105473535D01*
X156533928Y-105397345D01*
X156495833Y-105359250D01*
X156419642Y-105321154D01*
%TO.C,D29*%
X161121428Y-80561904D02*
X161121428Y-79761904D01*
X160930952Y-79761904D01*
X160816666Y-79800000D01*
X160740476Y-79876190D01*
X160702380Y-79952380D01*
X160664285Y-80104761D01*
X160664285Y-80219047D01*
X160702380Y-80371428D01*
X160740476Y-80447619D01*
X160816666Y-80523809D01*
X160930952Y-80561904D01*
X161121428Y-80561904D01*
X160359523Y-79838095D02*
X160321428Y-79800000D01*
X160245238Y-79761904D01*
X160054761Y-79761904D01*
X159978571Y-79800000D01*
X159940476Y-79838095D01*
X159902380Y-79914285D01*
X159902380Y-79990476D01*
X159940476Y-80104761D01*
X160397619Y-80561904D01*
X159902380Y-80561904D01*
X159521428Y-80561904D02*
X159369047Y-80561904D01*
X159292857Y-80523809D01*
X159254761Y-80485714D01*
X159178571Y-80371428D01*
X159140476Y-80219047D01*
X159140476Y-79914285D01*
X159178571Y-79838095D01*
X159216666Y-79800000D01*
X159292857Y-79761904D01*
X159445238Y-79761904D01*
X159521428Y-79800000D01*
X159559523Y-79838095D01*
X159597619Y-79914285D01*
X159597619Y-80104761D01*
X159559523Y-80180952D01*
X159521428Y-80219047D01*
X159445238Y-80257142D01*
X159292857Y-80257142D01*
X159216666Y-80219047D01*
X159178571Y-80180952D01*
X159140476Y-80104761D01*
%TO.C,D28*%
X143815400Y-161403733D02*
X143981729Y-160621215D01*
X143795415Y-160581613D01*
X143675707Y-160595114D01*
X143585340Y-160653799D01*
X143532236Y-160720404D01*
X143463292Y-160861535D01*
X143439531Y-160973323D01*
X143445112Y-161130294D01*
X143466533Y-161212740D01*
X143525218Y-161303107D01*
X143629086Y-161364131D01*
X143815400Y-161403733D01*
X143220633Y-160537332D02*
X143191291Y-160492148D01*
X143124686Y-160439045D01*
X142938372Y-160399443D01*
X142855926Y-160420864D01*
X142810743Y-160450207D01*
X142757639Y-160516812D01*
X142741798Y-160591337D01*
X142755299Y-160711046D01*
X143107407Y-161253245D01*
X142622991Y-161150279D01*
X142270883Y-160608080D02*
X142353329Y-160586658D01*
X142398513Y-160557316D01*
X142451616Y-160490711D01*
X142459537Y-160453448D01*
X142438115Y-160371002D01*
X142408773Y-160325819D01*
X142342167Y-160272715D01*
X142193116Y-160241034D01*
X142110670Y-160262456D01*
X142065487Y-160291798D01*
X142012384Y-160358403D01*
X142004463Y-160395666D01*
X142025885Y-160478112D01*
X142055227Y-160523295D01*
X142121832Y-160576399D01*
X142270883Y-160608080D01*
X142337489Y-160661184D01*
X142366831Y-160706367D01*
X142388253Y-160788813D01*
X142356571Y-160937864D01*
X142303467Y-161004469D01*
X142258284Y-161033812D01*
X142175838Y-161055234D01*
X142026787Y-161023552D01*
X141960182Y-160970448D01*
X141930840Y-160925265D01*
X141909418Y-160842819D01*
X141941100Y-160693768D01*
X141994203Y-160627163D01*
X142039386Y-160597820D01*
X142121832Y-160576399D01*
%TO.C,D27*%
X139083928Y-139458654D02*
X139083928Y-138658654D01*
X138893452Y-138658654D01*
X138779166Y-138696750D01*
X138702976Y-138772940D01*
X138664880Y-138849130D01*
X138626785Y-139001511D01*
X138626785Y-139115797D01*
X138664880Y-139268178D01*
X138702976Y-139344369D01*
X138779166Y-139420559D01*
X138893452Y-139458654D01*
X139083928Y-139458654D01*
X138322023Y-138734845D02*
X138283928Y-138696750D01*
X138207738Y-138658654D01*
X138017261Y-138658654D01*
X137941071Y-138696750D01*
X137902976Y-138734845D01*
X137864880Y-138811035D01*
X137864880Y-138887226D01*
X137902976Y-139001511D01*
X138360119Y-139458654D01*
X137864880Y-139458654D01*
X137598214Y-138658654D02*
X137064880Y-138658654D01*
X137407738Y-139458654D01*
%TO.C,D26*%
X139083928Y-120408654D02*
X139083928Y-119608654D01*
X138893452Y-119608654D01*
X138779166Y-119646750D01*
X138702976Y-119722940D01*
X138664880Y-119799130D01*
X138626785Y-119951511D01*
X138626785Y-120065797D01*
X138664880Y-120218178D01*
X138702976Y-120294369D01*
X138779166Y-120370559D01*
X138893452Y-120408654D01*
X139083928Y-120408654D01*
X138322023Y-119684845D02*
X138283928Y-119646750D01*
X138207738Y-119608654D01*
X138017261Y-119608654D01*
X137941071Y-119646750D01*
X137902976Y-119684845D01*
X137864880Y-119761035D01*
X137864880Y-119837226D01*
X137902976Y-119951511D01*
X138360119Y-120408654D01*
X137864880Y-120408654D01*
X137179166Y-119608654D02*
X137331547Y-119608654D01*
X137407738Y-119646750D01*
X137445833Y-119684845D01*
X137522023Y-119799130D01*
X137560119Y-119951511D01*
X137560119Y-120256273D01*
X137522023Y-120332464D01*
X137483928Y-120370559D01*
X137407738Y-120408654D01*
X137255357Y-120408654D01*
X137179166Y-120370559D01*
X137141071Y-120332464D01*
X137102976Y-120256273D01*
X137102976Y-120065797D01*
X137141071Y-119989607D01*
X137179166Y-119951511D01*
X137255357Y-119913416D01*
X137407738Y-119913416D01*
X137483928Y-119951511D01*
X137522023Y-119989607D01*
X137560119Y-120065797D01*
%TO.C,D25*%
X139083928Y-101358654D02*
X139083928Y-100558654D01*
X138893452Y-100558654D01*
X138779166Y-100596750D01*
X138702976Y-100672940D01*
X138664880Y-100749130D01*
X138626785Y-100901511D01*
X138626785Y-101015797D01*
X138664880Y-101168178D01*
X138702976Y-101244369D01*
X138779166Y-101320559D01*
X138893452Y-101358654D01*
X139083928Y-101358654D01*
X138322023Y-100634845D02*
X138283928Y-100596750D01*
X138207738Y-100558654D01*
X138017261Y-100558654D01*
X137941071Y-100596750D01*
X137902976Y-100634845D01*
X137864880Y-100711035D01*
X137864880Y-100787226D01*
X137902976Y-100901511D01*
X138360119Y-101358654D01*
X137864880Y-101358654D01*
X137141071Y-100558654D02*
X137522023Y-100558654D01*
X137560119Y-100939607D01*
X137522023Y-100901511D01*
X137445833Y-100863416D01*
X137255357Y-100863416D01*
X137179166Y-100901511D01*
X137141071Y-100939607D01*
X137102976Y-101015797D01*
X137102976Y-101206273D01*
X137141071Y-101282464D01*
X137179166Y-101320559D01*
X137255357Y-101358654D01*
X137445833Y-101358654D01*
X137522023Y-101320559D01*
X137560119Y-101282464D01*
%TO.C,D24*%
X139083928Y-82308654D02*
X139083928Y-81508654D01*
X138893452Y-81508654D01*
X138779166Y-81546750D01*
X138702976Y-81622940D01*
X138664880Y-81699130D01*
X138626785Y-81851511D01*
X138626785Y-81965797D01*
X138664880Y-82118178D01*
X138702976Y-82194369D01*
X138779166Y-82270559D01*
X138893452Y-82308654D01*
X139083928Y-82308654D01*
X138322023Y-81584845D02*
X138283928Y-81546750D01*
X138207738Y-81508654D01*
X138017261Y-81508654D01*
X137941071Y-81546750D01*
X137902976Y-81584845D01*
X137864880Y-81661035D01*
X137864880Y-81737226D01*
X137902976Y-81851511D01*
X138360119Y-82308654D01*
X137864880Y-82308654D01*
X137179166Y-81775321D02*
X137179166Y-82308654D01*
X137369642Y-81470559D02*
X137560119Y-82041988D01*
X137064880Y-82041988D01*
%TO.C,D23*%
X120033928Y-153746154D02*
X120033928Y-152946154D01*
X119843452Y-152946154D01*
X119729166Y-152984250D01*
X119652976Y-153060440D01*
X119614880Y-153136630D01*
X119576785Y-153289011D01*
X119576785Y-153403297D01*
X119614880Y-153555678D01*
X119652976Y-153631869D01*
X119729166Y-153708059D01*
X119843452Y-153746154D01*
X120033928Y-153746154D01*
X119272023Y-153022345D02*
X119233928Y-152984250D01*
X119157738Y-152946154D01*
X118967261Y-152946154D01*
X118891071Y-152984250D01*
X118852976Y-153022345D01*
X118814880Y-153098535D01*
X118814880Y-153174726D01*
X118852976Y-153289011D01*
X119310119Y-153746154D01*
X118814880Y-153746154D01*
X118548214Y-152946154D02*
X118052976Y-152946154D01*
X118319642Y-153250916D01*
X118205357Y-153250916D01*
X118129166Y-153289011D01*
X118091071Y-153327107D01*
X118052976Y-153403297D01*
X118052976Y-153593773D01*
X118091071Y-153669964D01*
X118129166Y-153708059D01*
X118205357Y-153746154D01*
X118433928Y-153746154D01*
X118510119Y-153708059D01*
X118548214Y-153669964D01*
%TO.C,D22*%
X120033928Y-134696154D02*
X120033928Y-133896154D01*
X119843452Y-133896154D01*
X119729166Y-133934250D01*
X119652976Y-134010440D01*
X119614880Y-134086630D01*
X119576785Y-134239011D01*
X119576785Y-134353297D01*
X119614880Y-134505678D01*
X119652976Y-134581869D01*
X119729166Y-134658059D01*
X119843452Y-134696154D01*
X120033928Y-134696154D01*
X119272023Y-133972345D02*
X119233928Y-133934250D01*
X119157738Y-133896154D01*
X118967261Y-133896154D01*
X118891071Y-133934250D01*
X118852976Y-133972345D01*
X118814880Y-134048535D01*
X118814880Y-134124726D01*
X118852976Y-134239011D01*
X119310119Y-134696154D01*
X118814880Y-134696154D01*
X118510119Y-133972345D02*
X118472023Y-133934250D01*
X118395833Y-133896154D01*
X118205357Y-133896154D01*
X118129166Y-133934250D01*
X118091071Y-133972345D01*
X118052976Y-134048535D01*
X118052976Y-134124726D01*
X118091071Y-134239011D01*
X118548214Y-134696154D01*
X118052976Y-134696154D01*
%TO.C,D21*%
X120033928Y-115646154D02*
X120033928Y-114846154D01*
X119843452Y-114846154D01*
X119729166Y-114884250D01*
X119652976Y-114960440D01*
X119614880Y-115036630D01*
X119576785Y-115189011D01*
X119576785Y-115303297D01*
X119614880Y-115455678D01*
X119652976Y-115531869D01*
X119729166Y-115608059D01*
X119843452Y-115646154D01*
X120033928Y-115646154D01*
X119272023Y-114922345D02*
X119233928Y-114884250D01*
X119157738Y-114846154D01*
X118967261Y-114846154D01*
X118891071Y-114884250D01*
X118852976Y-114922345D01*
X118814880Y-114998535D01*
X118814880Y-115074726D01*
X118852976Y-115189011D01*
X119310119Y-115646154D01*
X118814880Y-115646154D01*
X118052976Y-115646154D02*
X118510119Y-115646154D01*
X118281547Y-115646154D02*
X118281547Y-114846154D01*
X118357738Y-114960440D01*
X118433928Y-115036630D01*
X118510119Y-115074726D01*
%TO.C,D20*%
X120033928Y-96596154D02*
X120033928Y-95796154D01*
X119843452Y-95796154D01*
X119729166Y-95834250D01*
X119652976Y-95910440D01*
X119614880Y-95986630D01*
X119576785Y-96139011D01*
X119576785Y-96253297D01*
X119614880Y-96405678D01*
X119652976Y-96481869D01*
X119729166Y-96558059D01*
X119843452Y-96596154D01*
X120033928Y-96596154D01*
X119272023Y-95872345D02*
X119233928Y-95834250D01*
X119157738Y-95796154D01*
X118967261Y-95796154D01*
X118891071Y-95834250D01*
X118852976Y-95872345D01*
X118814880Y-95948535D01*
X118814880Y-96024726D01*
X118852976Y-96139011D01*
X119310119Y-96596154D01*
X118814880Y-96596154D01*
X118319642Y-95796154D02*
X118243452Y-95796154D01*
X118167261Y-95834250D01*
X118129166Y-95872345D01*
X118091071Y-95948535D01*
X118052976Y-96100916D01*
X118052976Y-96291392D01*
X118091071Y-96443773D01*
X118129166Y-96519964D01*
X118167261Y-96558059D01*
X118243452Y-96596154D01*
X118319642Y-96596154D01*
X118395833Y-96558059D01*
X118433928Y-96519964D01*
X118472023Y-96443773D01*
X118510119Y-96291392D01*
X118510119Y-96100916D01*
X118472023Y-95948535D01*
X118433928Y-95872345D01*
X118395833Y-95834250D01*
X118319642Y-95796154D01*
%TO.C,D19*%
X120033928Y-77546154D02*
X120033928Y-76746154D01*
X119843452Y-76746154D01*
X119729166Y-76784250D01*
X119652976Y-76860440D01*
X119614880Y-76936630D01*
X119576785Y-77089011D01*
X119576785Y-77203297D01*
X119614880Y-77355678D01*
X119652976Y-77431869D01*
X119729166Y-77508059D01*
X119843452Y-77546154D01*
X120033928Y-77546154D01*
X118814880Y-77546154D02*
X119272023Y-77546154D01*
X119043452Y-77546154D02*
X119043452Y-76746154D01*
X119119642Y-76860440D01*
X119195833Y-76936630D01*
X119272023Y-76974726D01*
X118433928Y-77546154D02*
X118281547Y-77546154D01*
X118205357Y-77508059D01*
X118167261Y-77469964D01*
X118091071Y-77355678D01*
X118052976Y-77203297D01*
X118052976Y-76898535D01*
X118091071Y-76822345D01*
X118129166Y-76784250D01*
X118205357Y-76746154D01*
X118357738Y-76746154D01*
X118433928Y-76784250D01*
X118472023Y-76822345D01*
X118510119Y-76898535D01*
X118510119Y-77089011D01*
X118472023Y-77165202D01*
X118433928Y-77203297D01*
X118357738Y-77241392D01*
X118205357Y-77241392D01*
X118129166Y-77203297D01*
X118091071Y-77165202D01*
X118052976Y-77089011D01*
%TO.C,D18*%
X100983928Y-148983654D02*
X100983928Y-148183654D01*
X100793452Y-148183654D01*
X100679166Y-148221750D01*
X100602976Y-148297940D01*
X100564880Y-148374130D01*
X100526785Y-148526511D01*
X100526785Y-148640797D01*
X100564880Y-148793178D01*
X100602976Y-148869369D01*
X100679166Y-148945559D01*
X100793452Y-148983654D01*
X100983928Y-148983654D01*
X99764880Y-148983654D02*
X100222023Y-148983654D01*
X99993452Y-148983654D02*
X99993452Y-148183654D01*
X100069642Y-148297940D01*
X100145833Y-148374130D01*
X100222023Y-148412226D01*
X99307738Y-148526511D02*
X99383928Y-148488416D01*
X99422023Y-148450321D01*
X99460119Y-148374130D01*
X99460119Y-148336035D01*
X99422023Y-148259845D01*
X99383928Y-148221750D01*
X99307738Y-148183654D01*
X99155357Y-148183654D01*
X99079166Y-148221750D01*
X99041071Y-148259845D01*
X99002976Y-148336035D01*
X99002976Y-148374130D01*
X99041071Y-148450321D01*
X99079166Y-148488416D01*
X99155357Y-148526511D01*
X99307738Y-148526511D01*
X99383928Y-148564607D01*
X99422023Y-148602702D01*
X99460119Y-148678892D01*
X99460119Y-148831273D01*
X99422023Y-148907464D01*
X99383928Y-148945559D01*
X99307738Y-148983654D01*
X99155357Y-148983654D01*
X99079166Y-148945559D01*
X99041071Y-148907464D01*
X99002976Y-148831273D01*
X99002976Y-148678892D01*
X99041071Y-148602702D01*
X99079166Y-148564607D01*
X99155357Y-148526511D01*
%TO.C,D17*%
X100983928Y-129933654D02*
X100983928Y-129133654D01*
X100793452Y-129133654D01*
X100679166Y-129171750D01*
X100602976Y-129247940D01*
X100564880Y-129324130D01*
X100526785Y-129476511D01*
X100526785Y-129590797D01*
X100564880Y-129743178D01*
X100602976Y-129819369D01*
X100679166Y-129895559D01*
X100793452Y-129933654D01*
X100983928Y-129933654D01*
X99764880Y-129933654D02*
X100222023Y-129933654D01*
X99993452Y-129933654D02*
X99993452Y-129133654D01*
X100069642Y-129247940D01*
X100145833Y-129324130D01*
X100222023Y-129362226D01*
X99498214Y-129133654D02*
X98964880Y-129133654D01*
X99307738Y-129933654D01*
%TO.C,D16*%
X100983928Y-110883654D02*
X100983928Y-110083654D01*
X100793452Y-110083654D01*
X100679166Y-110121750D01*
X100602976Y-110197940D01*
X100564880Y-110274130D01*
X100526785Y-110426511D01*
X100526785Y-110540797D01*
X100564880Y-110693178D01*
X100602976Y-110769369D01*
X100679166Y-110845559D01*
X100793452Y-110883654D01*
X100983928Y-110883654D01*
X99764880Y-110883654D02*
X100222023Y-110883654D01*
X99993452Y-110883654D02*
X99993452Y-110083654D01*
X100069642Y-110197940D01*
X100145833Y-110274130D01*
X100222023Y-110312226D01*
X99079166Y-110083654D02*
X99231547Y-110083654D01*
X99307738Y-110121750D01*
X99345833Y-110159845D01*
X99422023Y-110274130D01*
X99460119Y-110426511D01*
X99460119Y-110731273D01*
X99422023Y-110807464D01*
X99383928Y-110845559D01*
X99307738Y-110883654D01*
X99155357Y-110883654D01*
X99079166Y-110845559D01*
X99041071Y-110807464D01*
X99002976Y-110731273D01*
X99002976Y-110540797D01*
X99041071Y-110464607D01*
X99079166Y-110426511D01*
X99155357Y-110388416D01*
X99307738Y-110388416D01*
X99383928Y-110426511D01*
X99422023Y-110464607D01*
X99460119Y-110540797D01*
%TO.C,D15*%
X100983928Y-91833654D02*
X100983928Y-91033654D01*
X100793452Y-91033654D01*
X100679166Y-91071750D01*
X100602976Y-91147940D01*
X100564880Y-91224130D01*
X100526785Y-91376511D01*
X100526785Y-91490797D01*
X100564880Y-91643178D01*
X100602976Y-91719369D01*
X100679166Y-91795559D01*
X100793452Y-91833654D01*
X100983928Y-91833654D01*
X99764880Y-91833654D02*
X100222023Y-91833654D01*
X99993452Y-91833654D02*
X99993452Y-91033654D01*
X100069642Y-91147940D01*
X100145833Y-91224130D01*
X100222023Y-91262226D01*
X99041071Y-91033654D02*
X99422023Y-91033654D01*
X99460119Y-91414607D01*
X99422023Y-91376511D01*
X99345833Y-91338416D01*
X99155357Y-91338416D01*
X99079166Y-91376511D01*
X99041071Y-91414607D01*
X99002976Y-91490797D01*
X99002976Y-91681273D01*
X99041071Y-91757464D01*
X99079166Y-91795559D01*
X99155357Y-91833654D01*
X99345833Y-91833654D01*
X99422023Y-91795559D01*
X99460119Y-91757464D01*
%TO.C,D14*%
X100983928Y-72783654D02*
X100983928Y-71983654D01*
X100793452Y-71983654D01*
X100679166Y-72021750D01*
X100602976Y-72097940D01*
X100564880Y-72174130D01*
X100526785Y-72326511D01*
X100526785Y-72440797D01*
X100564880Y-72593178D01*
X100602976Y-72669369D01*
X100679166Y-72745559D01*
X100793452Y-72783654D01*
X100983928Y-72783654D01*
X99764880Y-72783654D02*
X100222023Y-72783654D01*
X99993452Y-72783654D02*
X99993452Y-71983654D01*
X100069642Y-72097940D01*
X100145833Y-72174130D01*
X100222023Y-72212226D01*
X99079166Y-72250321D02*
X99079166Y-72783654D01*
X99269642Y-71945559D02*
X99460119Y-72516988D01*
X98964880Y-72516988D01*
%TO.C,D13*%
X81971768Y-153953174D02*
X81971768Y-153153174D01*
X81781292Y-153153174D01*
X81667006Y-153191270D01*
X81590816Y-153267460D01*
X81552720Y-153343650D01*
X81514625Y-153496031D01*
X81514625Y-153610317D01*
X81552720Y-153762698D01*
X81590816Y-153838889D01*
X81667006Y-153915079D01*
X81781292Y-153953174D01*
X81971768Y-153953174D01*
X80752720Y-153953174D02*
X81209863Y-153953174D01*
X80981292Y-153953174D02*
X80981292Y-153153174D01*
X81057482Y-153267460D01*
X81133673Y-153343650D01*
X81209863Y-153381746D01*
X80486054Y-153153174D02*
X79990816Y-153153174D01*
X80257482Y-153457936D01*
X80143197Y-153457936D01*
X80067006Y-153496031D01*
X80028911Y-153534127D01*
X79990816Y-153610317D01*
X79990816Y-153800793D01*
X80028911Y-153876984D01*
X80067006Y-153915079D01*
X80143197Y-153953174D01*
X80371768Y-153953174D01*
X80447959Y-153915079D01*
X80486054Y-153876984D01*
%TO.C,D12*%
X81933928Y-134696154D02*
X81933928Y-133896154D01*
X81743452Y-133896154D01*
X81629166Y-133934250D01*
X81552976Y-134010440D01*
X81514880Y-134086630D01*
X81476785Y-134239011D01*
X81476785Y-134353297D01*
X81514880Y-134505678D01*
X81552976Y-134581869D01*
X81629166Y-134658059D01*
X81743452Y-134696154D01*
X81933928Y-134696154D01*
X80714880Y-134696154D02*
X81172023Y-134696154D01*
X80943452Y-134696154D02*
X80943452Y-133896154D01*
X81019642Y-134010440D01*
X81095833Y-134086630D01*
X81172023Y-134124726D01*
X80410119Y-133972345D02*
X80372023Y-133934250D01*
X80295833Y-133896154D01*
X80105357Y-133896154D01*
X80029166Y-133934250D01*
X79991071Y-133972345D01*
X79952976Y-134048535D01*
X79952976Y-134124726D01*
X79991071Y-134239011D01*
X80448214Y-134696154D01*
X79952976Y-134696154D01*
%TO.C,D11*%
X81933928Y-115646154D02*
X81933928Y-114846154D01*
X81743452Y-114846154D01*
X81629166Y-114884250D01*
X81552976Y-114960440D01*
X81514880Y-115036630D01*
X81476785Y-115189011D01*
X81476785Y-115303297D01*
X81514880Y-115455678D01*
X81552976Y-115531869D01*
X81629166Y-115608059D01*
X81743452Y-115646154D01*
X81933928Y-115646154D01*
X80714880Y-115646154D02*
X81172023Y-115646154D01*
X80943452Y-115646154D02*
X80943452Y-114846154D01*
X81019642Y-114960440D01*
X81095833Y-115036630D01*
X81172023Y-115074726D01*
X79952976Y-115646154D02*
X80410119Y-115646154D01*
X80181547Y-115646154D02*
X80181547Y-114846154D01*
X80257738Y-114960440D01*
X80333928Y-115036630D01*
X80410119Y-115074726D01*
%TO.C,D10*%
X81933928Y-96596154D02*
X81933928Y-95796154D01*
X81743452Y-95796154D01*
X81629166Y-95834250D01*
X81552976Y-95910440D01*
X81514880Y-95986630D01*
X81476785Y-96139011D01*
X81476785Y-96253297D01*
X81514880Y-96405678D01*
X81552976Y-96481869D01*
X81629166Y-96558059D01*
X81743452Y-96596154D01*
X81933928Y-96596154D01*
X80714880Y-96596154D02*
X81172023Y-96596154D01*
X80943452Y-96596154D02*
X80943452Y-95796154D01*
X81019642Y-95910440D01*
X81095833Y-95986630D01*
X81172023Y-96024726D01*
X80219642Y-95796154D02*
X80143452Y-95796154D01*
X80067261Y-95834250D01*
X80029166Y-95872345D01*
X79991071Y-95948535D01*
X79952976Y-96100916D01*
X79952976Y-96291392D01*
X79991071Y-96443773D01*
X80029166Y-96519964D01*
X80067261Y-96558059D01*
X80143452Y-96596154D01*
X80219642Y-96596154D01*
X80295833Y-96558059D01*
X80333928Y-96519964D01*
X80372023Y-96443773D01*
X80410119Y-96291392D01*
X80410119Y-96100916D01*
X80372023Y-95948535D01*
X80333928Y-95872345D01*
X80295833Y-95834250D01*
X80219642Y-95796154D01*
%TO.C,D9*%
X81552976Y-77546154D02*
X81552976Y-76746154D01*
X81362500Y-76746154D01*
X81248214Y-76784250D01*
X81172023Y-76860440D01*
X81133928Y-76936630D01*
X81095833Y-77089011D01*
X81095833Y-77203297D01*
X81133928Y-77355678D01*
X81172023Y-77431869D01*
X81248214Y-77508059D01*
X81362500Y-77546154D01*
X81552976Y-77546154D01*
X80714880Y-77546154D02*
X80562500Y-77546154D01*
X80486309Y-77508059D01*
X80448214Y-77469964D01*
X80372023Y-77355678D01*
X80333928Y-77203297D01*
X80333928Y-76898535D01*
X80372023Y-76822345D01*
X80410119Y-76784250D01*
X80486309Y-76746154D01*
X80638690Y-76746154D01*
X80714880Y-76784250D01*
X80752976Y-76822345D01*
X80791071Y-76898535D01*
X80791071Y-77089011D01*
X80752976Y-77165202D01*
X80714880Y-77203297D01*
X80638690Y-77241392D01*
X80486309Y-77241392D01*
X80410119Y-77203297D01*
X80372023Y-77165202D01*
X80333928Y-77089011D01*
%TO.C,D8*%
X62502976Y-144221154D02*
X62502976Y-143421154D01*
X62312500Y-143421154D01*
X62198214Y-143459250D01*
X62122023Y-143535440D01*
X62083928Y-143611630D01*
X62045833Y-143764011D01*
X62045833Y-143878297D01*
X62083928Y-144030678D01*
X62122023Y-144106869D01*
X62198214Y-144183059D01*
X62312500Y-144221154D01*
X62502976Y-144221154D01*
X61588690Y-143764011D02*
X61664880Y-143725916D01*
X61702976Y-143687821D01*
X61741071Y-143611630D01*
X61741071Y-143573535D01*
X61702976Y-143497345D01*
X61664880Y-143459250D01*
X61588690Y-143421154D01*
X61436309Y-143421154D01*
X61360119Y-143459250D01*
X61322023Y-143497345D01*
X61283928Y-143573535D01*
X61283928Y-143611630D01*
X61322023Y-143687821D01*
X61360119Y-143725916D01*
X61436309Y-143764011D01*
X61588690Y-143764011D01*
X61664880Y-143802107D01*
X61702976Y-143840202D01*
X61741071Y-143916392D01*
X61741071Y-144068773D01*
X61702976Y-144144964D01*
X61664880Y-144183059D01*
X61588690Y-144221154D01*
X61436309Y-144221154D01*
X61360119Y-144183059D01*
X61322023Y-144144964D01*
X61283928Y-144068773D01*
X61283928Y-143916392D01*
X61322023Y-143840202D01*
X61360119Y-143802107D01*
X61436309Y-143764011D01*
%TO.C,D7*%
X62502976Y-125171154D02*
X62502976Y-124371154D01*
X62312500Y-124371154D01*
X62198214Y-124409250D01*
X62122023Y-124485440D01*
X62083928Y-124561630D01*
X62045833Y-124714011D01*
X62045833Y-124828297D01*
X62083928Y-124980678D01*
X62122023Y-125056869D01*
X62198214Y-125133059D01*
X62312500Y-125171154D01*
X62502976Y-125171154D01*
X61779166Y-124371154D02*
X61245833Y-124371154D01*
X61588690Y-125171154D01*
%TO.C,D6*%
X62502976Y-106121154D02*
X62502976Y-105321154D01*
X62312500Y-105321154D01*
X62198214Y-105359250D01*
X62122023Y-105435440D01*
X62083928Y-105511630D01*
X62045833Y-105664011D01*
X62045833Y-105778297D01*
X62083928Y-105930678D01*
X62122023Y-106006869D01*
X62198214Y-106083059D01*
X62312500Y-106121154D01*
X62502976Y-106121154D01*
X61360119Y-105321154D02*
X61512500Y-105321154D01*
X61588690Y-105359250D01*
X61626785Y-105397345D01*
X61702976Y-105511630D01*
X61741071Y-105664011D01*
X61741071Y-105968773D01*
X61702976Y-106044964D01*
X61664880Y-106083059D01*
X61588690Y-106121154D01*
X61436309Y-106121154D01*
X61360119Y-106083059D01*
X61322023Y-106044964D01*
X61283928Y-105968773D01*
X61283928Y-105778297D01*
X61322023Y-105702107D01*
X61360119Y-105664011D01*
X61436309Y-105625916D01*
X61588690Y-105625916D01*
X61664880Y-105664011D01*
X61702976Y-105702107D01*
X61741071Y-105778297D01*
%TO.C,D5*%
X62502976Y-87071154D02*
X62502976Y-86271154D01*
X62312500Y-86271154D01*
X62198214Y-86309250D01*
X62122023Y-86385440D01*
X62083928Y-86461630D01*
X62045833Y-86614011D01*
X62045833Y-86728297D01*
X62083928Y-86880678D01*
X62122023Y-86956869D01*
X62198214Y-87033059D01*
X62312500Y-87071154D01*
X62502976Y-87071154D01*
X61322023Y-86271154D02*
X61702976Y-86271154D01*
X61741071Y-86652107D01*
X61702976Y-86614011D01*
X61626785Y-86575916D01*
X61436309Y-86575916D01*
X61360119Y-86614011D01*
X61322023Y-86652107D01*
X61283928Y-86728297D01*
X61283928Y-86918773D01*
X61322023Y-86994964D01*
X61360119Y-87033059D01*
X61436309Y-87071154D01*
X61626785Y-87071154D01*
X61702976Y-87033059D01*
X61741071Y-86994964D01*
%TO.C,D4*%
X41071726Y-144221154D02*
X41071726Y-143421154D01*
X40881250Y-143421154D01*
X40766964Y-143459250D01*
X40690773Y-143535440D01*
X40652678Y-143611630D01*
X40614583Y-143764011D01*
X40614583Y-143878297D01*
X40652678Y-144030678D01*
X40690773Y-144106869D01*
X40766964Y-144183059D01*
X40881250Y-144221154D01*
X41071726Y-144221154D01*
X39928869Y-143687821D02*
X39928869Y-144221154D01*
X40119345Y-143383059D02*
X40309821Y-143954488D01*
X39814583Y-143954488D01*
%TO.C,D3*%
X41071726Y-125171154D02*
X41071726Y-124371154D01*
X40881250Y-124371154D01*
X40766964Y-124409250D01*
X40690773Y-124485440D01*
X40652678Y-124561630D01*
X40614583Y-124714011D01*
X40614583Y-124828297D01*
X40652678Y-124980678D01*
X40690773Y-125056869D01*
X40766964Y-125133059D01*
X40881250Y-125171154D01*
X41071726Y-125171154D01*
X40347916Y-124371154D02*
X39852678Y-124371154D01*
X40119345Y-124675916D01*
X40005059Y-124675916D01*
X39928869Y-124714011D01*
X39890773Y-124752107D01*
X39852678Y-124828297D01*
X39852678Y-125018773D01*
X39890773Y-125094964D01*
X39928869Y-125133059D01*
X40005059Y-125171154D01*
X40233630Y-125171154D01*
X40309821Y-125133059D01*
X40347916Y-125094964D01*
%TO.C,D2*%
X41071726Y-106121154D02*
X41071726Y-105321154D01*
X40881250Y-105321154D01*
X40766964Y-105359250D01*
X40690773Y-105435440D01*
X40652678Y-105511630D01*
X40614583Y-105664011D01*
X40614583Y-105778297D01*
X40652678Y-105930678D01*
X40690773Y-106006869D01*
X40766964Y-106083059D01*
X40881250Y-106121154D01*
X41071726Y-106121154D01*
X40309821Y-105397345D02*
X40271726Y-105359250D01*
X40195535Y-105321154D01*
X40005059Y-105321154D01*
X39928869Y-105359250D01*
X39890773Y-105397345D01*
X39852678Y-105473535D01*
X39852678Y-105549726D01*
X39890773Y-105664011D01*
X40347916Y-106121154D01*
X39852678Y-106121154D01*
%TO.C,D1*%
X41071726Y-87071154D02*
X41071726Y-86271154D01*
X40881250Y-86271154D01*
X40766964Y-86309250D01*
X40690773Y-86385440D01*
X40652678Y-86461630D01*
X40614583Y-86614011D01*
X40614583Y-86728297D01*
X40652678Y-86880678D01*
X40690773Y-86956869D01*
X40766964Y-87033059D01*
X40881250Y-87071154D01*
X41071726Y-87071154D01*
X39852678Y-87071154D02*
X40309821Y-87071154D01*
X40081250Y-87071154D02*
X40081250Y-86271154D01*
X40157440Y-86385440D01*
X40233630Y-86461630D01*
X40309821Y-86499726D01*
%TO.C,RSW1*%
X148090500Y-98687539D02*
X147614310Y-98354205D01*
X148090500Y-98116110D02*
X147090500Y-98116110D01*
X147090500Y-98497062D01*
X147138120Y-98592300D01*
X147185739Y-98639920D01*
X147280977Y-98687539D01*
X147423834Y-98687539D01*
X147519072Y-98639920D01*
X147566691Y-98592300D01*
X147614310Y-98497062D01*
X147614310Y-98116110D01*
X147566691Y-99116110D02*
X147566691Y-99449443D01*
X148090500Y-99592300D02*
X148090500Y-99116110D01*
X147090500Y-99116110D01*
X147090500Y-99592300D01*
X148042881Y-99973253D02*
X148090500Y-100116110D01*
X148090500Y-100354205D01*
X148042881Y-100449443D01*
X147995262Y-100497062D01*
X147900024Y-100544681D01*
X147804786Y-100544681D01*
X147709548Y-100497062D01*
X147661929Y-100449443D01*
X147614310Y-100354205D01*
X147566691Y-100163729D01*
X147519072Y-100068491D01*
X147471453Y-100020872D01*
X147376215Y-99973253D01*
X147280977Y-99973253D01*
X147185739Y-100020872D01*
X147138120Y-100068491D01*
X147090500Y-100163729D01*
X147090500Y-100401824D01*
X147138120Y-100544681D01*
X147566691Y-100973253D02*
X147566691Y-101306586D01*
X148090500Y-101449443D02*
X148090500Y-100973253D01*
X147090500Y-100973253D01*
X147090500Y-101449443D01*
X147090500Y-101735158D02*
X147090500Y-102306586D01*
X148090500Y-102020872D02*
X147090500Y-102020872D01*
%TO.C,U1*%
X143686413Y-114048699D02*
X143572127Y-114086794D01*
X143381651Y-114086794D01*
X143305460Y-114048699D01*
X143267365Y-114010604D01*
X143229270Y-113934413D01*
X143229270Y-113858223D01*
X143267365Y-113782032D01*
X143305460Y-113743937D01*
X143381651Y-113705842D01*
X143534032Y-113667747D01*
X143610222Y-113629651D01*
X143648318Y-113591556D01*
X143686413Y-113515366D01*
X143686413Y-113439175D01*
X143648318Y-113362985D01*
X143610222Y-113324890D01*
X143534032Y-113286794D01*
X143343556Y-113286794D01*
X143229270Y-113324890D01*
X143000699Y-113286794D02*
X142543556Y-113286794D01*
X142772127Y-114086794D02*
X142772127Y-113286794D01*
X136731684Y-108226794D02*
X136274541Y-108226794D01*
X136503112Y-109026794D02*
X136503112Y-108226794D01*
X136084065Y-108226794D02*
X135550731Y-109026794D01*
X135550731Y-108226794D02*
X136084065Y-109026794D01*
X135093588Y-108226794D02*
X135017398Y-108226794D01*
X134941208Y-108264890D01*
X134903112Y-108302985D01*
X134865017Y-108379175D01*
X134826922Y-108531556D01*
X134826922Y-108722032D01*
X134865017Y-108874413D01*
X134903112Y-108950604D01*
X134941208Y-108988699D01*
X135017398Y-109026794D01*
X135093588Y-109026794D01*
X135169779Y-108988699D01*
X135207874Y-108950604D01*
X135245969Y-108874413D01*
X135284065Y-108722032D01*
X135284065Y-108531556D01*
X135245969Y-108379175D01*
X135207874Y-108302985D01*
X135169779Y-108264890D01*
X135093588Y-108226794D01*
X133912636Y-108188699D02*
X134598350Y-109217270D01*
X133645969Y-109026794D02*
X133645969Y-108226794D01*
X133455493Y-108226794D01*
X133341208Y-108264890D01*
X133265017Y-108341080D01*
X133226922Y-108417270D01*
X133188827Y-108569651D01*
X133188827Y-108683937D01*
X133226922Y-108836318D01*
X133265017Y-108912509D01*
X133341208Y-108988699D01*
X133455493Y-109026794D01*
X133645969Y-109026794D01*
X132922160Y-108226794D02*
X132426922Y-108226794D01*
X132693588Y-108531556D01*
X132579303Y-108531556D01*
X132503112Y-108569651D01*
X132465017Y-108607747D01*
X132426922Y-108683937D01*
X132426922Y-108874413D01*
X132465017Y-108950604D01*
X132503112Y-108988699D01*
X132579303Y-109026794D01*
X132807874Y-109026794D01*
X132884065Y-108988699D01*
X132922160Y-108950604D01*
X143897889Y-134007747D02*
X143783603Y-134045842D01*
X143745508Y-134083937D01*
X143707413Y-134160128D01*
X143707413Y-134274413D01*
X143745508Y-134350604D01*
X143783603Y-134388699D01*
X143859794Y-134426794D01*
X144164556Y-134426794D01*
X144164556Y-133626794D01*
X143897889Y-133626794D01*
X143821699Y-133664890D01*
X143783603Y-133702985D01*
X143745508Y-133779175D01*
X143745508Y-133855366D01*
X143783603Y-133931556D01*
X143821699Y-133969651D01*
X143897889Y-134007747D01*
X144164556Y-134007747D01*
X143402651Y-133702985D02*
X143364556Y-133664890D01*
X143288365Y-133626794D01*
X143097889Y-133626794D01*
X143021699Y-133664890D01*
X142983603Y-133702985D01*
X142945508Y-133779175D01*
X142945508Y-133855366D01*
X142983603Y-133969651D01*
X143440746Y-134426794D01*
X142945508Y-134426794D01*
X143840746Y-126387747D02*
X144107413Y-126387747D01*
X144107413Y-126806794D02*
X144107413Y-126006794D01*
X143726460Y-126006794D01*
X143497889Y-126006794D02*
X142964556Y-126006794D01*
X143307413Y-126806794D01*
X143840746Y-123847747D02*
X144107413Y-123847747D01*
X144107413Y-124266794D02*
X144107413Y-123466794D01*
X143726460Y-123466794D01*
X143078841Y-123466794D02*
X143231222Y-123466794D01*
X143307413Y-123504890D01*
X143345508Y-123542985D01*
X143421699Y-123657270D01*
X143459794Y-123809651D01*
X143459794Y-124114413D01*
X143421699Y-124190604D01*
X143383603Y-124228699D01*
X143307413Y-124266794D01*
X143155032Y-124266794D01*
X143078841Y-124228699D01*
X143040746Y-124190604D01*
X143002651Y-124114413D01*
X143002651Y-123923937D01*
X143040746Y-123847747D01*
X143078841Y-123809651D01*
X143155032Y-123771556D01*
X143307413Y-123771556D01*
X143383603Y-123809651D01*
X143421699Y-123847747D01*
X143459794Y-123923937D01*
X143840746Y-121307747D02*
X144107413Y-121307747D01*
X144107413Y-121726794D02*
X144107413Y-120926794D01*
X143726460Y-120926794D01*
X143040746Y-120926794D02*
X143421699Y-120926794D01*
X143459794Y-121307747D01*
X143421699Y-121269651D01*
X143345508Y-121231556D01*
X143155032Y-121231556D01*
X143078841Y-121269651D01*
X143040746Y-121307747D01*
X143002651Y-121383937D01*
X143002651Y-121574413D01*
X143040746Y-121650604D01*
X143078841Y-121688699D01*
X143155032Y-121726794D01*
X143345508Y-121726794D01*
X143421699Y-121688699D01*
X143459794Y-121650604D01*
X144126460Y-109026794D02*
X144393127Y-108645842D01*
X144583603Y-109026794D02*
X144583603Y-108226794D01*
X144278841Y-108226794D01*
X144202651Y-108264890D01*
X144164556Y-108302985D01*
X144126460Y-108379175D01*
X144126460Y-108493461D01*
X144164556Y-108569651D01*
X144202651Y-108607747D01*
X144278841Y-108645842D01*
X144583603Y-108645842D01*
X143821699Y-108798223D02*
X143440746Y-108798223D01*
X143897889Y-109026794D02*
X143631222Y-108226794D01*
X143364556Y-109026794D01*
X143174080Y-108226794D02*
X142983603Y-109026794D01*
X142831222Y-108455366D01*
X142678841Y-109026794D01*
X142488365Y-108226794D01*
X144183603Y-110804890D02*
X144259794Y-110766794D01*
X144374080Y-110766794D01*
X144488365Y-110804890D01*
X144564556Y-110881080D01*
X144602651Y-110957270D01*
X144640746Y-111109651D01*
X144640746Y-111223937D01*
X144602651Y-111376318D01*
X144564556Y-111452509D01*
X144488365Y-111528699D01*
X144374080Y-111566794D01*
X144297889Y-111566794D01*
X144183603Y-111528699D01*
X144145508Y-111490604D01*
X144145508Y-111223937D01*
X144297889Y-111223937D01*
X143802651Y-111566794D02*
X143802651Y-110766794D01*
X143345508Y-111566794D01*
X143345508Y-110766794D01*
X142964556Y-111566794D02*
X142964556Y-110766794D01*
X142774080Y-110766794D01*
X142659794Y-110804890D01*
X142583603Y-110881080D01*
X142545508Y-110957270D01*
X142507413Y-111109651D01*
X142507413Y-111223937D01*
X142545508Y-111376318D01*
X142583603Y-111452509D01*
X142659794Y-111528699D01*
X142774080Y-111566794D01*
X142964556Y-111566794D01*
X144640746Y-115846794D02*
X144374080Y-116646794D01*
X144107413Y-115846794D01*
X143383603Y-116570604D02*
X143421699Y-116608699D01*
X143535984Y-116646794D01*
X143612175Y-116646794D01*
X143726460Y-116608699D01*
X143802651Y-116532509D01*
X143840746Y-116456318D01*
X143878841Y-116303937D01*
X143878841Y-116189651D01*
X143840746Y-116037270D01*
X143802651Y-115961080D01*
X143726460Y-115884890D01*
X143612175Y-115846794D01*
X143535984Y-115846794D01*
X143421699Y-115884890D01*
X143383603Y-115922985D01*
X142583603Y-116570604D02*
X142621699Y-116608699D01*
X142735984Y-116646794D01*
X142812175Y-116646794D01*
X142926460Y-116608699D01*
X143002651Y-116532509D01*
X143040746Y-116456318D01*
X143078841Y-116303937D01*
X143078841Y-116189651D01*
X143040746Y-116037270D01*
X143002651Y-115961080D01*
X142926460Y-115884890D01*
X142812175Y-115846794D01*
X142735984Y-115846794D01*
X142621699Y-115884890D01*
X142583603Y-115922985D01*
X143840746Y-118767747D02*
X144107413Y-118767747D01*
X144107413Y-119186794D02*
X144107413Y-118386794D01*
X143726460Y-118386794D01*
X143078841Y-118653461D02*
X143078841Y-119186794D01*
X143269318Y-118348699D02*
X143459794Y-118920128D01*
X142964556Y-118920128D01*
X143897889Y-128927747D02*
X143783603Y-128965842D01*
X143745508Y-129003937D01*
X143707413Y-129080128D01*
X143707413Y-129194413D01*
X143745508Y-129270604D01*
X143783603Y-129308699D01*
X143859794Y-129346794D01*
X144164556Y-129346794D01*
X144164556Y-128546794D01*
X143897889Y-128546794D01*
X143821699Y-128584890D01*
X143783603Y-128622985D01*
X143745508Y-128699175D01*
X143745508Y-128775366D01*
X143783603Y-128851556D01*
X143821699Y-128889651D01*
X143897889Y-128927747D01*
X144164556Y-128927747D01*
X142945508Y-129346794D02*
X143402651Y-129346794D01*
X143174080Y-129346794D02*
X143174080Y-128546794D01*
X143250270Y-128661080D01*
X143326460Y-128737270D01*
X143402651Y-128775366D01*
X143897889Y-131467747D02*
X143783603Y-131505842D01*
X143745508Y-131543937D01*
X143707413Y-131620128D01*
X143707413Y-131734413D01*
X143745508Y-131810604D01*
X143783603Y-131848699D01*
X143859794Y-131886794D01*
X144164556Y-131886794D01*
X144164556Y-131086794D01*
X143897889Y-131086794D01*
X143821699Y-131124890D01*
X143783603Y-131162985D01*
X143745508Y-131239175D01*
X143745508Y-131315366D01*
X143783603Y-131391556D01*
X143821699Y-131429651D01*
X143897889Y-131467747D01*
X144164556Y-131467747D01*
X143440746Y-131086794D02*
X142945508Y-131086794D01*
X143212175Y-131391556D01*
X143097889Y-131391556D01*
X143021699Y-131429651D01*
X142983603Y-131467747D01*
X142945508Y-131543937D01*
X142945508Y-131734413D01*
X142983603Y-131810604D01*
X143021699Y-131848699D01*
X143097889Y-131886794D01*
X143326460Y-131886794D01*
X143402651Y-131848699D01*
X143440746Y-131810604D01*
X143897889Y-136547747D02*
X143783603Y-136585842D01*
X143745508Y-136623937D01*
X143707413Y-136700128D01*
X143707413Y-136814413D01*
X143745508Y-136890604D01*
X143783603Y-136928699D01*
X143859794Y-136966794D01*
X144164556Y-136966794D01*
X144164556Y-136166794D01*
X143897889Y-136166794D01*
X143821699Y-136204890D01*
X143783603Y-136242985D01*
X143745508Y-136319175D01*
X143745508Y-136395366D01*
X143783603Y-136471556D01*
X143821699Y-136509651D01*
X143897889Y-136547747D01*
X144164556Y-136547747D01*
X143021699Y-136166794D02*
X143174080Y-136166794D01*
X143250270Y-136204890D01*
X143288365Y-136242985D01*
X143364556Y-136357270D01*
X143402651Y-136509651D01*
X143402651Y-136814413D01*
X143364556Y-136890604D01*
X143326460Y-136928699D01*
X143250270Y-136966794D01*
X143097889Y-136966794D01*
X143021699Y-136928699D01*
X142983603Y-136890604D01*
X142945508Y-136814413D01*
X142945508Y-136623937D01*
X142983603Y-136547747D01*
X143021699Y-136509651D01*
X143097889Y-136471556D01*
X143250270Y-136471556D01*
X143326460Y-136509651D01*
X143364556Y-136547747D01*
X143402651Y-136623937D01*
X132975889Y-136547747D02*
X132861603Y-136585842D01*
X132823508Y-136623937D01*
X132785413Y-136700128D01*
X132785413Y-136814413D01*
X132823508Y-136890604D01*
X132861603Y-136928699D01*
X132937794Y-136966794D01*
X133242556Y-136966794D01*
X133242556Y-136166794D01*
X132975889Y-136166794D01*
X132899699Y-136204890D01*
X132861603Y-136242985D01*
X132823508Y-136319175D01*
X132823508Y-136395366D01*
X132861603Y-136471556D01*
X132899699Y-136509651D01*
X132975889Y-136547747D01*
X133242556Y-136547747D01*
X132061603Y-136166794D02*
X132442556Y-136166794D01*
X132480651Y-136547747D01*
X132442556Y-136509651D01*
X132366365Y-136471556D01*
X132175889Y-136471556D01*
X132099699Y-136509651D01*
X132061603Y-136547747D01*
X132023508Y-136623937D01*
X132023508Y-136814413D01*
X132061603Y-136890604D01*
X132099699Y-136928699D01*
X132175889Y-136966794D01*
X132366365Y-136966794D01*
X132442556Y-136928699D01*
X132480651Y-136890604D01*
X132975889Y-134007747D02*
X132861603Y-134045842D01*
X132823508Y-134083937D01*
X132785413Y-134160128D01*
X132785413Y-134274413D01*
X132823508Y-134350604D01*
X132861603Y-134388699D01*
X132937794Y-134426794D01*
X133242556Y-134426794D01*
X133242556Y-133626794D01*
X132975889Y-133626794D01*
X132899699Y-133664890D01*
X132861603Y-133702985D01*
X132823508Y-133779175D01*
X132823508Y-133855366D01*
X132861603Y-133931556D01*
X132899699Y-133969651D01*
X132975889Y-134007747D01*
X133242556Y-134007747D01*
X132099699Y-133893461D02*
X132099699Y-134426794D01*
X132290175Y-133588699D02*
X132480651Y-134160128D01*
X131985413Y-134160128D01*
X133204460Y-131467747D02*
X132937794Y-131467747D01*
X132823508Y-131886794D02*
X133204460Y-131886794D01*
X133204460Y-131086794D01*
X132823508Y-131086794D01*
X132137794Y-131086794D02*
X132290175Y-131086794D01*
X132366365Y-131124890D01*
X132404460Y-131162985D01*
X132480651Y-131277270D01*
X132518746Y-131429651D01*
X132518746Y-131734413D01*
X132480651Y-131810604D01*
X132442556Y-131848699D01*
X132366365Y-131886794D01*
X132213984Y-131886794D01*
X132137794Y-131848699D01*
X132099699Y-131810604D01*
X132061603Y-131734413D01*
X132061603Y-131543937D01*
X132099699Y-131467747D01*
X132137794Y-131429651D01*
X132213984Y-131391556D01*
X132366365Y-131391556D01*
X132442556Y-131429651D01*
X132480651Y-131467747D01*
X132518746Y-131543937D01*
X133242556Y-129346794D02*
X133242556Y-128546794D01*
X133052080Y-128546794D01*
X132937794Y-128584890D01*
X132861603Y-128661080D01*
X132823508Y-128737270D01*
X132785413Y-128889651D01*
X132785413Y-129003937D01*
X132823508Y-129156318D01*
X132861603Y-129232509D01*
X132937794Y-129308699D01*
X133052080Y-129346794D01*
X133242556Y-129346794D01*
X132518746Y-128546794D02*
X131985413Y-128546794D01*
X132328270Y-129346794D01*
X132785413Y-126730604D02*
X132823508Y-126768699D01*
X132937794Y-126806794D01*
X133013984Y-126806794D01*
X133128270Y-126768699D01*
X133204460Y-126692509D01*
X133242556Y-126616318D01*
X133280651Y-126463937D01*
X133280651Y-126349651D01*
X133242556Y-126197270D01*
X133204460Y-126121080D01*
X133128270Y-126044890D01*
X133013984Y-126006794D01*
X132937794Y-126006794D01*
X132823508Y-126044890D01*
X132785413Y-126082985D01*
X132099699Y-126006794D02*
X132252080Y-126006794D01*
X132328270Y-126044890D01*
X132366365Y-126082985D01*
X132442556Y-126197270D01*
X132480651Y-126349651D01*
X132480651Y-126654413D01*
X132442556Y-126730604D01*
X132404460Y-126768699D01*
X132328270Y-126806794D01*
X132175889Y-126806794D01*
X132099699Y-126768699D01*
X132061603Y-126730604D01*
X132023508Y-126654413D01*
X132023508Y-126463937D01*
X132061603Y-126387747D01*
X132099699Y-126349651D01*
X132175889Y-126311556D01*
X132328270Y-126311556D01*
X132404460Y-126349651D01*
X132442556Y-126387747D01*
X132480651Y-126463937D01*
X133242556Y-124266794D02*
X133242556Y-123466794D01*
X133052080Y-123466794D01*
X132937794Y-123504890D01*
X132861603Y-123581080D01*
X132823508Y-123657270D01*
X132785413Y-123809651D01*
X132785413Y-123923937D01*
X132823508Y-124076318D01*
X132861603Y-124152509D01*
X132937794Y-124228699D01*
X133052080Y-124266794D01*
X133242556Y-124266794D01*
X132099699Y-123733461D02*
X132099699Y-124266794D01*
X132290175Y-123428699D02*
X132480651Y-124000128D01*
X131985413Y-124000128D01*
X133261603Y-113344890D02*
X133337794Y-113306794D01*
X133452080Y-113306794D01*
X133566365Y-113344890D01*
X133642556Y-113421080D01*
X133680651Y-113497270D01*
X133718746Y-113649651D01*
X133718746Y-113763937D01*
X133680651Y-113916318D01*
X133642556Y-113992509D01*
X133566365Y-114068699D01*
X133452080Y-114106794D01*
X133375889Y-114106794D01*
X133261603Y-114068699D01*
X133223508Y-114030604D01*
X133223508Y-113763937D01*
X133375889Y-113763937D01*
X132880651Y-114106794D02*
X132880651Y-113306794D01*
X132423508Y-114106794D01*
X132423508Y-113306794D01*
X132042556Y-114106794D02*
X132042556Y-113306794D01*
X131852080Y-113306794D01*
X131737794Y-113344890D01*
X131661603Y-113421080D01*
X131623508Y-113497270D01*
X131585413Y-113649651D01*
X131585413Y-113763937D01*
X131623508Y-113916318D01*
X131661603Y-113992509D01*
X131737794Y-114068699D01*
X131852080Y-114106794D01*
X132042556Y-114106794D01*
X133261603Y-115884890D02*
X133337794Y-115846794D01*
X133452080Y-115846794D01*
X133566365Y-115884890D01*
X133642556Y-115961080D01*
X133680651Y-116037270D01*
X133718746Y-116189651D01*
X133718746Y-116303937D01*
X133680651Y-116456318D01*
X133642556Y-116532509D01*
X133566365Y-116608699D01*
X133452080Y-116646794D01*
X133375889Y-116646794D01*
X133261603Y-116608699D01*
X133223508Y-116570604D01*
X133223508Y-116303937D01*
X133375889Y-116303937D01*
X132880651Y-116646794D02*
X132880651Y-115846794D01*
X132423508Y-116646794D01*
X132423508Y-115846794D01*
X132042556Y-116646794D02*
X132042556Y-115846794D01*
X131852080Y-115846794D01*
X131737794Y-115884890D01*
X131661603Y-115961080D01*
X131623508Y-116037270D01*
X131585413Y-116189651D01*
X131585413Y-116303937D01*
X131623508Y-116456318D01*
X131661603Y-116532509D01*
X131737794Y-116608699D01*
X131852080Y-116646794D01*
X132042556Y-116646794D01*
X133242556Y-119186794D02*
X133242556Y-118386794D01*
X133052080Y-118386794D01*
X132937794Y-118424890D01*
X132861603Y-118501080D01*
X132823508Y-118577270D01*
X132785413Y-118729651D01*
X132785413Y-118843937D01*
X132823508Y-118996318D01*
X132861603Y-119072509D01*
X132937794Y-119148699D01*
X133052080Y-119186794D01*
X133242556Y-119186794D01*
X132023508Y-119186794D02*
X132480651Y-119186794D01*
X132252080Y-119186794D02*
X132252080Y-118386794D01*
X132328270Y-118501080D01*
X132404460Y-118577270D01*
X132480651Y-118615366D01*
X133242556Y-121726794D02*
X133242556Y-120926794D01*
X133052080Y-120926794D01*
X132937794Y-120964890D01*
X132861603Y-121041080D01*
X132823508Y-121117270D01*
X132785413Y-121269651D01*
X132785413Y-121383937D01*
X132823508Y-121536318D01*
X132861603Y-121612509D01*
X132937794Y-121688699D01*
X133052080Y-121726794D01*
X133242556Y-121726794D01*
X132290175Y-120926794D02*
X132213984Y-120926794D01*
X132137794Y-120964890D01*
X132099699Y-121002985D01*
X132061603Y-121079175D01*
X132023508Y-121231556D01*
X132023508Y-121422032D01*
X132061603Y-121574413D01*
X132099699Y-121650604D01*
X132137794Y-121688699D01*
X132213984Y-121726794D01*
X132290175Y-121726794D01*
X132366365Y-121688699D01*
X132404460Y-121650604D01*
X132442556Y-121574413D01*
X132480651Y-121422032D01*
X132480651Y-121231556D01*
X132442556Y-121079175D01*
X132404460Y-121002985D01*
X132366365Y-120964890D01*
X132290175Y-120926794D01*
X133242556Y-111566794D02*
X133242556Y-110766794D01*
X133052080Y-110766794D01*
X132937794Y-110804890D01*
X132861603Y-110881080D01*
X132823508Y-110957270D01*
X132785413Y-111109651D01*
X132785413Y-111223937D01*
X132823508Y-111376318D01*
X132861603Y-111452509D01*
X132937794Y-111528699D01*
X133052080Y-111566794D01*
X133242556Y-111566794D01*
X132480651Y-110842985D02*
X132442556Y-110804890D01*
X132366365Y-110766794D01*
X132175889Y-110766794D01*
X132099699Y-110804890D01*
X132061603Y-110842985D01*
X132023508Y-110919175D01*
X132023508Y-110995366D01*
X132061603Y-111109651D01*
X132518746Y-111566794D01*
X132023508Y-111566794D01*
%TO.C,P2*%
X129780895Y-90115361D02*
X129974419Y-90115361D01*
X129897009Y-89921838D02*
X129974419Y-90115361D01*
X129897009Y-90308885D01*
X130129238Y-89999247D02*
X129974419Y-90115361D01*
X130129238Y-90231476D01*
X129780895Y-90734638D02*
X129974419Y-90734638D01*
X129897009Y-90541114D02*
X129974419Y-90734638D01*
X129897009Y-90928161D01*
X130129238Y-90618523D02*
X129974419Y-90734638D01*
X130129238Y-90850752D01*
%TO.C,U2*%
X159188880Y-85362595D02*
X159188880Y-85934023D01*
X160188880Y-85648309D02*
X159188880Y-85648309D01*
X160188880Y-86838785D02*
X159712690Y-86505452D01*
X160188880Y-86267357D02*
X159188880Y-86267357D01*
X159188880Y-86648309D01*
X159236500Y-86743547D01*
X159284119Y-86791166D01*
X159379357Y-86838785D01*
X159522214Y-86838785D01*
X159617452Y-86791166D01*
X159665071Y-86743547D01*
X159712690Y-86648309D01*
X159712690Y-86267357D01*
X160188880Y-87838785D02*
X159712690Y-87505452D01*
X160188880Y-87267357D02*
X159188880Y-87267357D01*
X159188880Y-87648309D01*
X159236500Y-87743547D01*
X159284119Y-87791166D01*
X159379357Y-87838785D01*
X159522214Y-87838785D01*
X159617452Y-87791166D01*
X159665071Y-87743547D01*
X159712690Y-87648309D01*
X159712690Y-87267357D01*
X160141261Y-88219738D02*
X160188880Y-88362595D01*
X160188880Y-88600690D01*
X160141261Y-88695928D01*
X160093642Y-88743547D01*
X159998404Y-88791166D01*
X159903166Y-88791166D01*
X159807928Y-88743547D01*
X159760309Y-88695928D01*
X159712690Y-88600690D01*
X159665071Y-88410214D01*
X159617452Y-88314976D01*
X159569833Y-88267357D01*
X159474595Y-88219738D01*
X159379357Y-88219738D01*
X159284119Y-88267357D01*
X159236500Y-88314976D01*
X159188880Y-88410214D01*
X159188880Y-88648309D01*
X159236500Y-88791166D01*
%TO.C,SW40*%
X158972683Y-128992801D02*
X158829826Y-129040420D01*
X158591731Y-129040420D01*
X158496493Y-128992801D01*
X158448874Y-128945182D01*
X158401255Y-128849944D01*
X158401255Y-128754706D01*
X158448874Y-128659468D01*
X158496493Y-128611849D01*
X158591731Y-128564230D01*
X158782207Y-128516611D01*
X158877445Y-128468992D01*
X158925064Y-128421373D01*
X158972683Y-128326135D01*
X158972683Y-128230897D01*
X158925064Y-128135659D01*
X158877445Y-128088040D01*
X158782207Y-128040420D01*
X158544112Y-128040420D01*
X158401255Y-128088040D01*
X158067921Y-128040420D02*
X157829826Y-129040420D01*
X157639350Y-128326135D01*
X157448874Y-129040420D01*
X157210779Y-128040420D01*
X156401255Y-128373754D02*
X156401255Y-129040420D01*
X156639350Y-127992801D02*
X156877445Y-128707087D01*
X156258398Y-128707087D01*
X155686969Y-128040420D02*
X155591731Y-128040420D01*
X155496493Y-128088040D01*
X155448874Y-128135659D01*
X155401255Y-128230897D01*
X155353636Y-128421373D01*
X155353636Y-128659468D01*
X155401255Y-128849944D01*
X155448874Y-128945182D01*
X155496493Y-128992801D01*
X155591731Y-129040420D01*
X155686969Y-129040420D01*
X155782207Y-128992801D01*
X155829826Y-128945182D01*
X155877445Y-128849944D01*
X155925064Y-128659468D01*
X155925064Y-128421373D01*
X155877445Y-128230897D01*
X155829826Y-128135659D01*
X155782207Y-128088040D01*
X155686969Y-128040420D01*
%TO.C,SW39*%
X158972683Y-95655161D02*
X158829826Y-95702780D01*
X158591731Y-95702780D01*
X158496493Y-95655161D01*
X158448874Y-95607542D01*
X158401255Y-95512304D01*
X158401255Y-95417066D01*
X158448874Y-95321828D01*
X158496493Y-95274209D01*
X158591731Y-95226590D01*
X158782207Y-95178971D01*
X158877445Y-95131352D01*
X158925064Y-95083733D01*
X158972683Y-94988495D01*
X158972683Y-94893257D01*
X158925064Y-94798019D01*
X158877445Y-94750400D01*
X158782207Y-94702780D01*
X158544112Y-94702780D01*
X158401255Y-94750400D01*
X158067921Y-94702780D02*
X157829826Y-95702780D01*
X157639350Y-94988495D01*
X157448874Y-95702780D01*
X157210779Y-94702780D01*
X156925064Y-94702780D02*
X156306017Y-94702780D01*
X156639350Y-95083733D01*
X156496493Y-95083733D01*
X156401255Y-95131352D01*
X156353636Y-95178971D01*
X156306017Y-95274209D01*
X156306017Y-95512304D01*
X156353636Y-95607542D01*
X156401255Y-95655161D01*
X156496493Y-95702780D01*
X156782207Y-95702780D01*
X156877445Y-95655161D01*
X156925064Y-95607542D01*
X155829826Y-95702780D02*
X155639350Y-95702780D01*
X155544112Y-95655161D01*
X155496493Y-95607542D01*
X155401255Y-95464685D01*
X155353636Y-95274209D01*
X155353636Y-94893257D01*
X155401255Y-94798019D01*
X155448874Y-94750400D01*
X155544112Y-94702780D01*
X155734588Y-94702780D01*
X155829826Y-94750400D01*
X155877445Y-94798019D01*
X155925064Y-94893257D01*
X155925064Y-95131352D01*
X155877445Y-95226590D01*
X155829826Y-95274209D01*
X155734588Y-95321828D01*
X155544112Y-95321828D01*
X155448874Y-95274209D01*
X155401255Y-95226590D01*
X155353636Y-95131352D01*
%TO.C,SW38*%
X178739820Y-145909056D02*
X178589971Y-145894191D01*
X178372629Y-145796970D01*
X178305137Y-145714613D01*
X178281113Y-145651700D01*
X178276533Y-145545319D01*
X178315422Y-145458383D01*
X178397779Y-145390890D01*
X178460692Y-145366866D01*
X178567072Y-145362287D01*
X178760390Y-145396596D01*
X178866771Y-145392016D01*
X178929683Y-145367992D01*
X179012040Y-145300500D01*
X179050929Y-145213563D01*
X179046349Y-145107182D01*
X179022325Y-145044269D01*
X178954833Y-144961913D01*
X178737492Y-144864691D01*
X178587642Y-144849826D01*
X178302809Y-144670248D02*
X177677137Y-145485861D01*
X177794928Y-144756059D01*
X177329390Y-145330306D01*
X177520379Y-144320250D01*
X177259570Y-144203585D02*
X176694482Y-143950809D01*
X176843205Y-144434665D01*
X176712800Y-144376332D01*
X176606420Y-144380912D01*
X176543507Y-144404936D01*
X176461150Y-144472428D01*
X176363929Y-144689770D01*
X176368508Y-144796150D01*
X176392532Y-144859063D01*
X176460024Y-144941420D01*
X176720834Y-145058086D01*
X176827215Y-145053506D01*
X176890128Y-145029482D01*
X175997863Y-144108692D02*
X176104244Y-144104112D01*
X176167157Y-144080088D01*
X176249514Y-144012596D01*
X176268958Y-143969127D01*
X176264378Y-143862746D01*
X176240354Y-143799834D01*
X176172862Y-143717477D01*
X175998989Y-143639700D01*
X175892608Y-143644279D01*
X175829696Y-143668303D01*
X175747339Y-143735796D01*
X175727894Y-143779264D01*
X175732474Y-143885645D01*
X175756498Y-143948557D01*
X175823990Y-144030914D01*
X175997863Y-144108692D01*
X176065356Y-144191048D01*
X176089380Y-144253961D01*
X176093959Y-144360342D01*
X176016182Y-144534215D01*
X175933825Y-144601707D01*
X175870913Y-144625731D01*
X175764532Y-144630311D01*
X175590659Y-144552534D01*
X175523166Y-144470177D01*
X175499142Y-144407264D01*
X175494563Y-144300883D01*
X175572340Y-144127010D01*
X175654697Y-144059518D01*
X175717609Y-144035494D01*
X175823990Y-144030914D01*
%TO.C,SW37*%
X170836518Y-163608364D02*
X170686669Y-163593499D01*
X170469327Y-163496278D01*
X170401835Y-163413921D01*
X170377811Y-163351008D01*
X170373231Y-163244627D01*
X170412120Y-163157691D01*
X170494477Y-163090198D01*
X170557390Y-163066174D01*
X170663770Y-163061595D01*
X170857088Y-163095904D01*
X170963469Y-163091324D01*
X171026381Y-163067300D01*
X171108738Y-162999808D01*
X171147627Y-162912871D01*
X171143047Y-162806490D01*
X171119023Y-162743577D01*
X171051531Y-162661221D01*
X170834190Y-162563999D01*
X170684340Y-162549134D01*
X170399507Y-162369556D02*
X169773835Y-163185169D01*
X169891626Y-162455367D01*
X169426088Y-163029614D01*
X169617077Y-162019558D01*
X169356268Y-161902893D02*
X168791180Y-161650117D01*
X168939903Y-162133973D01*
X168809498Y-162075640D01*
X168703118Y-162080220D01*
X168640205Y-162104244D01*
X168557848Y-162171736D01*
X168460627Y-162389078D01*
X168465206Y-162495458D01*
X168489230Y-162558371D01*
X168556722Y-162640728D01*
X168817532Y-162757394D01*
X168923913Y-162752814D01*
X168986826Y-162728790D01*
X168486902Y-161514006D02*
X167878346Y-161241786D01*
X167861230Y-162329619D01*
%TO.C,SW36*%
X158972683Y-127802171D02*
X158829826Y-127849790D01*
X158591731Y-127849790D01*
X158496493Y-127802171D01*
X158448874Y-127754552D01*
X158401255Y-127659314D01*
X158401255Y-127564076D01*
X158448874Y-127468838D01*
X158496493Y-127421219D01*
X158591731Y-127373600D01*
X158782207Y-127325981D01*
X158877445Y-127278362D01*
X158925064Y-127230743D01*
X158972683Y-127135505D01*
X158972683Y-127040267D01*
X158925064Y-126945029D01*
X158877445Y-126897410D01*
X158782207Y-126849790D01*
X158544112Y-126849790D01*
X158401255Y-126897410D01*
X158067921Y-126849790D02*
X157829826Y-127849790D01*
X157639350Y-127135505D01*
X157448874Y-127849790D01*
X157210779Y-126849790D01*
X156925064Y-126849790D02*
X156306017Y-126849790D01*
X156639350Y-127230743D01*
X156496493Y-127230743D01*
X156401255Y-127278362D01*
X156353636Y-127325981D01*
X156306017Y-127421219D01*
X156306017Y-127659314D01*
X156353636Y-127754552D01*
X156401255Y-127802171D01*
X156496493Y-127849790D01*
X156782207Y-127849790D01*
X156877445Y-127802171D01*
X156925064Y-127754552D01*
X155448874Y-126849790D02*
X155639350Y-126849790D01*
X155734588Y-126897410D01*
X155782207Y-126945029D01*
X155877445Y-127087886D01*
X155925064Y-127278362D01*
X155925064Y-127659314D01*
X155877445Y-127754552D01*
X155829826Y-127802171D01*
X155734588Y-127849790D01*
X155544112Y-127849790D01*
X155448874Y-127802171D01*
X155401255Y-127754552D01*
X155353636Y-127659314D01*
X155353636Y-127421219D01*
X155401255Y-127325981D01*
X155448874Y-127278362D01*
X155544112Y-127230743D01*
X155734588Y-127230743D01*
X155829826Y-127278362D01*
X155877445Y-127325981D01*
X155925064Y-127421219D01*
%TO.C,SW35*%
X158972683Y-113514611D02*
X158829826Y-113562230D01*
X158591731Y-113562230D01*
X158496493Y-113514611D01*
X158448874Y-113466992D01*
X158401255Y-113371754D01*
X158401255Y-113276516D01*
X158448874Y-113181278D01*
X158496493Y-113133659D01*
X158591731Y-113086040D01*
X158782207Y-113038421D01*
X158877445Y-112990802D01*
X158925064Y-112943183D01*
X158972683Y-112847945D01*
X158972683Y-112752707D01*
X158925064Y-112657469D01*
X158877445Y-112609850D01*
X158782207Y-112562230D01*
X158544112Y-112562230D01*
X158401255Y-112609850D01*
X158067921Y-112562230D02*
X157829826Y-113562230D01*
X157639350Y-112847945D01*
X157448874Y-113562230D01*
X157210779Y-112562230D01*
X156925064Y-112562230D02*
X156306017Y-112562230D01*
X156639350Y-112943183D01*
X156496493Y-112943183D01*
X156401255Y-112990802D01*
X156353636Y-113038421D01*
X156306017Y-113133659D01*
X156306017Y-113371754D01*
X156353636Y-113466992D01*
X156401255Y-113514611D01*
X156496493Y-113562230D01*
X156782207Y-113562230D01*
X156877445Y-113514611D01*
X156925064Y-113466992D01*
X155401255Y-112562230D02*
X155877445Y-112562230D01*
X155925064Y-113038421D01*
X155877445Y-112990802D01*
X155782207Y-112943183D01*
X155544112Y-112943183D01*
X155448874Y-112990802D01*
X155401255Y-113038421D01*
X155353636Y-113133659D01*
X155353636Y-113371754D01*
X155401255Y-113466992D01*
X155448874Y-113514611D01*
X155544112Y-113562230D01*
X155782207Y-113562230D01*
X155877445Y-113514611D01*
X155925064Y-113466992D01*
%TO.C,SW34*%
X158972683Y-94464531D02*
X158829826Y-94512150D01*
X158591731Y-94512150D01*
X158496493Y-94464531D01*
X158448874Y-94416912D01*
X158401255Y-94321674D01*
X158401255Y-94226436D01*
X158448874Y-94131198D01*
X158496493Y-94083579D01*
X158591731Y-94035960D01*
X158782207Y-93988341D01*
X158877445Y-93940722D01*
X158925064Y-93893103D01*
X158972683Y-93797865D01*
X158972683Y-93702627D01*
X158925064Y-93607389D01*
X158877445Y-93559770D01*
X158782207Y-93512150D01*
X158544112Y-93512150D01*
X158401255Y-93559770D01*
X158067921Y-93512150D02*
X157829826Y-94512150D01*
X157639350Y-93797865D01*
X157448874Y-94512150D01*
X157210779Y-93512150D01*
X156925064Y-93512150D02*
X156306017Y-93512150D01*
X156639350Y-93893103D01*
X156496493Y-93893103D01*
X156401255Y-93940722D01*
X156353636Y-93988341D01*
X156306017Y-94083579D01*
X156306017Y-94321674D01*
X156353636Y-94416912D01*
X156401255Y-94464531D01*
X156496493Y-94512150D01*
X156782207Y-94512150D01*
X156877445Y-94464531D01*
X156925064Y-94416912D01*
X155448874Y-93845484D02*
X155448874Y-94512150D01*
X155686969Y-93464531D02*
X155925064Y-94178817D01*
X155306017Y-94178817D01*
%TO.C,SW33*%
X158972683Y-75414451D02*
X158829826Y-75462070D01*
X158591731Y-75462070D01*
X158496493Y-75414451D01*
X158448874Y-75366832D01*
X158401255Y-75271594D01*
X158401255Y-75176356D01*
X158448874Y-75081118D01*
X158496493Y-75033499D01*
X158591731Y-74985880D01*
X158782207Y-74938261D01*
X158877445Y-74890642D01*
X158925064Y-74843023D01*
X158972683Y-74747785D01*
X158972683Y-74652547D01*
X158925064Y-74557309D01*
X158877445Y-74509690D01*
X158782207Y-74462070D01*
X158544112Y-74462070D01*
X158401255Y-74509690D01*
X158067921Y-74462070D02*
X157829826Y-75462070D01*
X157639350Y-74747785D01*
X157448874Y-75462070D01*
X157210779Y-74462070D01*
X156925064Y-74462070D02*
X156306017Y-74462070D01*
X156639350Y-74843023D01*
X156496493Y-74843023D01*
X156401255Y-74890642D01*
X156353636Y-74938261D01*
X156306017Y-75033499D01*
X156306017Y-75271594D01*
X156353636Y-75366832D01*
X156401255Y-75414451D01*
X156496493Y-75462070D01*
X156782207Y-75462070D01*
X156877445Y-75414451D01*
X156925064Y-75366832D01*
X155972683Y-74462070D02*
X155353636Y-74462070D01*
X155686969Y-74843023D01*
X155544112Y-74843023D01*
X155448874Y-74890642D01*
X155401255Y-74938261D01*
X155353636Y-75033499D01*
X155353636Y-75271594D01*
X155401255Y-75366832D01*
X155448874Y-75414451D01*
X155544112Y-75462070D01*
X155829826Y-75462070D01*
X155925064Y-75414451D01*
X155972683Y-75366832D01*
%TO.C,SW32*%
X146085826Y-155272138D02*
X145936190Y-155289014D01*
X145703298Y-155239512D01*
X145620042Y-155173132D01*
X145583364Y-155116653D01*
X145556586Y-155013595D01*
X145576387Y-154920439D01*
X145642767Y-154837182D01*
X145699246Y-154800504D01*
X145802303Y-154773727D01*
X145998518Y-154766751D01*
X146101575Y-154739973D01*
X146158054Y-154703295D01*
X146224434Y-154620039D01*
X146244235Y-154526882D01*
X146217458Y-154423825D01*
X146180780Y-154367346D01*
X146097523Y-154300966D01*
X145864631Y-154251463D01*
X145714995Y-154268340D01*
X145398847Y-154152458D02*
X144958043Y-155081103D01*
X144920237Y-154342824D01*
X144585415Y-155001898D01*
X144560434Y-153974248D01*
X144280964Y-153914844D02*
X143675444Y-153786137D01*
X143922288Y-154228069D01*
X143782553Y-154198367D01*
X143679496Y-154225144D01*
X143623017Y-154261822D01*
X143556637Y-154345079D01*
X143507134Y-154577971D01*
X143533912Y-154681028D01*
X143570589Y-154737507D01*
X143653846Y-154803887D01*
X143933317Y-154863290D01*
X144036374Y-154836513D01*
X144092853Y-154799835D01*
X143283015Y-153800090D02*
X143246337Y-153743611D01*
X143163081Y-153677231D01*
X142930188Y-153627728D01*
X142827131Y-153654506D01*
X142770652Y-153691184D01*
X142704272Y-153774440D01*
X142684471Y-153867597D01*
X142701348Y-154017233D01*
X143141483Y-154694981D01*
X142535963Y-154566274D01*
%TO.C,SW31*%
X139922023Y-132564691D02*
X139779166Y-132612310D01*
X139541071Y-132612310D01*
X139445833Y-132564691D01*
X139398214Y-132517072D01*
X139350595Y-132421834D01*
X139350595Y-132326596D01*
X139398214Y-132231358D01*
X139445833Y-132183739D01*
X139541071Y-132136120D01*
X139731547Y-132088501D01*
X139826785Y-132040882D01*
X139874404Y-131993263D01*
X139922023Y-131898025D01*
X139922023Y-131802787D01*
X139874404Y-131707549D01*
X139826785Y-131659930D01*
X139731547Y-131612310D01*
X139493452Y-131612310D01*
X139350595Y-131659930D01*
X139017261Y-131612310D02*
X138779166Y-132612310D01*
X138588690Y-131898025D01*
X138398214Y-132612310D01*
X138160119Y-131612310D01*
X137874404Y-131612310D02*
X137255357Y-131612310D01*
X137588690Y-131993263D01*
X137445833Y-131993263D01*
X137350595Y-132040882D01*
X137302976Y-132088501D01*
X137255357Y-132183739D01*
X137255357Y-132421834D01*
X137302976Y-132517072D01*
X137350595Y-132564691D01*
X137445833Y-132612310D01*
X137731547Y-132612310D01*
X137826785Y-132564691D01*
X137874404Y-132517072D01*
X136302976Y-132612310D02*
X136874404Y-132612310D01*
X136588690Y-132612310D02*
X136588690Y-131612310D01*
X136683928Y-131755168D01*
X136779166Y-131850406D01*
X136874404Y-131898025D01*
%TO.C,SW30*%
X139909523Y-113514611D02*
X139766666Y-113562230D01*
X139528571Y-113562230D01*
X139433333Y-113514611D01*
X139385714Y-113466992D01*
X139338095Y-113371754D01*
X139338095Y-113276516D01*
X139385714Y-113181278D01*
X139433333Y-113133659D01*
X139528571Y-113086040D01*
X139719047Y-113038421D01*
X139814285Y-112990802D01*
X139861904Y-112943183D01*
X139909523Y-112847945D01*
X139909523Y-112752707D01*
X139861904Y-112657469D01*
X139814285Y-112609850D01*
X139719047Y-112562230D01*
X139480952Y-112562230D01*
X139338095Y-112609850D01*
X139004761Y-112562230D02*
X138766666Y-113562230D01*
X138576190Y-112847945D01*
X138385714Y-113562230D01*
X138147619Y-112562230D01*
X137861904Y-112562230D02*
X137242857Y-112562230D01*
X137576190Y-112943183D01*
X137433333Y-112943183D01*
X137338095Y-112990802D01*
X137290476Y-113038421D01*
X137242857Y-113133659D01*
X137242857Y-113371754D01*
X137290476Y-113466992D01*
X137338095Y-113514611D01*
X137433333Y-113562230D01*
X137719047Y-113562230D01*
X137814285Y-113514611D01*
X137861904Y-113466992D01*
X136623809Y-112562230D02*
X136528571Y-112562230D01*
X136433333Y-112609850D01*
X136385714Y-112657469D01*
X136338095Y-112752707D01*
X136290476Y-112943183D01*
X136290476Y-113181278D01*
X136338095Y-113371754D01*
X136385714Y-113466992D01*
X136433333Y-113514611D01*
X136528571Y-113562230D01*
X136623809Y-113562230D01*
X136719047Y-113514611D01*
X136766666Y-113466992D01*
X136814285Y-113371754D01*
X136861904Y-113181278D01*
X136861904Y-112943183D01*
X136814285Y-112752707D01*
X136766666Y-112657469D01*
X136719047Y-112609850D01*
X136623809Y-112562230D01*
%TO.C,SW29*%
X139922603Y-94464531D02*
X139779746Y-94512150D01*
X139541651Y-94512150D01*
X139446413Y-94464531D01*
X139398794Y-94416912D01*
X139351175Y-94321674D01*
X139351175Y-94226436D01*
X139398794Y-94131198D01*
X139446413Y-94083579D01*
X139541651Y-94035960D01*
X139732127Y-93988341D01*
X139827365Y-93940722D01*
X139874984Y-93893103D01*
X139922603Y-93797865D01*
X139922603Y-93702627D01*
X139874984Y-93607389D01*
X139827365Y-93559770D01*
X139732127Y-93512150D01*
X139494032Y-93512150D01*
X139351175Y-93559770D01*
X139017841Y-93512150D02*
X138779746Y-94512150D01*
X138589270Y-93797865D01*
X138398794Y-94512150D01*
X138160699Y-93512150D01*
X137827365Y-93607389D02*
X137779746Y-93559770D01*
X137684508Y-93512150D01*
X137446413Y-93512150D01*
X137351175Y-93559770D01*
X137303556Y-93607389D01*
X137255937Y-93702627D01*
X137255937Y-93797865D01*
X137303556Y-93940722D01*
X137874984Y-94512150D01*
X137255937Y-94512150D01*
X136779746Y-94512150D02*
X136589270Y-94512150D01*
X136494032Y-94464531D01*
X136446413Y-94416912D01*
X136351175Y-94274055D01*
X136303556Y-94083579D01*
X136303556Y-93702627D01*
X136351175Y-93607389D01*
X136398794Y-93559770D01*
X136494032Y-93512150D01*
X136684508Y-93512150D01*
X136779746Y-93559770D01*
X136827365Y-93607389D01*
X136874984Y-93702627D01*
X136874984Y-93940722D01*
X136827365Y-94035960D01*
X136779746Y-94083579D01*
X136684508Y-94131198D01*
X136494032Y-94131198D01*
X136398794Y-94083579D01*
X136351175Y-94035960D01*
X136303556Y-93940722D01*
%TO.C,SW28*%
X139922603Y-75414451D02*
X139779746Y-75462070D01*
X139541651Y-75462070D01*
X139446413Y-75414451D01*
X139398794Y-75366832D01*
X139351175Y-75271594D01*
X139351175Y-75176356D01*
X139398794Y-75081118D01*
X139446413Y-75033499D01*
X139541651Y-74985880D01*
X139732127Y-74938261D01*
X139827365Y-74890642D01*
X139874984Y-74843023D01*
X139922603Y-74747785D01*
X139922603Y-74652547D01*
X139874984Y-74557309D01*
X139827365Y-74509690D01*
X139732127Y-74462070D01*
X139494032Y-74462070D01*
X139351175Y-74509690D01*
X139017841Y-74462070D02*
X138779746Y-75462070D01*
X138589270Y-74747785D01*
X138398794Y-75462070D01*
X138160699Y-74462070D01*
X137827365Y-74557309D02*
X137779746Y-74509690D01*
X137684508Y-74462070D01*
X137446413Y-74462070D01*
X137351175Y-74509690D01*
X137303556Y-74557309D01*
X137255937Y-74652547D01*
X137255937Y-74747785D01*
X137303556Y-74890642D01*
X137874984Y-75462070D01*
X137255937Y-75462070D01*
X136684508Y-74890642D02*
X136779746Y-74843023D01*
X136827365Y-74795404D01*
X136874984Y-74700166D01*
X136874984Y-74652547D01*
X136827365Y-74557309D01*
X136779746Y-74509690D01*
X136684508Y-74462070D01*
X136494032Y-74462070D01*
X136398794Y-74509690D01*
X136351175Y-74557309D01*
X136303556Y-74652547D01*
X136303556Y-74700166D01*
X136351175Y-74795404D01*
X136398794Y-74843023D01*
X136494032Y-74890642D01*
X136684508Y-74890642D01*
X136779746Y-74938261D01*
X136827365Y-74985880D01*
X136874984Y-75081118D01*
X136874984Y-75271594D01*
X136827365Y-75366832D01*
X136779746Y-75414451D01*
X136684508Y-75462070D01*
X136494032Y-75462070D01*
X136398794Y-75414451D01*
X136351175Y-75366832D01*
X136303556Y-75271594D01*
X136303556Y-75081118D01*
X136351175Y-74985880D01*
X136398794Y-74938261D01*
X136494032Y-74890642D01*
%TO.C,SW27*%
X120872023Y-146852251D02*
X120729166Y-146899870D01*
X120491071Y-146899870D01*
X120395833Y-146852251D01*
X120348214Y-146804632D01*
X120300595Y-146709394D01*
X120300595Y-146614156D01*
X120348214Y-146518918D01*
X120395833Y-146471299D01*
X120491071Y-146423680D01*
X120681547Y-146376061D01*
X120776785Y-146328442D01*
X120824404Y-146280823D01*
X120872023Y-146185585D01*
X120872023Y-146090347D01*
X120824404Y-145995109D01*
X120776785Y-145947490D01*
X120681547Y-145899870D01*
X120443452Y-145899870D01*
X120300595Y-145947490D01*
X119967261Y-145899870D02*
X119729166Y-146899870D01*
X119538690Y-146185585D01*
X119348214Y-146899870D01*
X119110119Y-145899870D01*
X118776785Y-145995109D02*
X118729166Y-145947490D01*
X118633928Y-145899870D01*
X118395833Y-145899870D01*
X118300595Y-145947490D01*
X118252976Y-145995109D01*
X118205357Y-146090347D01*
X118205357Y-146185585D01*
X118252976Y-146328442D01*
X118824404Y-146899870D01*
X118205357Y-146899870D01*
X117872023Y-145899870D02*
X117205357Y-145899870D01*
X117633928Y-146899870D01*
%TO.C,SW26*%
X120872523Y-127802171D02*
X120729666Y-127849790D01*
X120491571Y-127849790D01*
X120396333Y-127802171D01*
X120348714Y-127754552D01*
X120301095Y-127659314D01*
X120301095Y-127564076D01*
X120348714Y-127468838D01*
X120396333Y-127421219D01*
X120491571Y-127373600D01*
X120682047Y-127325981D01*
X120777285Y-127278362D01*
X120824904Y-127230743D01*
X120872523Y-127135505D01*
X120872523Y-127040267D01*
X120824904Y-126945029D01*
X120777285Y-126897410D01*
X120682047Y-126849790D01*
X120443952Y-126849790D01*
X120301095Y-126897410D01*
X119967761Y-126849790D02*
X119729666Y-127849790D01*
X119539190Y-127135505D01*
X119348714Y-127849790D01*
X119110619Y-126849790D01*
X118777285Y-126945029D02*
X118729666Y-126897410D01*
X118634428Y-126849790D01*
X118396333Y-126849790D01*
X118301095Y-126897410D01*
X118253476Y-126945029D01*
X118205857Y-127040267D01*
X118205857Y-127135505D01*
X118253476Y-127278362D01*
X118824904Y-127849790D01*
X118205857Y-127849790D01*
X117348714Y-126849790D02*
X117539190Y-126849790D01*
X117634428Y-126897410D01*
X117682047Y-126945029D01*
X117777285Y-127087886D01*
X117824904Y-127278362D01*
X117824904Y-127659314D01*
X117777285Y-127754552D01*
X117729666Y-127802171D01*
X117634428Y-127849790D01*
X117443952Y-127849790D01*
X117348714Y-127802171D01*
X117301095Y-127754552D01*
X117253476Y-127659314D01*
X117253476Y-127421219D01*
X117301095Y-127325981D01*
X117348714Y-127278362D01*
X117443952Y-127230743D01*
X117634428Y-127230743D01*
X117729666Y-127278362D01*
X117777285Y-127325981D01*
X117824904Y-127421219D01*
%TO.C,SW25*%
X120872523Y-108752091D02*
X120729666Y-108799710D01*
X120491571Y-108799710D01*
X120396333Y-108752091D01*
X120348714Y-108704472D01*
X120301095Y-108609234D01*
X120301095Y-108513996D01*
X120348714Y-108418758D01*
X120396333Y-108371139D01*
X120491571Y-108323520D01*
X120682047Y-108275901D01*
X120777285Y-108228282D01*
X120824904Y-108180663D01*
X120872523Y-108085425D01*
X120872523Y-107990187D01*
X120824904Y-107894949D01*
X120777285Y-107847330D01*
X120682047Y-107799710D01*
X120443952Y-107799710D01*
X120301095Y-107847330D01*
X119967761Y-107799710D02*
X119729666Y-108799710D01*
X119539190Y-108085425D01*
X119348714Y-108799710D01*
X119110619Y-107799710D01*
X118777285Y-107894949D02*
X118729666Y-107847330D01*
X118634428Y-107799710D01*
X118396333Y-107799710D01*
X118301095Y-107847330D01*
X118253476Y-107894949D01*
X118205857Y-107990187D01*
X118205857Y-108085425D01*
X118253476Y-108228282D01*
X118824904Y-108799710D01*
X118205857Y-108799710D01*
X117301095Y-107799710D02*
X117777285Y-107799710D01*
X117824904Y-108275901D01*
X117777285Y-108228282D01*
X117682047Y-108180663D01*
X117443952Y-108180663D01*
X117348714Y-108228282D01*
X117301095Y-108275901D01*
X117253476Y-108371139D01*
X117253476Y-108609234D01*
X117301095Y-108704472D01*
X117348714Y-108752091D01*
X117443952Y-108799710D01*
X117682047Y-108799710D01*
X117777285Y-108752091D01*
X117824904Y-108704472D01*
%TO.C,SW24*%
X120872523Y-89702011D02*
X120729666Y-89749630D01*
X120491571Y-89749630D01*
X120396333Y-89702011D01*
X120348714Y-89654392D01*
X120301095Y-89559154D01*
X120301095Y-89463916D01*
X120348714Y-89368678D01*
X120396333Y-89321059D01*
X120491571Y-89273440D01*
X120682047Y-89225821D01*
X120777285Y-89178202D01*
X120824904Y-89130583D01*
X120872523Y-89035345D01*
X120872523Y-88940107D01*
X120824904Y-88844869D01*
X120777285Y-88797250D01*
X120682047Y-88749630D01*
X120443952Y-88749630D01*
X120301095Y-88797250D01*
X119967761Y-88749630D02*
X119729666Y-89749630D01*
X119539190Y-89035345D01*
X119348714Y-89749630D01*
X119110619Y-88749630D01*
X118777285Y-88844869D02*
X118729666Y-88797250D01*
X118634428Y-88749630D01*
X118396333Y-88749630D01*
X118301095Y-88797250D01*
X118253476Y-88844869D01*
X118205857Y-88940107D01*
X118205857Y-89035345D01*
X118253476Y-89178202D01*
X118824904Y-89749630D01*
X118205857Y-89749630D01*
X117348714Y-89082964D02*
X117348714Y-89749630D01*
X117586809Y-88702011D02*
X117824904Y-89416297D01*
X117205857Y-89416297D01*
%TO.C,SW23*%
X120872023Y-70651931D02*
X120729166Y-70699550D01*
X120491071Y-70699550D01*
X120395833Y-70651931D01*
X120348214Y-70604312D01*
X120300595Y-70509074D01*
X120300595Y-70413836D01*
X120348214Y-70318598D01*
X120395833Y-70270979D01*
X120491071Y-70223360D01*
X120681547Y-70175741D01*
X120776785Y-70128122D01*
X120824404Y-70080503D01*
X120872023Y-69985265D01*
X120872023Y-69890027D01*
X120824404Y-69794789D01*
X120776785Y-69747170D01*
X120681547Y-69699550D01*
X120443452Y-69699550D01*
X120300595Y-69747170D01*
X119967261Y-69699550D02*
X119729166Y-70699550D01*
X119538690Y-69985265D01*
X119348214Y-70699550D01*
X119110119Y-69699550D01*
X118776785Y-69794789D02*
X118729166Y-69747170D01*
X118633928Y-69699550D01*
X118395833Y-69699550D01*
X118300595Y-69747170D01*
X118252976Y-69794789D01*
X118205357Y-69890027D01*
X118205357Y-69985265D01*
X118252976Y-70128122D01*
X118824404Y-70699550D01*
X118205357Y-70699550D01*
X117872023Y-69699550D02*
X117252976Y-69699550D01*
X117586309Y-70080503D01*
X117443452Y-70080503D01*
X117348214Y-70128122D01*
X117300595Y-70175741D01*
X117252976Y-70270979D01*
X117252976Y-70509074D01*
X117300595Y-70604312D01*
X117348214Y-70651931D01*
X117443452Y-70699550D01*
X117729166Y-70699550D01*
X117824404Y-70651931D01*
X117872023Y-70604312D01*
%TO.C,SW22*%
X101822023Y-142089731D02*
X101679166Y-142137350D01*
X101441071Y-142137350D01*
X101345833Y-142089731D01*
X101298214Y-142042112D01*
X101250595Y-141946874D01*
X101250595Y-141851636D01*
X101298214Y-141756398D01*
X101345833Y-141708779D01*
X101441071Y-141661160D01*
X101631547Y-141613541D01*
X101726785Y-141565922D01*
X101774404Y-141518303D01*
X101822023Y-141423065D01*
X101822023Y-141327827D01*
X101774404Y-141232589D01*
X101726785Y-141184970D01*
X101631547Y-141137350D01*
X101393452Y-141137350D01*
X101250595Y-141184970D01*
X100917261Y-141137350D02*
X100679166Y-142137350D01*
X100488690Y-141423065D01*
X100298214Y-142137350D01*
X100060119Y-141137350D01*
X99726785Y-141232589D02*
X99679166Y-141184970D01*
X99583928Y-141137350D01*
X99345833Y-141137350D01*
X99250595Y-141184970D01*
X99202976Y-141232589D01*
X99155357Y-141327827D01*
X99155357Y-141423065D01*
X99202976Y-141565922D01*
X99774404Y-142137350D01*
X99155357Y-142137350D01*
X98774404Y-141232589D02*
X98726785Y-141184970D01*
X98631547Y-141137350D01*
X98393452Y-141137350D01*
X98298214Y-141184970D01*
X98250595Y-141232589D01*
X98202976Y-141327827D01*
X98202976Y-141423065D01*
X98250595Y-141565922D01*
X98822023Y-142137350D01*
X98202976Y-142137350D01*
%TO.C,SW21*%
X101822023Y-123039651D02*
X101679166Y-123087270D01*
X101441071Y-123087270D01*
X101345833Y-123039651D01*
X101298214Y-122992032D01*
X101250595Y-122896794D01*
X101250595Y-122801556D01*
X101298214Y-122706318D01*
X101345833Y-122658699D01*
X101441071Y-122611080D01*
X101631547Y-122563461D01*
X101726785Y-122515842D01*
X101774404Y-122468223D01*
X101822023Y-122372985D01*
X101822023Y-122277747D01*
X101774404Y-122182509D01*
X101726785Y-122134890D01*
X101631547Y-122087270D01*
X101393452Y-122087270D01*
X101250595Y-122134890D01*
X100917261Y-122087270D02*
X100679166Y-123087270D01*
X100488690Y-122372985D01*
X100298214Y-123087270D01*
X100060119Y-122087270D01*
X99726785Y-122182509D02*
X99679166Y-122134890D01*
X99583928Y-122087270D01*
X99345833Y-122087270D01*
X99250595Y-122134890D01*
X99202976Y-122182509D01*
X99155357Y-122277747D01*
X99155357Y-122372985D01*
X99202976Y-122515842D01*
X99774404Y-123087270D01*
X99155357Y-123087270D01*
X98202976Y-123087270D02*
X98774404Y-123087270D01*
X98488690Y-123087270D02*
X98488690Y-122087270D01*
X98583928Y-122230128D01*
X98679166Y-122325366D01*
X98774404Y-122372985D01*
%TO.C,SW20*%
X101822443Y-103989571D02*
X101679586Y-104037190D01*
X101441491Y-104037190D01*
X101346253Y-103989571D01*
X101298634Y-103941952D01*
X101251015Y-103846714D01*
X101251015Y-103751476D01*
X101298634Y-103656238D01*
X101346253Y-103608619D01*
X101441491Y-103561000D01*
X101631967Y-103513381D01*
X101727205Y-103465762D01*
X101774824Y-103418143D01*
X101822443Y-103322905D01*
X101822443Y-103227667D01*
X101774824Y-103132429D01*
X101727205Y-103084810D01*
X101631967Y-103037190D01*
X101393872Y-103037190D01*
X101251015Y-103084810D01*
X100917681Y-103037190D02*
X100679586Y-104037190D01*
X100489110Y-103322905D01*
X100298634Y-104037190D01*
X100060539Y-103037190D01*
X99727205Y-103132429D02*
X99679586Y-103084810D01*
X99584348Y-103037190D01*
X99346253Y-103037190D01*
X99251015Y-103084810D01*
X99203396Y-103132429D01*
X99155777Y-103227667D01*
X99155777Y-103322905D01*
X99203396Y-103465762D01*
X99774824Y-104037190D01*
X99155777Y-104037190D01*
X98536729Y-103037190D02*
X98441491Y-103037190D01*
X98346253Y-103084810D01*
X98298634Y-103132429D01*
X98251015Y-103227667D01*
X98203396Y-103418143D01*
X98203396Y-103656238D01*
X98251015Y-103846714D01*
X98298634Y-103941952D01*
X98346253Y-103989571D01*
X98441491Y-104037190D01*
X98536729Y-104037190D01*
X98631967Y-103989571D01*
X98679586Y-103941952D01*
X98727205Y-103846714D01*
X98774824Y-103656238D01*
X98774824Y-103418143D01*
X98727205Y-103227667D01*
X98679586Y-103132429D01*
X98631967Y-103084810D01*
X98536729Y-103037190D01*
%TO.C,SW19*%
X101822443Y-84939491D02*
X101679586Y-84987110D01*
X101441491Y-84987110D01*
X101346253Y-84939491D01*
X101298634Y-84891872D01*
X101251015Y-84796634D01*
X101251015Y-84701396D01*
X101298634Y-84606158D01*
X101346253Y-84558539D01*
X101441491Y-84510920D01*
X101631967Y-84463301D01*
X101727205Y-84415682D01*
X101774824Y-84368063D01*
X101822443Y-84272825D01*
X101822443Y-84177587D01*
X101774824Y-84082349D01*
X101727205Y-84034730D01*
X101631967Y-83987110D01*
X101393872Y-83987110D01*
X101251015Y-84034730D01*
X100917681Y-83987110D02*
X100679586Y-84987110D01*
X100489110Y-84272825D01*
X100298634Y-84987110D01*
X100060539Y-83987110D01*
X99155777Y-84987110D02*
X99727205Y-84987110D01*
X99441491Y-84987110D02*
X99441491Y-83987110D01*
X99536729Y-84129968D01*
X99631967Y-84225206D01*
X99727205Y-84272825D01*
X98679586Y-84987110D02*
X98489110Y-84987110D01*
X98393872Y-84939491D01*
X98346253Y-84891872D01*
X98251015Y-84749015D01*
X98203396Y-84558539D01*
X98203396Y-84177587D01*
X98251015Y-84082349D01*
X98298634Y-84034730D01*
X98393872Y-83987110D01*
X98584348Y-83987110D01*
X98679586Y-84034730D01*
X98727205Y-84082349D01*
X98774824Y-84177587D01*
X98774824Y-84415682D01*
X98727205Y-84510920D01*
X98679586Y-84558539D01*
X98584348Y-84606158D01*
X98393872Y-84606158D01*
X98298634Y-84558539D01*
X98251015Y-84510920D01*
X98203396Y-84415682D01*
%TO.C,SW18*%
X101822443Y-65889411D02*
X101679586Y-65937030D01*
X101441491Y-65937030D01*
X101346253Y-65889411D01*
X101298634Y-65841792D01*
X101251015Y-65746554D01*
X101251015Y-65651316D01*
X101298634Y-65556078D01*
X101346253Y-65508459D01*
X101441491Y-65460840D01*
X101631967Y-65413221D01*
X101727205Y-65365602D01*
X101774824Y-65317983D01*
X101822443Y-65222745D01*
X101822443Y-65127507D01*
X101774824Y-65032269D01*
X101727205Y-64984650D01*
X101631967Y-64937030D01*
X101393872Y-64937030D01*
X101251015Y-64984650D01*
X100917681Y-64937030D02*
X100679586Y-65937030D01*
X100489110Y-65222745D01*
X100298634Y-65937030D01*
X100060539Y-64937030D01*
X99155777Y-65937030D02*
X99727205Y-65937030D01*
X99441491Y-65937030D02*
X99441491Y-64937030D01*
X99536729Y-65079888D01*
X99631967Y-65175126D01*
X99727205Y-65222745D01*
X98584348Y-65365602D02*
X98679586Y-65317983D01*
X98727205Y-65270364D01*
X98774824Y-65175126D01*
X98774824Y-65127507D01*
X98727205Y-65032269D01*
X98679586Y-64984650D01*
X98584348Y-64937030D01*
X98393872Y-64937030D01*
X98298634Y-64984650D01*
X98251015Y-65032269D01*
X98203396Y-65127507D01*
X98203396Y-65175126D01*
X98251015Y-65270364D01*
X98298634Y-65317983D01*
X98393872Y-65365602D01*
X98584348Y-65365602D01*
X98679586Y-65413221D01*
X98727205Y-65460840D01*
X98774824Y-65556078D01*
X98774824Y-65746554D01*
X98727205Y-65841792D01*
X98679586Y-65889411D01*
X98584348Y-65937030D01*
X98393872Y-65937030D01*
X98298634Y-65889411D01*
X98251015Y-65841792D01*
X98203396Y-65746554D01*
X98203396Y-65556078D01*
X98251015Y-65460840D01*
X98298634Y-65413221D01*
X98393872Y-65365602D01*
%TO.C,SW17*%
X82772363Y-146852251D02*
X82629506Y-146899870D01*
X82391411Y-146899870D01*
X82296173Y-146852251D01*
X82248554Y-146804632D01*
X82200935Y-146709394D01*
X82200935Y-146614156D01*
X82248554Y-146518918D01*
X82296173Y-146471299D01*
X82391411Y-146423680D01*
X82581887Y-146376061D01*
X82677125Y-146328442D01*
X82724744Y-146280823D01*
X82772363Y-146185585D01*
X82772363Y-146090347D01*
X82724744Y-145995109D01*
X82677125Y-145947490D01*
X82581887Y-145899870D01*
X82343792Y-145899870D01*
X82200935Y-145947490D01*
X81867601Y-145899870D02*
X81629506Y-146899870D01*
X81439030Y-146185585D01*
X81248554Y-146899870D01*
X81010459Y-145899870D01*
X80105697Y-146899870D02*
X80677125Y-146899870D01*
X80391411Y-146899870D02*
X80391411Y-145899870D01*
X80486649Y-146042728D01*
X80581887Y-146137966D01*
X80677125Y-146185585D01*
X79772363Y-145899870D02*
X79105697Y-145899870D01*
X79534268Y-146899870D01*
%TO.C,SW16*%
X82772363Y-127802171D02*
X82629506Y-127849790D01*
X82391411Y-127849790D01*
X82296173Y-127802171D01*
X82248554Y-127754552D01*
X82200935Y-127659314D01*
X82200935Y-127564076D01*
X82248554Y-127468838D01*
X82296173Y-127421219D01*
X82391411Y-127373600D01*
X82581887Y-127325981D01*
X82677125Y-127278362D01*
X82724744Y-127230743D01*
X82772363Y-127135505D01*
X82772363Y-127040267D01*
X82724744Y-126945029D01*
X82677125Y-126897410D01*
X82581887Y-126849790D01*
X82343792Y-126849790D01*
X82200935Y-126897410D01*
X81867601Y-126849790D02*
X81629506Y-127849790D01*
X81439030Y-127135505D01*
X81248554Y-127849790D01*
X81010459Y-126849790D01*
X80105697Y-127849790D02*
X80677125Y-127849790D01*
X80391411Y-127849790D02*
X80391411Y-126849790D01*
X80486649Y-126992648D01*
X80581887Y-127087886D01*
X80677125Y-127135505D01*
X79248554Y-126849790D02*
X79439030Y-126849790D01*
X79534268Y-126897410D01*
X79581887Y-126945029D01*
X79677125Y-127087886D01*
X79724744Y-127278362D01*
X79724744Y-127659314D01*
X79677125Y-127754552D01*
X79629506Y-127802171D01*
X79534268Y-127849790D01*
X79343792Y-127849790D01*
X79248554Y-127802171D01*
X79200935Y-127754552D01*
X79153316Y-127659314D01*
X79153316Y-127421219D01*
X79200935Y-127325981D01*
X79248554Y-127278362D01*
X79343792Y-127230743D01*
X79534268Y-127230743D01*
X79629506Y-127278362D01*
X79677125Y-127325981D01*
X79724744Y-127421219D01*
%TO.C,SW15*%
X82772363Y-108752091D02*
X82629506Y-108799710D01*
X82391411Y-108799710D01*
X82296173Y-108752091D01*
X82248554Y-108704472D01*
X82200935Y-108609234D01*
X82200935Y-108513996D01*
X82248554Y-108418758D01*
X82296173Y-108371139D01*
X82391411Y-108323520D01*
X82581887Y-108275901D01*
X82677125Y-108228282D01*
X82724744Y-108180663D01*
X82772363Y-108085425D01*
X82772363Y-107990187D01*
X82724744Y-107894949D01*
X82677125Y-107847330D01*
X82581887Y-107799710D01*
X82343792Y-107799710D01*
X82200935Y-107847330D01*
X81867601Y-107799710D02*
X81629506Y-108799710D01*
X81439030Y-108085425D01*
X81248554Y-108799710D01*
X81010459Y-107799710D01*
X80105697Y-108799710D02*
X80677125Y-108799710D01*
X80391411Y-108799710D02*
X80391411Y-107799710D01*
X80486649Y-107942568D01*
X80581887Y-108037806D01*
X80677125Y-108085425D01*
X79200935Y-107799710D02*
X79677125Y-107799710D01*
X79724744Y-108275901D01*
X79677125Y-108228282D01*
X79581887Y-108180663D01*
X79343792Y-108180663D01*
X79248554Y-108228282D01*
X79200935Y-108275901D01*
X79153316Y-108371139D01*
X79153316Y-108609234D01*
X79200935Y-108704472D01*
X79248554Y-108752091D01*
X79343792Y-108799710D01*
X79581887Y-108799710D01*
X79677125Y-108752091D01*
X79724744Y-108704472D01*
%TO.C,SW14*%
X82772023Y-89702011D02*
X82629166Y-89749630D01*
X82391071Y-89749630D01*
X82295833Y-89702011D01*
X82248214Y-89654392D01*
X82200595Y-89559154D01*
X82200595Y-89463916D01*
X82248214Y-89368678D01*
X82295833Y-89321059D01*
X82391071Y-89273440D01*
X82581547Y-89225821D01*
X82676785Y-89178202D01*
X82724404Y-89130583D01*
X82772023Y-89035345D01*
X82772023Y-88940107D01*
X82724404Y-88844869D01*
X82676785Y-88797250D01*
X82581547Y-88749630D01*
X82343452Y-88749630D01*
X82200595Y-88797250D01*
X81867261Y-88749630D02*
X81629166Y-89749630D01*
X81438690Y-89035345D01*
X81248214Y-89749630D01*
X81010119Y-88749630D01*
X80105357Y-89749630D02*
X80676785Y-89749630D01*
X80391071Y-89749630D02*
X80391071Y-88749630D01*
X80486309Y-88892488D01*
X80581547Y-88987726D01*
X80676785Y-89035345D01*
X79248214Y-89082964D02*
X79248214Y-89749630D01*
X79486309Y-88702011D02*
X79724404Y-89416297D01*
X79105357Y-89416297D01*
%TO.C,SW13*%
X82772023Y-70651931D02*
X82629166Y-70699550D01*
X82391071Y-70699550D01*
X82295833Y-70651931D01*
X82248214Y-70604312D01*
X82200595Y-70509074D01*
X82200595Y-70413836D01*
X82248214Y-70318598D01*
X82295833Y-70270979D01*
X82391071Y-70223360D01*
X82581547Y-70175741D01*
X82676785Y-70128122D01*
X82724404Y-70080503D01*
X82772023Y-69985265D01*
X82772023Y-69890027D01*
X82724404Y-69794789D01*
X82676785Y-69747170D01*
X82581547Y-69699550D01*
X82343452Y-69699550D01*
X82200595Y-69747170D01*
X81867261Y-69699550D02*
X81629166Y-70699550D01*
X81438690Y-69985265D01*
X81248214Y-70699550D01*
X81010119Y-69699550D01*
X80105357Y-70699550D02*
X80676785Y-70699550D01*
X80391071Y-70699550D02*
X80391071Y-69699550D01*
X80486309Y-69842408D01*
X80581547Y-69937646D01*
X80676785Y-69985265D01*
X79772023Y-69699550D02*
X79152976Y-69699550D01*
X79486309Y-70080503D01*
X79343452Y-70080503D01*
X79248214Y-70128122D01*
X79200595Y-70175741D01*
X79152976Y-70270979D01*
X79152976Y-70509074D01*
X79200595Y-70604312D01*
X79248214Y-70651931D01*
X79343452Y-70699550D01*
X79629166Y-70699550D01*
X79724404Y-70651931D01*
X79772023Y-70604312D01*
%TO.C,SW12*%
X63722283Y-137327211D02*
X63579426Y-137374830D01*
X63341331Y-137374830D01*
X63246093Y-137327211D01*
X63198474Y-137279592D01*
X63150855Y-137184354D01*
X63150855Y-137089116D01*
X63198474Y-136993878D01*
X63246093Y-136946259D01*
X63341331Y-136898640D01*
X63531807Y-136851021D01*
X63627045Y-136803402D01*
X63674664Y-136755783D01*
X63722283Y-136660545D01*
X63722283Y-136565307D01*
X63674664Y-136470069D01*
X63627045Y-136422450D01*
X63531807Y-136374830D01*
X63293712Y-136374830D01*
X63150855Y-136422450D01*
X62817521Y-136374830D02*
X62579426Y-137374830D01*
X62388950Y-136660545D01*
X62198474Y-137374830D01*
X61960379Y-136374830D01*
X61055617Y-137374830D02*
X61627045Y-137374830D01*
X61341331Y-137374830D02*
X61341331Y-136374830D01*
X61436569Y-136517688D01*
X61531807Y-136612926D01*
X61627045Y-136660545D01*
X60674664Y-136470069D02*
X60627045Y-136422450D01*
X60531807Y-136374830D01*
X60293712Y-136374830D01*
X60198474Y-136422450D01*
X60150855Y-136470069D01*
X60103236Y-136565307D01*
X60103236Y-136660545D01*
X60150855Y-136803402D01*
X60722283Y-137374830D01*
X60103236Y-137374830D01*
%TO.C,SW11*%
X63722283Y-118277131D02*
X63579426Y-118324750D01*
X63341331Y-118324750D01*
X63246093Y-118277131D01*
X63198474Y-118229512D01*
X63150855Y-118134274D01*
X63150855Y-118039036D01*
X63198474Y-117943798D01*
X63246093Y-117896179D01*
X63341331Y-117848560D01*
X63531807Y-117800941D01*
X63627045Y-117753322D01*
X63674664Y-117705703D01*
X63722283Y-117610465D01*
X63722283Y-117515227D01*
X63674664Y-117419989D01*
X63627045Y-117372370D01*
X63531807Y-117324750D01*
X63293712Y-117324750D01*
X63150855Y-117372370D01*
X62817521Y-117324750D02*
X62579426Y-118324750D01*
X62388950Y-117610465D01*
X62198474Y-118324750D01*
X61960379Y-117324750D01*
X61055617Y-118324750D02*
X61627045Y-118324750D01*
X61341331Y-118324750D02*
X61341331Y-117324750D01*
X61436569Y-117467608D01*
X61531807Y-117562846D01*
X61627045Y-117610465D01*
X60103236Y-118324750D02*
X60674664Y-118324750D01*
X60388950Y-118324750D02*
X60388950Y-117324750D01*
X60484188Y-117467608D01*
X60579426Y-117562846D01*
X60674664Y-117610465D01*
%TO.C,SW10*%
X63722283Y-99227051D02*
X63579426Y-99274670D01*
X63341331Y-99274670D01*
X63246093Y-99227051D01*
X63198474Y-99179432D01*
X63150855Y-99084194D01*
X63150855Y-98988956D01*
X63198474Y-98893718D01*
X63246093Y-98846099D01*
X63341331Y-98798480D01*
X63531807Y-98750861D01*
X63627045Y-98703242D01*
X63674664Y-98655623D01*
X63722283Y-98560385D01*
X63722283Y-98465147D01*
X63674664Y-98369909D01*
X63627045Y-98322290D01*
X63531807Y-98274670D01*
X63293712Y-98274670D01*
X63150855Y-98322290D01*
X62817521Y-98274670D02*
X62579426Y-99274670D01*
X62388950Y-98560385D01*
X62198474Y-99274670D01*
X61960379Y-98274670D01*
X61055617Y-99274670D02*
X61627045Y-99274670D01*
X61341331Y-99274670D02*
X61341331Y-98274670D01*
X61436569Y-98417528D01*
X61531807Y-98512766D01*
X61627045Y-98560385D01*
X60436569Y-98274670D02*
X60341331Y-98274670D01*
X60246093Y-98322290D01*
X60198474Y-98369909D01*
X60150855Y-98465147D01*
X60103236Y-98655623D01*
X60103236Y-98893718D01*
X60150855Y-99084194D01*
X60198474Y-99179432D01*
X60246093Y-99227051D01*
X60341331Y-99274670D01*
X60436569Y-99274670D01*
X60531807Y-99227051D01*
X60579426Y-99179432D01*
X60627045Y-99084194D01*
X60674664Y-98893718D01*
X60674664Y-98655623D01*
X60627045Y-98465147D01*
X60579426Y-98369909D01*
X60531807Y-98322290D01*
X60436569Y-98274670D01*
%TO.C,SW9*%
X63246093Y-80176971D02*
X63103236Y-80224590D01*
X62865140Y-80224590D01*
X62769902Y-80176971D01*
X62722283Y-80129352D01*
X62674664Y-80034114D01*
X62674664Y-79938876D01*
X62722283Y-79843638D01*
X62769902Y-79796019D01*
X62865140Y-79748400D01*
X63055617Y-79700781D01*
X63150855Y-79653162D01*
X63198474Y-79605543D01*
X63246093Y-79510305D01*
X63246093Y-79415067D01*
X63198474Y-79319829D01*
X63150855Y-79272210D01*
X63055617Y-79224590D01*
X62817521Y-79224590D01*
X62674664Y-79272210D01*
X62341331Y-79224590D02*
X62103236Y-80224590D01*
X61912760Y-79510305D01*
X61722283Y-80224590D01*
X61484188Y-79224590D01*
X61055617Y-80224590D02*
X60865140Y-80224590D01*
X60769902Y-80176971D01*
X60722283Y-80129352D01*
X60627045Y-79986495D01*
X60579426Y-79796019D01*
X60579426Y-79415067D01*
X60627045Y-79319829D01*
X60674664Y-79272210D01*
X60769902Y-79224590D01*
X60960379Y-79224590D01*
X61055617Y-79272210D01*
X61103236Y-79319829D01*
X61150855Y-79415067D01*
X61150855Y-79653162D01*
X61103236Y-79748400D01*
X61055617Y-79796019D01*
X60960379Y-79843638D01*
X60769902Y-79843638D01*
X60674664Y-79796019D01*
X60627045Y-79748400D01*
X60579426Y-79653162D01*
%TO.C,SW8*%
X44195833Y-143943511D02*
X44052976Y-143991130D01*
X43814880Y-143991130D01*
X43719642Y-143943511D01*
X43672023Y-143895892D01*
X43624404Y-143800654D01*
X43624404Y-143705416D01*
X43672023Y-143610178D01*
X43719642Y-143562559D01*
X43814880Y-143514940D01*
X44005357Y-143467321D01*
X44100595Y-143419702D01*
X44148214Y-143372083D01*
X44195833Y-143276845D01*
X44195833Y-143181607D01*
X44148214Y-143086369D01*
X44100595Y-143038750D01*
X44005357Y-142991130D01*
X43767261Y-142991130D01*
X43624404Y-143038750D01*
X43291071Y-142991130D02*
X43052976Y-143991130D01*
X42862500Y-143276845D01*
X42672023Y-143991130D01*
X42433928Y-142991130D01*
X41910119Y-143419702D02*
X42005357Y-143372083D01*
X42052976Y-143324464D01*
X42100595Y-143229226D01*
X42100595Y-143181607D01*
X42052976Y-143086369D01*
X42005357Y-143038750D01*
X41910119Y-142991130D01*
X41719642Y-142991130D01*
X41624404Y-143038750D01*
X41576785Y-143086369D01*
X41529166Y-143181607D01*
X41529166Y-143229226D01*
X41576785Y-143324464D01*
X41624404Y-143372083D01*
X41719642Y-143419702D01*
X41910119Y-143419702D01*
X42005357Y-143467321D01*
X42052976Y-143514940D01*
X42100595Y-143610178D01*
X42100595Y-143800654D01*
X42052976Y-143895892D01*
X42005357Y-143943511D01*
X41910119Y-143991130D01*
X41719642Y-143991130D01*
X41624404Y-143943511D01*
X41576785Y-143895892D01*
X41529166Y-143800654D01*
X41529166Y-143610178D01*
X41576785Y-143514940D01*
X41624404Y-143467321D01*
X41719642Y-143419702D01*
%TO.C,SW7*%
X44195833Y-124893511D02*
X44052976Y-124941130D01*
X43814880Y-124941130D01*
X43719642Y-124893511D01*
X43672023Y-124845892D01*
X43624404Y-124750654D01*
X43624404Y-124655416D01*
X43672023Y-124560178D01*
X43719642Y-124512559D01*
X43814880Y-124464940D01*
X44005357Y-124417321D01*
X44100595Y-124369702D01*
X44148214Y-124322083D01*
X44195833Y-124226845D01*
X44195833Y-124131607D01*
X44148214Y-124036369D01*
X44100595Y-123988750D01*
X44005357Y-123941130D01*
X43767261Y-123941130D01*
X43624404Y-123988750D01*
X43291071Y-123941130D02*
X43052976Y-124941130D01*
X42862500Y-124226845D01*
X42672023Y-124941130D01*
X42433928Y-123941130D01*
X42148214Y-123941130D02*
X41481547Y-123941130D01*
X41910119Y-124941130D01*
%TO.C,SW6*%
X44195833Y-105793511D02*
X44052976Y-105841130D01*
X43814880Y-105841130D01*
X43719642Y-105793511D01*
X43672023Y-105745892D01*
X43624404Y-105650654D01*
X43624404Y-105555416D01*
X43672023Y-105460178D01*
X43719642Y-105412559D01*
X43814880Y-105364940D01*
X44005357Y-105317321D01*
X44100595Y-105269702D01*
X44148214Y-105222083D01*
X44195833Y-105126845D01*
X44195833Y-105031607D01*
X44148214Y-104936369D01*
X44100595Y-104888750D01*
X44005357Y-104841130D01*
X43767261Y-104841130D01*
X43624404Y-104888750D01*
X43291071Y-104841130D02*
X43052976Y-105841130D01*
X42862500Y-105126845D01*
X42672023Y-105841130D01*
X42433928Y-104841130D01*
X41624404Y-104841130D02*
X41814880Y-104841130D01*
X41910119Y-104888750D01*
X41957738Y-104936369D01*
X42052976Y-105079226D01*
X42100595Y-105269702D01*
X42100595Y-105650654D01*
X42052976Y-105745892D01*
X42005357Y-105793511D01*
X41910119Y-105841130D01*
X41719642Y-105841130D01*
X41624404Y-105793511D01*
X41576785Y-105745892D01*
X41529166Y-105650654D01*
X41529166Y-105412559D01*
X41576785Y-105317321D01*
X41624404Y-105269702D01*
X41719642Y-105222083D01*
X41910119Y-105222083D01*
X42005357Y-105269702D01*
X42052976Y-105317321D01*
X42100595Y-105412559D01*
%TO.C,SW5*%
X44095833Y-86693511D02*
X43952976Y-86741130D01*
X43714880Y-86741130D01*
X43619642Y-86693511D01*
X43572023Y-86645892D01*
X43524404Y-86550654D01*
X43524404Y-86455416D01*
X43572023Y-86360178D01*
X43619642Y-86312559D01*
X43714880Y-86264940D01*
X43905357Y-86217321D01*
X44000595Y-86169702D01*
X44048214Y-86122083D01*
X44095833Y-86026845D01*
X44095833Y-85931607D01*
X44048214Y-85836369D01*
X44000595Y-85788750D01*
X43905357Y-85741130D01*
X43667261Y-85741130D01*
X43524404Y-85788750D01*
X43191071Y-85741130D02*
X42952976Y-86741130D01*
X42762500Y-86026845D01*
X42572023Y-86741130D01*
X42333928Y-85741130D01*
X41476785Y-85741130D02*
X41952976Y-85741130D01*
X42000595Y-86217321D01*
X41952976Y-86169702D01*
X41857738Y-86122083D01*
X41619642Y-86122083D01*
X41524404Y-86169702D01*
X41476785Y-86217321D01*
X41429166Y-86312559D01*
X41429166Y-86550654D01*
X41476785Y-86645892D01*
X41524404Y-86693511D01*
X41619642Y-86741130D01*
X41857738Y-86741130D01*
X41952976Y-86693511D01*
X42000595Y-86645892D01*
%TO.C,SW4*%
X39433333Y-143943511D02*
X39290476Y-143991130D01*
X39052380Y-143991130D01*
X38957142Y-143943511D01*
X38909523Y-143895892D01*
X38861904Y-143800654D01*
X38861904Y-143705416D01*
X38909523Y-143610178D01*
X38957142Y-143562559D01*
X39052380Y-143514940D01*
X39242857Y-143467321D01*
X39338095Y-143419702D01*
X39385714Y-143372083D01*
X39433333Y-143276845D01*
X39433333Y-143181607D01*
X39385714Y-143086369D01*
X39338095Y-143038750D01*
X39242857Y-142991130D01*
X39004761Y-142991130D01*
X38861904Y-143038750D01*
X38528571Y-142991130D02*
X38290476Y-143991130D01*
X38100000Y-143276845D01*
X37909523Y-143991130D01*
X37671428Y-142991130D01*
X36861904Y-143324464D02*
X36861904Y-143991130D01*
X37100000Y-142943511D02*
X37338095Y-143657797D01*
X36719047Y-143657797D01*
%TO.C,SW3*%
X39433333Y-124893511D02*
X39290476Y-124941130D01*
X39052380Y-124941130D01*
X38957142Y-124893511D01*
X38909523Y-124845892D01*
X38861904Y-124750654D01*
X38861904Y-124655416D01*
X38909523Y-124560178D01*
X38957142Y-124512559D01*
X39052380Y-124464940D01*
X39242857Y-124417321D01*
X39338095Y-124369702D01*
X39385714Y-124322083D01*
X39433333Y-124226845D01*
X39433333Y-124131607D01*
X39385714Y-124036369D01*
X39338095Y-123988750D01*
X39242857Y-123941130D01*
X39004761Y-123941130D01*
X38861904Y-123988750D01*
X38528571Y-123941130D02*
X38290476Y-124941130D01*
X38100000Y-124226845D01*
X37909523Y-124941130D01*
X37671428Y-123941130D01*
X37385714Y-123941130D02*
X36766666Y-123941130D01*
X37100000Y-124322083D01*
X36957142Y-124322083D01*
X36861904Y-124369702D01*
X36814285Y-124417321D01*
X36766666Y-124512559D01*
X36766666Y-124750654D01*
X36814285Y-124845892D01*
X36861904Y-124893511D01*
X36957142Y-124941130D01*
X37242857Y-124941130D01*
X37338095Y-124893511D01*
X37385714Y-124845892D01*
%TO.C,SW2*%
X39433333Y-105793511D02*
X39290476Y-105841130D01*
X39052380Y-105841130D01*
X38957142Y-105793511D01*
X38909523Y-105745892D01*
X38861904Y-105650654D01*
X38861904Y-105555416D01*
X38909523Y-105460178D01*
X38957142Y-105412559D01*
X39052380Y-105364940D01*
X39242857Y-105317321D01*
X39338095Y-105269702D01*
X39385714Y-105222083D01*
X39433333Y-105126845D01*
X39433333Y-105031607D01*
X39385714Y-104936369D01*
X39338095Y-104888750D01*
X39242857Y-104841130D01*
X39004761Y-104841130D01*
X38861904Y-104888750D01*
X38528571Y-104841130D02*
X38290476Y-105841130D01*
X38100000Y-105126845D01*
X37909523Y-105841130D01*
X37671428Y-104841130D01*
X37338095Y-104936369D02*
X37290476Y-104888750D01*
X37195238Y-104841130D01*
X36957142Y-104841130D01*
X36861904Y-104888750D01*
X36814285Y-104936369D01*
X36766666Y-105031607D01*
X36766666Y-105126845D01*
X36814285Y-105269702D01*
X37385714Y-105841130D01*
X36766666Y-105841130D01*
%TO.C,SW1*%
X39333333Y-86693511D02*
X39190476Y-86741130D01*
X38952380Y-86741130D01*
X38857142Y-86693511D01*
X38809523Y-86645892D01*
X38761904Y-86550654D01*
X38761904Y-86455416D01*
X38809523Y-86360178D01*
X38857142Y-86312559D01*
X38952380Y-86264940D01*
X39142857Y-86217321D01*
X39238095Y-86169702D01*
X39285714Y-86122083D01*
X39333333Y-86026845D01*
X39333333Y-85931607D01*
X39285714Y-85836369D01*
X39238095Y-85788750D01*
X39142857Y-85741130D01*
X38904761Y-85741130D01*
X38761904Y-85788750D01*
X38428571Y-85741130D02*
X38190476Y-86741130D01*
X38000000Y-86026845D01*
X37809523Y-86741130D01*
X37571428Y-85741130D01*
X36666666Y-86741130D02*
X37238095Y-86741130D01*
X36952380Y-86741130D02*
X36952380Y-85741130D01*
X37047619Y-85883988D01*
X37142857Y-85979226D01*
X37238095Y-86026845D01*
%TO.C,P1*%
X129780895Y-87890361D02*
X129974419Y-87890361D01*
X129897009Y-87696838D02*
X129974419Y-87890361D01*
X129897009Y-88083885D01*
X130129238Y-87774247D02*
X129974419Y-87890361D01*
X130129238Y-88006476D01*
X129780895Y-88509638D02*
X129974419Y-88509638D01*
X129897009Y-88316114D02*
X129974419Y-88509638D01*
X129897009Y-88703161D01*
X130129238Y-88393523D02*
X129974419Y-88509638D01*
X130129238Y-88625752D01*
%TD*%
M02*
