999
FreeCAD v0.19 24291 (Git)
  0
SECTION
  2
HEADER
  9
$ACADVER
  1
AC1014
  9
$ACADMAINTVER
 70
     9
  9
$DWGCODEPAGE
  3
ANSI_1252
  9
$TEXTSTYLE
  7
STANDARD
  9
$DIMSTYLE
  2
STANDARD
  9
$DIMTXSTY
  7
STANDARD
  9
$CMLSTYLE
  2
STANDARD
  9
$PEXTMAX
 10
50
 20
50
 30
50
  9
$PEXTMIN
 10
0
 20
0
 30
0
  9
$HANDSEED
  5
FFFF
  0
ENDSEC
  0
SECTION
  2
CLASSES
  0
CLASS
  1
ACDBDICTIONARYWDFLT
  2
AcDbDictionaryWithDefault
  3
ObjectDBX Classes
 90
        0
280
     0
281
     0
  0
CLASS
  1
XRECORD
  2
AcDbXrecord
  3
ObjectDBX Classes
 90
        0
280
     0
281
     0
  0
CLASS
  1
LWPOLYLINE
  2
AcDbPolyline
  3
ObjectDBX Classes
 90
        0
280
     0
281
     1
  0
ENDSEC
  0
SECTION
  2
TABLES
  0
TABLE
  2
VPORT
  5
20
330
0
100
AcDbSymbolTable
 70
     1
  0
VPORT
  5
21
330
20
100
AcDbSymbolTableRecord
100
AcDbViewportTableRecord
  2
*ACTIVE
 70
     0
  0
ENDTAB
  0
TABLE
  2
LTYPE
  5
22
330
0
100
AcDbSymbolTable
 70
     1
  0
LTYPE
  5
23
330
21
100
AcDbSymbolTableRecord
100
AcDbLinetypeTableRecord
  2
BYBLOCK
 70
     0
  3

 72
    65
 73
     0
 40
0.0
  0
LTYPE
  5
24
330
21
100
AcDbSymbolTableRecord
100
AcDbLinetypeTableRecord
  2
BYLAYER
 70
     0
  3

 72
    65
 73
     0
 40
0.0
  0
LTYPE
  5
25
330
21
100
AcDbSymbolTableRecord
100
AcDbLinetypeTableRecord
  2
CONTINUOUS
 70
     0
  3
Solid line
 72
    65
 73
     0
 40
0.0
  0
ENDTAB
  0
TABLE
  2
LAYER
  5
DB6
330
0
100
AcDbSymbolTable
 70
3
  0
LAYER
  5
DB7
330
DB6
100
AcDbSymbolTableRecord
100
AcDbLayerTableRecord
  2
0
 70
   0
 62
   7
  6
CONTINUOUS
  0
LAYER
  5
DB8
330
DB6
100
AcDbSymbolTableRecord
100
AcDbLayerTableRecord
  2
none
 70
    0
 62
    7
  6
CONTINUOUS
  0
LAYER
  5
DB9
330
DB6
100
AcDbSymbolTableRecord
100
AcDbLayerTableRecord
  2
Body001
 70
    0
 62
    7
  6
CONTINUOUS
  0
ENDTAB
  0
TABLE
  2
STYLE
  5
70
330
0
100
AcDbSymbolTable
 70
     2
  0
STYLE
  5
71
330
70
100
AcDbSymbolTableRecord
100
AcDbTextStyleTableRecord
  2
STANDARD
 70
     0
 40
0.0
 41
1.0
 50
0.0
 71
     0
 42
2.5
  3
arial.ttf
  4

  0
STYLE
  5
72
330
70
100
AcDbSymbolTableRecord
100
AcDbTextStyleTableRecord
  2
ANNOTATIVE
 70
     0
 40
0.0
 41
1.0
 50
0.0
 71
     0
 42
2.5
  3
arial.ttf
  4

  0
ENDTAB
  0
TABLE
  2
VIEW
  5
73
330
0
100
AcDbSymbolTable
 70
     0
  0
ENDTAB
  0
TABLE
  2
UCS
  5
74
330
0
100
AcDbSymbolTable
 70
     0
  0
ENDTAB
  0
TABLE
  2
APPID
  5
75
330
0
100
AcDbSymbolTable
 70
     2
  0
APPID
  5
76
330
75
100
AcDbSymbolTableRecord
100
AcDbRegAppTableRecord
  2
ACAD
 70
     0
  0
APPID
  5
77
330
75
100
AcDbSymbolTableRecord
100
AcDbRegAppTableRecord
  2
ACADANNOTATIVE
 70
     0
  0
ENDTAB
  0
TABLE
  2
DIMSTYLE
  5
78
330
0
100
AcDbSymbolTable
 70
     2
  0
DIMSTYLE
105
79
330
78
100
AcDbSymbolTableRecord
100
AcDbDimStyleTableRecord
  2
STANDARD
 70
     0
  3

  4

  5

  6

  7

 40
0.0
 41
2.5
 42
0.625
 43
3.75
 44
1.25
 45
0.0
 46
0.0
 47
0.0
 48
0.0
140
2.5
141
2.5
142
0.0
143
0.03937007874016
144
1.0
145
0.0
146
1.0
147
0.625
 71
     0
 72
     0
 73
     0
 74
     0
 75
     0
 76
     0
 77
     1
 78
     8
170
     0
171
     3
172
     1
173
     0
174
     0
175
     0
176
     0
177
     0
178
     0
270
     2
271
     2
272
     2
273
     2
274
     3
340
71
275
     0
280
     0
281
     0
282
     0
283
     0
284
     8
285
     0
286
     0
287
     3
288
     0
  0
ENDTAB
  0
TABLE
  2
BLOCK_RECORD
  5
A01
330
0
100
AcDbSymbolTable
  70
5
  0
BLOCK_RECORD
  5
A02
330
A01
100
AcDbSymbolTableRecord
100
AcDbBlockTableRecord
  2
*MODEL_SPACE
  0
BLOCK_RECORD
  5
A03
330
A01
100
AcDbSymbolTableRecord
100
AcDbBlockTableRecord
  2
*PAPER_SPACE
  0
ENDTAB
  0
ENDSEC
  0
SECTION
  2
BLOCKS
  0
BLOCK
  5
A04
330
A02
100
AcDbEntity
  8
0
100
AcDbBlockBegin
  2
*MODEL_SPACE
 70
   0
 10
0
 20
0
 30
0
  3
*MODEL_SPACE
  1
 
  0
ENDBLK
  5
A05
330
A02
100
AcDbEntity
  8
0
100
AcDbBlockEnd
  0
BLOCK
  5
A06
330
A03
100
AcDbEntity
 67
1
  8
0
100
AcDbBlockBegin
  2
*PAPER_SPACE
 70
   0
 10
0
 20
0
 30
0
  3
*PAPER_SPACE
  1
 
  0
ENDBLK
  5
A07
330
A03
100
AcDbEntity
 67
    1
  8
0
100
AcDbBlockEnd
  0
ENDSEC
  0
SECTION
  2
ENTITIES
  0
SPLINE
  5
A08
330
A02
100
AcDbEntity
  8
Body001
100
AcDbSpline
210
0
220
0
230
1
 70
8
 71
3
 72
8
 73
4
 74
0
 40
0
 40
0
 40
0
 40
0
 40
0.989085
 40
0.989085
 40
0.989085
 40
0.989085
 10
85.725
 20
98.4875
 30
0
 10
104.567
 20
98.4875
 30
0
 10
104.773
 20
89.1693
 30
0
 10
149.382
 20
88.9659
 30
0
  0
SPLINE
  5
A09
330
A02
100
AcDbEntity
  8
Body001
100
AcDbSpline
210
0
220
0
230
1
 70
8
 71
1
 72
4
 73
2
 74
0
 40
-2.4e-14
 40
-2.4e-14
 40
3
 40
3
 10
149.382
 20
88.9659
 30
1.19904e-14
 10
149.382
 20
88.9659
 30
3
  0
LINE
  5
A0A
330
A02
100
AcDbEntity
  8
Body001
100
AcDbLine
 10
85.725
 20
98.4875
 30
0
 11
85.725
 21
98.4875
 31
3
  0
SPLINE
  5
A0B
330
A02
100
AcDbEntity
  8
Body001
100
AcDbSpline
210
0
220
0
230
1
 70
8
 71
3
 72
8
 73
4
 74
0
 40
0
 40
0
 40
0
 40
0
 40
0.989085
 40
0.989085
 40
0.989085
 40
0.989085
 10
85.725
 20
98.4875
 30
3
 10
104.567
 20
98.4875
 30
3
 10
104.773
 20
89.1693
 30
3
 10
149.382
 20
88.9659
 30
3
  0
SPLINE
  5
A0C
330
A02
100
AcDbEntity
  8
Body001
100
AcDbSpline
210
0
220
0
230
1
 70
8
 71
3
 72
8
 73
4
 74
0
 40
0
 40
0
 40
0
 40
0
 40
0.989085
 40
0.989085
 40
0.989085
 40
0.989085
 10
85.725
 20
98.4875
 30
0
 10
104.567
 20
98.4875
 30
0
 10
104.773
 20
89.1693
 30
0
 10
149.382
 20
88.9659
 30
0
  0
SPLINE
  5
A0D
330
A02
100
AcDbEntity
  8
Body001
100
AcDbSpline
210
0
220
0
230
1
 70
8
 71
3
 72
11
 73
7
 74
0
 40
0
 40
0
 40
0
 40
0
 40
0.499992
 40
0.499992
 40
0.499992
 40
1
 40
1
 40
1
 40
1
 10
149.382
 20
88.9659
 30
0
 10
149.748
 20
88.968
 30
0
 10
150.153
 20
88.8147
 30
0
 10
150.438
 20
88.5242
 30
0
 10
150.727
 20
88.2381
 30
0
 10
150.879
 20
87.8318
 30
0
 10
150.875
 20
87.466
 30
0
  0
LINE
  5
A0E
330
A02
100
AcDbEntity
  8
Body001
100
AcDbLine
 10
85.725
 20
98.4875
 30
0
 11
66.675
 21
98.4875
 31
0
  0
SPLINE
  5
A0F
330
A02
100
AcDbEntity
  8
Body001
100
AcDbSpline
210
0
220
0
230
1
 70
8
 71
3
 72
8
 73
4
 74
0
 40
0.0108859
 40
0.0108859
 40
0.0108859
 40
0.0108859
 40
0.981589
 40
0.981589
 40
0.981589
 40
0.981589
 10
150.875
 20
87.466
 30
0
 10
150.878
 20
43.2515
 30
0
 10
151.131
 20
22.8061
 30
0
 10
173.985
 20
11.8483
 30
0
  0
SPLINE
  5
A10
330
A02
100
AcDbEntity
  8
Body001
100
AcDbSpline
210
0
220
0
230
1
 70
8
 71
3
 72
8
 73
4
 74
0
 40
0.0105421
 40
0.0105421
 40
0.0105421
 40
0.0105421
 40
1
 40
1
 40
1
 40
1
 10
-6.50959
 20
84.2047
 30
0
 10
39.628
 20
84.4997
 30
0
 10
39.9102
 20
98.4875
 30
0
 10
66.675
 20
98.4875
 30
0
  0
SPLINE
  5
A11
330
A02
100
AcDbEntity
  8
Body001
100
AcDbSpline
210
0
220
0
230
1
 70
8
 71
3
 72
11
 73
7
 74
0
 40
0
 40
0
 40
0
 40
0
 40
0.499993
 40
0.499993
 40
0.499993
 40
1
 40
1
 40
1
 40
1
 10
173.985
 20
11.8483
 30
0
 10
174.312
 20
11.6954
 30
0
 10
174.61
 20
11.3896
 30
0
 10
174.745
 20
11.0124
 30
0
 10
174.886
 20
10.6372
 30
0
 10
174.857
 20
10.2118
 30
0
 10
174.706
 20
9.88355
 30
0
  0
SPLINE
  5
A12
330
A02
100
AcDbEntity
  8
Body001
100
AcDbSpline
210
0
220
0
230
1
 70
8
 71
3
 72
11
 73
7
 74
0
 40
0
 40
0
 40
0
 40
0
 40
0.500008
 40
0.500008
 40
0.500008
 40
1
 40
1
 40
1
 40
1
 10
-6.50959
 20
84.2047
 30
0
 10
-6.87505
 20
84.2062
 30
0
 10
-7.27989
 20
84.0525
 30
0
 10
-7.56404
 20
83.762
 30
0
 10
-7.85268
 20
83.476
 30
0
 10
-8.00382
 20
83.0702
 30
0
 10
-8
 20
82.7048
 30
0
  0
LINE
  5
A13
330
A02
100
AcDbEntity
  8
Body001
100
AcDbLine
 10
153.842
 20
-36.7889
 30
0
 11
174.706
 21
9.88355
 31
0
  0
LINE
  5
A14
330
A02
100
AcDbEntity
  8
Body001
100
AcDbLine
 10
-8
 20
82.7048
 30
0
 11
-8
 21
-6.50005
 31
0
  0
SPLINE
  5
A15
330
A02
100
AcDbEntity
  8
Body001
100
AcDbSpline
210
0
220
0
230
1
 70
8
 71
3
 72
11
 73
7
 74
0
 40
0
 40
0
 40
0
 40
0
 40
0.499992
 40
0.499992
 40
0.499992
 40
1
 40
1
 40
1
 40
1
 10
153.842
 20
-36.7889
 30
0
 10
153.697
 20
-37.1244
 30
0
 10
153.393
 20
-37.4334
 30
0
 10
153.012
 20
-37.5766
 30
0
 10
152.634
 20
-37.7257
 30
0
 10
152.201
 20
-37.7003
 30
0
 10
151.868
 20
-37.5492
 30
0
  0
SPLINE
  5
A16
330
A02
100
AcDbEntity
  8
Body001
100
AcDbSpline
210
0
220
0
230
1
 70
8
 71
3
 72
11
 73
7
 74
0
 40
0
 40
0
 40
0
 40
0
 40
0.500008
 40
0.500008
 40
0.500008
 40
1
 40
1
 40
1
 40
1
 10
-8
 20
-6.50005
 30
0
 10
-8.00387
 20
-6.86683
 30
0
 10
-7.85149
 20
-7.27437
 30
0
 10
-7.56072
 20
-7.56066
 30
0
 10
-7.27446
 20
-7.85147
 30
0
 10
-6.86689
 20
-8.00389
 30
0
 10
-6.50016
 20
-8.00005
 30
0
  0
SPLINE
  5
A17
330
A02
100
AcDbEntity
  8
Body001
100
AcDbSpline
210
0
220
0
230
1
 70
8
 71
3
 72
8
 73
4
 74
0
 40
0.00988508
 40
0.00988508
 40
0.00988508
 40
0.00988508
 40
0.987578
 40
0.987578
 40
0.987578
 40
0.987578
 10
151.868
 20
-37.5492
 30
0
 10
107.041
 20
-17.7762
 30
0
 10
76.6094
 20
-17.5282
 30
0
 10
40.9854
 20
-17.525
 30
0
  0
SPLINE
  5
A18
330
A02
100
AcDbEntity
  8
Body001
100
AcDbSpline
210
0
220
0
230
1
 70
8
 71
3
 72
8
 73
4
 74
0
 40
0.0445047
 40
0.0445047
 40
0.0445047
 40
0.0445047
 40
0.9824
 40
0.9824
 40
0.9824
 40
0.9824
 10
39.5126
 20
-16.309
 30
0
 10
37.94
 20
-8.15305
 30
0
 10
19.983
 20
-8.00282
 30
0
 10
-6.50016
 20
-8.00005
 30
0
  0
SPLINE
  5
A19
330
A02
100
AcDbEntity
  8
Body001
100
AcDbSpline
210
0
220
0
230
1
 70
8
 71
3
 72
11
 73
7
 74
0
 40
0
 40
0
 40
0
 40
0
 40
0.5
 40
0.5
 40
0.5
 40
1
 40
1
 40
1
 40
1
 10
39.5126
 20
-16.309
 30
0
 10
39.572
 20
-16.6296
 30
0
 10
39.7546
 20
-16.9566
 30
0
 10
40.0305
 20
-17.1817
 30
0
 10
40.3037
 20
-17.41
 30
0
 10
40.6594
 20
-17.5274
 30
0
 10
40.9854
 20
-17.525
 30
0
  0
CIRCLE
  5
A1A
330
A02
100
AcDbEntity
  8
Body001
100
AcDbCircle
 10
-4.375
 20
-4.375
 40
1.45
  0
CIRCLE
  5
A1B
330
A02
100
AcDbEntity
  8
Body001
100
AcDbCircle
 10
43.25
 20
-13.9
 40
1.45
  0
LINE
  5
A1C
330
A02
100
AcDbEntity
  8
Body001
100
AcDbLine
 10
7.3875
 20
2.625
 30
0
 11
7.3875
 21
16.425
 31
0
  0
LINE
  5
A1D
330
A02
100
AcDbEntity
  8
Body001
100
AcDbLine
 10
21.1875
 20
2.625
 30
0
 11
7.3875
 21
2.625
 31
0
  0
LINE
  5
A1E
330
A02
100
AcDbEntity
  8
Body001
100
AcDbLine
 10
21.1875
 20
16.425
 30
0
 11
21.1875
 21
2.625
 31
0
  0
LINE
  5
A1F
330
A02
100
AcDbEntity
  8
Body001
100
AcDbLine
 10
7.3875
 20
16.425
 30
0
 11
21.1875
 21
16.425
 31
0
  0
LINE
  5
A20
330
A02
100
AcDbEntity
  8
Body001
100
AcDbLine
 10
45
 20
16.425
 30
0
 11
31.2
 21
16.425
 31
0
  0
LINE
  5
A21
330
A02
100
AcDbEntity
  8
Body001
100
AcDbLine
 10
45
 20
2.625
 30
0
 11
45
 21
16.425
 31
0
  0
LINE
  5
A22
330
A02
100
AcDbEntity
  8
Body001
100
AcDbLine
 10
31.2
 20
16.425
 30
0
 11
31.2
 21
2.625
 31
0
  0
LINE
  5
A23
330
A02
100
AcDbEntity
  8
Body001
100
AcDbLine
 10
31.2
 20
2.625
 30
0
 11
45
 21
2.625
 31
0
  0
LINE
  5
A24
330
A02
100
AcDbEntity
  8
Body001
100
AcDbLine
 10
7.3875
 20
21.675
 30
0
 11
7.3875
 21
35.475
 31
0
  0
LINE
  5
A25
330
A02
100
AcDbEntity
  8
Body001
100
AcDbLine
 10
21.1875
 20
21.675
 30
0
 11
7.3875
 21
21.675
 31
0
  0
LINE
  5
A26
330
A02
100
AcDbEntity
  8
Body001
100
AcDbLine
 10
21.1875
 20
35.475
 30
0
 11
21.1875
 21
21.675
 31
0
  0
LINE
  5
A27
330
A02
100
AcDbEntity
  8
Body001
100
AcDbLine
 10
7.3875
 20
35.475
 30
0
 11
21.1875
 21
35.475
 31
0
  0
LINE
  5
A28
330
A02
100
AcDbEntity
  8
Body001
100
AcDbLine
 10
31.2
 20
21.675
 30
0
 11
31.2
 21
35.475
 31
0
  0
LINE
  5
A29
330
A02
100
AcDbEntity
  8
Body001
100
AcDbLine
 10
45
 20
21.675
 30
0
 11
31.2
 21
21.675
 31
0
  0
LINE
  5
A2A
330
A02
100
AcDbEntity
  8
Body001
100
AcDbLine
 10
31.2
 20
35.475
 30
0
 11
45
 21
35.475
 31
0
  0
LINE
  5
A2B
330
A02
100
AcDbEntity
  8
Body001
100
AcDbLine
 10
45
 20
35.475
 30
0
 11
45
 21
21.675
 31
0
  0
LINE
  5
A2C
330
A02
100
AcDbEntity
  8
Body001
100
AcDbLine
 10
50.25
 20
-6.9
 30
0
 11
64.05
 21
-6.9
 31
0
  0
LINE
  5
A2D
330
A02
100
AcDbEntity
  8
Body001
100
AcDbLine
 10
50.25
 20
6.9
 30
0
 11
50.25
 21
-6.9
 31
0
  0
LINE
  5
A2E
330
A02
100
AcDbEntity
  8
Body001
100
AcDbLine
 10
64.05
 20
-6.9
 30
0
 11
64.05
 21
6.9
 31
0
  0
LINE
  5
A2F
330
A02
100
AcDbEntity
  8
Body001
100
AcDbLine
 10
64.05
 20
6.9
 30
0
 11
50.25
 21
6.9
 31
0
  0
LINE
  5
A30
330
A02
100
AcDbEntity
  8
Body001
100
AcDbLine
 10
69.3
 20
-2.1375
 30
0
 11
69.3
 21
11.6625
 31
0
  0
LINE
  5
A31
330
A02
100
AcDbEntity
  8
Body001
100
AcDbLine
 10
83.1
 20
-2.1375
 30
0
 11
69.3
 21
-2.1375
 31
0
  0
LINE
  5
A32
330
A02
100
AcDbEntity
  8
Body001
100
AcDbLine
 10
69.3
 20
11.6625
 30
0
 11
83.1
 21
11.6625
 31
0
  0
LINE
  5
A33
330
A02
100
AcDbEntity
  8
Body001
100
AcDbLine
 10
83.1
 20
11.6625
 30
0
 11
83.1
 21
-2.1375
 31
0
  0
LINE
  5
A34
330
A02
100
AcDbEntity
  8
Body001
100
AcDbLine
 10
64.05
 20
25.95
 30
0
 11
64.05
 21
12.15
 31
0
  0
LINE
  5
A35
330
A02
100
AcDbEntity
  8
Body001
100
AcDbLine
 10
50.25
 20
25.95
 30
0
 11
64.05
 21
25.95
 31
0
  0
LINE
  5
A36
330
A02
100
AcDbEntity
  8
Body001
100
AcDbLine
 10
64.05
 20
12.15
 30
0
 11
50.25
 21
12.15
 31
0
  0
LINE
  5
A37
330
A02
100
AcDbEntity
  8
Body001
100
AcDbLine
 10
50.25
 20
12.15
 30
0
 11
50.25
 21
25.95
 31
0
  0
LINE
  5
A38
330
A02
100
AcDbEntity
  8
Body001
100
AcDbLine
 10
69.3
 20
16.9125
 30
0
 11
69.3
 21
30.7125
 31
0
  0
LINE
  5
A39
330
A02
100
AcDbEntity
  8
Body001
100
AcDbLine
 10
83.1
 20
16.9125
 30
0
 11
69.3
 21
16.9125
 31
0
  0
LINE
  5
A3A
330
A02
100
AcDbEntity
  8
Body001
100
AcDbLine
 10
69.3
 20
30.7125
 30
0
 11
83.1
 21
30.7125
 31
0
  0
LINE
  5
A3B
330
A02
100
AcDbEntity
  8
Body001
100
AcDbLine
 10
83.1
 20
30.7125
 30
0
 11
83.1
 21
16.9125
 31
0
  0
CIRCLE
  5
A3C
330
A02
100
AcDbEntity
  8
Body001
100
AcDbCircle
 10
95.25
 20
-13.9
 40
1.45
  0
LINE
  5
A3D
330
A02
100
AcDbEntity
  8
Body001
100
AcDbLine
 10
111.623
 20
-12.8395
 30
0
 11
114.492
 21
0.658915
 31
0
  0
LINE
  5
A3E
330
A02
100
AcDbEntity
  8
Body001
100
AcDbLine
 10
125.121
 20
-15.7087
 30
0
 11
111.623
 21
-12.8395
 31
0
  0
LINE
  5
A3F
330
A02
100
AcDbEntity
  8
Body001
100
AcDbLine
 10
114.492
 20
0.658915
 30
0
 11
127.991
 21
-2.21027
 31
0
  0
LINE
  5
A40
330
A02
100
AcDbEntity
  8
Body001
100
AcDbLine
 10
127.991
 20
-2.21027
 30
0
 11
125.121
 21
-15.7087
 31
0
  0
CIRCLE
  5
A41
330
A02
100
AcDbEntity
  8
Body001
100
AcDbCircle
 10
151.402
 20
-33.3662
 40
1.45
  0
LINE
  5
A42
330
A02
100
AcDbEntity
  8
Body001
100
AcDbLine
 10
135.269
 20
-18.4871
 30
0
 11
140.901
 21
-5.88858
 31
0
  0
LINE
  5
A43
330
A02
100
AcDbEntity
  8
Body001
100
AcDbLine
 10
147.868
 20
-24.1189
 30
0
 11
135.269
 21
-18.4871
 31
0
  0
LINE
  5
A44
330
A02
100
AcDbEntity
  8
Body001
100
AcDbLine
 10
140.901
 20
-5.88858
 30
0
 11
153.5
 21
-11.5204
 31
0
  0
LINE
  5
A45
330
A02
100
AcDbEntity
  8
Body001
100
AcDbLine
 10
153.5
 20
-11.5204
 30
0
 11
147.868
 21
-24.1189
 31
0
  0
LINE
  5
A46
330
A02
100
AcDbEntity
  8
Body001
100
AcDbLine
 10
88.35
 20
-6.9
 30
0
 11
88.35
 21
6.9
 31
0
  0
LINE
  5
A47
330
A02
100
AcDbEntity
  8
Body001
100
AcDbLine
 10
102.15
 20
-6.9
 30
0
 11
88.35
 21
-6.9
 31
0
  0
LINE
  5
A48
330
A02
100
AcDbEntity
  8
Body001
100
AcDbLine
 10
88.35
 20
6.9
 30
0
 11
102.15
 21
6.9
 31
0
  0
LINE
  5
A49
330
A02
100
AcDbEntity
  8
Body001
100
AcDbLine
 10
102.15
 20
6.9
 30
0
 11
102.15
 21
-6.9
 31
0
  0
LINE
  5
A4A
330
A02
100
AcDbEntity
  8
Body001
100
AcDbLine
 10
102.15
 20
25.95
 30
0
 11
102.15
 21
12.15
 31
0
  0
LINE
  5
A4B
330
A02
100
AcDbEntity
  8
Body001
100
AcDbLine
 10
88.35
 20
25.95
 30
0
 11
102.15
 21
25.95
 31
0
  0
LINE
  5
A4C
330
A02
100
AcDbEntity
  8
Body001
100
AcDbLine
 10
102.15
 20
12.15
 30
0
 11
88.35
 21
12.15
 31
0
  0
LINE
  5
A4D
330
A02
100
AcDbEntity
  8
Body001
100
AcDbLine
 10
88.35
 20
12.15
 30
0
 11
88.35
 21
25.95
 31
0
  0
LINE
  5
A4E
330
A02
100
AcDbEntity
  8
Body001
100
AcDbLine
 10
107.4
 20
7.3875
 30
0
 11
121.2
 21
7.3875
 31
0
  0
LINE
  5
A4F
330
A02
100
AcDbEntity
  8
Body001
100
AcDbLine
 10
107.4
 20
21.1875
 30
0
 11
107.4
 21
7.3875
 31
0
  0
LINE
  5
A50
330
A02
100
AcDbEntity
  8
Body001
100
AcDbLine
 10
121.2
 20
7.3875
 30
0
 11
121.2
 21
21.1875
 31
0
  0
LINE
  5
A51
330
A02
100
AcDbEntity
  8
Body001
100
AcDbLine
 10
121.2
 20
21.1875
 30
0
 11
107.4
 21
21.1875
 31
0
  0
LINE
  5
A52
330
A02
100
AcDbEntity
  8
Body001
100
AcDbLine
 10
143.044
 20
-1.09567
 30
0
 11
148.676
 21
11.5029
 31
0
  0
LINE
  5
A53
330
A02
100
AcDbEntity
  8
Body001
100
AcDbLine
 10
155.642
 20
-6.72748
 30
0
 11
143.044
 21
-1.09567
 31
0
  0
LINE
  5
A54
330
A02
100
AcDbEntity
  8
Body001
100
AcDbLine
 10
148.676
 20
11.5029
 30
0
 11
161.274
 21
5.87104
 31
0
  0
LINE
  5
A55
330
A02
100
AcDbEntity
  8
Body001
100
AcDbLine
 10
161.274
 20
5.87104
 30
0
 11
155.642
 21
-6.72748
 31
0
  0
CIRCLE
  5
A56
330
A02
100
AcDbEntity
  8
Body001
100
AcDbCircle
 10
170.521
 20
9.40487
 40
1.45
  0
LINE
  5
A57
330
A02
100
AcDbEntity
  8
Body001
100
AcDbLine
 10
126.45
 20
12.15
 30
0
 11
126.45
 21
25.95
 31
0
  0
LINE
  5
A58
330
A02
100
AcDbEntity
  8
Body001
100
AcDbLine
 10
140.25
 20
12.15
 30
0
 11
126.45
 21
12.15
 31
0
  0
LINE
  5
A59
330
A02
100
AcDbEntity
  8
Body001
100
AcDbLine
 10
126.45
 20
25.95
 30
0
 11
140.25
 21
25.95
 31
0
  0
LINE
  5
A5A
330
A02
100
AcDbEntity
  8
Body001
100
AcDbLine
 10
140.25
 20
25.95
 30
0
 11
140.25
 21
12.15
 31
0
  0
LINE
  5
A5B
330
A02
100
AcDbEntity
  8
Body001
100
AcDbLine
 10
7.3875
 20
40.725
 30
0
 11
7.3875
 21
54.525
 31
0
  0
LINE
  5
A5C
330
A02
100
AcDbEntity
  8
Body001
100
AcDbLine
 10
21.1875
 20
40.725
 30
0
 11
7.3875
 21
40.725
 31
0
  0
LINE
  5
A5D
330
A02
100
AcDbEntity
  8
Body001
100
AcDbLine
 10
21.1875
 20
54.525
 30
0
 11
21.1875
 21
40.725
 31
0
  0
LINE
  5
A5E
330
A02
100
AcDbEntity
  8
Body001
100
AcDbLine
 10
7.3875
 20
54.525
 30
0
 11
21.1875
 21
54.525
 31
0
  0
LINE
  5
A5F
330
A02
100
AcDbEntity
  8
Body001
100
AcDbLine
 10
45
 20
54.525
 30
0
 11
31.2
 21
54.525
 31
0
  0
LINE
  5
A60
330
A02
100
AcDbEntity
  8
Body001
100
AcDbLine
 10
45
 20
40.725
 30
0
 11
45
 21
54.525
 31
0
  0
LINE
  5
A61
330
A02
100
AcDbEntity
  8
Body001
100
AcDbLine
 10
31.2
 20
54.525
 30
0
 11
31.2
 21
40.725
 31
0
  0
LINE
  5
A62
330
A02
100
AcDbEntity
  8
Body001
100
AcDbLine
 10
31.2
 20
40.725
 30
0
 11
45
 21
40.725
 31
0
  0
LINE
  5
A63
330
A02
100
AcDbEntity
  8
Body001
100
AcDbLine
 10
64.05
 20
45
 30
0
 11
64.05
 21
31.2
 31
0
  0
LINE
  5
A64
330
A02
100
AcDbEntity
  8
Body001
100
AcDbLine
 10
50.25
 20
45
 30
0
 11
64.05
 21
45
 31
0
  0
LINE
  5
A65
330
A02
100
AcDbEntity
  8
Body001
100
AcDbLine
 10
64.05
 20
31.2
 30
0
 11
50.25
 21
31.2
 31
0
  0
LINE
  5
A66
330
A02
100
AcDbEntity
  8
Body001
100
AcDbLine
 10
50.25
 20
31.2
 30
0
 11
50.25
 21
45
 31
0
  0
LINE
  5
A67
330
A02
100
AcDbEntity
  8
Body001
100
AcDbLine
 10
83.1
 20
49.7625
 30
0
 11
69.3
 21
49.7625
 31
0
  0
LINE
  5
A68
330
A02
100
AcDbEntity
  8
Body001
100
AcDbLine
 10
83.1
 20
35.9625
 30
0
 11
83.1
 21
49.7625
 31
0
  0
LINE
  5
A69
330
A02
100
AcDbEntity
  8
Body001
100
AcDbLine
 10
69.3
 20
49.7625
 30
0
 11
69.3
 21
35.9625
 31
0
  0
LINE
  5
A6A
330
A02
100
AcDbEntity
  8
Body001
100
AcDbLine
 10
69.3
 20
35.9625
 30
0
 11
83.1
 21
35.9625
 31
0
  0
LINE
  5
A6B
330
A02
100
AcDbEntity
  8
Body001
100
AcDbLine
 10
64.05
 20
64.05
 30
0
 11
64.05
 21
50.25
 31
0
  0
LINE
  5
A6C
330
A02
100
AcDbEntity
  8
Body001
100
AcDbLine
 10
50.25
 20
64.05
 30
0
 11
64.05
 21
64.05
 31
0
  0
LINE
  5
A6D
330
A02
100
AcDbEntity
  8
Body001
100
AcDbLine
 10
64.05
 20
50.25
 30
0
 11
50.25
 21
50.25
 31
0
  0
LINE
  5
A6E
330
A02
100
AcDbEntity
  8
Body001
100
AcDbLine
 10
50.25
 20
50.25
 30
0
 11
50.25
 21
64.05
 31
0
  0
LINE
  5
A6F
330
A02
100
AcDbEntity
  8
Body001
100
AcDbLine
 10
7.3875
 20
59.775
 30
0
 11
7.3875
 21
73.575
 31
0
  0
LINE
  5
A70
330
A02
100
AcDbEntity
  8
Body001
100
AcDbLine
 10
21.1875
 20
59.775
 30
0
 11
7.3875
 21
59.775
 31
0
  0
LINE
  5
A71
330
A02
100
AcDbEntity
  8
Body001
100
AcDbLine
 10
21.1875
 20
73.575
 30
0
 11
21.1875
 21
59.775
 31
0
  0
LINE
  5
A72
330
A02
100
AcDbEntity
  8
Body001
100
AcDbLine
 10
7.3875
 20
73.575
 30
0
 11
21.1875
 21
73.575
 31
0
  0
LINE
  5
A73
330
A02
100
AcDbEntity
  8
Body001
100
AcDbLine
 10
31.2
 20
59.775
 30
0
 11
31.2
 21
73.575
 31
0
  0
LINE
  5
A74
330
A02
100
AcDbEntity
  8
Body001
100
AcDbLine
 10
45
 20
59.775
 30
0
 11
31.2
 21
59.775
 31
0
  0
LINE
  5
A75
330
A02
100
AcDbEntity
  8
Body001
100
AcDbLine
 10
31.2
 20
73.575
 30
0
 11
45
 21
73.575
 31
0
  0
LINE
  5
A76
330
A02
100
AcDbEntity
  8
Body001
100
AcDbLine
 10
45
 20
73.575
 30
0
 11
45
 21
59.775
 31
0
  0
CIRCLE
  5
A77
330
A02
100
AcDbEntity
  8
Body001
100
AcDbCircle
 10
-4.375
 20
80.575
 40
1.45
  0
LINE
  5
A78
330
A02
100
AcDbEntity
  8
Body001
100
AcDbLine
 10
64.05
 20
83.1
 30
0
 11
64.05
 21
69.3
 31
0
  0
LINE
  5
A79
330
A02
100
AcDbEntity
  8
Body001
100
AcDbLine
 10
50.25
 20
83.1
 30
0
 11
64.05
 21
83.1
 31
0
  0
LINE
  5
A7A
330
A02
100
AcDbEntity
  8
Body001
100
AcDbLine
 10
64.05
 20
69.3
 30
0
 11
50.25
 21
69.3
 31
0
  0
LINE
  5
A7B
330
A02
100
AcDbEntity
  8
Body001
100
AcDbLine
 10
50.25
 20
69.3
 30
0
 11
50.25
 21
83.1
 31
0
  0
LINE
  5
A7C
330
A02
100
AcDbEntity
  8
Body001
100
AcDbLine
 10
69.3
 20
55.0125
 30
0
 11
69.3
 21
68.8125
 31
0
  0
LINE
  5
A7D
330
A02
100
AcDbEntity
  8
Body001
100
AcDbLine
 10
83.1
 20
55.0125
 30
0
 11
69.3
 21
55.0125
 31
0
  0
LINE
  5
A7E
330
A02
100
AcDbEntity
  8
Body001
100
AcDbLine
 10
69.3
 20
68.8125
 30
0
 11
83.1
 21
68.8125
 31
0
  0
LINE
  5
A7F
330
A02
100
AcDbEntity
  8
Body001
100
AcDbLine
 10
83.1
 20
68.8125
 30
0
 11
83.1
 21
55.0125
 31
0
  0
CIRCLE
  5
A80
330
A02
100
AcDbEntity
  8
Body001
100
AcDbCircle
 10
57.15
 20
92.085
 40
1.45
  0
LINE
  5
A81
330
A02
100
AcDbEntity
  8
Body001
100
AcDbLine
 10
69.3
 20
74.0625
 30
0
 11
69.3
 21
87.8625
 31
0
  0
LINE
  5
A82
330
A02
100
AcDbEntity
  8
Body001
100
AcDbLine
 10
83.1
 20
74.0625
 30
0
 11
69.3
 21
74.0625
 31
0
  0
LINE
  5
A83
330
A02
100
AcDbEntity
  8
Body001
100
AcDbLine
 10
69.3
 20
87.8625
 30
0
 11
83.1
 21
87.8625
 31
0
  0
LINE
  5
A84
330
A02
100
AcDbEntity
  8
Body001
100
AcDbLine
 10
83.1
 20
87.8625
 30
0
 11
83.1
 21
74.0625
 31
0
  0
LINE
  5
A85
330
A02
100
AcDbEntity
  8
Body001
100
AcDbLine
 10
102.15
 20
45
 30
0
 11
102.15
 21
31.2
 31
0
  0
LINE
  5
A86
330
A02
100
AcDbEntity
  8
Body001
100
AcDbLine
 10
88.35
 20
45
 30
0
 11
102.15
 21
45
 31
0
  0
LINE
  5
A87
330
A02
100
AcDbEntity
  8
Body001
100
AcDbLine
 10
102.15
 20
31.2
 30
0
 11
88.35
 21
31.2
 31
0
  0
LINE
  5
A88
330
A02
100
AcDbEntity
  8
Body001
100
AcDbLine
 10
88.35
 20
31.2
 30
0
 11
88.35
 21
45
 31
0
  0
LINE
  5
A89
330
A02
100
AcDbEntity
  8
Body001
100
AcDbLine
 10
121.2
 20
40.2375
 30
0
 11
121.2
 21
26.4375
 31
0
  0
LINE
  5
A8A
330
A02
100
AcDbEntity
  8
Body001
100
AcDbLine
 10
107.4
 20
40.2375
 30
0
 11
121.2
 21
40.2375
 31
0
  0
LINE
  5
A8B
330
A02
100
AcDbEntity
  8
Body001
100
AcDbLine
 10
121.2
 20
26.4375
 30
0
 11
107.4
 21
26.4375
 31
0
  0
LINE
  5
A8C
330
A02
100
AcDbEntity
  8
Body001
100
AcDbLine
 10
107.4
 20
26.4375
 30
0
 11
107.4
 21
40.2375
 31
0
  0
LINE
  5
A8D
330
A02
100
AcDbEntity
  8
Body001
100
AcDbLine
 10
88.35
 20
50.25
 30
0
 11
102.15
 21
50.25
 31
0
  0
LINE
  5
A8E
330
A02
100
AcDbEntity
  8
Body001
100
AcDbLine
 10
88.35
 20
64.05
 30
0
 11
88.35
 21
50.25
 31
0
  0
LINE
  5
A8F
330
A02
100
AcDbEntity
  8
Body001
100
AcDbLine
 10
102.15
 20
50.25
 30
0
 11
102.15
 21
64.05
 31
0
  0
LINE
  5
A90
330
A02
100
AcDbEntity
  8
Body001
100
AcDbLine
 10
102.15
 20
64.05
 30
0
 11
88.35
 21
64.05
 31
0
  0
LINE
  5
A91
330
A02
100
AcDbEntity
  8
Body001
100
AcDbLine
 10
107.4
 20
45.4875
 30
0
 11
121.2
 21
45.4875
 31
0
  0
LINE
  5
A92
330
A02
100
AcDbEntity
  8
Body001
100
AcDbLine
 10
107.4
 20
59.2875
 30
0
 11
107.4
 21
45.4875
 31
0
  0
LINE
  5
A93
330
A02
100
AcDbEntity
  8
Body001
100
AcDbLine
 10
121.2
 20
45.4875
 30
0
 11
121.2
 21
59.2875
 31
0
  0
LINE
  5
A94
330
A02
100
AcDbEntity
  8
Body001
100
AcDbLine
 10
121.2
 20
59.2875
 30
0
 11
107.4
 21
59.2875
 31
0
  0
LINE
  5
A95
330
A02
100
AcDbEntity
  8
Body001
100
AcDbLine
 10
126.45
 20
40.725
 30
0
 11
126.45
 21
54.525
 31
0
  0
LINE
  5
A96
330
A02
100
AcDbEntity
  8
Body001
100
AcDbLine
 10
140.25
 20
40.725
 30
0
 11
126.45
 21
40.725
 31
0
  0
LINE
  5
A97
330
A02
100
AcDbEntity
  8
Body001
100
AcDbLine
 10
126.45
 20
54.525
 30
0
 11
140.25
 21
54.525
 31
0
  0
LINE
  5
A98
330
A02
100
AcDbEntity
  8
Body001
100
AcDbLine
 10
140.25
 20
54.525
 30
0
 11
140.25
 21
40.725
 31
0
  0
LINE
  5
A99
330
A02
100
AcDbEntity
  8
Body001
100
AcDbLine
 10
102.15
 20
83.1
 30
0
 11
102.15
 21
69.3
 31
0
  0
LINE
  5
A9A
330
A02
100
AcDbEntity
  8
Body001
100
AcDbLine
 10
88.35
 20
83.1
 30
0
 11
102.15
 21
83.1
 31
0
  0
LINE
  5
A9B
330
A02
100
AcDbEntity
  8
Body001
100
AcDbLine
 10
102.15
 20
69.3
 30
0
 11
88.35
 21
69.3
 31
0
  0
LINE
  5
A9C
330
A02
100
AcDbEntity
  8
Body001
100
AcDbLine
 10
88.35
 20
69.3
 30
0
 11
88.35
 21
83.1
 31
0
  0
LINE
  5
A9D
330
A02
100
AcDbEntity
  8
Body001
100
AcDbLine
 10
107.4
 20
64.5375
 30
0
 11
121.2
 21
64.5375
 31
0
  0
LINE
  5
A9E
330
A02
100
AcDbEntity
  8
Body001
100
AcDbLine
 10
107.4
 20
78.3375
 30
0
 11
107.4
 21
64.5375
 31
0
  0
LINE
  5
A9F
330
A02
100
AcDbEntity
  8
Body001
100
AcDbLine
 10
121.2
 20
64.5375
 30
0
 11
121.2
 21
78.3375
 31
0
  0
LINE
  5
AA0
330
A02
100
AcDbEntity
  8
Body001
100
AcDbLine
 10
121.2
 20
78.3375
 30
0
 11
107.4
 21
78.3375
 31
0
  0
CIRCLE
  5
AA1
330
A02
100
AcDbEntity
  8
Body001
100
AcDbCircle
 10
95.25
 20
92.085
 40
1.45
  0
LINE
  5
AA2
330
A02
100
AcDbEntity
  8
Body001
100
AcDbLine
 10
126.45
 20
64.5375
 30
0
 11
126.45
 21
78.3375
 31
0
  0
LINE
  5
AA3
330
A02
100
AcDbEntity
  8
Body001
100
AcDbLine
 10
140.25
 20
64.5375
 30
0
 11
126.45
 21
64.5375
 31
0
  0
LINE
  5
AA4
330
A02
100
AcDbEntity
  8
Body001
100
AcDbLine
 10
126.45
 20
78.3375
 30
0
 11
140.25
 21
78.3375
 31
0
  0
LINE
  5
AA5
330
A02
100
AcDbEntity
  8
Body001
100
AcDbLine
 10
140.25
 20
78.3375
 30
0
 11
140.25
 21
64.5375
 31
0
  0
CIRCLE
  5
AA6
330
A02
100
AcDbEntity
  8
Body001
100
AcDbCircle
 10
147.25
 20
74.3375
 40
0.15
  0
CIRCLE
  5
AA7
330
A02
100
AcDbEntity
  8
Body001
100
AcDbCircle
 10
134.25
 20
85.3375
 40
0.15
  0
CIRCLE
  5
AA8
330
A02
100
AcDbEntity
  8
Body001
100
AcDbCircle
 10
147.25
 20
85.3375
 40
1.45
  0
SPLINE
  5
AA9
330
A02
100
AcDbEntity
  8
Body001
100
AcDbSpline
210
0
220
0
230
1
 70
8
 71
3
 72
11
 73
7
 74
0
 40
0
 40
0
 40
0
 40
0
 40
0.499992
 40
0.499992
 40
0.499992
 40
1
 40
1
 40
1
 40
1
 10
149.382
 20
88.9659
 30
0
 10
149.748
 20
88.968
 30
0
 10
150.153
 20
88.8147
 30
0
 10
150.438
 20
88.5242
 30
0
 10
150.727
 20
88.2381
 30
0
 10
150.879
 20
87.8318
 30
0
 10
150.875
 20
87.466
 30
0
  0
SPLINE
  5
AAA
330
A02
100
AcDbEntity
  8
Body001
100
AcDbSpline
210
0
220
0
230
1
 70
8
 71
1
 72
4
 73
2
 74
0
 40
-2.4e-14
 40
-2.4e-14
 40
3
 40
3
 10
149.382
 20
88.9659
 30
1.19904e-14
 10
149.382
 20
88.9659
 30
3
  0
SPLINE
  5
AAB
330
A02
100
AcDbEntity
  8
Body001
100
AcDbSpline
210
0
220
0
230
1
 70
8
 71
1
 72
4
 73
2
 74
0
 40
-1.3e-14
 40
-1.3e-14
 40
3
 40
3
 10
150.875
 20
87.466
 30
0
 10
150.875
 20
87.466
 30
3
  0
SPLINE
  5
AAC
330
A02
100
AcDbEntity
  8
Body001
100
AcDbSpline
210
0
220
0
230
1
 70
8
 71
3
 72
11
 73
7
 74
0
 40
0
 40
0
 40
0
 40
0
 40
0.499992
 40
0.499992
 40
0.499992
 40
1
 40
1
 40
1
 40
1
 10
149.382
 20
88.9659
 30
3
 10
149.748
 20
88.968
 30
3
 10
150.153
 20
88.8147
 30
3
 10
150.438
 20
88.5242
 30
3
 10
150.727
 20
88.2381
 30
3
 10
150.879
 20
87.8318
 30
3
 10
150.875
 20
87.466
 30
3
  0
LINE
  5
AAD
330
A02
100
AcDbEntity
  8
Body001
100
AcDbLine
 10
85.725
 20
98.4875
 30
0
 11
85.725
 21
98.4875
 31
3
  0
LINE
  5
AAE
330
A02
100
AcDbEntity
  8
Body001
100
AcDbLine
 10
66.675
 20
98.4875
 30
0
 11
66.675
 21
98.4875
 31
3
  0
LINE
  5
AAF
330
A02
100
AcDbEntity
  8
Body001
100
AcDbLine
 10
85.725
 20
98.4875
 30
0
 11
66.675
 21
98.4875
 31
0
  0
LINE
  5
AB0
330
A02
100
AcDbEntity
  8
Body001
100
AcDbLine
 10
85.725
 20
98.4875
 30
3
 11
66.675
 21
98.4875
 31
3
  0
SPLINE
  5
AB1
330
A02
100
AcDbEntity
  8
Body001
100
AcDbSpline
210
0
220
0
230
1
 70
8
 71
3
 72
8
 73
4
 74
0
 40
0
 40
0
 40
0
 40
0
 40
0.989085
 40
0.989085
 40
0.989085
 40
0.989085
 10
85.725
 20
98.4875
 30
3
 10
104.567
 20
98.4875
 30
3
 10
104.773
 20
89.1693
 30
3
 10
149.382
 20
88.9659
 30
3
  0
SPLINE
  5
AB2
330
A02
100
AcDbEntity
  8
Body001
100
AcDbSpline
210
0
220
0
230
1
 70
8
 71
3
 72
11
 73
7
 74
0
 40
0
 40
0
 40
0
 40
0
 40
0.499992
 40
0.499992
 40
0.499992
 40
1
 40
1
 40
1
 40
1
 10
149.382
 20
88.9659
 30
3
 10
149.748
 20
88.968
 30
3
 10
150.153
 20
88.8147
 30
3
 10
150.438
 20
88.5242
 30
3
 10
150.727
 20
88.2381
 30
3
 10
150.879
 20
87.8318
 30
3
 10
150.875
 20
87.466
 30
3
  0
LINE
  5
AB3
330
A02
100
AcDbEntity
  8
Body001
100
AcDbLine
 10
85.725
 20
98.4875
 30
3
 11
66.675
 21
98.4875
 31
3
  0
SPLINE
  5
AB4
330
A02
100
AcDbEntity
  8
Body001
100
AcDbSpline
210
0
220
0
230
1
 70
8
 71
3
 72
8
 73
4
 74
0
 40
0.0108859
 40
0.0108859
 40
0.0108859
 40
0.0108859
 40
0.981589
 40
0.981589
 40
0.981589
 40
0.981589
 10
150.875
 20
87.466
 30
3
 10
150.878
 20
43.2515
 30
3
 10
151.131
 20
22.8061
 30
3
 10
173.985
 20
11.8483
 30
3
  0
SPLINE
  5
AB5
330
A02
100
AcDbEntity
  8
Body001
100
AcDbSpline
210
0
220
0
230
1
 70
8
 71
3
 72
8
 73
4
 74
0
 40
0.0105421
 40
0.0105421
 40
0.0105421
 40
0.0105421
 40
1
 40
1
 40
1
 40
1
 10
-6.50959
 20
84.2047
 30
3
 10
39.628
 20
84.4997
 30
3
 10
39.9102
 20
98.4875
 30
3
 10
66.675
 20
98.4875
 30
3
  0
SPLINE
  5
AB6
330
A02
100
AcDbEntity
  8
Body001
100
AcDbSpline
210
0
220
0
230
1
 70
8
 71
3
 72
11
 73
7
 74
0
 40
0
 40
0
 40
0
 40
0
 40
0.499993
 40
0.499993
 40
0.499993
 40
1
 40
1
 40
1
 40
1
 10
173.985
 20
11.8483
 30
3
 10
174.312
 20
11.6954
 30
3
 10
174.61
 20
11.3896
 30
3
 10
174.745
 20
11.0124
 30
3
 10
174.886
 20
10.6372
 30
3
 10
174.857
 20
10.2118
 30
3
 10
174.706
 20
9.88355
 30
3
  0
SPLINE
  5
AB7
330
A02
100
AcDbEntity
  8
Body001
100
AcDbSpline
210
0
220
0
230
1
 70
8
 71
3
 72
11
 73
7
 74
0
 40
0
 40
0
 40
0
 40
0
 40
0.500008
 40
0.500008
 40
0.500008
 40
1
 40
1
 40
1
 40
1
 10
-6.50959
 20
84.2047
 30
3
 10
-6.87505
 20
84.2062
 30
3
 10
-7.27989
 20
84.0525
 30
3
 10
-7.56404
 20
83.762
 30
3
 10
-7.85268
 20
83.476
 30
3
 10
-8.00382
 20
83.0702
 30
3
 10
-8
 20
82.7048
 30
3
  0
LINE
  5
AB8
330
A02
100
AcDbEntity
  8
Body001
100
AcDbLine
 10
153.842
 20
-36.7889
 30
3
 11
174.706
 21
9.88355
 31
3
  0
LINE
  5
AB9
330
A02
100
AcDbEntity
  8
Body001
100
AcDbLine
 10
-8
 20
82.7048
 30
3
 11
-8
 21
-6.50005
 31
3
  0
SPLINE
  5
ABA
330
A02
100
AcDbEntity
  8
Body001
100
AcDbSpline
210
0
220
0
230
1
 70
8
 71
3
 72
11
 73
7
 74
0
 40
0
 40
0
 40
0
 40
0
 40
0.499992
 40
0.499992
 40
0.499992
 40
1
 40
1
 40
1
 40
1
 10
153.842
 20
-36.7889
 30
3
 10
153.697
 20
-37.1244
 30
3
 10
153.393
 20
-37.4334
 30
3
 10
153.012
 20
-37.5766
 30
3
 10
152.634
 20
-37.7257
 30
3
 10
152.201
 20
-37.7003
 30
3
 10
151.868
 20
-37.5492
 30
3
  0
SPLINE
  5
ABB
330
A02
100
AcDbEntity
  8
Body001
100
AcDbSpline
210
0
220
0
230
1
 70
8
 71
3
 72
11
 73
7
 74
0
 40
0
 40
0
 40
0
 40
0
 40
0.500008
 40
0.500008
 40
0.500008
 40
1
 40
1
 40
1
 40
1
 10
-8
 20
-6.50005
 30
3
 10
-8.00387
 20
-6.86683
 30
3
 10
-7.85149
 20
-7.27437
 30
3
 10
-7.56072
 20
-7.56066
 30
3
 10
-7.27446
 20
-7.85147
 30
3
 10
-6.86689
 20
-8.00389
 30
3
 10
-6.50016
 20
-8.00005
 30
3
  0
SPLINE
  5
ABC
330
A02
100
AcDbEntity
  8
Body001
100
AcDbSpline
210
0
220
0
230
1
 70
8
 71
3
 72
8
 73
4
 74
0
 40
0.00988508
 40
0.00988508
 40
0.00988508
 40
0.00988508
 40
0.987578
 40
0.987578
 40
0.987578
 40
0.987578
 10
151.868
 20
-37.5492
 30
3
 10
107.041
 20
-17.7762
 30
3
 10
76.6094
 20
-17.5282
 30
3
 10
40.9854
 20
-17.525
 30
3
  0
SPLINE
  5
ABD
330
A02
100
AcDbEntity
  8
Body001
100
AcDbSpline
210
0
220
0
230
1
 70
8
 71
3
 72
8
 73
4
 74
0
 40
0.0445047
 40
0.0445047
 40
0.0445047
 40
0.0445047
 40
0.9824
 40
0.9824
 40
0.9824
 40
0.9824
 10
39.5126
 20
-16.309
 30
3
 10
37.94
 20
-8.15305
 30
3
 10
19.983
 20
-8.00282
 30
3
 10
-6.50016
 20
-8.00005
 30
3
  0
SPLINE
  5
ABE
330
A02
100
AcDbEntity
  8
Body001
100
AcDbSpline
210
0
220
0
230
1
 70
8
 71
3
 72
11
 73
7
 74
0
 40
0
 40
0
 40
0
 40
0
 40
0.5
 40
0.5
 40
0.5
 40
1
 40
1
 40
1
 40
1
 10
39.5126
 20
-16.309
 30
3
 10
39.572
 20
-16.6296
 30
3
 10
39.7546
 20
-16.9566
 30
3
 10
40.0305
 20
-17.1817
 30
3
 10
40.3037
 20
-17.41
 30
3
 10
40.6594
 20
-17.5274
 30
3
 10
40.9854
 20
-17.525
 30
3
  0
CIRCLE
  5
ABF
330
A02
100
AcDbEntity
  8
Body001
100
AcDbCircle
 10
-4.375
 20
-4.375
 40
1.45
  0
CIRCLE
  5
AC0
330
A02
100
AcDbEntity
  8
Body001
100
AcDbCircle
 10
43.25
 20
-13.9
 40
1.45
  0
LINE
  5
AC1
330
A02
100
AcDbEntity
  8
Body001
100
AcDbLine
 10
7.3875
 20
2.625
 30
3
 11
7.3875
 21
16.425
 31
3
  0
LINE
  5
AC2
330
A02
100
AcDbEntity
  8
Body001
100
AcDbLine
 10
21.1875
 20
2.625
 30
3
 11
7.3875
 21
2.625
 31
3
  0
LINE
  5
AC3
330
A02
100
AcDbEntity
  8
Body001
100
AcDbLine
 10
21.1875
 20
16.425
 30
3
 11
21.1875
 21
2.625
 31
3
  0
LINE
  5
AC4
330
A02
100
AcDbEntity
  8
Body001
100
AcDbLine
 10
7.3875
 20
16.425
 30
3
 11
21.1875
 21
16.425
 31
3
  0
LINE
  5
AC5
330
A02
100
AcDbEntity
  8
Body001
100
AcDbLine
 10
45
 20
16.425
 30
3
 11
31.2
 21
16.425
 31
3
  0
LINE
  5
AC6
330
A02
100
AcDbEntity
  8
Body001
100
AcDbLine
 10
45
 20
2.625
 30
3
 11
45
 21
16.425
 31
3
  0
LINE
  5
AC7
330
A02
100
AcDbEntity
  8
Body001
100
AcDbLine
 10
31.2
 20
16.425
 30
3
 11
31.2
 21
2.625
 31
3
  0
LINE
  5
AC8
330
A02
100
AcDbEntity
  8
Body001
100
AcDbLine
 10
31.2
 20
2.625
 30
3
 11
45
 21
2.625
 31
3
  0
LINE
  5
AC9
330
A02
100
AcDbEntity
  8
Body001
100
AcDbLine
 10
7.3875
 20
21.675
 30
3
 11
7.3875
 21
35.475
 31
3
  0
LINE
  5
ACA
330
A02
100
AcDbEntity
  8
Body001
100
AcDbLine
 10
21.1875
 20
21.675
 30
3
 11
7.3875
 21
21.675
 31
3
  0
LINE
  5
ACB
330
A02
100
AcDbEntity
  8
Body001
100
AcDbLine
 10
21.1875
 20
35.475
 30
3
 11
21.1875
 21
21.675
 31
3
  0
LINE
  5
ACC
330
A02
100
AcDbEntity
  8
Body001
100
AcDbLine
 10
7.3875
 20
35.475
 30
3
 11
21.1875
 21
35.475
 31
3
  0
LINE
  5
ACD
330
A02
100
AcDbEntity
  8
Body001
100
AcDbLine
 10
31.2
 20
21.675
 30
3
 11
31.2
 21
35.475
 31
3
  0
LINE
  5
ACE
330
A02
100
AcDbEntity
  8
Body001
100
AcDbLine
 10
45
 20
21.675
 30
3
 11
31.2
 21
21.675
 31
3
  0
LINE
  5
ACF
330
A02
100
AcDbEntity
  8
Body001
100
AcDbLine
 10
31.2
 20
35.475
 30
3
 11
45
 21
35.475
 31
3
  0
LINE
  5
AD0
330
A02
100
AcDbEntity
  8
Body001
100
AcDbLine
 10
45
 20
35.475
 30
3
 11
45
 21
21.675
 31
3
  0
LINE
  5
AD1
330
A02
100
AcDbEntity
  8
Body001
100
AcDbLine
 10
50.25
 20
-6.9
 30
3
 11
64.05
 21
-6.9
 31
3
  0
LINE
  5
AD2
330
A02
100
AcDbEntity
  8
Body001
100
AcDbLine
 10
50.25
 20
6.9
 30
3
 11
50.25
 21
-6.9
 31
3
  0
LINE
  5
AD3
330
A02
100
AcDbEntity
  8
Body001
100
AcDbLine
 10
64.05
 20
-6.9
 30
3
 11
64.05
 21
6.9
 31
3
  0
LINE
  5
AD4
330
A02
100
AcDbEntity
  8
Body001
100
AcDbLine
 10
64.05
 20
6.9
 30
3
 11
50.25
 21
6.9
 31
3
  0
LINE
  5
AD5
330
A02
100
AcDbEntity
  8
Body001
100
AcDbLine
 10
69.3
 20
-2.1375
 30
3
 11
69.3
 21
11.6625
 31
3
  0
LINE
  5
AD6
330
A02
100
AcDbEntity
  8
Body001
100
AcDbLine
 10
83.1
 20
-2.1375
 30
3
 11
69.3
 21
-2.1375
 31
3
  0
LINE
  5
AD7
330
A02
100
AcDbEntity
  8
Body001
100
AcDbLine
 10
69.3
 20
11.6625
 30
3
 11
83.1
 21
11.6625
 31
3
  0
LINE
  5
AD8
330
A02
100
AcDbEntity
  8
Body001
100
AcDbLine
 10
83.1
 20
11.6625
 30
3
 11
83.1
 21
-2.1375
 31
3
  0
LINE
  5
AD9
330
A02
100
AcDbEntity
  8
Body001
100
AcDbLine
 10
64.05
 20
25.95
 30
3
 11
64.05
 21
12.15
 31
3
  0
LINE
  5
ADA
330
A02
100
AcDbEntity
  8
Body001
100
AcDbLine
 10
50.25
 20
25.95
 30
3
 11
64.05
 21
25.95
 31
3
  0
LINE
  5
ADB
330
A02
100
AcDbEntity
  8
Body001
100
AcDbLine
 10
64.05
 20
12.15
 30
3
 11
50.25
 21
12.15
 31
3
  0
LINE
  5
ADC
330
A02
100
AcDbEntity
  8
Body001
100
AcDbLine
 10
50.25
 20
12.15
 30
3
 11
50.25
 21
25.95
 31
3
  0
LINE
  5
ADD
330
A02
100
AcDbEntity
  8
Body001
100
AcDbLine
 10
69.3
 20
16.9125
 30
3
 11
69.3
 21
30.7125
 31
3
  0
LINE
  5
ADE
330
A02
100
AcDbEntity
  8
Body001
100
AcDbLine
 10
83.1
 20
16.9125
 30
3
 11
69.3
 21
16.9125
 31
3
  0
LINE
  5
ADF
330
A02
100
AcDbEntity
  8
Body001
100
AcDbLine
 10
69.3
 20
30.7125
 30
3
 11
83.1
 21
30.7125
 31
3
  0
LINE
  5
AE0
330
A02
100
AcDbEntity
  8
Body001
100
AcDbLine
 10
83.1
 20
30.7125
 30
3
 11
83.1
 21
16.9125
 31
3
  0
CIRCLE
  5
AE1
330
A02
100
AcDbEntity
  8
Body001
100
AcDbCircle
 10
95.25
 20
-13.9
 40
1.45
  0
LINE
  5
AE2
330
A02
100
AcDbEntity
  8
Body001
100
AcDbLine
 10
111.623
 20
-12.8395
 30
3
 11
114.492
 21
0.658915
 31
3
  0
LINE
  5
AE3
330
A02
100
AcDbEntity
  8
Body001
100
AcDbLine
 10
125.121
 20
-15.7087
 30
3
 11
111.623
 21
-12.8395
 31
3
  0
LINE
  5
AE4
330
A02
100
AcDbEntity
  8
Body001
100
AcDbLine
 10
114.492
 20
0.658915
 30
3
 11
127.991
 21
-2.21027
 31
3
  0
LINE
  5
AE5
330
A02
100
AcDbEntity
  8
Body001
100
AcDbLine
 10
127.991
 20
-2.21027
 30
3
 11
125.121
 21
-15.7087
 31
3
  0
CIRCLE
  5
AE6
330
A02
100
AcDbEntity
  8
Body001
100
AcDbCircle
 10
151.402
 20
-33.3662
 40
1.45
  0
LINE
  5
AE7
330
A02
100
AcDbEntity
  8
Body001
100
AcDbLine
 10
135.269
 20
-18.4871
 30
3
 11
140.901
 21
-5.88858
 31
3
  0
LINE
  5
AE8
330
A02
100
AcDbEntity
  8
Body001
100
AcDbLine
 10
147.868
 20
-24.1189
 30
3
 11
135.269
 21
-18.4871
 31
3
  0
LINE
  5
AE9
330
A02
100
AcDbEntity
  8
Body001
100
AcDbLine
 10
140.901
 20
-5.88858
 30
3
 11
153.5
 21
-11.5204
 31
3
  0
LINE
  5
AEA
330
A02
100
AcDbEntity
  8
Body001
100
AcDbLine
 10
153.5
 20
-11.5204
 30
3
 11
147.868
 21
-24.1189
 31
3
  0
LINE
  5
AEB
330
A02
100
AcDbEntity
  8
Body001
100
AcDbLine
 10
88.35
 20
-6.9
 30
3
 11
88.35
 21
6.9
 31
3
  0
LINE
  5
AEC
330
A02
100
AcDbEntity
  8
Body001
100
AcDbLine
 10
102.15
 20
-6.9
 30
3
 11
88.35
 21
-6.9
 31
3
  0
LINE
  5
AED
330
A02
100
AcDbEntity
  8
Body001
100
AcDbLine
 10
88.35
 20
6.9
 30
3
 11
102.15
 21
6.9
 31
3
  0
LINE
  5
AEE
330
A02
100
AcDbEntity
  8
Body001
100
AcDbLine
 10
102.15
 20
6.9
 30
3
 11
102.15
 21
-6.9
 31
3
  0
LINE
  5
AEF
330
A02
100
AcDbEntity
  8
Body001
100
AcDbLine
 10
102.15
 20
25.95
 30
3
 11
102.15
 21
12.15
 31
3
  0
LINE
  5
AF0
330
A02
100
AcDbEntity
  8
Body001
100
AcDbLine
 10
88.35
 20
25.95
 30
3
 11
102.15
 21
25.95
 31
3
  0
LINE
  5
AF1
330
A02
100
AcDbEntity
  8
Body001
100
AcDbLine
 10
102.15
 20
12.15
 30
3
 11
88.35
 21
12.15
 31
3
  0
LINE
  5
AF2
330
A02
100
AcDbEntity
  8
Body001
100
AcDbLine
 10
88.35
 20
12.15
 30
3
 11
88.35
 21
25.95
 31
3
  0
LINE
  5
AF3
330
A02
100
AcDbEntity
  8
Body001
100
AcDbLine
 10
107.4
 20
7.3875
 30
3
 11
121.2
 21
7.3875
 31
3
  0
LINE
  5
AF4
330
A02
100
AcDbEntity
  8
Body001
100
AcDbLine
 10
107.4
 20
21.1875
 30
3
 11
107.4
 21
7.3875
 31
3
  0
LINE
  5
AF5
330
A02
100
AcDbEntity
  8
Body001
100
AcDbLine
 10
121.2
 20
7.3875
 30
3
 11
121.2
 21
21.1875
 31
3
  0
LINE
  5
AF6
330
A02
100
AcDbEntity
  8
Body001
100
AcDbLine
 10
121.2
 20
21.1875
 30
3
 11
107.4
 21
21.1875
 31
3
  0
LINE
  5
AF7
330
A02
100
AcDbEntity
  8
Body001
100
AcDbLine
 10
143.044
 20
-1.09567
 30
3
 11
148.676
 21
11.5029
 31
3
  0
LINE
  5
AF8
330
A02
100
AcDbEntity
  8
Body001
100
AcDbLine
 10
155.642
 20
-6.72748
 30
3
 11
143.044
 21
-1.09567
 31
3
  0
LINE
  5
AF9
330
A02
100
AcDbEntity
  8
Body001
100
AcDbLine
 10
148.676
 20
11.5029
 30
3
 11
161.274
 21
5.87104
 31
3
  0
LINE
  5
AFA
330
A02
100
AcDbEntity
  8
Body001
100
AcDbLine
 10
161.274
 20
5.87104
 30
3
 11
155.642
 21
-6.72748
 31
3
  0
CIRCLE
  5
AFB
330
A02
100
AcDbEntity
  8
Body001
100
AcDbCircle
 10
170.521
 20
9.40487
 40
1.45
  0
LINE
  5
AFC
330
A02
100
AcDbEntity
  8
Body001
100
AcDbLine
 10
126.45
 20
12.15
 30
3
 11
126.45
 21
25.95
 31
3
  0
LINE
  5
AFD
330
A02
100
AcDbEntity
  8
Body001
100
AcDbLine
 10
140.25
 20
12.15
 30
3
 11
126.45
 21
12.15
 31
3
  0
LINE
  5
AFE
330
A02
100
AcDbEntity
  8
Body001
100
AcDbLine
 10
126.45
 20
25.95
 30
3
 11
140.25
 21
25.95
 31
3
  0
LINE
  5
AFF
330
A02
100
AcDbEntity
  8
Body001
100
AcDbLine
 10
140.25
 20
25.95
 30
3
 11
140.25
 21
12.15
 31
3
  0
LINE
  5
B00
330
A02
100
AcDbEntity
  8
Body001
100
AcDbLine
 10
7.3875
 20
40.725
 30
3
 11
7.3875
 21
54.525
 31
3
  0
LINE
  5
B01
330
A02
100
AcDbEntity
  8
Body001
100
AcDbLine
 10
21.1875
 20
40.725
 30
3
 11
7.3875
 21
40.725
 31
3
  0
LINE
  5
B02
330
A02
100
AcDbEntity
  8
Body001
100
AcDbLine
 10
21.1875
 20
54.525
 30
3
 11
21.1875
 21
40.725
 31
3
  0
LINE
  5
B03
330
A02
100
AcDbEntity
  8
Body001
100
AcDbLine
 10
7.3875
 20
54.525
 30
3
 11
21.1875
 21
54.525
 31
3
  0
LINE
  5
B04
330
A02
100
AcDbEntity
  8
Body001
100
AcDbLine
 10
45
 20
54.525
 30
3
 11
31.2
 21
54.525
 31
3
  0
LINE
  5
B05
330
A02
100
AcDbEntity
  8
Body001
100
AcDbLine
 10
45
 20
40.725
 30
3
 11
45
 21
54.525
 31
3
  0
LINE
  5
B06
330
A02
100
AcDbEntity
  8
Body001
100
AcDbLine
 10
31.2
 20
54.525
 30
3
 11
31.2
 21
40.725
 31
3
  0
LINE
  5
B07
330
A02
100
AcDbEntity
  8
Body001
100
AcDbLine
 10
31.2
 20
40.725
 30
3
 11
45
 21
40.725
 31
3
  0
LINE
  5
B08
330
A02
100
AcDbEntity
  8
Body001
100
AcDbLine
 10
64.05
 20
45
 30
3
 11
64.05
 21
31.2
 31
3
  0
LINE
  5
B09
330
A02
100
AcDbEntity
  8
Body001
100
AcDbLine
 10
50.25
 20
45
 30
3
 11
64.05
 21
45
 31
3
  0
LINE
  5
B0A
330
A02
100
AcDbEntity
  8
Body001
100
AcDbLine
 10
64.05
 20
31.2
 30
3
 11
50.25
 21
31.2
 31
3
  0
LINE
  5
B0B
330
A02
100
AcDbEntity
  8
Body001
100
AcDbLine
 10
50.25
 20
31.2
 30
3
 11
50.25
 21
45
 31
3
  0
LINE
  5
B0C
330
A02
100
AcDbEntity
  8
Body001
100
AcDbLine
 10
83.1
 20
49.7625
 30
3
 11
69.3
 21
49.7625
 31
3
  0
LINE
  5
B0D
330
A02
100
AcDbEntity
  8
Body001
100
AcDbLine
 10
83.1
 20
35.9625
 30
3
 11
83.1
 21
49.7625
 31
3
  0
LINE
  5
B0E
330
A02
100
AcDbEntity
  8
Body001
100
AcDbLine
 10
69.3
 20
49.7625
 30
3
 11
69.3
 21
35.9625
 31
3
  0
LINE
  5
B0F
330
A02
100
AcDbEntity
  8
Body001
100
AcDbLine
 10
69.3
 20
35.9625
 30
3
 11
83.1
 21
35.9625
 31
3
  0
LINE
  5
B10
330
A02
100
AcDbEntity
  8
Body001
100
AcDbLine
 10
64.05
 20
64.05
 30
3
 11
64.05
 21
50.25
 31
3
  0
LINE
  5
B11
330
A02
100
AcDbEntity
  8
Body001
100
AcDbLine
 10
50.25
 20
64.05
 30
3
 11
64.05
 21
64.05
 31
3
  0
LINE
  5
B12
330
A02
100
AcDbEntity
  8
Body001
100
AcDbLine
 10
64.05
 20
50.25
 30
3
 11
50.25
 21
50.25
 31
3
  0
LINE
  5
B13
330
A02
100
AcDbEntity
  8
Body001
100
AcDbLine
 10
50.25
 20
50.25
 30
3
 11
50.25
 21
64.05
 31
3
  0
LINE
  5
B14
330
A02
100
AcDbEntity
  8
Body001
100
AcDbLine
 10
7.3875
 20
59.775
 30
3
 11
7.3875
 21
73.575
 31
3
  0
LINE
  5
B15
330
A02
100
AcDbEntity
  8
Body001
100
AcDbLine
 10
21.1875
 20
59.775
 30
3
 11
7.3875
 21
59.775
 31
3
  0
LINE
  5
B16
330
A02
100
AcDbEntity
  8
Body001
100
AcDbLine
 10
21.1875
 20
73.575
 30
3
 11
21.1875
 21
59.775
 31
3
  0
LINE
  5
B17
330
A02
100
AcDbEntity
  8
Body001
100
AcDbLine
 10
7.3875
 20
73.575
 30
3
 11
21.1875
 21
73.575
 31
3
  0
LINE
  5
B18
330
A02
100
AcDbEntity
  8
Body001
100
AcDbLine
 10
31.2
 20
59.775
 30
3
 11
31.2
 21
73.575
 31
3
  0
LINE
  5
B19
330
A02
100
AcDbEntity
  8
Body001
100
AcDbLine
 10
45
 20
59.775
 30
3
 11
31.2
 21
59.775
 31
3
  0
LINE
  5
B1A
330
A02
100
AcDbEntity
  8
Body001
100
AcDbLine
 10
31.2
 20
73.575
 30
3
 11
45
 21
73.575
 31
3
  0
LINE
  5
B1B
330
A02
100
AcDbEntity
  8
Body001
100
AcDbLine
 10
45
 20
73.575
 30
3
 11
45
 21
59.775
 31
3
  0
CIRCLE
  5
B1C
330
A02
100
AcDbEntity
  8
Body001
100
AcDbCircle
 10
-4.375
 20
80.575
 40
1.45
  0
LINE
  5
B1D
330
A02
100
AcDbEntity
  8
Body001
100
AcDbLine
 10
64.05
 20
83.1
 30
3
 11
64.05
 21
69.3
 31
3
  0
LINE
  5
B1E
330
A02
100
AcDbEntity
  8
Body001
100
AcDbLine
 10
50.25
 20
83.1
 30
3
 11
64.05
 21
83.1
 31
3
  0
LINE
  5
B1F
330
A02
100
AcDbEntity
  8
Body001
100
AcDbLine
 10
64.05
 20
69.3
 30
3
 11
50.25
 21
69.3
 31
3
  0
LINE
  5
B20
330
A02
100
AcDbEntity
  8
Body001
100
AcDbLine
 10
50.25
 20
69.3
 30
3
 11
50.25
 21
83.1
 31
3
  0
LINE
  5
B21
330
A02
100
AcDbEntity
  8
Body001
100
AcDbLine
 10
69.3
 20
55.0125
 30
3
 11
69.3
 21
68.8125
 31
3
  0
LINE
  5
B22
330
A02
100
AcDbEntity
  8
Body001
100
AcDbLine
 10
83.1
 20
55.0125
 30
3
 11
69.3
 21
55.0125
 31
3
  0
LINE
  5
B23
330
A02
100
AcDbEntity
  8
Body001
100
AcDbLine
 10
69.3
 20
68.8125
 30
3
 11
83.1
 21
68.8125
 31
3
  0
LINE
  5
B24
330
A02
100
AcDbEntity
  8
Body001
100
AcDbLine
 10
83.1
 20
68.8125
 30
3
 11
83.1
 21
55.0125
 31
3
  0
CIRCLE
  5
B25
330
A02
100
AcDbEntity
  8
Body001
100
AcDbCircle
 10
57.15
 20
92.085
 40
1.45
  0
LINE
  5
B26
330
A02
100
AcDbEntity
  8
Body001
100
AcDbLine
 10
69.3
 20
74.0625
 30
3
 11
69.3
 21
87.8625
 31
3
  0
LINE
  5
B27
330
A02
100
AcDbEntity
  8
Body001
100
AcDbLine
 10
83.1
 20
74.0625
 30
3
 11
69.3
 21
74.0625
 31
3
  0
LINE
  5
B28
330
A02
100
AcDbEntity
  8
Body001
100
AcDbLine
 10
69.3
 20
87.8625
 30
3
 11
83.1
 21
87.8625
 31
3
  0
LINE
  5
B29
330
A02
100
AcDbEntity
  8
Body001
100
AcDbLine
 10
83.1
 20
87.8625
 30
3
 11
83.1
 21
74.0625
 31
3
  0
LINE
  5
B2A
330
A02
100
AcDbEntity
  8
Body001
100
AcDbLine
 10
102.15
 20
45
 30
3
 11
102.15
 21
31.2
 31
3
  0
LINE
  5
B2B
330
A02
100
AcDbEntity
  8
Body001
100
AcDbLine
 10
88.35
 20
45
 30
3
 11
102.15
 21
45
 31
3
  0
LINE
  5
B2C
330
A02
100
AcDbEntity
  8
Body001
100
AcDbLine
 10
102.15
 20
31.2
 30
3
 11
88.35
 21
31.2
 31
3
  0
LINE
  5
B2D
330
A02
100
AcDbEntity
  8
Body001
100
AcDbLine
 10
88.35
 20
31.2
 30
3
 11
88.35
 21
45
 31
3
  0
LINE
  5
B2E
330
A02
100
AcDbEntity
  8
Body001
100
AcDbLine
 10
121.2
 20
40.2375
 30
3
 11
121.2
 21
26.4375
 31
3
  0
LINE
  5
B2F
330
A02
100
AcDbEntity
  8
Body001
100
AcDbLine
 10
107.4
 20
40.2375
 30
3
 11
121.2
 21
40.2375
 31
3
  0
LINE
  5
B30
330
A02
100
AcDbEntity
  8
Body001
100
AcDbLine
 10
121.2
 20
26.4375
 30
3
 11
107.4
 21
26.4375
 31
3
  0
LINE
  5
B31
330
A02
100
AcDbEntity
  8
Body001
100
AcDbLine
 10
107.4
 20
26.4375
 30
3
 11
107.4
 21
40.2375
 31
3
  0
LINE
  5
B32
330
A02
100
AcDbEntity
  8
Body001
100
AcDbLine
 10
88.35
 20
50.25
 30
3
 11
102.15
 21
50.25
 31
3
  0
LINE
  5
B33
330
A02
100
AcDbEntity
  8
Body001
100
AcDbLine
 10
88.35
 20
64.05
 30
3
 11
88.35
 21
50.25
 31
3
  0
LINE
  5
B34
330
A02
100
AcDbEntity
  8
Body001
100
AcDbLine
 10
102.15
 20
50.25
 30
3
 11
102.15
 21
64.05
 31
3
  0
LINE
  5
B35
330
A02
100
AcDbEntity
  8
Body001
100
AcDbLine
 10
102.15
 20
64.05
 30
3
 11
88.35
 21
64.05
 31
3
  0
LINE
  5
B36
330
A02
100
AcDbEntity
  8
Body001
100
AcDbLine
 10
107.4
 20
45.4875
 30
3
 11
121.2
 21
45.4875
 31
3
  0
LINE
  5
B37
330
A02
100
AcDbEntity
  8
Body001
100
AcDbLine
 10
107.4
 20
59.2875
 30
3
 11
107.4
 21
45.4875
 31
3
  0
LINE
  5
B38
330
A02
100
AcDbEntity
  8
Body001
100
AcDbLine
 10
121.2
 20
45.4875
 30
3
 11
121.2
 21
59.2875
 31
3
  0
LINE
  5
B39
330
A02
100
AcDbEntity
  8
Body001
100
AcDbLine
 10
121.2
 20
59.2875
 30
3
 11
107.4
 21
59.2875
 31
3
  0
LINE
  5
B3A
330
A02
100
AcDbEntity
  8
Body001
100
AcDbLine
 10
126.45
 20
40.725
 30
3
 11
126.45
 21
54.525
 31
3
  0
LINE
  5
B3B
330
A02
100
AcDbEntity
  8
Body001
100
AcDbLine
 10
140.25
 20
40.725
 30
3
 11
126.45
 21
40.725
 31
3
  0
LINE
  5
B3C
330
A02
100
AcDbEntity
  8
Body001
100
AcDbLine
 10
126.45
 20
54.525
 30
3
 11
140.25
 21
54.525
 31
3
  0
LINE
  5
B3D
330
A02
100
AcDbEntity
  8
Body001
100
AcDbLine
 10
140.25
 20
54.525
 30
3
 11
140.25
 21
40.725
 31
3
  0
LINE
  5
B3E
330
A02
100
AcDbEntity
  8
Body001
100
AcDbLine
 10
102.15
 20
83.1
 30
3
 11
102.15
 21
69.3
 31
3
  0
LINE
  5
B3F
330
A02
100
AcDbEntity
  8
Body001
100
AcDbLine
 10
88.35
 20
83.1
 30
3
 11
102.15
 21
83.1
 31
3
  0
LINE
  5
B40
330
A02
100
AcDbEntity
  8
Body001
100
AcDbLine
 10
102.15
 20
69.3
 30
3
 11
88.35
 21
69.3
 31
3
  0
LINE
  5
B41
330
A02
100
AcDbEntity
  8
Body001
100
AcDbLine
 10
88.35
 20
69.3
 30
3
 11
88.35
 21
83.1
 31
3
  0
LINE
  5
B42
330
A02
100
AcDbEntity
  8
Body001
100
AcDbLine
 10
107.4
 20
64.5375
 30
3
 11
121.2
 21
64.5375
 31
3
  0
LINE
  5
B43
330
A02
100
AcDbEntity
  8
Body001
100
AcDbLine
 10
107.4
 20
78.3375
 30
3
 11
107.4
 21
64.5375
 31
3
  0
LINE
  5
B44
330
A02
100
AcDbEntity
  8
Body001
100
AcDbLine
 10
121.2
 20
64.5375
 30
3
 11
121.2
 21
78.3375
 31
3
  0
LINE
  5
B45
330
A02
100
AcDbEntity
  8
Body001
100
AcDbLine
 10
121.2
 20
78.3375
 30
3
 11
107.4
 21
78.3375
 31
3
  0
CIRCLE
  5
B46
330
A02
100
AcDbEntity
  8
Body001
100
AcDbCircle
 10
95.25
 20
92.085
 40
1.45
  0
LINE
  5
B47
330
A02
100
AcDbEntity
  8
Body001
100
AcDbLine
 10
126.45
 20
64.5375
 30
3
 11
126.45
 21
78.3375
 31
3
  0
LINE
  5
B48
330
A02
100
AcDbEntity
  8
Body001
100
AcDbLine
 10
140.25
 20
64.5375
 30
3
 11
126.45
 21
64.5375
 31
3
  0
LINE
  5
B49
330
A02
100
AcDbEntity
  8
Body001
100
AcDbLine
 10
126.45
 20
78.3375
 30
3
 11
140.25
 21
78.3375
 31
3
  0
LINE
  5
B4A
330
A02
100
AcDbEntity
  8
Body001
100
AcDbLine
 10
140.25
 20
78.3375
 30
3
 11
140.25
 21
64.5375
 31
3
  0
CIRCLE
  5
B4B
330
A02
100
AcDbEntity
  8
Body001
100
AcDbCircle
 10
147.25
 20
74.3375
 40
0.15
  0
CIRCLE
  5
B4C
330
A02
100
AcDbEntity
  8
Body001
100
AcDbCircle
 10
134.25
 20
85.3375
 40
0.15
  0
CIRCLE
  5
B4D
330
A02
100
AcDbEntity
  8
Body001
100
AcDbCircle
 10
147.25
 20
85.3375
 40
1.45
  0
SPLINE
  5
B4E
330
A02
100
AcDbEntity
  8
Body001
100
AcDbSpline
210
0
220
0
230
1
 70
8
 71
3
 72
8
 73
4
 74
0
 40
0.0108859
 40
0.0108859
 40
0.0108859
 40
0.0108859
 40
0.981589
 40
0.981589
 40
0.981589
 40
0.981589
 10
150.875
 20
87.466
 30
0
 10
150.878
 20
43.2515
 30
0
 10
151.131
 20
22.8061
 30
0
 10
173.985
 20
11.8483
 30
0
  0
SPLINE
  5
B4F
330
A02
100
AcDbEntity
  8
Body001
100
AcDbSpline
210
0
220
0
230
1
 70
8
 71
1
 72
4
 73
2
 74
0
 40
-1.3e-14
 40
-1.3e-14
 40
3
 40
3
 10
150.875
 20
87.466
 30
0
 10
150.875
 20
87.466
 30
3
  0
SPLINE
  5
B50
330
A02
100
AcDbEntity
  8
Body001
100
AcDbSpline
210
0
220
0
230
1
 70
8
 71
1
 72
4
 73
2
 74
0
 40
-1.4e-14
 40
-1.4e-14
 40
3
 40
3
 10
173.985
 20
11.8483
 30
-4.44089e-16
 10
173.985
 20
11.8483
 30
3
  0
SPLINE
  5
B51
330
A02
100
AcDbEntity
  8
Body001
100
AcDbSpline
210
0
220
0
230
1
 70
8
 71
3
 72
8
 73
4
 74
0
 40
0.0108859
 40
0.0108859
 40
0.0108859
 40
0.0108859
 40
0.981589
 40
0.981589
 40
0.981589
 40
0.981589
 10
150.875
 20
87.466
 30
3
 10
150.878
 20
43.2515
 30
3
 10
151.131
 20
22.8061
 30
3
 10
173.985
 20
11.8483
 30
3
  0
SPLINE
  5
B52
330
A02
100
AcDbEntity
  8
Body001
100
AcDbSpline
210
0
220
0
230
1
 70
8
 71
3
 72
8
 73
4
 74
0
 40
0.0105421
 40
0.0105421
 40
0.0105421
 40
0.0105421
 40
1
 40
1
 40
1
 40
1
 10
-6.50959
 20
84.2047
 30
0
 10
39.628
 20
84.4997
 30
0
 10
39.9102
 20
98.4875
 30
0
 10
66.675
 20
98.4875
 30
0
  0
SPLINE
  5
B53
330
A02
100
AcDbEntity
  8
Body001
100
AcDbSpline
210
0
220
0
230
1
 70
8
 71
1
 72
4
 73
2
 74
0
 40
0
 40
0
 40
3
 40
3
 10
-6.50959
 20
84.2047
 30
-4.44089e-16
 10
-6.50959
 20
84.2047
 30
3
  0
LINE
  5
B54
330
A02
100
AcDbEntity
  8
Body001
100
AcDbLine
 10
66.675
 20
98.4875
 30
0
 11
66.675
 21
98.4875
 31
3
  0
SPLINE
  5
B55
330
A02
100
AcDbEntity
  8
Body001
100
AcDbSpline
210
0
220
0
230
1
 70
8
 71
3
 72
8
 73
4
 74
0
 40
0.0105421
 40
0.0105421
 40
0.0105421
 40
0.0105421
 40
1
 40
1
 40
1
 40
1
 10
-6.50959
 20
84.2047
 30
3
 10
39.628
 20
84.4997
 30
3
 10
39.9102
 20
98.4875
 30
3
 10
66.675
 20
98.4875
 30
3
  0
SPLINE
  5
B56
330
A02
100
AcDbEntity
  8
Body001
100
AcDbSpline
210
0
220
0
230
1
 70
8
 71
3
 72
11
 73
7
 74
0
 40
0
 40
0
 40
0
 40
0
 40
0.499993
 40
0.499993
 40
0.499993
 40
1
 40
1
 40
1
 40
1
 10
173.985
 20
11.8483
 30
0
 10
174.312
 20
11.6954
 30
0
 10
174.61
 20
11.3896
 30
0
 10
174.745
 20
11.0124
 30
0
 10
174.886
 20
10.6372
 30
0
 10
174.857
 20
10.2118
 30
0
 10
174.706
 20
9.88355
 30
0
  0
SPLINE
  5
B57
330
A02
100
AcDbEntity
  8
Body001
100
AcDbSpline
210
0
220
0
230
1
 70
8
 71
1
 72
4
 73
2
 74
0
 40
-1.4e-14
 40
-1.4e-14
 40
3
 40
3
 10
173.985
 20
11.8483
 30
-4.44089e-16
 10
173.985
 20
11.8483
 30
3
  0
SPLINE
  5
B58
330
A02
100
AcDbEntity
  8
Body001
100
AcDbSpline
210
0
220
0
230
1
 70
8
 71
1
 72
4
 73
2
 74
0
 40
-1.7e-14
 40
-1.7e-14
 40
3
 40
3
 10
174.706
 20
9.88355
 30
8.88178e-16
 10
174.706
 20
9.88355
 30
3
  0
SPLINE
  5
B59
330
A02
100
AcDbEntity
  8
Body001
100
AcDbSpline
210
0
220
0
230
1
 70
8
 71
3
 72
11
 73
7
 74
0
 40
0
 40
0
 40
0
 40
0
 40
0.499993
 40
0.499993
 40
0.499993
 40
1
 40
1
 40
1
 40
1
 10
173.985
 20
11.8483
 30
3
 10
174.312
 20
11.6954
 30
3
 10
174.61
 20
11.3896
 30
3
 10
174.745
 20
11.0124
 30
3
 10
174.886
 20
10.6372
 30
3
 10
174.857
 20
10.2118
 30
3
 10
174.706
 20
9.88355
 30
3
  0
SPLINE
  5
B5A
330
A02
100
AcDbEntity
  8
Body001
100
AcDbSpline
210
0
220
0
230
1
 70
8
 71
3
 72
11
 73
7
 74
0
 40
0
 40
0
 40
0
 40
0
 40
0.500008
 40
0.500008
 40
0.500008
 40
1
 40
1
 40
1
 40
1
 10
-6.50959
 20
84.2047
 30
0
 10
-6.87505
 20
84.2062
 30
0
 10
-7.27989
 20
84.0525
 30
0
 10
-7.56404
 20
83.762
 30
0
 10
-7.85268
 20
83.476
 30
0
 10
-8.00382
 20
83.0702
 30
0
 10
-8
 20
82.7048
 30
0
  0
SPLINE
  5
B5B
330
A02
100
AcDbEntity
  8
Body001
100
AcDbSpline
210
0
220
0
230
1
 70
8
 71
1
 72
4
 73
2
 74
0
 40
0
 40
0
 40
3
 40
3
 10
-6.50959
 20
84.2047
 30
-4.44089e-16
 10
-6.50959
 20
84.2047
 30
3
  0
SPLINE
  5
B5C
330
A02
100
AcDbEntity
  8
Body001
100
AcDbSpline
210
0
220
0
230
1
 70
8
 71
1
 72
4
 73
2
 74
0
 40
1e-15
 40
1e-15
 40
3
 40
3
 10
-8
 20
82.7048
 30
4.44089e-16
 10
-8
 20
82.7048
 30
3
  0
SPLINE
  5
B5D
330
A02
100
AcDbEntity
  8
Body001
100
AcDbSpline
210
0
220
0
230
1
 70
8
 71
3
 72
11
 73
7
 74
0
 40
0
 40
0
 40
0
 40
0
 40
0.500008
 40
0.500008
 40
0.500008
 40
1
 40
1
 40
1
 40
1
 10
-6.50959
 20
84.2047
 30
3
 10
-6.87505
 20
84.2062
 30
3
 10
-7.27989
 20
84.0525
 30
3
 10
-7.56404
 20
83.762
 30
3
 10
-7.85268
 20
83.476
 30
3
 10
-8.00382
 20
83.0702
 30
3
 10
-8
 20
82.7048
 30
3
  0
LINE
  5
B5E
330
A02
100
AcDbEntity
  8
Body001
100
AcDbLine
 10
153.842
 20
-36.7889
 30
0
 11
174.706
 21
9.88355
 31
0
  0
SPLINE
  5
B5F
330
A02
100
AcDbEntity
  8
Body001
100
AcDbSpline
210
0
220
0
230
1
 70
8
 71
1
 72
4
 73
2
 74
0
 40
1e-15
 40
1e-15
 40
3
 40
3
 10
153.842
 20
-36.7889
 30
4.44089e-16
 10
153.842
 20
-36.7889
 30
3
  0
SPLINE
  5
B60
330
A02
100
AcDbEntity
  8
Body001
100
AcDbSpline
210
0
220
0
230
1
 70
8
 71
1
 72
4
 73
2
 74
0
 40
-1.7e-14
 40
-1.7e-14
 40
3
 40
3
 10
174.706
 20
9.88355
 30
8.88178e-16
 10
174.706
 20
9.88355
 30
3
  0
LINE
  5
B61
330
A02
100
AcDbEntity
  8
Body001
100
AcDbLine
 10
153.842
 20
-36.7889
 30
3
 11
174.706
 21
9.88355
 31
3
  0
LINE
  5
B62
330
A02
100
AcDbEntity
  8
Body001
100
AcDbLine
 10
-8
 20
82.7048
 30
0
 11
-8
 21
-6.50005
 31
0
  0
SPLINE
  5
B63
330
A02
100
AcDbEntity
  8
Body001
100
AcDbSpline
210
0
220
0
230
1
 70
8
 71
1
 72
4
 73
2
 74
0
 40
1e-15
 40
1e-15
 40
3
 40
3
 10
-8
 20
82.7048
 30
4.44089e-16
 10
-8
 20
82.7048
 30
3
  0
SPLINE
  5
B64
330
A02
100
AcDbEntity
  8
Body001
100
AcDbSpline
210
0
220
0
230
1
 70
8
 71
1
 72
4
 73
2
 74
0
 40
-1e-15
 40
-1e-15
 40
3
 40
3
 10
-8
 20
-6.50005
 30
-4.44089e-16
 10
-8
 20
-6.50005
 30
3
  0
LINE
  5
B65
330
A02
100
AcDbEntity
  8
Body001
100
AcDbLine
 10
-8
 20
82.7048
 30
3
 11
-8
 21
-6.50005
 31
3
  0
SPLINE
  5
B66
330
A02
100
AcDbEntity
  8
Body001
100
AcDbSpline
210
0
220
0
230
1
 70
8
 71
3
 72
11
 73
7
 74
0
 40
0
 40
0
 40
0
 40
0
 40
0.499992
 40
0.499992
 40
0.499992
 40
1
 40
1
 40
1
 40
1
 10
153.842
 20
-36.7889
 30
0
 10
153.697
 20
-37.1244
 30
0
 10
153.393
 20
-37.4334
 30
0
 10
153.012
 20
-37.5766
 30
0
 10
152.634
 20
-37.7257
 30
0
 10
152.201
 20
-37.7003
 30
0
 10
151.868
 20
-37.5492
 30
0
  0
SPLINE
  5
B67
330
A02
100
AcDbEntity
  8
Body001
100
AcDbSpline
210
0
220
0
230
1
 70
8
 71
1
 72
4
 73
2
 74
0
 40
1e-15
 40
1e-15
 40
3
 40
3
 10
153.842
 20
-36.7889
 30
4.44089e-16
 10
153.842
 20
-36.7889
 30
3
  0
SPLINE
  5
B68
330
A02
100
AcDbEntity
  8
Body001
100
AcDbSpline
210
0
220
0
230
1
 70
8
 71
1
 72
4
 73
2
 74
0
 40
1e-15
 40
1e-15
 40
3
 40
3
 10
151.868
 20
-37.5492
 30
0
 10
151.868
 20
-37.5492
 30
3
  0
SPLINE
  5
B69
330
A02
100
AcDbEntity
  8
Body001
100
AcDbSpline
210
0
220
0
230
1
 70
8
 71
3
 72
11
 73
7
 74
0
 40
0
 40
0
 40
0
 40
0
 40
0.499992
 40
0.499992
 40
0.499992
 40
1
 40
1
 40
1
 40
1
 10
153.842
 20
-36.7889
 30
3
 10
153.697
 20
-37.1244
 30
3
 10
153.393
 20
-37.4334
 30
3
 10
153.012
 20
-37.5766
 30
3
 10
152.634
 20
-37.7257
 30
3
 10
152.201
 20
-37.7003
 30
3
 10
151.868
 20
-37.5492
 30
3
  0
SPLINE
  5
B6A
330
A02
100
AcDbEntity
  8
Body001
100
AcDbSpline
210
0
220
0
230
1
 70
8
 71
3
 72
11
 73
7
 74
0
 40
0
 40
0
 40
0
 40
0
 40
0.500008
 40
0.500008
 40
0.500008
 40
1
 40
1
 40
1
 40
1
 10
-8
 20
-6.50005
 30
0
 10
-8.00387
 20
-6.86683
 30
0
 10
-7.85149
 20
-7.27437
 30
0
 10
-7.56072
 20
-7.56066
 30
0
 10
-7.27446
 20
-7.85147
 30
0
 10
-6.86689
 20
-8.00389
 30
0
 10
-6.50016
 20
-8.00005
 30
0
  0
SPLINE
  5
B6B
330
A02
100
AcDbEntity
  8
Body001
100
AcDbSpline
210
0
220
0
230
1
 70
8
 71
1
 72
4
 73
2
 74
0
 40
-1e-15
 40
-1e-15
 40
3
 40
3
 10
-8
 20
-6.50005
 30
-4.44089e-16
 10
-8
 20
-6.50005
 30
3
  0
SPLINE
  5
B6C
330
A02
100
AcDbEntity
  8
Body001
100
AcDbSpline
210
0
220
0
230
1
 70
8
 71
1
 72
4
 73
2
 74
0
 40
-1e-15
 40
-1e-15
 40
3
 40
3
 10
-6.50016
 20
-8.00005
 30
-4.44089e-16
 10
-6.50016
 20
-8.00005
 30
3
  0
SPLINE
  5
B6D
330
A02
100
AcDbEntity
  8
Body001
100
AcDbSpline
210
0
220
0
230
1
 70
8
 71
3
 72
11
 73
7
 74
0
 40
0
 40
0
 40
0
 40
0
 40
0.500008
 40
0.500008
 40
0.500008
 40
1
 40
1
 40
1
 40
1
 10
-8
 20
-6.50005
 30
3
 10
-8.00387
 20
-6.86683
 30
3
 10
-7.85149
 20
-7.27437
 30
3
 10
-7.56072
 20
-7.56066
 30
3
 10
-7.27446
 20
-7.85147
 30
3
 10
-6.86689
 20
-8.00389
 30
3
 10
-6.50016
 20
-8.00005
 30
3
  0
SPLINE
  5
B6E
330
A02
100
AcDbEntity
  8
Body001
100
AcDbSpline
210
0
220
0
230
1
 70
8
 71
3
 72
8
 73
4
 74
0
 40
0.00988508
 40
0.00988508
 40
0.00988508
 40
0.00988508
 40
0.987578
 40
0.987578
 40
0.987578
 40
0.987578
 10
151.868
 20
-37.5492
 30
0
 10
107.041
 20
-17.7762
 30
0
 10
76.6094
 20
-17.5282
 30
0
 10
40.9854
 20
-17.525
 30
0
  0
SPLINE
  5
B6F
330
A02
100
AcDbEntity
  8
Body001
100
AcDbSpline
210
0
220
0
230
1
 70
8
 71
1
 72
4
 73
2
 74
0
 40
1e-15
 40
1e-15
 40
3
 40
3
 10
151.868
 20
-37.5492
 30
0
 10
151.868
 20
-37.5492
 30
3
  0
SPLINE
  5
B70
330
A02
100
AcDbEntity
  8
Body001
100
AcDbSpline
210
0
220
0
230
1
 70
8
 71
1
 72
4
 73
2
 74
0
 40
5e-15
 40
5e-15
 40
3
 40
3
 10
40.9854
 20
-17.525
 30
-4.44089e-16
 10
40.9854
 20
-17.525
 30
3
  0
SPLINE
  5
B71
330
A02
100
AcDbEntity
  8
Body001
100
AcDbSpline
210
0
220
0
230
1
 70
8
 71
3
 72
8
 73
4
 74
0
 40
0.00988508
 40
0.00988508
 40
0.00988508
 40
0.00988508
 40
0.987578
 40
0.987578
 40
0.987578
 40
0.987578
 10
151.868
 20
-37.5492
 30
3
 10
107.041
 20
-17.7762
 30
3
 10
76.6094
 20
-17.5282
 30
3
 10
40.9854
 20
-17.525
 30
3
  0
SPLINE
  5
B72
330
A02
100
AcDbEntity
  8
Body001
100
AcDbSpline
210
0
220
0
230
1
 70
8
 71
3
 72
8
 73
4
 74
0
 40
0.0445047
 40
0.0445047
 40
0.0445047
 40
0.0445047
 40
0.9824
 40
0.9824
 40
0.9824
 40
0.9824
 10
39.5126
 20
-16.309
 30
0
 10
37.94
 20
-8.15305
 30
0
 10
19.983
 20
-8.00282
 30
0
 10
-6.50016
 20
-8.00005
 30
0
  0
SPLINE
  5
B73
330
A02
100
AcDbEntity
  8
Body001
100
AcDbSpline
210
0
220
0
230
1
 70
8
 71
1
 72
4
 73
2
 74
0
 40
2e-15
 40
2e-15
 40
3
 40
3
 10
39.5126
 20
-16.309
 30
4.88498e-15
 10
39.5126
 20
-16.309
 30
3
  0
SPLINE
  5
B74
330
A02
100
AcDbEntity
  8
Body001
100
AcDbSpline
210
0
220
0
230
1
 70
8
 71
1
 72
4
 73
2
 74
0
 40
-1e-15
 40
-1e-15
 40
3
 40
3
 10
-6.50016
 20
-8.00005
 30
-4.44089e-16
 10
-6.50016
 20
-8.00005
 30
3
  0
SPLINE
  5
B75
330
A02
100
AcDbEntity
  8
Body001
100
AcDbSpline
210
0
220
0
230
1
 70
8
 71
3
 72
8
 73
4
 74
0
 40
0.0445047
 40
0.0445047
 40
0.0445047
 40
0.0445047
 40
0.9824
 40
0.9824
 40
0.9824
 40
0.9824
 10
39.5126
 20
-16.309
 30
3
 10
37.94
 20
-8.15305
 30
3
 10
19.983
 20
-8.00282
 30
3
 10
-6.50016
 20
-8.00005
 30
3
  0
SPLINE
  5
B76
330
A02
100
AcDbEntity
  8
Body001
100
AcDbSpline
210
0
220
0
230
1
 70
8
 71
3
 72
11
 73
7
 74
0
 40
0
 40
0
 40
0
 40
0
 40
0.5
 40
0.5
 40
0.5
 40
1
 40
1
 40
1
 40
1
 10
39.5126
 20
-16.309
 30
0
 10
39.572
 20
-16.6296
 30
0
 10
39.7546
 20
-16.9566
 30
0
 10
40.0305
 20
-17.1817
 30
0
 10
40.3037
 20
-17.41
 30
0
 10
40.6594
 20
-17.5274
 30
0
 10
40.9854
 20
-17.525
 30
0
  0
SPLINE
  5
B77
330
A02
100
AcDbEntity
  8
Body001
100
AcDbSpline
210
0
220
0
230
1
 70
8
 71
1
 72
4
 73
2
 74
0
 40
2e-15
 40
2e-15
 40
3
 40
3
 10
39.5126
 20
-16.309
 30
4.88498e-15
 10
39.5126
 20
-16.309
 30
3
  0
SPLINE
  5
B78
330
A02
100
AcDbEntity
  8
Body001
100
AcDbSpline
210
0
220
0
230
1
 70
8
 71
1
 72
4
 73
2
 74
0
 40
5e-15
 40
5e-15
 40
3
 40
3
 10
40.9854
 20
-17.525
 30
-4.44089e-16
 10
40.9854
 20
-17.525
 30
3
  0
SPLINE
  5
B79
330
A02
100
AcDbEntity
  8
Body001
100
AcDbSpline
210
0
220
0
230
1
 70
8
 71
3
 72
11
 73
7
 74
0
 40
0
 40
0
 40
0
 40
0
 40
0.5
 40
0.5
 40
0.5
 40
1
 40
1
 40
1
 40
1
 10
39.5126
 20
-16.309
 30
3
 10
39.572
 20
-16.6296
 30
3
 10
39.7546
 20
-16.9566
 30
3
 10
40.0305
 20
-17.1817
 30
3
 10
40.3037
 20
-17.41
 30
3
 10
40.6594
 20
-17.5274
 30
3
 10
40.9854
 20
-17.525
 30
3
  0
CIRCLE
  5
B7A
330
A02
100
AcDbEntity
  8
Body001
100
AcDbCircle
 10
-4.375
 20
-4.375
 40
1.45
  0
LINE
  5
B7B
330
A02
100
AcDbEntity
  8
Body001
100
AcDbLine
 10
-2.925
 20
-4.375
 30
0
 11
-2.925
 21
-4.375
 31
3
  0
CIRCLE
  5
B7C
330
A02
100
AcDbEntity
  8
Body001
100
AcDbCircle
 10
-4.375
 20
-4.375
 40
1.45
  0
LINE
  5
B7D
330
A02
100
AcDbEntity
  8
Body001
100
AcDbLine
 10
-2.925
 20
-4.375
 30
0
 11
-2.925
 21
-4.375
 31
3
  0
CIRCLE
  5
B7E
330
A02
100
AcDbEntity
  8
Body001
100
AcDbCircle
 10
43.25
 20
-13.9
 40
1.45
  0
LINE
  5
B7F
330
A02
100
AcDbEntity
  8
Body001
100
AcDbLine
 10
44.7
 20
-13.9
 30
0
 11
44.7
 21
-13.9
 31
3
  0
CIRCLE
  5
B80
330
A02
100
AcDbEntity
  8
Body001
100
AcDbCircle
 10
43.25
 20
-13.9
 40
1.45
  0
LINE
  5
B81
330
A02
100
AcDbEntity
  8
Body001
100
AcDbLine
 10
44.7
 20
-13.9
 30
0
 11
44.7
 21
-13.9
 31
3
  0
LINE
  5
B82
330
A02
100
AcDbEntity
  8
Body001
100
AcDbLine
 10
7.3875
 20
2.625
 30
3
 11
7.3875
 21
16.425
 31
3
  0
LINE
  5
B83
330
A02
100
AcDbEntity
  8
Body001
100
AcDbLine
 10
7.3875
 20
16.425
 30
3
 11
7.3875
 21
16.425
 31
0
  0
LINE
  5
B84
330
A02
100
AcDbEntity
  8
Body001
100
AcDbLine
 10
7.3875
 20
2.625
 30
0
 11
7.3875
 21
16.425
 31
0
  0
LINE
  5
B85
330
A02
100
AcDbEntity
  8
Body001
100
AcDbLine
 10
7.3875
 20
2.625
 30
3
 11
7.3875
 21
2.625
 31
0
  0
LINE
  5
B86
330
A02
100
AcDbEntity
  8
Body001
100
AcDbLine
 10
21.1875
 20
2.625
 30
3
 11
7.3875
 21
2.625
 31
3
  0
LINE
  5
B87
330
A02
100
AcDbEntity
  8
Body001
100
AcDbLine
 10
7.3875
 20
2.625
 30
3
 11
7.3875
 21
2.625
 31
0
  0
LINE
  5
B88
330
A02
100
AcDbEntity
  8
Body001
100
AcDbLine
 10
21.1875
 20
2.625
 30
0
 11
7.3875
 21
2.625
 31
0
  0
LINE
  5
B89
330
A02
100
AcDbEntity
  8
Body001
100
AcDbLine
 10
21.1875
 20
2.625
 30
3
 11
21.1875
 21
2.625
 31
0
  0
LINE
  5
B8A
330
A02
100
AcDbEntity
  8
Body001
100
AcDbLine
 10
21.1875
 20
16.425
 30
3
 11
21.1875
 21
2.625
 31
3
  0
LINE
  5
B8B
330
A02
100
AcDbEntity
  8
Body001
100
AcDbLine
 10
21.1875
 20
2.625
 30
3
 11
21.1875
 21
2.625
 31
0
  0
LINE
  5
B8C
330
A02
100
AcDbEntity
  8
Body001
100
AcDbLine
 10
21.1875
 20
16.425
 30
0
 11
21.1875
 21
2.625
 31
0
  0
LINE
  5
B8D
330
A02
100
AcDbEntity
  8
Body001
100
AcDbLine
 10
21.1875
 20
16.425
 30
3
 11
21.1875
 21
16.425
 31
0
  0
LINE
  5
B8E
330
A02
100
AcDbEntity
  8
Body001
100
AcDbLine
 10
7.3875
 20
16.425
 30
3
 11
21.1875
 21
16.425
 31
3
  0
LINE
  5
B8F
330
A02
100
AcDbEntity
  8
Body001
100
AcDbLine
 10
21.1875
 20
16.425
 30
3
 11
21.1875
 21
16.425
 31
0
  0
LINE
  5
B90
330
A02
100
AcDbEntity
  8
Body001
100
AcDbLine
 10
7.3875
 20
16.425
 30
0
 11
21.1875
 21
16.425
 31
0
  0
LINE
  5
B91
330
A02
100
AcDbEntity
  8
Body001
100
AcDbLine
 10
7.3875
 20
16.425
 30
3
 11
7.3875
 21
16.425
 31
0
  0
LINE
  5
B92
330
A02
100
AcDbEntity
  8
Body001
100
AcDbLine
 10
45
 20
16.425
 30
3
 11
31.2
 21
16.425
 31
3
  0
LINE
  5
B93
330
A02
100
AcDbEntity
  8
Body001
100
AcDbLine
 10
31.2
 20
16.425
 30
3
 11
31.2
 21
16.425
 31
0
  0
LINE
  5
B94
330
A02
100
AcDbEntity
  8
Body001
100
AcDbLine
 10
45
 20
16.425
 30
0
 11
31.2
 21
16.425
 31
0
  0
LINE
  5
B95
330
A02
100
AcDbEntity
  8
Body001
100
AcDbLine
 10
45
 20
16.425
 30
3
 11
45
 21
16.425
 31
0
  0
LINE
  5
B96
330
A02
100
AcDbEntity
  8
Body001
100
AcDbLine
 10
45
 20
2.625
 30
3
 11
45
 21
16.425
 31
3
  0
LINE
  5
B97
330
A02
100
AcDbEntity
  8
Body001
100
AcDbLine
 10
45
 20
16.425
 30
3
 11
45
 21
16.425
 31
0
  0
LINE
  5
B98
330
A02
100
AcDbEntity
  8
Body001
100
AcDbLine
 10
45
 20
2.625
 30
0
 11
45
 21
16.425
 31
0
  0
LINE
  5
B99
330
A02
100
AcDbEntity
  8
Body001
100
AcDbLine
 10
45
 20
2.625
 30
3
 11
45
 21
2.625
 31
0
  0
LINE
  5
B9A
330
A02
100
AcDbEntity
  8
Body001
100
AcDbLine
 10
31.2
 20
16.425
 30
3
 11
31.2
 21
2.625
 31
3
  0
LINE
  5
B9B
330
A02
100
AcDbEntity
  8
Body001
100
AcDbLine
 10
31.2
 20
2.625
 30
3
 11
31.2
 21
2.625
 31
0
  0
LINE
  5
B9C
330
A02
100
AcDbEntity
  8
Body001
100
AcDbLine
 10
31.2
 20
16.425
 30
0
 11
31.2
 21
2.625
 31
0
  0
LINE
  5
B9D
330
A02
100
AcDbEntity
  8
Body001
100
AcDbLine
 10
31.2
 20
16.425
 30
3
 11
31.2
 21
16.425
 31
0
  0
LINE
  5
B9E
330
A02
100
AcDbEntity
  8
Body001
100
AcDbLine
 10
31.2
 20
2.625
 30
3
 11
45
 21
2.625
 31
3
  0
LINE
  5
B9F
330
A02
100
AcDbEntity
  8
Body001
100
AcDbLine
 10
45
 20
2.625
 30
3
 11
45
 21
2.625
 31
0
  0
LINE
  5
BA0
330
A02
100
AcDbEntity
  8
Body001
100
AcDbLine
 10
31.2
 20
2.625
 30
0
 11
45
 21
2.625
 31
0
  0
LINE
  5
BA1
330
A02
100
AcDbEntity
  8
Body001
100
AcDbLine
 10
31.2
 20
2.625
 30
3
 11
31.2
 21
2.625
 31
0
  0
LINE
  5
BA2
330
A02
100
AcDbEntity
  8
Body001
100
AcDbLine
 10
7.3875
 20
21.675
 30
3
 11
7.3875
 21
35.475
 31
3
  0
LINE
  5
BA3
330
A02
100
AcDbEntity
  8
Body001
100
AcDbLine
 10
7.3875
 20
35.475
 30
3
 11
7.3875
 21
35.475
 31
0
  0
LINE
  5
BA4
330
A02
100
AcDbEntity
  8
Body001
100
AcDbLine
 10
7.3875
 20
21.675
 30
0
 11
7.3875
 21
35.475
 31
0
  0
LINE
  5
BA5
330
A02
100
AcDbEntity
  8
Body001
100
AcDbLine
 10
7.3875
 20
21.675
 30
3
 11
7.3875
 21
21.675
 31
0
  0
LINE
  5
BA6
330
A02
100
AcDbEntity
  8
Body001
100
AcDbLine
 10
21.1875
 20
21.675
 30
3
 11
7.3875
 21
21.675
 31
3
  0
LINE
  5
BA7
330
A02
100
AcDbEntity
  8
Body001
100
AcDbLine
 10
7.3875
 20
21.675
 30
3
 11
7.3875
 21
21.675
 31
0
  0
LINE
  5
BA8
330
A02
100
AcDbEntity
  8
Body001
100
AcDbLine
 10
21.1875
 20
21.675
 30
0
 11
7.3875
 21
21.675
 31
0
  0
LINE
  5
BA9
330
A02
100
AcDbEntity
  8
Body001
100
AcDbLine
 10
21.1875
 20
21.675
 30
3
 11
21.1875
 21
21.675
 31
0
  0
LINE
  5
BAA
330
A02
100
AcDbEntity
  8
Body001
100
AcDbLine
 10
21.1875
 20
35.475
 30
3
 11
21.1875
 21
21.675
 31
3
  0
LINE
  5
BAB
330
A02
100
AcDbEntity
  8
Body001
100
AcDbLine
 10
21.1875
 20
21.675
 30
3
 11
21.1875
 21
21.675
 31
0
  0
LINE
  5
BAC
330
A02
100
AcDbEntity
  8
Body001
100
AcDbLine
 10
21.1875
 20
35.475
 30
0
 11
21.1875
 21
21.675
 31
0
  0
LINE
  5
BAD
330
A02
100
AcDbEntity
  8
Body001
100
AcDbLine
 10
21.1875
 20
35.475
 30
3
 11
21.1875
 21
35.475
 31
0
  0
LINE
  5
BAE
330
A02
100
AcDbEntity
  8
Body001
100
AcDbLine
 10
7.3875
 20
35.475
 30
3
 11
21.1875
 21
35.475
 31
3
  0
LINE
  5
BAF
330
A02
100
AcDbEntity
  8
Body001
100
AcDbLine
 10
21.1875
 20
35.475
 30
3
 11
21.1875
 21
35.475
 31
0
  0
LINE
  5
BB0
330
A02
100
AcDbEntity
  8
Body001
100
AcDbLine
 10
7.3875
 20
35.475
 30
0
 11
21.1875
 21
35.475
 31
0
  0
LINE
  5
BB1
330
A02
100
AcDbEntity
  8
Body001
100
AcDbLine
 10
7.3875
 20
35.475
 30
3
 11
7.3875
 21
35.475
 31
0
  0
LINE
  5
BB2
330
A02
100
AcDbEntity
  8
Body001
100
AcDbLine
 10
31.2
 20
21.675
 30
3
 11
31.2
 21
35.475
 31
3
  0
LINE
  5
BB3
330
A02
100
AcDbEntity
  8
Body001
100
AcDbLine
 10
31.2
 20
35.475
 30
3
 11
31.2
 21
35.475
 31
0
  0
LINE
  5
BB4
330
A02
100
AcDbEntity
  8
Body001
100
AcDbLine
 10
31.2
 20
21.675
 30
0
 11
31.2
 21
35.475
 31
0
  0
LINE
  5
BB5
330
A02
100
AcDbEntity
  8
Body001
100
AcDbLine
 10
31.2
 20
21.675
 30
3
 11
31.2
 21
21.675
 31
0
  0
LINE
  5
BB6
330
A02
100
AcDbEntity
  8
Body001
100
AcDbLine
 10
45
 20
21.675
 30
3
 11
31.2
 21
21.675
 31
3
  0
LINE
  5
BB7
330
A02
100
AcDbEntity
  8
Body001
100
AcDbLine
 10
31.2
 20
21.675
 30
3
 11
31.2
 21
21.675
 31
0
  0
LINE
  5
BB8
330
A02
100
AcDbEntity
  8
Body001
100
AcDbLine
 10
45
 20
21.675
 30
0
 11
31.2
 21
21.675
 31
0
  0
LINE
  5
BB9
330
A02
100
AcDbEntity
  8
Body001
100
AcDbLine
 10
45
 20
21.675
 30
3
 11
45
 21
21.675
 31
0
  0
LINE
  5
BBA
330
A02
100
AcDbEntity
  8
Body001
100
AcDbLine
 10
31.2
 20
35.475
 30
3
 11
45
 21
35.475
 31
3
  0
LINE
  5
BBB
330
A02
100
AcDbEntity
  8
Body001
100
AcDbLine
 10
45
 20
35.475
 30
3
 11
45
 21
35.475
 31
0
  0
LINE
  5
BBC
330
A02
100
AcDbEntity
  8
Body001
100
AcDbLine
 10
31.2
 20
35.475
 30
0
 11
45
 21
35.475
 31
0
  0
LINE
  5
BBD
330
A02
100
AcDbEntity
  8
Body001
100
AcDbLine
 10
31.2
 20
35.475
 30
3
 11
31.2
 21
35.475
 31
0
  0
LINE
  5
BBE
330
A02
100
AcDbEntity
  8
Body001
100
AcDbLine
 10
45
 20
35.475
 30
3
 11
45
 21
21.675
 31
3
  0
LINE
  5
BBF
330
A02
100
AcDbEntity
  8
Body001
100
AcDbLine
 10
45
 20
21.675
 30
3
 11
45
 21
21.675
 31
0
  0
LINE
  5
BC0
330
A02
100
AcDbEntity
  8
Body001
100
AcDbLine
 10
45
 20
35.475
 30
0
 11
45
 21
21.675
 31
0
  0
LINE
  5
BC1
330
A02
100
AcDbEntity
  8
Body001
100
AcDbLine
 10
45
 20
35.475
 30
3
 11
45
 21
35.475
 31
0
  0
LINE
  5
BC2
330
A02
100
AcDbEntity
  8
Body001
100
AcDbLine
 10
50.25
 20
-6.9
 30
3
 11
64.05
 21
-6.9
 31
3
  0
LINE
  5
BC3
330
A02
100
AcDbEntity
  8
Body001
100
AcDbLine
 10
64.05
 20
-6.9
 30
3
 11
64.05
 21
-6.9
 31
0
  0
LINE
  5
BC4
330
A02
100
AcDbEntity
  8
Body001
100
AcDbLine
 10
50.25
 20
-6.9
 30
0
 11
64.05
 21
-6.9
 31
0
  0
LINE
  5
BC5
330
A02
100
AcDbEntity
  8
Body001
100
AcDbLine
 10
50.25
 20
-6.9
 30
3
 11
50.25
 21
-6.9
 31
0
  0
LINE
  5
BC6
330
A02
100
AcDbEntity
  8
Body001
100
AcDbLine
 10
50.25
 20
6.9
 30
3
 11
50.25
 21
-6.9
 31
3
  0
LINE
  5
BC7
330
A02
100
AcDbEntity
  8
Body001
100
AcDbLine
 10
50.25
 20
-6.9
 30
3
 11
50.25
 21
-6.9
 31
0
  0
LINE
  5
BC8
330
A02
100
AcDbEntity
  8
Body001
100
AcDbLine
 10
50.25
 20
6.9
 30
0
 11
50.25
 21
-6.9
 31
0
  0
LINE
  5
BC9
330
A02
100
AcDbEntity
  8
Body001
100
AcDbLine
 10
50.25
 20
6.9
 30
3
 11
50.25
 21
6.9
 31
0
  0
LINE
  5
BCA
330
A02
100
AcDbEntity
  8
Body001
100
AcDbLine
 10
64.05
 20
-6.9
 30
3
 11
64.05
 21
6.9
 31
3
  0
LINE
  5
BCB
330
A02
100
AcDbEntity
  8
Body001
100
AcDbLine
 10
64.05
 20
6.9
 30
3
 11
64.05
 21
6.9
 31
0
  0
LINE
  5
BCC
330
A02
100
AcDbEntity
  8
Body001
100
AcDbLine
 10
64.05
 20
-6.9
 30
0
 11
64.05
 21
6.9
 31
0
  0
LINE
  5
BCD
330
A02
100
AcDbEntity
  8
Body001
100
AcDbLine
 10
64.05
 20
-6.9
 30
3
 11
64.05
 21
-6.9
 31
0
  0
LINE
  5
BCE
330
A02
100
AcDbEntity
  8
Body001
100
AcDbLine
 10
64.05
 20
6.9
 30
3
 11
50.25
 21
6.9
 31
3
  0
LINE
  5
BCF
330
A02
100
AcDbEntity
  8
Body001
100
AcDbLine
 10
50.25
 20
6.9
 30
3
 11
50.25
 21
6.9
 31
0
  0
LINE
  5
BD0
330
A02
100
AcDbEntity
  8
Body001
100
AcDbLine
 10
64.05
 20
6.9
 30
0
 11
50.25
 21
6.9
 31
0
  0
LINE
  5
BD1
330
A02
100
AcDbEntity
  8
Body001
100
AcDbLine
 10
64.05
 20
6.9
 30
3
 11
64.05
 21
6.9
 31
0
  0
LINE
  5
BD2
330
A02
100
AcDbEntity
  8
Body001
100
AcDbLine
 10
69.3
 20
-2.1375
 30
3
 11
69.3
 21
11.6625
 31
3
  0
LINE
  5
BD3
330
A02
100
AcDbEntity
  8
Body001
100
AcDbLine
 10
69.3
 20
11.6625
 30
3
 11
69.3
 21
11.6625
 31
0
  0
LINE
  5
BD4
330
A02
100
AcDbEntity
  8
Body001
100
AcDbLine
 10
69.3
 20
-2.1375
 30
0
 11
69.3
 21
11.6625
 31
0
  0
LINE
  5
BD5
330
A02
100
AcDbEntity
  8
Body001
100
AcDbLine
 10
69.3
 20
-2.1375
 30
3
 11
69.3
 21
-2.1375
 31
0
  0
LINE
  5
BD6
330
A02
100
AcDbEntity
  8
Body001
100
AcDbLine
 10
83.1
 20
-2.1375
 30
3
 11
69.3
 21
-2.1375
 31
3
  0
LINE
  5
BD7
330
A02
100
AcDbEntity
  8
Body001
100
AcDbLine
 10
69.3
 20
-2.1375
 30
3
 11
69.3
 21
-2.1375
 31
0
  0
LINE
  5
BD8
330
A02
100
AcDbEntity
  8
Body001
100
AcDbLine
 10
83.1
 20
-2.1375
 30
0
 11
69.3
 21
-2.1375
 31
0
  0
LINE
  5
BD9
330
A02
100
AcDbEntity
  8
Body001
100
AcDbLine
 10
83.1
 20
-2.1375
 30
3
 11
83.1
 21
-2.1375
 31
0
  0
LINE
  5
BDA
330
A02
100
AcDbEntity
  8
Body001
100
AcDbLine
 10
69.3
 20
11.6625
 30
3
 11
83.1
 21
11.6625
 31
3
  0
LINE
  5
BDB
330
A02
100
AcDbEntity
  8
Body001
100
AcDbLine
 10
83.1
 20
11.6625
 30
3
 11
83.1
 21
11.6625
 31
0
  0
LINE
  5
BDC
330
A02
100
AcDbEntity
  8
Body001
100
AcDbLine
 10
69.3
 20
11.6625
 30
0
 11
83.1
 21
11.6625
 31
0
  0
LINE
  5
BDD
330
A02
100
AcDbEntity
  8
Body001
100
AcDbLine
 10
69.3
 20
11.6625
 30
3
 11
69.3
 21
11.6625
 31
0
  0
LINE
  5
BDE
330
A02
100
AcDbEntity
  8
Body001
100
AcDbLine
 10
83.1
 20
11.6625
 30
3
 11
83.1
 21
-2.1375
 31
3
  0
LINE
  5
BDF
330
A02
100
AcDbEntity
  8
Body001
100
AcDbLine
 10
83.1
 20
-2.1375
 30
3
 11
83.1
 21
-2.1375
 31
0
  0
LINE
  5
BE0
330
A02
100
AcDbEntity
  8
Body001
100
AcDbLine
 10
83.1
 20
11.6625
 30
0
 11
83.1
 21
-2.1375
 31
0
  0
LINE
  5
BE1
330
A02
100
AcDbEntity
  8
Body001
100
AcDbLine
 10
83.1
 20
11.6625
 30
3
 11
83.1
 21
11.6625
 31
0
  0
LINE
  5
BE2
330
A02
100
AcDbEntity
  8
Body001
100
AcDbLine
 10
64.05
 20
25.95
 30
3
 11
64.05
 21
12.15
 31
3
  0
LINE
  5
BE3
330
A02
100
AcDbEntity
  8
Body001
100
AcDbLine
 10
64.05
 20
12.15
 30
3
 11
64.05
 21
12.15
 31
0
  0
LINE
  5
BE4
330
A02
100
AcDbEntity
  8
Body001
100
AcDbLine
 10
64.05
 20
25.95
 30
0
 11
64.05
 21
12.15
 31
0
  0
LINE
  5
BE5
330
A02
100
AcDbEntity
  8
Body001
100
AcDbLine
 10
64.05
 20
25.95
 30
3
 11
64.05
 21
25.95
 31
0
  0
LINE
  5
BE6
330
A02
100
AcDbEntity
  8
Body001
100
AcDbLine
 10
50.25
 20
25.95
 30
3
 11
64.05
 21
25.95
 31
3
  0
LINE
  5
BE7
330
A02
100
AcDbEntity
  8
Body001
100
AcDbLine
 10
64.05
 20
25.95
 30
3
 11
64.05
 21
25.95
 31
0
  0
LINE
  5
BE8
330
A02
100
AcDbEntity
  8
Body001
100
AcDbLine
 10
50.25
 20
25.95
 30
0
 11
64.05
 21
25.95
 31
0
  0
LINE
  5
BE9
330
A02
100
AcDbEntity
  8
Body001
100
AcDbLine
 10
50.25
 20
25.95
 30
3
 11
50.25
 21
25.95
 31
0
  0
LINE
  5
BEA
330
A02
100
AcDbEntity
  8
Body001
100
AcDbLine
 10
64.05
 20
12.15
 30
3
 11
50.25
 21
12.15
 31
3
  0
LINE
  5
BEB
330
A02
100
AcDbEntity
  8
Body001
100
AcDbLine
 10
50.25
 20
12.15
 30
3
 11
50.25
 21
12.15
 31
0
  0
LINE
  5
BEC
330
A02
100
AcDbEntity
  8
Body001
100
AcDbLine
 10
64.05
 20
12.15
 30
0
 11
50.25
 21
12.15
 31
0
  0
LINE
  5
BED
330
A02
100
AcDbEntity
  8
Body001
100
AcDbLine
 10
64.05
 20
12.15
 30
3
 11
64.05
 21
12.15
 31
0
  0
LINE
  5
BEE
330
A02
100
AcDbEntity
  8
Body001
100
AcDbLine
 10
50.25
 20
12.15
 30
3
 11
50.25
 21
25.95
 31
3
  0
LINE
  5
BEF
330
A02
100
AcDbEntity
  8
Body001
100
AcDbLine
 10
50.25
 20
25.95
 30
3
 11
50.25
 21
25.95
 31
0
  0
LINE
  5
BF0
330
A02
100
AcDbEntity
  8
Body001
100
AcDbLine
 10
50.25
 20
12.15
 30
0
 11
50.25
 21
25.95
 31
0
  0
LINE
  5
BF1
330
A02
100
AcDbEntity
  8
Body001
100
AcDbLine
 10
50.25
 20
12.15
 30
3
 11
50.25
 21
12.15
 31
0
  0
LINE
  5
BF2
330
A02
100
AcDbEntity
  8
Body001
100
AcDbLine
 10
69.3
 20
16.9125
 30
3
 11
69.3
 21
30.7125
 31
3
  0
LINE
  5
BF3
330
A02
100
AcDbEntity
  8
Body001
100
AcDbLine
 10
69.3
 20
30.7125
 30
3
 11
69.3
 21
30.7125
 31
0
  0
LINE
  5
BF4
330
A02
100
AcDbEntity
  8
Body001
100
AcDbLine
 10
69.3
 20
16.9125
 30
0
 11
69.3
 21
30.7125
 31
0
  0
LINE
  5
BF5
330
A02
100
AcDbEntity
  8
Body001
100
AcDbLine
 10
69.3
 20
16.9125
 30
3
 11
69.3
 21
16.9125
 31
0
  0
LINE
  5
BF6
330
A02
100
AcDbEntity
  8
Body001
100
AcDbLine
 10
83.1
 20
16.9125
 30
3
 11
69.3
 21
16.9125
 31
3
  0
LINE
  5
BF7
330
A02
100
AcDbEntity
  8
Body001
100
AcDbLine
 10
69.3
 20
16.9125
 30
3
 11
69.3
 21
16.9125
 31
0
  0
LINE
  5
BF8
330
A02
100
AcDbEntity
  8
Body001
100
AcDbLine
 10
83.1
 20
16.9125
 30
0
 11
69.3
 21
16.9125
 31
0
  0
LINE
  5
BF9
330
A02
100
AcDbEntity
  8
Body001
100
AcDbLine
 10
83.1
 20
16.9125
 30
3
 11
83.1
 21
16.9125
 31
0
  0
LINE
  5
BFA
330
A02
100
AcDbEntity
  8
Body001
100
AcDbLine
 10
69.3
 20
30.7125
 30
3
 11
83.1
 21
30.7125
 31
3
  0
LINE
  5
BFB
330
A02
100
AcDbEntity
  8
Body001
100
AcDbLine
 10
83.1
 20
30.7125
 30
3
 11
83.1
 21
30.7125
 31
0
  0
LINE
  5
BFC
330
A02
100
AcDbEntity
  8
Body001
100
AcDbLine
 10
69.3
 20
30.7125
 30
0
 11
83.1
 21
30.7125
 31
0
  0
LINE
  5
BFD
330
A02
100
AcDbEntity
  8
Body001
100
AcDbLine
 10
69.3
 20
30.7125
 30
3
 11
69.3
 21
30.7125
 31
0
  0
LINE
  5
BFE
330
A02
100
AcDbEntity
  8
Body001
100
AcDbLine
 10
83.1
 20
30.7125
 30
3
 11
83.1
 21
16.9125
 31
3
  0
LINE
  5
BFF
330
A02
100
AcDbEntity
  8
Body001
100
AcDbLine
 10
83.1
 20
16.9125
 30
3
 11
83.1
 21
16.9125
 31
0
  0
LINE
  5
C00
330
A02
100
AcDbEntity
  8
Body001
100
AcDbLine
 10
83.1
 20
30.7125
 30
0
 11
83.1
 21
16.9125
 31
0
  0
LINE
  5
C01
330
A02
100
AcDbEntity
  8
Body001
100
AcDbLine
 10
83.1
 20
30.7125
 30
3
 11
83.1
 21
30.7125
 31
0
  0
CIRCLE
  5
C02
330
A02
100
AcDbEntity
  8
Body001
100
AcDbCircle
 10
95.25
 20
-13.9
 40
1.45
  0
LINE
  5
C03
330
A02
100
AcDbEntity
  8
Body001
100
AcDbLine
 10
96.7
 20
-13.9
 30
0
 11
96.7
 21
-13.9
 31
3
  0
CIRCLE
  5
C04
330
A02
100
AcDbEntity
  8
Body001
100
AcDbCircle
 10
95.25
 20
-13.9
 40
1.45
  0
LINE
  5
C05
330
A02
100
AcDbEntity
  8
Body001
100
AcDbLine
 10
96.7
 20
-13.9
 30
0
 11
96.7
 21
-13.9
 31
3
  0
LINE
  5
C06
330
A02
100
AcDbEntity
  8
Body001
100
AcDbLine
 10
111.623
 20
-12.8395
 30
0
 11
111.623
 21
-12.8395
 31
3
  0
LINE
  5
C07
330
A02
100
AcDbEntity
  8
Body001
100
AcDbLine
 10
114.492
 20
0.658915
 30
0
 11
114.492
 21
0.658915
 31
3
  0
LINE
  5
C08
330
A02
100
AcDbEntity
  8
Body001
100
AcDbLine
 10
111.623
 20
-12.8395
 30
0
 11
114.492
 21
0.658915
 31
0
  0
LINE
  5
C09
330
A02
100
AcDbEntity
  8
Body001
100
AcDbLine
 10
111.623
 20
-12.8395
 30
3
 11
114.492
 21
0.658915
 31
3
  0
LINE
  5
C0A
330
A02
100
AcDbEntity
  8
Body001
100
AcDbLine
 10
125.121
 20
-15.7087
 30
0
 11
125.121
 21
-15.7087
 31
3
  0
LINE
  5
C0B
330
A02
100
AcDbEntity
  8
Body001
100
AcDbLine
 10
111.623
 20
-12.8395
 30
0
 11
111.623
 21
-12.8395
 31
3
  0
LINE
  5
C0C
330
A02
100
AcDbEntity
  8
Body001
100
AcDbLine
 10
125.121
 20
-15.7087
 30
0
 11
111.623
 21
-12.8395
 31
0
  0
LINE
  5
C0D
330
A02
100
AcDbEntity
  8
Body001
100
AcDbLine
 10
125.121
 20
-15.7087
 30
3
 11
111.623
 21
-12.8395
 31
3
  0
LINE
  5
C0E
330
A02
100
AcDbEntity
  8
Body001
100
AcDbLine
 10
114.492
 20
0.658915
 30
0
 11
114.492
 21
0.658915
 31
3
  0
LINE
  5
C0F
330
A02
100
AcDbEntity
  8
Body001
100
AcDbLine
 10
127.991
 20
-2.21027
 30
0
 11
127.991
 21
-2.21027
 31
3
  0
LINE
  5
C10
330
A02
100
AcDbEntity
  8
Body001
100
AcDbLine
 10
114.492
 20
0.658915
 30
0
 11
127.991
 21
-2.21027
 31
0
  0
LINE
  5
C11
330
A02
100
AcDbEntity
  8
Body001
100
AcDbLine
 10
114.492
 20
0.658915
 30
3
 11
127.991
 21
-2.21027
 31
3
  0
LINE
  5
C12
330
A02
100
AcDbEntity
  8
Body001
100
AcDbLine
 10
127.991
 20
-2.21027
 30
0
 11
127.991
 21
-2.21027
 31
3
  0
LINE
  5
C13
330
A02
100
AcDbEntity
  8
Body001
100
AcDbLine
 10
125.121
 20
-15.7087
 30
0
 11
125.121
 21
-15.7087
 31
3
  0
LINE
  5
C14
330
A02
100
AcDbEntity
  8
Body001
100
AcDbLine
 10
127.991
 20
-2.21027
 30
0
 11
125.121
 21
-15.7087
 31
0
  0
LINE
  5
C15
330
A02
100
AcDbEntity
  8
Body001
100
AcDbLine
 10
127.991
 20
-2.21027
 30
3
 11
125.121
 21
-15.7087
 31
3
  0
CIRCLE
  5
C16
330
A02
100
AcDbEntity
  8
Body001
100
AcDbCircle
 10
151.402
 20
-33.3662
 40
1.45
  0
LINE
  5
C17
330
A02
100
AcDbEntity
  8
Body001
100
AcDbLine
 10
152.852
 20
-33.3662
 30
0
 11
152.852
 21
-33.3662
 31
3
  0
CIRCLE
  5
C18
330
A02
100
AcDbEntity
  8
Body001
100
AcDbCircle
 10
151.402
 20
-33.3662
 40
1.45
  0
LINE
  5
C19
330
A02
100
AcDbEntity
  8
Body001
100
AcDbLine
 10
152.852
 20
-33.3662
 30
0
 11
152.852
 21
-33.3662
 31
3
  0
LINE
  5
C1A
330
A02
100
AcDbEntity
  8
Body001
100
AcDbLine
 10
135.269
 20
-18.4871
 30
0
 11
135.269
 21
-18.4871
 31
3
  0
LINE
  5
C1B
330
A02
100
AcDbEntity
  8
Body001
100
AcDbLine
 10
140.901
 20
-5.88858
 30
0
 11
140.901
 21
-5.88858
 31
3
  0
LINE
  5
C1C
330
A02
100
AcDbEntity
  8
Body001
100
AcDbLine
 10
135.269
 20
-18.4871
 30
0
 11
140.901
 21
-5.88858
 31
0
  0
LINE
  5
C1D
330
A02
100
AcDbEntity
  8
Body001
100
AcDbLine
 10
135.269
 20
-18.4871
 30
3
 11
140.901
 21
-5.88858
 31
3
  0
LINE
  5
C1E
330
A02
100
AcDbEntity
  8
Body001
100
AcDbLine
 10
147.868
 20
-24.1189
 30
0
 11
147.868
 21
-24.1189
 31
3
  0
LINE
  5
C1F
330
A02
100
AcDbEntity
  8
Body001
100
AcDbLine
 10
135.269
 20
-18.4871
 30
0
 11
135.269
 21
-18.4871
 31
3
  0
LINE
  5
C20
330
A02
100
AcDbEntity
  8
Body001
100
AcDbLine
 10
147.868
 20
-24.1189
 30
0
 11
135.269
 21
-18.4871
 31
0
  0
LINE
  5
C21
330
A02
100
AcDbEntity
  8
Body001
100
AcDbLine
 10
147.868
 20
-24.1189
 30
3
 11
135.269
 21
-18.4871
 31
3
  0
LINE
  5
C22
330
A02
100
AcDbEntity
  8
Body001
100
AcDbLine
 10
140.901
 20
-5.88858
 30
0
 11
140.901
 21
-5.88858
 31
3
  0
LINE
  5
C23
330
A02
100
AcDbEntity
  8
Body001
100
AcDbLine
 10
153.5
 20
-11.5204
 30
0
 11
153.5
 21
-11.5204
 31
3
  0
LINE
  5
C24
330
A02
100
AcDbEntity
  8
Body001
100
AcDbLine
 10
140.901
 20
-5.88858
 30
0
 11
153.5
 21
-11.5204
 31
0
  0
LINE
  5
C25
330
A02
100
AcDbEntity
  8
Body001
100
AcDbLine
 10
140.901
 20
-5.88858
 30
3
 11
153.5
 21
-11.5204
 31
3
  0
LINE
  5
C26
330
A02
100
AcDbEntity
  8
Body001
100
AcDbLine
 10
153.5
 20
-11.5204
 30
0
 11
153.5
 21
-11.5204
 31
3
  0
LINE
  5
C27
330
A02
100
AcDbEntity
  8
Body001
100
AcDbLine
 10
147.868
 20
-24.1189
 30
0
 11
147.868
 21
-24.1189
 31
3
  0
LINE
  5
C28
330
A02
100
AcDbEntity
  8
Body001
100
AcDbLine
 10
153.5
 20
-11.5204
 30
0
 11
147.868
 21
-24.1189
 31
0
  0
LINE
  5
C29
330
A02
100
AcDbEntity
  8
Body001
100
AcDbLine
 10
153.5
 20
-11.5204
 30
3
 11
147.868
 21
-24.1189
 31
3
  0
LINE
  5
C2A
330
A02
100
AcDbEntity
  8
Body001
100
AcDbLine
 10
88.35
 20
-6.9
 30
3
 11
88.35
 21
6.9
 31
3
  0
LINE
  5
C2B
330
A02
100
AcDbEntity
  8
Body001
100
AcDbLine
 10
88.35
 20
6.9
 30
3
 11
88.35
 21
6.9
 31
0
  0
LINE
  5
C2C
330
A02
100
AcDbEntity
  8
Body001
100
AcDbLine
 10
88.35
 20
-6.9
 30
0
 11
88.35
 21
6.9
 31
0
  0
LINE
  5
C2D
330
A02
100
AcDbEntity
  8
Body001
100
AcDbLine
 10
88.35
 20
-6.9
 30
3
 11
88.35
 21
-6.9
 31
0
  0
LINE
  5
C2E
330
A02
100
AcDbEntity
  8
Body001
100
AcDbLine
 10
102.15
 20
-6.9
 30
3
 11
88.35
 21
-6.9
 31
3
  0
LINE
  5
C2F
330
A02
100
AcDbEntity
  8
Body001
100
AcDbLine
 10
88.35
 20
-6.9
 30
3
 11
88.35
 21
-6.9
 31
0
  0
LINE
  5
C30
330
A02
100
AcDbEntity
  8
Body001
100
AcDbLine
 10
102.15
 20
-6.9
 30
0
 11
88.35
 21
-6.9
 31
0
  0
LINE
  5
C31
330
A02
100
AcDbEntity
  8
Body001
100
AcDbLine
 10
102.15
 20
-6.9
 30
3
 11
102.15
 21
-6.9
 31
0
  0
LINE
  5
C32
330
A02
100
AcDbEntity
  8
Body001
100
AcDbLine
 10
88.35
 20
6.9
 30
3
 11
102.15
 21
6.9
 31
3
  0
LINE
  5
C33
330
A02
100
AcDbEntity
  8
Body001
100
AcDbLine
 10
102.15
 20
6.9
 30
3
 11
102.15
 21
6.9
 31
0
  0
LINE
  5
C34
330
A02
100
AcDbEntity
  8
Body001
100
AcDbLine
 10
88.35
 20
6.9
 30
0
 11
102.15
 21
6.9
 31
0
  0
LINE
  5
C35
330
A02
100
AcDbEntity
  8
Body001
100
AcDbLine
 10
88.35
 20
6.9
 30
3
 11
88.35
 21
6.9
 31
0
  0
LINE
  5
C36
330
A02
100
AcDbEntity
  8
Body001
100
AcDbLine
 10
102.15
 20
6.9
 30
3
 11
102.15
 21
-6.9
 31
3
  0
LINE
  5
C37
330
A02
100
AcDbEntity
  8
Body001
100
AcDbLine
 10
102.15
 20
-6.9
 30
3
 11
102.15
 21
-6.9
 31
0
  0
LINE
  5
C38
330
A02
100
AcDbEntity
  8
Body001
100
AcDbLine
 10
102.15
 20
6.9
 30
0
 11
102.15
 21
-6.9
 31
0
  0
LINE
  5
C39
330
A02
100
AcDbEntity
  8
Body001
100
AcDbLine
 10
102.15
 20
6.9
 30
3
 11
102.15
 21
6.9
 31
0
  0
LINE
  5
C3A
330
A02
100
AcDbEntity
  8
Body001
100
AcDbLine
 10
102.15
 20
25.95
 30
3
 11
102.15
 21
12.15
 31
3
  0
LINE
  5
C3B
330
A02
100
AcDbEntity
  8
Body001
100
AcDbLine
 10
102.15
 20
12.15
 30
3
 11
102.15
 21
12.15
 31
0
  0
LINE
  5
C3C
330
A02
100
AcDbEntity
  8
Body001
100
AcDbLine
 10
102.15
 20
25.95
 30
0
 11
102.15
 21
12.15
 31
0
  0
LINE
  5
C3D
330
A02
100
AcDbEntity
  8
Body001
100
AcDbLine
 10
102.15
 20
25.95
 30
3
 11
102.15
 21
25.95
 31
0
  0
LINE
  5
C3E
330
A02
100
AcDbEntity
  8
Body001
100
AcDbLine
 10
88.35
 20
25.95
 30
3
 11
102.15
 21
25.95
 31
3
  0
LINE
  5
C3F
330
A02
100
AcDbEntity
  8
Body001
100
AcDbLine
 10
102.15
 20
25.95
 30
3
 11
102.15
 21
25.95
 31
0
  0
LINE
  5
C40
330
A02
100
AcDbEntity
  8
Body001
100
AcDbLine
 10
88.35
 20
25.95
 30
0
 11
102.15
 21
25.95
 31
0
  0
LINE
  5
C41
330
A02
100
AcDbEntity
  8
Body001
100
AcDbLine
 10
88.35
 20
25.95
 30
3
 11
88.35
 21
25.95
 31
0
  0
LINE
  5
C42
330
A02
100
AcDbEntity
  8
Body001
100
AcDbLine
 10
102.15
 20
12.15
 30
3
 11
88.35
 21
12.15
 31
3
  0
LINE
  5
C43
330
A02
100
AcDbEntity
  8
Body001
100
AcDbLine
 10
88.35
 20
12.15
 30
3
 11
88.35
 21
12.15
 31
0
  0
LINE
  5
C44
330
A02
100
AcDbEntity
  8
Body001
100
AcDbLine
 10
102.15
 20
12.15
 30
0
 11
88.35
 21
12.15
 31
0
  0
LINE
  5
C45
330
A02
100
AcDbEntity
  8
Body001
100
AcDbLine
 10
102.15
 20
12.15
 30
3
 11
102.15
 21
12.15
 31
0
  0
LINE
  5
C46
330
A02
100
AcDbEntity
  8
Body001
100
AcDbLine
 10
88.35
 20
12.15
 30
3
 11
88.35
 21
25.95
 31
3
  0
LINE
  5
C47
330
A02
100
AcDbEntity
  8
Body001
100
AcDbLine
 10
88.35
 20
25.95
 30
3
 11
88.35
 21
25.95
 31
0
  0
LINE
  5
C48
330
A02
100
AcDbEntity
  8
Body001
100
AcDbLine
 10
88.35
 20
12.15
 30
0
 11
88.35
 21
25.95
 31
0
  0
LINE
  5
C49
330
A02
100
AcDbEntity
  8
Body001
100
AcDbLine
 10
88.35
 20
12.15
 30
3
 11
88.35
 21
12.15
 31
0
  0
LINE
  5
C4A
330
A02
100
AcDbEntity
  8
Body001
100
AcDbLine
 10
107.4
 20
7.3875
 30
3
 11
121.2
 21
7.3875
 31
3
  0
LINE
  5
C4B
330
A02
100
AcDbEntity
  8
Body001
100
AcDbLine
 10
121.2
 20
7.3875
 30
3
 11
121.2
 21
7.3875
 31
0
  0
LINE
  5
C4C
330
A02
100
AcDbEntity
  8
Body001
100
AcDbLine
 10
107.4
 20
7.3875
 30
0
 11
121.2
 21
7.3875
 31
0
  0
LINE
  5
C4D
330
A02
100
AcDbEntity
  8
Body001
100
AcDbLine
 10
107.4
 20
7.3875
 30
3
 11
107.4
 21
7.3875
 31
0
  0
LINE
  5
C4E
330
A02
100
AcDbEntity
  8
Body001
100
AcDbLine
 10
107.4
 20
21.1875
 30
3
 11
107.4
 21
7.3875
 31
3
  0
LINE
  5
C4F
330
A02
100
AcDbEntity
  8
Body001
100
AcDbLine
 10
107.4
 20
7.3875
 30
3
 11
107.4
 21
7.3875
 31
0
  0
LINE
  5
C50
330
A02
100
AcDbEntity
  8
Body001
100
AcDbLine
 10
107.4
 20
21.1875
 30
0
 11
107.4
 21
7.3875
 31
0
  0
LINE
  5
C51
330
A02
100
AcDbEntity
  8
Body001
100
AcDbLine
 10
107.4
 20
21.1875
 30
3
 11
107.4
 21
21.1875
 31
0
  0
LINE
  5
C52
330
A02
100
AcDbEntity
  8
Body001
100
AcDbLine
 10
121.2
 20
7.3875
 30
3
 11
121.2
 21
21.1875
 31
3
  0
LINE
  5
C53
330
A02
100
AcDbEntity
  8
Body001
100
AcDbLine
 10
121.2
 20
21.1875
 30
3
 11
121.2
 21
21.1875
 31
0
  0
LINE
  5
C54
330
A02
100
AcDbEntity
  8
Body001
100
AcDbLine
 10
121.2
 20
7.3875
 30
0
 11
121.2
 21
21.1875
 31
0
  0
LINE
  5
C55
330
A02
100
AcDbEntity
  8
Body001
100
AcDbLine
 10
121.2
 20
7.3875
 30
3
 11
121.2
 21
7.3875
 31
0
  0
LINE
  5
C56
330
A02
100
AcDbEntity
  8
Body001
100
AcDbLine
 10
121.2
 20
21.1875
 30
3
 11
107.4
 21
21.1875
 31
3
  0
LINE
  5
C57
330
A02
100
AcDbEntity
  8
Body001
100
AcDbLine
 10
107.4
 20
21.1875
 30
3
 11
107.4
 21
21.1875
 31
0
  0
LINE
  5
C58
330
A02
100
AcDbEntity
  8
Body001
100
AcDbLine
 10
121.2
 20
21.1875
 30
0
 11
107.4
 21
21.1875
 31
0
  0
LINE
  5
C59
330
A02
100
AcDbEntity
  8
Body001
100
AcDbLine
 10
121.2
 20
21.1875
 30
3
 11
121.2
 21
21.1875
 31
0
  0
LINE
  5
C5A
330
A02
100
AcDbEntity
  8
Body001
100
AcDbLine
 10
143.044
 20
-1.09567
 30
0
 11
143.044
 21
-1.09567
 31
3
  0
LINE
  5
C5B
330
A02
100
AcDbEntity
  8
Body001
100
AcDbLine
 10
148.676
 20
11.5029
 30
0
 11
148.676
 21
11.5029
 31
3
  0
LINE
  5
C5C
330
A02
100
AcDbEntity
  8
Body001
100
AcDbLine
 10
143.044
 20
-1.09567
 30
0
 11
148.676
 21
11.5029
 31
0
  0
LINE
  5
C5D
330
A02
100
AcDbEntity
  8
Body001
100
AcDbLine
 10
143.044
 20
-1.09567
 30
3
 11
148.676
 21
11.5029
 31
3
  0
LINE
  5
C5E
330
A02
100
AcDbEntity
  8
Body001
100
AcDbLine
 10
155.642
 20
-6.72748
 30
0
 11
155.642
 21
-6.72748
 31
3
  0
LINE
  5
C5F
330
A02
100
AcDbEntity
  8
Body001
100
AcDbLine
 10
143.044
 20
-1.09567
 30
0
 11
143.044
 21
-1.09567
 31
3
  0
LINE
  5
C60
330
A02
100
AcDbEntity
  8
Body001
100
AcDbLine
 10
155.642
 20
-6.72748
 30
0
 11
143.044
 21
-1.09567
 31
0
  0
LINE
  5
C61
330
A02
100
AcDbEntity
  8
Body001
100
AcDbLine
 10
155.642
 20
-6.72748
 30
3
 11
143.044
 21
-1.09567
 31
3
  0
LINE
  5
C62
330
A02
100
AcDbEntity
  8
Body001
100
AcDbLine
 10
148.676
 20
11.5029
 30
0
 11
148.676
 21
11.5029
 31
3
  0
LINE
  5
C63
330
A02
100
AcDbEntity
  8
Body001
100
AcDbLine
 10
161.274
 20
5.87104
 30
0
 11
161.274
 21
5.87104
 31
3
  0
LINE
  5
C64
330
A02
100
AcDbEntity
  8
Body001
100
AcDbLine
 10
148.676
 20
11.5029
 30
0
 11
161.274
 21
5.87104
 31
0
  0
LINE
  5
C65
330
A02
100
AcDbEntity
  8
Body001
100
AcDbLine
 10
148.676
 20
11.5029
 30
3
 11
161.274
 21
5.87104
 31
3
  0
LINE
  5
C66
330
A02
100
AcDbEntity
  8
Body001
100
AcDbLine
 10
161.274
 20
5.87104
 30
0
 11
161.274
 21
5.87104
 31
3
  0
LINE
  5
C67
330
A02
100
AcDbEntity
  8
Body001
100
AcDbLine
 10
155.642
 20
-6.72748
 30
0
 11
155.642
 21
-6.72748
 31
3
  0
LINE
  5
C68
330
A02
100
AcDbEntity
  8
Body001
100
AcDbLine
 10
161.274
 20
5.87104
 30
0
 11
155.642
 21
-6.72748
 31
0
  0
LINE
  5
C69
330
A02
100
AcDbEntity
  8
Body001
100
AcDbLine
 10
161.274
 20
5.87104
 30
3
 11
155.642
 21
-6.72748
 31
3
  0
CIRCLE
  5
C6A
330
A02
100
AcDbEntity
  8
Body001
100
AcDbCircle
 10
170.521
 20
9.40487
 40
1.45
  0
LINE
  5
C6B
330
A02
100
AcDbEntity
  8
Body001
100
AcDbLine
 10
171.971
 20
9.40487
 30
0
 11
171.971
 21
9.40487
 31
3
  0
CIRCLE
  5
C6C
330
A02
100
AcDbEntity
  8
Body001
100
AcDbCircle
 10
170.521
 20
9.40487
 40
1.45
  0
LINE
  5
C6D
330
A02
100
AcDbEntity
  8
Body001
100
AcDbLine
 10
171.971
 20
9.40487
 30
0
 11
171.971
 21
9.40487
 31
3
  0
LINE
  5
C6E
330
A02
100
AcDbEntity
  8
Body001
100
AcDbLine
 10
126.45
 20
12.15
 30
3
 11
126.45
 21
25.95
 31
3
  0
LINE
  5
C6F
330
A02
100
AcDbEntity
  8
Body001
100
AcDbLine
 10
126.45
 20
25.95
 30
3
 11
126.45
 21
25.95
 31
0
  0
LINE
  5
C70
330
A02
100
AcDbEntity
  8
Body001
100
AcDbLine
 10
126.45
 20
12.15
 30
0
 11
126.45
 21
25.95
 31
0
  0
LINE
  5
C71
330
A02
100
AcDbEntity
  8
Body001
100
AcDbLine
 10
126.45
 20
12.15
 30
3
 11
126.45
 21
12.15
 31
0
  0
LINE
  5
C72
330
A02
100
AcDbEntity
  8
Body001
100
AcDbLine
 10
140.25
 20
12.15
 30
3
 11
126.45
 21
12.15
 31
3
  0
LINE
  5
C73
330
A02
100
AcDbEntity
  8
Body001
100
AcDbLine
 10
126.45
 20
12.15
 30
3
 11
126.45
 21
12.15
 31
0
  0
LINE
  5
C74
330
A02
100
AcDbEntity
  8
Body001
100
AcDbLine
 10
140.25
 20
12.15
 30
0
 11
126.45
 21
12.15
 31
0
  0
LINE
  5
C75
330
A02
100
AcDbEntity
  8
Body001
100
AcDbLine
 10
140.25
 20
12.15
 30
3
 11
140.25
 21
12.15
 31
0
  0
LINE
  5
C76
330
A02
100
AcDbEntity
  8
Body001
100
AcDbLine
 10
126.45
 20
25.95
 30
3
 11
140.25
 21
25.95
 31
3
  0
LINE
  5
C77
330
A02
100
AcDbEntity
  8
Body001
100
AcDbLine
 10
140.25
 20
25.95
 30
3
 11
140.25
 21
25.95
 31
0
  0
LINE
  5
C78
330
A02
100
AcDbEntity
  8
Body001
100
AcDbLine
 10
126.45
 20
25.95
 30
0
 11
140.25
 21
25.95
 31
0
  0
LINE
  5
C79
330
A02
100
AcDbEntity
  8
Body001
100
AcDbLine
 10
126.45
 20
25.95
 30
3
 11
126.45
 21
25.95
 31
0
  0
LINE
  5
C7A
330
A02
100
AcDbEntity
  8
Body001
100
AcDbLine
 10
140.25
 20
25.95
 30
3
 11
140.25
 21
12.15
 31
3
  0
LINE
  5
C7B
330
A02
100
AcDbEntity
  8
Body001
100
AcDbLine
 10
140.25
 20
12.15
 30
3
 11
140.25
 21
12.15
 31
0
  0
LINE
  5
C7C
330
A02
100
AcDbEntity
  8
Body001
100
AcDbLine
 10
140.25
 20
25.95
 30
0
 11
140.25
 21
12.15
 31
0
  0
LINE
  5
C7D
330
A02
100
AcDbEntity
  8
Body001
100
AcDbLine
 10
140.25
 20
25.95
 30
3
 11
140.25
 21
25.95
 31
0
  0
LINE
  5
C7E
330
A02
100
AcDbEntity
  8
Body001
100
AcDbLine
 10
7.3875
 20
40.725
 30
3
 11
7.3875
 21
54.525
 31
3
  0
LINE
  5
C7F
330
A02
100
AcDbEntity
  8
Body001
100
AcDbLine
 10
7.3875
 20
54.525
 30
3
 11
7.3875
 21
54.525
 31
0
  0
LINE
  5
C80
330
A02
100
AcDbEntity
  8
Body001
100
AcDbLine
 10
7.3875
 20
40.725
 30
0
 11
7.3875
 21
54.525
 31
0
  0
LINE
  5
C81
330
A02
100
AcDbEntity
  8
Body001
100
AcDbLine
 10
7.3875
 20
40.725
 30
3
 11
7.3875
 21
40.725
 31
0
  0
LINE
  5
C82
330
A02
100
AcDbEntity
  8
Body001
100
AcDbLine
 10
21.1875
 20
40.725
 30
3
 11
7.3875
 21
40.725
 31
3
  0
LINE
  5
C83
330
A02
100
AcDbEntity
  8
Body001
100
AcDbLine
 10
7.3875
 20
40.725
 30
3
 11
7.3875
 21
40.725
 31
0
  0
LINE
  5
C84
330
A02
100
AcDbEntity
  8
Body001
100
AcDbLine
 10
21.1875
 20
40.725
 30
0
 11
7.3875
 21
40.725
 31
0
  0
LINE
  5
C85
330
A02
100
AcDbEntity
  8
Body001
100
AcDbLine
 10
21.1875
 20
40.725
 30
3
 11
21.1875
 21
40.725
 31
0
  0
LINE
  5
C86
330
A02
100
AcDbEntity
  8
Body001
100
AcDbLine
 10
21.1875
 20
54.525
 30
3
 11
21.1875
 21
40.725
 31
3
  0
LINE
  5
C87
330
A02
100
AcDbEntity
  8
Body001
100
AcDbLine
 10
21.1875
 20
40.725
 30
3
 11
21.1875
 21
40.725
 31
0
  0
LINE
  5
C88
330
A02
100
AcDbEntity
  8
Body001
100
AcDbLine
 10
21.1875
 20
54.525
 30
0
 11
21.1875
 21
40.725
 31
0
  0
LINE
  5
C89
330
A02
100
AcDbEntity
  8
Body001
100
AcDbLine
 10
21.1875
 20
54.525
 30
3
 11
21.1875
 21
54.525
 31
0
  0
LINE
  5
C8A
330
A02
100
AcDbEntity
  8
Body001
100
AcDbLine
 10
7.3875
 20
54.525
 30
3
 11
21.1875
 21
54.525
 31
3
  0
LINE
  5
C8B
330
A02
100
AcDbEntity
  8
Body001
100
AcDbLine
 10
21.1875
 20
54.525
 30
3
 11
21.1875
 21
54.525
 31
0
  0
LINE
  5
C8C
330
A02
100
AcDbEntity
  8
Body001
100
AcDbLine
 10
7.3875
 20
54.525
 30
0
 11
21.1875
 21
54.525
 31
0
  0
LINE
  5
C8D
330
A02
100
AcDbEntity
  8
Body001
100
AcDbLine
 10
7.3875
 20
54.525
 30
3
 11
7.3875
 21
54.525
 31
0
  0
LINE
  5
C8E
330
A02
100
AcDbEntity
  8
Body001
100
AcDbLine
 10
45
 20
54.525
 30
3
 11
31.2
 21
54.525
 31
3
  0
LINE
  5
C8F
330
A02
100
AcDbEntity
  8
Body001
100
AcDbLine
 10
31.2
 20
54.525
 30
3
 11
31.2
 21
54.525
 31
0
  0
LINE
  5
C90
330
A02
100
AcDbEntity
  8
Body001
100
AcDbLine
 10
45
 20
54.525
 30
0
 11
31.2
 21
54.525
 31
0
  0
LINE
  5
C91
330
A02
100
AcDbEntity
  8
Body001
100
AcDbLine
 10
45
 20
54.525
 30
3
 11
45
 21
54.525
 31
0
  0
LINE
  5
C92
330
A02
100
AcDbEntity
  8
Body001
100
AcDbLine
 10
45
 20
40.725
 30
3
 11
45
 21
54.525
 31
3
  0
LINE
  5
C93
330
A02
100
AcDbEntity
  8
Body001
100
AcDbLine
 10
45
 20
54.525
 30
3
 11
45
 21
54.525
 31
0
  0
LINE
  5
C94
330
A02
100
AcDbEntity
  8
Body001
100
AcDbLine
 10
45
 20
40.725
 30
0
 11
45
 21
54.525
 31
0
  0
LINE
  5
C95
330
A02
100
AcDbEntity
  8
Body001
100
AcDbLine
 10
45
 20
40.725
 30
3
 11
45
 21
40.725
 31
0
  0
LINE
  5
C96
330
A02
100
AcDbEntity
  8
Body001
100
AcDbLine
 10
31.2
 20
54.525
 30
3
 11
31.2
 21
40.725
 31
3
  0
LINE
  5
C97
330
A02
100
AcDbEntity
  8
Body001
100
AcDbLine
 10
31.2
 20
40.725
 30
3
 11
31.2
 21
40.725
 31
0
  0
LINE
  5
C98
330
A02
100
AcDbEntity
  8
Body001
100
AcDbLine
 10
31.2
 20
54.525
 30
0
 11
31.2
 21
40.725
 31
0
  0
LINE
  5
C99
330
A02
100
AcDbEntity
  8
Body001
100
AcDbLine
 10
31.2
 20
54.525
 30
3
 11
31.2
 21
54.525
 31
0
  0
LINE
  5
C9A
330
A02
100
AcDbEntity
  8
Body001
100
AcDbLine
 10
31.2
 20
40.725
 30
3
 11
45
 21
40.725
 31
3
  0
LINE
  5
C9B
330
A02
100
AcDbEntity
  8
Body001
100
AcDbLine
 10
45
 20
40.725
 30
3
 11
45
 21
40.725
 31
0
  0
LINE
  5
C9C
330
A02
100
AcDbEntity
  8
Body001
100
AcDbLine
 10
31.2
 20
40.725
 30
0
 11
45
 21
40.725
 31
0
  0
LINE
  5
C9D
330
A02
100
AcDbEntity
  8
Body001
100
AcDbLine
 10
31.2
 20
40.725
 30
3
 11
31.2
 21
40.725
 31
0
  0
LINE
  5
C9E
330
A02
100
AcDbEntity
  8
Body001
100
AcDbLine
 10
64.05
 20
45
 30
3
 11
64.05
 21
31.2
 31
3
  0
LINE
  5
C9F
330
A02
100
AcDbEntity
  8
Body001
100
AcDbLine
 10
64.05
 20
31.2
 30
3
 11
64.05
 21
31.2
 31
0
  0
LINE
  5
CA0
330
A02
100
AcDbEntity
  8
Body001
100
AcDbLine
 10
64.05
 20
45
 30
0
 11
64.05
 21
31.2
 31
0
  0
LINE
  5
CA1
330
A02
100
AcDbEntity
  8
Body001
100
AcDbLine
 10
64.05
 20
45
 30
3
 11
64.05
 21
45
 31
0
  0
LINE
  5
CA2
330
A02
100
AcDbEntity
  8
Body001
100
AcDbLine
 10
50.25
 20
45
 30
3
 11
64.05
 21
45
 31
3
  0
LINE
  5
CA3
330
A02
100
AcDbEntity
  8
Body001
100
AcDbLine
 10
64.05
 20
45
 30
3
 11
64.05
 21
45
 31
0
  0
LINE
  5
CA4
330
A02
100
AcDbEntity
  8
Body001
100
AcDbLine
 10
50.25
 20
45
 30
0
 11
64.05
 21
45
 31
0
  0
LINE
  5
CA5
330
A02
100
AcDbEntity
  8
Body001
100
AcDbLine
 10
50.25
 20
45
 30
3
 11
50.25
 21
45
 31
0
  0
LINE
  5
CA6
330
A02
100
AcDbEntity
  8
Body001
100
AcDbLine
 10
64.05
 20
31.2
 30
3
 11
50.25
 21
31.2
 31
3
  0
LINE
  5
CA7
330
A02
100
AcDbEntity
  8
Body001
100
AcDbLine
 10
50.25
 20
31.2
 30
3
 11
50.25
 21
31.2
 31
0
  0
LINE
  5
CA8
330
A02
100
AcDbEntity
  8
Body001
100
AcDbLine
 10
64.05
 20
31.2
 30
0
 11
50.25
 21
31.2
 31
0
  0
LINE
  5
CA9
330
A02
100
AcDbEntity
  8
Body001
100
AcDbLine
 10
64.05
 20
31.2
 30
3
 11
64.05
 21
31.2
 31
0
  0
LINE
  5
CAA
330
A02
100
AcDbEntity
  8
Body001
100
AcDbLine
 10
50.25
 20
31.2
 30
3
 11
50.25
 21
45
 31
3
  0
LINE
  5
CAB
330
A02
100
AcDbEntity
  8
Body001
100
AcDbLine
 10
50.25
 20
45
 30
3
 11
50.25
 21
45
 31
0
  0
LINE
  5
CAC
330
A02
100
AcDbEntity
  8
Body001
100
AcDbLine
 10
50.25
 20
31.2
 30
0
 11
50.25
 21
45
 31
0
  0
LINE
  5
CAD
330
A02
100
AcDbEntity
  8
Body001
100
AcDbLine
 10
50.25
 20
31.2
 30
3
 11
50.25
 21
31.2
 31
0
  0
LINE
  5
CAE
330
A02
100
AcDbEntity
  8
Body001
100
AcDbLine
 10
83.1
 20
49.7625
 30
3
 11
69.3
 21
49.7625
 31
3
  0
LINE
  5
CAF
330
A02
100
AcDbEntity
  8
Body001
100
AcDbLine
 10
69.3
 20
49.7625
 30
3
 11
69.3
 21
49.7625
 31
0
  0
LINE
  5
CB0
330
A02
100
AcDbEntity
  8
Body001
100
AcDbLine
 10
83.1
 20
49.7625
 30
0
 11
69.3
 21
49.7625
 31
0
  0
LINE
  5
CB1
330
A02
100
AcDbEntity
  8
Body001
100
AcDbLine
 10
83.1
 20
49.7625
 30
3
 11
83.1
 21
49.7625
 31
0
  0
LINE
  5
CB2
330
A02
100
AcDbEntity
  8
Body001
100
AcDbLine
 10
83.1
 20
35.9625
 30
3
 11
83.1
 21
49.7625
 31
3
  0
LINE
  5
CB3
330
A02
100
AcDbEntity
  8
Body001
100
AcDbLine
 10
83.1
 20
49.7625
 30
3
 11
83.1
 21
49.7625
 31
0
  0
LINE
  5
CB4
330
A02
100
AcDbEntity
  8
Body001
100
AcDbLine
 10
83.1
 20
35.9625
 30
0
 11
83.1
 21
49.7625
 31
0
  0
LINE
  5
CB5
330
A02
100
AcDbEntity
  8
Body001
100
AcDbLine
 10
83.1
 20
35.9625
 30
3
 11
83.1
 21
35.9625
 31
0
  0
LINE
  5
CB6
330
A02
100
AcDbEntity
  8
Body001
100
AcDbLine
 10
69.3
 20
49.7625
 30
3
 11
69.3
 21
35.9625
 31
3
  0
LINE
  5
CB7
330
A02
100
AcDbEntity
  8
Body001
100
AcDbLine
 10
69.3
 20
35.9625
 30
3
 11
69.3
 21
35.9625
 31
0
  0
LINE
  5
CB8
330
A02
100
AcDbEntity
  8
Body001
100
AcDbLine
 10
69.3
 20
49.7625
 30
0
 11
69.3
 21
35.9625
 31
0
  0
LINE
  5
CB9
330
A02
100
AcDbEntity
  8
Body001
100
AcDbLine
 10
69.3
 20
49.7625
 30
3
 11
69.3
 21
49.7625
 31
0
  0
LINE
  5
CBA
330
A02
100
AcDbEntity
  8
Body001
100
AcDbLine
 10
69.3
 20
35.9625
 30
3
 11
83.1
 21
35.9625
 31
3
  0
LINE
  5
CBB
330
A02
100
AcDbEntity
  8
Body001
100
AcDbLine
 10
83.1
 20
35.9625
 30
3
 11
83.1
 21
35.9625
 31
0
  0
LINE
  5
CBC
330
A02
100
AcDbEntity
  8
Body001
100
AcDbLine
 10
69.3
 20
35.9625
 30
0
 11
83.1
 21
35.9625
 31
0
  0
LINE
  5
CBD
330
A02
100
AcDbEntity
  8
Body001
100
AcDbLine
 10
69.3
 20
35.9625
 30
3
 11
69.3
 21
35.9625
 31
0
  0
LINE
  5
CBE
330
A02
100
AcDbEntity
  8
Body001
100
AcDbLine
 10
64.05
 20
64.05
 30
3
 11
64.05
 21
50.25
 31
3
  0
LINE
  5
CBF
330
A02
100
AcDbEntity
  8
Body001
100
AcDbLine
 10
64.05
 20
50.25
 30
3
 11
64.05
 21
50.25
 31
0
  0
LINE
  5
CC0
330
A02
100
AcDbEntity
  8
Body001
100
AcDbLine
 10
64.05
 20
64.05
 30
0
 11
64.05
 21
50.25
 31
0
  0
LINE
  5
CC1
330
A02
100
AcDbEntity
  8
Body001
100
AcDbLine
 10
64.05
 20
64.05
 30
3
 11
64.05
 21
64.05
 31
0
  0
LINE
  5
CC2
330
A02
100
AcDbEntity
  8
Body001
100
AcDbLine
 10
50.25
 20
64.05
 30
3
 11
64.05
 21
64.05
 31
3
  0
LINE
  5
CC3
330
A02
100
AcDbEntity
  8
Body001
100
AcDbLine
 10
64.05
 20
64.05
 30
3
 11
64.05
 21
64.05
 31
0
  0
LINE
  5
CC4
330
A02
100
AcDbEntity
  8
Body001
100
AcDbLine
 10
50.25
 20
64.05
 30
0
 11
64.05
 21
64.05
 31
0
  0
LINE
  5
CC5
330
A02
100
AcDbEntity
  8
Body001
100
AcDbLine
 10
50.25
 20
64.05
 30
3
 11
50.25
 21
64.05
 31
0
  0
LINE
  5
CC6
330
A02
100
AcDbEntity
  8
Body001
100
AcDbLine
 10
64.05
 20
50.25
 30
3
 11
50.25
 21
50.25
 31
3
  0
LINE
  5
CC7
330
A02
100
AcDbEntity
  8
Body001
100
AcDbLine
 10
50.25
 20
50.25
 30
3
 11
50.25
 21
50.25
 31
0
  0
LINE
  5
CC8
330
A02
100
AcDbEntity
  8
Body001
100
AcDbLine
 10
64.05
 20
50.25
 30
0
 11
50.25
 21
50.25
 31
0
  0
LINE
  5
CC9
330
A02
100
AcDbEntity
  8
Body001
100
AcDbLine
 10
64.05
 20
50.25
 30
3
 11
64.05
 21
50.25
 31
0
  0
LINE
  5
CCA
330
A02
100
AcDbEntity
  8
Body001
100
AcDbLine
 10
50.25
 20
50.25
 30
3
 11
50.25
 21
64.05
 31
3
  0
LINE
  5
CCB
330
A02
100
AcDbEntity
  8
Body001
100
AcDbLine
 10
50.25
 20
64.05
 30
3
 11
50.25
 21
64.05
 31
0
  0
LINE
  5
CCC
330
A02
100
AcDbEntity
  8
Body001
100
AcDbLine
 10
50.25
 20
50.25
 30
0
 11
50.25
 21
64.05
 31
0
  0
LINE
  5
CCD
330
A02
100
AcDbEntity
  8
Body001
100
AcDbLine
 10
50.25
 20
50.25
 30
3
 11
50.25
 21
50.25
 31
0
  0
LINE
  5
CCE
330
A02
100
AcDbEntity
  8
Body001
100
AcDbLine
 10
7.3875
 20
59.775
 30
3
 11
7.3875
 21
73.575
 31
3
  0
LINE
  5
CCF
330
A02
100
AcDbEntity
  8
Body001
100
AcDbLine
 10
7.3875
 20
73.575
 30
3
 11
7.3875
 21
73.575
 31
0
  0
LINE
  5
CD0
330
A02
100
AcDbEntity
  8
Body001
100
AcDbLine
 10
7.3875
 20
59.775
 30
0
 11
7.3875
 21
73.575
 31
0
  0
LINE
  5
CD1
330
A02
100
AcDbEntity
  8
Body001
100
AcDbLine
 10
7.3875
 20
59.775
 30
3
 11
7.3875
 21
59.775
 31
0
  0
LINE
  5
CD2
330
A02
100
AcDbEntity
  8
Body001
100
AcDbLine
 10
21.1875
 20
59.775
 30
3
 11
7.3875
 21
59.775
 31
3
  0
LINE
  5
CD3
330
A02
100
AcDbEntity
  8
Body001
100
AcDbLine
 10
7.3875
 20
59.775
 30
3
 11
7.3875
 21
59.775
 31
0
  0
LINE
  5
CD4
330
A02
100
AcDbEntity
  8
Body001
100
AcDbLine
 10
21.1875
 20
59.775
 30
0
 11
7.3875
 21
59.775
 31
0
  0
LINE
  5
CD5
330
A02
100
AcDbEntity
  8
Body001
100
AcDbLine
 10
21.1875
 20
59.775
 30
3
 11
21.1875
 21
59.775
 31
0
  0
LINE
  5
CD6
330
A02
100
AcDbEntity
  8
Body001
100
AcDbLine
 10
21.1875
 20
73.575
 30
3
 11
21.1875
 21
59.775
 31
3
  0
LINE
  5
CD7
330
A02
100
AcDbEntity
  8
Body001
100
AcDbLine
 10
21.1875
 20
59.775
 30
3
 11
21.1875
 21
59.775
 31
0
  0
LINE
  5
CD8
330
A02
100
AcDbEntity
  8
Body001
100
AcDbLine
 10
21.1875
 20
73.575
 30
0
 11
21.1875
 21
59.775
 31
0
  0
LINE
  5
CD9
330
A02
100
AcDbEntity
  8
Body001
100
AcDbLine
 10
21.1875
 20
73.575
 30
3
 11
21.1875
 21
73.575
 31
0
  0
LINE
  5
CDA
330
A02
100
AcDbEntity
  8
Body001
100
AcDbLine
 10
7.3875
 20
73.575
 30
3
 11
21.1875
 21
73.575
 31
3
  0
LINE
  5
CDB
330
A02
100
AcDbEntity
  8
Body001
100
AcDbLine
 10
21.1875
 20
73.575
 30
3
 11
21.1875
 21
73.575
 31
0
  0
LINE
  5
CDC
330
A02
100
AcDbEntity
  8
Body001
100
AcDbLine
 10
7.3875
 20
73.575
 30
0
 11
21.1875
 21
73.575
 31
0
  0
LINE
  5
CDD
330
A02
100
AcDbEntity
  8
Body001
100
AcDbLine
 10
7.3875
 20
73.575
 30
3
 11
7.3875
 21
73.575
 31
0
  0
LINE
  5
CDE
330
A02
100
AcDbEntity
  8
Body001
100
AcDbLine
 10
31.2
 20
59.775
 30
3
 11
31.2
 21
73.575
 31
3
  0
LINE
  5
CDF
330
A02
100
AcDbEntity
  8
Body001
100
AcDbLine
 10
31.2
 20
73.575
 30
3
 11
31.2
 21
73.575
 31
0
  0
LINE
  5
CE0
330
A02
100
AcDbEntity
  8
Body001
100
AcDbLine
 10
31.2
 20
59.775
 30
0
 11
31.2
 21
73.575
 31
0
  0
LINE
  5
CE1
330
A02
100
AcDbEntity
  8
Body001
100
AcDbLine
 10
31.2
 20
59.775
 30
3
 11
31.2
 21
59.775
 31
0
  0
LINE
  5
CE2
330
A02
100
AcDbEntity
  8
Body001
100
AcDbLine
 10
45
 20
59.775
 30
3
 11
31.2
 21
59.775
 31
3
  0
LINE
  5
CE3
330
A02
100
AcDbEntity
  8
Body001
100
AcDbLine
 10
31.2
 20
59.775
 30
3
 11
31.2
 21
59.775
 31
0
  0
LINE
  5
CE4
330
A02
100
AcDbEntity
  8
Body001
100
AcDbLine
 10
45
 20
59.775
 30
0
 11
31.2
 21
59.775
 31
0
  0
LINE
  5
CE5
330
A02
100
AcDbEntity
  8
Body001
100
AcDbLine
 10
45
 20
59.775
 30
3
 11
45
 21
59.775
 31
0
  0
LINE
  5
CE6
330
A02
100
AcDbEntity
  8
Body001
100
AcDbLine
 10
31.2
 20
73.575
 30
3
 11
45
 21
73.575
 31
3
  0
LINE
  5
CE7
330
A02
100
AcDbEntity
  8
Body001
100
AcDbLine
 10
45
 20
73.575
 30
3
 11
45
 21
73.575
 31
0
  0
LINE
  5
CE8
330
A02
100
AcDbEntity
  8
Body001
100
AcDbLine
 10
31.2
 20
73.575
 30
0
 11
45
 21
73.575
 31
0
  0
LINE
  5
CE9
330
A02
100
AcDbEntity
  8
Body001
100
AcDbLine
 10
31.2
 20
73.575
 30
3
 11
31.2
 21
73.575
 31
0
  0
LINE
  5
CEA
330
A02
100
AcDbEntity
  8
Body001
100
AcDbLine
 10
45
 20
73.575
 30
3
 11
45
 21
59.775
 31
3
  0
LINE
  5
CEB
330
A02
100
AcDbEntity
  8
Body001
100
AcDbLine
 10
45
 20
59.775
 30
3
 11
45
 21
59.775
 31
0
  0
LINE
  5
CEC
330
A02
100
AcDbEntity
  8
Body001
100
AcDbLine
 10
45
 20
73.575
 30
0
 11
45
 21
59.775
 31
0
  0
LINE
  5
CED
330
A02
100
AcDbEntity
  8
Body001
100
AcDbLine
 10
45
 20
73.575
 30
3
 11
45
 21
73.575
 31
0
  0
CIRCLE
  5
CEE
330
A02
100
AcDbEntity
  8
Body001
100
AcDbCircle
 10
-4.375
 20
80.575
 40
1.45
  0
LINE
  5
CEF
330
A02
100
AcDbEntity
  8
Body001
100
AcDbLine
 10
-2.925
 20
80.575
 30
0
 11
-2.925
 21
80.575
 31
3
  0
CIRCLE
  5
CF0
330
A02
100
AcDbEntity
  8
Body001
100
AcDbCircle
 10
-4.375
 20
80.575
 40
1.45
  0
LINE
  5
CF1
330
A02
100
AcDbEntity
  8
Body001
100
AcDbLine
 10
-2.925
 20
80.575
 30
0
 11
-2.925
 21
80.575
 31
3
  0
LINE
  5
CF2
330
A02
100
AcDbEntity
  8
Body001
100
AcDbLine
 10
64.05
 20
83.1
 30
3
 11
64.05
 21
69.3
 31
3
  0
LINE
  5
CF3
330
A02
100
AcDbEntity
  8
Body001
100
AcDbLine
 10
64.05
 20
69.3
 30
3
 11
64.05
 21
69.3
 31
0
  0
LINE
  5
CF4
330
A02
100
AcDbEntity
  8
Body001
100
AcDbLine
 10
64.05
 20
83.1
 30
0
 11
64.05
 21
69.3
 31
0
  0
LINE
  5
CF5
330
A02
100
AcDbEntity
  8
Body001
100
AcDbLine
 10
64.05
 20
83.1
 30
3
 11
64.05
 21
83.1
 31
0
  0
LINE
  5
CF6
330
A02
100
AcDbEntity
  8
Body001
100
AcDbLine
 10
50.25
 20
83.1
 30
3
 11
64.05
 21
83.1
 31
3
  0
LINE
  5
CF7
330
A02
100
AcDbEntity
  8
Body001
100
AcDbLine
 10
64.05
 20
83.1
 30
3
 11
64.05
 21
83.1
 31
0
  0
LINE
  5
CF8
330
A02
100
AcDbEntity
  8
Body001
100
AcDbLine
 10
50.25
 20
83.1
 30
0
 11
64.05
 21
83.1
 31
0
  0
LINE
  5
CF9
330
A02
100
AcDbEntity
  8
Body001
100
AcDbLine
 10
50.25
 20
83.1
 30
3
 11
50.25
 21
83.1
 31
0
  0
LINE
  5
CFA
330
A02
100
AcDbEntity
  8
Body001
100
AcDbLine
 10
64.05
 20
69.3
 30
3
 11
50.25
 21
69.3
 31
3
  0
LINE
  5
CFB
330
A02
100
AcDbEntity
  8
Body001
100
AcDbLine
 10
50.25
 20
69.3
 30
3
 11
50.25
 21
69.3
 31
0
  0
LINE
  5
CFC
330
A02
100
AcDbEntity
  8
Body001
100
AcDbLine
 10
64.05
 20
69.3
 30
0
 11
50.25
 21
69.3
 31
0
  0
LINE
  5
CFD
330
A02
100
AcDbEntity
  8
Body001
100
AcDbLine
 10
64.05
 20
69.3
 30
3
 11
64.05
 21
69.3
 31
0
  0
LINE
  5
CFE
330
A02
100
AcDbEntity
  8
Body001
100
AcDbLine
 10
50.25
 20
69.3
 30
3
 11
50.25
 21
83.1
 31
3
  0
LINE
  5
CFF
330
A02
100
AcDbEntity
  8
Body001
100
AcDbLine
 10
50.25
 20
83.1
 30
3
 11
50.25
 21
83.1
 31
0
  0
LINE
  5
D00
330
A02
100
AcDbEntity
  8
Body001
100
AcDbLine
 10
50.25
 20
69.3
 30
0
 11
50.25
 21
83.1
 31
0
  0
LINE
  5
D01
330
A02
100
AcDbEntity
  8
Body001
100
AcDbLine
 10
50.25
 20
69.3
 30
3
 11
50.25
 21
69.3
 31
0
  0
LINE
  5
D02
330
A02
100
AcDbEntity
  8
Body001
100
AcDbLine
 10
69.3
 20
55.0125
 30
3
 11
69.3
 21
68.8125
 31
3
  0
LINE
  5
D03
330
A02
100
AcDbEntity
  8
Body001
100
AcDbLine
 10
69.3
 20
68.8125
 30
3
 11
69.3
 21
68.8125
 31
0
  0
LINE
  5
D04
330
A02
100
AcDbEntity
  8
Body001
100
AcDbLine
 10
69.3
 20
55.0125
 30
0
 11
69.3
 21
68.8125
 31
0
  0
LINE
  5
D05
330
A02
100
AcDbEntity
  8
Body001
100
AcDbLine
 10
69.3
 20
55.0125
 30
3
 11
69.3
 21
55.0125
 31
0
  0
LINE
  5
D06
330
A02
100
AcDbEntity
  8
Body001
100
AcDbLine
 10
83.1
 20
55.0125
 30
3
 11
69.3
 21
55.0125
 31
3
  0
LINE
  5
D07
330
A02
100
AcDbEntity
  8
Body001
100
AcDbLine
 10
69.3
 20
55.0125
 30
3
 11
69.3
 21
55.0125
 31
0
  0
LINE
  5
D08
330
A02
100
AcDbEntity
  8
Body001
100
AcDbLine
 10
83.1
 20
55.0125
 30
0
 11
69.3
 21
55.0125
 31
0
  0
LINE
  5
D09
330
A02
100
AcDbEntity
  8
Body001
100
AcDbLine
 10
83.1
 20
55.0125
 30
3
 11
83.1
 21
55.0125
 31
0
  0
LINE
  5
D0A
330
A02
100
AcDbEntity
  8
Body001
100
AcDbLine
 10
69.3
 20
68.8125
 30
3
 11
83.1
 21
68.8125
 31
3
  0
LINE
  5
D0B
330
A02
100
AcDbEntity
  8
Body001
100
AcDbLine
 10
83.1
 20
68.8125
 30
3
 11
83.1
 21
68.8125
 31
0
  0
LINE
  5
D0C
330
A02
100
AcDbEntity
  8
Body001
100
AcDbLine
 10
69.3
 20
68.8125
 30
0
 11
83.1
 21
68.8125
 31
0
  0
LINE
  5
D0D
330
A02
100
AcDbEntity
  8
Body001
100
AcDbLine
 10
69.3
 20
68.8125
 30
3
 11
69.3
 21
68.8125
 31
0
  0
LINE
  5
D0E
330
A02
100
AcDbEntity
  8
Body001
100
AcDbLine
 10
83.1
 20
68.8125
 30
3
 11
83.1
 21
55.0125
 31
3
  0
LINE
  5
D0F
330
A02
100
AcDbEntity
  8
Body001
100
AcDbLine
 10
83.1
 20
55.0125
 30
3
 11
83.1
 21
55.0125
 31
0
  0
LINE
  5
D10
330
A02
100
AcDbEntity
  8
Body001
100
AcDbLine
 10
83.1
 20
68.8125
 30
0
 11
83.1
 21
55.0125
 31
0
  0
LINE
  5
D11
330
A02
100
AcDbEntity
  8
Body001
100
AcDbLine
 10
83.1
 20
68.8125
 30
3
 11
83.1
 21
68.8125
 31
0
  0
CIRCLE
  5
D12
330
A02
100
AcDbEntity
  8
Body001
100
AcDbCircle
 10
57.15
 20
92.085
 40
1.45
  0
LINE
  5
D13
330
A02
100
AcDbEntity
  8
Body001
100
AcDbLine
 10
58.6
 20
92.085
 30
0
 11
58.6
 21
92.085
 31
3
  0
CIRCLE
  5
D14
330
A02
100
AcDbEntity
  8
Body001
100
AcDbCircle
 10
57.15
 20
92.085
 40
1.45
  0
LINE
  5
D15
330
A02
100
AcDbEntity
  8
Body001
100
AcDbLine
 10
58.6
 20
92.085
 30
0
 11
58.6
 21
92.085
 31
3
  0
LINE
  5
D16
330
A02
100
AcDbEntity
  8
Body001
100
AcDbLine
 10
69.3
 20
74.0625
 30
3
 11
69.3
 21
87.8625
 31
3
  0
LINE
  5
D17
330
A02
100
AcDbEntity
  8
Body001
100
AcDbLine
 10
69.3
 20
87.8625
 30
3
 11
69.3
 21
87.8625
 31
0
  0
LINE
  5
D18
330
A02
100
AcDbEntity
  8
Body001
100
AcDbLine
 10
69.3
 20
74.0625
 30
0
 11
69.3
 21
87.8625
 31
0
  0
LINE
  5
D19
330
A02
100
AcDbEntity
  8
Body001
100
AcDbLine
 10
69.3
 20
74.0625
 30
3
 11
69.3
 21
74.0625
 31
0
  0
LINE
  5
D1A
330
A02
100
AcDbEntity
  8
Body001
100
AcDbLine
 10
83.1
 20
74.0625
 30
3
 11
69.3
 21
74.0625
 31
3
  0
LINE
  5
D1B
330
A02
100
AcDbEntity
  8
Body001
100
AcDbLine
 10
69.3
 20
74.0625
 30
3
 11
69.3
 21
74.0625
 31
0
  0
LINE
  5
D1C
330
A02
100
AcDbEntity
  8
Body001
100
AcDbLine
 10
83.1
 20
74.0625
 30
0
 11
69.3
 21
74.0625
 31
0
  0
LINE
  5
D1D
330
A02
100
AcDbEntity
  8
Body001
100
AcDbLine
 10
83.1
 20
74.0625
 30
3
 11
83.1
 21
74.0625
 31
0
  0
LINE
  5
D1E
330
A02
100
AcDbEntity
  8
Body001
100
AcDbLine
 10
69.3
 20
87.8625
 30
3
 11
83.1
 21
87.8625
 31
3
  0
LINE
  5
D1F
330
A02
100
AcDbEntity
  8
Body001
100
AcDbLine
 10
83.1
 20
87.8625
 30
3
 11
83.1
 21
87.8625
 31
0
  0
LINE
  5
D20
330
A02
100
AcDbEntity
  8
Body001
100
AcDbLine
 10
69.3
 20
87.8625
 30
0
 11
83.1
 21
87.8625
 31
0
  0
LINE
  5
D21
330
A02
100
AcDbEntity
  8
Body001
100
AcDbLine
 10
69.3
 20
87.8625
 30
3
 11
69.3
 21
87.8625
 31
0
  0
LINE
  5
D22
330
A02
100
AcDbEntity
  8
Body001
100
AcDbLine
 10
83.1
 20
87.8625
 30
3
 11
83.1
 21
74.0625
 31
3
  0
LINE
  5
D23
330
A02
100
AcDbEntity
  8
Body001
100
AcDbLine
 10
83.1
 20
74.0625
 30
3
 11
83.1
 21
74.0625
 31
0
  0
LINE
  5
D24
330
A02
100
AcDbEntity
  8
Body001
100
AcDbLine
 10
83.1
 20
87.8625
 30
0
 11
83.1
 21
74.0625
 31
0
  0
LINE
  5
D25
330
A02
100
AcDbEntity
  8
Body001
100
AcDbLine
 10
83.1
 20
87.8625
 30
3
 11
83.1
 21
87.8625
 31
0
  0
LINE
  5
D26
330
A02
100
AcDbEntity
  8
Body001
100
AcDbLine
 10
102.15
 20
45
 30
3
 11
102.15
 21
31.2
 31
3
  0
LINE
  5
D27
330
A02
100
AcDbEntity
  8
Body001
100
AcDbLine
 10
102.15
 20
31.2
 30
3
 11
102.15
 21
31.2
 31
0
  0
LINE
  5
D28
330
A02
100
AcDbEntity
  8
Body001
100
AcDbLine
 10
102.15
 20
45
 30
0
 11
102.15
 21
31.2
 31
0
  0
LINE
  5
D29
330
A02
100
AcDbEntity
  8
Body001
100
AcDbLine
 10
102.15
 20
45
 30
3
 11
102.15
 21
45
 31
0
  0
LINE
  5
D2A
330
A02
100
AcDbEntity
  8
Body001
100
AcDbLine
 10
88.35
 20
45
 30
3
 11
102.15
 21
45
 31
3
  0
LINE
  5
D2B
330
A02
100
AcDbEntity
  8
Body001
100
AcDbLine
 10
102.15
 20
45
 30
3
 11
102.15
 21
45
 31
0
  0
LINE
  5
D2C
330
A02
100
AcDbEntity
  8
Body001
100
AcDbLine
 10
88.35
 20
45
 30
0
 11
102.15
 21
45
 31
0
  0
LINE
  5
D2D
330
A02
100
AcDbEntity
  8
Body001
100
AcDbLine
 10
88.35
 20
45
 30
3
 11
88.35
 21
45
 31
0
  0
LINE
  5
D2E
330
A02
100
AcDbEntity
  8
Body001
100
AcDbLine
 10
102.15
 20
31.2
 30
3
 11
88.35
 21
31.2
 31
3
  0
LINE
  5
D2F
330
A02
100
AcDbEntity
  8
Body001
100
AcDbLine
 10
88.35
 20
31.2
 30
3
 11
88.35
 21
31.2
 31
0
  0
LINE
  5
D30
330
A02
100
AcDbEntity
  8
Body001
100
AcDbLine
 10
102.15
 20
31.2
 30
0
 11
88.35
 21
31.2
 31
0
  0
LINE
  5
D31
330
A02
100
AcDbEntity
  8
Body001
100
AcDbLine
 10
102.15
 20
31.2
 30
3
 11
102.15
 21
31.2
 31
0
  0
LINE
  5
D32
330
A02
100
AcDbEntity
  8
Body001
100
AcDbLine
 10
88.35
 20
31.2
 30
3
 11
88.35
 21
45
 31
3
  0
LINE
  5
D33
330
A02
100
AcDbEntity
  8
Body001
100
AcDbLine
 10
88.35
 20
45
 30
3
 11
88.35
 21
45
 31
0
  0
LINE
  5
D34
330
A02
100
AcDbEntity
  8
Body001
100
AcDbLine
 10
88.35
 20
31.2
 30
0
 11
88.35
 21
45
 31
0
  0
LINE
  5
D35
330
A02
100
AcDbEntity
  8
Body001
100
AcDbLine
 10
88.35
 20
31.2
 30
3
 11
88.35
 21
31.2
 31
0
  0
LINE
  5
D36
330
A02
100
AcDbEntity
  8
Body001
100
AcDbLine
 10
121.2
 20
40.2375
 30
3
 11
121.2
 21
26.4375
 31
3
  0
LINE
  5
D37
330
A02
100
AcDbEntity
  8
Body001
100
AcDbLine
 10
121.2
 20
26.4375
 30
3
 11
121.2
 21
26.4375
 31
0
  0
LINE
  5
D38
330
A02
100
AcDbEntity
  8
Body001
100
AcDbLine
 10
121.2
 20
40.2375
 30
0
 11
121.2
 21
26.4375
 31
0
  0
LINE
  5
D39
330
A02
100
AcDbEntity
  8
Body001
100
AcDbLine
 10
121.2
 20
40.2375
 30
3
 11
121.2
 21
40.2375
 31
0
  0
LINE
  5
D3A
330
A02
100
AcDbEntity
  8
Body001
100
AcDbLine
 10
107.4
 20
40.2375
 30
3
 11
121.2
 21
40.2375
 31
3
  0
LINE
  5
D3B
330
A02
100
AcDbEntity
  8
Body001
100
AcDbLine
 10
121.2
 20
40.2375
 30
3
 11
121.2
 21
40.2375
 31
0
  0
LINE
  5
D3C
330
A02
100
AcDbEntity
  8
Body001
100
AcDbLine
 10
107.4
 20
40.2375
 30
0
 11
121.2
 21
40.2375
 31
0
  0
LINE
  5
D3D
330
A02
100
AcDbEntity
  8
Body001
100
AcDbLine
 10
107.4
 20
40.2375
 30
3
 11
107.4
 21
40.2375
 31
0
  0
LINE
  5
D3E
330
A02
100
AcDbEntity
  8
Body001
100
AcDbLine
 10
121.2
 20
26.4375
 30
3
 11
107.4
 21
26.4375
 31
3
  0
LINE
  5
D3F
330
A02
100
AcDbEntity
  8
Body001
100
AcDbLine
 10
107.4
 20
26.4375
 30
3
 11
107.4
 21
26.4375
 31
0
  0
LINE
  5
D40
330
A02
100
AcDbEntity
  8
Body001
100
AcDbLine
 10
121.2
 20
26.4375
 30
0
 11
107.4
 21
26.4375
 31
0
  0
LINE
  5
D41
330
A02
100
AcDbEntity
  8
Body001
100
AcDbLine
 10
121.2
 20
26.4375
 30
3
 11
121.2
 21
26.4375
 31
0
  0
LINE
  5
D42
330
A02
100
AcDbEntity
  8
Body001
100
AcDbLine
 10
107.4
 20
26.4375
 30
3
 11
107.4
 21
40.2375
 31
3
  0
LINE
  5
D43
330
A02
100
AcDbEntity
  8
Body001
100
AcDbLine
 10
107.4
 20
40.2375
 30
3
 11
107.4
 21
40.2375
 31
0
  0
LINE
  5
D44
330
A02
100
AcDbEntity
  8
Body001
100
AcDbLine
 10
107.4
 20
26.4375
 30
0
 11
107.4
 21
40.2375
 31
0
  0
LINE
  5
D45
330
A02
100
AcDbEntity
  8
Body001
100
AcDbLine
 10
107.4
 20
26.4375
 30
3
 11
107.4
 21
26.4375
 31
0
  0
LINE
  5
D46
330
A02
100
AcDbEntity
  8
Body001
100
AcDbLine
 10
88.35
 20
50.25
 30
3
 11
102.15
 21
50.25
 31
3
  0
LINE
  5
D47
330
A02
100
AcDbEntity
  8
Body001
100
AcDbLine
 10
102.15
 20
50.25
 30
3
 11
102.15
 21
50.25
 31
0
  0
LINE
  5
D48
330
A02
100
AcDbEntity
  8
Body001
100
AcDbLine
 10
88.35
 20
50.25
 30
0
 11
102.15
 21
50.25
 31
0
  0
LINE
  5
D49
330
A02
100
AcDbEntity
  8
Body001
100
AcDbLine
 10
88.35
 20
50.25
 30
3
 11
88.35
 21
50.25
 31
0
  0
LINE
  5
D4A
330
A02
100
AcDbEntity
  8
Body001
100
AcDbLine
 10
88.35
 20
64.05
 30
3
 11
88.35
 21
50.25
 31
3
  0
LINE
  5
D4B
330
A02
100
AcDbEntity
  8
Body001
100
AcDbLine
 10
88.35
 20
50.25
 30
3
 11
88.35
 21
50.25
 31
0
  0
LINE
  5
D4C
330
A02
100
AcDbEntity
  8
Body001
100
AcDbLine
 10
88.35
 20
64.05
 30
0
 11
88.35
 21
50.25
 31
0
  0
LINE
  5
D4D
330
A02
100
AcDbEntity
  8
Body001
100
AcDbLine
 10
88.35
 20
64.05
 30
3
 11
88.35
 21
64.05
 31
0
  0
LINE
  5
D4E
330
A02
100
AcDbEntity
  8
Body001
100
AcDbLine
 10
102.15
 20
50.25
 30
3
 11
102.15
 21
64.05
 31
3
  0
LINE
  5
D4F
330
A02
100
AcDbEntity
  8
Body001
100
AcDbLine
 10
102.15
 20
64.05
 30
3
 11
102.15
 21
64.05
 31
0
  0
LINE
  5
D50
330
A02
100
AcDbEntity
  8
Body001
100
AcDbLine
 10
102.15
 20
50.25
 30
0
 11
102.15
 21
64.05
 31
0
  0
LINE
  5
D51
330
A02
100
AcDbEntity
  8
Body001
100
AcDbLine
 10
102.15
 20
50.25
 30
3
 11
102.15
 21
50.25
 31
0
  0
LINE
  5
D52
330
A02
100
AcDbEntity
  8
Body001
100
AcDbLine
 10
102.15
 20
64.05
 30
3
 11
88.35
 21
64.05
 31
3
  0
LINE
  5
D53
330
A02
100
AcDbEntity
  8
Body001
100
AcDbLine
 10
88.35
 20
64.05
 30
3
 11
88.35
 21
64.05
 31
0
  0
LINE
  5
D54
330
A02
100
AcDbEntity
  8
Body001
100
AcDbLine
 10
102.15
 20
64.05
 30
0
 11
88.35
 21
64.05
 31
0
  0
LINE
  5
D55
330
A02
100
AcDbEntity
  8
Body001
100
AcDbLine
 10
102.15
 20
64.05
 30
3
 11
102.15
 21
64.05
 31
0
  0
LINE
  5
D56
330
A02
100
AcDbEntity
  8
Body001
100
AcDbLine
 10
107.4
 20
45.4875
 30
3
 11
121.2
 21
45.4875
 31
3
  0
LINE
  5
D57
330
A02
100
AcDbEntity
  8
Body001
100
AcDbLine
 10
121.2
 20
45.4875
 30
3
 11
121.2
 21
45.4875
 31
0
  0
LINE
  5
D58
330
A02
100
AcDbEntity
  8
Body001
100
AcDbLine
 10
107.4
 20
45.4875
 30
0
 11
121.2
 21
45.4875
 31
0
  0
LINE
  5
D59
330
A02
100
AcDbEntity
  8
Body001
100
AcDbLine
 10
107.4
 20
45.4875
 30
3
 11
107.4
 21
45.4875
 31
0
  0
LINE
  5
D5A
330
A02
100
AcDbEntity
  8
Body001
100
AcDbLine
 10
107.4
 20
59.2875
 30
3
 11
107.4
 21
45.4875
 31
3
  0
LINE
  5
D5B
330
A02
100
AcDbEntity
  8
Body001
100
AcDbLine
 10
107.4
 20
45.4875
 30
3
 11
107.4
 21
45.4875
 31
0
  0
LINE
  5
D5C
330
A02
100
AcDbEntity
  8
Body001
100
AcDbLine
 10
107.4
 20
59.2875
 30
0
 11
107.4
 21
45.4875
 31
0
  0
LINE
  5
D5D
330
A02
100
AcDbEntity
  8
Body001
100
AcDbLine
 10
107.4
 20
59.2875
 30
3
 11
107.4
 21
59.2875
 31
0
  0
LINE
  5
D5E
330
A02
100
AcDbEntity
  8
Body001
100
AcDbLine
 10
121.2
 20
45.4875
 30
3
 11
121.2
 21
59.2875
 31
3
  0
LINE
  5
D5F
330
A02
100
AcDbEntity
  8
Body001
100
AcDbLine
 10
121.2
 20
59.2875
 30
3
 11
121.2
 21
59.2875
 31
0
  0
LINE
  5
D60
330
A02
100
AcDbEntity
  8
Body001
100
AcDbLine
 10
121.2
 20
45.4875
 30
0
 11
121.2
 21
59.2875
 31
0
  0
LINE
  5
D61
330
A02
100
AcDbEntity
  8
Body001
100
AcDbLine
 10
121.2
 20
45.4875
 30
3
 11
121.2
 21
45.4875
 31
0
  0
LINE
  5
D62
330
A02
100
AcDbEntity
  8
Body001
100
AcDbLine
 10
121.2
 20
59.2875
 30
3
 11
107.4
 21
59.2875
 31
3
  0
LINE
  5
D63
330
A02
100
AcDbEntity
  8
Body001
100
AcDbLine
 10
107.4
 20
59.2875
 30
3
 11
107.4
 21
59.2875
 31
0
  0
LINE
  5
D64
330
A02
100
AcDbEntity
  8
Body001
100
AcDbLine
 10
121.2
 20
59.2875
 30
0
 11
107.4
 21
59.2875
 31
0
  0
LINE
  5
D65
330
A02
100
AcDbEntity
  8
Body001
100
AcDbLine
 10
121.2
 20
59.2875
 30
3
 11
121.2
 21
59.2875
 31
0
  0
LINE
  5
D66
330
A02
100
AcDbEntity
  8
Body001
100
AcDbLine
 10
126.45
 20
40.725
 30
3
 11
126.45
 21
54.525
 31
3
  0
LINE
  5
D67
330
A02
100
AcDbEntity
  8
Body001
100
AcDbLine
 10
126.45
 20
54.525
 30
3
 11
126.45
 21
54.525
 31
0
  0
LINE
  5
D68
330
A02
100
AcDbEntity
  8
Body001
100
AcDbLine
 10
126.45
 20
40.725
 30
0
 11
126.45
 21
54.525
 31
0
  0
LINE
  5
D69
330
A02
100
AcDbEntity
  8
Body001
100
AcDbLine
 10
126.45
 20
40.725
 30
3
 11
126.45
 21
40.725
 31
0
  0
LINE
  5
D6A
330
A02
100
AcDbEntity
  8
Body001
100
AcDbLine
 10
140.25
 20
40.725
 30
3
 11
126.45
 21
40.725
 31
3
  0
LINE
  5
D6B
330
A02
100
AcDbEntity
  8
Body001
100
AcDbLine
 10
126.45
 20
40.725
 30
3
 11
126.45
 21
40.725
 31
0
  0
LINE
  5
D6C
330
A02
100
AcDbEntity
  8
Body001
100
AcDbLine
 10
140.25
 20
40.725
 30
0
 11
126.45
 21
40.725
 31
0
  0
LINE
  5
D6D
330
A02
100
AcDbEntity
  8
Body001
100
AcDbLine
 10
140.25
 20
40.725
 30
3
 11
140.25
 21
40.725
 31
0
  0
LINE
  5
D6E
330
A02
100
AcDbEntity
  8
Body001
100
AcDbLine
 10
126.45
 20
54.525
 30
3
 11
140.25
 21
54.525
 31
3
  0
LINE
  5
D6F
330
A02
100
AcDbEntity
  8
Body001
100
AcDbLine
 10
140.25
 20
54.525
 30
3
 11
140.25
 21
54.525
 31
0
  0
LINE
  5
D70
330
A02
100
AcDbEntity
  8
Body001
100
AcDbLine
 10
126.45
 20
54.525
 30
0
 11
140.25
 21
54.525
 31
0
  0
LINE
  5
D71
330
A02
100
AcDbEntity
  8
Body001
100
AcDbLine
 10
126.45
 20
54.525
 30
3
 11
126.45
 21
54.525
 31
0
  0
LINE
  5
D72
330
A02
100
AcDbEntity
  8
Body001
100
AcDbLine
 10
140.25
 20
54.525
 30
3
 11
140.25
 21
40.725
 31
3
  0
LINE
  5
D73
330
A02
100
AcDbEntity
  8
Body001
100
AcDbLine
 10
140.25
 20
40.725
 30
3
 11
140.25
 21
40.725
 31
0
  0
LINE
  5
D74
330
A02
100
AcDbEntity
  8
Body001
100
AcDbLine
 10
140.25
 20
54.525
 30
0
 11
140.25
 21
40.725
 31
0
  0
LINE
  5
D75
330
A02
100
AcDbEntity
  8
Body001
100
AcDbLine
 10
140.25
 20
54.525
 30
3
 11
140.25
 21
54.525
 31
0
  0
LINE
  5
D76
330
A02
100
AcDbEntity
  8
Body001
100
AcDbLine
 10
102.15
 20
83.1
 30
3
 11
102.15
 21
69.3
 31
3
  0
LINE
  5
D77
330
A02
100
AcDbEntity
  8
Body001
100
AcDbLine
 10
102.15
 20
69.3
 30
3
 11
102.15
 21
69.3
 31
0
  0
LINE
  5
D78
330
A02
100
AcDbEntity
  8
Body001
100
AcDbLine
 10
102.15
 20
83.1
 30
0
 11
102.15
 21
69.3
 31
0
  0
LINE
  5
D79
330
A02
100
AcDbEntity
  8
Body001
100
AcDbLine
 10
102.15
 20
83.1
 30
3
 11
102.15
 21
83.1
 31
0
  0
LINE
  5
D7A
330
A02
100
AcDbEntity
  8
Body001
100
AcDbLine
 10
88.35
 20
83.1
 30
3
 11
102.15
 21
83.1
 31
3
  0
LINE
  5
D7B
330
A02
100
AcDbEntity
  8
Body001
100
AcDbLine
 10
102.15
 20
83.1
 30
3
 11
102.15
 21
83.1
 31
0
  0
LINE
  5
D7C
330
A02
100
AcDbEntity
  8
Body001
100
AcDbLine
 10
88.35
 20
83.1
 30
0
 11
102.15
 21
83.1
 31
0
  0
LINE
  5
D7D
330
A02
100
AcDbEntity
  8
Body001
100
AcDbLine
 10
88.35
 20
83.1
 30
3
 11
88.35
 21
83.1
 31
0
  0
LINE
  5
D7E
330
A02
100
AcDbEntity
  8
Body001
100
AcDbLine
 10
102.15
 20
69.3
 30
3
 11
88.35
 21
69.3
 31
3
  0
LINE
  5
D7F
330
A02
100
AcDbEntity
  8
Body001
100
AcDbLine
 10
88.35
 20
69.3
 30
3
 11
88.35
 21
69.3
 31
0
  0
LINE
  5
D80
330
A02
100
AcDbEntity
  8
Body001
100
AcDbLine
 10
102.15
 20
69.3
 30
0
 11
88.35
 21
69.3
 31
0
  0
LINE
  5
D81
330
A02
100
AcDbEntity
  8
Body001
100
AcDbLine
 10
102.15
 20
69.3
 30
3
 11
102.15
 21
69.3
 31
0
  0
LINE
  5
D82
330
A02
100
AcDbEntity
  8
Body001
100
AcDbLine
 10
88.35
 20
69.3
 30
3
 11
88.35
 21
83.1
 31
3
  0
LINE
  5
D83
330
A02
100
AcDbEntity
  8
Body001
100
AcDbLine
 10
88.35
 20
83.1
 30
3
 11
88.35
 21
83.1
 31
0
  0
LINE
  5
D84
330
A02
100
AcDbEntity
  8
Body001
100
AcDbLine
 10
88.35
 20
69.3
 30
0
 11
88.35
 21
83.1
 31
0
  0
LINE
  5
D85
330
A02
100
AcDbEntity
  8
Body001
100
AcDbLine
 10
88.35
 20
69.3
 30
3
 11
88.35
 21
69.3
 31
0
  0
LINE
  5
D86
330
A02
100
AcDbEntity
  8
Body001
100
AcDbLine
 10
107.4
 20
64.5375
 30
3
 11
121.2
 21
64.5375
 31
3
  0
LINE
  5
D87
330
A02
100
AcDbEntity
  8
Body001
100
AcDbLine
 10
121.2
 20
64.5375
 30
3
 11
121.2
 21
64.5375
 31
0
  0
LINE
  5
D88
330
A02
100
AcDbEntity
  8
Body001
100
AcDbLine
 10
107.4
 20
64.5375
 30
0
 11
121.2
 21
64.5375
 31
0
  0
LINE
  5
D89
330
A02
100
AcDbEntity
  8
Body001
100
AcDbLine
 10
107.4
 20
64.5375
 30
3
 11
107.4
 21
64.5375
 31
0
  0
LINE
  5
D8A
330
A02
100
AcDbEntity
  8
Body001
100
AcDbLine
 10
107.4
 20
78.3375
 30
3
 11
107.4
 21
64.5375
 31
3
  0
LINE
  5
D8B
330
A02
100
AcDbEntity
  8
Body001
100
AcDbLine
 10
107.4
 20
64.5375
 30
3
 11
107.4
 21
64.5375
 31
0
  0
LINE
  5
D8C
330
A02
100
AcDbEntity
  8
Body001
100
AcDbLine
 10
107.4
 20
78.3375
 30
0
 11
107.4
 21
64.5375
 31
0
  0
LINE
  5
D8D
330
A02
100
AcDbEntity
  8
Body001
100
AcDbLine
 10
107.4
 20
78.3375
 30
3
 11
107.4
 21
78.3375
 31
0
  0
LINE
  5
D8E
330
A02
100
AcDbEntity
  8
Body001
100
AcDbLine
 10
121.2
 20
64.5375
 30
3
 11
121.2
 21
78.3375
 31
3
  0
LINE
  5
D8F
330
A02
100
AcDbEntity
  8
Body001
100
AcDbLine
 10
121.2
 20
78.3375
 30
3
 11
121.2
 21
78.3375
 31
0
  0
LINE
  5
D90
330
A02
100
AcDbEntity
  8
Body001
100
AcDbLine
 10
121.2
 20
64.5375
 30
0
 11
121.2
 21
78.3375
 31
0
  0
LINE
  5
D91
330
A02
100
AcDbEntity
  8
Body001
100
AcDbLine
 10
121.2
 20
64.5375
 30
3
 11
121.2
 21
64.5375
 31
0
  0
LINE
  5
D92
330
A02
100
AcDbEntity
  8
Body001
100
AcDbLine
 10
121.2
 20
78.3375
 30
3
 11
107.4
 21
78.3375
 31
3
  0
LINE
  5
D93
330
A02
100
AcDbEntity
  8
Body001
100
AcDbLine
 10
107.4
 20
78.3375
 30
3
 11
107.4
 21
78.3375
 31
0
  0
LINE
  5
D94
330
A02
100
AcDbEntity
  8
Body001
100
AcDbLine
 10
121.2
 20
78.3375
 30
0
 11
107.4
 21
78.3375
 31
0
  0
LINE
  5
D95
330
A02
100
AcDbEntity
  8
Body001
100
AcDbLine
 10
121.2
 20
78.3375
 30
3
 11
121.2
 21
78.3375
 31
0
  0
CIRCLE
  5
D96
330
A02
100
AcDbEntity
  8
Body001
100
AcDbCircle
 10
95.25
 20
92.085
 40
1.45
  0
LINE
  5
D97
330
A02
100
AcDbEntity
  8
Body001
100
AcDbLine
 10
96.7
 20
92.085
 30
0
 11
96.7
 21
92.085
 31
3
  0
CIRCLE
  5
D98
330
A02
100
AcDbEntity
  8
Body001
100
AcDbCircle
 10
95.25
 20
92.085
 40
1.45
  0
LINE
  5
D99
330
A02
100
AcDbEntity
  8
Body001
100
AcDbLine
 10
96.7
 20
92.085
 30
0
 11
96.7
 21
92.085
 31
3
  0
LINE
  5
D9A
330
A02
100
AcDbEntity
  8
Body001
100
AcDbLine
 10
126.45
 20
64.5375
 30
3
 11
126.45
 21
78.3375
 31
3
  0
LINE
  5
D9B
330
A02
100
AcDbEntity
  8
Body001
100
AcDbLine
 10
126.45
 20
78.3375
 30
3
 11
126.45
 21
78.3375
 31
0
  0
LINE
  5
D9C
330
A02
100
AcDbEntity
  8
Body001
100
AcDbLine
 10
126.45
 20
64.5375
 30
0
 11
126.45
 21
78.3375
 31
0
  0
LINE
  5
D9D
330
A02
100
AcDbEntity
  8
Body001
100
AcDbLine
 10
126.45
 20
64.5375
 30
3
 11
126.45
 21
64.5375
 31
0
  0
LINE
  5
D9E
330
A02
100
AcDbEntity
  8
Body001
100
AcDbLine
 10
140.25
 20
64.5375
 30
3
 11
126.45
 21
64.5375
 31
3
  0
LINE
  5
D9F
330
A02
100
AcDbEntity
  8
Body001
100
AcDbLine
 10
126.45
 20
64.5375
 30
3
 11
126.45
 21
64.5375
 31
0
  0
LINE
  5
DA0
330
A02
100
AcDbEntity
  8
Body001
100
AcDbLine
 10
140.25
 20
64.5375
 30
0
 11
126.45
 21
64.5375
 31
0
  0
LINE
  5
DA1
330
A02
100
AcDbEntity
  8
Body001
100
AcDbLine
 10
140.25
 20
64.5375
 30
3
 11
140.25
 21
64.5375
 31
0
  0
LINE
  5
DA2
330
A02
100
AcDbEntity
  8
Body001
100
AcDbLine
 10
126.45
 20
78.3375
 30
3
 11
140.25
 21
78.3375
 31
3
  0
LINE
  5
DA3
330
A02
100
AcDbEntity
  8
Body001
100
AcDbLine
 10
140.25
 20
78.3375
 30
3
 11
140.25
 21
78.3375
 31
0
  0
LINE
  5
DA4
330
A02
100
AcDbEntity
  8
Body001
100
AcDbLine
 10
126.45
 20
78.3375
 30
0
 11
140.25
 21
78.3375
 31
0
  0
LINE
  5
DA5
330
A02
100
AcDbEntity
  8
Body001
100
AcDbLine
 10
126.45
 20
78.3375
 30
3
 11
126.45
 21
78.3375
 31
0
  0
LINE
  5
DA6
330
A02
100
AcDbEntity
  8
Body001
100
AcDbLine
 10
140.25
 20
78.3375
 30
3
 11
140.25
 21
64.5375
 31
3
  0
LINE
  5
DA7
330
A02
100
AcDbEntity
  8
Body001
100
AcDbLine
 10
140.25
 20
64.5375
 30
3
 11
140.25
 21
64.5375
 31
0
  0
LINE
  5
DA8
330
A02
100
AcDbEntity
  8
Body001
100
AcDbLine
 10
140.25
 20
78.3375
 30
0
 11
140.25
 21
64.5375
 31
0
  0
LINE
  5
DA9
330
A02
100
AcDbEntity
  8
Body001
100
AcDbLine
 10
140.25
 20
78.3375
 30
3
 11
140.25
 21
78.3375
 31
0
  0
CIRCLE
  5
DAA
330
A02
100
AcDbEntity
  8
Body001
100
AcDbCircle
 10
147.25
 20
74.3375
 40
0.15
  0
LINE
  5
DAB
330
A02
100
AcDbEntity
  8
Body001
100
AcDbLine
 10
147.4
 20
74.3375
 30
0
 11
147.4
 21
74.3375
 31
3
  0
CIRCLE
  5
DAC
330
A02
100
AcDbEntity
  8
Body001
100
AcDbCircle
 10
147.25
 20
74.3375
 40
0.15
  0
LINE
  5
DAD
330
A02
100
AcDbEntity
  8
Body001
100
AcDbLine
 10
147.4
 20
74.3375
 30
0
 11
147.4
 21
74.3375
 31
3
  0
CIRCLE
  5
DAE
330
A02
100
AcDbEntity
  8
Body001
100
AcDbCircle
 10
134.25
 20
85.3375
 40
0.15
  0
LINE
  5
DAF
330
A02
100
AcDbEntity
  8
Body001
100
AcDbLine
 10
134.4
 20
85.3375
 30
0
 11
134.4
 21
85.3375
 31
3
  0
CIRCLE
  5
DB0
330
A02
100
AcDbEntity
  8
Body001
100
AcDbCircle
 10
134.25
 20
85.3375
 40
0.15
  0
LINE
  5
DB1
330
A02
100
AcDbEntity
  8
Body001
100
AcDbLine
 10
134.4
 20
85.3375
 30
0
 11
134.4
 21
85.3375
 31
3
  0
CIRCLE
  5
DB2
330
A02
100
AcDbEntity
  8
Body001
100
AcDbCircle
 10
147.25
 20
85.3375
 40
1.45
  0
LINE
  5
DB3
330
A02
100
AcDbEntity
  8
Body001
100
AcDbLine
 10
148.7
 20
85.3375
 30
0
 11
148.7
 21
85.3375
 31
3
  0
CIRCLE
  5
DB4
330
A02
100
AcDbEntity
  8
Body001
100
AcDbCircle
 10
147.25
 20
85.3375
 40
1.45
  0
LINE
  5
DB5
330
A02
100
AcDbEntity
  8
Body001
100
AcDbLine
 10
148.7
 20
85.3375
 30
0
 11
148.7
 21
85.3375
 31
3
  0
ENDSEC
  0
SECTION
  2
OBJECTS
  0
DICTIONARY
  5
F000
330
0
100
AcDbDictionary
  3
ACAD_GROUP
350
F001
  0
DICTIONARY
  5
F001
330
F000
100
AcDbDictionary
  0
ENDSEC
  0
EOF