999
FreeCAD v0.19 24291 (Git)
  0
SECTION
  2
HEADER
  9
$ACADVER
  1
AC1014
  9
$ACADMAINTVER
 70
     9
  9
$DWGCODEPAGE
  3
ANSI_1252
  9
$TEXTSTYLE
  7
STANDARD
  9
$DIMSTYLE
  2
STANDARD
  9
$DIMTXSTY
  7
STANDARD
  9
$CMLSTYLE
  2
STANDARD
  9
$PEXTMAX
 10
50
 20
50
 30
50
  9
$PEXTMIN
 10
0
 20
0
 30
0
  9
$HANDSEED
  5
FFFF
  0
ENDSEC
  0
SECTION
  2
CLASSES
  0
CLASS
  1
ACDBDICTIONARYWDFLT
  2
AcDbDictionaryWithDefault
  3
ObjectDBX Classes
 90
        0
280
     0
281
     0
  0
CLASS
  1
XRECORD
  2
AcDbXrecord
  3
ObjectDBX Classes
 90
        0
280
     0
281
     0
  0
CLASS
  1
LWPOLYLINE
  2
AcDbPolyline
  3
ObjectDBX Classes
 90
        0
280
     0
281
     1
  0
ENDSEC
  0
SECTION
  2
TABLES
  0
TABLE
  2
VPORT
  5
20
330
0
100
AcDbSymbolTable
 70
     1
  0
VPORT
  5
21
330
20
100
AcDbSymbolTableRecord
100
AcDbViewportTableRecord
  2
*ACTIVE
 70
     0
  0
ENDTAB
  0
TABLE
  2
LTYPE
  5
22
330
0
100
AcDbSymbolTable
 70
     1
  0
LTYPE
  5
23
330
21
100
AcDbSymbolTableRecord
100
AcDbLinetypeTableRecord
  2
BYBLOCK
 70
     0
  3

 72
    65
 73
     0
 40
0.0
  0
LTYPE
  5
24
330
21
100
AcDbSymbolTableRecord
100
AcDbLinetypeTableRecord
  2
BYLAYER
 70
     0
  3

 72
    65
 73
     0
 40
0.0
  0
LTYPE
  5
25
330
21
100
AcDbSymbolTableRecord
100
AcDbLinetypeTableRecord
  2
CONTINUOUS
 70
     0
  3
Solid line
 72
    65
 73
     0
 40
0.0
  0
ENDTAB
  0
TABLE
  2
LAYER
  5
A68
330
0
100
AcDbSymbolTable
 70
3
  0
LAYER
  5
A69
330
A68
100
AcDbSymbolTableRecord
100
AcDbLayerTableRecord
  2
0
 70
   0
 62
   7
  6
CONTINUOUS
  0
LAYER
  5
A6A
330
A68
100
AcDbSymbolTableRecord
100
AcDbLayerTableRecord
  2
none
 70
    0
 62
    7
  6
CONTINUOUS
  0
LAYER
  5
A6B
330
A68
100
AcDbSymbolTableRecord
100
AcDbLayerTableRecord
  2
Body009
 70
    0
 62
    7
  6
CONTINUOUS
  0
ENDTAB
  0
TABLE
  2
STYLE
  5
70
330
0
100
AcDbSymbolTable
 70
     2
  0
STYLE
  5
71
330
70
100
AcDbSymbolTableRecord
100
AcDbTextStyleTableRecord
  2
STANDARD
 70
     0
 40
0.0
 41
1.0
 50
0.0
 71
     0
 42
2.5
  3
arial.ttf
  4

  0
STYLE
  5
72
330
70
100
AcDbSymbolTableRecord
100
AcDbTextStyleTableRecord
  2
ANNOTATIVE
 70
     0
 40
0.0
 41
1.0
 50
0.0
 71
     0
 42
2.5
  3
arial.ttf
  4

  0
ENDTAB
  0
TABLE
  2
VIEW
  5
73
330
0
100
AcDbSymbolTable
 70
     0
  0
ENDTAB
  0
TABLE
  2
UCS
  5
74
330
0
100
AcDbSymbolTable
 70
     0
  0
ENDTAB
  0
TABLE
  2
APPID
  5
75
330
0
100
AcDbSymbolTable
 70
     2
  0
APPID
  5
76
330
75
100
AcDbSymbolTableRecord
100
AcDbRegAppTableRecord
  2
ACAD
 70
     0
  0
APPID
  5
77
330
75
100
AcDbSymbolTableRecord
100
AcDbRegAppTableRecord
  2
ACADANNOTATIVE
 70
     0
  0
ENDTAB
  0
TABLE
  2
DIMSTYLE
  5
78
330
0
100
AcDbSymbolTable
 70
     2
  0
DIMSTYLE
105
79
330
78
100
AcDbSymbolTableRecord
100
AcDbDimStyleTableRecord
  2
STANDARD
 70
     0
  3

  4

  5

  6

  7

 40
0.0
 41
2.5
 42
0.625
 43
3.75
 44
1.25
 45
0.0
 46
0.0
 47
0.0
 48
0.0
140
2.5
141
2.5
142
0.0
143
0.03937007874016
144
1.0
145
0.0
146
1.0
147
0.625
 71
     0
 72
     0
 73
     0
 74
     0
 75
     0
 76
     0
 77
     1
 78
     8
170
     0
171
     3
172
     1
173
     0
174
     0
175
     0
176
     0
177
     0
178
     0
270
     2
271
     2
272
     2
273
     2
274
     3
340
71
275
     0
280
     0
281
     0
282
     0
283
     0
284
     8
285
     0
286
     0
287
     3
288
     0
  0
ENDTAB
  0
TABLE
  2
BLOCK_RECORD
  5
A01
330
0
100
AcDbSymbolTable
  70
5
  0
BLOCK_RECORD
  5
A02
330
A01
100
AcDbSymbolTableRecord
100
AcDbBlockTableRecord
  2
*MODEL_SPACE
  0
BLOCK_RECORD
  5
A03
330
A01
100
AcDbSymbolTableRecord
100
AcDbBlockTableRecord
  2
*PAPER_SPACE
  0
ENDTAB
  0
ENDSEC
  0
SECTION
  2
BLOCKS
  0
BLOCK
  5
A04
330
A02
100
AcDbEntity
  8
0
100
AcDbBlockBegin
  2
*MODEL_SPACE
 70
   0
 10
0
 20
0
 30
0
  3
*MODEL_SPACE
  1
 
  0
ENDBLK
  5
A05
330
A02
100
AcDbEntity
  8
0
100
AcDbBlockEnd
  0
BLOCK
  5
A06
330
A03
100
AcDbEntity
 67
1
  8
0
100
AcDbBlockBegin
  2
*PAPER_SPACE
 70
   0
 10
0
 20
0
 30
0
  3
*PAPER_SPACE
  1
 
  0
ENDBLK
  5
A07
330
A03
100
AcDbEntity
 67
    1
  8
0
100
AcDbBlockEnd
  0
ENDSEC
  0
SECTION
  2
ENTITIES
  0
SPLINE
  5
A08
330
A02
100
AcDbEntity
  8
Body009
100
AcDbSpline
210
0
220
0
230
1
 70
8
 71
3
 72
8
 73
4
 74
0
 40
0.0115163
 40
0.0115163
 40
0.0115163
 40
0.0115163
 40
0.987918
 40
0.987918
 40
0.987918
 40
0.987918
 10
76.6609
 20
-18.3684
 30
-18
 10
89.8303
 20
-19.4024
 30
-18
 10
115.266
 20
-21.4156
 30
-18
 10
151.868
 20
-37.5495
 30
-18
  0
SPLINE
  5
A09
330
A02
100
AcDbEntity
  8
Body009
100
AcDbSpline
210
0
220
0
230
1
 70
8
 71
1
 72
4
 73
2
 74
0
 40
-0
 40
-0
 40
3
 40
3
 10
76.6609
 20
-18.3684
 30
-18
 10
76.6609
 20
-18.3684
 30
-15
  0
SPLINE
  5
A0A
330
A02
100
AcDbEntity
  8
Body009
100
AcDbSpline
210
0
220
0
230
1
 70
8
 71
1
 72
4
 73
2
 74
0
 40
-2e-15
 40
-2e-15
 40
3
 40
3
 10
151.868
 20
-37.5495
 30
-18
 10
151.868
 20
-37.5495
 30
-15
  0
SPLINE
  5
A0B
330
A02
100
AcDbEntity
  8
Body009
100
AcDbSpline
210
0
220
0
230
1
 70
8
 71
3
 72
8
 73
4
 74
0
 40
0.0115163
 40
0.0115163
 40
0.0115163
 40
0.0115163
 40
0.987918
 40
0.987918
 40
0.987918
 40
0.987918
 10
76.6609
 20
-18.3684
 30
-15
 10
89.8303
 20
-19.4024
 30
-15
 10
115.266
 20
-21.4156
 30
-15
 10
151.868
 20
-37.5495
 30
-15
  0
SPLINE
  5
A0C
330
A02
100
AcDbEntity
  8
Body009
100
AcDbSpline
210
0
220
0
230
1
 70
8
 71
3
 72
8
 73
4
 74
0
 40
0.0115163
 40
0.0115163
 40
0.0115163
 40
0.0115163
 40
0.987918
 40
0.987918
 40
0.987918
 40
0.987918
 10
76.6609
 20
-18.3684
 30
-18
 10
89.8303
 20
-19.4024
 30
-18
 10
115.266
 20
-21.4156
 30
-18
 10
151.868
 20
-37.5495
 30
-18
  0
SPLINE
  5
A0D
330
A02
100
AcDbEntity
  8
Body009
100
AcDbSpline
210
0
220
0
230
1
 70
8
 71
3
 72
11
 73
7
 74
0
 40
0
 40
0
 40
0
 40
0
 40
0.5
 40
0.5
 40
0.5
 40
1
 40
1
 40
1
 40
1
 10
76.6609
 20
-18.3684
 30
-18
 10
76.5478
 20
-18.3609
 30
-18
 10
76.4211
 20
-18.3064
 30
-18
 10
76.3329
 20
-18.2094
 30
-18
 10
76.2431
 20
-18.1139
 30
-18
 10
76.1987
 20
-17.9833
 30
-18
 10
76.2
 20
-17.87
 30
-18
  0
SPLINE
  5
A0E
330
A02
100
AcDbEntity
  8
Body009
100
AcDbSpline
210
0
220
0
230
1
 70
8
 71
3
 72
11
 73
7
 74
0
 40
0
 40
0
 40
0
 40
0
 40
0.500008
 40
0.500008
 40
0.500008
 40
1
 40
1
 40
1
 40
1
 10
151.868
 20
-37.5495
 30
-18
 10
152.201
 20
-37.7005
 30
-18
 10
152.634
 20
-37.7258
 30
-18
 10
153.012
 20
-37.5767
 30
-18
 10
153.393
 20
-37.4335
 30
-18
 10
153.697
 20
-37.1245
 30
-18
 10
153.842
 20
-36.7891
 30
-18
  0
LINE
  5
A0F
330
A02
100
AcDbEntity
  8
Body009
100
AcDbLine
 10
76.2
 20
-17.87
 30
-18
 11
76.2
 21
97.9875
 31
-18
  0
LINE
  5
A10
330
A02
100
AcDbEntity
  8
Body009
100
AcDbLine
 10
153.842
 20
-36.7891
 30
-18
 11
174.706
 21
9.88355
 31
-18
  0
ARC
  5
A11
330
A02
100
AcDbEntity
  8
Body009
100
AcDbCircle
 10
76.7
 20
97.9875
 30
-18
 40
0.5
100
AcDbArc
 50
90
 51
180
  0
SPLINE
  5
A12
330
A02
100
AcDbEntity
  8
Body009
100
AcDbSpline
210
0
220
0
230
1
 70
8
 71
3
 72
11
 73
7
 74
0
 40
0
 40
0
 40
0
 40
0
 40
0.499993
 40
0.499993
 40
0.499993
 40
1
 40
1
 40
1
 40
1
 10
174.706
 20
9.88355
 30
-18
 10
174.857
 20
10.2117
 30
-18
 10
174.886
 20
10.6372
 30
-18
 10
174.745
 20
11.0124
 30
-18
 10
174.61
 20
11.3896
 30
-18
 10
174.312
 20
11.6954
 30
-18
 10
173.985
 20
11.8483
 30
-18
  0
LINE
  5
A13
330
A02
100
AcDbEntity
  8
Body009
100
AcDbLine
 10
85.725
 20
98.4875
 30
-18
 11
76.7
 21
98.4875
 31
-18
  0
SPLINE
  5
A14
330
A02
100
AcDbEntity
  8
Body009
100
AcDbSpline
210
0
220
0
230
1
 70
8
 71
3
 72
8
 73
4
 74
0
 40
0.0108859
 40
0.0108859
 40
0.0108859
 40
0.0108859
 40
0.981589
 40
0.981589
 40
0.981589
 40
0.981589
 10
150.875
 20
87.466
 30
-18
 10
150.878
 20
43.2515
 30
-18
 10
151.131
 20
22.8061
 30
-18
 10
173.985
 20
11.8483
 30
-18
  0
SPLINE
  5
A15
330
A02
100
AcDbEntity
  8
Body009
100
AcDbSpline
210
0
220
0
230
1
 70
8
 71
3
 72
8
 73
4
 74
0
 40
0
 40
0
 40
0
 40
0
 40
0.989085
 40
0.989085
 40
0.989085
 40
0.989085
 10
85.725
 20
98.4875
 30
-18
 10
104.567
 20
98.4875
 30
-18
 10
104.773
 20
89.1693
 30
-18
 10
149.382
 20
88.9659
 30
-18
  0
SPLINE
  5
A16
330
A02
100
AcDbEntity
  8
Body009
100
AcDbSpline
210
0
220
0
230
1
 70
8
 71
3
 72
11
 73
7
 74
0
 40
0
 40
0
 40
0
 40
0
 40
0.500008
 40
0.500008
 40
0.500008
 40
1
 40
1
 40
1
 40
1
 10
150.875
 20
87.466
 30
-18
 10
150.879
 20
87.8318
 30
-18
 10
150.727
 20
88.2381
 30
-18
 10
150.438
 20
88.5242
 30
-18
 10
150.153
 20
88.8147
 30
-18
 10
149.748
 20
88.968
 30
-18
 10
149.382
 20
88.9659
 30
-18
  0
CIRCLE
  5
A17
330
A02
100
AcDbEntity
  8
Body009
100
AcDbCircle
 10
95.25
 20
-13.9
 40
1.45
  0
CIRCLE
  5
A18
330
A02
100
AcDbEntity
  8
Body009
100
AcDbCircle
 10
151.402
 20
-33.3662
 40
1.45
  0
CIRCLE
  5
A19
330
A02
100
AcDbEntity
  8
Body009
100
AcDbCircle
 10
170.521
 20
9.40487
 40
1.45
  0
CIRCLE
  5
A1A
330
A02
100
AcDbEntity
  8
Body009
100
AcDbCircle
 10
95.25
 20
92.085
 40
1.45
  0
CIRCLE
  5
A1B
330
A02
100
AcDbEntity
  8
Body009
100
AcDbCircle
 10
147.25
 20
85.3375
 40
1.45
  0
SPLINE
  5
A1C
330
A02
100
AcDbEntity
  8
Body009
100
AcDbSpline
210
0
220
0
230
1
 70
8
 71
3
 72
11
 73
7
 74
0
 40
0
 40
0
 40
0
 40
0
 40
0.5
 40
0.5
 40
0.5
 40
1
 40
1
 40
1
 40
1
 10
76.6609
 20
-18.3684
 30
-18
 10
76.5478
 20
-18.3609
 30
-18
 10
76.4211
 20
-18.3064
 30
-18
 10
76.3329
 20
-18.2094
 30
-18
 10
76.2431
 20
-18.1139
 30
-18
 10
76.1987
 20
-17.9833
 30
-18
 10
76.2
 20
-17.87
 30
-18
  0
SPLINE
  5
A1D
330
A02
100
AcDbEntity
  8
Body009
100
AcDbSpline
210
0
220
0
230
1
 70
8
 71
1
 72
4
 73
2
 74
0
 40
-0
 40
-0
 40
3
 40
3
 10
76.6609
 20
-18.3684
 30
-18
 10
76.6609
 20
-18.3684
 30
-15
  0
SPLINE
  5
A1E
330
A02
100
AcDbEntity
  8
Body009
100
AcDbSpline
210
0
220
0
230
1
 70
8
 71
1
 72
4
 73
2
 74
0
 40
0
 40
0
 40
3
 40
3
 10
76.2
 20
-17.87
 30
-18
 10
76.2
 20
-17.87
 30
-15
  0
SPLINE
  5
A1F
330
A02
100
AcDbEntity
  8
Body009
100
AcDbSpline
210
0
220
0
230
1
 70
8
 71
3
 72
11
 73
7
 74
0
 40
0
 40
0
 40
0
 40
0
 40
0.5
 40
0.5
 40
0.5
 40
1
 40
1
 40
1
 40
1
 10
76.6609
 20
-18.3684
 30
-15
 10
76.5478
 20
-18.3609
 30
-15
 10
76.4211
 20
-18.3064
 30
-15
 10
76.3329
 20
-18.2094
 30
-15
 10
76.2431
 20
-18.1139
 30
-15
 10
76.1987
 20
-17.9833
 30
-15
 10
76.2
 20
-17.87
 30
-15
  0
SPLINE
  5
A20
330
A02
100
AcDbEntity
  8
Body009
100
AcDbSpline
210
0
220
0
230
1
 70
8
 71
3
 72
11
 73
7
 74
0
 40
0
 40
0
 40
0
 40
0
 40
0.500008
 40
0.500008
 40
0.500008
 40
1
 40
1
 40
1
 40
1
 10
151.868
 20
-37.5495
 30
-18
 10
152.201
 20
-37.7005
 30
-18
 10
152.634
 20
-37.7258
 30
-18
 10
153.012
 20
-37.5767
 30
-18
 10
153.393
 20
-37.4335
 30
-18
 10
153.697
 20
-37.1245
 30
-18
 10
153.842
 20
-36.7891
 30
-18
  0
SPLINE
  5
A21
330
A02
100
AcDbEntity
  8
Body009
100
AcDbSpline
210
0
220
0
230
1
 70
8
 71
1
 72
4
 73
2
 74
0
 40
-2e-15
 40
-2e-15
 40
3
 40
3
 10
151.868
 20
-37.5495
 30
-18
 10
151.868
 20
-37.5495
 30
-15
  0
SPLINE
  5
A22
330
A02
100
AcDbEntity
  8
Body009
100
AcDbSpline
210
0
220
0
230
1
 70
8
 71
1
 72
4
 73
2
 74
0
 40
-2e-15
 40
-2e-15
 40
3
 40
3
 10
153.842
 20
-36.7891
 30
-18
 10
153.842
 20
-36.7891
 30
-15
  0
SPLINE
  5
A23
330
A02
100
AcDbEntity
  8
Body009
100
AcDbSpline
210
0
220
0
230
1
 70
8
 71
3
 72
11
 73
7
 74
0
 40
0
 40
0
 40
0
 40
0
 40
0.500008
 40
0.500008
 40
0.500008
 40
1
 40
1
 40
1
 40
1
 10
151.868
 20
-37.5495
 30
-15
 10
152.201
 20
-37.7005
 30
-15
 10
152.634
 20
-37.7258
 30
-15
 10
153.012
 20
-37.5767
 30
-15
 10
153.393
 20
-37.4335
 30
-15
 10
153.697
 20
-37.1245
 30
-15
 10
153.842
 20
-36.7891
 30
-15
  0
SPLINE
  5
A24
330
A02
100
AcDbEntity
  8
Body009
100
AcDbSpline
210
0
220
0
230
1
 70
8
 71
3
 72
8
 73
4
 74
0
 40
0.0115163
 40
0.0115163
 40
0.0115163
 40
0.0115163
 40
0.987918
 40
0.987918
 40
0.987918
 40
0.987918
 10
76.6609
 20
-18.3684
 30
-15
 10
89.8303
 20
-19.4024
 30
-15
 10
115.266
 20
-21.4156
 30
-15
 10
151.868
 20
-37.5495
 30
-15
  0
SPLINE
  5
A25
330
A02
100
AcDbEntity
  8
Body009
100
AcDbSpline
210
0
220
0
230
1
 70
8
 71
3
 72
11
 73
7
 74
0
 40
0
 40
0
 40
0
 40
0
 40
0.5
 40
0.5
 40
0.5
 40
1
 40
1
 40
1
 40
1
 10
76.6609
 20
-18.3684
 30
-15
 10
76.5478
 20
-18.3609
 30
-15
 10
76.4211
 20
-18.3064
 30
-15
 10
76.3329
 20
-18.2094
 30
-15
 10
76.2431
 20
-18.1139
 30
-15
 10
76.1987
 20
-17.9833
 30
-15
 10
76.2
 20
-17.87
 30
-15
  0
SPLINE
  5
A26
330
A02
100
AcDbEntity
  8
Body009
100
AcDbSpline
210
0
220
0
230
1
 70
8
 71
3
 72
11
 73
7
 74
0
 40
0
 40
0
 40
0
 40
0
 40
0.500008
 40
0.500008
 40
0.500008
 40
1
 40
1
 40
1
 40
1
 10
151.868
 20
-37.5495
 30
-15
 10
152.201
 20
-37.7005
 30
-15
 10
152.634
 20
-37.7258
 30
-15
 10
153.012
 20
-37.5767
 30
-15
 10
153.393
 20
-37.4335
 30
-15
 10
153.697
 20
-37.1245
 30
-15
 10
153.842
 20
-36.7891
 30
-15
  0
LINE
  5
A27
330
A02
100
AcDbEntity
  8
Body009
100
AcDbLine
 10
76.2
 20
-17.87
 30
-15
 11
76.2
 21
97.9875
 31
-15
  0
LINE
  5
A28
330
A02
100
AcDbEntity
  8
Body009
100
AcDbLine
 10
153.842
 20
-36.7891
 30
-15
 11
174.706
 21
9.88355
 31
-15
  0
ARC
  5
A29
330
A02
100
AcDbEntity
  8
Body009
100
AcDbCircle
 10
76.7
 20
97.9875
 30
-15
 40
0.5
100
AcDbArc
 50
90
 51
180
  0
SPLINE
  5
A2A
330
A02
100
AcDbEntity
  8
Body009
100
AcDbSpline
210
0
220
0
230
1
 70
8
 71
3
 72
11
 73
7
 74
0
 40
0
 40
0
 40
0
 40
0
 40
0.499993
 40
0.499993
 40
0.499993
 40
1
 40
1
 40
1
 40
1
 10
174.706
 20
9.88355
 30
-15
 10
174.857
 20
10.2117
 30
-15
 10
174.886
 20
10.6372
 30
-15
 10
174.745
 20
11.0124
 30
-15
 10
174.61
 20
11.3896
 30
-15
 10
174.312
 20
11.6954
 30
-15
 10
173.985
 20
11.8483
 30
-15
  0
LINE
  5
A2B
330
A02
100
AcDbEntity
  8
Body009
100
AcDbLine
 10
85.725
 20
98.4875
 30
-15
 11
76.7
 21
98.4875
 31
-15
  0
SPLINE
  5
A2C
330
A02
100
AcDbEntity
  8
Body009
100
AcDbSpline
210
0
220
0
230
1
 70
8
 71
3
 72
8
 73
4
 74
0
 40
0.0108859
 40
0.0108859
 40
0.0108859
 40
0.0108859
 40
0.981589
 40
0.981589
 40
0.981589
 40
0.981589
 10
150.875
 20
87.466
 30
-15
 10
150.878
 20
43.2515
 30
-15
 10
151.131
 20
22.8061
 30
-15
 10
173.985
 20
11.8483
 30
-15
  0
SPLINE
  5
A2D
330
A02
100
AcDbEntity
  8
Body009
100
AcDbSpline
210
0
220
0
230
1
 70
8
 71
3
 72
8
 73
4
 74
0
 40
0
 40
0
 40
0
 40
0
 40
0.989085
 40
0.989085
 40
0.989085
 40
0.989085
 10
85.725
 20
98.4875
 30
-15
 10
104.567
 20
98.4875
 30
-15
 10
104.773
 20
89.1693
 30
-15
 10
149.382
 20
88.9659
 30
-15
  0
SPLINE
  5
A2E
330
A02
100
AcDbEntity
  8
Body009
100
AcDbSpline
210
0
220
0
230
1
 70
8
 71
3
 72
11
 73
7
 74
0
 40
0
 40
0
 40
0
 40
0
 40
0.500008
 40
0.500008
 40
0.500008
 40
1
 40
1
 40
1
 40
1
 10
150.875
 20
87.466
 30
-15
 10
150.879
 20
87.8318
 30
-15
 10
150.727
 20
88.2381
 30
-15
 10
150.438
 20
88.5242
 30
-15
 10
150.153
 20
88.8147
 30
-15
 10
149.748
 20
88.968
 30
-15
 10
149.382
 20
88.9659
 30
-15
  0
CIRCLE
  5
A2F
330
A02
100
AcDbEntity
  8
Body009
100
AcDbCircle
 10
95.25
 20
-13.9
 40
1.45
  0
CIRCLE
  5
A30
330
A02
100
AcDbEntity
  8
Body009
100
AcDbCircle
 10
151.402
 20
-33.3662
 40
1.45
  0
CIRCLE
  5
A31
330
A02
100
AcDbEntity
  8
Body009
100
AcDbCircle
 10
170.521
 20
9.40487
 40
1.45
  0
CIRCLE
  5
A32
330
A02
100
AcDbEntity
  8
Body009
100
AcDbCircle
 10
95.25
 20
92.085
 40
1.45
  0
CIRCLE
  5
A33
330
A02
100
AcDbEntity
  8
Body009
100
AcDbCircle
 10
147.25
 20
85.3375
 40
1.45
  0
LINE
  5
A34
330
A02
100
AcDbEntity
  8
Body009
100
AcDbLine
 10
76.2
 20
-17.87
 30
-18
 11
76.2
 21
97.9875
 31
-18
  0
SPLINE
  5
A35
330
A02
100
AcDbEntity
  8
Body009
100
AcDbSpline
210
0
220
0
230
1
 70
8
 71
1
 72
4
 73
2
 74
0
 40
0
 40
0
 40
3
 40
3
 10
76.2
 20
-17.87
 30
-18
 10
76.2
 20
-17.87
 30
-15
  0
LINE
  5
A36
330
A02
100
AcDbEntity
  8
Body009
100
AcDbLine
 10
76.2
 20
97.9875
 30
-18
 11
76.2
 21
97.9875
 31
-15
  0
LINE
  5
A37
330
A02
100
AcDbEntity
  8
Body009
100
AcDbLine
 10
76.2
 20
-17.87
 30
-15
 11
76.2
 21
97.9875
 31
-15
  0
LINE
  5
A38
330
A02
100
AcDbEntity
  8
Body009
100
AcDbLine
 10
153.842
 20
-36.7891
 30
-18
 11
174.706
 21
9.88355
 31
-18
  0
SPLINE
  5
A39
330
A02
100
AcDbEntity
  8
Body009
100
AcDbSpline
210
0
220
0
230
1
 70
8
 71
1
 72
4
 73
2
 74
0
 40
-2e-15
 40
-2e-15
 40
3
 40
3
 10
153.842
 20
-36.7891
 30
-18
 10
153.842
 20
-36.7891
 30
-15
  0
SPLINE
  5
A3A
330
A02
100
AcDbEntity
  8
Body009
100
AcDbSpline
210
0
220
0
230
1
 70
8
 71
1
 72
4
 73
2
 74
0
 40
0
 40
0
 40
3
 40
3
 10
174.706
 20
9.88355
 30
-18
 10
174.706
 20
9.88355
 30
-15
  0
LINE
  5
A3B
330
A02
100
AcDbEntity
  8
Body009
100
AcDbLine
 10
153.842
 20
-36.7891
 30
-15
 11
174.706
 21
9.88355
 31
-15
  0
ARC
  5
A3C
330
A02
100
AcDbEntity
  8
Body009
100
AcDbCircle
 10
76.7
 20
97.9875
 30
-18
 40
0.5
100
AcDbArc
 50
90
 51
180
  0
LINE
  5
A3D
330
A02
100
AcDbEntity
  8
Body009
100
AcDbLine
 10
76.2
 20
97.9875
 30
-18
 11
76.2
 21
97.9875
 31
-15
  0
LINE
  5
A3E
330
A02
100
AcDbEntity
  8
Body009
100
AcDbLine
 10
76.7
 20
98.4875
 30
-18
 11
76.7
 21
98.4875
 31
-15
  0
ARC
  5
A3F
330
A02
100
AcDbEntity
  8
Body009
100
AcDbCircle
 10
76.7
 20
97.9875
 30
-15
 40
0.5
100
AcDbArc
 50
90
 51
180
  0
SPLINE
  5
A40
330
A02
100
AcDbEntity
  8
Body009
100
AcDbSpline
210
0
220
0
230
1
 70
8
 71
3
 72
11
 73
7
 74
0
 40
0
 40
0
 40
0
 40
0
 40
0.499993
 40
0.499993
 40
0.499993
 40
1
 40
1
 40
1
 40
1
 10
174.706
 20
9.88355
 30
-18
 10
174.857
 20
10.2117
 30
-18
 10
174.886
 20
10.6372
 30
-18
 10
174.745
 20
11.0124
 30
-18
 10
174.61
 20
11.3896
 30
-18
 10
174.312
 20
11.6954
 30
-18
 10
173.985
 20
11.8483
 30
-18
  0
SPLINE
  5
A41
330
A02
100
AcDbEntity
  8
Body009
100
AcDbSpline
210
0
220
0
230
1
 70
8
 71
1
 72
4
 73
2
 74
0
 40
0
 40
0
 40
3
 40
3
 10
174.706
 20
9.88355
 30
-18
 10
174.706
 20
9.88355
 30
-15
  0
SPLINE
  5
A42
330
A02
100
AcDbEntity
  8
Body009
100
AcDbSpline
210
0
220
0
230
1
 70
8
 71
1
 72
4
 73
2
 74
0
 40
-0
 40
-0
 40
3
 40
3
 10
173.985
 20
11.8483
 30
-18
 10
173.985
 20
11.8483
 30
-15
  0
SPLINE
  5
A43
330
A02
100
AcDbEntity
  8
Body009
100
AcDbSpline
210
0
220
0
230
1
 70
8
 71
3
 72
11
 73
7
 74
0
 40
0
 40
0
 40
0
 40
0
 40
0.499993
 40
0.499993
 40
0.499993
 40
1
 40
1
 40
1
 40
1
 10
174.706
 20
9.88355
 30
-15
 10
174.857
 20
10.2117
 30
-15
 10
174.886
 20
10.6372
 30
-15
 10
174.745
 20
11.0124
 30
-15
 10
174.61
 20
11.3896
 30
-15
 10
174.312
 20
11.6954
 30
-15
 10
173.985
 20
11.8483
 30
-15
  0
LINE
  5
A44
330
A02
100
AcDbEntity
  8
Body009
100
AcDbLine
 10
85.725
 20
98.4875
 30
-18
 11
76.7
 21
98.4875
 31
-18
  0
LINE
  5
A45
330
A02
100
AcDbEntity
  8
Body009
100
AcDbLine
 10
76.7
 20
98.4875
 30
-18
 11
76.7
 21
98.4875
 31
-15
  0
LINE
  5
A46
330
A02
100
AcDbEntity
  8
Body009
100
AcDbLine
 10
85.725
 20
98.4875
 30
-18
 11
85.725
 21
98.4875
 31
-15
  0
LINE
  5
A47
330
A02
100
AcDbEntity
  8
Body009
100
AcDbLine
 10
85.725
 20
98.4875
 30
-15
 11
76.7
 21
98.4875
 31
-15
  0
SPLINE
  5
A48
330
A02
100
AcDbEntity
  8
Body009
100
AcDbSpline
210
0
220
0
230
1
 70
8
 71
3
 72
8
 73
4
 74
0
 40
0.0108859
 40
0.0108859
 40
0.0108859
 40
0.0108859
 40
0.981589
 40
0.981589
 40
0.981589
 40
0.981589
 10
150.875
 20
87.466
 30
-18
 10
150.878
 20
43.2515
 30
-18
 10
151.131
 20
22.8061
 30
-18
 10
173.985
 20
11.8483
 30
-18
  0
SPLINE
  5
A49
330
A02
100
AcDbEntity
  8
Body009
100
AcDbSpline
210
0
220
0
230
1
 70
8
 71
1
 72
4
 73
2
 74
0
 40
-1.3e-14
 40
-1.3e-14
 40
3
 40
3
 10
150.875
 20
87.466
 30
-18
 10
150.875
 20
87.466
 30
-15
  0
SPLINE
  5
A4A
330
A02
100
AcDbEntity
  8
Body009
100
AcDbSpline
210
0
220
0
230
1
 70
8
 71
1
 72
4
 73
2
 74
0
 40
-0
 40
-0
 40
3
 40
3
 10
173.985
 20
11.8483
 30
-18
 10
173.985
 20
11.8483
 30
-15
  0
SPLINE
  5
A4B
330
A02
100
AcDbEntity
  8
Body009
100
AcDbSpline
210
0
220
0
230
1
 70
8
 71
3
 72
8
 73
4
 74
0
 40
0.0108859
 40
0.0108859
 40
0.0108859
 40
0.0108859
 40
0.981589
 40
0.981589
 40
0.981589
 40
0.981589
 10
150.875
 20
87.466
 30
-15
 10
150.878
 20
43.2515
 30
-15
 10
151.131
 20
22.8061
 30
-15
 10
173.985
 20
11.8483
 30
-15
  0
SPLINE
  5
A4C
330
A02
100
AcDbEntity
  8
Body009
100
AcDbSpline
210
0
220
0
230
1
 70
8
 71
3
 72
8
 73
4
 74
0
 40
0
 40
0
 40
0
 40
0
 40
0.989085
 40
0.989085
 40
0.989085
 40
0.989085
 10
85.725
 20
98.4875
 30
-18
 10
104.567
 20
98.4875
 30
-18
 10
104.773
 20
89.1693
 30
-18
 10
149.382
 20
88.9659
 30
-18
  0
SPLINE
  5
A4D
330
A02
100
AcDbEntity
  8
Body009
100
AcDbSpline
210
0
220
0
230
1
 70
8
 71
1
 72
4
 73
2
 74
0
 40
-2.4e-14
 40
-2.4e-14
 40
3
 40
3
 10
149.382
 20
88.9659
 30
-18
 10
149.382
 20
88.9659
 30
-15
  0
LINE
  5
A4E
330
A02
100
AcDbEntity
  8
Body009
100
AcDbLine
 10
85.725
 20
98.4875
 30
-18
 11
85.725
 21
98.4875
 31
-15
  0
SPLINE
  5
A4F
330
A02
100
AcDbEntity
  8
Body009
100
AcDbSpline
210
0
220
0
230
1
 70
8
 71
3
 72
8
 73
4
 74
0
 40
0
 40
0
 40
0
 40
0
 40
0.989085
 40
0.989085
 40
0.989085
 40
0.989085
 10
85.725
 20
98.4875
 30
-15
 10
104.567
 20
98.4875
 30
-15
 10
104.773
 20
89.1693
 30
-15
 10
149.382
 20
88.9659
 30
-15
  0
SPLINE
  5
A50
330
A02
100
AcDbEntity
  8
Body009
100
AcDbSpline
210
0
220
0
230
1
 70
8
 71
3
 72
11
 73
7
 74
0
 40
0
 40
0
 40
0
 40
0
 40
0.500008
 40
0.500008
 40
0.500008
 40
1
 40
1
 40
1
 40
1
 10
150.875
 20
87.466
 30
-18
 10
150.879
 20
87.8318
 30
-18
 10
150.727
 20
88.2381
 30
-18
 10
150.438
 20
88.5242
 30
-18
 10
150.153
 20
88.8147
 30
-18
 10
149.748
 20
88.968
 30
-18
 10
149.382
 20
88.9659
 30
-18
  0
SPLINE
  5
A51
330
A02
100
AcDbEntity
  8
Body009
100
AcDbSpline
210
0
220
0
230
1
 70
8
 71
1
 72
4
 73
2
 74
0
 40
-1.3e-14
 40
-1.3e-14
 40
3
 40
3
 10
150.875
 20
87.466
 30
-18
 10
150.875
 20
87.466
 30
-15
  0
SPLINE
  5
A52
330
A02
100
AcDbEntity
  8
Body009
100
AcDbSpline
210
0
220
0
230
1
 70
8
 71
1
 72
4
 73
2
 74
0
 40
-2.4e-14
 40
-2.4e-14
 40
3
 40
3
 10
149.382
 20
88.9659
 30
-18
 10
149.382
 20
88.9659
 30
-15
  0
SPLINE
  5
A53
330
A02
100
AcDbEntity
  8
Body009
100
AcDbSpline
210
0
220
0
230
1
 70
8
 71
3
 72
11
 73
7
 74
0
 40
0
 40
0
 40
0
 40
0
 40
0.500008
 40
0.500008
 40
0.500008
 40
1
 40
1
 40
1
 40
1
 10
150.875
 20
87.466
 30
-15
 10
150.879
 20
87.8318
 30
-15
 10
150.727
 20
88.2381
 30
-15
 10
150.438
 20
88.5242
 30
-15
 10
150.153
 20
88.8147
 30
-15
 10
149.748
 20
88.968
 30
-15
 10
149.382
 20
88.9659
 30
-15
  0
CIRCLE
  5
A54
330
A02
100
AcDbEntity
  8
Body009
100
AcDbCircle
 10
95.25
 20
-13.9
 40
1.45
  0
LINE
  5
A55
330
A02
100
AcDbEntity
  8
Body009
100
AcDbLine
 10
96.7
 20
-13.9
 30
-18
 11
96.7
 21
-13.9
 31
-15
  0
CIRCLE
  5
A56
330
A02
100
AcDbEntity
  8
Body009
100
AcDbCircle
 10
95.25
 20
-13.9
 40
1.45
  0
LINE
  5
A57
330
A02
100
AcDbEntity
  8
Body009
100
AcDbLine
 10
96.7
 20
-13.9
 30
-18
 11
96.7
 21
-13.9
 31
-15
  0
CIRCLE
  5
A58
330
A02
100
AcDbEntity
  8
Body009
100
AcDbCircle
 10
151.402
 20
-33.3662
 40
1.45
  0
LINE
  5
A59
330
A02
100
AcDbEntity
  8
Body009
100
AcDbLine
 10
152.852
 20
-33.3662
 30
-18
 11
152.852
 21
-33.3662
 31
-15
  0
CIRCLE
  5
A5A
330
A02
100
AcDbEntity
  8
Body009
100
AcDbCircle
 10
151.402
 20
-33.3662
 40
1.45
  0
LINE
  5
A5B
330
A02
100
AcDbEntity
  8
Body009
100
AcDbLine
 10
152.852
 20
-33.3662
 30
-18
 11
152.852
 21
-33.3662
 31
-15
  0
CIRCLE
  5
A5C
330
A02
100
AcDbEntity
  8
Body009
100
AcDbCircle
 10
170.521
 20
9.40487
 40
1.45
  0
LINE
  5
A5D
330
A02
100
AcDbEntity
  8
Body009
100
AcDbLine
 10
171.971
 20
9.40487
 30
-18
 11
171.971
 21
9.40487
 31
-15
  0
CIRCLE
  5
A5E
330
A02
100
AcDbEntity
  8
Body009
100
AcDbCircle
 10
170.521
 20
9.40487
 40
1.45
  0
LINE
  5
A5F
330
A02
100
AcDbEntity
  8
Body009
100
AcDbLine
 10
171.971
 20
9.40487
 30
-18
 11
171.971
 21
9.40487
 31
-15
  0
CIRCLE
  5
A60
330
A02
100
AcDbEntity
  8
Body009
100
AcDbCircle
 10
95.25
 20
92.085
 40
1.45
  0
LINE
  5
A61
330
A02
100
AcDbEntity
  8
Body009
100
AcDbLine
 10
96.7
 20
92.085
 30
-18
 11
96.7
 21
92.085
 31
-15
  0
CIRCLE
  5
A62
330
A02
100
AcDbEntity
  8
Body009
100
AcDbCircle
 10
95.25
 20
92.085
 40
1.45
  0
LINE
  5
A63
330
A02
100
AcDbEntity
  8
Body009
100
AcDbLine
 10
96.7
 20
92.085
 30
-18
 11
96.7
 21
92.085
 31
-15
  0
CIRCLE
  5
A64
330
A02
100
AcDbEntity
  8
Body009
100
AcDbCircle
 10
147.25
 20
85.3375
 40
1.45
  0
LINE
  5
A65
330
A02
100
AcDbEntity
  8
Body009
100
AcDbLine
 10
148.7
 20
85.3375
 30
-18
 11
148.7
 21
85.3375
 31
-15
  0
CIRCLE
  5
A66
330
A02
100
AcDbEntity
  8
Body009
100
AcDbCircle
 10
147.25
 20
85.3375
 40
1.45
  0
LINE
  5
A67
330
A02
100
AcDbEntity
  8
Body009
100
AcDbLine
 10
148.7
 20
85.3375
 30
-18
 11
148.7
 21
85.3375
 31
-15
  0
ENDSEC
  0
SECTION
  2
OBJECTS
  0
DICTIONARY
  5
F000
330
0
100
AcDbDictionary
  3
ACAD_GROUP
350
F001
  0
DICTIONARY
  5
F001
330
F000
100
AcDbDictionary
  0
ENDSEC
  0
EOF