999
FreeCAD v0.19 24291 (Git)
  0
SECTION
  2
HEADER
  9
$ACADVER
  1
AC1014
  9
$ACADMAINTVER
 70
     9
  9
$DWGCODEPAGE
  3
ANSI_1252
  9
$TEXTSTYLE
  7
STANDARD
  9
$DIMSTYLE
  2
STANDARD
  9
$DIMTXSTY
  7
STANDARD
  9
$CMLSTYLE
  2
STANDARD
  9
$PEXTMAX
 10
50
 20
50
 30
50
  9
$PEXTMIN
 10
0
 20
0
 30
0
  9
$HANDSEED
  5
FFFF
  0
ENDSEC
  0
SECTION
  2
CLASSES
  0
CLASS
  1
ACDBDICTIONARYWDFLT
  2
AcDbDictionaryWithDefault
  3
ObjectDBX Classes
 90
        0
280
     0
281
     0
  0
CLASS
  1
XRECORD
  2
AcDbXrecord
  3
ObjectDBX Classes
 90
        0
280
     0
281
     0
  0
CLASS
  1
LWPOLYLINE
  2
AcDbPolyline
  3
ObjectDBX Classes
 90
        0
280
     0
281
     1
  0
ENDSEC
  0
SECTION
  2
TABLES
  0
TABLE
  2
VPORT
  5
20
330
0
100
AcDbSymbolTable
 70
     1
  0
VPORT
  5
21
330
20
100
AcDbSymbolTableRecord
100
AcDbViewportTableRecord
  2
*ACTIVE
 70
     0
  0
ENDTAB
  0
TABLE
  2
LTYPE
  5
22
330
0
100
AcDbSymbolTable
 70
     1
  0
LTYPE
  5
23
330
21
100
AcDbSymbolTableRecord
100
AcDbLinetypeTableRecord
  2
BYBLOCK
 70
     0
  3

 72
    65
 73
     0
 40
0.0
  0
LTYPE
  5
24
330
21
100
AcDbSymbolTableRecord
100
AcDbLinetypeTableRecord
  2
BYLAYER
 70
     0
  3

 72
    65
 73
     0
 40
0.0
  0
LTYPE
  5
25
330
21
100
AcDbSymbolTableRecord
100
AcDbLinetypeTableRecord
  2
CONTINUOUS
 70
     0
  3
Solid line
 72
    65
 73
     0
 40
0.0
  0
ENDTAB
  0
TABLE
  2
LAYER
  5
A38
330
0
100
AcDbSymbolTable
 70
3
  0
LAYER
  5
A39
330
A38
100
AcDbSymbolTableRecord
100
AcDbLayerTableRecord
  2
0
 70
   0
 62
   7
  6
CONTINUOUS
  0
LAYER
  5
A3A
330
A38
100
AcDbSymbolTableRecord
100
AcDbLayerTableRecord
  2
none
 70
    0
 62
    7
  6
CONTINUOUS
  0
LAYER
  5
A3B
330
A38
100
AcDbSymbolTableRecord
100
AcDbLayerTableRecord
  2
Body011
 70
    0
 62
    7
  6
CONTINUOUS
  0
ENDTAB
  0
TABLE
  2
STYLE
  5
70
330
0
100
AcDbSymbolTable
 70
     2
  0
STYLE
  5
71
330
70
100
AcDbSymbolTableRecord
100
AcDbTextStyleTableRecord
  2
STANDARD
 70
     0
 40
0.0
 41
1.0
 50
0.0
 71
     0
 42
2.5
  3
arial.ttf
  4

  0
STYLE
  5
72
330
70
100
AcDbSymbolTableRecord
100
AcDbTextStyleTableRecord
  2
ANNOTATIVE
 70
     0
 40
0.0
 41
1.0
 50
0.0
 71
     0
 42
2.5
  3
arial.ttf
  4

  0
ENDTAB
  0
TABLE
  2
VIEW
  5
73
330
0
100
AcDbSymbolTable
 70
     0
  0
ENDTAB
  0
TABLE
  2
UCS
  5
74
330
0
100
AcDbSymbolTable
 70
     0
  0
ENDTAB
  0
TABLE
  2
APPID
  5
75
330
0
100
AcDbSymbolTable
 70
     2
  0
APPID
  5
76
330
75
100
AcDbSymbolTableRecord
100
AcDbRegAppTableRecord
  2
ACAD
 70
     0
  0
APPID
  5
77
330
75
100
AcDbSymbolTableRecord
100
AcDbRegAppTableRecord
  2
ACADANNOTATIVE
 70
     0
  0
ENDTAB
  0
TABLE
  2
DIMSTYLE
  5
78
330
0
100
AcDbSymbolTable
 70
     2
  0
DIMSTYLE
105
79
330
78
100
AcDbSymbolTableRecord
100
AcDbDimStyleTableRecord
  2
STANDARD
 70
     0
  3

  4

  5

  6

  7

 40
0.0
 41
2.5
 42
0.625
 43
3.75
 44
1.25
 45
0.0
 46
0.0
 47
0.0
 48
0.0
140
2.5
141
2.5
142
0.0
143
0.03937007874016
144
1.0
145
0.0
146
1.0
147
0.625
 71
     0
 72
     0
 73
     0
 74
     0
 75
     0
 76
     0
 77
     1
 78
     8
170
     0
171
     3
172
     1
173
     0
174
     0
175
     0
176
     0
177
     0
178
     0
270
     2
271
     2
272
     2
273
     2
274
     3
340
71
275
     0
280
     0
281
     0
282
     0
283
     0
284
     8
285
     0
286
     0
287
     3
288
     0
  0
ENDTAB
  0
TABLE
  2
BLOCK_RECORD
  5
A01
330
0
100
AcDbSymbolTable
  70
5
  0
BLOCK_RECORD
  5
A02
330
A01
100
AcDbSymbolTableRecord
100
AcDbBlockTableRecord
  2
*MODEL_SPACE
  0
BLOCK_RECORD
  5
A03
330
A01
100
AcDbSymbolTableRecord
100
AcDbBlockTableRecord
  2
*PAPER_SPACE
  0
ENDTAB
  0
ENDSEC
  0
SECTION
  2
BLOCKS
  0
BLOCK
  5
A04
330
A02
100
AcDbEntity
  8
0
100
AcDbBlockBegin
  2
*MODEL_SPACE
 70
   0
 10
0
 20
0
 30
0
  3
*MODEL_SPACE
  1
 
  0
ENDBLK
  5
A05
330
A02
100
AcDbEntity
  8
0
100
AcDbBlockEnd
  0
BLOCK
  5
A06
330
A03
100
AcDbEntity
 67
1
  8
0
100
AcDbBlockBegin
  2
*PAPER_SPACE
 70
   0
 10
0
 20
0
 30
0
  3
*PAPER_SPACE
  1
 
  0
ENDBLK
  5
A07
330
A03
100
AcDbEntity
 67
    1
  8
0
100
AcDbBlockEnd
  0
ENDSEC
  0
SECTION
  2
ENTITIES
  0
LINE
  5
A08
330
A02
100
AcDbEntity
  8
Body011
100
AcDbLine
 10
132.333
 20
-29.8115
 30
-24
 11
132.333
 21
-29.8115
 31
-21
  0
LINE
  5
A09
330
A02
100
AcDbEntity
  8
Body011
100
AcDbLine
 10
153.232
 20
-38.1549
 30
-24
 11
153.232
 21
-38.1549
 31
-21
  0
SPLINE
  5
A0A
330
A02
100
AcDbEntity
  8
Body011
100
AcDbSpline
210
0
220
0
230
1
 70
8
 71
3
 72
8
 73
4
 74
0
 40
0
 40
0
 40
0
 40
0
 40
1
 40
1
 40
1
 40
1
 10
132.333
 20
-29.8115
 30
-24
 10
140.032
 20
-32.5104
 30
-24
 10
146.35
 20
-35.0786
 30
-24
 10
153.232
 20
-38.1549
 30
-24
  0
SPLINE
  5
A0B
330
A02
100
AcDbEntity
  8
Body011
100
AcDbSpline
210
0
220
0
230
1
 70
8
 71
3
 72
8
 73
4
 74
0
 40
0
 40
0
 40
0
 40
0
 40
1
 40
1
 40
1
 40
1
 10
132.333
 20
-29.8115
 30
-21
 10
140.032
 20
-32.5104
 30
-21
 10
146.35
 20
-35.0786
 30
-21
 10
153.232
 20
-38.1549
 30
-21
  0
LINE
  5
A0C
330
A02
100
AcDbEntity
  8
Body011
100
AcDbLine
 10
132.333
 20
-29.8115
 30
-24
 11
132.333
 21
-29.8115
 31
-21
  0
LINE
  5
A0D
330
A02
100
AcDbEntity
  8
Body011
100
AcDbLine
 10
132.333
 20
89.5935
 30
-24
 11
132.333
 21
89.5935
 31
-21
  0
LINE
  5
A0E
330
A02
100
AcDbEntity
  8
Body011
100
AcDbLine
 10
132.333
 20
-29.8115
 30
-24
 11
132.333
 21
89.5935
 31
-24
  0
LINE
  5
A0F
330
A02
100
AcDbEntity
  8
Body011
100
AcDbLine
 10
132.333
 20
-29.8115
 30
-21
 11
132.333
 21
89.5935
 31
-21
  0
LINE
  5
A10
330
A02
100
AcDbEntity
  8
Body011
100
AcDbLine
 10
153.232
 20
-38.1549
 30
-24
 11
153.232
 21
-38.1549
 31
-21
  0
LINE
  5
A11
330
A02
100
AcDbEntity
  8
Body011
100
AcDbLine
 10
175.31
 20
11.2349
 30
-24
 11
175.31
 21
11.2349
 31
-21
  0
LINE
  5
A12
330
A02
100
AcDbEntity
  8
Body011
100
AcDbLine
 10
153.232
 20
-38.1549
 30
-24
 11
175.31
 21
11.2349
 31
-24
  0
LINE
  5
A13
330
A02
100
AcDbEntity
  8
Body011
100
AcDbLine
 10
153.232
 20
-38.1549
 30
-21
 11
175.31
 21
11.2349
 31
-21
  0
SPLINE
  5
A14
330
A02
100
AcDbEntity
  8
Body011
100
AcDbSpline
210
0
220
0
230
1
 70
8
 71
3
 72
8
 73
4
 74
0
 40
0
 40
0
 40
0
 40
0
 40
1
 40
1
 40
1
 40
1
 10
132.333
 20
-29.8115
 30
-24
 10
140.032
 20
-32.5104
 30
-24
 10
146.35
 20
-35.0786
 30
-24
 10
153.232
 20
-38.1549
 30
-24
  0
LINE
  5
A15
330
A02
100
AcDbEntity
  8
Body011
100
AcDbLine
 10
132.333
 20
-29.8115
 30
-24
 11
132.333
 21
89.5935
 31
-24
  0
LINE
  5
A16
330
A02
100
AcDbEntity
  8
Body011
100
AcDbLine
 10
153.232
 20
-38.1549
 30
-24
 11
175.31
 21
11.2349
 31
-24
  0
SPLINE
  5
A17
330
A02
100
AcDbEntity
  8
Body011
100
AcDbSpline
210
0
220
0
230
1
 70
8
 71
3
 72
8
 73
4
 74
0
 40
0
 40
0
 40
0
 40
0
 40
1
 40
1
 40
1
 40
1
 10
132.333
 20
89.5935
 30
-24
 10
137.532
 20
89.2265
 30
-24
 10
141.793
 20
88.9902
 30
-24
 10
150.875
 20
88.9625
 30
-24
  0
SPLINE
  5
A18
330
A02
100
AcDbEntity
  8
Body011
100
AcDbSpline
210
0
220
0
230
1
 70
8
 71
3
 72
8
 73
4
 74
0
 40
0
 40
0
 40
0
 40
0
 40
1
 40
1
 40
1
 40
1
 10
150.875
 20
88.9625
 30
-24
 10
150.875
 20
42.8625
 30
-24
 10
150.875
 20
22.158
 30
-24
 10
175.31
 20
11.2349
 30
-24
  0
CIRCLE
  5
A19
330
A02
100
AcDbEntity
  8
Body011
100
AcDbCircle
 10
151.402
 20
-33.3662
 40
0.9
  0
CIRCLE
  5
A1A
330
A02
100
AcDbEntity
  8
Body011
100
AcDbCircle
 10
170.521
 20
9.40487
 40
0.9
  0
CIRCLE
  5
A1B
330
A02
100
AcDbEntity
  8
Body011
100
AcDbCircle
 10
147.25
 20
85.3375
 40
0.9
  0
SPLINE
  5
A1C
330
A02
100
AcDbEntity
  8
Body011
100
AcDbSpline
210
0
220
0
230
1
 70
8
 71
3
 72
8
 73
4
 74
0
 40
0
 40
0
 40
0
 40
0
 40
1
 40
1
 40
1
 40
1
 10
132.333
 20
-29.8115
 30
-21
 10
140.032
 20
-32.5104
 30
-21
 10
146.35
 20
-35.0786
 30
-21
 10
153.232
 20
-38.1549
 30
-21
  0
LINE
  5
A1D
330
A02
100
AcDbEntity
  8
Body011
100
AcDbLine
 10
132.333
 20
-29.8115
 30
-21
 11
132.333
 21
89.5935
 31
-21
  0
LINE
  5
A1E
330
A02
100
AcDbEntity
  8
Body011
100
AcDbLine
 10
153.232
 20
-38.1549
 30
-21
 11
175.31
 21
11.2349
 31
-21
  0
SPLINE
  5
A1F
330
A02
100
AcDbEntity
  8
Body011
100
AcDbSpline
210
0
220
0
230
1
 70
8
 71
3
 72
8
 73
4
 74
0
 40
0
 40
0
 40
0
 40
0
 40
1
 40
1
 40
1
 40
1
 10
132.333
 20
89.5935
 30
-21
 10
137.532
 20
89.2265
 30
-21
 10
141.793
 20
88.9902
 30
-21
 10
150.875
 20
88.9625
 30
-21
  0
SPLINE
  5
A20
330
A02
100
AcDbEntity
  8
Body011
100
AcDbSpline
210
0
220
0
230
1
 70
8
 71
3
 72
8
 73
4
 74
0
 40
0
 40
0
 40
0
 40
0
 40
1
 40
1
 40
1
 40
1
 10
150.875
 20
88.9625
 30
-21
 10
150.875
 20
42.8625
 30
-21
 10
150.875
 20
22.158
 30
-21
 10
175.31
 20
11.2349
 30
-21
  0
CIRCLE
  5
A21
330
A02
100
AcDbEntity
  8
Body011
100
AcDbCircle
 10
151.402
 20
-33.3662
 40
0.9
  0
CIRCLE
  5
A22
330
A02
100
AcDbEntity
  8
Body011
100
AcDbCircle
 10
170.521
 20
9.40487
 40
0.9
  0
CIRCLE
  5
A23
330
A02
100
AcDbEntity
  8
Body011
100
AcDbCircle
 10
147.25
 20
85.3375
 40
0.9
  0
LINE
  5
A24
330
A02
100
AcDbEntity
  8
Body011
100
AcDbLine
 10
132.333
 20
89.5935
 30
-24
 11
132.333
 21
89.5935
 31
-21
  0
LINE
  5
A25
330
A02
100
AcDbEntity
  8
Body011
100
AcDbLine
 10
150.875
 20
88.9625
 30
-24
 11
150.875
 21
88.9625
 31
-21
  0
SPLINE
  5
A26
330
A02
100
AcDbEntity
  8
Body011
100
AcDbSpline
210
0
220
0
230
1
 70
8
 71
3
 72
8
 73
4
 74
0
 40
0
 40
0
 40
0
 40
0
 40
1
 40
1
 40
1
 40
1
 10
132.333
 20
89.5935
 30
-24
 10
137.532
 20
89.2265
 30
-24
 10
141.793
 20
88.9902
 30
-24
 10
150.875
 20
88.9625
 30
-24
  0
SPLINE
  5
A27
330
A02
100
AcDbEntity
  8
Body011
100
AcDbSpline
210
0
220
0
230
1
 70
8
 71
3
 72
8
 73
4
 74
0
 40
0
 40
0
 40
0
 40
0
 40
1
 40
1
 40
1
 40
1
 10
132.333
 20
89.5935
 30
-21
 10
137.532
 20
89.2265
 30
-21
 10
141.793
 20
88.9902
 30
-21
 10
150.875
 20
88.9625
 30
-21
  0
LINE
  5
A28
330
A02
100
AcDbEntity
  8
Body011
100
AcDbLine
 10
150.875
 20
88.9625
 30
-24
 11
150.875
 21
88.9625
 31
-21
  0
LINE
  5
A29
330
A02
100
AcDbEntity
  8
Body011
100
AcDbLine
 10
175.31
 20
11.2349
 30
-24
 11
175.31
 21
11.2349
 31
-21
  0
SPLINE
  5
A2A
330
A02
100
AcDbEntity
  8
Body011
100
AcDbSpline
210
0
220
0
230
1
 70
8
 71
3
 72
8
 73
4
 74
0
 40
0
 40
0
 40
0
 40
0
 40
1
 40
1
 40
1
 40
1
 10
150.875
 20
88.9625
 30
-24
 10
150.875
 20
42.8625
 30
-24
 10
150.875
 20
22.158
 30
-24
 10
175.31
 20
11.2349
 30
-24
  0
SPLINE
  5
A2B
330
A02
100
AcDbEntity
  8
Body011
100
AcDbSpline
210
0
220
0
230
1
 70
8
 71
3
 72
8
 73
4
 74
0
 40
0
 40
0
 40
0
 40
0
 40
1
 40
1
 40
1
 40
1
 10
150.875
 20
88.9625
 30
-21
 10
150.875
 20
42.8625
 30
-21
 10
150.875
 20
22.158
 30
-21
 10
175.31
 20
11.2349
 30
-21
  0
CIRCLE
  5
A2C
330
A02
100
AcDbEntity
  8
Body011
100
AcDbCircle
 10
151.402
 20
-33.3662
 40
0.9
  0
LINE
  5
A2D
330
A02
100
AcDbEntity
  8
Body011
100
AcDbLine
 10
152.302
 20
-33.3662
 30
-24
 11
152.302
 21
-33.3662
 31
-21
  0
CIRCLE
  5
A2E
330
A02
100
AcDbEntity
  8
Body011
100
AcDbCircle
 10
151.402
 20
-33.3662
 40
0.9
  0
LINE
  5
A2F
330
A02
100
AcDbEntity
  8
Body011
100
AcDbLine
 10
152.302
 20
-33.3662
 30
-24
 11
152.302
 21
-33.3662
 31
-21
  0
CIRCLE
  5
A30
330
A02
100
AcDbEntity
  8
Body011
100
AcDbCircle
 10
170.521
 20
9.40487
 40
0.9
  0
LINE
  5
A31
330
A02
100
AcDbEntity
  8
Body011
100
AcDbLine
 10
171.421
 20
9.40487
 30
-24
 11
171.421
 21
9.40487
 31
-21
  0
CIRCLE
  5
A32
330
A02
100
AcDbEntity
  8
Body011
100
AcDbCircle
 10
170.521
 20
9.40487
 40
0.9
  0
LINE
  5
A33
330
A02
100
AcDbEntity
  8
Body011
100
AcDbLine
 10
171.421
 20
9.40487
 30
-24
 11
171.421
 21
9.40487
 31
-21
  0
CIRCLE
  5
A34
330
A02
100
AcDbEntity
  8
Body011
100
AcDbCircle
 10
147.25
 20
85.3375
 40
0.9
  0
LINE
  5
A35
330
A02
100
AcDbEntity
  8
Body011
100
AcDbLine
 10
148.15
 20
85.3375
 30
-24
 11
148.15
 21
85.3375
 31
-21
  0
CIRCLE
  5
A36
330
A02
100
AcDbEntity
  8
Body011
100
AcDbCircle
 10
147.25
 20
85.3375
 40
0.9
  0
LINE
  5
A37
330
A02
100
AcDbEntity
  8
Body011
100
AcDbLine
 10
148.15
 20
85.3375
 30
-24
 11
148.15
 21
85.3375
 31
-21
  0
ENDSEC
  0
SECTION
  2
OBJECTS
  0
DICTIONARY
  5
F000
330
0
100
AcDbDictionary
  3
ACAD_GROUP
350
F001
  0
DICTIONARY
  5
F001
330
F000
100
AcDbDictionary
  0
ENDSEC
  0
EOF