999
FreeCAD v0.19 24291 (Git)
  0
SECTION
  2
HEADER
  9
$ACADVER
  1
AC1014
  9
$ACADMAINTVER
 70
     9
  9
$DWGCODEPAGE
  3
ANSI_1252
  9
$TEXTSTYLE
  7
STANDARD
  9
$DIMSTYLE
  2
STANDARD
  9
$DIMTXSTY
  7
STANDARD
  9
$CMLSTYLE
  2
STANDARD
  9
$PEXTMAX
 10
50
 20
50
 30
50
  9
$PEXTMIN
 10
0
 20
0
 30
0
  9
$HANDSEED
  5
FFFF
  0
ENDSEC
  0
SECTION
  2
CLASSES
  0
CLASS
  1
ACDBDICTIONARYWDFLT
  2
AcDbDictionaryWithDefault
  3
ObjectDBX Classes
 90
        0
280
     0
281
     0
  0
CLASS
  1
XRECORD
  2
AcDbXrecord
  3
ObjectDBX Classes
 90
        0
280
     0
281
     0
  0
CLASS
  1
LWPOLYLINE
  2
AcDbPolyline
  3
ObjectDBX Classes
 90
        0
280
     0
281
     1
  0
ENDSEC
  0
SECTION
  2
TABLES
  0
TABLE
  2
VPORT
  5
20
330
0
100
AcDbSymbolTable
 70
     1
  0
VPORT
  5
21
330
20
100
AcDbSymbolTableRecord
100
AcDbViewportTableRecord
  2
*ACTIVE
 70
     0
  0
ENDTAB
  0
TABLE
  2
LTYPE
  5
22
330
0
100
AcDbSymbolTable
 70
     1
  0
LTYPE
  5
23
330
21
100
AcDbSymbolTableRecord
100
AcDbLinetypeTableRecord
  2
BYBLOCK
 70
     0
  3

 72
    65
 73
     0
 40
0.0
  0
LTYPE
  5
24
330
21
100
AcDbSymbolTableRecord
100
AcDbLinetypeTableRecord
  2
BYLAYER
 70
     0
  3

 72
    65
 73
     0
 40
0.0
  0
LTYPE
  5
25
330
21
100
AcDbSymbolTableRecord
100
AcDbLinetypeTableRecord
  2
CONTINUOUS
 70
     0
  3
Solid line
 72
    65
 73
     0
 40
0.0
  0
ENDTAB
  0
TABLE
  2
LAYER
  5
A98
330
0
100
AcDbSymbolTable
 70
3
  0
LAYER
  5
A99
330
A98
100
AcDbSymbolTableRecord
100
AcDbLayerTableRecord
  2
0
 70
   0
 62
   7
  6
CONTINUOUS
  0
LAYER
  5
A9A
330
A98
100
AcDbSymbolTableRecord
100
AcDbLayerTableRecord
  2
none
 70
    0
 62
    7
  6
CONTINUOUS
  0
LAYER
  5
A9B
330
A98
100
AcDbSymbolTableRecord
100
AcDbLayerTableRecord
  2
Body008
 70
    0
 62
    7
  6
CONTINUOUS
  0
ENDTAB
  0
TABLE
  2
STYLE
  5
70
330
0
100
AcDbSymbolTable
 70
     2
  0
STYLE
  5
71
330
70
100
AcDbSymbolTableRecord
100
AcDbTextStyleTableRecord
  2
STANDARD
 70
     0
 40
0.0
 41
1.0
 50
0.0
 71
     0
 42
2.5
  3
arial.ttf
  4

  0
STYLE
  5
72
330
70
100
AcDbSymbolTableRecord
100
AcDbTextStyleTableRecord
  2
ANNOTATIVE
 70
     0
 40
0.0
 41
1.0
 50
0.0
 71
     0
 42
2.5
  3
arial.ttf
  4

  0
ENDTAB
  0
TABLE
  2
VIEW
  5
73
330
0
100
AcDbSymbolTable
 70
     0
  0
ENDTAB
  0
TABLE
  2
UCS
  5
74
330
0
100
AcDbSymbolTable
 70
     0
  0
ENDTAB
  0
TABLE
  2
APPID
  5
75
330
0
100
AcDbSymbolTable
 70
     2
  0
APPID
  5
76
330
75
100
AcDbSymbolTableRecord
100
AcDbRegAppTableRecord
  2
ACAD
 70
     0
  0
APPID
  5
77
330
75
100
AcDbSymbolTableRecord
100
AcDbRegAppTableRecord
  2
ACADANNOTATIVE
 70
     0
  0
ENDTAB
  0
TABLE
  2
DIMSTYLE
  5
78
330
0
100
AcDbSymbolTable
 70
     2
  0
DIMSTYLE
105
79
330
78
100
AcDbSymbolTableRecord
100
AcDbDimStyleTableRecord
  2
STANDARD
 70
     0
  3

  4

  5

  6

  7

 40
0.0
 41
2.5
 42
0.625
 43
3.75
 44
1.25
 45
0.0
 46
0.0
 47
0.0
 48
0.0
140
2.5
141
2.5
142
0.0
143
0.03937007874016
144
1.0
145
0.0
146
1.0
147
0.625
 71
     0
 72
     0
 73
     0
 74
     0
 75
     0
 76
     0
 77
     1
 78
     8
170
     0
171
     3
172
     1
173
     0
174
     0
175
     0
176
     0
177
     0
178
     0
270
     2
271
     2
272
     2
273
     2
274
     3
340
71
275
     0
280
     0
281
     0
282
     0
283
     0
284
     8
285
     0
286
     0
287
     3
288
     0
  0
ENDTAB
  0
TABLE
  2
BLOCK_RECORD
  5
A01
330
0
100
AcDbSymbolTable
  70
5
  0
BLOCK_RECORD
  5
A02
330
A01
100
AcDbSymbolTableRecord
100
AcDbBlockTableRecord
  2
*MODEL_SPACE
  0
BLOCK_RECORD
  5
A03
330
A01
100
AcDbSymbolTableRecord
100
AcDbBlockTableRecord
  2
*PAPER_SPACE
  0
ENDTAB
  0
ENDSEC
  0
SECTION
  2
BLOCKS
  0
BLOCK
  5
A04
330
A02
100
AcDbEntity
  8
0
100
AcDbBlockBegin
  2
*MODEL_SPACE
 70
   0
 10
0
 20
0
 30
0
  3
*MODEL_SPACE
  1
 
  0
ENDBLK
  5
A05
330
A02
100
AcDbEntity
  8
0
100
AcDbBlockEnd
  0
BLOCK
  5
A06
330
A03
100
AcDbEntity
 67
1
  8
0
100
AcDbBlockBegin
  2
*PAPER_SPACE
 70
   0
 10
0
 20
0
 30
0
  3
*PAPER_SPACE
  1
 
  0
ENDBLK
  5
A07
330
A03
100
AcDbEntity
 67
    1
  8
0
100
AcDbBlockEnd
  0
ENDSEC
  0
SECTION
  2
ENTITIES
  0
LINE
  5
A08
330
A02
100
AcDbEntity
  8
Body008
100
AcDbLine
 10
48.1333
 20
-17.5342
 30
-15
 11
48.1333
 21
-17.5342
 31
-12
  0
LINE
  5
A09
330
A02
100
AcDbEntity
  8
Body008
100
AcDbLine
 10
153.232
 20
-38.1549
 30
-15
 11
153.232
 21
-38.1549
 31
-12
  0
SPLINE
  5
A0A
330
A02
100
AcDbEntity
  8
Body008
100
AcDbSpline
210
0
220
0
230
1
 70
8
 71
3
 72
8
 73
4
 74
0
 40
0
 40
0
 40
0
 40
0
 40
1
 40
1
 40
1
 40
1
 10
48.1333
 20
-17.5342
 30
-15
 10
72.5667
 20
-17.7356
 30
-15
 10
107.263
 20
-17.2233
 30
-15
 10
153.232
 20
-38.1549
 30
-15
  0
SPLINE
  5
A0B
330
A02
100
AcDbEntity
  8
Body008
100
AcDbSpline
210
0
220
0
230
1
 70
8
 71
3
 72
8
 73
4
 74
0
 40
0
 40
0
 40
0
 40
0
 40
1
 40
1
 40
1
 40
1
 10
48.1333
 20
-17.5342
 30
-12
 10
72.5667
 20
-17.7356
 30
-12
 10
107.263
 20
-17.2233
 30
-12
 10
153.232
 20
-38.1549
 30
-12
  0
LINE
  5
A0C
330
A02
100
AcDbEntity
  8
Body008
100
AcDbLine
 10
48.1333
 20
-17.5342
 30
-15
 11
48.1333
 21
-17.5342
 31
-12
  0
LINE
  5
A0D
330
A02
100
AcDbEntity
  8
Body008
100
AcDbLine
 10
48.1333
 20
95.4679
 30
-15
 11
48.1333
 21
95.4679
 31
-12
  0
LINE
  5
A0E
330
A02
100
AcDbEntity
  8
Body008
100
AcDbLine
 10
48.1333
 20
-17.5342
 30
-15
 11
48.1333
 21
95.4679
 31
-15
  0
LINE
  5
A0F
330
A02
100
AcDbEntity
  8
Body008
100
AcDbLine
 10
48.1333
 20
-17.5342
 30
-12
 11
48.1333
 21
95.4679
 31
-12
  0
LINE
  5
A10
330
A02
100
AcDbEntity
  8
Body008
100
AcDbLine
 10
153.232
 20
-38.1549
 30
-15
 11
153.232
 21
-38.1549
 31
-12
  0
LINE
  5
A11
330
A02
100
AcDbEntity
  8
Body008
100
AcDbLine
 10
175.31
 20
11.2349
 30
-15
 11
175.31
 21
11.2349
 31
-12
  0
LINE
  5
A12
330
A02
100
AcDbEntity
  8
Body008
100
AcDbLine
 10
153.232
 20
-38.1549
 30
-15
 11
175.31
 21
11.2349
 31
-15
  0
LINE
  5
A13
330
A02
100
AcDbEntity
  8
Body008
100
AcDbLine
 10
153.232
 20
-38.1549
 30
-12
 11
175.31
 21
11.2349
 31
-12
  0
SPLINE
  5
A14
330
A02
100
AcDbEntity
  8
Body008
100
AcDbSpline
210
0
220
0
230
1
 70
8
 71
3
 72
8
 73
4
 74
0
 40
0
 40
0
 40
0
 40
0
 40
1
 40
1
 40
1
 40
1
 10
48.1333
 20
-17.5342
 30
-15
 10
72.5667
 20
-17.7356
 30
-15
 10
107.263
 20
-17.2233
 30
-15
 10
153.232
 20
-38.1549
 30
-15
  0
LINE
  5
A15
330
A02
100
AcDbEntity
  8
Body008
100
AcDbLine
 10
48.1333
 20
-17.5342
 30
-15
 11
48.1333
 21
95.4679
 31
-15
  0
LINE
  5
A16
330
A02
100
AcDbEntity
  8
Body008
100
AcDbLine
 10
153.232
 20
-38.1549
 30
-15
 11
175.31
 21
11.2349
 31
-15
  0
SPLINE
  5
A17
330
A02
100
AcDbEntity
  8
Body008
100
AcDbSpline
210
0
220
0
230
1
 70
8
 71
3
 72
8
 73
4
 74
0
 40
0
 40
0
 40
0
 40
0
 40
1
 40
1
 40
1
 40
1
 10
66.675
 20
98.4875
 30
-15
 10
58.3469
 20
98.4896
 30
-15
 10
52.8565
 20
97.1477
 30
-15
 10
48.1333
 20
95.4679
 30
-15
  0
SPLINE
  5
A18
330
A02
100
AcDbEntity
  8
Body008
100
AcDbSpline
210
0
220
0
230
1
 70
8
 71
3
 72
8
 73
4
 74
0
 40
0
 40
0
 40
0
 40
0
 40
1
 40
1
 40
1
 40
1
 10
150.875
 20
88.9625
 30
-15
 10
150.875
 20
42.8625
 30
-15
 10
150.875
 20
22.158
 30
-15
 10
175.31
 20
11.2349
 30
-15
  0
LINE
  5
A19
330
A02
100
AcDbEntity
  8
Body008
100
AcDbLine
 10
85.725
 20
98.4875
 30
-15
 11
66.675
 21
98.4875
 31
-15
  0
SPLINE
  5
A1A
330
A02
100
AcDbEntity
  8
Body008
100
AcDbSpline
210
0
220
0
230
1
 70
8
 71
3
 72
8
 73
4
 74
0
 40
0
 40
0
 40
0
 40
0
 40
1
 40
1
 40
1
 40
1
 10
85.725
 20
98.4875
 30
-15
 10
104.775
 20
98.4875
 30
-15
 10
104.775
 20
88.9625
 30
-15
 10
150.875
 20
88.9625
 30
-15
  0
CIRCLE
  5
A1B
330
A02
100
AcDbEntity
  8
Body008
100
AcDbCircle
 10
95.25
 20
-13.9
 40
0.9
  0
CIRCLE
  5
A1C
330
A02
100
AcDbEntity
  8
Body008
100
AcDbCircle
 10
151.402
 20
-33.3662
 40
1.4
  0
LINE
  5
A1D
330
A02
100
AcDbEntity
  8
Body008
100
AcDbLine
 10
85.725
 20
86.475
 30
-15
 11
85.725
 21
-10.275
 31
-15
  0
LINE
  5
A1E
330
A02
100
AcDbEntity
  8
Body008
100
AcDbLine
 10
85.725
 20
86.475
 30
-15
 11
105.525
 21
86.475
 31
-15
  0
LINE
  5
A1F
330
A02
100
AcDbEntity
  8
Body008
100
AcDbLine
 10
103.849
 20
-10.275
 30
-15
 11
85.725
 21
-10.275
 31
-15
  0
LINE
  5
A20
330
A02
100
AcDbEntity
  8
Body008
100
AcDbLine
 10
105.525
 20
86.475
 30
-15
 11
105.525
 21
81.7125
 31
-15
  0
LINE
  5
A21
330
A02
100
AcDbEntity
  8
Body008
100
AcDbLine
 10
102.962
 20
-14.4489
 30
-15
 11
103.849
 21
-10.275
 31
-15
  0
LINE
  5
A22
330
A02
100
AcDbEntity
  8
Body008
100
AcDbLine
 10
105.525
 20
81.7125
 30
-15
 11
143.625
 21
81.7125
 31
-15
  0
LINE
  5
A23
330
A02
100
AcDbEntity
  8
Body008
100
AcDbLine
 10
131.568
 20
-20.5294
 30
-15
 11
102.962
 21
-14.4489
 31
-15
  0
LINE
  5
A24
330
A02
100
AcDbEntity
  8
Body008
100
AcDbLine
 10
143.625
 20
81.7125
 30
-15
 11
143.625
 21
17.4575
 31
-15
  0
LINE
  5
A25
330
A02
100
AcDbEntity
  8
Body008
100
AcDbLine
 10
149.572
 20
-28.5774
 30
-15
 11
131.568
 21
-20.5294
 31
-15
  0
LINE
  5
A26
330
A02
100
AcDbEntity
  8
Body008
100
AcDbLine
 10
143.625
 20
17.4575
 30
-15
 11
165.733
 21
7.57485
 31
-15
  0
LINE
  5
A27
330
A02
100
AcDbEntity
  8
Body008
100
AcDbLine
 10
165.733
 20
7.57485
 30
-15
 11
149.572
 21
-28.5774
 31
-15
  0
CIRCLE
  5
A28
330
A02
100
AcDbEntity
  8
Body008
100
AcDbCircle
 10
170.521
 20
9.40487
 40
1.4
  0
CIRCLE
  5
A29
330
A02
100
AcDbEntity
  8
Body008
100
AcDbCircle
 10
57.15
 20
92.085
 40
0.9
  0
CIRCLE
  5
A2A
330
A02
100
AcDbEntity
  8
Body008
100
AcDbCircle
 10
95.25
 20
92.085
 40
0.9
  0
CIRCLE
  5
A2B
330
A02
100
AcDbEntity
  8
Body008
100
AcDbCircle
 10
147.25
 20
85.3375
 40
1.4
  0
SPLINE
  5
A2C
330
A02
100
AcDbEntity
  8
Body008
100
AcDbSpline
210
0
220
0
230
1
 70
8
 71
3
 72
8
 73
4
 74
0
 40
0
 40
0
 40
0
 40
0
 40
1
 40
1
 40
1
 40
1
 10
48.1333
 20
-17.5342
 30
-12
 10
72.5667
 20
-17.7356
 30
-12
 10
107.263
 20
-17.2233
 30
-12
 10
153.232
 20
-38.1549
 30
-12
  0
LINE
  5
A2D
330
A02
100
AcDbEntity
  8
Body008
100
AcDbLine
 10
48.1333
 20
-17.5342
 30
-12
 11
48.1333
 21
95.4679
 31
-12
  0
LINE
  5
A2E
330
A02
100
AcDbEntity
  8
Body008
100
AcDbLine
 10
153.232
 20
-38.1549
 30
-12
 11
175.31
 21
11.2349
 31
-12
  0
SPLINE
  5
A2F
330
A02
100
AcDbEntity
  8
Body008
100
AcDbSpline
210
0
220
0
230
1
 70
8
 71
3
 72
8
 73
4
 74
0
 40
0
 40
0
 40
0
 40
0
 40
1
 40
1
 40
1
 40
1
 10
66.675
 20
98.4875
 30
-12
 10
58.3469
 20
98.4896
 30
-12
 10
52.8565
 20
97.1477
 30
-12
 10
48.1333
 20
95.4679
 30
-12
  0
SPLINE
  5
A30
330
A02
100
AcDbEntity
  8
Body008
100
AcDbSpline
210
0
220
0
230
1
 70
8
 71
3
 72
8
 73
4
 74
0
 40
0
 40
0
 40
0
 40
0
 40
1
 40
1
 40
1
 40
1
 10
150.875
 20
88.9625
 30
-12
 10
150.875
 20
42.8625
 30
-12
 10
150.875
 20
22.158
 30
-12
 10
175.31
 20
11.2349
 30
-12
  0
LINE
  5
A31
330
A02
100
AcDbEntity
  8
Body008
100
AcDbLine
 10
85.725
 20
98.4875
 30
-12
 11
66.675
 21
98.4875
 31
-12
  0
SPLINE
  5
A32
330
A02
100
AcDbEntity
  8
Body008
100
AcDbSpline
210
0
220
0
230
1
 70
8
 71
3
 72
8
 73
4
 74
0
 40
0
 40
0
 40
0
 40
0
 40
1
 40
1
 40
1
 40
1
 10
85.725
 20
98.4875
 30
-12
 10
104.775
 20
98.4875
 30
-12
 10
104.775
 20
88.9625
 30
-12
 10
150.875
 20
88.9625
 30
-12
  0
CIRCLE
  5
A33
330
A02
100
AcDbEntity
  8
Body008
100
AcDbCircle
 10
95.25
 20
-13.9
 40
0.9
  0
CIRCLE
  5
A34
330
A02
100
AcDbEntity
  8
Body008
100
AcDbCircle
 10
151.402
 20
-33.3662
 40
1.4
  0
LINE
  5
A35
330
A02
100
AcDbEntity
  8
Body008
100
AcDbLine
 10
105.525
 20
86.475
 30
-12
 11
85.725
 21
86.475
 31
-12
  0
LINE
  5
A36
330
A02
100
AcDbEntity
  8
Body008
100
AcDbLine
 10
105.525
 20
81.7125
 30
-12
 11
105.525
 21
86.475
 31
-12
  0
LINE
  5
A37
330
A02
100
AcDbEntity
  8
Body008
100
AcDbLine
 10
85.725
 20
-10.275
 30
-12
 11
85.725
 21
86.475
 31
-12
  0
LINE
  5
A38
330
A02
100
AcDbEntity
  8
Body008
100
AcDbLine
 10
143.625
 20
81.7125
 30
-12
 11
105.525
 21
81.7125
 31
-12
  0
LINE
  5
A39
330
A02
100
AcDbEntity
  8
Body008
100
AcDbLine
 10
85.725
 20
-10.275
 30
-12
 11
103.849
 21
-10.275
 31
-12
  0
LINE
  5
A3A
330
A02
100
AcDbEntity
  8
Body008
100
AcDbLine
 10
143.625
 20
17.4575
 30
-12
 11
143.625
 21
81.7125
 31
-12
  0
LINE
  5
A3B
330
A02
100
AcDbEntity
  8
Body008
100
AcDbLine
 10
103.849
 20
-10.275
 30
-12
 11
102.962
 21
-14.4489
 31
-12
  0
LINE
  5
A3C
330
A02
100
AcDbEntity
  8
Body008
100
AcDbLine
 10
165.733
 20
7.57485
 30
-12
 11
143.625
 21
17.4575
 31
-12
  0
LINE
  5
A3D
330
A02
100
AcDbEntity
  8
Body008
100
AcDbLine
 10
102.962
 20
-14.4489
 30
-12
 11
131.568
 21
-20.5294
 31
-12
  0
LINE
  5
A3E
330
A02
100
AcDbEntity
  8
Body008
100
AcDbLine
 10
149.572
 20
-28.5774
 30
-12
 11
165.733
 21
7.57485
 31
-12
  0
LINE
  5
A3F
330
A02
100
AcDbEntity
  8
Body008
100
AcDbLine
 10
131.568
 20
-20.5294
 30
-12
 11
149.572
 21
-28.5774
 31
-12
  0
CIRCLE
  5
A40
330
A02
100
AcDbEntity
  8
Body008
100
AcDbCircle
 10
170.521
 20
9.40487
 40
1.4
  0
CIRCLE
  5
A41
330
A02
100
AcDbEntity
  8
Body008
100
AcDbCircle
 10
57.15
 20
92.085
 40
0.9
  0
CIRCLE
  5
A42
330
A02
100
AcDbEntity
  8
Body008
100
AcDbCircle
 10
95.25
 20
92.085
 40
0.9
  0
CIRCLE
  5
A43
330
A02
100
AcDbEntity
  8
Body008
100
AcDbCircle
 10
147.25
 20
85.3375
 40
1.4
  0
LINE
  5
A44
330
A02
100
AcDbEntity
  8
Body008
100
AcDbLine
 10
66.675
 20
98.4875
 30
-15
 11
66.675
 21
98.4875
 31
-12
  0
LINE
  5
A45
330
A02
100
AcDbEntity
  8
Body008
100
AcDbLine
 10
48.1333
 20
95.4679
 30
-15
 11
48.1333
 21
95.4679
 31
-12
  0
SPLINE
  5
A46
330
A02
100
AcDbEntity
  8
Body008
100
AcDbSpline
210
0
220
0
230
1
 70
8
 71
3
 72
8
 73
4
 74
0
 40
0
 40
0
 40
0
 40
0
 40
1
 40
1
 40
1
 40
1
 10
66.675
 20
98.4875
 30
-15
 10
58.3469
 20
98.4896
 30
-15
 10
52.8565
 20
97.1477
 30
-15
 10
48.1333
 20
95.4679
 30
-15
  0
SPLINE
  5
A47
330
A02
100
AcDbEntity
  8
Body008
100
AcDbSpline
210
0
220
0
230
1
 70
8
 71
3
 72
8
 73
4
 74
0
 40
0
 40
0
 40
0
 40
0
 40
1
 40
1
 40
1
 40
1
 10
66.675
 20
98.4875
 30
-12
 10
58.3469
 20
98.4896
 30
-12
 10
52.8565
 20
97.1477
 30
-12
 10
48.1333
 20
95.4679
 30
-12
  0
LINE
  5
A48
330
A02
100
AcDbEntity
  8
Body008
100
AcDbLine
 10
150.875
 20
88.9625
 30
-15
 11
150.875
 21
88.9625
 31
-12
  0
LINE
  5
A49
330
A02
100
AcDbEntity
  8
Body008
100
AcDbLine
 10
175.31
 20
11.2349
 30
-15
 11
175.31
 21
11.2349
 31
-12
  0
SPLINE
  5
A4A
330
A02
100
AcDbEntity
  8
Body008
100
AcDbSpline
210
0
220
0
230
1
 70
8
 71
3
 72
8
 73
4
 74
0
 40
0
 40
0
 40
0
 40
0
 40
1
 40
1
 40
1
 40
1
 10
150.875
 20
88.9625
 30
-15
 10
150.875
 20
42.8625
 30
-15
 10
150.875
 20
22.158
 30
-15
 10
175.31
 20
11.2349
 30
-15
  0
SPLINE
  5
A4B
330
A02
100
AcDbEntity
  8
Body008
100
AcDbSpline
210
0
220
0
230
1
 70
8
 71
3
 72
8
 73
4
 74
0
 40
0
 40
0
 40
0
 40
0
 40
1
 40
1
 40
1
 40
1
 10
150.875
 20
88.9625
 30
-12
 10
150.875
 20
42.8625
 30
-12
 10
150.875
 20
22.158
 30
-12
 10
175.31
 20
11.2349
 30
-12
  0
LINE
  5
A4C
330
A02
100
AcDbEntity
  8
Body008
100
AcDbLine
 10
85.725
 20
98.4875
 30
-15
 11
85.725
 21
98.4875
 31
-12
  0
LINE
  5
A4D
330
A02
100
AcDbEntity
  8
Body008
100
AcDbLine
 10
66.675
 20
98.4875
 30
-15
 11
66.675
 21
98.4875
 31
-12
  0
LINE
  5
A4E
330
A02
100
AcDbEntity
  8
Body008
100
AcDbLine
 10
85.725
 20
98.4875
 30
-15
 11
66.675
 21
98.4875
 31
-15
  0
LINE
  5
A4F
330
A02
100
AcDbEntity
  8
Body008
100
AcDbLine
 10
85.725
 20
98.4875
 30
-12
 11
66.675
 21
98.4875
 31
-12
  0
LINE
  5
A50
330
A02
100
AcDbEntity
  8
Body008
100
AcDbLine
 10
85.725
 20
98.4875
 30
-15
 11
85.725
 21
98.4875
 31
-12
  0
LINE
  5
A51
330
A02
100
AcDbEntity
  8
Body008
100
AcDbLine
 10
150.875
 20
88.9625
 30
-15
 11
150.875
 21
88.9625
 31
-12
  0
SPLINE
  5
A52
330
A02
100
AcDbEntity
  8
Body008
100
AcDbSpline
210
0
220
0
230
1
 70
8
 71
3
 72
8
 73
4
 74
0
 40
0
 40
0
 40
0
 40
0
 40
1
 40
1
 40
1
 40
1
 10
85.725
 20
98.4875
 30
-15
 10
104.775
 20
98.4875
 30
-15
 10
104.775
 20
88.9625
 30
-15
 10
150.875
 20
88.9625
 30
-15
  0
SPLINE
  5
A53
330
A02
100
AcDbEntity
  8
Body008
100
AcDbSpline
210
0
220
0
230
1
 70
8
 71
3
 72
8
 73
4
 74
0
 40
0
 40
0
 40
0
 40
0
 40
1
 40
1
 40
1
 40
1
 10
85.725
 20
98.4875
 30
-12
 10
104.775
 20
98.4875
 30
-12
 10
104.775
 20
88.9625
 30
-12
 10
150.875
 20
88.9625
 30
-12
  0
CIRCLE
  5
A54
330
A02
100
AcDbEntity
  8
Body008
100
AcDbCircle
 10
95.25
 20
-13.9
 40
0.9
  0
LINE
  5
A55
330
A02
100
AcDbEntity
  8
Body008
100
AcDbLine
 10
96.15
 20
-13.9
 30
-15
 11
96.15
 21
-13.9
 31
-12
  0
CIRCLE
  5
A56
330
A02
100
AcDbEntity
  8
Body008
100
AcDbCircle
 10
95.25
 20
-13.9
 40
0.9
  0
LINE
  5
A57
330
A02
100
AcDbEntity
  8
Body008
100
AcDbLine
 10
96.15
 20
-13.9
 30
-15
 11
96.15
 21
-13.9
 31
-12
  0
CIRCLE
  5
A58
330
A02
100
AcDbEntity
  8
Body008
100
AcDbCircle
 10
151.402
 20
-33.3662
 40
1.4
  0
LINE
  5
A59
330
A02
100
AcDbEntity
  8
Body008
100
AcDbLine
 10
152.802
 20
-33.3662
 30
-15
 11
152.802
 21
-33.3662
 31
-12
  0
CIRCLE
  5
A5A
330
A02
100
AcDbEntity
  8
Body008
100
AcDbCircle
 10
151.402
 20
-33.3662
 40
1.4
  0
LINE
  5
A5B
330
A02
100
AcDbEntity
  8
Body008
100
AcDbLine
 10
152.802
 20
-33.3662
 30
-15
 11
152.802
 21
-33.3662
 31
-12
  0
LINE
  5
A5C
330
A02
100
AcDbEntity
  8
Body008
100
AcDbLine
 10
85.725
 20
86.475
 30
-15
 11
85.725
 21
-10.275
 31
-15
  0
LINE
  5
A5D
330
A02
100
AcDbEntity
  8
Body008
100
AcDbLine
 10
85.725
 20
-10.275
 30
-15
 11
85.725
 21
-10.275
 31
-12
  0
LINE
  5
A5E
330
A02
100
AcDbEntity
  8
Body008
100
AcDbLine
 10
85.725
 20
-10.275
 30
-12
 11
85.725
 21
86.475
 31
-12
  0
LINE
  5
A5F
330
A02
100
AcDbEntity
  8
Body008
100
AcDbLine
 10
85.725
 20
86.475
 30
-15
 11
85.725
 21
86.475
 31
-12
  0
LINE
  5
A60
330
A02
100
AcDbEntity
  8
Body008
100
AcDbLine
 10
85.725
 20
86.475
 30
-15
 11
105.525
 21
86.475
 31
-15
  0
LINE
  5
A61
330
A02
100
AcDbEntity
  8
Body008
100
AcDbLine
 10
105.525
 20
86.475
 30
-15
 11
105.525
 21
86.475
 31
-12
  0
LINE
  5
A62
330
A02
100
AcDbEntity
  8
Body008
100
AcDbLine
 10
105.525
 20
86.475
 30
-12
 11
85.725
 21
86.475
 31
-12
  0
LINE
  5
A63
330
A02
100
AcDbEntity
  8
Body008
100
AcDbLine
 10
85.725
 20
86.475
 30
-15
 11
85.725
 21
86.475
 31
-12
  0
LINE
  5
A64
330
A02
100
AcDbEntity
  8
Body008
100
AcDbLine
 10
103.849
 20
-10.275
 30
-15
 11
85.725
 21
-10.275
 31
-15
  0
LINE
  5
A65
330
A02
100
AcDbEntity
  8
Body008
100
AcDbLine
 10
85.725
 20
-10.275
 30
-15
 11
85.725
 21
-10.275
 31
-12
  0
LINE
  5
A66
330
A02
100
AcDbEntity
  8
Body008
100
AcDbLine
 10
85.725
 20
-10.275
 30
-12
 11
103.849
 21
-10.275
 31
-12
  0
LINE
  5
A67
330
A02
100
AcDbEntity
  8
Body008
100
AcDbLine
 10
103.849
 20
-10.275
 30
-15
 11
103.849
 21
-10.275
 31
-12
  0
LINE
  5
A68
330
A02
100
AcDbEntity
  8
Body008
100
AcDbLine
 10
105.525
 20
86.475
 30
-15
 11
105.525
 21
81.7125
 31
-15
  0
LINE
  5
A69
330
A02
100
AcDbEntity
  8
Body008
100
AcDbLine
 10
105.525
 20
81.7125
 30
-15
 11
105.525
 21
81.7125
 31
-12
  0
LINE
  5
A6A
330
A02
100
AcDbEntity
  8
Body008
100
AcDbLine
 10
105.525
 20
81.7125
 30
-12
 11
105.525
 21
86.475
 31
-12
  0
LINE
  5
A6B
330
A02
100
AcDbEntity
  8
Body008
100
AcDbLine
 10
105.525
 20
86.475
 30
-15
 11
105.525
 21
86.475
 31
-12
  0
LINE
  5
A6C
330
A02
100
AcDbEntity
  8
Body008
100
AcDbLine
 10
102.962
 20
-14.4489
 30
-15
 11
103.849
 21
-10.275
 31
-15
  0
LINE
  5
A6D
330
A02
100
AcDbEntity
  8
Body008
100
AcDbLine
 10
103.849
 20
-10.275
 30
-15
 11
103.849
 21
-10.275
 31
-12
  0
LINE
  5
A6E
330
A02
100
AcDbEntity
  8
Body008
100
AcDbLine
 10
103.849
 20
-10.275
 30
-12
 11
102.962
 21
-14.4489
 31
-12
  0
LINE
  5
A6F
330
A02
100
AcDbEntity
  8
Body008
100
AcDbLine
 10
102.962
 20
-14.4489
 30
-15
 11
102.962
 21
-14.4489
 31
-12
  0
LINE
  5
A70
330
A02
100
AcDbEntity
  8
Body008
100
AcDbLine
 10
105.525
 20
81.7125
 30
-15
 11
143.625
 21
81.7125
 31
-15
  0
LINE
  5
A71
330
A02
100
AcDbEntity
  8
Body008
100
AcDbLine
 10
143.625
 20
81.7125
 30
-15
 11
143.625
 21
81.7125
 31
-12
  0
LINE
  5
A72
330
A02
100
AcDbEntity
  8
Body008
100
AcDbLine
 10
143.625
 20
81.7125
 30
-12
 11
105.525
 21
81.7125
 31
-12
  0
LINE
  5
A73
330
A02
100
AcDbEntity
  8
Body008
100
AcDbLine
 10
105.525
 20
81.7125
 30
-15
 11
105.525
 21
81.7125
 31
-12
  0
LINE
  5
A74
330
A02
100
AcDbEntity
  8
Body008
100
AcDbLine
 10
131.568
 20
-20.5294
 30
-15
 11
102.962
 21
-14.4489
 31
-15
  0
LINE
  5
A75
330
A02
100
AcDbEntity
  8
Body008
100
AcDbLine
 10
102.962
 20
-14.4489
 30
-15
 11
102.962
 21
-14.4489
 31
-12
  0
LINE
  5
A76
330
A02
100
AcDbEntity
  8
Body008
100
AcDbLine
 10
102.962
 20
-14.4489
 30
-12
 11
131.568
 21
-20.5294
 31
-12
  0
LINE
  5
A77
330
A02
100
AcDbEntity
  8
Body008
100
AcDbLine
 10
131.568
 20
-20.5294
 30
-15
 11
131.568
 21
-20.5294
 31
-12
  0
LINE
  5
A78
330
A02
100
AcDbEntity
  8
Body008
100
AcDbLine
 10
143.625
 20
81.7125
 30
-15
 11
143.625
 21
17.4575
 31
-15
  0
LINE
  5
A79
330
A02
100
AcDbEntity
  8
Body008
100
AcDbLine
 10
143.625
 20
17.4575
 30
-15
 11
143.625
 21
17.4575
 31
-12
  0
LINE
  5
A7A
330
A02
100
AcDbEntity
  8
Body008
100
AcDbLine
 10
143.625
 20
17.4575
 30
-12
 11
143.625
 21
81.7125
 31
-12
  0
LINE
  5
A7B
330
A02
100
AcDbEntity
  8
Body008
100
AcDbLine
 10
143.625
 20
81.7125
 30
-15
 11
143.625
 21
81.7125
 31
-12
  0
LINE
  5
A7C
330
A02
100
AcDbEntity
  8
Body008
100
AcDbLine
 10
149.572
 20
-28.5774
 30
-15
 11
131.568
 21
-20.5294
 31
-15
  0
LINE
  5
A7D
330
A02
100
AcDbEntity
  8
Body008
100
AcDbLine
 10
131.568
 20
-20.5294
 30
-15
 11
131.568
 21
-20.5294
 31
-12
  0
LINE
  5
A7E
330
A02
100
AcDbEntity
  8
Body008
100
AcDbLine
 10
131.568
 20
-20.5294
 30
-12
 11
149.572
 21
-28.5774
 31
-12
  0
LINE
  5
A7F
330
A02
100
AcDbEntity
  8
Body008
100
AcDbLine
 10
149.572
 20
-28.5774
 30
-15
 11
149.572
 21
-28.5774
 31
-12
  0
LINE
  5
A80
330
A02
100
AcDbEntity
  8
Body008
100
AcDbLine
 10
143.625
 20
17.4575
 30
-15
 11
165.733
 21
7.57485
 31
-15
  0
LINE
  5
A81
330
A02
100
AcDbEntity
  8
Body008
100
AcDbLine
 10
165.733
 20
7.57485
 30
-15
 11
165.733
 21
7.57485
 31
-12
  0
LINE
  5
A82
330
A02
100
AcDbEntity
  8
Body008
100
AcDbLine
 10
165.733
 20
7.57485
 30
-12
 11
143.625
 21
17.4575
 31
-12
  0
LINE
  5
A83
330
A02
100
AcDbEntity
  8
Body008
100
AcDbLine
 10
143.625
 20
17.4575
 30
-15
 11
143.625
 21
17.4575
 31
-12
  0
LINE
  5
A84
330
A02
100
AcDbEntity
  8
Body008
100
AcDbLine
 10
165.733
 20
7.57485
 30
-15
 11
149.572
 21
-28.5774
 31
-15
  0
LINE
  5
A85
330
A02
100
AcDbEntity
  8
Body008
100
AcDbLine
 10
149.572
 20
-28.5774
 30
-15
 11
149.572
 21
-28.5774
 31
-12
  0
LINE
  5
A86
330
A02
100
AcDbEntity
  8
Body008
100
AcDbLine
 10
149.572
 20
-28.5774
 30
-12
 11
165.733
 21
7.57485
 31
-12
  0
LINE
  5
A87
330
A02
100
AcDbEntity
  8
Body008
100
AcDbLine
 10
165.733
 20
7.57485
 30
-15
 11
165.733
 21
7.57485
 31
-12
  0
CIRCLE
  5
A88
330
A02
100
AcDbEntity
  8
Body008
100
AcDbCircle
 10
170.521
 20
9.40487
 40
1.4
  0
LINE
  5
A89
330
A02
100
AcDbEntity
  8
Body008
100
AcDbLine
 10
171.921
 20
9.40487
 30
-15
 11
171.921
 21
9.40487
 31
-12
  0
CIRCLE
  5
A8A
330
A02
100
AcDbEntity
  8
Body008
100
AcDbCircle
 10
170.521
 20
9.40487
 40
1.4
  0
LINE
  5
A8B
330
A02
100
AcDbEntity
  8
Body008
100
AcDbLine
 10
171.921
 20
9.40487
 30
-15
 11
171.921
 21
9.40487
 31
-12
  0
CIRCLE
  5
A8C
330
A02
100
AcDbEntity
  8
Body008
100
AcDbCircle
 10
57.15
 20
92.085
 40
0.9
  0
LINE
  5
A8D
330
A02
100
AcDbEntity
  8
Body008
100
AcDbLine
 10
58.05
 20
92.085
 30
-15
 11
58.05
 21
92.085
 31
-12
  0
CIRCLE
  5
A8E
330
A02
100
AcDbEntity
  8
Body008
100
AcDbCircle
 10
57.15
 20
92.085
 40
0.9
  0
LINE
  5
A8F
330
A02
100
AcDbEntity
  8
Body008
100
AcDbLine
 10
58.05
 20
92.085
 30
-15
 11
58.05
 21
92.085
 31
-12
  0
CIRCLE
  5
A90
330
A02
100
AcDbEntity
  8
Body008
100
AcDbCircle
 10
95.25
 20
92.085
 40
0.9
  0
LINE
  5
A91
330
A02
100
AcDbEntity
  8
Body008
100
AcDbLine
 10
96.15
 20
92.085
 30
-15
 11
96.15
 21
92.085
 31
-12
  0
CIRCLE
  5
A92
330
A02
100
AcDbEntity
  8
Body008
100
AcDbCircle
 10
95.25
 20
92.085
 40
0.9
  0
LINE
  5
A93
330
A02
100
AcDbEntity
  8
Body008
100
AcDbLine
 10
96.15
 20
92.085
 30
-15
 11
96.15
 21
92.085
 31
-12
  0
CIRCLE
  5
A94
330
A02
100
AcDbEntity
  8
Body008
100
AcDbCircle
 10
147.25
 20
85.3375
 40
1.4
  0
LINE
  5
A95
330
A02
100
AcDbEntity
  8
Body008
100
AcDbLine
 10
148.65
 20
85.3375
 30
-15
 11
148.65
 21
85.3375
 31
-12
  0
CIRCLE
  5
A96
330
A02
100
AcDbEntity
  8
Body008
100
AcDbCircle
 10
147.25
 20
85.3375
 40
1.4
  0
LINE
  5
A97
330
A02
100
AcDbEntity
  8
Body008
100
AcDbLine
 10
148.65
 20
85.3375
 30
-15
 11
148.65
 21
85.3375
 31
-12
  0
ENDSEC
  0
SECTION
  2
OBJECTS
  0
DICTIONARY
  5
F000
330
0
100
AcDbDictionary
  3
ACAD_GROUP
350
F001
  0
DICTIONARY
  5
F001
330
F000
100
AcDbDictionary
  0
ENDSEC
  0
EOF