<?xml version="1.0" standalone="no"?>
<!DOCTYPE svg PUBLIC "-//W3C//DTD SVG 1.1//EN" "http://www.w3.org/Graphics/SVG/1.1/DTD/svg11.dtd">
<svg width="156mm" height="119mm" viewBox="0 -91 156 119" xmlns="http://www.w3.org/2000/svg" version="1.1">
<title>OpenSCAD Model</title>
<path d="
M 3.8147e-07,-3.8147e-07 L 19.05,-3.8147e-07 L 19.05,-19.05 L 3.8147e-07,-19.05 z
M 2.525,-2.525 L 2.525,-16.525 L 16.525,-16.525 L 16.525,-2.525 z
M 3.8147e-07,-19.05 L 19.05,-19.05 L 19.05,-38.1 L 3.8147e-07,-38.1 z
M 2.525,-21.575 L 2.525,-35.575 L 16.525,-35.575 L 16.525,-21.575 z
M 3.8147e-07,-38.1 L 19.05,-38.1 L 19.05,-57.15 L 3.8147e-07,-57.15 z
M 2.525,-40.625 L 2.525,-54.625 L 16.525,-54.625 L 16.525,-40.625 z
M 3.8147e-07,-57.15 L 19.05,-57.15 L 19.05,-76.2 L 3.8147e-07,-76.2 z
M 2.525,-59.675 L 2.525,-73.675 L 16.525,-73.675 L 16.525,-59.675 z
M 19.05,-3.8147e-07 L 38.1,-3.8147e-07 L 38.1,-19.05 L 19.05,-19.05 z
M 21.575,-2.525 L 21.575,-16.525 L 35.575,-16.525 L 35.575,-2.525 z
M 19.05,-19.05 L 38.1,-19.05 L 38.1,-38.1 L 19.05,-38.1 z
M 21.575,-21.575 L 21.575,-35.575 L 35.575,-35.575 L 35.575,-21.575 z
M 19.05,-38.1 L 38.1,-38.1 L 38.1,-57.15 L 19.05,-57.15 z
M 21.575,-40.625 L 21.575,-54.625 L 35.575,-54.625 L 35.575,-40.625 z
M 19.05,-57.15 L 38.1,-57.15 L 38.1,-76.2 L 19.05,-76.2 z
M 21.575,-59.675 L 21.575,-73.675 L 35.575,-73.675 L 35.575,-59.675 z
M 38.1,9.525 L 57.15,9.525 L 57.15,-9.525 L 38.1,-9.525 z
M 40.625,7 L 40.625,-7 L 43.44,-7 L 43.44,-7.6375 L 51.81,-7.6375 L 51.81,-7
 L 54.625,-7 L 54.625,7 L 51.81,7 L 51.81,7.6375 L 43.44,7.6375 L 43.44,7
 z
M 38.1,-9.525 L 57.15,-9.525 L 57.15,-28.575 L 38.1,-28.575 z
M 40.625,-12.05 L 40.625,-26.05 L 54.625,-26.05 L 54.625,-12.05 z
M 38.1,-28.575 L 57.15,-28.575 L 57.15,-47.625 L 38.1,-47.625 z
M 40.625,-31.1 L 40.625,-45.1 L 54.625,-45.1 L 54.625,-31.1 z
M 38.1,-47.625 L 57.15,-47.625 L 57.15,-66.675 L 38.1,-66.675 z
M 40.625,-50.15 L 40.625,-64.15 L 54.625,-64.15 L 54.625,-50.15 z
M 38.1,-66.675 L 57.15,-66.675 L 57.15,-85.725 L 38.1,-85.725 z
M 40.625,-69.2 L 40.625,-83.2 L 54.625,-83.2 L 54.625,-69.2 z
M 57.15,4.7625 L 76.2,4.7625 L 76.2,-14.2875 L 57.15,-14.2875 z
M 59.675,2.2375 L 59.675,-11.7625 L 73.675,-11.7625 L 73.675,2.2375 z
M 57.15,-14.2875 L 76.2,-14.2875 L 76.2,-33.3375 L 57.15,-33.3375 z
M 59.675,-16.8125 L 59.675,-30.8125 L 73.675,-30.8125 L 73.675,-16.8125 z
M 57.15,-33.3375 L 76.2,-33.3375 L 76.2,-52.3875 L 57.15,-52.3875 z
M 59.675,-35.8625 L 59.675,-49.8625 L 73.675,-49.8625 L 73.675,-35.8625 z
M 57.15,-52.3875 L 76.2,-52.3875 L 76.2,-71.4375 L 57.15,-71.4375 z
M 59.675,-54.9125 L 59.675,-68.9125 L 73.675,-68.9125 L 73.675,-54.9125 z
M 57.15,-71.4375 L 76.2,-71.4375 L 76.2,-90.4875 L 57.15,-90.4875 z
M 59.675,-73.9625 L 59.675,-87.9625 L 73.675,-87.9625 L 73.675,-73.9625 z
M 76.2,9.525 L 95.25,9.525 L 95.25,-9.525 L 76.2,-9.525 z
M 78.725,7 L 78.725,-7 L 92.725,-7 L 92.725,7 z
M 76.2,-9.525 L 95.25,-9.525 L 95.25,-28.575 L 76.2,-28.575 z
M 78.725,-12.05 L 78.725,-26.05 L 92.725,-26.05 L 92.725,-12.05 z
M 76.2,-28.575 L 95.25,-28.575 L 95.25,-47.625 L 76.2,-47.625 z
M 78.725,-31.1 L 78.725,-45.1 L 92.725,-45.1 L 92.725,-31.1 z
M 76.2,-47.625 L 95.25,-47.625 L 95.25,-66.675 L 76.2,-66.675 z
M 78.725,-50.15 L 78.725,-64.15 L 92.725,-64.15 L 92.725,-50.15 z
M 76.2,-66.675 L 95.25,-66.675 L 95.25,-85.725 L 76.2,-85.725 z
M 78.725,-69.2 L 78.725,-83.2 L 92.725,-83.2 L 92.725,-69.2 z
M 94.3262,13.8712 L 122.277,19.8123 L 126.237,1.17858 L 98.2869,-4.7625 z
M 101.979,12.9165 L 104.89,-0.777521 L 118.584,2.13324 L 115.673,15.8273 z
M 95.25,9.525 L 98.2869,-4.7625 L 95.25,-4.7625 z
M 95.25,-4.7625 L 113.217,-4.7625 L 112.572,-1.72616 L 130.227,2.02665 L 130.051,2.42085 L 147.443,10.1952
 L 155.217,-7.19623 L 137.825,-14.9706 L 132.176,-2.33366 L 135.166,-16.3992 L 116.532,-20.3599 L 114.3,-9.85689
 L 114.3,-23.8125 L 95.25,-23.8125 z
M 97.775,-7.2875 L 97.775,-21.2875 L 111.775,-21.2875 L 111.775,-7.2875 z
M 115.528,-6.55704 L 117.268,-14.7441 L 117.892,-14.6116 L 118.477,-17.3651 L 132.171,-14.4543 L 131.586,-11.7008
 L 132.21,-11.5683 L 130.469,-3.38118 L 129.846,-3.51373 L 129.261,-0.760242 L 115.567,-3.67101 L 116.152,-6.42449
 z
M 133.387,1.14615 L 139.1,-11.635 L 151.881,-5.92152 L 146.168,6.85958 z
M 95.25,-23.8125 L 114.3,-23.8125 L 114.3,-42.8625 L 95.25,-42.8625 z
M 97.775,-26.3375 L 97.775,-40.3375 L 111.775,-40.3375 L 111.775,-26.3375 z
M 95.25,-42.8625 L 114.3,-42.8625 L 114.3,-61.9125 L 95.25,-61.9125 z
M 97.775,-45.3875 L 97.775,-59.3875 L 111.775,-59.3875 L 111.775,-45.3875 z
M 95.25,-61.9125 L 114.3,-61.9125 L 114.3,-80.9625 L 95.25,-80.9625 z
M 97.775,-64.4375 L 97.775,-78.4375 L 111.775,-78.4375 L 111.775,-64.4375 z
M 98.2869,-4.7625 L 112.572,-1.72616 L 113.217,-4.7625 z
M 114.3,-61.9125 L 133.35,-61.9125 L 133.35,-80.9625 L 114.3,-80.9625 z
M 116.825,-64.4375 L 116.825,-78.4375 L 130.825,-78.4375 L 130.825,-64.4375 z
M 122.277,19.8123 L 130.227,2.02665 L 126.237,1.17858 z
M 122.277,19.8123 L 139.668,27.5866 L 147.443,10.1952 L 130.051,2.42086 z
M 125.612,18.5376 L 131.326,5.75648 L 144.107,11.4699 L 138.393,24.251 z
" stroke="black" fill="lightgray" stroke-width="0.5"/>
</svg>
