<?xml version="1.0" standalone="no"?>
<!DOCTYPE svg PUBLIC "-//W3C//DTD SVG 1.1//EN" "http://www.w3.org/Graphics/SVG/1.1/DTD/svg11.dtd">
<svg width="165mm" height="119mm" viewBox="0 -91 165 119" xmlns="http://www.w3.org/2000/svg" version="1.1">
<title>OpenSCAD Model</title>
<path d="
M 5.72205e-07,-3.8147e-07 L 28.575,-3.8147e-07 L 28.575,-19.05 L 5.72205e-07,-19.05 z
M 7.2875,-2.525 L 7.2875,-16.525 L 21.2875,-16.525 L 21.2875,-2.525 z
M 5.72205e-07,-19.05 L 28.575,-19.05 L 28.575,-38.1 L 5.72205e-07,-38.1 z
M 7.2875,-21.575 L 7.2875,-35.575 L 21.2875,-35.575 L 21.2875,-21.575 z
M 5.72205e-07,-38.1 L 28.575,-38.1 L 28.575,-57.15 L 5.72205e-07,-57.15 z
M 7.2875,-40.625 L 7.2875,-54.625 L 21.2875,-54.625 L 21.2875,-40.625 z
M 5.72205e-07,-57.15 L 28.575,-57.15 L 28.575,-76.2 L 5.72205e-07,-76.2 z
M 7.2875,-59.675 L 7.2875,-73.675 L 21.2875,-73.675 L 21.2875,-59.675 z
M 28.575,-3.8147e-07 L 47.625,-3.8147e-07 L 47.625,-19.05 L 28.575,-19.05 z
M 31.1,-2.525 L 31.1,-16.525 L 45.1,-16.525 L 45.1,-2.525 z
M 28.575,-19.05 L 47.625,-19.05 L 47.625,-38.1 L 28.575,-38.1 z
M 31.1,-21.575 L 31.1,-35.575 L 45.1,-35.575 L 45.1,-21.575 z
M 28.575,-38.1 L 47.625,-38.1 L 47.625,-57.15 L 28.575,-57.15 z
M 31.1,-40.625 L 31.1,-54.625 L 45.1,-54.625 L 45.1,-40.625 z
M 28.575,-57.15 L 47.625,-57.15 L 47.625,-76.2 L 28.575,-76.2 z
M 31.1,-59.675 L 31.1,-73.675 L 45.1,-73.675 L 45.1,-59.675 z
M 47.625,9.525 L 66.675,9.525 L 66.675,-9.525 L 47.625,-9.525 z
M 50.15,7 L 50.15,-7 L 52.965,-7 L 52.965,-7.6375 L 61.335,-7.6375 L 61.335,-7
 L 64.15,-7 L 64.15,7 L 61.335,7 L 61.335,7.6375 L 52.965,7.6375 L 52.965,7
 z
M 47.625,-9.525 L 66.675,-9.525 L 66.675,-28.575 L 47.625,-28.575 z
M 50.15,-12.05 L 50.15,-26.05 L 64.15,-26.05 L 64.15,-12.05 z
M 47.625,-28.575 L 66.675,-28.575 L 66.675,-47.625 L 47.625,-47.625 z
M 50.15,-31.1 L 50.15,-45.1 L 64.15,-45.1 L 64.15,-31.1 z
M 47.625,-47.625 L 66.675,-47.625 L 66.675,-66.675 L 47.625,-66.675 z
M 50.15,-50.15 L 50.15,-64.15 L 64.15,-64.15 L 64.15,-50.15 z
M 47.625,-66.675 L 66.675,-66.675 L 66.675,-85.725 L 47.625,-85.725 z
M 50.15,-69.2 L 50.15,-83.2 L 64.15,-83.2 L 64.15,-69.2 z
M 66.675,4.7625 L 85.725,4.7625 L 85.725,-14.2875 L 66.675,-14.2875 z
M 69.2,2.2375 L 69.2,-11.7625 L 83.2,-11.7625 L 83.2,2.2375 z
M 66.675,-14.2875 L 85.725,-14.2875 L 85.725,-33.3375 L 66.675,-33.3375 z
M 69.2,-16.8125 L 69.2,-30.8125 L 83.2,-30.8125 L 83.2,-16.8125 z
M 66.675,-33.3375 L 85.725,-33.3375 L 85.725,-52.3875 L 66.675,-52.3875 z
M 69.2,-35.8625 L 69.2,-49.8625 L 83.2,-49.8625 L 83.2,-35.8625 z
M 66.675,-52.3875 L 85.725,-52.3875 L 85.725,-71.4375 L 66.675,-71.4375 z
M 69.2,-54.9125 L 69.2,-68.9125 L 83.2,-68.9125 L 83.2,-54.9125 z
M 66.675,-71.4375 L 85.725,-71.4375 L 85.725,-90.4875 L 66.675,-90.4875 z
M 69.2,-73.9625 L 69.2,-87.9625 L 83.2,-87.9625 L 83.2,-73.9625 z
M 85.725,9.525 L 104.775,9.525 L 107.812,-4.7625 L 104.775,-4.7625 L 104.775,-9.525 L 85.725,-9.525
 z
M 88.25,7 L 88.25,-7 L 102.25,-7 L 102.25,7 z
M 85.725,-9.525 L 104.775,-9.525 L 104.775,-28.575 L 85.725,-28.575 z
M 88.25,-12.05 L 88.25,-26.05 L 102.25,-26.05 L 102.25,-12.05 z
M 85.725,-28.575 L 104.775,-28.575 L 104.775,-47.625 L 85.725,-47.625 z
M 88.25,-31.1 L 88.25,-45.1 L 102.25,-45.1 L 102.25,-31.1 z
M 85.725,-47.625 L 104.775,-47.625 L 104.775,-66.675 L 85.725,-66.675 z
M 88.25,-50.15 L 88.25,-64.15 L 102.25,-64.15 L 102.25,-50.15 z
M 85.725,-66.675 L 104.775,-66.675 L 104.775,-85.725 L 85.725,-85.725 z
M 88.25,-69.2 L 88.25,-83.2 L 102.25,-83.2 L 102.25,-69.2 z
M 103.851,13.8712 L 131.802,19.8123 L 135.762,1.17858 L 107.812,-4.7625 z
M 111.504,12.9165 L 114.415,-0.777521 L 128.109,2.13324 L 125.198,15.8273 z
M 104.775,-4.7625 L 123.825,-4.7625 L 123.825,-23.8125 L 104.775,-23.8125 z
M 107.3,-7.2875 L 107.3,-21.2875 L 121.3,-21.2875 L 121.3,-7.2875 z
M 104.775,-23.8125 L 123.825,-23.8125 L 123.825,-42.8625 L 104.775,-42.8625 z
M 107.3,-26.3375 L 107.3,-40.3375 L 121.3,-40.3375 L 121.3,-26.3375 z
M 104.775,-42.8625 L 123.825,-42.8625 L 123.825,-61.9125 L 104.775,-61.9125 z
M 107.3,-45.3875 L 107.3,-59.3875 L 121.3,-59.3875 L 121.3,-45.3875 z
M 104.775,-61.9125 L 123.825,-61.9125 L 123.825,-80.9625 L 104.775,-80.9625 z
M 107.3,-64.4375 L 107.3,-78.4375 L 121.3,-78.4375 L 121.3,-64.4375 z
M 107.812,-4.7625 L 139.752,2.02665 L 139.752,2.02652 L 139.576,2.42085 L 156.968,10.1952 L 164.742,-7.19623
 L 147.35,-14.9706 L 147.35,-14.9702 L 142.875,-16.9707 L 142.875,-4.95886 L 142.875,-4.95886 L 142.875,-33.3375
 L 123.825,-33.3375 L 123.825,-4.7625 L 142.787,-4.7625 L 142.787,-4.7625 z
M 126.35,-12.05 L 126.35,-26.05 L 140.35,-26.05 L 140.35,-12.05 z
M 142.912,1.14615 L 148.625,-11.635 L 161.406,-5.92152 L 155.693,6.85958 z
M 123.825,-33.3375 L 142.875,-33.3375 L 142.875,-61.9125 L 123.825,-61.9125 z
M 126.35,-40.625 L 126.35,-54.625 L 140.35,-54.625 L 140.35,-40.625 z
M 123.825,-61.9125 L 142.875,-61.9125 L 142.875,-80.9625 L 123.825,-80.9625 z
M 126.35,-64.4375 L 126.35,-78.4375 L 140.35,-78.4375 L 140.35,-64.4375 z
M 131.802,19.8123 L 139.752,2.02665 L 135.762,1.17858 z
M 131.802,19.8123 L 149.193,27.5866 L 156.968,10.1952 L 139.576,2.42086 z
M 135.137,18.5376 L 140.851,5.75648 L 153.632,11.4699 L 147.918,24.251 z
" stroke="black" fill="lightgray" stroke-width="0.5"/>
</svg>
